<?xml version="1.0" encoding="utf-8"?>
<!-- Generator: Adobe Illustrator 16.0.0, SVG Export Plug-In . SVG Version: 6.00 Build 0)  -->
<!DOCTYPE svg PUBLIC "-//W3C//DTD SVG 1.1//EN" "http://www.w3.org/Graphics/SVG/1.1/DTD/svg11.dtd">
<svg version="1.1" id="Layer_1" xmlns="http://www.w3.org/2000/svg" xmlns:xlink="http://www.w3.org/1999/xlink" x="0px" y="0px"
	 width="219.5px" height="80px" viewBox="0 0 219.5 80" enable-background="new 0 0 219.5 80" xml:space="preserve">
<path fill="#9E2CFD" d="M188.001,15.333H39c-15.096,0-27.333,12.238-27.333,27.333C11.667,57.762,23.904,70,39,70h149.001
	c15.097,0,27.334-12.236,27.334-27.333C215.335,27.571,203.098,15.333,188.001,15.333z"/>
<image display="none" overflow="visible" enable-background="new    " width="233" height="80" xlink:href="69DCC628.png"  transform="matrix(1 0 0 1 -6.4995 0)">
</image>
<g>
	<path d="M50.598,39.52c0.519,0.646,0.779,1.634,0.779,2.964v5.623h-2.869v-5.529c0-0.633-0.098-1.088-0.294-1.367
		s-0.529-0.418-0.998-0.418c-0.544,0-0.969,0.189-1.273,0.57c-0.304,0.379-0.456,0.912-0.456,1.596v5.148h-2.869v-5.529
		c0-0.633-0.099-1.088-0.295-1.367s-0.529-0.418-0.997-0.418c-0.545,0-0.969,0.189-1.273,0.57c-0.304,0.379-0.456,0.912-0.456,1.596
		v5.148h-2.869v-9.329h2.793v1.254c0.291-0.481,0.681-0.849,1.168-1.102c0.487-0.254,1.048-0.38,1.682-0.38
		c1.38,0,2.305,0.576,2.774,1.729c0.304-0.532,0.728-0.953,1.273-1.264c0.544-0.31,1.146-0.465,1.805-0.465
		C49.287,38.551,50.079,38.874,50.598,39.52z"/>
	<path d="M55.424,47.662c-0.748-0.4-1.324-0.963-1.729-1.691s-0.608-1.586-0.608-2.574s0.203-1.846,0.608-2.574
		c0.405-0.729,0.981-1.29,1.729-1.682s1.615-0.589,2.603-0.589c0.988,0,1.855,0.196,2.603,0.589
		c0.747,0.393,1.324,0.953,1.729,1.682c0.405,0.729,0.608,1.586,0.608,2.574s-0.203,1.846-0.608,2.574s-0.982,1.291-1.729,1.691
		c-0.748,0.398-1.615,0.598-2.603,0.598C57.039,48.26,56.171,48.061,55.424,47.662z M60.117,43.396c0-0.9-0.18-1.57-0.542-2.014
		c-0.361-0.443-0.877-0.666-1.548-0.666c-1.394,0-2.09,0.893-2.09,2.68c0,1.785,0.696,2.678,2.09,2.678
		C59.42,46.074,60.117,45.182,60.117,43.396z"/>
	<path d="M71.384,40.906l-1.615,0.172c-0.798,0.076-1.361,0.301-1.691,0.674c-0.33,0.375-0.494,0.871-0.494,1.492v4.863h-2.869
		v-9.329h2.755v1.577c0.469-1.076,1.438-1.665,2.907-1.767l0.836-0.058L71.384,40.906z"/>
	<path d="M80.542,43.984h-6.08c0.088,0.748,0.333,1.289,0.731,1.625s0.966,0.504,1.701,0.504c0.481,0,0.959-0.08,1.435-0.238
		s0.909-0.383,1.301-0.674l0.76,1.918c-0.456,0.355-1.01,0.635-1.663,0.836c-0.652,0.203-1.308,0.305-1.966,0.305
		c-1.571,0-2.809-0.434-3.715-1.301s-1.358-2.049-1.358-3.545c0-0.949,0.196-1.791,0.589-2.525c0.393-0.735,0.938-1.308,1.634-1.72
		c0.696-0.411,1.488-0.617,2.375-0.617c1.304,0,2.34,0.424,3.106,1.272c0.766,0.848,1.149,2.002,1.149,3.458V43.984z M75.06,41.049
		c-0.323,0.35-0.522,0.854-0.599,1.512h3.667c-0.038-0.672-0.206-1.178-0.503-1.521c-0.298-0.342-0.719-0.512-1.264-0.512
		S75.383,40.701,75.06,41.049z"/>
	<path d="M89.453,47.662c-0.748-0.4-1.324-0.963-1.729-1.691s-0.607-1.586-0.607-2.574s0.202-1.846,0.607-2.574
		c0.405-0.729,0.981-1.29,1.729-1.682c0.747-0.393,1.614-0.589,2.603-0.589s1.855,0.196,2.604,0.589
		c0.747,0.393,1.323,0.953,1.729,1.682c0.405,0.729,0.608,1.586,0.608,2.574s-0.203,1.846-0.608,2.574s-0.981,1.291-1.729,1.691
		c-0.748,0.398-1.615,0.598-2.604,0.598S90.2,48.061,89.453,47.662z M94.146,43.396c0-0.9-0.181-1.57-0.541-2.014
		c-0.361-0.443-0.878-0.666-1.549-0.666c-1.394,0-2.09,0.893-2.09,2.68c0,1.785,0.696,2.678,2.09,2.678S94.146,45.182,94.146,43.396
		z"/>
	<path d="M107.085,39.53c0.544,0.652,0.816,1.636,0.816,2.955v5.623h-2.869v-5.49c0-0.633-0.117-1.096-0.352-1.387
		s-0.598-0.438-1.092-0.438c-0.596,0-1.074,0.189-1.435,0.57c-0.361,0.379-0.542,0.887-0.542,1.52v5.225h-2.869v-9.329h2.793v1.33
		c0.33-0.507,0.757-0.893,1.283-1.159c0.525-0.266,1.117-0.398,1.776-0.398C105.71,38.551,106.54,38.877,107.085,39.53z"/>
	<path d="M125.979,42.361c0.424,0.563,0.637,1.256,0.637,2.08c0,1.127-0.415,2.02-1.245,2.678c-0.829,0.66-1.973,0.988-3.429,0.988
		h-6.365V34.713h6.175c1.394,0,2.499,0.311,3.315,0.931c0.817,0.621,1.226,1.47,1.226,2.546c0,0.696-0.187,1.308-0.561,1.833
		c-0.374,0.526-0.89,0.909-1.549,1.151C124.956,41.4,125.555,41.797,125.979,42.361z M118.465,40.166h2.793
		c0.761,0,1.32-0.129,1.682-0.389s0.542-0.656,0.542-1.188c0-0.558-0.181-0.966-0.542-1.226s-0.921-0.39-1.682-0.39h-2.793V40.166z
		 M123.311,45.447c0.354-0.266,0.531-0.695,0.531-1.291s-0.178-1.033-0.531-1.311c-0.355-0.279-0.925-0.418-1.711-0.418h-3.135v3.42
		h3.135C122.386,45.848,122.955,45.715,123.311,45.447z"/>
	<path d="M136.838,43.984h-6.08c0.089,0.748,0.333,1.289,0.731,1.625c0.399,0.336,0.966,0.504,1.7,0.504
		c0.481,0,0.96-0.08,1.435-0.238c0.476-0.158,0.909-0.383,1.302-0.674l0.76,1.918c-0.456,0.355-1.01,0.635-1.662,0.836
		c-0.652,0.203-1.308,0.305-1.967,0.305c-1.57,0-2.809-0.434-3.714-1.301c-0.906-0.867-1.358-2.049-1.358-3.545
		c0-0.949,0.195-1.791,0.589-2.525c0.393-0.735,0.937-1.308,1.634-1.72c0.696-0.411,1.488-0.617,2.375-0.617
		c1.305,0,2.34,0.424,3.106,1.272c0.767,0.848,1.149,2.002,1.149,3.458V43.984z M131.356,41.049
		c-0.323,0.35-0.522,0.854-0.599,1.512h3.667c-0.038-0.672-0.206-1.178-0.503-1.521c-0.298-0.342-0.72-0.512-1.264-0.512
		C132.113,40.527,131.68,40.701,131.356,41.049z"/>
	<path d="M146.908,39.53c0.544,0.652,0.816,1.636,0.816,2.955v5.623h-2.869v-5.49c0-0.633-0.117-1.096-0.352-1.387
		s-0.598-0.438-1.092-0.438c-0.596,0-1.074,0.189-1.435,0.57c-0.361,0.379-0.542,0.887-0.542,1.52v5.225h-2.869V34.713h2.869v5.301
		c0.329-0.481,0.751-0.846,1.264-1.093s1.086-0.37,1.72-0.37C145.533,38.551,146.363,38.877,146.908,39.53z"/>
	<path d="M157.101,39.539c0.665,0.659,0.998,1.678,0.998,3.059v5.51h-2.717v-1.387c-0.19,0.482-0.507,0.859-0.95,1.131
		s-0.963,0.408-1.559,0.408c-0.633,0-1.206-0.127-1.719-0.379c-0.514-0.254-0.919-0.609-1.216-1.064
		c-0.298-0.457-0.447-0.963-0.447-1.52c0-0.686,0.174-1.223,0.522-1.615s0.909-0.678,1.682-0.855s1.83-0.266,3.173-0.266h0.494
		v-0.342c0-0.559-0.12-0.951-0.36-1.18c-0.241-0.227-0.659-0.342-1.255-0.342c-0.455,0-0.962,0.084-1.52,0.248
		s-1.09,0.393-1.596,0.684l-0.761-1.919c0.532-0.329,1.188-0.604,1.967-0.826s1.504-0.332,2.176-0.332
		C155.407,38.551,156.436,38.88,157.101,39.539z M154.85,45.723c0.342-0.373,0.513-0.857,0.513-1.453v-0.322h-0.323
		c-1.025,0-1.744,0.082-2.156,0.246c-0.411,0.166-0.617,0.463-0.617,0.893c0,0.344,0.117,0.629,0.352,0.855
		c0.234,0.229,0.528,0.342,0.884,0.342C154.058,46.283,154.508,46.098,154.85,45.723z"/>
	<path d="M168.587,39.53c0.544,0.652,0.816,1.636,0.816,2.955v5.623h-2.869v-5.49c0-0.633-0.117-1.096-0.352-1.387
		s-0.598-0.438-1.092-0.438c-0.596,0-1.074,0.189-1.435,0.57c-0.361,0.379-0.542,0.887-0.542,1.52v5.225h-2.869v-9.329h2.793v1.33
		c0.33-0.507,0.757-0.893,1.283-1.159c0.525-0.266,1.117-0.398,1.776-0.398C167.212,38.551,168.042,38.877,168.587,39.53z"/>
	<path d="M172.405,46.969c-0.874-0.861-1.311-2.033-1.311-3.516c0-0.975,0.209-1.834,0.627-2.574
		c0.418-0.742,1.007-1.315,1.767-1.72s1.641-0.607,2.641-0.607c0.685,0,1.343,0.104,1.977,0.313c0.633,0.209,1.146,0.49,1.539,0.845
		l-0.761,1.957c-0.367-0.291-0.77-0.516-1.206-0.674s-0.864-0.236-1.282-0.236c-0.748,0-1.327,0.221-1.738,0.664
		c-0.412,0.443-0.618,1.102-0.618,1.977c0,0.873,0.206,1.535,0.618,1.984c0.411,0.451,0.99,0.676,1.738,0.676
		c0.418,0,0.846-0.08,1.282-0.238s0.839-0.383,1.206-0.674l0.761,1.975c-0.418,0.355-0.95,0.635-1.597,0.836
		c-0.646,0.203-1.33,0.305-2.052,0.305C174.477,48.26,173.279,47.83,172.405,46.969z"/>
	<path d="M189.334,43.984h-6.08c0.089,0.748,0.333,1.289,0.731,1.625c0.399,0.336,0.966,0.504,1.7,0.504
		c0.481,0,0.96-0.08,1.435-0.238c0.476-0.158,0.909-0.383,1.302-0.674l0.76,1.918c-0.456,0.355-1.01,0.635-1.662,0.836
		c-0.652,0.203-1.308,0.305-1.967,0.305c-1.57,0-2.809-0.434-3.714-1.301c-0.906-0.867-1.358-2.049-1.358-3.545
		c0-0.949,0.195-1.791,0.589-2.525c0.393-0.735,0.937-1.308,1.634-1.72c0.696-0.411,1.488-0.617,2.375-0.617
		c1.305,0,2.34,0.424,3.106,1.272c0.767,0.848,1.149,2.002,1.149,3.458V43.984z M183.853,41.049
		c-0.323,0.35-0.522,0.854-0.599,1.512h3.667c-0.038-0.672-0.206-1.178-0.503-1.521c-0.298-0.342-0.72-0.512-1.264-0.512
		C184.609,40.527,184.176,40.701,183.853,41.049z"/>
</g>
</svg>
