<?xml version="1.0" encoding="utf-8"?>
<!-- Generator: Adobe Illustrator 16.0.0, SVG Export Plug-In . SVG Version: 6.00 Build 0)  -->
<!DOCTYPE svg PUBLIC "-//W3C//DTD SVG 1.1//EN" "http://www.w3.org/Graphics/SVG/1.1/DTD/svg11.dtd">
<svg version="1.1" id="Layer_1" xmlns="http://www.w3.org/2000/svg" xmlns:xlink="http://www.w3.org/1999/xlink" x="0px" y="0px"
	 width="761.665px" height="239px" viewBox="0 0 761.665 239" enable-background="new 0 0 761.665 239" xml:space="preserve">
<rect y="31.667" fill="#EBE0B9" width="93.333" height="93.333"/>
<rect x="128.667" y="31.667" fill="#B094FE" width="93.333" height="93.333"/>
<rect x="257.333" y="31.667" fill="#64C7FF" width="93.333" height="93.333"/>
<rect x="384" y="31.667" width="309.165" height="20.833"/>
<linearGradient id="SVGID_1_" gradientUnits="userSpaceOnUse" x1="0" y1="203.0835" x2="693.165" y2="203.0835">
	<stop  offset="0.0054" style="stop-color:#EBE0B9"/>
	<stop  offset="0.5054" style="stop-color:#B094FE"/>
	<stop  offset="1" style="stop-color:#64C7FF"/>
</linearGradient>
<rect y="193.167" fill="url(#SVGID_1_)" width="693.165" height="19.833"/>
<g>
	<path d="M17.647,137.658h-1.998l-0.882,4.518h2.538v0.72h-2.682l-0.666,3.438h-0.756l0.666-3.438h-3.384l-0.666,3.438H9.043
		l0.666-3.438h-1.89v-0.72h2.034l0.882-4.518H8.161v-0.72h2.7l0.648-3.294h0.756l-0.63,3.294h3.384l0.63-3.294h0.774l-0.648,3.294
		h1.872V137.658z M14.011,142.175l0.864-4.518h-3.384l-0.864,4.518H14.011z"/>
	<path d="M19.861,146.333v-12.69h7.632v0.702h-6.876v5.202h6.516v0.702h-6.516v5.382h6.876v0.702H19.861z"/>
	<path d="M38.607,140.907c0.402,0.534,0.603,1.197,0.603,1.989c0,1.128-0.354,1.983-1.062,2.565s-1.722,0.873-3.042,0.873h-4.878
		v-12.69h4.68c1.284,0,2.274,0.285,2.97,0.855s1.044,1.395,1.044,2.475c0,0.696-0.177,1.287-0.531,1.773
		c-0.354,0.486-0.849,0.849-1.485,1.089C37.638,140.016,38.205,140.373,38.607,140.907z M30.984,139.529h3.834
		c1.08,0,1.902-0.228,2.466-0.684c0.564-0.456,0.846-1.116,0.846-1.98c0-1.68-1.104-2.52-3.312-2.52h-3.834V139.529z M37.6,144.983
		c0.546-0.432,0.819-1.098,0.819-1.998s-0.279-1.581-0.837-2.043c-0.558-0.462-1.389-0.693-2.493-0.693h-4.104v5.382h4.104
		C36.216,145.631,37.053,145.416,37.6,144.983z"/>
	<path d="M42.199,146.333v-12.69h7.632v0.702h-6.876v5.202h6.516v0.702h-6.516v5.382h6.876v0.702H42.199z"/>
	<path d="M53.052,144.831c-0.732-1.098-1.098-2.709-1.098-4.833c0-2.136,0.363-3.753,1.089-4.851
		c0.726-1.098,1.791-1.647,3.195-1.647c1.404,0,2.469,0.546,3.195,1.638c0.726,1.092,1.089,2.706,1.089,4.842
		c0,2.124-0.366,3.738-1.098,4.842c-0.732,1.104-1.794,1.656-3.186,1.656S53.784,145.929,53.052,144.831z M58.857,144.317
		c0.57-0.936,0.855-2.382,0.855-4.338c0-1.968-0.282-3.417-0.846-4.347c-0.564-0.93-1.44-1.395-2.628-1.395
		c-1.176,0-2.049,0.468-2.619,1.404s-0.855,2.382-0.855,4.338c0,1.944,0.285,3.387,0.855,4.329s1.443,1.413,2.619,1.413
		C57.414,145.722,58.287,145.253,58.857,144.317z"/>
	<path d="M71.745,140.907c0.402,0.534,0.603,1.197,0.603,1.989c0,1.128-0.354,1.983-1.062,2.565s-1.722,0.873-3.042,0.873h-4.878
		v-12.69h4.68c1.284,0,2.274,0.285,2.97,0.855s1.044,1.395,1.044,2.475c0,0.696-0.177,1.287-0.531,1.773
		c-0.354,0.486-0.849,0.849-1.485,1.089C70.776,140.016,71.343,140.373,71.745,140.907z M64.122,139.529h3.834
		c1.08,0,1.902-0.228,2.466-0.684c0.564-0.456,0.846-1.116,0.846-1.98c0-1.68-1.104-2.52-3.312-2.52h-3.834V139.529z
		 M70.737,144.983c0.546-0.432,0.819-1.098,0.819-1.998s-0.279-1.581-0.837-2.043c-0.558-0.462-1.389-0.693-2.493-0.693h-4.104
		v5.382h4.104C69.354,145.631,70.191,145.416,70.737,144.983z"/>
	<path d="M82.041,135.083c0.798,1.056,1.197,2.562,1.197,4.518c0,2.172-0.408,3.861-1.224,5.067s-1.962,1.809-3.438,1.809
		c-0.708,0-1.395-0.144-2.061-0.432s-1.269-0.702-1.809-1.242l0.378-0.63c0.612,0.552,1.197,0.954,1.755,1.206
		s1.143,0.378,1.755,0.378c1.212,0,2.16-0.542,2.844-1.629c0.684-1.086,1.026-2.601,1.026-4.545v-0.684
		c-0.264,0.792-0.735,1.416-1.413,1.872s-1.461,0.684-2.349,0.684c-0.792,0-1.491-0.165-2.097-0.495s-1.077-0.795-1.413-1.395
		c-0.336-0.6-0.504-1.296-0.504-2.088c0-0.756,0.168-1.437,0.504-2.043s0.804-1.08,1.404-1.422c0.6-0.342,1.278-0.513,2.034-0.513
		C80.106,133.5,81.243,134.028,82.041,135.083z M80.394,140.321c0.504-0.276,0.897-0.66,1.179-1.152
		c0.282-0.492,0.423-1.05,0.423-1.674c0-0.984-0.306-1.776-0.918-2.376c-0.612-0.6-1.417-0.9-2.412-0.9c-0.96,0-1.728,0.3-2.304,0.9
		c-0.576,0.6-0.864,1.392-0.864,2.376c0,0.972,0.291,1.755,0.873,2.349c0.582,0.594,1.353,0.891,2.313,0.891
		C79.32,140.735,79.89,140.598,80.394,140.321z"/>
</g>
<g>
	<path d="M148.313,137.658h-1.998l-0.882,4.518h2.538v0.72h-2.682l-0.666,3.438h-0.756l0.666-3.438h-3.384l-0.666,3.438h-0.774
		l0.666-3.438h-1.89v-0.72h2.034l0.882-4.518h-2.574v-0.72h2.7l0.648-3.294h0.756l-0.63,3.294h3.384l0.63-3.294h0.774l-0.648,3.294
		h1.872V137.658z M144.678,142.175l0.864-4.518h-3.384l-0.864,4.518H144.678z"/>
	<path d="M158.906,140.907c0.402,0.534,0.603,1.197,0.603,1.989c0,1.128-0.354,1.983-1.062,2.565s-1.722,0.873-3.042,0.873h-4.878
		v-12.69h4.68c1.284,0,2.274,0.285,2.97,0.855s1.044,1.395,1.044,2.475c0,0.696-0.177,1.287-0.531,1.773
		c-0.354,0.486-0.849,0.849-1.485,1.089C157.937,140.016,158.504,140.373,158.906,140.907z M151.283,139.529h3.834
		c1.08,0,1.902-0.228,2.466-0.684c0.564-0.456,0.846-1.116,0.846-1.98c0-1.68-1.104-2.52-3.312-2.52h-3.834V139.529z
		 M157.898,144.983c0.546-0.432,0.819-1.098,0.819-1.998s-0.279-1.581-0.837-2.043c-0.558-0.462-1.389-0.693-2.493-0.693h-4.104
		v5.382h4.104C156.515,145.631,157.352,145.416,157.898,144.983z"/>
	<path d="M162.983,144.831c-0.732-1.098-1.098-2.709-1.098-4.833c0-2.136,0.363-3.753,1.089-4.851
		c0.726-1.098,1.791-1.647,3.195-1.647c1.404,0,2.469,0.546,3.195,1.638c0.726,1.092,1.089,2.706,1.089,4.842
		c0,2.124-0.366,3.738-1.098,4.842c-0.732,1.104-1.794,1.656-3.186,1.656S163.715,145.929,162.983,144.831z M168.788,144.317
		c0.57-0.936,0.855-2.382,0.855-4.338c0-1.968-0.282-3.417-0.846-4.347c-0.564-0.93-1.44-1.395-2.628-1.395
		c-1.176,0-2.049,0.468-2.619,1.404s-0.855,2.382-0.855,4.338c0,1.944,0.285,3.387,0.855,4.329s1.443,1.413,2.619,1.413
		C167.345,145.722,168.218,145.253,168.788,144.317z"/>
	<path d="M180.002,135.083c0.798,1.056,1.197,2.562,1.197,4.518c0,2.172-0.408,3.861-1.224,5.067s-1.962,1.809-3.438,1.809
		c-0.708,0-1.395-0.144-2.061-0.432s-1.269-0.702-1.809-1.242l0.378-0.63c0.612,0.552,1.197,0.954,1.755,1.206
		s1.143,0.378,1.755,0.378c1.212,0,2.16-0.542,2.844-1.629c0.684-1.086,1.026-2.601,1.026-4.545v-0.684
		c-0.264,0.792-0.735,1.416-1.413,1.872s-1.461,0.684-2.349,0.684c-0.792,0-1.491-0.165-2.097-0.495s-1.077-0.795-1.413-1.395
		c-0.336-0.6-0.504-1.296-0.504-2.088c0-0.756,0.168-1.437,0.504-2.043s0.804-1.08,1.404-1.422c0.6-0.342,1.278-0.513,2.034-0.513
		C178.067,133.5,179.204,134.028,180.002,135.083z M178.355,140.321c0.504-0.276,0.897-0.66,1.179-1.152
		c0.282-0.492,0.423-1.05,0.423-1.674c0-0.984-0.306-1.776-0.918-2.376c-0.612-0.6-1.417-0.9-2.412-0.9c-0.96,0-1.728,0.3-2.304,0.9
		c-0.576,0.6-0.864,1.392-0.864,2.376c0,0.972,0.291,1.755,0.873,2.349c0.582,0.594,1.353,0.891,2.313,0.891
		C177.281,140.735,177.851,140.598,178.355,140.321z"/>
	<path d="M192.359,142.644v0.702h-1.998v2.988h-0.756v-2.988h-5.688l-0.018,0.036v-0.036h-0.45v-0.594l6.282-9.108h0.63v9H192.359z
		 M184.403,142.644h5.202v-7.524L184.403,142.644z"/>
	<path d="M194.897,146.333v-12.69h7.452v0.702h-6.714v5.202h6.354v0.684h-6.354v6.102H194.897z"/>
	<path d="M204.761,146.333v-12.69h7.632v0.702h-6.876v5.202h6.516v0.702h-6.516v5.382h6.876v0.702H204.761z"/>
</g>
<g>
	<path d="M277.98,137.658h-1.998l-0.882,4.518h2.538v0.72h-2.682l-0.666,3.438h-0.756l0.666-3.438h-3.384l-0.666,3.438h-0.774
		l0.666-3.438h-1.89v-0.72h2.034l0.882-4.518h-2.574v-0.72h2.7l0.648-3.294h0.756l-0.63,3.294h3.384l0.63-3.294h0.774l-0.648,3.294
		h1.872V137.658z M274.345,142.175l0.864-4.518h-3.384l-0.864,4.518H274.345z"/>
	<path d="M286.287,139.017c0.606,0.33,1.077,0.795,1.413,1.395s0.504,1.296,0.504,2.088c0,0.756-0.168,1.437-0.504,2.043
		s-0.804,1.08-1.404,1.422c-0.6,0.342-1.278,0.513-2.034,0.513c-1.476,0-2.613-0.528-3.411-1.584
		c-0.798-1.056-1.197-2.562-1.197-4.518c0-2.172,0.408-3.861,1.224-5.067c0.816-1.206,1.962-1.809,3.438-1.809
		c0.708,0,1.395,0.144,2.061,0.432s1.269,0.702,1.809,1.242l-0.378,0.63c-0.612-0.552-1.197-0.954-1.755-1.206
		s-1.143-0.378-1.755-0.378c-1.212,0-2.16,0.543-2.844,1.629c-0.684,1.086-1.026,2.601-1.026,4.545v0.72
		c0.264-0.804,0.732-1.437,1.404-1.899c0.672-0.462,1.458-0.693,2.358-0.693C284.982,138.521,285.681,138.687,286.287,139.017z
		 M286.54,144.857c0.582-0.6,0.873-1.392,0.873-2.376c0-0.972-0.294-1.755-0.882-2.349c-0.588-0.594-1.362-0.891-2.322-0.891
		c-0.636,0-1.206,0.138-1.71,0.414c-0.504,0.276-0.897,0.66-1.179,1.152c-0.282,0.492-0.423,1.05-0.423,1.674
		c0,0.984,0.309,1.776,0.927,2.376c0.618,0.6,1.425,0.9,2.421,0.9C285.192,145.757,285.957,145.458,286.54,144.857z"/>
	<path d="M299.239,142.644v0.702h-1.998v2.988h-0.756v-2.988h-5.688l-0.018,0.036v-0.036h-0.45v-0.594l6.282-9.108h0.63v9H299.239z
		 M291.283,142.644h5.202v-7.524L291.283,142.644z"/>
	<path d="M303.891,145.704c-0.846-0.516-1.497-1.263-1.953-2.241c-0.457-0.978-0.684-2.139-0.684-3.483
		c0-1.344,0.228-2.502,0.684-3.474c0.456-0.972,1.107-1.716,1.953-2.232c0.846-0.516,1.851-0.774,3.015-0.774
		c1.776,0,3.216,0.57,4.32,1.71l-0.378,0.63c-0.624-0.576-1.245-0.987-1.863-1.233c-0.618-0.246-1.317-0.369-2.097-0.369
		c-1.536,0-2.727,0.504-3.573,1.512c-0.846,1.008-1.269,2.418-1.269,4.23c0,1.824,0.423,3.24,1.269,4.248
		c0.846,1.008,2.037,1.512,3.573,1.512c0.78,0,1.479-0.123,2.097-0.369c0.618-0.246,1.239-0.657,1.863-1.233l0.378,0.63
		c-1.104,1.14-2.544,1.71-4.32,1.71C305.742,146.478,304.737,146.22,303.891,145.704z"/>
	<path d="M313.638,133.644h7.974v0.558l-6.102,12.132h-0.81l6.048-12.006h-7.11V133.644z"/>
	<path d="M324.762,146.333v-12.69h7.452v0.702H325.5v5.202h6.354v0.684H325.5v6.102H324.762z"/>
	<path d="M334.625,146.333v-12.69h7.452v0.702h-6.714v5.202h6.354v0.684h-6.354v6.102H334.625z"/>
</g>
<g>
	<path d="M394.314,137.658h-1.998l-0.882,4.518h2.538v0.72h-2.682l-0.666,3.438h-0.756l0.666-3.438h-3.384l-0.666,3.438h-0.774
		l0.666-3.438h-1.89v-0.72h2.034l0.882-4.518h-2.574v-0.72h2.7l0.648-3.294h0.756l-0.63,3.294h3.384l0.63-3.294h0.774l-0.648,3.294
		h1.872V137.658z M390.679,142.175l0.864-4.518h-3.384l-0.864,4.518H390.679z"/>
	<path d="M396.528,146.333v-12.69h7.452v0.702h-6.714v5.202h6.354v0.684h-6.354v6.102H396.528z"/>
	<path d="M410.82,145.649h2.826v0.684h-6.39v-0.684h2.826v-10.908l-2.286,1.512l-0.468-0.63l2.754-1.854v-0.018l0.18-0.108h0.558
		V145.649z"/>
	<path d="M417.192,146.333v-12.69h7.452v0.702h-6.714v5.202h6.354v0.684h-6.354v6.102H417.192z"/>
	<path d="M431.483,145.649h2.826v0.684h-6.39v-0.684h2.826v-10.908l-2.286,1.512l-0.468-0.63l2.754-1.854v-0.018l0.18-0.108h0.558
		V145.649z"/>
	<path d="M437.855,146.333v-12.69h7.452v0.702h-6.714v5.202h6.354v0.684h-6.354v6.102H437.855z"/>
	<path d="M452.147,145.649h2.826v0.684h-6.39v-0.684h2.826v-10.908l-2.286,1.512l-0.468-0.63l2.754-1.854v-0.018l0.18-0.108h0.558
		V145.649z"/>
</g>
<g>
	<path d="M394.314,67.658h-1.998l-0.882,4.518h2.538v0.72h-2.682l-0.666,3.438h-0.756l0.666-3.438h-3.384l-0.666,3.438h-0.774
		l0.666-3.438h-1.89v-0.72h2.034l0.882-4.518h-2.574v-0.72h2.7l0.648-3.294h0.756l-0.63,3.294h3.384l0.63-3.294h0.774l-0.648,3.294
		h1.872V67.658z M390.679,72.175l0.864-4.518h-3.384l-0.864,4.518H390.679z"/>
	<path d="M397.014,74.831c-0.732-1.098-1.098-2.709-1.098-4.833c0-2.136,0.363-3.753,1.089-4.851
		c0.726-1.098,1.791-1.647,3.195-1.647c1.404,0,2.469,0.546,3.195,1.638c0.726,1.092,1.089,2.706,1.089,4.842
		c0,2.124-0.366,3.738-1.098,4.842c-0.732,1.104-1.794,1.656-3.186,1.656S397.746,75.929,397.014,74.831z M402.819,74.317
		c0.57-0.936,0.855-2.382,0.855-4.338c0-1.968-0.282-3.417-0.846-4.347c-0.564-0.93-1.44-1.395-2.628-1.395
		c-1.176,0-2.049,0.468-2.619,1.404s-0.855,2.382-0.855,4.338c0,1.944,0.285,3.387,0.855,4.329s1.443,1.413,2.619,1.413
		C401.376,75.722,402.249,75.253,402.819,74.317z"/>
	<path d="M407.814,74.831c-0.732-1.098-1.098-2.709-1.098-4.833c0-2.136,0.363-3.753,1.089-4.851
		c0.726-1.098,1.791-1.647,3.195-1.647c1.404,0,2.469,0.546,3.195,1.638c0.726,1.092,1.089,2.706,1.089,4.842
		c0,2.124-0.366,3.738-1.098,4.842c-0.732,1.104-1.794,1.656-3.186,1.656S408.546,75.929,407.814,74.831z M413.619,74.317
		c0.57-0.936,0.855-2.382,0.855-4.338c0-1.968-0.282-3.417-0.846-4.347c-0.564-0.93-1.44-1.395-2.628-1.395
		c-1.176,0-2.049,0.468-2.619,1.404s-0.855,2.382-0.855,4.338c0,1.944,0.285,3.387,0.855,4.329s1.443,1.413,2.619,1.413
		C412.176,75.722,413.049,75.253,413.619,74.317z"/>
	<path d="M418.614,74.831c-0.732-1.098-1.098-2.709-1.098-4.833c0-2.136,0.363-3.753,1.089-4.851
		c0.726-1.098,1.791-1.647,3.195-1.647c1.404,0,2.469,0.546,3.195,1.638c0.726,1.092,1.089,2.706,1.089,4.842
		c0,2.124-0.366,3.738-1.098,4.842c-0.732,1.104-1.794,1.656-3.186,1.656S419.346,75.929,418.614,74.831z M424.419,74.317
		c0.57-0.936,0.855-2.382,0.855-4.338c0-1.968-0.282-3.417-0.846-4.347c-0.564-0.93-1.44-1.395-2.628-1.395
		c-1.176,0-2.049,0.468-2.619,1.404s-0.855,2.382-0.855,4.338c0,1.944,0.285,3.387,0.855,4.329s1.443,1.413,2.619,1.413
		C422.976,75.722,423.849,75.253,424.419,74.317z"/>
	<path d="M429.414,74.831c-0.732-1.098-1.098-2.709-1.098-4.833c0-2.136,0.363-3.753,1.089-4.851
		c0.726-1.098,1.791-1.647,3.195-1.647c1.404,0,2.469,0.546,3.195,1.638c0.726,1.092,1.089,2.706,1.089,4.842
		c0,2.124-0.366,3.738-1.098,4.842c-0.732,1.104-1.794,1.656-3.186,1.656S430.146,75.929,429.414,74.831z M435.219,74.317
		c0.57-0.936,0.855-2.382,0.855-4.338c0-1.968-0.282-3.417-0.846-4.347c-0.564-0.93-1.44-1.395-2.628-1.395
		c-1.176,0-2.049,0.468-2.619,1.404s-0.855,2.382-0.855,4.338c0,1.944,0.285,3.387,0.855,4.329s1.443,1.413,2.619,1.413
		C433.775,75.722,434.648,75.253,435.219,74.317z"/>
	<path d="M440.213,74.831c-0.732-1.098-1.098-2.709-1.098-4.833c0-2.136,0.363-3.753,1.089-4.851
		c0.726-1.098,1.791-1.647,3.195-1.647c1.404,0,2.469,0.546,3.195,1.638c0.726,1.092,1.089,2.706,1.089,4.842
		c0,2.124-0.366,3.738-1.098,4.842c-0.732,1.104-1.794,1.656-3.186,1.656S440.945,75.929,440.213,74.831z M446.019,74.317
		c0.57-0.936,0.855-2.382,0.855-4.338c0-1.968-0.282-3.417-0.846-4.347c-0.564-0.93-1.44-1.395-2.628-1.395
		c-1.176,0-2.049,0.468-2.619,1.404s-0.855,2.382-0.855,4.338c0,1.944,0.285,3.387,0.855,4.329s1.443,1.413,2.619,1.413
		C444.575,75.722,445.448,75.253,446.019,74.317z"/>
	<path d="M451.013,74.831c-0.732-1.098-1.098-2.709-1.098-4.833c0-2.136,0.363-3.753,1.089-4.851
		c0.726-1.098,1.791-1.647,3.195-1.647c1.404,0,2.469,0.546,3.195,1.638c0.726,1.092,1.089,2.706,1.089,4.842
		c0,2.124-0.366,3.738-1.098,4.842c-0.732,1.104-1.794,1.656-3.186,1.656S451.745,75.929,451.013,74.831z M456.818,74.317
		c0.57-0.936,0.855-2.382,0.855-4.338c0-1.968-0.282-3.417-0.846-4.347c-0.564-0.93-1.44-1.395-2.628-1.395
		c-1.176,0-2.049,0.468-2.619,1.404s-0.855,2.382-0.855,4.338c0,1.944,0.285,3.387,0.855,4.329s1.443,1.413,2.619,1.413
		C455.375,75.722,456.248,75.253,456.818,74.317z"/>
</g>
<rect x="384" y="104.167" fill="#F1F1F1" width="309.165" height="20.833"/>
</svg>
