<?xml version="1.0" encoding="utf-8"?>
<!-- Generator: Adobe Illustrator 16.0.0, SVG Export Plug-In . SVG Version: 6.00 Build 0)  -->
<!DOCTYPE svg PUBLIC "-//W3C//DTD SVG 1.1//EN" "http://www.w3.org/Graphics/SVG/1.1/DTD/svg11.dtd">
<svg version="1.1" id="Layer_1" xmlns="http://www.w3.org/2000/svg" xmlns:xlink="http://www.w3.org/1999/xlink" x="0px" y="0px"
	 width="761.665px" height="239px" viewBox="0 0 761.665 239" enable-background="new 0 0 761.665 239" xml:space="preserve">
<rect y="31.667" fill="#131F45" width="93.333" height="93.333"/>
<rect x="128.667" y="31.667" fill="#678E00" width="93.333" height="93.333"/>
<rect x="257.333" y="31.667" fill="#D04B00" width="93.333" height="93.333"/>
<rect x="384" y="31.667" width="309.165" height="20.833"/>
<linearGradient id="SVGID_1_" gradientUnits="userSpaceOnUse" x1="0" y1="203.0835" x2="693.165" y2="203.0835">
	<stop  offset="0.0054" style="stop-color:#131F45"/>
	<stop  offset="0.5054" style="stop-color:#678E00"/>
	<stop  offset="1" style="stop-color:#D04B00"/>
</linearGradient>
<rect y="193.167" fill="url(#SVGID_1_)" width="693.165" height="19.833"/>
<g>
	<path d="M17.647,137.658h-1.998l-0.882,4.518h2.538v0.72h-2.682l-0.666,3.438h-0.756l0.666-3.438h-3.384l-0.666,3.438H9.043
		l0.666-3.438h-1.89v-0.72h2.034l0.882-4.518H8.161v-0.72h2.7l0.648-3.294h0.756l-0.63,3.294h3.384l0.63-3.294h0.774l-0.648,3.294
		h1.872V137.658z M14.011,142.175l0.864-4.518h-3.384l-0.864,4.518H14.011z"/>
	<path d="M24.289,145.649h2.826v0.684h-6.39v-0.684h2.826v-10.908l-2.286,1.512l-0.468-0.63l2.754-1.854v-0.018l0.18-0.108h0.558
		V145.649z"/>
	<path d="M37.573,140.916c0.396,0.528,0.594,1.194,0.594,1.998c0,1.092-0.345,1.956-1.035,2.592
		c-0.69,0.636-1.629,0.954-2.817,0.954c-0.792,0-1.551-0.144-2.277-0.432s-1.353-0.702-1.881-1.242l0.378-0.63
		c0.588,0.54,1.191,0.939,1.809,1.197c0.618,0.258,1.281,0.387,1.989,0.387c0.972,0,1.725-0.24,2.259-0.72
		c0.534-0.48,0.801-1.164,0.801-2.052c0-0.9-0.282-1.581-0.846-2.043c-0.564-0.461-1.392-0.693-2.484-0.693h-1.26v-0.702h0.99
		c1.044,0,1.86-0.254,2.448-0.765c0.588-0.51,0.882-1.221,0.882-2.133c0-0.768-0.234-1.362-0.702-1.782
		c-0.468-0.42-1.122-0.63-1.962-0.63c-0.66,0-1.293,0.129-1.899,0.387c-0.606,0.258-1.215,0.657-1.827,1.197l-0.378-0.63
		c0.516-0.528,1.131-0.938,1.845-1.233c0.714-0.294,1.461-0.441,2.241-0.441c1.068,0,1.914,0.282,2.538,0.846
		s0.936,1.332,0.936,2.304c0,0.744-0.183,1.398-0.549,1.962c-0.366,0.564-0.867,0.966-1.503,1.206
		C36.606,140.021,37.177,140.388,37.573,140.916z"/>
	<path d="M45.888,145.649h2.826v0.684h-6.39v-0.684h2.826v-10.908l-2.286,1.512l-0.468-0.63l2.754-1.854v-0.018l0.18-0.108h0.558
		V145.649z"/>
	<path d="M52.26,146.333v-12.69h7.452v0.702h-6.714v5.202h6.354v0.684h-6.354v6.102H52.26z"/>
	<path d="M70.386,142.644v0.702h-1.998v2.988h-0.756v-2.988h-5.688l-0.018,0.036v-0.036h-0.45v-0.594l6.282-9.108h0.63v9H70.386z
		 M62.43,142.644h5.202v-7.524L62.43,142.644z"/>
	<path d="M79.881,139.602c0.702,0.732,1.053,1.698,1.053,2.898c0,0.768-0.162,1.452-0.486,2.052
		c-0.324,0.601-0.786,1.068-1.386,1.404c-0.601,0.336-1.302,0.504-2.106,0.504c-0.744,0-1.479-0.147-2.205-0.441
		c-0.727-0.294-1.353-0.705-1.881-1.233l0.378-0.63c1.164,1.056,2.4,1.584,3.708,1.584c0.972,0,1.743-0.297,2.313-0.891
		c0.569-0.594,0.855-1.383,0.855-2.367c0-0.96-0.279-1.74-0.837-2.34c-0.558-0.6-1.293-0.9-2.205-0.9
		c-0.72,0-1.338,0.144-1.854,0.432c-0.516,0.288-0.966,0.744-1.35,1.368h-0.684v-7.398h7.29v0.702h-6.552v5.58
		c0.348-0.456,0.789-0.807,1.323-1.053c0.534-0.246,1.119-0.369,1.755-0.369C78.222,138.503,79.179,138.87,79.881,139.602z"/>
</g>
<g>
	<path d="M148.313,137.658h-1.998l-0.882,4.518h2.538v0.72h-2.682l-0.666,3.438h-0.756l0.666-3.438h-3.384l-0.666,3.438h-0.774
		l0.666-3.438h-1.89v-0.72h2.034l0.882-4.518h-2.574v-0.72h2.7l0.648-3.294h0.756l-0.63,3.294h3.384l0.63-3.294h0.774l-0.648,3.294
		h1.872V137.658z M144.678,142.175l0.864-4.518h-3.384l-0.864,4.518H144.678z"/>
	<path d="M156.62,139.017c0.606,0.33,1.077,0.795,1.413,1.395s0.504,1.296,0.504,2.088c0,0.756-0.168,1.437-0.504,2.043
		s-0.804,1.08-1.404,1.422c-0.6,0.342-1.278,0.513-2.034,0.513c-1.476,0-2.613-0.528-3.411-1.584
		c-0.798-1.056-1.197-2.562-1.197-4.518c0-2.172,0.408-3.861,1.224-5.067c0.816-1.206,1.962-1.809,3.438-1.809
		c0.708,0,1.395,0.144,2.061,0.432s1.269,0.702,1.809,1.242l-0.378,0.63c-0.612-0.552-1.197-0.954-1.755-1.206
		s-1.143-0.378-1.755-0.378c-1.212,0-2.16,0.543-2.844,1.629c-0.684,1.086-1.026,2.601-1.026,4.545v0.72
		c0.264-0.804,0.732-1.437,1.404-1.899c0.672-0.462,1.458-0.693,2.358-0.693C155.315,138.521,156.014,138.687,156.62,139.017z
		 M156.873,144.857c0.582-0.6,0.873-1.392,0.873-2.376c0-0.972-0.294-1.755-0.882-2.349c-0.588-0.594-1.362-0.891-2.322-0.891
		c-0.636,0-1.206,0.138-1.71,0.414c-0.504,0.276-0.897,0.66-1.179,1.152c-0.282,0.492-0.423,1.05-0.423,1.674
		c0,0.984,0.309,1.776,0.927,2.376c0.618,0.6,1.425,0.9,2.421,0.9C155.525,145.757,156.29,145.458,156.873,144.857z"/>
	<path d="M160.985,133.644h7.974v0.558l-6.102,12.132h-0.81l6.048-12.006h-7.11V133.644z"/>
	<path d="M179.516,141.015c0.426,0.558,0.639,1.227,0.639,2.007c0,1.08-0.375,1.923-1.125,2.529
		c-0.75,0.606-1.833,0.909-3.249,0.909s-2.499-0.303-3.249-0.909c-0.75-0.605-1.125-1.449-1.125-2.529
		c0-0.78,0.213-1.452,0.639-2.016c0.426-0.564,1.011-0.954,1.755-1.17c-0.648-0.24-1.161-0.624-1.539-1.152
		c-0.378-0.528-0.567-1.14-0.567-1.836c0-1.032,0.354-1.848,1.062-2.448c0.708-0.6,1.716-0.9,3.024-0.9s2.316,0.3,3.024,0.9
		c0.708,0.6,1.062,1.416,1.062,2.448c0,0.696-0.192,1.308-0.576,1.836c-0.384,0.528-0.9,0.912-1.548,1.152
		C178.5,140.063,179.09,140.457,179.516,141.015z M179.345,143.003c0-1.824-1.188-2.736-3.564-2.736s-3.564,0.912-3.564,2.736
		c0,1.824,1.188,2.736,3.564,2.736S179.345,144.828,179.345,143.003z M173.342,138.818c0.558,0.474,1.371,0.711,2.439,0.711
		s1.881-0.237,2.439-0.711c0.558-0.474,0.837-1.131,0.837-1.971c0-0.828-0.279-1.473-0.837-1.935s-1.371-0.693-2.439-0.693
		s-1.881,0.231-2.439,0.693s-0.837,1.107-0.837,1.935C172.505,137.688,172.784,138.345,173.342,138.818z"/>
	<path d="M182.909,146.333v-12.69h7.632v0.702h-6.876v5.202h6.516v0.702h-6.516v5.382h6.876v0.702H182.909z"/>
	<path d="M193.763,144.831c-0.732-1.098-1.098-2.709-1.098-4.833c0-2.136,0.363-3.753,1.089-4.851
		c0.726-1.098,1.791-1.647,3.195-1.647c1.404,0,2.469,0.546,3.195,1.638c0.726,1.092,1.089,2.706,1.089,4.842
		c0,2.124-0.366,3.738-1.098,4.842c-0.732,1.104-1.794,1.656-3.186,1.656S194.495,145.929,193.763,144.831z M199.568,144.317
		c0.57-0.936,0.855-2.382,0.855-4.338c0-1.968-0.282-3.417-0.846-4.347c-0.564-0.93-1.44-1.395-2.628-1.395
		c-1.176,0-2.049,0.468-2.619,1.404s-0.855,2.382-0.855,4.338c0,1.944,0.285,3.387,0.855,4.329s1.443,1.413,2.619,1.413
		C198.125,145.722,198.998,145.253,199.568,144.317z"/>
	<path d="M204.563,144.831c-0.732-1.098-1.098-2.709-1.098-4.833c0-2.136,0.363-3.753,1.089-4.851
		c0.726-1.098,1.791-1.647,3.195-1.647c1.404,0,2.469,0.546,3.195,1.638c0.726,1.092,1.089,2.706,1.089,4.842
		c0,2.124-0.366,3.738-1.098,4.842c-0.732,1.104-1.794,1.656-3.186,1.656S205.294,145.929,204.563,144.831z M210.368,144.317
		c0.57-0.936,0.855-2.382,0.855-4.338c0-1.968-0.282-3.417-0.846-4.347c-0.564-0.93-1.44-1.395-2.628-1.395
		c-1.176,0-2.049,0.468-2.619,1.404s-0.855,2.382-0.855,4.338c0,1.944,0.285,3.387,0.855,4.329s1.443,1.413,2.619,1.413
		C208.924,145.722,209.797,145.253,210.368,144.317z"/>
</g>
<g>
	<path d="M277.98,137.658h-1.998l-0.882,4.518h2.538v0.72h-2.682l-0.666,3.438h-0.756l0.666-3.438h-3.384l-0.666,3.438h-0.774
		l0.666-3.438h-1.89v-0.72h2.034l0.882-4.518h-2.574v-0.72h2.7l0.648-3.294h0.756l-0.63,3.294h3.384l0.63-3.294h0.774l-0.648,3.294
		h1.872V137.658z M274.345,142.175l0.864-4.518h-3.384l-0.864,4.518H274.345z"/>
	<path d="M280.194,133.644h3.906c1.992,0,3.525,0.546,4.599,1.638c1.074,1.092,1.611,2.658,1.611,4.698
		c0,2.028-0.54,3.594-1.62,4.698s-2.61,1.656-4.59,1.656h-3.906V133.644z M284.083,145.649c1.788,0,3.138-0.477,4.05-1.431
		c0.912-0.954,1.368-2.367,1.368-4.239s-0.453-3.282-1.359-4.23c-0.906-0.948-2.259-1.422-4.059-1.422h-3.15v11.322H284.083z"/>
	<path d="M293.73,144.831c-0.732-1.098-1.098-2.709-1.098-4.833c0-2.136,0.363-3.753,1.089-4.851
		c0.726-1.098,1.791-1.647,3.195-1.647c1.404,0,2.469,0.546,3.195,1.638c0.726,1.092,1.089,2.706,1.089,4.842
		c0,2.124-0.366,3.738-1.098,4.842c-0.732,1.104-1.794,1.656-3.186,1.656S294.462,145.929,293.73,144.831z M299.535,144.317
		c0.57-0.936,0.855-2.382,0.855-4.338c0-1.968-0.282-3.417-0.846-4.347c-0.564-0.93-1.44-1.395-2.628-1.395
		c-1.176,0-2.049,0.468-2.619,1.404s-0.855,2.382-0.855,4.338c0,1.944,0.285,3.387,0.855,4.329s1.443,1.413,2.619,1.413
		C298.092,145.722,298.965,145.253,299.535,144.317z"/>
	<path d="M312.306,142.644v0.702h-1.998v2.988h-0.756v-2.988h-5.688l-0.018,0.036v-0.036h-0.45v-0.594l6.282-9.108h0.63v9H312.306z
		 M304.35,142.644h5.202v-7.524L304.35,142.644z"/>
	<path d="M323.223,140.907c0.402,0.534,0.603,1.197,0.603,1.989c0,1.128-0.354,1.983-1.062,2.565s-1.722,0.873-3.042,0.873h-4.878
		v-12.69h4.68c1.284,0,2.274,0.285,2.97,0.855s1.044,1.395,1.044,2.475c0,0.696-0.177,1.287-0.531,1.773
		c-0.354,0.486-0.849,0.849-1.485,1.089C322.253,140.016,322.82,140.373,323.223,140.907z M315.6,139.529h3.834
		c1.08,0,1.902-0.228,2.466-0.684c0.564-0.456,0.846-1.116,0.846-1.98c0-1.68-1.104-2.52-3.312-2.52H315.6V139.529z
		 M322.215,144.983c0.546-0.432,0.819-1.098,0.819-1.998s-0.279-1.581-0.837-2.043c-0.558-0.462-1.389-0.693-2.493-0.693H315.6
		v5.382h4.104C320.832,145.631,321.668,145.416,322.215,144.983z"/>
	<path d="M327.3,144.831c-0.732-1.098-1.098-2.709-1.098-4.833c0-2.136,0.363-3.753,1.089-4.851
		c0.726-1.098,1.791-1.647,3.195-1.647c1.404,0,2.469,0.546,3.195,1.638c0.726,1.092,1.089,2.706,1.089,4.842
		c0,2.124-0.366,3.738-1.098,4.842c-0.732,1.104-1.794,1.656-3.186,1.656S328.032,145.929,327.3,144.831z M333.105,144.317
		c0.57-0.936,0.855-2.382,0.855-4.338c0-1.968-0.282-3.417-0.846-4.347c-0.564-0.93-1.44-1.395-2.628-1.395
		c-1.176,0-2.049,0.468-2.619,1.404s-0.855,2.382-0.855,4.338c0,1.944,0.285,3.387,0.855,4.329s1.443,1.413,2.619,1.413
		C331.662,145.722,332.535,145.253,333.105,144.317z"/>
	<path d="M338.1,144.831c-0.732-1.098-1.098-2.709-1.098-4.833c0-2.136,0.363-3.753,1.089-4.851
		c0.726-1.098,1.791-1.647,3.195-1.647c1.404,0,2.469,0.546,3.195,1.638c0.726,1.092,1.089,2.706,1.089,4.842
		c0,2.124-0.366,3.738-1.098,4.842c-0.732,1.104-1.794,1.656-3.186,1.656S338.832,145.929,338.1,144.831z M343.905,144.317
		c0.57-0.936,0.855-2.382,0.855-4.338c0-1.968-0.282-3.417-0.846-4.347c-0.564-0.93-1.44-1.395-2.628-1.395
		c-1.176,0-2.049,0.468-2.619,1.404s-0.855,2.382-0.855,4.338c0,1.944,0.285,3.387,0.855,4.329s1.443,1.413,2.619,1.413
		C342.461,145.722,343.334,145.253,343.905,144.317z"/>
</g>
<g>
	<path d="M394.314,137.658h-1.998l-0.882,4.518h2.538v0.72h-2.682l-0.666,3.438h-0.756l0.666-3.438h-3.384l-0.666,3.438h-0.774
		l0.666-3.438h-1.89v-0.72h2.034l0.882-4.518h-2.574v-0.72h2.7l0.648-3.294h0.756l-0.63,3.294h3.384l0.63-3.294h0.774l-0.648,3.294
		h1.872V137.658z M390.679,142.175l0.864-4.518h-3.384l-0.864,4.518H390.679z"/>
	<path d="M396.528,146.333v-12.69h7.452v0.702h-6.714v5.202h6.354v0.684h-6.354v6.102H396.528z"/>
	<path d="M410.82,145.649h2.826v0.684h-6.39v-0.684h2.826v-10.908l-2.286,1.512l-0.468-0.63l2.754-1.854v-0.018l0.18-0.108h0.558
		V145.649z"/>
	<path d="M417.192,146.333v-12.69h7.452v0.702h-6.714v5.202h6.354v0.684h-6.354v6.102H417.192z"/>
	<path d="M431.483,145.649h2.826v0.684h-6.39v-0.684h2.826v-10.908l-2.286,1.512l-0.468-0.63l2.754-1.854v-0.018l0.18-0.108h0.558
		V145.649z"/>
	<path d="M437.855,146.333v-12.69h7.452v0.702h-6.714v5.202h6.354v0.684h-6.354v6.102H437.855z"/>
	<path d="M452.147,145.649h2.826v0.684h-6.39v-0.684h2.826v-10.908l-2.286,1.512l-0.468-0.63l2.754-1.854v-0.018l0.18-0.108h0.558
		V145.649z"/>
</g>
<g>
	<path d="M394.314,67.658h-1.998l-0.882,4.518h2.538v0.72h-2.682l-0.666,3.438h-0.756l0.666-3.438h-3.384l-0.666,3.438h-0.774
		l0.666-3.438h-1.89v-0.72h2.034l0.882-4.518h-2.574v-0.72h2.7l0.648-3.294h0.756l-0.63,3.294h3.384l0.63-3.294h0.774l-0.648,3.294
		h1.872V67.658z M390.679,72.175l0.864-4.518h-3.384l-0.864,4.518H390.679z"/>
	<path d="M397.014,74.831c-0.732-1.098-1.098-2.709-1.098-4.833c0-2.136,0.363-3.753,1.089-4.851
		c0.726-1.098,1.791-1.647,3.195-1.647c1.404,0,2.469,0.546,3.195,1.638c0.726,1.092,1.089,2.706,1.089,4.842
		c0,2.124-0.366,3.738-1.098,4.842c-0.732,1.104-1.794,1.656-3.186,1.656S397.746,75.929,397.014,74.831z M402.819,74.317
		c0.57-0.936,0.855-2.382,0.855-4.338c0-1.968-0.282-3.417-0.846-4.347c-0.564-0.93-1.44-1.395-2.628-1.395
		c-1.176,0-2.049,0.468-2.619,1.404s-0.855,2.382-0.855,4.338c0,1.944,0.285,3.387,0.855,4.329s1.443,1.413,2.619,1.413
		C401.376,75.722,402.249,75.253,402.819,74.317z"/>
	<path d="M407.814,74.831c-0.732-1.098-1.098-2.709-1.098-4.833c0-2.136,0.363-3.753,1.089-4.851
		c0.726-1.098,1.791-1.647,3.195-1.647c1.404,0,2.469,0.546,3.195,1.638c0.726,1.092,1.089,2.706,1.089,4.842
		c0,2.124-0.366,3.738-1.098,4.842c-0.732,1.104-1.794,1.656-3.186,1.656S408.546,75.929,407.814,74.831z M413.619,74.317
		c0.57-0.936,0.855-2.382,0.855-4.338c0-1.968-0.282-3.417-0.846-4.347c-0.564-0.93-1.44-1.395-2.628-1.395
		c-1.176,0-2.049,0.468-2.619,1.404s-0.855,2.382-0.855,4.338c0,1.944,0.285,3.387,0.855,4.329s1.443,1.413,2.619,1.413
		C412.176,75.722,413.049,75.253,413.619,74.317z"/>
	<path d="M418.614,74.831c-0.732-1.098-1.098-2.709-1.098-4.833c0-2.136,0.363-3.753,1.089-4.851
		c0.726-1.098,1.791-1.647,3.195-1.647c1.404,0,2.469,0.546,3.195,1.638c0.726,1.092,1.089,2.706,1.089,4.842
		c0,2.124-0.366,3.738-1.098,4.842c-0.732,1.104-1.794,1.656-3.186,1.656S419.346,75.929,418.614,74.831z M424.419,74.317
		c0.57-0.936,0.855-2.382,0.855-4.338c0-1.968-0.282-3.417-0.846-4.347c-0.564-0.93-1.44-1.395-2.628-1.395
		c-1.176,0-2.049,0.468-2.619,1.404s-0.855,2.382-0.855,4.338c0,1.944,0.285,3.387,0.855,4.329s1.443,1.413,2.619,1.413
		C422.976,75.722,423.849,75.253,424.419,74.317z"/>
	<path d="M429.414,74.831c-0.732-1.098-1.098-2.709-1.098-4.833c0-2.136,0.363-3.753,1.089-4.851
		c0.726-1.098,1.791-1.647,3.195-1.647c1.404,0,2.469,0.546,3.195,1.638c0.726,1.092,1.089,2.706,1.089,4.842
		c0,2.124-0.366,3.738-1.098,4.842c-0.732,1.104-1.794,1.656-3.186,1.656S430.146,75.929,429.414,74.831z M435.219,74.317
		c0.57-0.936,0.855-2.382,0.855-4.338c0-1.968-0.282-3.417-0.846-4.347c-0.564-0.93-1.44-1.395-2.628-1.395
		c-1.176,0-2.049,0.468-2.619,1.404s-0.855,2.382-0.855,4.338c0,1.944,0.285,3.387,0.855,4.329s1.443,1.413,2.619,1.413
		C433.775,75.722,434.648,75.253,435.219,74.317z"/>
	<path d="M440.213,74.831c-0.732-1.098-1.098-2.709-1.098-4.833c0-2.136,0.363-3.753,1.089-4.851
		c0.726-1.098,1.791-1.647,3.195-1.647c1.404,0,2.469,0.546,3.195,1.638c0.726,1.092,1.089,2.706,1.089,4.842
		c0,2.124-0.366,3.738-1.098,4.842c-0.732,1.104-1.794,1.656-3.186,1.656S440.945,75.929,440.213,74.831z M446.019,74.317
		c0.57-0.936,0.855-2.382,0.855-4.338c0-1.968-0.282-3.417-0.846-4.347c-0.564-0.93-1.44-1.395-2.628-1.395
		c-1.176,0-2.049,0.468-2.619,1.404s-0.855,2.382-0.855,4.338c0,1.944,0.285,3.387,0.855,4.329s1.443,1.413,2.619,1.413
		C444.575,75.722,445.448,75.253,446.019,74.317z"/>
	<path d="M451.013,74.831c-0.732-1.098-1.098-2.709-1.098-4.833c0-2.136,0.363-3.753,1.089-4.851
		c0.726-1.098,1.791-1.647,3.195-1.647c1.404,0,2.469,0.546,3.195,1.638c0.726,1.092,1.089,2.706,1.089,4.842
		c0,2.124-0.366,3.738-1.098,4.842c-0.732,1.104-1.794,1.656-3.186,1.656S451.745,75.929,451.013,74.831z M456.818,74.317
		c0.57-0.936,0.855-2.382,0.855-4.338c0-1.968-0.282-3.417-0.846-4.347c-0.564-0.93-1.44-1.395-2.628-1.395
		c-1.176,0-2.049,0.468-2.619,1.404s-0.855,2.382-0.855,4.338c0,1.944,0.285,3.387,0.855,4.329s1.443,1.413,2.619,1.413
		C455.375,75.722,456.248,75.253,456.818,74.317z"/>
</g>
<rect x="384" y="104.167" fill="#F1F1F1" width="309.165" height="20.833"/>
</svg>
