<?xml version="1.0" encoding="utf-8"?>
<!-- Generator: Adobe Illustrator 16.0.0, SVG Export Plug-In . SVG Version: 6.00 Build 0)  -->
<!DOCTYPE svg PUBLIC "-//W3C//DTD SVG 1.1//EN" "http://www.w3.org/Graphics/SVG/1.1/DTD/svg11.dtd">
<svg version="1.1" id="Layer_1" xmlns="http://www.w3.org/2000/svg" xmlns:xlink="http://www.w3.org/1999/xlink" x="0px" y="0px"
	 width="359.5px" height="160px" viewBox="0 0 359.5 160" enable-background="new 0 0 359.5 160" xml:space="preserve">
<rect x="4" fill="#FFFFFF" width="140.333" height="131"/>
<g>
	<path fill="#FFFFFF" d="M178.478,71.411c0.053,0.08,0.08,0.174,0.08,0.28s-0.043,0.203-0.13,0.29c-0.087,0.087-0.19,0.13-0.31,0.13
		h-5.16c-0.307,0-0.547-0.106-0.72-0.32l-3.48-4.3v4.08c0,0.146-0.054,0.273-0.16,0.38c-0.107,0.107-0.233,0.16-0.38,0.16h-4.12
		c-0.147,0-0.273-0.053-0.38-0.16c-0.107-0.106-0.16-0.233-0.16-0.38v-12.92c0-0.146,0.053-0.273,0.16-0.38
		c0.106-0.107,0.233-0.16,0.38-0.16h4.12c0.146,0,0.273,0.053,0.38,0.16c0.106,0.107,0.16,0.233,0.16,0.38v3.76l3.16-3.96
		c0.2-0.227,0.446-0.34,0.74-0.34h4.82c0.12,0,0.223,0.043,0.31,0.13c0.087,0.087,0.13,0.187,0.13,0.3s-0.034,0.21-0.1,0.29
		l-4.74,5.78L178.478,71.411z"/>
	<path fill="#FFFFFF" d="M185.218,68.21h7.98c0.146,0,0.273,0.054,0.38,0.16c0.107,0.107,0.16,0.233,0.16,0.38v2.82
		c0,0.146-0.053,0.273-0.16,0.38c-0.107,0.107-0.233,0.16-0.38,0.16h-12.64c-0.146,0-0.273-0.053-0.38-0.16
		c-0.107-0.106-0.16-0.233-0.16-0.38v-12.92c0-0.146,0.053-0.273,0.16-0.38c0.106-0.107,0.233-0.16,0.38-0.16h12.44
		c0.147,0,0.273,0.053,0.38,0.16c0.106,0.107,0.16,0.233,0.16,0.38v2.82c0,0.147-0.053,0.273-0.16,0.38
		c-0.107,0.106-0.233,0.16-0.38,0.16h-7.78v1.26h6.68c0.146,0,0.273,0.053,0.38,0.16c0.106,0.107,0.16,0.233,0.16,0.38v2.6
		c0,0.147-0.054,0.273-0.16,0.38c-0.107,0.107-0.233,0.16-0.38,0.16h-6.68V68.21z"/>
	<path fill="#FFFFFF" d="M206.418,58.111h4.22c0.12,0,0.223,0.043,0.31,0.13c0.086,0.087,0.13,0.17,0.13,0.25s-0.007,0.147-0.02,0.2
		l-4.6,12.76c-0.147,0.44-0.447,0.66-0.9,0.66h-4.66c-0.44,0-0.733-0.2-0.88-0.6l-4.64-12.82c-0.014-0.053-0.02-0.12-0.02-0.2
		s0.043-0.163,0.13-0.25c0.086-0.086,0.19-0.13,0.31-0.13h4.22c0.24,0,0.437,0.07,0.59,0.21c0.153,0.14,0.256,0.29,0.31,0.45
		l2.3,7.66l2.3-7.66C205.638,58.331,205.938,58.111,206.418,58.111z"/>
	<path fill="#FFFFFF" d="M226.058,62.211h-3.62v5.8h3.62c0.146,0,0.273,0.054,0.38,0.16c0.107,0.107,0.16,0.233,0.16,0.381v3.02
		c0,0.146-0.053,0.273-0.16,0.38c-0.106,0.107-0.233,0.16-0.38,0.16h-12.68c-0.147,0-0.273-0.053-0.38-0.16
		c-0.106-0.106-0.16-0.233-0.16-0.38v-3.02c0-0.147,0.053-0.273,0.16-0.381c0.107-0.106,0.233-0.16,0.38-0.16h3.66v-5.8h-3.66
		c-0.147,0-0.273-0.053-0.38-0.16c-0.106-0.106-0.16-0.233-0.16-0.38v-3.02c0-0.146,0.053-0.273,0.16-0.38
		c0.107-0.107,0.233-0.16,0.38-0.16h12.68c0.146,0,0.273,0.053,0.38,0.16c0.107,0.107,0.16,0.233,0.16,0.38v3.02
		c0,0.147-0.053,0.273-0.16,0.38C226.331,62.158,226.204,62.211,226.058,62.211z"/>
	<path fill="#FFFFFF" d="M238.758,58.111h3.719c0.147,0,0.273,0.053,0.381,0.16c0.106,0.107,0.16,0.233,0.16,0.38v12.92
		c0,0.146-0.054,0.273-0.16,0.38c-0.107,0.107-0.233,0.16-0.381,0.16h-3.219c-0.32,0-0.588-0.14-0.801-0.42l-4.359-5.56v5.44
		c0,0.146-0.054,0.273-0.16,0.38c-0.107,0.107-0.234,0.16-0.381,0.16h-3.719c-0.147,0-0.273-0.053-0.381-0.16
		c-0.106-0.106-0.16-0.233-0.16-0.38v-12.92c0-0.146,0.054-0.273,0.16-0.38c0.107-0.107,0.233-0.16,0.381-0.16h3.239
		c0.32,0,0.58,0.133,0.78,0.4l4.359,6.02v-5.88c0-0.146,0.054-0.273,0.16-0.38C238.484,58.164,238.61,58.111,238.758,58.111z"/>
	<path fill="#FFFFFF" d="M254.117,63.491h5.801c0.146,0,0.272,0.054,0.379,0.16c0.107,0.107,0.16,0.233,0.16,0.38v2.12
		c0,2.026-0.689,3.53-2.07,4.51c-1.379,0.98-3.203,1.47-5.469,1.47c-2.268,0-4.091-0.477-5.471-1.433s-2.07-2.435-2.07-4.437V63.96
		c0-1.001,0.197-1.885,0.59-2.652c0.394-0.767,0.943-1.384,1.65-1.852c1.387-0.91,3.153-1.365,5.301-1.365
		c1.066,0,2.043,0.119,2.93,0.355s1.593,0.531,2.119,0.884c0.527,0.352,0.977,0.733,1.351,1.143
		c0.653,0.717,0.979,1.351,0.979,1.902c0,0.115-0.043,0.215-0.129,0.298c-0.088,0.083-0.191,0.125-0.311,0.125h-4.52
		c-0.268,0-0.461-0.059-0.58-0.177c-0.414-0.419-0.978-0.629-1.69-0.629c-0.714,0-1.273,0.133-1.681,0.397
		c-0.406,0.265-0.609,0.605-0.609,1.021v3.214c0,0.504,0.199,0.898,0.6,1.182s0.963,0.425,1.69,0.425c0.727,0,1.286-0.143,1.68-0.43
		c0.394-0.287,0.597-0.623,0.61-1.01h-1.24c-0.146,0-0.273-0.053-0.38-0.16c-0.106-0.106-0.16-0.233-0.16-0.38v-2.22
		c0-0.146,0.054-0.273,0.16-0.38C253.844,63.544,253.971,63.491,254.117,63.491z"/>
	<path fill="#FFFFFF" d="M268.918,68.011h6.819c0.146,0,0.272,0.054,0.38,0.16c0.106,0.107,0.16,0.233,0.16,0.381v3.02
		c0,0.146-0.054,0.273-0.16,0.38c-0.107,0.107-0.233,0.16-0.38,0.16h-11.681c-0.146,0-0.273-0.053-0.379-0.16
		c-0.107-0.106-0.16-0.233-0.16-0.38v-12.92c0-0.146,0.053-0.273,0.16-0.38c0.105-0.107,0.232-0.16,0.379-0.16h4.32
		c0.146,0,0.273,0.053,0.381,0.16c0.105,0.107,0.16,0.233,0.16,0.38V68.011z"/>
	<path fill="#FFFFFF" d="M281.938,72.111h-3.781c-0.119,0-0.223-0.043-0.31-0.13s-0.13-0.17-0.13-0.25s0.006-0.14,0.02-0.18
		l4.36-12.78c0.12-0.44,0.42-0.66,0.899-0.66h5.561c0.48,0,0.78,0.22,0.9,0.66l4.359,12.78c0.014,0.04,0.021,0.1,0.021,0.18
		s-0.044,0.163-0.13,0.25c-0.087,0.087-0.19,0.13-0.311,0.13h-3.779c-0.428,0-0.727-0.227-0.9-0.68l-0.5-1.4h-4.88l-0.5,1.4
		C282.664,71.884,282.363,72.111,281.938,72.111z M287.197,66.131l-1.42-4.16l-1.42,4.16H287.197z"/>
	<path fill="#FFFFFF" d="M305.697,58.111h3.66c0.146,0,0.272,0.053,0.379,0.16c0.107,0.107,0.16,0.233,0.16,0.38v12.92
		c0,0.146-0.053,0.273-0.16,0.38c-0.106,0.107-0.232,0.16-0.379,0.16h-3.621c-0.146,0-0.273-0.053-0.379-0.16
		c-0.107-0.106-0.16-0.233-0.16-0.38v-6.2l-1.461,2.88c-0.08,0.16-0.199,0.284-0.359,0.37c-0.16,0.087-0.32,0.13-0.48,0.13h-1.359
		c-0.227,0-0.414-0.06-0.561-0.18s-0.24-0.227-0.279-0.32l-1.461-2.88v6.2c0,0.146-0.053,0.273-0.16,0.38
		c-0.106,0.107-0.232,0.16-0.379,0.16h-3.621c-0.146,0-0.273-0.053-0.379-0.16c-0.107-0.106-0.16-0.233-0.16-0.38v-12.92
		c0-0.146,0.053-0.273,0.16-0.38c0.105-0.107,0.232-0.16,0.379-0.16h3.66c0.373,0,0.66,0.18,0.86,0.54l2.62,4.8l2.62-4.8
		C305.037,58.291,305.323,58.111,305.697,58.111z"/>
</g>
<g>
	<path fill="#FFFFFF" d="M173.334,89.435v11.064c0,1.664-0.393,2.92-1.176,3.768c-0.784,0.848-1.952,1.272-3.504,1.272
		c-1.936,0-3.576-0.553-4.92-1.656l0.48-0.84c0.8,0.576,1.52,0.972,2.16,1.188c0.64,0.217,1.408,0.324,2.304,0.324
		c1.2,0,2.112-0.332,2.736-0.996s0.936-1.636,0.936-2.916v-2.52c-0.336,0.832-0.86,1.468-1.572,1.908
		c-0.712,0.439-1.572,0.659-2.58,0.659c-1.024,0-1.932-0.239-2.724-0.72c-0.792-0.479-1.408-1.16-1.848-2.04
		c-0.44-0.88-0.66-1.888-0.66-3.024c0-1.135,0.22-2.139,0.66-3.012c0.439-0.871,1.056-1.548,1.848-2.027
		c0.792-0.48,1.7-0.721,2.724-0.721c0.992,0,1.84,0.217,2.544,0.648s1.232,1.048,1.584,1.848v-2.208H173.334z M171.234,98.423
		c0.728-0.855,1.092-2.028,1.092-3.517c0-1.487-0.364-2.655-1.092-3.504c-0.729-0.848-1.74-1.271-3.036-1.271
		c-1.28,0-2.292,0.424-3.036,1.271c-0.744,0.849-1.116,2.017-1.116,3.504c0,1.505,0.372,2.681,1.116,3.528
		c0.744,0.849,1.756,1.272,3.036,1.272C169.494,99.707,170.506,99.279,171.234,98.423z"/>
	<path fill="#FFFFFF" d="M182.406,90.059l-0.816,0.096c-1.312,0.129-2.268,0.557-2.868,1.285c-0.6,0.728-0.9,1.611-0.9,2.651v6.96
		h-1.008V89.435h1.008v2.04c0.368-0.72,0.876-1.26,1.524-1.619c0.648-0.361,1.46-0.58,2.436-0.66l0.504-0.049L182.406,90.059z"/>
	<path fill="#FFFFFF" d="M192.366,93.443v7.607h-1.032v-2.136c-0.352,0.736-0.86,1.304-1.524,1.704c-0.664,0.399-1.42,0.6-2.268,0.6
		c-0.736,0-1.412-0.152-2.028-0.456c-0.616-0.304-1.104-0.724-1.464-1.26c-0.36-0.536-0.54-1.124-0.54-1.764
		c0-0.864,0.228-1.532,0.684-2.005c0.456-0.471,1.208-0.812,2.256-1.02c1.047-0.208,2.516-0.313,4.404-0.313h0.48v-1.008
		c0-1.136-0.224-1.964-0.672-2.484c-0.448-0.52-1.16-0.779-2.136-0.779c-0.752,0-1.444,0.1-2.076,0.3
		c-0.632,0.2-1.292,0.524-1.98,0.972l-0.48-0.863c0.591-0.432,1.275-0.771,2.052-1.021c0.776-0.247,1.556-0.372,2.34-0.372
		C191.037,89.146,192.366,90.579,192.366,93.443z M189.485,99.694c0.576-0.344,1.028-0.819,1.356-1.428
		c0.328-0.607,0.492-1.296,0.492-2.063v-0.864h-0.456c-1.68,0-2.96,0.068-3.84,0.204c-0.88,0.136-1.496,0.368-1.848,0.695
		c-0.352,0.328-0.528,0.813-0.528,1.452c0,0.736,0.272,1.341,0.816,1.813s1.232,0.708,2.064,0.708
		C188.262,100.211,188.91,100.039,189.485,99.694z"/>
	<path fill="#FFFFFF" d="M203.598,89.902c0.784,0.504,1.392,1.213,1.824,2.125s0.648,1.976,0.648,3.191
		c0,1.2-0.216,2.252-0.648,3.156s-1.041,1.604-1.824,2.1c-0.784,0.496-1.688,0.744-2.712,0.744c-0.976,0-1.812-0.216-2.508-0.648
		c-0.696-0.432-1.22-1.056-1.572-1.871v6.672h-1.008V89.435h1.008v2.185c0.352-0.801,0.876-1.412,1.572-1.836
		c0.696-0.424,1.532-0.637,2.508-0.637C201.91,89.146,202.813,89.398,203.598,89.902z M203.886,98.927
		c0.72-0.872,1.08-2.108,1.08-3.708s-0.36-2.848-1.08-3.744c-0.72-0.896-1.72-1.344-3-1.344c-1.312,0-2.32,0.436-3.024,1.309
		c-0.704,0.871-1.056,2.115-1.056,3.731s0.352,2.864,1.056,3.744s1.704,1.319,3,1.319S203.166,99.799,203.886,98.927z"/>
	<path fill="#FFFFFF" d="M217.997,93.563v7.488h-1.008v-7.393c0-1.231-0.248-2.131-0.744-2.699s-1.296-0.852-2.4-0.852
		c-1.232,0-2.22,0.379-2.964,1.139c-0.744,0.761-1.116,1.773-1.116,3.037v6.768h-1.008v-16.92h1.008v7.344
		c0.352-0.752,0.88-1.328,1.584-1.729c0.704-0.398,1.512-0.6,2.424-0.6C216.589,89.146,217.997,90.619,217.997,93.563z"/>
	<path fill="#FFFFFF" d="M221.165,84.683h1.536v1.513h-1.536V84.683z M221.429,101.051V89.435h1.008v11.616H221.429z"/>
	<path fill="#FFFFFF" d="M227.645,100.475c-0.8-0.495-1.42-1.2-1.859-2.112c-0.44-0.911-0.66-1.96-0.66-3.144
		c0-1.2,0.22-2.26,0.66-3.18c0.439-0.92,1.063-1.633,1.871-2.137c0.809-0.504,1.748-0.756,2.82-0.756
		c0.784,0,1.528,0.141,2.232,0.42c0.703,0.28,1.279,0.66,1.729,1.141l-0.48,0.863c-0.608-0.512-1.185-0.883-1.729-1.115
		c-0.543-0.232-1.119-0.348-1.728-0.348c-1.328,0-2.376,0.455-3.144,1.367c-0.769,0.912-1.152,2.168-1.152,3.768
		c0,1.568,0.38,2.793,1.14,3.673s1.804,1.319,3.132,1.319c0.608,0,1.188-0.111,1.74-0.336c0.553-0.224,1.132-0.592,1.74-1.104
		l0.48,0.84c-0.465,0.496-1.057,0.884-1.776,1.164c-0.72,0.279-1.456,0.42-2.208,0.42
		C229.381,101.219,228.445,100.971,227.645,100.475z"/>
	<path fill="#FFFFFF" d="M251.381,84.131v16.92h-1.008v-2.352c-0.354,0.815-0.877,1.439-1.572,1.871
		c-0.696,0.433-1.533,0.648-2.508,0.648c-1.025,0-1.929-0.252-2.713-0.756c-0.783-0.504-1.392-1.216-1.824-2.136
		c-0.432-0.92-0.647-1.988-0.647-3.204c0-1.2,0.216-2.248,0.647-3.145c0.433-0.896,1.041-1.592,1.824-2.088
		c0.784-0.496,1.688-0.744,2.713-0.744c0.975,0,1.812,0.217,2.508,0.648c0.695,0.432,1.219,1.048,1.572,1.848v-7.512H251.381z
		 M249.316,98.915c0.703-0.88,1.057-2.128,1.057-3.744c0-1.601-0.354-2.84-1.057-3.72c-0.704-0.881-1.704-1.32-3-1.32
		s-2.309,0.436-3.036,1.309c-0.728,0.871-1.092,2.1-1.092,3.684c0,1.6,0.364,2.852,1.092,3.756s1.731,1.355,3.013,1.355
		C247.604,100.234,248.612,99.795,249.316,98.915z"/>
	<path fill="#FFFFFF" d="M264.195,95.339h-9.023c0.031,1.568,0.428,2.776,1.188,3.624s1.844,1.271,3.252,1.271
		c0.721,0,1.396-0.119,2.028-0.359s1.261-0.624,1.884-1.152l0.48,0.864c-0.496,0.496-1.137,0.892-1.92,1.188
		c-0.784,0.296-1.592,0.444-2.424,0.444c-1.729,0-3.093-0.536-4.092-1.608c-1-1.071-1.5-2.544-1.5-4.415
		c0-1.201,0.223-2.256,0.672-3.168c0.447-0.912,1.08-1.621,1.896-2.125s1.752-0.756,2.808-0.756c1.504,0,2.672,0.488,3.504,1.465
		c0.832,0.976,1.248,2.344,1.248,4.104V95.339z M256.504,91.223c-0.744,0.76-1.18,1.82-1.309,3.18h8.041
		c-0.033-1.392-0.377-2.459-1.033-3.203s-1.575-1.116-2.76-1.116C258.228,90.083,257.248,90.463,256.504,91.223z"/>
	<path fill="#FFFFFF" d="M266.115,99.635l0.48-0.84c0.623,0.528,1.228,0.896,1.812,1.104c0.584,0.208,1.292,0.313,2.124,0.313
		c1.023,0,1.809-0.184,2.352-0.552c0.545-0.368,0.816-0.889,0.816-1.561c0-0.56-0.176-1.008-0.527-1.344
		c-0.353-0.336-0.921-0.601-1.705-0.792l-1.967-0.456c-0.912-0.208-1.637-0.588-2.172-1.14c-0.537-0.553-0.805-1.188-0.805-1.908
		c0-0.992,0.375-1.792,1.128-2.4c0.752-0.607,1.768-0.912,3.048-0.912c0.816,0,1.568,0.137,2.256,0.408
		c0.688,0.272,1.248,0.656,1.68,1.152l-0.479,0.863c-0.513-0.479-1.048-0.836-1.608-1.067c-0.56-0.231-1.176-0.349-1.848-0.349
		c-0.943,0-1.684,0.192-2.22,0.576c-0.536,0.385-0.804,0.912-0.804,1.584c0,0.592,0.164,1.061,0.492,1.404
		c0.327,0.344,0.844,0.604,1.547,0.78l1.992,0.479c2.064,0.48,3.096,1.496,3.096,3.048c0,0.96-0.392,1.732-1.176,2.316
		c-0.783,0.584-1.84,0.876-3.168,0.876C268.668,101.219,267.219,100.69,266.115,99.635z"/>
	<path fill="#FFFFFF" d="M277.396,84.683h1.536v1.513h-1.536V84.683z M277.66,101.051V89.435h1.008v11.616H277.66z"/>
	<path fill="#FFFFFF" d="M291.724,89.435v11.064c0,1.664-0.393,2.92-1.177,3.768c-0.783,0.848-1.951,1.272-3.504,1.272
		c-1.936,0-3.576-0.553-4.92-1.656l0.48-0.84c0.8,0.576,1.52,0.972,2.16,1.188c0.64,0.217,1.408,0.324,2.304,0.324
		c1.2,0,2.112-0.332,2.735-0.996c0.625-0.664,0.937-1.636,0.937-2.916v-2.52c-0.336,0.832-0.86,1.468-1.571,1.908
		c-0.713,0.439-1.572,0.659-2.58,0.659c-1.024,0-1.933-0.239-2.725-0.72c-0.792-0.479-1.408-1.16-1.848-2.04
		c-0.44-0.88-0.66-1.888-0.66-3.024c0-1.135,0.22-2.139,0.66-3.012c0.439-0.871,1.056-1.548,1.848-2.027
		c0.792-0.48,1.7-0.721,2.725-0.721c0.991,0,1.84,0.217,2.543,0.648c0.705,0.432,1.232,1.048,1.584,1.848v-2.208H291.724z
		 M289.623,98.423c0.729-0.855,1.092-2.028,1.092-3.517c0-1.487-0.363-2.655-1.092-3.504c-0.729-0.848-1.74-1.271-3.035-1.271
		c-1.281,0-2.293,0.424-3.037,1.271c-0.743,0.849-1.115,2.017-1.115,3.504c0,1.505,0.372,2.681,1.115,3.528
		c0.744,0.849,1.756,1.272,3.037,1.272C287.883,99.707,288.895,99.279,289.623,98.423z"/>
	<path fill="#FFFFFF" d="M304.443,93.563v7.488h-1.008v-7.393c0-1.231-0.248-2.131-0.744-2.699s-1.297-0.852-2.4-0.852
		c-1.232,0-2.22,0.379-2.964,1.139c-0.744,0.761-1.116,1.773-1.116,3.037v6.768h-1.008V89.435h0.984v2.089
		c0.352-0.769,0.883-1.356,1.596-1.765c0.711-0.408,1.523-0.612,2.436-0.612C303.035,89.146,304.443,90.619,304.443,93.563z"/>
	<path fill="#FFFFFF" d="M317.211,95.339h-9.023c0.031,1.568,0.428,2.776,1.188,3.624s1.844,1.271,3.252,1.271
		c0.721,0,1.396-0.119,2.027-0.359c0.633-0.24,1.261-0.624,1.885-1.152l0.48,0.864c-0.496,0.496-1.137,0.892-1.92,1.188
		c-0.785,0.296-1.593,0.444-2.425,0.444c-1.728,0-3.093-0.536-4.092-1.608c-1-1.071-1.5-2.544-1.5-4.415
		c0-1.201,0.224-2.256,0.672-3.168s1.08-1.621,1.896-2.125c0.816-0.504,1.752-0.756,2.809-0.756c1.504,0,2.672,0.488,3.504,1.465
		c0.832,0.976,1.248,2.344,1.248,4.104V95.339z M309.52,91.223c-0.744,0.76-1.181,1.82-1.309,3.18h8.04
		c-0.032-1.392-0.376-2.459-1.032-3.203s-1.576-1.116-2.76-1.116C311.242,90.083,310.264,90.463,309.52,91.223z"/>
	<path fill="#FFFFFF" d="M325.442,90.059l-0.815,0.096c-1.313,0.129-2.269,0.557-2.868,1.285c-0.601,0.728-0.9,1.611-0.9,2.651v6.96
		h-1.008V89.435h1.008v2.04c0.368-0.72,0.876-1.26,1.524-1.619c0.648-0.361,1.459-0.58,2.436-0.66l0.504-0.049L325.442,90.059z"/>
	<path fill="#FFFFFF" d="M337.059,95.051l4.775,6h-1.32l-4.104-5.137l-4.104,5.137h-1.296l4.776-6l-4.513-5.616h1.297l3.84,4.824
		l3.84-4.824h1.32L337.059,95.051z"/>
	<path fill="#FFFFFF" d="M172.23,118.234h1.056l-4.944,11.616h-1.152l-4.944-11.616h1.08l4.44,10.729L172.23,118.234z"/>
	<path fill="#FFFFFF" d="M174.99,113.482h1.536v1.512h-1.536V113.482z M175.254,129.851v-11.616h1.008v11.616H175.254z"/>
	<path fill="#FFFFFF" d="M179.022,128.435l0.48-0.84c0.624,0.528,1.228,0.896,1.812,1.104c0.584,0.208,1.292,0.313,2.124,0.313
		c1.024,0,1.808-0.184,2.352-0.552s0.816-0.889,0.816-1.561c0-0.56-0.176-1.008-0.528-1.344c-0.352-0.336-0.92-0.601-1.704-0.792
		l-1.968-0.456c-0.912-0.208-1.636-0.588-2.172-1.14c-0.537-0.553-0.804-1.188-0.804-1.908c0-0.992,0.375-1.792,1.128-2.4
		c0.752-0.607,1.768-0.912,3.048-0.912c0.816,0,1.568,0.137,2.256,0.408c0.688,0.272,1.248,0.656,1.68,1.152l-0.48,0.863
		c-0.512-0.479-1.048-0.835-1.608-1.067c-0.56-0.231-1.176-0.349-1.848-0.349c-0.944,0-1.684,0.192-2.22,0.576
		c-0.536,0.385-0.804,0.912-0.804,1.584c0,0.593,0.164,1.061,0.492,1.404c0.328,0.345,0.844,0.604,1.548,0.78l1.992,0.479
		c2.064,0.48,3.096,1.496,3.096,3.048c0,0.96-0.392,1.732-1.176,2.316c-0.784,0.584-1.84,0.876-3.168,0.876
		C181.574,130.019,180.126,129.49,179.022,128.435z"/>
	<path fill="#FFFFFF" d="M199.566,118.234v11.616h-0.984v-2.184c-0.368,0.752-0.9,1.332-1.596,1.739
		c-0.696,0.408-1.484,0.612-2.364,0.612c-1.344,0-2.364-0.376-3.06-1.128c-0.696-0.752-1.044-1.855-1.044-3.313v-7.344h1.008v7.248
		c0,1.216,0.248,2.112,0.744,2.688c0.496,0.576,1.264,0.863,2.304,0.863c1.2,0,2.164-0.38,2.892-1.14s1.092-1.771,1.092-3.036
		v-6.624H199.566z"/>
	<path fill="#FFFFFF" d="M211.518,122.242v7.608h-1.032v-2.136c-0.352,0.736-0.86,1.304-1.524,1.704
		c-0.664,0.399-1.42,0.6-2.268,0.6c-0.736,0-1.412-0.152-2.028-0.456c-0.616-0.304-1.104-0.724-1.464-1.26
		c-0.36-0.536-0.54-1.124-0.54-1.764c0-0.864,0.228-1.532,0.684-2.005c0.456-0.472,1.208-0.812,2.256-1.02
		c1.047-0.208,2.516-0.313,4.404-0.313h0.48v-1.008c0-1.136-0.224-1.964-0.672-2.483c-0.448-0.521-1.16-0.78-2.136-0.78
		c-0.752,0-1.444,0.1-2.076,0.3c-0.632,0.2-1.292,0.524-1.98,0.972l-0.48-0.863c0.591-0.433,1.275-0.772,2.052-1.021
		c0.776-0.248,1.556-0.372,2.34-0.372C210.189,117.946,211.518,119.379,211.518,122.242z M208.638,128.494
		c0.576-0.344,1.028-0.819,1.356-1.428c0.328-0.607,0.492-1.296,0.492-2.063v-0.864h-0.456c-1.68,0-2.96,0.068-3.84,0.204
		c-0.88,0.136-1.496,0.368-1.848,0.696s-0.528,0.812-0.528,1.451c0,0.736,0.272,1.341,0.816,1.813s1.232,0.708,2.064,0.708
		C207.414,129.011,208.062,128.839,208.638,128.494z"/>
	<path fill="#FFFFFF" d="M214.95,129.851v-16.92h1.008v16.92H214.95z"/>
	<path fill="#FFFFFF" d="M226.469,129.274c-0.8-0.495-1.42-1.2-1.859-2.112c-0.44-0.911-0.66-1.959-0.66-3.144
		c0-1.2,0.22-2.26,0.66-3.18c0.439-0.92,1.063-1.632,1.871-2.137c0.809-0.504,1.748-0.756,2.82-0.756
		c0.784,0,1.528,0.141,2.232,0.42c0.703,0.28,1.279,0.66,1.729,1.141l-0.48,0.863c-0.608-0.512-1.185-0.884-1.729-1.115
		c-0.543-0.232-1.119-0.349-1.728-0.349c-1.328,0-2.376,0.456-3.144,1.368c-0.769,0.912-1.152,2.168-1.152,3.769
		c0,1.567,0.38,2.792,1.14,3.672s1.804,1.319,3.132,1.319c0.608,0,1.188-0.111,1.74-0.336c0.553-0.224,1.132-0.592,1.74-1.104
		l0.48,0.84c-0.465,0.496-1.057,0.884-1.776,1.164c-0.72,0.279-1.456,0.42-2.208,0.42
		C228.205,130.019,227.27,129.771,226.469,129.274z"/>
	<path fill="#FFFFFF" d="M241.013,118.858l-0.815,0.096c-1.313,0.129-2.269,0.557-2.868,1.284c-0.601,0.729-0.9,1.612-0.9,2.652
		v6.96h-1.008v-11.616h1.008v2.04c0.368-0.72,0.876-1.26,1.524-1.62c0.648-0.359,1.459-0.579,2.436-0.66l0.504-0.048
		L241.013,118.858z"/>
	<path fill="#FFFFFF" d="M251.74,124.139h-9.023c0.031,1.568,0.428,2.776,1.188,3.624s1.844,1.271,3.252,1.271
		c0.721,0,1.396-0.119,2.028-0.359s1.261-0.624,1.884-1.152l0.48,0.864c-0.496,0.496-1.137,0.892-1.92,1.188
		c-0.784,0.296-1.592,0.444-2.424,0.444c-1.729,0-3.093-0.536-4.092-1.608c-1-1.071-1.5-2.544-1.5-4.416
		c0-1.199,0.223-2.256,0.672-3.168c0.447-0.911,1.08-1.619,1.896-2.124c0.815-0.504,1.752-0.756,2.808-0.756
		c1.504,0,2.672,0.488,3.504,1.464c0.832,0.977,1.248,2.345,1.248,4.104V124.139z M244.049,120.022
		c-0.744,0.76-1.18,1.82-1.309,3.18h8.041c-0.033-1.392-0.377-2.46-1.033-3.203c-0.656-0.744-1.575-1.116-2.76-1.116
		C245.772,118.883,244.793,119.263,244.049,120.022z"/>
	<path fill="#FFFFFF" d="M262.853,122.242v7.608h-1.032v-2.136c-0.352,0.736-0.86,1.304-1.523,1.704
		c-0.664,0.399-1.421,0.6-2.269,0.6c-0.736,0-1.412-0.152-2.028-0.456c-0.615-0.304-1.104-0.724-1.464-1.26s-0.54-1.124-0.54-1.764
		c0-0.864,0.229-1.532,0.684-2.005c0.457-0.472,1.209-0.812,2.257-1.02s2.516-0.313,4.403-0.313h0.48v-1.008
		c0-1.136-0.225-1.964-0.672-2.483c-0.448-0.521-1.16-0.78-2.137-0.78c-0.752,0-1.443,0.1-2.075,0.3s-1.292,0.524-1.979,0.972
		l-0.48-0.863c0.592-0.433,1.275-0.772,2.052-1.021s1.556-0.372,2.34-0.372C261.523,117.946,262.853,119.379,262.853,122.242z
		 M259.973,128.494c0.576-0.344,1.027-0.819,1.355-1.428c0.328-0.607,0.492-1.296,0.492-2.063v-0.864h-0.456
		c-1.68,0-2.96,0.068-3.84,0.204s-1.496,0.368-1.849,0.696c-0.352,0.328-0.527,0.812-0.527,1.451c0,0.736,0.271,1.341,0.816,1.813
		c0.543,0.472,1.231,0.708,2.063,0.708C258.748,129.011,259.396,128.839,259.973,128.494z"/>
	<path fill="#FFFFFF" d="M271.637,128.986l-0.049,0.937c-0.336,0.048-0.695,0.071-1.08,0.071c-1.199,0-2.123-0.348-2.771-1.044
		c-0.648-0.695-0.973-1.628-0.973-2.796v-7.056h-2.328v-0.864h2.328v-3.624h1.008v3.624h3.505v0.864h-3.505v6.84
		c0,1.024,0.24,1.8,0.721,2.328s1.191,0.792,2.136,0.792C270.996,129.059,271.332,129.034,271.637,128.986z"/>
	<path fill="#FFFFFF" d="M274.9,129.274c-0.784-0.495-1.393-1.2-1.824-2.112c-0.432-0.911-0.648-1.976-0.648-3.191
		c0-1.2,0.217-2.256,0.648-3.168s1.04-1.616,1.824-2.112c0.783-0.495,1.688-0.744,2.712-0.744c1.023,0,1.928,0.249,2.712,0.744
		c0.783,0.496,1.393,1.2,1.824,2.112s0.648,1.968,0.648,3.168c0,1.216-0.217,2.28-0.648,3.191c-0.432,0.912-1.041,1.617-1.824,2.112
		c-0.784,0.496-1.688,0.744-2.712,0.744C276.588,130.019,275.684,129.771,274.9,129.274z M280.648,127.727
		c0.711-0.872,1.068-2.124,1.068-3.756c0-1.584-0.365-2.82-1.093-3.708s-1.731-1.332-3.012-1.332s-2.284,0.444-3.013,1.332
		c-0.728,0.888-1.092,2.124-1.092,3.708c0,1.632,0.356,2.884,1.068,3.756s1.716,1.308,3.012,1.308
		C278.916,129.034,279.936,128.599,280.648,127.727z"/>
	<path fill="#FFFFFF" d="M291.076,118.858l-0.816,0.096c-1.312,0.129-2.268,0.557-2.867,1.284c-0.6,0.729-0.9,1.612-0.9,2.652v6.96
		h-1.008v-11.616h1.008v2.04c0.368-0.72,0.876-1.26,1.523-1.62c0.648-0.359,1.461-0.579,2.437-0.66l0.505-0.048L291.076,118.858z"/>
</g>
<polygon points="38.355,56.323 38.355,75.872 48.244,93.034 66.542,93.034 49.948,64.279 62.678,41.093 48.13,41.093 "/>
<rect x="92.229" y="59.619" width="37.394" height="10.798"/>
<rect x="18.352" y="41.093" width="15.116" height="51.941"/>
<rect x="69.952" y="41.093" width="15.117" height="51.941"/>
</svg>
