<?xml version="1.0" encoding="utf-8"?>
<!-- Generator: Adobe Illustrator 16.0.0, SVG Export Plug-In . SVG Version: 6.00 Build 0)  -->
<!DOCTYPE svg PUBLIC "-//W3C//DTD SVG 1.1//EN" "http://www.w3.org/Graphics/SVG/1.1/DTD/svg11.dtd">
<svg version="1.1" id="Layer_1" xmlns="http://www.w3.org/2000/svg" xmlns:xlink="http://www.w3.org/1999/xlink" x="0px" y="0px"
	 width="1235.938px" height="1080px" viewBox="0 0 1235.938 1080" enable-background="new 0 0 1235.938 1080" xml:space="preserve">
<rect x="102.811" y="97.049" fill="#3CB4E7" width="134.146" height="134.146"/>
<rect x="102.811" y="255.976" fill="#239FD4" width="134.146" height="134.146"/>
<rect x="102.811" y="416" fill="#00749C" width="134.146" height="134.146"/>
<rect x="102.811" y="574.927" width="134.146" height="134.146"/>
<g>
	<path d="M284.452,156.013h-1.802l-0.799,4.097h2.244v0.85h-2.414l-0.612,3.162h-0.901l0.612-3.162h-2.958l-0.612,3.162h-0.884
		l0.612-3.162h-1.666v-0.85h1.836l0.799-4.097h-2.278v-0.85h2.431l0.595-3.026h0.901l-0.595,3.026h2.958l0.595-3.026h0.884
		l-0.595,3.026h1.649V156.013z M280.95,160.11l0.799-4.097h-2.958l-0.799,4.097H280.95z"/>
	<path d="M293.224,159.005c0.374,0.499,0.561,1.128,0.561,1.887c0,1.031-0.34,1.847-1.02,2.448c-0.68,0.601-1.604,0.901-2.771,0.901
		c-0.76,0-1.488-0.133-2.185-0.399c-0.697-0.267-1.295-0.643-1.793-1.131l0.442-0.833c1.077,0.963,2.25,1.445,3.519,1.445
		c0.884,0,1.564-0.21,2.04-0.629c0.476-0.419,0.714-1.02,0.714-1.802c0-1.598-0.986-2.397-2.958-2.397h-1.275v-0.918h1.02
		c0.94,0,1.668-0.218,2.185-0.655c0.515-0.436,0.773-1.057,0.773-1.861c0-0.68-0.21-1.207-0.629-1.581
		c-0.419-0.374-1.003-0.561-1.751-0.561c-1.201,0-2.352,0.482-3.451,1.445l-0.442-0.833c0.487-0.476,1.073-0.85,1.759-1.122
		c0.686-0.272,1.402-0.408,2.15-0.408c1.042,0,1.873,0.27,2.491,0.808c0.618,0.539,0.926,1.272,0.926,2.202
		c0,0.691-0.17,1.3-0.51,1.827c-0.34,0.527-0.811,0.904-1.411,1.131C292.311,158.161,292.85,158.506,293.224,159.005z"/>
	<path d="M298.8,163.519c-0.816-0.493-1.445-1.201-1.887-2.125c-0.442-0.923-0.663-2.015-0.663-3.272s0.221-2.349,0.663-3.272
		s1.071-1.629,1.887-2.117c0.816-0.487,1.779-0.731,2.89-0.731c0.827,0,1.587,0.13,2.278,0.391c0.691,0.261,1.292,0.652,1.802,1.173
		l-0.442,0.833c-0.567-0.521-1.136-0.895-1.708-1.122c-0.572-0.227-1.21-0.34-1.913-0.34c-1.383,0-2.457,0.454-3.221,1.36
		c-0.765,0.907-1.148,2.182-1.148,3.825c0,1.655,0.38,2.936,1.139,3.842c0.759,0.907,1.836,1.36,3.23,1.36
		c0.703,0,1.34-0.113,1.913-0.34c0.572-0.227,1.142-0.601,1.708-1.122l0.442,0.833c-0.51,0.521-1.111,0.913-1.802,1.173
		c-0.691,0.26-1.451,0.391-2.278,0.391C300.579,164.258,299.616,164.012,298.8,163.519z"/>
	<path d="M316.386,158.997c0.38,0.504,0.57,1.13,0.57,1.878c0,1.054-0.343,1.859-1.029,2.414c-0.686,0.556-1.657,0.833-2.916,0.833
		h-4.794v-11.985h4.624c1.224,0,2.17,0.272,2.839,0.816c0.669,0.544,1.003,1.32,1.003,2.329c0,0.646-0.167,1.201-0.501,1.666
		c-0.334,0.465-0.802,0.81-1.403,1.037C315.471,158.155,316.006,158.492,316.386,158.997z M309.254,157.577h3.434
		c0.963,0,1.694-0.198,2.193-0.595c0.499-0.396,0.748-0.969,0.748-1.717c0-1.485-0.98-2.227-2.941-2.227h-3.434V157.577z
		 M315.179,162.651c0.482-0.379,0.723-0.96,0.723-1.742c0-1.609-0.986-2.414-2.958-2.414h-3.689v4.726h3.689
		C313.952,163.221,314.697,163.031,315.179,162.651z"/>
	<path d="M327.58,160.501v0.901h-1.853v2.72h-1.054v-2.72h-5.678v-0.799l5.865-8.466h0.867v8.364H327.58z M320.168,160.501h4.505
		v-6.511L320.168,160.501z"/>
	<path d="M329.807,164.122v-11.985h7.395v0.901h-6.358v4.539h6.018v0.918h-6.018v4.726h6.358v0.901H329.807z"/>
	<path d="M339.344,152.137h7.718v0.765l-5.695,11.22h-1.122l5.644-11.067h-6.545V152.137z"/>
</g>
<g>
	<path d="M284.452,314.94h-1.802l-0.799,4.097h2.244v0.85h-2.414l-0.612,3.162h-0.901l0.612-3.162h-2.958l-0.612,3.162h-0.884
		l0.612-3.162h-1.666v-0.85h1.836l0.799-4.097h-2.278v-0.85h2.431l0.595-3.026h0.901l-0.595,3.026h2.958l0.595-3.026h0.884
		l-0.595,3.026h1.649V314.94z M280.95,319.037l0.799-4.097h-2.958l-0.799,4.097H280.95z"/>
	<path d="M294.057,322.131v0.918h-7.565v-0.782l4.267-4.76c0.601-0.691,1.037-1.303,1.309-1.836s0.408-1.065,0.408-1.598
		c0-0.714-0.207-1.264-0.621-1.649c-0.414-0.385-1-0.578-1.76-0.578c-1.201,0-2.352,0.482-3.451,1.445l-0.442-0.833
		c0.476-0.465,1.068-0.836,1.776-1.114c0.708-0.277,1.414-0.417,2.116-0.417c1.065,0,1.904,0.275,2.516,0.825
		c0.612,0.55,0.918,1.306,0.918,2.27c0,0.691-0.159,1.36-0.476,2.006s-0.839,1.372-1.564,2.176l-3.587,3.927H294.057z"/>
	<path d="M303.424,317.932c0.374,0.499,0.561,1.128,0.561,1.887c0,1.031-0.34,1.847-1.02,2.448c-0.68,0.601-1.604,0.901-2.771,0.901
		c-0.76,0-1.488-0.133-2.185-0.399c-0.697-0.267-1.295-0.643-1.793-1.131l0.442-0.833c1.077,0.963,2.25,1.445,3.519,1.445
		c0.884,0,1.564-0.21,2.04-0.629c0.476-0.419,0.714-1.02,0.714-1.802c0-1.598-0.986-2.397-2.958-2.397h-1.275v-0.918h1.02
		c0.94,0,1.668-0.218,2.185-0.655c0.515-0.436,0.773-1.057,0.773-1.861c0-0.68-0.21-1.207-0.629-1.581
		c-0.419-0.374-1.003-0.561-1.751-0.561c-1.201,0-2.352,0.482-3.451,1.445l-0.442-0.833c0.487-0.476,1.073-0.85,1.759-1.122
		c0.686-0.272,1.402-0.408,2.15-0.408c1.042,0,1.873,0.27,2.491,0.808c0.618,0.539,0.926,1.272,0.926,2.202
		c0,0.691-0.17,1.3-0.51,1.827c-0.34,0.527-0.811,0.904-1.411,1.131C302.511,317.088,303.05,317.433,303.424,317.932z"/>
	<path d="M313.385,312.432c0.771,1.003,1.156,2.434,1.156,4.292c0,2.04-0.397,3.627-1.19,4.76c-0.793,1.133-1.904,1.7-3.332,1.7
		c-0.68,0-1.34-0.134-1.98-0.4c-0.641-0.266-1.216-0.643-1.726-1.13l0.442-0.833c0.578,0.499,1.127,0.864,1.649,1.097
		c0.521,0.232,1.06,0.348,1.615,0.348c1.088,0,1.938-0.487,2.55-1.462c0.612-0.975,0.918-2.334,0.918-4.08v-0.459
		c-0.261,0.703-0.697,1.255-1.309,1.658c-0.612,0.402-1.315,0.604-2.108,0.604c-0.737,0-1.391-0.159-1.963-0.476
		c-0.573-0.317-1.018-0.762-1.334-1.334c-0.317-0.572-0.476-1.232-0.476-1.98c0-0.725,0.164-1.377,0.493-1.955
		c0.328-0.578,0.782-1.031,1.36-1.36s1.229-0.493,1.955-0.493C311.521,310.928,312.614,311.429,313.385,312.432z M312.246,316.793
		c0.544-0.533,0.816-1.218,0.816-2.057c0-0.861-0.27-1.558-0.808-2.091c-0.539-0.533-1.244-0.799-2.117-0.799
		c-0.839,0-1.51,0.264-2.014,0.791c-0.504,0.527-0.757,1.227-0.757,2.1c0,0.861,0.255,1.553,0.765,2.074
		c0.51,0.521,1.184,0.782,2.023,0.782C311.005,317.592,311.702,317.326,312.246,316.793z"/>
	<path d="M317.108,323.049v-11.985h7.225v0.901h-6.171v4.539h5.831v0.918h-5.831v5.627H317.108z"/>
	<path d="M326.509,311.064h3.859c1.904,0,3.372,0.519,4.403,1.555c1.031,1.037,1.547,2.514,1.547,4.429
		c0,1.916-0.519,3.395-1.556,4.437c-1.037,1.043-2.502,1.564-4.395,1.564h-3.859V311.064z M330.317,322.131
		c1.621,0,2.842-0.425,3.664-1.275c0.821-0.85,1.232-2.119,1.232-3.808c0-3.377-1.632-5.066-4.896-5.066h-2.754v10.149H330.317z"/>
	<path d="M346.909,319.428v0.901h-1.853v2.72h-1.054v-2.72h-5.678v-0.799l5.865-8.466h0.867v8.364H346.909z M339.497,319.428h4.505
		v-6.511L339.497,319.428z"/>
</g>
<g>
	<path d="M284.452,474.964h-1.802l-0.799,4.097h2.244v0.85h-2.414l-0.612,3.162h-0.901l0.612-3.162h-2.958l-0.612,3.162h-0.884
		l0.612-3.162h-1.666v-0.85h1.836l0.799-4.097h-2.278v-0.85h2.431l0.595-3.026h0.901l-0.595,3.026h2.958l0.595-3.026h0.884
		l-0.595,3.026h1.649V474.964z M280.95,479.061l0.799-4.097h-2.958l-0.799,4.097H280.95z"/>
	<path d="M286.984,481.654c-0.703-1.037-1.054-2.559-1.054-4.564c0-2.017,0.351-3.544,1.054-4.582s1.728-1.556,3.077-1.556
		c1.349,0,2.374,0.519,3.077,1.556s1.054,2.559,1.054,4.564s-0.352,3.53-1.054,4.573c-0.703,1.043-1.728,1.564-3.077,1.564
		C288.712,483.209,287.687,482.691,286.984,481.654z M292.365,481.008c0.493-0.844,0.74-2.156,0.74-3.936s-0.247-3.088-0.74-3.927
		c-0.493-0.838-1.261-1.258-2.303-1.258c-1.043,0-1.811,0.419-2.304,1.258c-0.493,0.839-0.739,2.148-0.739,3.927
		c0,1.768,0.249,3.077,0.748,3.927c0.499,0.85,1.263,1.275,2.295,1.275C291.104,482.274,291.872,481.852,292.365,481.008z"/>
	<path d="M297.185,481.654c-0.703-1.037-1.054-2.559-1.054-4.564c0-2.017,0.351-3.544,1.054-4.582s1.728-1.556,3.077-1.556
		c1.349,0,2.374,0.519,3.077,1.556s1.054,2.559,1.054,4.564s-0.352,3.53-1.054,4.573c-0.703,1.043-1.728,1.564-3.077,1.564
		C298.913,483.209,297.887,482.691,297.185,481.654z M302.565,481.008c0.493-0.844,0.74-2.156,0.74-3.936s-0.247-3.088-0.74-3.927
		c-0.493-0.838-1.261-1.258-2.303-1.258c-1.043,0-1.811,0.419-2.304,1.258c-0.493,0.839-0.739,2.148-0.739,3.927
		c0,1.768,0.249,3.077,0.748,3.927c0.499,0.85,1.263,1.275,2.295,1.275C301.304,482.274,302.072,481.852,302.565,481.008z"/>
	<path d="M306.603,471.088h7.718v0.765l-5.695,11.22h-1.122l5.644-11.067h-6.545V471.088z"/>
	<path d="M325.081,479.452v0.901h-1.853v2.72h-1.054v-2.72h-5.678v-0.799l5.865-8.466h0.867v8.364H325.081z M317.669,479.452h4.505
		v-6.511L317.669,479.452z"/>
	<path d="M333.785,472.457c0.771,1.003,1.156,2.434,1.156,4.292c0,2.04-0.397,3.627-1.19,4.76c-0.793,1.133-1.904,1.7-3.332,1.7
		c-0.68,0-1.34-0.134-1.98-0.4c-0.641-0.266-1.216-0.643-1.726-1.13l0.442-0.833c0.578,0.499,1.127,0.864,1.649,1.097
		c0.521,0.232,1.06,0.348,1.615,0.348c1.088,0,1.938-0.487,2.55-1.462c0.612-0.975,0.918-2.334,0.918-4.08v-0.459
		c-0.261,0.703-0.697,1.255-1.309,1.658c-0.612,0.402-1.315,0.604-2.108,0.604c-0.737,0-1.391-0.159-1.963-0.476
		c-0.573-0.317-1.018-0.762-1.334-1.334c-0.317-0.572-0.476-1.232-0.476-1.98c0-0.725,0.164-1.377,0.493-1.955
		c0.328-0.578,0.782-1.031,1.36-1.36s1.229-0.493,1.955-0.493C331.92,470.952,333.014,471.454,333.785,472.457z M332.646,476.817
		c0.544-0.533,0.816-1.218,0.816-2.057c0-0.861-0.27-1.558-0.808-2.091c-0.539-0.533-1.244-0.799-2.117-0.799
		c-0.839,0-1.51,0.264-2.014,0.791c-0.504,0.527-0.757,1.227-0.757,2.1c0,0.861,0.255,1.553,0.765,2.074
		c0.51,0.521,1.184,0.782,2.023,0.782C331.405,477.616,332.102,477.35,332.646,476.817z"/>
	<path d="M339.599,482.47c-0.816-0.493-1.445-1.201-1.887-2.125c-0.442-0.923-0.663-2.015-0.663-3.272s0.221-2.349,0.663-3.272
		s1.071-1.629,1.887-2.117c0.816-0.487,1.779-0.731,2.89-0.731c0.827,0,1.587,0.13,2.278,0.391c0.691,0.261,1.292,0.652,1.802,1.173
		l-0.442,0.833c-0.567-0.521-1.136-0.895-1.708-1.122c-0.572-0.227-1.21-0.34-1.913-0.34c-1.383,0-2.457,0.454-3.221,1.36
		c-0.765,0.907-1.148,2.182-1.148,3.825c0,1.655,0.38,2.936,1.139,3.842c0.759,0.907,1.836,1.36,3.23,1.36
		c0.703,0,1.34-0.113,1.913-0.34c0.572-0.227,1.142-0.601,1.708-1.122l0.442,0.833c-0.51,0.521-1.111,0.913-1.802,1.173
		c-0.691,0.26-1.451,0.391-2.278,0.391C341.378,483.209,340.415,482.963,339.599,482.47z"/>
</g>
<g>
	<path d="M284.452,633.891h-1.802l-0.799,4.098h2.244v0.85h-2.414L281.069,642h-0.901l0.612-3.162h-2.958L277.21,642h-0.884
		l0.612-3.162h-1.666v-0.85h1.836l0.799-4.098h-2.278v-0.85h2.431l0.595-3.025h0.901l-0.595,3.025h2.958l0.595-3.025h0.884
		l-0.595,3.025h1.649V633.891z M280.95,637.988l0.799-4.098h-2.958l-0.799,4.098H280.95z"/>
	<path d="M286.984,640.58c-0.703-1.037-1.054-2.559-1.054-4.564c0-2.017,0.351-3.544,1.054-4.581s1.728-1.556,3.077-1.556
		c1.349,0,2.374,0.519,3.077,1.556s1.054,2.559,1.054,4.564s-0.352,3.53-1.054,4.573s-1.728,1.564-3.077,1.564
		C288.712,642.137,287.687,641.617,286.984,640.58z M292.365,639.935c0.493-0.845,0.74-2.156,0.74-3.936s-0.247-3.089-0.74-3.927
		c-0.493-0.839-1.261-1.258-2.303-1.258c-1.043,0-1.811,0.419-2.304,1.258c-0.493,0.838-0.739,2.147-0.739,3.927
		c0,1.769,0.249,3.077,0.748,3.927c0.499,0.85,1.263,1.275,2.295,1.275C291.104,641.201,291.872,640.779,292.365,639.935z"/>
	<path d="M297.185,640.58c-0.703-1.037-1.054-2.559-1.054-4.564c0-2.017,0.351-3.544,1.054-4.581s1.728-1.556,3.077-1.556
		c1.349,0,2.374,0.519,3.077,1.556s1.054,2.559,1.054,4.564s-0.352,3.53-1.054,4.573s-1.728,1.564-3.077,1.564
		C298.913,642.137,297.887,641.617,297.185,640.58z M302.565,639.935c0.493-0.845,0.74-2.156,0.74-3.936s-0.247-3.089-0.74-3.927
		c-0.493-0.839-1.261-1.258-2.303-1.258c-1.043,0-1.811,0.419-2.304,1.258c-0.493,0.838-0.739,2.147-0.739,3.927
		c0,1.769,0.249,3.077,0.748,3.927c0.499,0.85,1.263,1.275,2.295,1.275C301.304,641.201,302.072,640.779,302.565,639.935z"/>
	<path d="M307.384,640.58c-0.703-1.037-1.054-2.559-1.054-4.564c0-2.017,0.351-3.544,1.054-4.581s1.728-1.556,3.077-1.556
		c1.349,0,2.374,0.519,3.077,1.556s1.054,2.559,1.054,4.564s-0.352,3.53-1.054,4.573s-1.728,1.564-3.077,1.564
		C309.112,642.137,308.087,641.617,307.384,640.58z M312.765,639.935c0.493-0.845,0.74-2.156,0.74-3.936s-0.247-3.089-0.74-3.927
		c-0.493-0.839-1.261-1.258-2.303-1.258c-1.043,0-1.811,0.419-2.304,1.258c-0.493,0.838-0.739,2.147-0.739,3.927
		c0,1.769,0.249,3.077,0.748,3.927c0.499,0.85,1.263,1.275,2.295,1.275C311.504,641.201,312.272,640.779,312.765,639.935z"/>
	<path d="M317.584,640.58c-0.703-1.037-1.054-2.559-1.054-4.564c0-2.017,0.351-3.544,1.054-4.581s1.728-1.556,3.077-1.556
		c1.349,0,2.374,0.519,3.077,1.556s1.054,2.559,1.054,4.564s-0.352,3.53-1.054,4.573s-1.728,1.564-3.077,1.564
		C319.312,642.137,318.287,641.617,317.584,640.58z M322.964,639.935c0.493-0.845,0.74-2.156,0.74-3.936s-0.247-3.089-0.74-3.927
		c-0.493-0.839-1.261-1.258-2.303-1.258c-1.043,0-1.811,0.419-2.304,1.258c-0.493,0.838-0.739,2.147-0.739,3.927
		c0,1.769,0.249,3.077,0.748,3.927c0.499,0.85,1.263,1.275,2.295,1.275C321.704,641.201,322.472,640.779,322.964,639.935z"/>
	<path d="M327.784,640.58c-0.703-1.037-1.054-2.559-1.054-4.564c0-2.017,0.351-3.544,1.054-4.581s1.728-1.556,3.077-1.556
		c1.349,0,2.374,0.519,3.077,1.556s1.054,2.559,1.054,4.564s-0.352,3.53-1.054,4.573s-1.728,1.564-3.077,1.564
		C329.512,642.137,328.486,641.617,327.784,640.58z M333.164,639.935c0.493-0.845,0.74-2.156,0.74-3.936s-0.247-3.089-0.74-3.927
		c-0.493-0.839-1.261-1.258-2.303-1.258c-1.043,0-1.811,0.419-2.304,1.258c-0.493,0.838-0.739,2.147-0.739,3.927
		c0,1.769,0.249,3.077,0.748,3.927c0.499,0.85,1.263,1.275,2.295,1.275C331.903,641.201,332.671,640.779,333.164,639.935z"/>
	<path d="M337.984,640.58c-0.703-1.037-1.054-2.559-1.054-4.564c0-2.017,0.351-3.544,1.054-4.581s1.728-1.556,3.077-1.556
		c1.349,0,2.374,0.519,3.077,1.556s1.054,2.559,1.054,4.564s-0.352,3.53-1.054,4.573s-1.728,1.564-3.077,1.564
		C339.712,642.137,338.687,641.617,337.984,640.58z M343.364,639.935c0.493-0.845,0.74-2.156,0.74-3.936s-0.247-3.089-0.74-3.927
		c-0.493-0.839-1.261-1.258-2.303-1.258c-1.043,0-1.811,0.419-2.304,1.258c-0.493,0.838-0.739,2.147-0.739,3.927
		c0,1.769,0.249,3.077,0.748,3.927c0.499,0.85,1.263,1.275,2.295,1.275C342.104,641.201,342.872,640.779,343.364,639.935z"/>
</g>
<g>
	<path d="M55.178,160.936c0.653-0.491,1.463-0.737,2.431-0.737c1.364,0,2.406,0.444,3.124,1.331
		c0.719,0.888,1.078,2.145,1.078,3.773v6.204h-15.51v-5.984c0-1.584,0.352-2.809,1.056-3.674c0.704-0.865,1.709-1.298,3.014-1.298
		c0.836,0,1.555,0.217,2.156,0.649c0.602,0.433,1.049,1.038,1.342,1.815C54.089,162.121,54.525,161.428,55.178,160.936z
		 M53.341,170.165v-4.444c0-1.247-0.256-2.192-0.77-2.838c-0.513-0.645-1.254-0.968-2.222-0.968c-1.921,0-2.882,1.269-2.882,3.806
		v4.444H53.341z M59.908,162.498c-0.491-0.623-1.243-0.935-2.255-0.935c-2.082,0-3.124,1.276-3.124,3.828v4.774h6.116v-4.774
		C60.645,164.086,60.399,163.122,59.908,162.498z"/>
	<path d="M61.811,144.888v1.496l-4.972,2.618c-0.674,0.352-1.136,0.763-1.386,1.232c-0.25,0.47-0.374,1.115-0.374,1.936v3.234h6.732
		v1.364h-15.51v-6.204c0-1.628,0.37-2.882,1.111-3.762c0.741-0.88,1.822-1.32,3.245-1.32c1.203,0,2.167,0.349,2.893,1.045
		c0.726,0.697,1.17,1.691,1.331,2.981c0.118-0.381,0.319-0.722,0.605-1.023c0.286-0.3,0.664-0.575,1.133-0.825L61.811,144.888z
		 M53.913,150.651c0-2.552-1.092-3.828-3.278-3.828c-1.071,0-1.866,0.315-2.387,0.946c-0.521,0.631-0.781,1.592-0.781,2.882v4.774
		h6.446V150.651z"/>
	<path d="M61.811,129.994l-4.136,1.782v8.36l4.136,1.782v1.386l-15.51-6.732v-1.232l15.51-6.732V129.994z M56.487,139.629v-7.348
		l-8.58,3.674L56.487,139.629z"/>
	<path d="M46.301,115.144v-1.276h15.51v1.056l-13.222,9.834h13.222v1.276h-15.51v-1.078l13.2-9.812H46.301z"/>
	<path d="M46.301,109.864v-4.994c0-2.464,0.671-4.363,2.013-5.698c1.342-1.334,3.252-2.002,5.731-2.002
		c2.479,0,4.393,0.671,5.742,2.013c1.35,1.342,2.024,3.238,2.024,5.687v4.994H46.301z M60.623,104.936
		c0-2.097-0.55-3.677-1.65-4.741S56.23,98.6,54.045,98.6c-4.37,0-6.556,2.112-6.556,6.336v3.564h13.134V104.936z"/>
</g>
<rect x="532.348" y="96.049" fill="#F1F3F4" width="134.146" height="134.146"/>
<rect x="532.348" y="254.976" fill="#D4D8DB" width="134.146" height="134.146"/>
<rect x="532.348" y="415" fill="#989898" width="134.146" height="134.146"/>
<rect x="532.348" y="573.927" fill="#132C37" width="134.146" height="134.146"/>
<g>
	<path d="M713.988,155.013h-1.802l-0.799,4.097h2.244v0.85h-2.414l-0.612,3.162h-0.901l0.612-3.162h-2.958l-0.612,3.162h-0.884
		l0.612-3.162h-1.666v-0.85h1.836l0.799-4.097h-2.278v-0.85h2.431l0.595-3.026h0.901l-0.595,3.026h2.958l0.595-3.026h0.884
		l-0.595,3.026h1.649V155.013z M710.486,159.11l0.799-4.097h-2.958l-0.799,4.097H710.486z"/>
	<path d="M716.045,163.122v-11.985h7.225v0.901h-6.171v4.539h5.831v0.918h-5.831v5.627H716.045z"/>
	<path d="M729.934,162.204h2.635v0.918h-6.341v-0.918h2.652v-9.673l-2.125,1.36l-0.544-0.833l2.941-1.921h0.782V162.204z"/>
	<path d="M735.646,163.122v-11.985h7.225v0.901H736.7v4.539h5.831v0.918H736.7v5.627H735.646z"/>
	<path d="M751.762,158.005c0.374,0.499,0.561,1.128,0.561,1.887c0,1.031-0.34,1.847-1.02,2.448c-0.68,0.601-1.604,0.901-2.771,0.901
		c-0.76,0-1.488-0.133-2.185-0.399c-0.697-0.267-1.295-0.643-1.793-1.131l0.442-0.833c1.077,0.963,2.25,1.445,3.519,1.445
		c0.884,0,1.564-0.21,2.04-0.629c0.476-0.419,0.714-1.02,0.714-1.802c0-1.598-0.986-2.397-2.958-2.397h-1.275v-0.918h1.02
		c0.94,0,1.668-0.218,2.185-0.655c0.515-0.436,0.773-1.057,0.773-1.861c0-0.68-0.21-1.207-0.629-1.581
		c-0.419-0.374-1.003-0.561-1.751-0.561c-1.201,0-2.352,0.482-3.451,1.445l-0.442-0.833c0.487-0.476,1.073-0.85,1.759-1.122
		c0.686-0.272,1.402-0.408,2.15-0.408c1.042,0,1.873,0.27,2.491,0.808c0.618,0.539,0.926,1.272,0.926,2.202
		c0,0.691-0.17,1.3-0.51,1.827c-0.34,0.527-0.811,0.904-1.411,1.131C750.85,157.161,751.388,157.506,751.762,158.005z"/>
	<path d="M755.247,163.122v-11.985h7.225v0.901h-6.17v4.539h5.831v0.918h-5.831v5.627H755.247z"/>
	<path d="M772.621,159.501v0.901h-1.853v2.72h-1.055v-2.72h-5.678v-0.799l5.865-8.466h0.867v8.364H772.621z M765.208,159.501h4.505
		v-6.511L765.208,159.501z"/>
</g>
<g>
	<path d="M713.988,313.94h-1.802l-0.799,4.097h2.244v0.85h-2.414l-0.612,3.162h-0.901l0.612-3.162h-2.958l-0.612,3.162h-0.884
		l0.612-3.162h-1.666v-0.85h1.836l0.799-4.097h-2.278v-0.85h2.431l0.595-3.026h0.901l-0.595,3.026h2.958l0.595-3.026h0.884
		l-0.595,3.026h1.649V313.94z M710.486,318.037l0.799-4.097h-2.958l-0.799,4.097H710.486z"/>
	<path d="M716.045,310.064h3.859c1.904,0,3.372,0.519,4.403,1.555c1.031,1.037,1.547,2.514,1.547,4.429
		c0,1.916-0.519,3.395-1.556,4.437c-1.037,1.043-2.502,1.564-4.395,1.564h-3.859V310.064z M719.853,321.131
		c1.621,0,2.842-0.425,3.664-1.275c0.821-0.85,1.232-2.119,1.232-3.808c0-3.377-1.632-5.066-4.896-5.066h-2.754v10.149H719.853z"/>
	<path d="M736.445,318.428v0.901h-1.853v2.72h-1.054v-2.72h-5.678v-0.799l5.865-8.466h0.867v8.364H736.445z M729.033,318.428h4.505
		v-6.511L729.033,318.428z"/>
	<path d="M738.672,310.064h3.859c1.904,0,3.372,0.519,4.403,1.555c1.031,1.037,1.547,2.514,1.547,4.429
		c0,1.916-0.519,3.395-1.556,4.437c-1.037,1.043-2.502,1.564-4.395,1.564h-3.859V310.064z M742.48,321.131
		c1.621,0,2.842-0.425,3.664-1.275c0.821-0.85,1.232-2.119,1.232-3.808c0-3.377-1.632-5.066-4.896-5.066h-2.754v10.149H742.48z"/>
	<path d="M758.264,317.008c0.402,0.527,0.604,1.159,0.604,1.896c0,1.02-0.365,1.819-1.096,2.397
		c-0.731,0.578-1.771,0.867-3.12,0.867c-1.349,0-2.389-0.289-3.12-0.867s-1.097-1.377-1.097-2.397c0-0.748,0.198-1.382,0.595-1.904
		c0.396-0.521,0.952-0.884,1.666-1.088c-0.612-0.227-1.097-0.589-1.454-1.088c-0.357-0.499-0.536-1.077-0.536-1.734
		c0-0.975,0.346-1.745,1.037-2.312c0.691-0.566,1.66-0.85,2.907-0.85c1.247,0,2.215,0.284,2.907,0.85
		c0.691,0.567,1.037,1.337,1.037,2.312c0,0.657-0.178,1.235-0.536,1.734c-0.357,0.499-0.841,0.861-1.453,1.088
		C757.31,316.116,757.862,316.481,758.264,317.008z M757.797,318.853c0-1.609-1.048-2.414-3.145-2.414
		c-2.097,0-3.145,0.805-3.145,2.414c0,1.598,1.048,2.397,3.145,2.397C756.749,321.25,757.797,320.451,757.797,318.853z
		 M752.51,314.892c0.487,0.419,1.201,0.629,2.142,0.629c0.94,0,1.654-0.21,2.142-0.629c0.487-0.419,0.731-1.003,0.731-1.751
		c0-0.725-0.244-1.289-0.731-1.691c-0.488-0.402-1.202-0.604-2.142-0.604c-0.941,0-1.655,0.202-2.142,0.604
		c-0.487,0.402-0.731,0.966-0.731,1.691C751.779,313.889,752.022,314.473,752.51,314.892z"/>
	<path d="M761.298,310.064h3.858c1.904,0,3.372,0.519,4.404,1.555c1.031,1.037,1.547,2.514,1.547,4.429
		c0,1.916-0.52,3.395-1.557,4.437c-1.036,1.043-2.502,1.564-4.395,1.564h-3.858V310.064z M765.106,321.131
		c1.621,0,2.842-0.425,3.664-1.275c0.821-0.85,1.232-2.119,1.232-3.808c0-3.377-1.632-5.066-4.896-5.066h-2.754v10.149H765.106z"/>
	<path d="M781.893,316.923c0.381,0.504,0.57,1.13,0.57,1.878c0,1.054-0.344,1.859-1.029,2.414c-0.686,0.556-1.656,0.833-2.915,0.833
		h-4.794v-11.985h4.624c1.224,0,2.171,0.272,2.839,0.816c0.669,0.544,1.004,1.32,1.004,2.329c0,0.646-0.168,1.201-0.502,1.666
		s-0.803,0.81-1.402,1.037C780.979,316.082,781.514,316.419,781.893,316.923z M774.762,315.504h3.434
		c0.963,0,1.694-0.198,2.193-0.595c0.498-0.396,0.748-0.969,0.748-1.717c0-1.485-0.98-2.227-2.941-2.227h-3.434V315.504z
		 M780.686,320.578c0.482-0.379,0.723-0.96,0.723-1.742c0-1.609-0.985-2.414-2.957-2.414h-3.689v4.726h3.689
		C779.459,321.148,780.206,320.958,780.686,320.578z"/>
</g>
<g>
	<path d="M713.988,473.964h-1.802l-0.799,4.097h2.244v0.85h-2.414l-0.612,3.162h-0.901l0.612-3.162h-2.958l-0.612,3.162h-0.884
		l0.612-3.162h-1.666v-0.85h1.836l0.799-4.097h-2.278v-0.85h2.431l0.595-3.026h0.901l-0.595,3.026h2.958l0.595-3.026h0.884
		l-0.595,3.026h1.649V473.964z M710.486,478.061l0.799-4.097h-2.958l-0.799,4.097H710.486z"/>
	<path d="M722.522,471.457c0.771,1.003,1.156,2.434,1.156,4.292c0,2.04-0.397,3.627-1.19,4.76c-0.793,1.133-1.904,1.7-3.332,1.7
		c-0.68,0-1.34-0.134-1.98-0.4c-0.641-0.266-1.216-0.643-1.726-1.13l0.442-0.833c0.578,0.499,1.127,0.864,1.649,1.097
		c0.521,0.232,1.06,0.348,1.615,0.348c1.088,0,1.938-0.487,2.55-1.462c0.612-0.975,0.918-2.334,0.918-4.08v-0.459
		c-0.261,0.703-0.697,1.255-1.309,1.658c-0.612,0.402-1.315,0.604-2.108,0.604c-0.737,0-1.391-0.159-1.963-0.476
		c-0.573-0.317-1.018-0.762-1.334-1.334c-0.317-0.572-0.476-1.232-0.476-1.98c0-0.725,0.164-1.377,0.493-1.955
		c0.328-0.578,0.782-1.031,1.36-1.36s1.229-0.493,1.955-0.493C720.658,469.952,721.751,470.454,722.522,471.457z M721.383,475.817
		c0.544-0.533,0.816-1.218,0.816-2.057c0-0.861-0.27-1.558-0.808-2.091c-0.539-0.533-1.244-0.799-2.117-0.799
		c-0.839,0-1.51,0.264-2.014,0.791c-0.504,0.527-0.757,1.227-0.757,2.1c0,0.861,0.255,1.553,0.765,2.074
		c0.51,0.521,1.184,0.782,2.023,0.782C720.142,476.616,720.839,476.35,721.383,475.817z"/>
	<path d="M733.411,477.033c0.402,0.527,0.604,1.159,0.604,1.896c0,1.02-0.365,1.819-1.096,2.397
		c-0.731,0.578-1.771,0.867-3.12,0.867c-1.349,0-2.389-0.289-3.12-0.867s-1.097-1.377-1.097-2.397c0-0.748,0.198-1.382,0.595-1.904
		c0.396-0.521,0.952-0.884,1.666-1.088c-0.612-0.227-1.097-0.589-1.454-1.088c-0.357-0.499-0.536-1.077-0.536-1.734
		c0-0.975,0.346-1.745,1.037-2.312c0.691-0.566,1.66-0.85,2.907-0.85c1.247,0,2.215,0.284,2.907,0.85
		c0.691,0.567,1.037,1.337,1.037,2.312c0,0.657-0.178,1.235-0.536,1.734c-0.357,0.499-0.841,0.861-1.453,1.088
		C732.456,476.14,733.008,476.506,733.411,477.033z M732.943,478.877c0-1.609-1.048-2.414-3.145-2.414
		c-2.097,0-3.145,0.805-3.145,2.414c0,1.598,1.048,2.397,3.145,2.397C731.895,481.274,732.943,480.475,732.943,478.877z
		 M727.656,474.916c0.487,0.419,1.201,0.629,2.142,0.629c0.94,0,1.654-0.21,2.142-0.629c0.487-0.419,0.731-1.003,0.731-1.751
		c0-0.725-0.244-1.289-0.731-1.691c-0.488-0.402-1.202-0.604-2.142-0.604c-0.941,0-1.655,0.202-2.142,0.604
		c-0.487,0.402-0.731,0.966-0.731,1.691C726.925,473.913,727.169,474.497,727.656,474.916z"/>
	<path d="M742.922,471.457c0.771,1.003,1.156,2.434,1.156,4.292c0,2.04-0.397,3.627-1.19,4.76c-0.793,1.133-1.904,1.7-3.332,1.7
		c-0.68,0-1.34-0.134-1.98-0.4c-0.641-0.266-1.216-0.643-1.726-1.13l0.442-0.833c0.578,0.499,1.127,0.864,1.649,1.097
		c0.521,0.232,1.06,0.348,1.615,0.348c1.088,0,1.938-0.487,2.55-1.462c0.612-0.975,0.918-2.334,0.918-4.08v-0.459
		c-0.261,0.703-0.697,1.255-1.309,1.658c-0.612,0.402-1.315,0.604-2.108,0.604c-0.737,0-1.391-0.159-1.963-0.476
		c-0.573-0.317-1.018-0.762-1.334-1.334c-0.317-0.572-0.476-1.232-0.476-1.98c0-0.725,0.164-1.377,0.493-1.955
		c0.328-0.578,0.782-1.031,1.36-1.36s1.229-0.493,1.955-0.493C741.058,469.952,742.151,470.454,742.922,471.457z M741.783,475.817
		c0.544-0.533,0.816-1.218,0.816-2.057c0-0.861-0.27-1.558-0.808-2.091c-0.539-0.533-1.244-0.799-2.117-0.799
		c-0.839,0-1.51,0.264-2.014,0.791c-0.504,0.527-0.757,1.227-0.757,2.1c0,0.861,0.255,1.553,0.765,2.074
		c0.51,0.521,1.184,0.782,2.023,0.782C740.542,476.616,741.239,476.35,741.783,475.817z"/>
	<path d="M753.81,477.033c0.402,0.527,0.604,1.159,0.604,1.896c0,1.02-0.365,1.819-1.096,2.397c-0.731,0.578-1.771,0.867-3.12,0.867
		c-1.349,0-2.389-0.289-3.12-0.867s-1.097-1.377-1.097-2.397c0-0.748,0.198-1.382,0.595-1.904c0.396-0.521,0.952-0.884,1.666-1.088
		c-0.612-0.227-1.097-0.589-1.454-1.088c-0.357-0.499-0.536-1.077-0.536-1.734c0-0.975,0.346-1.745,1.037-2.312
		c0.691-0.566,1.66-0.85,2.907-0.85c1.247,0,2.215,0.284,2.907,0.85c0.691,0.567,1.037,1.337,1.037,2.312
		c0,0.657-0.178,1.235-0.536,1.734c-0.357,0.499-0.841,0.861-1.453,1.088C752.855,476.14,753.408,476.506,753.81,477.033z
		 M753.343,478.877c0-1.609-1.048-2.414-3.145-2.414c-2.097,0-3.145,0.805-3.145,2.414c0,1.598,1.048,2.397,3.145,2.397
		C752.294,481.274,753.343,480.475,753.343,478.877z M748.056,474.916c0.487,0.419,1.201,0.629,2.142,0.629
		c0.94,0,1.654-0.21,2.142-0.629c0.487-0.419,0.731-1.003,0.731-1.751c0-0.725-0.244-1.289-0.731-1.691
		c-0.488-0.402-1.202-0.604-2.142-0.604c-0.941,0-1.655,0.202-2.142,0.604c-0.487,0.402-0.731,0.966-0.731,1.691
		C747.325,473.913,747.568,474.497,748.056,474.916z"/>
	<path d="M763.321,471.457c0.771,1.003,1.156,2.434,1.156,4.292c0,2.04-0.396,3.627-1.189,4.76s-1.904,1.7-3.332,1.7
		c-0.68,0-1.34-0.134-1.98-0.4c-0.641-0.266-1.216-0.643-1.726-1.13l0.442-0.833c0.578,0.499,1.127,0.864,1.649,1.097
		c0.521,0.232,1.06,0.348,1.615,0.348c1.088,0,1.938-0.487,2.55-1.462c0.612-0.975,0.918-2.334,0.918-4.08v-0.459
		c-0.261,0.703-0.696,1.255-1.31,1.658c-0.611,0.402-1.314,0.604-2.107,0.604c-0.737,0-1.391-0.159-1.963-0.476
		c-0.573-0.317-1.018-0.762-1.334-1.334c-0.317-0.572-0.476-1.232-0.476-1.98c0-0.725,0.164-1.377,0.493-1.955
		c0.328-0.578,0.782-1.031,1.36-1.36s1.229-0.493,1.955-0.493C761.458,469.952,762.55,470.454,763.321,471.457z M762.182,475.817
		c0.545-0.533,0.816-1.218,0.816-2.057c0-0.861-0.27-1.558-0.808-2.091s-1.244-0.799-2.117-0.799c-0.839,0-1.51,0.264-2.014,0.791
		c-0.504,0.527-0.757,1.227-0.757,2.1c0,0.861,0.255,1.553,0.765,2.074c0.51,0.521,1.184,0.782,2.023,0.782
		C760.941,476.616,761.638,476.35,762.182,475.817z"/>
	<path d="M774.209,477.033c0.402,0.527,0.604,1.159,0.604,1.896c0,1.02-0.365,1.819-1.096,2.397
		c-0.731,0.578-1.771,0.867-3.119,0.867c-1.35,0-2.389-0.289-3.12-0.867s-1.097-1.377-1.097-2.397c0-0.748,0.198-1.382,0.596-1.904
		c0.396-0.521,0.951-0.884,1.666-1.088c-0.612-0.227-1.098-0.589-1.454-1.088c-0.356-0.499-0.536-1.077-0.536-1.734
		c0-0.975,0.346-1.745,1.037-2.312c0.691-0.566,1.66-0.85,2.908-0.85c1.246,0,2.215,0.284,2.906,0.85
		c0.691,0.567,1.037,1.337,1.037,2.312c0,0.657-0.178,1.235-0.535,1.734c-0.357,0.499-0.842,0.861-1.453,1.088
		C773.255,476.14,773.807,476.506,774.209,477.033z M773.743,478.877c0-1.609-1.049-2.414-3.145-2.414
		c-2.098,0-3.146,0.805-3.146,2.414c0,1.598,1.048,2.397,3.146,2.397C772.694,481.274,773.743,480.475,773.743,478.877z
		 M768.456,474.916c0.487,0.419,1.201,0.629,2.143,0.629c0.939,0,1.654-0.21,2.142-0.629c0.487-0.419,0.731-1.003,0.731-1.751
		c0-0.725-0.244-1.289-0.731-1.691c-0.487-0.402-1.202-0.604-2.142-0.604c-0.941,0-1.655,0.202-2.143,0.604
		c-0.487,0.402-0.73,0.966-0.73,1.691C767.725,473.913,767.968,474.497,768.456,474.916z"/>
</g>
<g>
	<path d="M713.988,632.891h-1.802l-0.799,4.098h2.244v0.85h-2.414L710.605,641h-0.901l0.612-3.162h-2.958L706.747,641h-0.884
		l0.612-3.162h-1.666v-0.85h1.836l0.799-4.098h-2.278v-0.85h2.431l0.595-3.025h0.901l-0.595,3.025h2.958l0.595-3.025h0.884
		l-0.595,3.025h1.649V632.891z M710.486,636.988l0.799-4.098h-2.958l-0.799,4.098H710.486z"/>
	<path d="M720.533,640.082h2.635V641h-6.341v-0.918h2.652v-9.673l-2.125,1.36l-0.544-0.834l2.941-1.92h0.782V640.082z"/>
	<path d="M732.96,635.883c0.374,0.499,0.561,1.128,0.561,1.887c0,1.031-0.34,1.848-1.02,2.448c-0.68,0.601-1.604,0.901-2.771,0.901
		c-0.76,0-1.488-0.133-2.185-0.399c-0.697-0.267-1.295-0.644-1.793-1.131l0.442-0.833c1.077,0.963,2.25,1.445,3.519,1.445
		c0.884,0,1.564-0.21,2.04-0.629c0.476-0.42,0.714-1.021,0.714-1.803c0-1.598-0.986-2.396-2.958-2.396h-1.275v-0.918h1.02
		c0.94,0,1.668-0.219,2.185-0.654c0.515-0.437,0.773-1.057,0.773-1.861c0-0.681-0.21-1.207-0.629-1.582
		c-0.419-0.373-1.003-0.561-1.751-0.561c-1.201,0-2.352,0.482-3.451,1.445l-0.442-0.833c0.487-0.476,1.073-0.851,1.759-1.122
		c0.686-0.271,1.402-0.408,2.15-0.408c1.042,0,1.873,0.27,2.491,0.808c0.618,0.538,0.926,1.272,0.926,2.202
		c0,0.691-0.17,1.3-0.51,1.826c-0.34,0.527-0.811,0.904-1.411,1.131C732.048,635.039,732.586,635.385,732.96,635.883z"/>
	<path d="M743.993,640.082V641h-7.565v-0.782l4.267-4.76c0.601-0.691,1.037-1.304,1.309-1.836s0.408-1.065,0.408-1.599
		c0-0.713-0.207-1.264-0.621-1.648c-0.414-0.385-1-0.578-1.76-0.578c-1.201,0-2.352,0.482-3.451,1.445l-0.442-0.833
		c0.476-0.465,1.068-0.836,1.776-1.114c0.708-0.277,1.414-0.416,2.116-0.416c1.065,0,1.904,0.275,2.516,0.824
		c0.612,0.551,0.918,1.307,0.918,2.27c0,0.691-0.159,1.36-0.476,2.006c-0.317,0.646-0.839,1.372-1.564,2.176l-3.587,3.928H743.993z"
		/>
	<path d="M748.736,640.396c-0.816-0.493-1.445-1.201-1.887-2.125s-0.663-2.015-0.663-3.272s0.221-2.349,0.663-3.272
		s1.071-1.629,1.887-2.117c0.816-0.486,1.779-0.73,2.89-0.73c0.827,0,1.587,0.131,2.278,0.391c0.691,0.262,1.292,0.652,1.802,1.174
		l-0.442,0.832c-0.567-0.521-1.136-0.895-1.708-1.121s-1.21-0.34-1.913-0.34c-1.383,0-2.457,0.453-3.221,1.359
		c-0.765,0.907-1.148,2.182-1.148,3.825c0,1.655,0.38,2.936,1.139,3.842c0.759,0.907,1.836,1.36,3.23,1.36
		c0.703,0,1.34-0.113,1.913-0.34s1.142-0.602,1.708-1.123l0.442,0.834c-0.51,0.521-1.111,0.912-1.802,1.173
		c-0.691,0.261-1.451,0.392-2.278,0.392C750.515,641.137,749.552,640.89,748.736,640.396z"/>
	<path d="M764.869,635.883c0.374,0.499,0.562,1.128,0.562,1.887c0,1.031-0.341,1.848-1.021,2.448
		c-0.681,0.601-1.604,0.901-2.771,0.901c-0.76,0-1.488-0.133-2.185-0.399c-0.697-0.267-1.295-0.644-1.793-1.131l0.442-0.833
		c1.077,0.963,2.25,1.445,3.519,1.445c0.884,0,1.564-0.21,2.04-0.629c0.476-0.42,0.714-1.021,0.714-1.803
		c0-1.598-0.986-2.396-2.958-2.396h-1.275v-0.918h1.02c0.94,0,1.668-0.219,2.185-0.654c0.515-0.437,0.773-1.057,0.773-1.861
		c0-0.681-0.21-1.207-0.63-1.582c-0.418-0.373-1.002-0.561-1.75-0.561c-1.202,0-2.352,0.482-3.451,1.445l-0.442-0.833
		c0.487-0.476,1.073-0.851,1.759-1.122c0.686-0.271,1.402-0.408,2.15-0.408c1.042,0,1.872,0.27,2.491,0.808
		c0.617,0.538,0.926,1.272,0.926,2.202c0,0.691-0.17,1.3-0.51,1.826c-0.34,0.527-0.811,0.904-1.411,1.131
		C763.956,635.039,764.495,635.385,764.869,635.883z"/>
	<path d="M768.047,629.016h7.718v0.764L770.071,641h-1.123l5.645-11.066h-6.545V629.016z"/>
</g>
<rect x="532.348" y="733.244" fill="#FFFFFF" stroke="#231F20" stroke-miterlimit="10" width="134.146" height="134.146"/>
<g>
	<path d="M713.988,792.209h-1.802l-0.799,4.096h2.244v0.851h-2.414l-0.612,3.162h-0.901l0.612-3.162h-2.958l-0.612,3.162h-0.884
		l0.612-3.162h-1.666v-0.851h1.836l0.799-4.096h-2.278v-0.851h2.431l0.595-3.026h0.901l-0.595,3.026h2.958l0.595-3.026h0.884
		l-0.595,3.026h1.649V792.209z M710.486,796.305l0.799-4.096h-2.958l-0.799,4.096H710.486z"/>
	<path d="M716.045,800.317v-11.985h7.225v0.901h-6.171v4.539h5.831v0.918h-5.831v5.627H716.045z"/>
	<path d="M725.446,800.317v-11.985h7.225v0.901H726.5v4.539h5.831v0.918H726.5v5.627H725.446z"/>
	<path d="M734.847,800.317v-11.985h7.225v0.901h-6.171v4.539h5.831v0.918h-5.831v5.627H734.847z"/>
	<path d="M744.248,800.317v-11.985h7.225v0.901h-6.171v4.539h5.831v0.918h-5.831v5.627H744.248z"/>
	<path d="M753.648,800.317v-11.985h7.225v0.901h-6.171v4.539h5.831v0.918h-5.831v5.627H753.648z"/>
	<path d="M763.049,800.317v-11.985h7.225v0.901h-6.17v4.539h5.83v0.918h-5.83v5.627H763.049z"/>
</g>
<g>
	<path d="M475.838,195.617v-1.276h15.51v1.056l-13.222,9.834h13.222v1.276h-15.51v-1.078l13.2-9.812H475.838z"/>
	<path d="M491.348,190.337h-15.51v-9.57h1.166v8.228h5.874v-7.788h1.188v7.788h6.116v-8.228h1.166V190.337z"/>
	<path d="M489.961,176.181c-1.041,1.02-2.574,1.529-4.598,1.529h-9.526v-1.364h9.68c3.198,0,4.796-1.555,4.796-4.664
		c0-1.54-0.403-2.702-1.21-3.487c-0.806-0.784-2.002-1.177-3.586-1.177h-9.68v-1.342h9.526c2.024,0,3.557,0.51,4.598,1.529
		c1.042,1.02,1.562,2.512,1.562,4.477C491.523,173.662,491.003,175.161,489.961,176.181z"/>
	<path d="M491.348,157.932h-14.322v5.566h-1.188v-12.452h1.188v5.544h14.322V157.932z"/>
	<path d="M491.348,136.9v1.496l-4.972,2.618c-0.674,0.352-1.136,0.763-1.386,1.232c-0.25,0.47-0.374,1.115-0.374,1.936v3.234h6.732
		v1.364h-15.51v-6.204c0-1.628,0.37-2.882,1.111-3.762c0.741-0.88,1.822-1.32,3.245-1.32c1.203,0,2.167,0.349,2.893,1.045
		c0.726,0.697,1.17,1.691,1.331,2.981c0.118-0.381,0.319-0.722,0.605-1.023c0.286-0.3,0.664-0.575,1.133-0.825L491.348,136.9z
		 M483.45,142.664c0-2.552-1.092-3.828-3.278-3.828c-1.071,0-1.866,0.315-2.387,0.946c-0.521,0.631-0.781,1.592-0.781,2.882v4.774
		h6.446V142.664z"/>
	<path d="M491.348,122.006l-4.136,1.782v8.36l4.136,1.782v1.386l-15.51-6.732v-1.232l15.51-6.732V122.006z M486.023,131.642v-7.348
		l-8.58,3.674L486.023,131.642z"/>
	<path d="M491.348,118.046h-15.51v-1.364h14.322v-8.008h1.188V118.046z"/>
	<path d="M491.029,105.155c-0.33,0.938-0.839,1.775-1.529,2.508l-1.078-0.572c0.689-0.777,1.177-1.558,1.463-2.343
		c0.286-0.784,0.429-1.727,0.429-2.827c0-1.305-0.267-2.321-0.803-3.047c-0.535-0.726-1.287-1.089-2.255-1.089
		c-0.572,0-1.038,0.176-1.397,0.528c-0.359,0.352-0.638,0.8-0.836,1.342c-0.198,0.542-0.399,1.269-0.605,2.178
		c-0.264,1.203-0.535,2.175-0.814,2.915c-0.278,0.741-0.7,1.368-1.265,1.881s-1.324,0.77-2.277,0.77c-0.88,0-1.65-0.228-2.31-0.682
		c-0.66-0.455-1.173-1.096-1.54-1.925c-0.366-0.828-0.55-1.8-0.55-2.915c0-1.056,0.172-2.035,0.517-2.937
		c0.345-0.902,0.847-1.683,1.507-2.343l1.078,0.572c-0.66,0.733-1.14,1.474-1.441,2.222c-0.3,0.748-0.451,1.577-0.451,2.486
		c0,1.305,0.279,2.325,0.836,3.058c0.558,0.734,1.335,1.1,2.332,1.1c0.866,0,1.507-0.319,1.925-0.957
		c0.418-0.638,0.773-1.573,1.067-2.805l0.132-0.572c0.293-1.188,0.565-2.126,0.814-2.816c0.25-0.689,0.635-1.272,1.155-1.749
		s1.221-0.715,2.101-0.715c0.851,0,1.599,0.228,2.244,0.682c0.646,0.455,1.148,1.097,1.507,1.925s0.539,1.793,0.539,2.893
		C491.523,103.138,491.359,104.216,491.029,105.155z"/>
</g>
<rect x="954.834" y="96.049" fill="#BE9EE7" width="134.147" height="134.146"/>
<rect x="954.834" y="254.976" fill="#D187B4" width="134.147" height="134.146"/>
<rect x="954.834" y="415" fill="#3E8A9C" width="134.147" height="134.146"/>
<rect x="954.834" y="573.927" fill="#0859A4" width="134.147" height="134.146"/>
<g>
	<path d="M1136.475,155.013h-1.801l-0.8,4.097h2.244v0.85h-2.414l-0.612,3.162h-0.9l0.611-3.162h-2.957l-0.612,3.162h-0.884
		l0.611-3.162h-1.666v-0.85h1.836l0.799-4.097h-2.277v-0.85h2.431l0.595-3.026h0.901l-0.595,3.026h2.958l0.595-3.026h0.885
		l-0.596,3.026h1.648V155.013z M1132.973,159.11l0.799-4.097h-2.957l-0.799,4.097H1132.973z"/>
	<path d="M1146.701,157.997c0.38,0.504,0.569,1.13,0.569,1.878c0,1.054-0.343,1.859-1.028,2.414
		c-0.686,0.556-1.657,0.833-2.915,0.833h-4.795v-11.985h4.625c1.224,0,2.17,0.272,2.838,0.816c0.67,0.544,1.004,1.32,1.004,2.329
		c0,0.646-0.168,1.201-0.502,1.666s-0.802,0.81-1.402,1.037C1145.786,157.155,1146.321,157.492,1146.701,157.997z M1139.569,156.577
		h3.435c0.963,0,1.694-0.198,2.192-0.595c0.499-0.396,0.748-0.969,0.748-1.717c0-1.485-0.98-2.227-2.94-2.227h-3.435V156.577z
		 M1145.494,161.651c0.481-0.379,0.723-0.96,0.723-1.742c0-1.609-0.985-2.414-2.958-2.414h-3.689v4.726h3.689
		C1144.267,162.221,1145.012,162.031,1145.494,161.651z"/>
	<path d="M1149.922,163.122v-11.985h7.395v0.901h-6.357v4.539h6.018v0.918h-6.018v4.726h6.357v0.901H1149.922z"/>
	<path d="M1166.243,152.505c0.77,1.003,1.156,2.434,1.156,4.292c0,2.04-0.397,3.627-1.19,4.76c-0.794,1.133-1.904,1.7-3.332,1.7
		c-0.681,0-1.341-0.134-1.98-0.4c-0.641-0.266-1.216-0.643-1.726-1.13l0.441-0.833c0.578,0.499,1.128,0.864,1.649,1.097
		c0.521,0.232,1.06,0.348,1.615,0.348c1.088,0,1.938-0.487,2.55-1.462c0.611-0.975,0.918-2.334,0.918-4.08v-0.459
		c-0.261,0.703-0.697,1.255-1.309,1.658c-0.612,0.402-1.315,0.604-2.108,0.604c-0.737,0-1.392-0.159-1.964-0.476
		c-0.572-0.317-1.018-0.762-1.334-1.334c-0.317-0.572-0.477-1.232-0.477-1.98c0-0.725,0.164-1.377,0.494-1.955
		c0.328-0.578,0.781-1.031,1.359-1.36s1.229-0.493,1.955-0.493C1164.377,151.001,1165.471,151.502,1166.243,152.505z
		 M1165.103,156.866c0.544-0.533,0.816-1.218,0.816-2.057c0-0.861-0.27-1.558-0.808-2.091c-0.539-0.533-1.244-0.799-2.117-0.799
		c-0.838,0-1.51,0.264-2.014,0.791s-0.757,1.227-0.757,2.1c0,0.861,0.255,1.553,0.765,2.074c0.51,0.521,1.185,0.782,2.023,0.782
		C1163.862,157.665,1164.559,157.399,1165.103,156.866z"/>
	<path d="M1169.965,163.122v-11.985h7.395v0.901h-6.357v4.539h6.018v0.918h-6.018v4.726h6.357v0.901H1169.965z"/>
	<path d="M1179.808,163.122v-11.985h7.396v0.901h-6.358v4.539h6.019v0.918h-6.019v4.726h6.358v0.901H1179.808z"/>
	<path d="M1189.345,151.137h7.718v0.765l-5.695,11.22h-1.121l5.644-11.067h-6.545V151.137z"/>
</g>
<g>
	<path d="M1136.475,313.94h-1.801l-0.8,4.097h2.244v0.85h-2.414l-0.612,3.162h-0.9l0.611-3.162h-2.957l-0.612,3.162h-0.884
		l0.611-3.162h-1.666v-0.85h1.836l0.799-4.097h-2.277v-0.85h2.431l0.595-3.026h0.901l-0.595,3.026h2.958l0.595-3.026h0.885
		l-0.596,3.026h1.648V313.94z M1132.973,318.037l0.799-4.097h-2.957l-0.799,4.097H1132.973z"/>
	<path d="M1138.532,310.064h3.859c1.904,0,3.371,0.519,4.403,1.555c1.031,1.037,1.547,2.514,1.547,4.429
		c0,1.916-0.519,3.395-1.556,4.437c-1.037,1.043-2.502,1.564-4.395,1.564h-3.859V310.064z M1142.34,321.131
		c1.621,0,2.842-0.425,3.664-1.275c0.82-0.85,1.232-2.119,1.232-3.808c0-3.377-1.633-5.066-4.896-5.066h-2.754v10.149H1142.34z"/>
	<path d="M1155.448,321.131h2.635v0.918h-6.342v-0.918h2.652v-9.673l-2.125,1.36l-0.544-0.833l2.94-1.921h0.783V321.131z"/>
	<path d="M1168.325,317.008c0.402,0.527,0.604,1.159,0.604,1.896c0,1.02-0.365,1.819-1.096,2.397
		c-0.732,0.578-1.771,0.867-3.12,0.867s-2.389-0.289-3.12-0.867c-0.73-0.578-1.096-1.377-1.096-2.397
		c0-0.748,0.197-1.382,0.595-1.904c0.396-0.521,0.952-0.884,1.666-1.088c-0.612-0.227-1.097-0.589-1.454-1.088
		c-0.356-0.499-0.535-1.077-0.535-1.734c0-0.975,0.346-1.745,1.037-2.312c0.691-0.566,1.66-0.85,2.907-0.85s2.216,0.284,2.907,0.85
		c0.691,0.567,1.037,1.337,1.037,2.312c0,0.657-0.179,1.235-0.536,1.734c-0.356,0.499-0.841,0.861-1.453,1.088
		C1167.37,316.116,1167.922,316.481,1168.325,317.008z M1167.858,318.853c0-1.609-1.049-2.414-3.146-2.414s-3.146,0.805-3.146,2.414
		c0,1.598,1.049,2.397,3.146,2.397S1167.858,320.451,1167.858,318.853z M1162.571,314.892c0.486,0.419,1.201,0.629,2.142,0.629
		s1.654-0.21,2.142-0.629c0.487-0.419,0.731-1.003,0.731-1.751c0-0.725-0.244-1.289-0.731-1.691
		c-0.487-0.402-1.201-0.604-2.142-0.604s-1.655,0.202-2.142,0.604c-0.488,0.402-0.731,0.966-0.731,1.691
		C1161.839,313.889,1162.083,314.473,1162.571,314.892z"/>
	<path d="M1171.053,310.064h7.718v0.765l-5.694,11.22h-1.123l5.645-11.067h-6.545V310.064z"/>
	<path d="M1189.727,316.923c0.38,0.504,0.57,1.13,0.57,1.878c0,1.054-0.344,1.859-1.029,2.414c-0.686,0.556-1.657,0.833-2.916,0.833
		h-4.793v-11.985h4.623c1.225,0,2.171,0.272,2.84,0.816c0.668,0.544,1.003,1.32,1.003,2.329c0,0.646-0.167,1.201-0.501,1.666
		c-0.335,0.465-0.803,0.81-1.403,1.037C1188.812,316.082,1189.347,316.419,1189.727,316.923z M1182.596,315.504h3.434
		c0.963,0,1.693-0.198,2.193-0.595c0.498-0.396,0.748-0.969,0.748-1.717c0-1.485-0.98-2.227-2.941-2.227h-3.434V315.504z
		 M1188.52,320.578c0.482-0.379,0.723-0.96,0.723-1.742c0-1.609-0.986-2.414-2.958-2.414h-3.688v4.726h3.688
		C1187.293,321.148,1188.039,320.958,1188.52,320.578z"/>
	<path d="M1200.922,318.428v0.901h-1.854v2.72h-1.055v-2.72h-5.678v-0.799l5.865-8.466h0.867v8.364H1200.922z M1193.51,318.428
		h4.504v-6.511L1193.51,318.428z"/>
</g>
<g>
	<path d="M1136.475,473.964h-1.801l-0.8,4.097h2.244v0.85h-2.414l-0.612,3.162h-0.9l0.611-3.162h-2.957l-0.612,3.162h-0.884
		l0.611-3.162h-1.666v-0.85h1.836l0.799-4.097h-2.277v-0.85h2.431l0.595-3.026h0.901l-0.595,3.026h2.958l0.595-3.026h0.885
		l-0.596,3.026h1.648V473.964z M1132.973,478.061l0.799-4.097h-2.957l-0.799,4.097H1132.973z"/>
	<path d="M1145.248,476.956c0.374,0.499,0.562,1.128,0.562,1.887c0,1.031-0.341,1.847-1.021,2.448
		c-0.681,0.601-1.604,0.901-2.771,0.901c-0.76,0-1.488-0.133-2.186-0.399c-0.697-0.267-1.295-0.643-1.793-1.131l0.441-0.833
		c1.077,0.963,2.25,1.445,3.52,1.445c0.884,0,1.564-0.21,2.04-0.629c0.476-0.419,0.714-1.02,0.714-1.802
		c0-1.598-0.986-2.397-2.958-2.397h-1.274v-0.918h1.02c0.94,0,1.668-0.218,2.185-0.655c0.515-0.436,0.773-1.057,0.773-1.861
		c0-0.68-0.21-1.207-0.63-1.581c-0.418-0.374-1.002-0.561-1.75-0.561c-1.201,0-2.352,0.482-3.451,1.445l-0.441-0.833
		c0.486-0.476,1.072-0.85,1.759-1.122c0.686-0.272,1.402-0.408,2.15-0.408c1.042,0,1.872,0.27,2.491,0.808
		c0.617,0.539,0.926,1.272,0.926,2.202c0,0.691-0.17,1.3-0.51,1.827c-0.34,0.527-0.811,0.904-1.411,1.131
		C1144.334,476.112,1144.874,476.458,1145.248,476.956z"/>
	<path d="M1148.733,482.073v-11.985h7.395v0.901h-6.357v4.539h6.018v0.918h-6.018v4.726h6.357v0.901H1148.733z"/>
	<path d="M1165.741,477.033c0.402,0.527,0.604,1.159,0.604,1.896c0,1.02-0.365,1.819-1.096,2.397
		c-0.732,0.578-1.771,0.867-3.12,0.867s-2.389-0.289-3.12-0.867c-0.73-0.578-1.096-1.377-1.096-2.397
		c0-0.748,0.197-1.382,0.595-1.904c0.396-0.521,0.952-0.884,1.666-1.088c-0.612-0.227-1.097-0.589-1.454-1.088
		c-0.356-0.499-0.535-1.077-0.535-1.734c0-0.975,0.346-1.745,1.037-2.312c0.691-0.566,1.66-0.85,2.907-0.85s2.216,0.284,2.907,0.85
		c0.691,0.567,1.037,1.337,1.037,2.312c0,0.657-0.179,1.235-0.536,1.734c-0.356,0.499-0.841,0.861-1.453,1.088
		C1164.786,476.14,1165.338,476.506,1165.741,477.033z M1165.274,478.877c0-1.609-1.049-2.414-3.146-2.414s-3.146,0.805-3.146,2.414
		c0,1.598,1.049,2.397,3.146,2.397S1165.274,480.475,1165.274,478.877z M1159.987,474.916c0.486,0.419,1.201,0.629,2.142,0.629
		s1.654-0.21,2.142-0.629c0.487-0.419,0.731-1.003,0.731-1.751c0-0.725-0.244-1.289-0.731-1.691
		c-0.487-0.402-1.201-0.604-2.142-0.604s-1.655,0.202-2.142,0.604c-0.488,0.402-0.731,0.966-0.731,1.691
		C1159.255,473.913,1159.499,474.497,1159.987,474.916z"/>
	<path d="M1177.956,482.073l-1.377-3.196h-6.461l-1.377,3.196h-1.07l5.201-11.985h0.953l5.201,11.985H1177.956z M1170.508,477.959
		h5.679l-2.839-6.63L1170.508,477.959z"/>
	<path d="M1187.492,471.457c0.771,1.003,1.156,2.434,1.156,4.292c0,2.04-0.397,3.627-1.19,4.76s-1.904,1.7-3.332,1.7
		c-0.68,0-1.34-0.134-1.98-0.4s-1.215-0.643-1.725-1.13l0.441-0.833c0.578,0.499,1.127,0.864,1.648,1.097s1.061,0.348,1.615,0.348
		c1.088,0,1.938-0.487,2.551-1.462c0.611-0.975,0.918-2.334,0.918-4.08v-0.459c-0.262,0.703-0.697,1.255-1.31,1.658
		s-1.315,0.604-2.108,0.604c-0.736,0-1.391-0.159-1.963-0.476c-0.572-0.317-1.018-0.762-1.334-1.334
		c-0.318-0.572-0.477-1.232-0.477-1.98c0-0.725,0.164-1.377,0.493-1.955c0.328-0.578,0.782-1.031,1.36-1.36s1.229-0.493,1.955-0.493
		C1185.627,469.952,1186.721,470.454,1187.492,471.457z M1186.352,475.817c0.545-0.533,0.816-1.218,0.816-2.057
		c0-0.861-0.27-1.558-0.807-2.091c-0.539-0.533-1.244-0.799-2.117-0.799c-0.839,0-1.51,0.264-2.014,0.791
		c-0.505,0.527-0.758,1.227-0.758,2.1c0,0.861,0.256,1.553,0.766,2.074c0.51,0.521,1.184,0.782,2.023,0.782
		C1185.112,476.616,1185.809,476.35,1186.352,475.817z"/>
	<path d="M1193.305,481.47c-0.816-0.493-1.445-1.201-1.887-2.125c-0.441-0.923-0.663-2.015-0.663-3.272s0.222-2.349,0.663-3.272
		s1.07-1.629,1.887-2.117c0.816-0.487,1.779-0.731,2.891-0.731c0.826,0,1.586,0.13,2.277,0.391s1.293,0.652,1.803,1.173
		l-0.442,0.833c-0.567-0.521-1.136-0.895-1.708-1.122c-0.572-0.227-1.211-0.34-1.913-0.34c-1.383,0-2.456,0.454-3.222,1.36
		c-0.765,0.907-1.147,2.182-1.147,3.825c0,1.655,0.38,2.936,1.14,3.842c0.759,0.907,1.836,1.36,3.229,1.36
		c0.702,0,1.341-0.113,1.913-0.34c0.572-0.227,1.141-0.601,1.708-1.122l0.442,0.833c-0.51,0.521-1.111,0.913-1.803,1.173
		c-0.691,0.26-1.451,0.391-2.277,0.391C1195.084,482.209,1194.122,481.963,1193.305,481.47z"/>
</g>
<g>
	<path d="M1136.475,632.891h-1.801l-0.8,4.098h2.244v0.85h-2.414l-0.612,3.162h-0.9l0.611-3.162h-2.957l-0.612,3.162h-0.884
		l0.611-3.162h-1.666v-0.85h1.836l0.799-4.098h-2.277v-0.85h2.431l0.595-3.025h0.901l-0.595,3.025h2.958l0.595-3.025h0.885
		l-0.596,3.025h1.648V632.891z M1132.973,636.988l0.799-4.098h-2.957l-0.799,4.098H1132.973z"/>
	<path d="M1139.008,639.58c-0.703-1.037-1.054-2.559-1.054-4.564c0-2.017,0.351-3.544,1.054-4.581s1.729-1.556,3.077-1.556
		s2.374,0.519,3.077,1.556c0.702,1.037,1.054,2.559,1.054,4.564s-0.352,3.53-1.054,4.573c-0.703,1.043-1.729,1.564-3.077,1.564
		S1139.711,640.617,1139.008,639.58z M1144.389,638.935c0.492-0.845,0.739-2.156,0.739-3.936s-0.247-3.089-0.739-3.927
		c-0.493-0.839-1.262-1.258-2.304-1.258c-1.043,0-1.811,0.419-2.304,1.258c-0.492,0.838-0.739,2.147-0.739,3.927
		c0,1.769,0.249,3.077,0.748,3.927s1.263,1.275,2.295,1.275C1143.127,640.201,1143.896,639.779,1144.389,638.935z"/>
	<path d="M1155.898,635.959c0.402,0.527,0.604,1.16,0.604,1.896c0,1.02-0.365,1.818-1.097,2.396
		c-0.73,0.578-1.771,0.867-3.119,0.867c-1.35,0-2.389-0.289-3.119-0.867c-0.731-0.578-1.098-1.377-1.098-2.396
		c0-0.748,0.199-1.383,0.596-1.904s0.952-0.885,1.666-1.088c-0.611-0.227-1.097-0.59-1.453-1.088
		c-0.357-0.499-0.536-1.077-0.536-1.734c0-0.975,0.346-1.745,1.037-2.313c0.691-0.566,1.66-0.85,2.907-0.85
		c1.246,0,2.215,0.283,2.906,0.85c0.691,0.567,1.037,1.338,1.037,2.313c0,0.657-0.178,1.235-0.535,1.734
		c-0.357,0.498-0.842,0.861-1.453,1.088C1154.944,635.066,1155.496,635.433,1155.898,635.959z M1155.43,637.805
		c0-1.609-1.048-2.414-3.145-2.414c-2.098,0-3.145,0.805-3.145,2.414c0,1.598,1.047,2.396,3.145,2.396
		C1154.382,640.201,1155.43,639.402,1155.43,637.805z M1150.143,633.843c0.488,0.419,1.201,0.63,2.143,0.63
		c0.94,0,1.654-0.211,2.143-0.63c0.486-0.419,0.73-1.003,0.73-1.751c0-0.725-0.244-1.289-0.73-1.691
		c-0.488-0.402-1.202-0.604-2.143-0.604c-0.941,0-1.654,0.201-2.143,0.604c-0.486,0.402-0.73,0.967-0.73,1.691
		C1149.413,632.84,1149.657,633.424,1150.143,633.843z"/>
	<path d="M1164.917,634.029c0.566,0.318,1,0.76,1.301,1.326c0.3,0.567,0.45,1.225,0.45,1.973c0,0.736-0.161,1.391-0.485,1.963
		c-0.322,0.572-0.781,1.021-1.377,1.344c-0.594,0.322-1.283,0.484-2.064,0.484c-0.715,0-1.42-0.137-2.117-0.408
		s-1.289-0.646-1.776-1.122l0.442-0.833c1.099,0.963,2.25,1.445,3.451,1.445c0.883,0,1.58-0.258,2.09-0.773
		c0.511-0.516,0.766-1.216,0.766-2.1c0-0.85-0.252-1.539-0.756-2.065c-0.505-0.527-1.165-0.79-1.98-0.79
		c-0.624,0-1.171,0.124-1.641,0.373c-0.471,0.25-0.887,0.641-1.25,1.174h-0.799v-7.004h7.038v0.9h-6.001v4.777
		c0.328-0.363,0.725-0.644,1.189-0.842s0.975-0.297,1.53-0.297C1163.686,633.555,1164.35,633.713,1164.917,634.029z"/>
	<path d="M1175.609,630.383c0.771,1.004,1.156,2.435,1.156,4.293c0,2.04-0.397,3.627-1.19,4.76
		c-0.793,1.134-1.904,1.701-3.332,1.701c-0.68,0-1.34-0.135-1.98-0.4s-1.215-0.643-1.725-1.131l0.441-0.832
		c0.578,0.498,1.127,0.863,1.648,1.096s1.061,0.349,1.615,0.349c1.088,0,1.938-0.487,2.551-1.462
		c0.611-0.975,0.918-2.334,0.918-4.08v-0.459c-0.262,0.703-0.697,1.256-1.31,1.658s-1.315,0.604-2.108,0.604
		c-0.736,0-1.391-0.159-1.963-0.477c-0.572-0.316-1.018-0.762-1.334-1.334c-0.318-0.572-0.477-1.232-0.477-1.98
		c0-0.726,0.164-1.377,0.493-1.955c0.328-0.578,0.782-1.031,1.36-1.36s1.229-0.493,1.955-0.493
		C1173.745,628.879,1174.838,629.381,1175.609,630.383z M1174.469,634.744c0.545-0.533,0.816-1.219,0.816-2.057
		c0-0.861-0.27-1.559-0.807-2.092c-0.539-0.532-1.244-0.799-2.117-0.799c-0.839,0-1.51,0.264-2.014,0.791
		c-0.505,0.526-0.758,1.227-0.758,2.1c0,0.861,0.256,1.553,0.766,2.074c0.51,0.521,1.184,0.781,2.023,0.781
		C1173.229,635.543,1173.926,635.277,1174.469,634.744z"/>
	<path d="M1188.512,641l-1.377-3.195h-6.461l-1.377,3.195h-1.07l5.201-11.984h0.953l5.201,11.984H1188.512z M1181.065,636.887h5.679
		l-2.839-6.631L1181.065,636.887z"/>
	<path d="M1199.544,637.379v0.9h-1.853V641h-1.055v-2.721h-5.678v-0.799l5.865-8.465h0.867v8.363H1199.544z M1192.132,637.379h4.505
		v-6.511L1192.132,637.379z"/>
</g>
<rect x="954.834" y="733.244" fill="#75579A" width="134.147" height="134.146"/>
<rect x="954.834" y="892.171" fill="#994D7B" width="134.147" height="134.146"/>
<g>
	<path d="M1136.475,792.209h-1.801l-0.8,4.096h2.244v0.851h-2.414l-0.612,3.162h-0.9l0.611-3.162h-2.957l-0.612,3.162h-0.884
		l0.611-3.162h-1.666v-0.851h1.836l0.799-4.096h-2.277v-0.851h2.431l0.595-3.026h0.901l-0.595,3.026h2.958l0.595-3.026h0.885
		l-0.596,3.026h1.648V792.209z M1132.973,796.305l0.799-4.096h-2.957l-0.799,4.096H1132.973z"/>
	<path d="M1138.227,788.332h7.717v0.766l-5.694,11.22h-1.122l5.645-11.067h-6.545V788.332z"/>
	<path d="M1154.716,793.348c0.567,0.317,1.001,0.76,1.301,1.326s0.45,1.224,0.45,1.972c0,0.737-0.161,1.392-0.484,1.964
		c-0.322,0.572-0.781,1.02-1.377,1.342c-0.595,0.324-1.283,0.485-2.065,0.485c-0.714,0-1.419-0.136-2.116-0.408
		s-1.289-0.646-1.777-1.122l0.442-0.833c1.099,0.964,2.25,1.445,3.451,1.445c0.884,0,1.581-0.258,2.091-0.773s0.766-1.216,0.766-2.1
		c0-0.851-0.253-1.538-0.757-2.065c-0.505-0.527-1.165-0.791-1.98-0.791c-0.624,0-1.171,0.125-1.641,0.375
		c-0.47,0.248-0.887,0.64-1.249,1.172h-0.799v-7.004h7.037v0.901h-6.001v4.776c0.329-0.361,0.726-0.643,1.19-0.841
		s0.975-0.298,1.529-0.298C1153.487,792.871,1154.15,793.03,1154.716,793.348z"/>
	<path d="M1164.917,793.348c0.566,0.317,1,0.76,1.301,1.326c0.3,0.566,0.45,1.224,0.45,1.972c0,0.737-0.161,1.392-0.485,1.964
		c-0.322,0.572-0.781,1.02-1.377,1.342c-0.594,0.324-1.283,0.485-2.064,0.485c-0.715,0-1.42-0.136-2.117-0.408
		s-1.289-0.646-1.776-1.122l0.442-0.833c1.099,0.964,2.25,1.445,3.451,1.445c0.883,0,1.58-0.258,2.09-0.773
		c0.511-0.516,0.766-1.216,0.766-2.1c0-0.851-0.252-1.538-0.756-2.065c-0.505-0.527-1.165-0.791-1.98-0.791
		c-0.624,0-1.171,0.125-1.641,0.375c-0.471,0.248-0.887,0.64-1.25,1.172h-0.799v-7.004h7.038v0.901h-6.001v4.776
		c0.328-0.361,0.725-0.643,1.189-0.841s0.975-0.298,1.53-0.298C1163.686,792.871,1164.35,793.03,1164.917,793.348z"/>
	<path d="M1168.827,788.332h7.717v0.766l-5.694,11.22h-1.122l5.645-11.067h-6.545V788.332z"/>
	<path d="M1185.809,789.701c0.77,1.003,1.156,2.434,1.156,4.292c0,2.04-0.397,3.627-1.19,4.761
		c-0.794,1.133-1.904,1.699-3.332,1.699c-0.681,0-1.341-0.133-1.98-0.399c-0.641-0.267-1.216-0.644-1.726-1.13l0.441-0.834
		c0.578,0.5,1.128,0.865,1.649,1.098c0.521,0.232,1.06,0.348,1.615,0.348c1.088,0,1.938-0.486,2.55-1.462
		c0.611-0.975,0.918-2.335,0.918-4.08v-0.459c-0.261,0.703-0.697,1.255-1.309,1.657c-0.612,0.402-1.315,0.604-2.108,0.604
		c-0.737,0-1.392-0.158-1.964-0.476s-1.018-0.763-1.334-1.335c-0.317-0.572-0.477-1.232-0.477-1.98c0-0.725,0.164-1.377,0.494-1.955
		c0.328-0.578,0.781-1.031,1.359-1.359s1.229-0.493,1.955-0.493C1183.944,788.196,1185.038,788.697,1185.809,789.701z
		 M1184.669,794.062c0.544-0.532,0.816-1.218,0.816-2.058c0-0.861-0.27-1.558-0.808-2.09c-0.539-0.533-1.244-0.8-2.117-0.8
		c-0.838,0-1.51,0.264-2.014,0.79c-0.504,0.527-0.757,1.228-0.757,2.1c0,0.861,0.255,1.553,0.765,2.074s1.185,0.782,2.023,0.782
		C1183.428,794.86,1184.125,794.594,1184.669,794.062z"/>
	<path d="M1198.711,800.317l-1.377-3.196h-6.459l-1.377,3.196h-1.072l5.203-11.985h0.951l5.202,11.985H1198.711z M1191.266,796.203
		h5.678l-2.839-6.63L1191.266,796.203z"/>
</g>
<g>
	<path d="M1136.475,951.135h-1.801l-0.8,4.098h2.244v0.85h-2.414l-0.612,3.162h-0.9l0.611-3.162h-2.957l-0.612,3.162h-0.884
		l0.611-3.162h-1.666v-0.85h1.836l0.799-4.098h-2.277v-0.85h2.431l0.595-3.025h0.901l-0.595,3.025h2.958l0.595-3.025h0.885
		l-0.596,3.025h1.648V951.135z M1132.973,955.232l0.799-4.098h-2.957l-0.799,4.098H1132.973z"/>
	<path d="M1145.009,948.627c0.771,1.004,1.156,2.435,1.156,4.293c0,2.04-0.397,3.627-1.19,4.76
		c-0.793,1.134-1.904,1.701-3.332,1.701c-0.68,0-1.34-0.135-1.98-0.4s-1.215-0.643-1.725-1.131l0.441-0.832
		c0.578,0.498,1.127,0.863,1.648,1.096s1.061,0.349,1.615,0.349c1.088,0,1.938-0.487,2.551-1.462
		c0.611-0.975,0.918-2.334,0.918-4.08v-0.459c-0.262,0.703-0.697,1.256-1.31,1.658s-1.315,0.604-2.108,0.604
		c-0.736,0-1.391-0.159-1.963-0.477c-0.572-0.316-1.018-0.762-1.334-1.334c-0.318-0.572-0.477-1.232-0.477-1.98
		c0-0.726,0.164-1.377,0.493-1.955c0.328-0.578,0.782-1.031,1.36-1.36s1.229-0.493,1.955-0.493
		C1143.145,947.123,1144.239,947.625,1145.009,948.627z M1143.87,952.988c0.545-0.533,0.816-1.219,0.816-2.057
		c0-0.861-0.27-1.559-0.807-2.092c-0.539-0.532-1.244-0.799-2.117-0.799c-0.839,0-1.51,0.264-2.014,0.791
		c-0.505,0.526-0.758,1.227-0.758,2.1c0,0.861,0.256,1.553,0.766,2.074c0.51,0.521,1.184,0.781,2.023,0.781
		C1142.629,953.787,1143.327,953.521,1143.87,952.988z"/>
	<path d="M1155.209,948.627c0.771,1.004,1.156,2.435,1.156,4.293c0,2.04-0.396,3.627-1.189,4.76
		c-0.794,1.134-1.904,1.701-3.332,1.701c-0.681,0-1.341-0.135-1.98-0.4c-0.641-0.266-1.217-0.643-1.727-1.131l0.442-0.832
		c0.578,0.498,1.128,0.863,1.649,1.096c0.521,0.232,1.059,0.349,1.615,0.349c1.088,0,1.938-0.487,2.549-1.462
		c0.612-0.975,0.918-2.334,0.918-4.08v-0.459c-0.26,0.703-0.696,1.256-1.309,1.658c-0.611,0.402-1.314,0.604-2.107,0.604
		c-0.737,0-1.392-0.159-1.964-0.477c-0.573-0.316-1.018-0.762-1.335-1.334c-0.316-0.572-0.476-1.232-0.476-1.98
		c0-0.726,0.164-1.377,0.493-1.955c0.328-0.578,0.781-1.031,1.359-1.36s1.23-0.493,1.955-0.493
		C1153.345,947.123,1154.438,947.625,1155.209,948.627z M1154.071,952.988c0.544-0.533,0.816-1.219,0.816-2.057
		c0-0.861-0.27-1.559-0.809-2.092c-0.538-0.532-1.244-0.799-2.116-0.799c-0.839,0-1.511,0.264-2.015,0.791
		c-0.504,0.526-0.756,1.227-0.756,2.1c0,0.861,0.255,1.553,0.765,2.074c0.51,0.521,1.185,0.781,2.022,0.781
		C1152.83,953.787,1153.526,953.521,1154.071,952.988z"/>
	<path d="M1166.905,955.623v0.9h-1.853v2.721h-1.054v-2.721h-5.678v-0.799l5.864-8.465h0.867v8.363H1166.905z M1159.493,955.623
		h4.506v-6.511L1159.493,955.623z"/>
	<path d="M1169.131,947.26h3.859c1.904,0,3.371,0.518,4.403,1.555c1.031,1.037,1.547,2.514,1.547,4.429s-0.519,3.395-1.556,4.437
		c-1.037,1.043-2.502,1.564-4.395,1.564h-3.859V947.26z M1172.94,958.326c1.621,0,2.842-0.425,3.664-1.275
		c0.82-0.85,1.232-2.119,1.232-3.808c0-3.377-1.633-5.065-4.896-5.065h-2.754v10.148H1172.94z"/>
	<path d="M1181.252,947.26h7.719v0.764l-5.695,11.221h-1.122l5.644-11.066h-6.545V947.26z"/>
	<path d="M1199.926,954.119c0.381,0.504,0.57,1.13,0.57,1.878c0,1.054-0.344,1.858-1.029,2.414s-1.656,0.833-2.915,0.833h-4.794
		V947.26h4.624c1.224,0,2.171,0.271,2.839,0.815c0.669,0.544,1.004,1.32,1.004,2.329c0,0.646-0.168,1.201-0.502,1.666
		s-0.803,0.811-1.402,1.037C1199.012,953.277,1199.547,953.614,1199.926,954.119z M1192.795,952.699h3.434
		c0.963,0,1.694-0.198,2.193-0.596c0.498-0.396,0.748-0.969,0.748-1.717c0-1.484-0.98-2.227-2.941-2.227h-3.434V952.699z
		 M1198.719,957.773c0.482-0.379,0.723-0.961,0.723-1.742c0-1.609-0.985-2.414-2.957-2.414h-3.689v4.727h3.689
		C1197.493,958.344,1198.239,958.153,1198.719,957.773z"/>
</g>
<g>
	<path d="M913.834,181.627l-4.136,1.782v8.36l4.136,1.782v1.386l-15.51-6.732v-1.232l15.51-6.732V181.627z M908.51,191.263v-7.348
		l-8.579,3.674L908.51,191.263z"/>
	<path d="M913.054,175.511c-0.638,1.056-1.555,1.87-2.75,2.442c-1.195,0.572-2.607,0.858-4.235,0.858s-3.039-0.286-4.234-0.858
		c-1.195-0.572-2.109-1.386-2.74-2.442c-0.63-1.056-0.945-2.302-0.945-3.74c0-1.07,0.169-2.053,0.506-2.948
		c0.338-0.895,0.844-1.672,1.518-2.332l1.078,0.572c-0.674,0.733-1.158,1.47-1.451,2.211s-0.44,1.565-0.44,2.475
		c0,1.79,0.587,3.179,1.761,4.169c1.173,0.99,2.822,1.485,4.949,1.485c2.142,0,3.799-0.491,4.973-1.474
		c1.173-0.982,1.76-2.376,1.76-4.18c0-0.909-0.146-1.734-0.44-2.475c-0.293-0.741-0.776-1.478-1.452-2.211l1.078-0.572
		c0.675,0.66,1.182,1.438,1.518,2.332c0.338,0.895,0.506,1.877,0.506,2.948C914.01,173.209,913.692,174.455,913.054,175.511z"/>
	<path d="M913.054,160.837c-0.638,1.056-1.555,1.87-2.75,2.442c-1.195,0.572-2.607,0.858-4.235,0.858s-3.039-0.286-4.234-0.858
		c-1.195-0.572-2.109-1.386-2.74-2.442c-0.63-1.056-0.945-2.302-0.945-3.74c0-1.07,0.169-2.053,0.506-2.948
		c0.338-0.895,0.844-1.672,1.518-2.332l1.078,0.572c-0.674,0.733-1.158,1.47-1.451,2.211s-0.44,1.565-0.44,2.475
		c0,1.79,0.587,3.179,1.761,4.169c1.173,0.99,2.822,1.485,4.949,1.485c2.142,0,3.799-0.491,4.973-1.474
		c1.173-0.982,1.76-2.376,1.76-4.18c0-0.909-0.146-1.734-0.44-2.475c-0.293-0.741-0.776-1.478-1.452-2.211l1.078-0.572
		c0.675,0.66,1.182,1.438,1.518,2.332c0.338,0.895,0.506,1.877,0.506,2.948C914.01,158.535,913.692,159.781,913.054,160.837z"/>
	<path d="M913.834,148.65h-15.51v-9.57h1.166v8.228h5.874v-7.788h1.188v7.788h6.115v-8.228h1.166V148.65z"/>
	<path d="M898.325,125.022v-1.276h15.51v1.056l-13.222,9.834h13.222v1.276h-15.51v-1.078l13.2-9.812H898.325z"/>
	<path d="M913.834,115.914h-14.321v5.566h-1.188v-12.452h1.188v5.544h14.321V115.914z"/>
	<path d="M913.516,105.729c-0.33,0.938-0.84,1.775-1.529,2.508l-1.078-0.572c0.689-0.777,1.178-1.558,1.463-2.343
		c0.287-0.784,0.43-1.727,0.43-2.827c0-1.305-0.268-2.321-0.803-3.047c-0.535-0.726-1.287-1.089-2.256-1.089
		c-0.572,0-1.037,0.176-1.396,0.528c-0.359,0.352-0.639,0.8-0.836,1.342c-0.198,0.542-0.4,1.269-0.605,2.178
		c-0.264,1.203-0.535,2.175-0.814,2.915c-0.277,0.741-0.699,1.368-1.264,1.881s-1.324,0.77-2.277,0.77
		c-0.881,0-1.65-0.228-2.311-0.682s-1.173-1.096-1.54-1.925c-0.366-0.828-0.55-1.8-0.55-2.915c0-1.056,0.172-2.035,0.518-2.937
		c0.344-0.902,0.847-1.683,1.506-2.343l1.078,0.572c-0.66,0.733-1.14,1.474-1.44,2.222c-0.3,0.748-0.451,1.577-0.451,2.486
		c0,1.305,0.278,2.325,0.836,3.058c0.558,0.734,1.335,1.1,2.332,1.1c0.866,0,1.507-0.319,1.925-0.957
		c0.418-0.638,0.773-1.573,1.067-2.805l0.132-0.572c0.293-1.188,0.564-2.126,0.814-2.816c0.249-0.689,0.635-1.272,1.154-1.749
		c0.521-0.477,1.221-0.715,2.102-0.715c0.851,0,1.599,0.228,2.244,0.682c0.645,0.455,1.147,1.097,1.507,1.925
		s0.538,1.793,0.538,2.893C914.01,103.712,913.846,104.79,913.516,105.729z"/>
</g>
</svg>
