<?xml version="1.0" encoding="utf-8"?>
<!-- Generator: Adobe Illustrator 26.3.1, SVG Export Plug-In . SVG Version: 6.00 Build 0)  -->
<svg version="1.1" id="Layer_1" xmlns="http://www.w3.org/2000/svg" xmlns:xlink="http://www.w3.org/1999/xlink" x="0px" y="0px"
	 viewBox="0 0 219.5 80" style="enable-background:new 0 0 219.5 80;" xml:space="preserve">
<style type="text/css">
	.st0{fill:#46C182;}
	.st1{fill:none;stroke:#000000;stroke-width:4;stroke-miterlimit:10;}
</style>
<path class="st0" d="M185.5,15.3h-149c-15.1,0-27.3,12.2-27.3,27.3C9.2,57.8,21.4,70,36.5,70h149c15.1,0,27.3-12.2,27.3-27.3
	C212.8,27.6,200.6,15.3,185.5,15.3z"/>
<g>
	<line class="st1" x1="28.4" y1="36.8" x2="38.2" y2="46.6"/>
	<line class="st1" x1="46.3" y1="36.8" x2="36.5" y2="46.6"/>
	<rect x="36.8" y="47.3" transform="matrix(0.7072 -0.7071 0.7071 0.7072 -22.7626 40.5068)" width="1.4" height="0.9"/>
</g>
<g>
	<path d="M58.3,35.2h5.2c1.5,0,2.7,0.3,3.8,0.8c1.1,0.5,1.9,1.3,2.4,2.3c0.6,1,0.8,2.2,0.8,3.6c0,1.4-0.3,2.6-0.8,3.6
		c-0.6,1-1.4,1.8-2.4,2.3c-1.1,0.5-2.3,0.8-3.8,0.8h-5.2V35.2z M63.3,46.2c2.8,0,4.3-1.4,4.3-4.3c0-2.9-1.4-4.3-4.3-4.3h-2v8.6H63.3
		z"/>
	<path d="M74.5,48.1c-0.7-0.4-1.3-1-1.7-1.7c-0.4-0.7-0.6-1.6-0.6-2.6c0-1,0.2-1.8,0.6-2.6c0.4-0.7,1-1.3,1.7-1.7
		c0.7-0.4,1.6-0.6,2.6-0.6c1,0,1.9,0.2,2.6,0.6c0.7,0.4,1.3,1,1.7,1.7c0.4,0.7,0.6,1.6,0.6,2.6c0,1-0.2,1.8-0.6,2.6
		c-0.4,0.7-1,1.3-1.7,1.7c-0.7,0.4-1.6,0.6-2.6,0.6C76.1,48.7,75.2,48.5,74.5,48.1z M79.2,43.8c0-0.9-0.2-1.6-0.5-2
		c-0.4-0.4-0.9-0.7-1.5-0.7c-1.4,0-2.1,0.9-2.1,2.7c0,1.8,0.7,2.7,2.1,2.7C78.5,46.5,79.2,45.6,79.2,43.8z"/>
	<path d="M96.1,39.2h2.8l-3.8,9.3h-2.4l-2.1-5.3l-2,5.3h-2.4l-3.8-9.3h2.9l2.2,5.9l2.2-5.9h1.9l2.2,6L96.1,39.2z"/>
	<path d="M108.3,40c0.5,0.7,0.8,1.6,0.8,3v5.6h-2.9v-5.5c0-0.6-0.1-1.1-0.4-1.4c-0.2-0.3-0.6-0.4-1.1-0.4c-0.6,0-1.1,0.2-1.4,0.6
		c-0.4,0.4-0.5,0.9-0.5,1.5v5.2H100v-9.3h2.8v1.3c0.3-0.5,0.8-0.9,1.3-1.2c0.5-0.3,1.1-0.4,1.8-0.4C106.9,39,107.8,39.3,108.3,40z"
		/>
	<path d="M111.3,48.6V35.2h2.9v13.4H111.3z"/>
	<path d="M118.2,48.1c-0.7-0.4-1.3-1-1.7-1.7c-0.4-0.7-0.6-1.6-0.6-2.6c0-1,0.2-1.8,0.6-2.6c0.4-0.7,1-1.3,1.7-1.7s1.6-0.6,2.6-0.6
		c1,0,1.9,0.2,2.6,0.6c0.7,0.4,1.3,1,1.7,1.7c0.4,0.7,0.6,1.6,0.6,2.6c0,1-0.2,1.8-0.6,2.6c-0.4,0.7-1,1.3-1.7,1.7
		c-0.7,0.4-1.6,0.6-2.6,0.6C119.8,48.7,119,48.5,118.2,48.1z M122.9,43.8c0-0.9-0.2-1.6-0.5-2c-0.4-0.4-0.9-0.7-1.5-0.7
		c-1.4,0-2.1,0.9-2.1,2.7c0,1.8,0.7,2.7,2.1,2.7C122.2,46.5,122.9,45.6,122.9,43.8z"/>
	<path d="M134.7,40c0.7,0.7,1,1.7,1,3.1v5.5H133v-1.4c-0.2,0.5-0.5,0.9-0.9,1.1c-0.4,0.3-1,0.4-1.6,0.4c-0.6,0-1.2-0.1-1.7-0.4
		c-0.5-0.3-0.9-0.6-1.2-1.1c-0.3-0.5-0.4-1-0.4-1.5c0-0.7,0.2-1.2,0.5-1.6c0.3-0.4,0.9-0.7,1.7-0.9c0.8-0.2,1.8-0.3,3.2-0.3h0.5
		v-0.3c0-0.6-0.1-0.9-0.4-1.2c-0.2-0.2-0.7-0.3-1.3-0.3c-0.5,0-1,0.1-1.5,0.2c-0.6,0.2-1.1,0.4-1.6,0.7l-0.8-1.9
		c0.5-0.3,1.2-0.6,2-0.8c0.8-0.2,1.5-0.3,2.2-0.3C133,39,134.1,39.3,134.7,40z M132.5,46.2c0.3-0.4,0.5-0.9,0.5-1.5v-0.3h-0.3
		c-1,0-1.7,0.1-2.2,0.2c-0.4,0.2-0.6,0.5-0.6,0.9c0,0.3,0.1,0.6,0.4,0.9c0.2,0.2,0.5,0.3,0.9,0.3C131.7,46.7,132.1,46.5,132.5,46.2z
		"/>
	<path d="M147.3,35.2v13.4h-2.8v-1.4c-0.3,0.5-0.7,0.9-1.2,1.1c-0.5,0.3-1.1,0.4-1.7,0.4c-0.8,0-1.5-0.2-2.1-0.6
		c-0.6-0.4-1.1-1-1.5-1.7c-0.3-0.7-0.5-1.6-0.5-2.6c0-1,0.2-1.8,0.5-2.5c0.3-0.7,0.8-1.3,1.5-1.7c0.6-0.4,1.3-0.6,2.1-0.6
		c0.6,0,1.2,0.1,1.7,0.4c0.5,0.3,0.9,0.6,1.2,1.1v-5.4H147.3z M143.9,45.8c0.4-0.5,0.5-1.1,0.5-2c0-0.9-0.2-1.5-0.5-2
		c-0.4-0.5-0.9-0.7-1.5-0.7c-0.7,0-1.2,0.2-1.6,0.7c-0.4,0.4-0.6,1.1-0.6,1.9c0,0.9,0.2,1.5,0.6,2c0.4,0.5,0.9,0.7,1.6,0.7
		C143.1,46.5,143.6,46.3,143.9,45.8z"/>
	<path d="M155.1,35.2h6.2c1.5,0,2.6,0.4,3.4,1.1c0.8,0.7,1.2,1.8,1.2,3.1c0,1.3-0.4,2.3-1.2,3.1c-0.8,0.7-1.9,1.1-3.4,1.1H158v5h-3
		V35.2z M160.8,41.3c1.5,0,2.2-0.6,2.2-1.9c0-0.7-0.2-1.1-0.6-1.5c-0.4-0.3-0.9-0.5-1.7-0.5H158v3.9H160.8z"/>
	<path d="M167.8,35.2h5.2c1.5,0,2.7,0.3,3.8,0.8c1.1,0.5,1.9,1.3,2.4,2.3c0.6,1,0.8,2.2,0.8,3.6c0,1.4-0.3,2.6-0.8,3.6
		c-0.6,1-1.4,1.8-2.4,2.3c-1.1,0.5-2.3,0.8-3.8,0.8h-5.2V35.2z M172.8,46.2c2.8,0,4.3-1.4,4.3-4.3c0-2.9-1.4-4.3-4.3-4.3h-2v8.6
		H172.8z"/>
	<path d="M182.3,48.6V35.2h9v2.3h-6.1v3.1h5.7v2.3h-5.7v5.6H182.3z"/>
</g>
</svg>
