<?xml version="1.0" encoding="utf-8"?>
<!-- Generator: Adobe Illustrator 26.3.1, SVG Export Plug-In . SVG Version: 6.00 Build 0)  -->
<svg version="1.1" id="Layer_1" xmlns="http://www.w3.org/2000/svg" xmlns:xlink="http://www.w3.org/1999/xlink" x="0px" y="0px"
	 viewBox="0 0 219.5 80" style="enable-background:new 0 0 219.5 80;" xml:space="preserve">
<style type="text/css">
	.st0{fill:#14D774;}
</style>
<path class="st0" d="M188,15.3H39c-15.1,0-27.3,12.2-27.3,27.3C11.7,57.8,23.9,70,39,70h149c15.1,0,27.3-12.2,27.3-27.3
	C215.3,27.6,203.1,15.3,188,15.3z"/>
<g>
	<path d="M50.6,39.5c0.5,0.6,0.8,1.6,0.8,3v5.6h-2.9v-5.5c0-0.6-0.1-1.1-0.3-1.4s-0.5-0.4-1-0.4c-0.5,0-1,0.2-1.3,0.6
		c-0.3,0.4-0.5,0.9-0.5,1.6v5.1h-2.9v-5.5c0-0.6-0.1-1.1-0.3-1.4s-0.5-0.4-1-0.4c-0.5,0-1,0.2-1.3,0.6c-0.3,0.4-0.5,0.9-0.5,1.6v5.1
		h-2.9v-9.3h2.8V40c0.3-0.5,0.7-0.8,1.2-1.1c0.5-0.3,1-0.4,1.7-0.4c1.4,0,2.3,0.6,2.8,1.7c0.3-0.5,0.7-1,1.3-1.3
		c0.5-0.3,1.1-0.5,1.8-0.5C49.3,38.6,50.1,38.9,50.6,39.5z"/>
	<path d="M55.4,47.7c-0.7-0.4-1.3-1-1.7-1.7s-0.6-1.6-0.6-2.6s0.2-1.8,0.6-2.6c0.4-0.7,1-1.3,1.7-1.7s1.6-0.6,2.6-0.6
		s1.9,0.2,2.6,0.6c0.7,0.4,1.3,1,1.7,1.7s0.6,1.6,0.6,2.6s-0.2,1.8-0.6,2.6s-1,1.3-1.7,1.7c-0.7,0.4-1.6,0.6-2.6,0.6
		C57,48.3,56.2,48.1,55.4,47.7z M60.1,43.4c0-0.9-0.2-1.6-0.5-2c-0.4-0.4-0.9-0.7-1.5-0.7c-1.4,0-2.1,0.9-2.1,2.7
		c0,1.8,0.7,2.7,2.1,2.7C59.4,46.1,60.1,45.2,60.1,43.4z"/>
	<path d="M71.4,40.9l-1.6,0.2c-0.8,0.1-1.4,0.3-1.7,0.7c-0.3,0.4-0.5,0.9-0.5,1.5v4.9h-2.9v-9.3h2.8v1.6c0.5-1.1,1.4-1.7,2.9-1.8
		l0.8-0.1L71.4,40.9z"/>
	<path d="M80.5,44h-6.1c0.1,0.7,0.3,1.3,0.7,1.6s1,0.5,1.7,0.5c0.5,0,1-0.1,1.4-0.2s0.9-0.4,1.3-0.7l0.8,1.9c-0.5,0.4-1,0.6-1.7,0.8
		c-0.7,0.2-1.3,0.3-2,0.3c-1.6,0-2.8-0.4-3.7-1.3s-1.4-2-1.4-3.5c0-0.9,0.2-1.8,0.6-2.5c0.4-0.7,0.9-1.3,1.6-1.7
		c0.7-0.4,1.5-0.6,2.4-0.6c1.3,0,2.3,0.4,3.1,1.3c0.8,0.8,1.1,2,1.1,3.5L80.5,44L80.5,44z M75.1,41c-0.3,0.3-0.5,0.9-0.6,1.5h3.7
		c0-0.7-0.2-1.2-0.5-1.5c-0.3-0.3-0.7-0.5-1.3-0.5S75.4,40.7,75.1,41z"/>
	<path d="M89.5,47.7c-0.7-0.4-1.3-1-1.7-1.7s-0.6-1.6-0.6-2.6s0.2-1.8,0.6-2.6c0.4-0.7,1-1.3,1.7-1.7c0.7-0.4,1.6-0.6,2.6-0.6
		s1.9,0.2,2.6,0.6c0.7,0.4,1.3,1,1.7,1.7c0.4,0.7,0.6,1.6,0.6,2.6s-0.2,1.8-0.6,2.6s-1,1.3-1.7,1.7c-0.7,0.4-1.6,0.6-2.6,0.6
		S90.2,48.1,89.5,47.7z M94.1,43.4c0-0.9-0.2-1.6-0.5-2c-0.4-0.4-0.9-0.7-1.5-0.7c-1.4,0-2.1,0.9-2.1,2.7c0,1.8,0.7,2.7,2.1,2.7
		S94.1,45.2,94.1,43.4z"/>
	<path d="M107.1,39.5c0.5,0.7,0.8,1.6,0.8,3v5.6H105v-5.5c0-0.6-0.1-1.1-0.4-1.4s-0.6-0.4-1.1-0.4c-0.6,0-1.1,0.2-1.4,0.6
		c-0.4,0.4-0.5,0.9-0.5,1.5v5.2h-2.9v-9.3h2.8v1.3c0.3-0.5,0.8-0.9,1.3-1.2c0.5-0.3,1.1-0.4,1.8-0.4
		C105.7,38.6,106.5,38.9,107.1,39.5z"/>
	<path d="M126,42.4c0.4,0.6,0.6,1.3,0.6,2.1c0,1.1-0.4,2-1.2,2.7c-0.8,0.7-2,1-3.4,1h-6.4V34.7h6.2c1.4,0,2.5,0.3,3.3,0.9
		c0.8,0.6,1.2,1.5,1.2,2.5c0,0.7-0.2,1.3-0.6,1.8c-0.4,0.5-0.9,0.9-1.5,1.2C125,41.4,125.6,41.8,126,42.4z M118.5,40.2h2.8
		c0.8,0,1.3-0.1,1.7-0.4s0.5-0.7,0.5-1.2c0-0.6-0.2-1-0.5-1.2S122,37,121.3,37h-2.8V40.2z M123.3,45.4c0.4-0.3,0.5-0.7,0.5-1.3
		s-0.2-1-0.5-1.3c-0.4-0.3-0.9-0.4-1.7-0.4h-3.1v3.4h3.1C122.4,45.8,123,45.7,123.3,45.4z"/>
	<path d="M136.8,44h-6.1c0.1,0.7,0.3,1.3,0.7,1.6c0.4,0.3,1,0.5,1.7,0.5c0.5,0,1-0.1,1.4-0.2c0.5-0.2,0.9-0.4,1.3-0.7l0.8,1.9
		c-0.5,0.4-1,0.6-1.7,0.8c-0.7,0.2-1.3,0.3-2,0.3c-1.6,0-2.8-0.4-3.7-1.3c-0.9-0.9-1.4-2-1.4-3.5c0-0.9,0.2-1.8,0.6-2.5
		c0.4-0.7,0.9-1.3,1.6-1.7c0.7-0.4,1.5-0.6,2.4-0.6c1.3,0,2.3,0.4,3.1,1.3c0.8,0.8,1.1,2,1.1,3.5V44z M131.4,41
		c-0.3,0.3-0.5,0.9-0.6,1.5h3.7c0-0.7-0.2-1.2-0.5-1.5c-0.3-0.3-0.7-0.5-1.3-0.5C132.1,40.5,131.7,40.7,131.4,41z"/>
	<path d="M146.9,39.5c0.5,0.7,0.8,1.6,0.8,3v5.6h-2.9v-5.5c0-0.6-0.1-1.1-0.4-1.4s-0.6-0.4-1.1-0.4c-0.6,0-1.1,0.2-1.4,0.6
		c-0.4,0.4-0.5,0.9-0.5,1.5v5.2h-2.9V34.7h2.9V40c0.3-0.5,0.8-0.8,1.3-1.1s1.1-0.4,1.7-0.4C145.5,38.6,146.4,38.9,146.9,39.5z"/>
	<path d="M157.1,39.5c0.7,0.7,1,1.7,1,3.1v5.5h-2.7v-1.4c-0.2,0.5-0.5,0.9-0.9,1.1s-1,0.4-1.6,0.4c-0.6,0-1.2-0.1-1.7-0.4
		c-0.5-0.3-0.9-0.6-1.2-1.1c-0.3-0.5-0.4-1-0.4-1.5c0-0.7,0.2-1.2,0.5-1.6s0.9-0.7,1.7-0.9s1.8-0.3,3.2-0.3h0.5v-0.3
		c0-0.6-0.1-1-0.4-1.2c-0.2-0.2-0.7-0.3-1.3-0.3c-0.5,0-1,0.1-1.5,0.2s-1.1,0.4-1.6,0.7l-0.8-1.9c0.5-0.3,1.2-0.6,2-0.8
		s1.5-0.3,2.2-0.3C155.4,38.6,156.4,38.9,157.1,39.5z M154.9,45.7c0.3-0.4,0.5-0.9,0.5-1.5v-0.3H155c-1,0-1.7,0.1-2.2,0.2
		c-0.4,0.2-0.6,0.5-0.6,0.9c0,0.3,0.1,0.6,0.4,0.9c0.2,0.2,0.5,0.3,0.9,0.3C154.1,46.3,154.5,46.1,154.9,45.7z"/>
	<path d="M168.6,39.5c0.5,0.7,0.8,1.6,0.8,3v5.6h-2.9v-5.5c0-0.6-0.1-1.1-0.4-1.4s-0.6-0.4-1.1-0.4c-0.6,0-1.1,0.2-1.4,0.6
		c-0.4,0.4-0.5,0.9-0.5,1.5v5.2h-2.9v-9.3h2.8v1.3c0.3-0.5,0.8-0.9,1.3-1.2c0.5-0.3,1.1-0.4,1.8-0.4C167.2,38.6,168,38.9,168.6,39.5
		z"/>
	<path d="M172.4,47c-0.9-0.9-1.3-2-1.3-3.5c0-1,0.2-1.8,0.6-2.6c0.4-0.7,1-1.3,1.8-1.7s1.6-0.6,2.6-0.6c0.7,0,1.3,0.1,2,0.3
		c0.6,0.2,1.1,0.5,1.5,0.8l-0.8,2c-0.4-0.3-0.8-0.5-1.2-0.7s-0.9-0.2-1.3-0.2c-0.7,0-1.3,0.2-1.7,0.7c-0.4,0.4-0.6,1.1-0.6,2
		c0,0.9,0.2,1.5,0.6,2c0.4,0.5,1,0.7,1.7,0.7c0.4,0,0.8-0.1,1.3-0.2s0.8-0.4,1.2-0.7l0.8,2c-0.4,0.4-0.9,0.6-1.6,0.8
		c-0.6,0.2-1.3,0.3-2.1,0.3C174.5,48.3,173.3,47.8,172.4,47z"/>
	<path d="M189.3,44h-6.1c0.1,0.7,0.3,1.3,0.7,1.6c0.4,0.3,1,0.5,1.7,0.5c0.5,0,1-0.1,1.4-0.2c0.5-0.2,0.9-0.4,1.3-0.7l0.8,1.9
		c-0.5,0.4-1,0.6-1.7,0.8c-0.7,0.2-1.3,0.3-2,0.3c-1.6,0-2.8-0.4-3.7-1.3c-0.9-0.9-1.4-2-1.4-3.5c0-0.9,0.2-1.8,0.6-2.5
		c0.4-0.7,0.9-1.3,1.6-1.7c0.7-0.4,1.5-0.6,2.4-0.6c1.3,0,2.3,0.4,3.1,1.3c0.8,0.8,1.1,2,1.1,3.5V44z M183.9,41
		c-0.3,0.3-0.5,0.9-0.6,1.5h3.7c0-0.7-0.2-1.2-0.5-1.5c-0.3-0.3-0.7-0.5-1.3-0.5C184.6,40.5,184.2,40.7,183.9,41z"/>
</g>
</svg>
