<?xml version="1.0" encoding="utf-8"?>
<!-- Generator: Adobe Illustrator 26.3.1, SVG Export Plug-In . SVG Version: 6.00 Build 0)  -->
<svg version="1.1" id="Layer_1" xmlns="http://www.w3.org/2000/svg" xmlns:xlink="http://www.w3.org/1999/xlink" x="0px" y="0px"
	 viewBox="0 0 359.5 160" style="enable-background:new 0 0 359.5 160;" xml:space="preserve">
<style type="text/css">
	.st0{fill:#14D774;}
	.st1{fill:#FFFFFF;}
</style>
<rect x="4" class="st0" width="140.3" height="131"/>
<g>
	<path class="st1" d="M178.5,71.4c0.1,0.1,0.1,0.2,0.1,0.3s0,0.2-0.1,0.3s-0.2,0.1-0.3,0.1H173c-0.3,0-0.5-0.1-0.7-0.3l-3.5-4.3v4.1
		c0,0.1-0.1,0.3-0.2,0.4c-0.1,0.1-0.2,0.2-0.4,0.2h-4.1c-0.1,0-0.3-0.1-0.4-0.2c-0.1-0.1-0.2-0.2-0.2-0.4V58.7
		c0-0.1,0.1-0.3,0.2-0.4c0.1-0.1,0.2-0.2,0.4-0.2h4.1c0.1,0,0.3,0.1,0.4,0.2c0.1,0.1,0.2,0.2,0.2,0.4v3.8l3.2-4
		c0.2-0.2,0.4-0.3,0.7-0.3h4.8c0.1,0,0.2,0,0.3,0.1c0.1,0.1,0.1,0.2,0.1,0.3s0,0.2-0.1,0.3l-4.7,5.8L178.5,71.4z"/>
	<path class="st1" d="M185.2,68.2h8c0.1,0,0.3,0.1,0.4,0.2c0.1,0.1,0.2,0.2,0.2,0.4v2.8c0,0.1-0.1,0.3-0.2,0.4
		c-0.1,0.1-0.2,0.2-0.4,0.2h-12.6c-0.1,0-0.3-0.1-0.4-0.2c-0.1-0.1-0.2-0.2-0.2-0.4V58.7c0-0.1,0.1-0.3,0.2-0.4
		c0.1-0.1,0.2-0.2,0.4-0.2H193c0.1,0,0.3,0.1,0.4,0.2c0.1,0.1,0.2,0.2,0.2,0.4v2.8c0,0.1-0.1,0.3-0.2,0.4c-0.1,0.1-0.2,0.2-0.4,0.2
		h-7.8v1.3h6.7c0.1,0,0.3,0.1,0.4,0.2c0.1,0.1,0.2,0.2,0.2,0.4v2.6c0,0.1-0.1,0.3-0.2,0.4c-0.1,0.1-0.2,0.2-0.4,0.2h-6.7V68.2z"/>
	<path class="st1" d="M206.4,58.1h4.2c0.1,0,0.2,0,0.3,0.1c0.1,0.1,0.1,0.2,0.1,0.2s0,0.1,0,0.2l-4.6,12.8c-0.1,0.4-0.4,0.7-0.9,0.7
		h-4.7c-0.4,0-0.7-0.2-0.9-0.6l-4.6-12.8c0-0.1,0-0.1,0-0.2s0-0.2,0.1-0.2c0.1-0.1,0.2-0.1,0.3-0.1h4.2c0.2,0,0.4,0.1,0.6,0.2
		s0.3,0.3,0.3,0.5l2.3,7.7l2.3-7.7C205.6,58.3,205.9,58.1,206.4,58.1z"/>
	<path class="st1" d="M226.1,62.2h-3.6V68h3.6c0.1,0,0.3,0.1,0.4,0.2c0.1,0.1,0.2,0.2,0.2,0.4v3c0,0.1-0.1,0.3-0.2,0.4
		c-0.1,0.1-0.2,0.2-0.4,0.2h-12.7c-0.1,0-0.3-0.1-0.4-0.2c-0.1-0.1-0.2-0.2-0.2-0.4v-3c0-0.1,0.1-0.3,0.2-0.4
		c0.1-0.1,0.2-0.2,0.4-0.2h3.7v-5.8h-3.7c-0.1,0-0.3-0.1-0.4-0.2c-0.1-0.1-0.2-0.2-0.2-0.4v-3c0-0.1,0.1-0.3,0.2-0.4
		c0.1-0.1,0.2-0.2,0.4-0.2h12.7c0.1,0,0.3,0.1,0.4,0.2c0.1,0.1,0.2,0.2,0.2,0.4v3c0,0.1-0.1,0.3-0.2,0.4
		C226.3,62.2,226.2,62.2,226.1,62.2z"/>
	<path class="st1" d="M238.8,58.1h3.7c0.1,0,0.3,0.1,0.4,0.2c0.1,0.1,0.2,0.2,0.2,0.4v12.9c0,0.1-0.1,0.3-0.2,0.4
		c-0.1,0.1-0.2,0.2-0.4,0.2h-3.2c-0.3,0-0.6-0.1-0.8-0.4l-4.4-5.6v5.4c0,0.1-0.1,0.3-0.2,0.4c-0.1,0.1-0.2,0.2-0.4,0.2h-3.7
		c-0.1,0-0.3-0.1-0.4-0.2c-0.1-0.1-0.2-0.2-0.2-0.4V58.7c0-0.1,0.1-0.3,0.2-0.4c0.1-0.1,0.2-0.2,0.4-0.2h3.2c0.3,0,0.6,0.1,0.8,0.4
		l4.4,6v-5.9c0-0.1,0.1-0.3,0.2-0.4C238.5,58.2,238.6,58.1,238.8,58.1z"/>
	<path class="st1" d="M254.1,63.5h5.8c0.1,0,0.3,0.1,0.4,0.2c0.1,0.1,0.2,0.2,0.2,0.4v2.1c0,2-0.7,3.5-2.1,4.5
		c-1.4,1-3.2,1.5-5.5,1.5c-2.3,0-4.1-0.5-5.5-1.4s-2.1-2.4-2.1-4.4V64c0-1,0.2-1.9,0.6-2.7c0.4-0.8,0.9-1.4,1.6-1.9
		c1.4-0.9,3.2-1.4,5.3-1.4c1.1,0,2,0.1,2.9,0.4c0.9,0.2,1.6,0.5,2.1,0.9c0.5,0.4,1,0.7,1.4,1.1c0.7,0.7,1,1.4,1,1.9
		c0,0.1,0,0.2-0.1,0.3c-0.1,0.1-0.2,0.1-0.3,0.1h-4.5c-0.3,0-0.5-0.1-0.6-0.2c-0.4-0.4-1-0.6-1.7-0.6c-0.7,0-1.3,0.1-1.7,0.4
		c-0.4,0.3-0.6,0.6-0.6,1v3.2c0,0.5,0.2,0.9,0.6,1.2s1,0.4,1.7,0.4s1.3-0.1,1.7-0.4s0.6-0.6,0.6-1h-1.2c-0.1,0-0.3-0.1-0.4-0.2
		c-0.1-0.1-0.2-0.2-0.2-0.4V64c0-0.1,0.1-0.3,0.2-0.4C253.8,63.5,254,63.5,254.1,63.5z"/>
	<path class="st1" d="M268.9,68h6.8c0.1,0,0.3,0.1,0.4,0.2c0.1,0.1,0.2,0.2,0.2,0.4v3c0,0.1-0.1,0.3-0.2,0.4
		c-0.1,0.1-0.2,0.2-0.4,0.2h-11.7c-0.1,0-0.3-0.1-0.4-0.2c-0.1-0.1-0.2-0.2-0.2-0.4V58.7c0-0.1,0.1-0.3,0.2-0.4
		c0.1-0.1,0.2-0.2,0.4-0.2h4.3c0.1,0,0.3,0.1,0.4,0.2c0.1,0.1,0.2,0.2,0.2,0.4L268.9,68L268.9,68z"/>
	<path class="st1" d="M281.9,72.1h-3.8c-0.1,0-0.2,0-0.3-0.1s-0.1-0.2-0.1-0.2s0-0.1,0-0.2l4.4-12.8c0.1-0.4,0.4-0.7,0.9-0.7h5.6
		c0.5,0,0.8,0.2,0.9,0.7l4.4,12.8c0,0,0,0.1,0,0.2s0,0.2-0.1,0.2c-0.1,0.1-0.2,0.1-0.3,0.1h-3.8c-0.4,0-0.7-0.2-0.9-0.7l-0.5-1.4
		h-4.9l-0.5,1.4C282.7,71.9,282.4,72.1,281.9,72.1z M287.2,66.1l-1.4-4.2l-1.4,4.2H287.2z"/>
	<path class="st1" d="M305.7,58.1h3.7c0.1,0,0.3,0.1,0.4,0.2s0.2,0.2,0.2,0.4v12.9c0,0.1-0.1,0.3-0.2,0.4c-0.1,0.1-0.2,0.2-0.4,0.2
		h-3.6c-0.1,0-0.3-0.1-0.4-0.2c-0.1-0.1-0.2-0.2-0.2-0.4v-6.2l-1.5,2.9c-0.1,0.2-0.2,0.3-0.4,0.4c-0.2,0.1-0.3,0.1-0.5,0.1h-1.4
		c-0.2,0-0.4-0.1-0.6-0.2s-0.2-0.2-0.3-0.3l-1.5-2.9v6.2c0,0.1-0.1,0.3-0.2,0.4c-0.1,0.1-0.2,0.2-0.4,0.2h-3.6
		c-0.1,0-0.3-0.1-0.4-0.2c-0.1-0.1-0.2-0.2-0.2-0.4V58.7c0-0.1,0.1-0.3,0.2-0.4c0.1-0.1,0.2-0.2,0.4-0.2h3.7c0.4,0,0.7,0.2,0.9,0.5
		l2.6,4.8l2.6-4.8C305,58.3,305.3,58.1,305.7,58.1z"/>
</g>
<g>
	<path class="st1" d="M173.3,89.4v11.1c0,1.7-0.4,2.9-1.2,3.8c-0.8,0.8-2,1.3-3.5,1.3c-1.9,0-3.6-0.6-4.9-1.7l0.5-0.8
		c0.8,0.6,1.5,1,2.2,1.2c0.6,0.2,1.4,0.3,2.3,0.3c1.2,0,2.1-0.3,2.7-1s0.9-1.6,0.9-2.9v-2.5c-0.3,0.8-0.9,1.5-1.6,1.9
		c-0.7,0.4-1.6,0.7-2.6,0.7c-1,0-1.9-0.2-2.7-0.7c-0.8-0.5-1.4-1.2-1.8-2s-0.7-1.9-0.7-3c0-1.1,0.2-2.1,0.7-3c0.4-0.9,1.1-1.5,1.8-2
		c0.8-0.5,1.7-0.7,2.7-0.7c1,0,1.8,0.2,2.5,0.6s1.2,1,1.6,1.8v-2.2L173.3,89.4L173.3,89.4z M171.2,98.4c0.7-0.9,1.1-2,1.1-3.5
		c0-1.5-0.4-2.7-1.1-3.5c-0.7-0.8-1.7-1.3-3-1.3c-1.3,0-2.3,0.4-3,1.3c-0.7,0.8-1.1,2-1.1,3.5c0,1.5,0.4,2.7,1.1,3.5
		c0.7,0.8,1.8,1.3,3,1.3C169.5,99.7,170.5,99.3,171.2,98.4z"/>
	<path class="st1" d="M182.4,90.1l-0.8,0.1c-1.3,0.1-2.3,0.6-2.9,1.3c-0.6,0.7-0.9,1.6-0.9,2.7v7h-1V89.4h1v2
		c0.4-0.7,0.9-1.3,1.5-1.6c0.6-0.4,1.5-0.6,2.4-0.7l0.5,0L182.4,90.1z"/>
	<path class="st1" d="M192.4,93.4v7.6h-1v-2.1c-0.4,0.7-0.9,1.3-1.5,1.7c-0.7,0.4-1.4,0.6-2.3,0.6c-0.7,0-1.4-0.2-2-0.5
		s-1.1-0.7-1.5-1.3s-0.5-1.1-0.5-1.8c0-0.9,0.2-1.5,0.7-2c0.5-0.5,1.2-0.8,2.3-1c1-0.2,2.5-0.3,4.4-0.3h0.5v-1c0-1.1-0.2-2-0.7-2.5
		c-0.4-0.5-1.2-0.8-2.1-0.8c-0.8,0-1.4,0.1-2.1,0.3c-0.6,0.2-1.3,0.5-2,1l-0.5-0.9c0.6-0.4,1.3-0.8,2.1-1c0.8-0.2,1.6-0.4,2.3-0.4
		C191,89.1,192.4,90.6,192.4,93.4z M189.5,99.7c0.6-0.3,1-0.8,1.4-1.4c0.3-0.6,0.5-1.3,0.5-2.1v-0.9h-0.5c-1.7,0-3,0.1-3.8,0.2
		c-0.9,0.1-1.5,0.4-1.8,0.7c-0.4,0.3-0.5,0.8-0.5,1.5c0,0.7,0.3,1.3,0.8,1.8s1.2,0.7,2.1,0.7C188.3,100.2,188.9,100,189.5,99.7z"/>
	<path class="st1" d="M203.6,89.9c0.8,0.5,1.4,1.2,1.8,2.1s0.6,2,0.6,3.2c0,1.2-0.2,2.3-0.6,3.2s-1,1.6-1.8,2.1
		c-0.8,0.5-1.7,0.7-2.7,0.7c-1,0-1.8-0.2-2.5-0.6s-1.2-1.1-1.6-1.9v6.7h-1V89.4h1v2.2c0.4-0.8,0.9-1.4,1.6-1.8
		c0.7-0.4,1.5-0.6,2.5-0.6C201.9,89.1,202.8,89.4,203.6,89.9z M203.9,98.9c0.7-0.9,1.1-2.1,1.1-3.7s-0.4-2.8-1.1-3.7s-1.7-1.3-3-1.3
		c-1.3,0-2.3,0.4-3,1.3c-0.7,0.9-1.1,2.1-1.1,3.7s0.4,2.9,1.1,3.7s1.7,1.3,3,1.3S203.2,99.8,203.9,98.9z"/>
	<path class="st1" d="M218,93.6v7.5h-1v-7.4c0-1.2-0.2-2.1-0.7-2.7s-1.3-0.9-2.4-0.9c-1.2,0-2.2,0.4-3,1.1c-0.7,0.8-1.1,1.8-1.1,3
		v6.8h-1V84.1h1v7.3c0.4-0.8,0.9-1.3,1.6-1.7c0.7-0.4,1.5-0.6,2.4-0.6C216.6,89.1,218,90.6,218,93.6z"/>
	<path class="st1" d="M221.2,84.7h1.5v1.5h-1.5V84.7z M221.4,101.1V89.4h1v11.6C222.4,101.1,221.4,101.1,221.4,101.1z"/>
	<path class="st1" d="M227.6,100.5c-0.8-0.5-1.4-1.2-1.9-2.1c-0.4-0.9-0.7-2-0.7-3.1c0-1.2,0.2-2.3,0.7-3.2c0.4-0.9,1.1-1.6,1.9-2.1
		c0.8-0.5,1.7-0.8,2.8-0.8c0.8,0,1.5,0.1,2.2,0.4c0.7,0.3,1.3,0.7,1.7,1.1l-0.5,0.9c-0.6-0.5-1.2-0.9-1.7-1.1
		c-0.5-0.2-1.1-0.3-1.7-0.3c-1.3,0-2.4,0.5-3.1,1.4c-0.8,0.9-1.2,2.2-1.2,3.8c0,1.6,0.4,2.8,1.1,3.7s1.8,1.3,3.1,1.3
		c0.6,0,1.2-0.1,1.7-0.3c0.6-0.2,1.1-0.6,1.7-1.1l0.5,0.8c-0.5,0.5-1.1,0.9-1.8,1.2c-0.7,0.3-1.5,0.4-2.2,0.4
		C229.4,101.2,228.4,101,227.6,100.5z"/>
	<path class="st1" d="M251.4,84.1v16.9h-1v-2.4c-0.4,0.8-0.9,1.4-1.6,1.9c-0.7,0.4-1.5,0.6-2.5,0.6c-1,0-1.9-0.3-2.7-0.8
		c-0.8-0.5-1.4-1.2-1.8-2.1s-0.6-2-0.6-3.2c0-1.2,0.2-2.2,0.6-3.1c0.4-0.9,1-1.6,1.8-2.1c0.8-0.5,1.7-0.7,2.7-0.7
		c1,0,1.8,0.2,2.5,0.6c0.7,0.4,1.2,1,1.6,1.8v-7.5L251.4,84.1L251.4,84.1z M249.3,98.9c0.7-0.9,1.1-2.1,1.1-3.7
		c0-1.6-0.4-2.8-1.1-3.7c-0.7-0.9-1.7-1.3-3-1.3s-2.3,0.4-3,1.3c-0.7,0.9-1.1,2.1-1.1,3.7c0,1.6,0.4,2.9,1.1,3.8s1.7,1.4,3,1.4
		C247.6,100.2,248.6,99.8,249.3,98.9z"/>
	<path class="st1" d="M264.2,95.3h-9c0,1.6,0.4,2.8,1.2,3.6s1.8,1.3,3.3,1.3c0.7,0,1.4-0.1,2-0.4s1.3-0.6,1.9-1.2l0.5,0.9
		c-0.5,0.5-1.1,0.9-1.9,1.2c-0.8,0.3-1.6,0.4-2.4,0.4c-1.7,0-3.1-0.5-4.1-1.6c-1-1.1-1.5-2.5-1.5-4.4c0-1.2,0.2-2.3,0.7-3.2
		c0.4-0.9,1.1-1.6,1.9-2.1s1.8-0.8,2.8-0.8c1.5,0,2.7,0.5,3.5,1.5c0.8,1,1.2,2.3,1.2,4.1L264.2,95.3L264.2,95.3z M256.5,91.2
		c-0.7,0.8-1.2,1.8-1.3,3.2h8c0-1.4-0.4-2.5-1-3.2s-1.6-1.1-2.8-1.1C258.2,90.1,257.2,90.5,256.5,91.2z"/>
	<path class="st1" d="M266.1,99.6l0.5-0.8c0.6,0.5,1.2,0.9,1.8,1.1c0.6,0.2,1.3,0.3,2.1,0.3c1,0,1.8-0.2,2.4-0.6
		c0.5-0.4,0.8-0.9,0.8-1.6c0-0.6-0.2-1-0.5-1.3c-0.4-0.3-0.9-0.6-1.7-0.8l-2-0.5c-0.9-0.2-1.6-0.6-2.2-1.1c-0.5-0.6-0.8-1.2-0.8-1.9
		c0-1,0.4-1.8,1.1-2.4c0.8-0.6,1.8-0.9,3-0.9c0.8,0,1.6,0.1,2.3,0.4c0.7,0.3,1.2,0.7,1.7,1.2l-0.5,0.9c-0.5-0.5-1-0.8-1.6-1.1
		s-1.2-0.3-1.8-0.3c-0.9,0-1.7,0.2-2.2,0.6c-0.5,0.4-0.8,0.9-0.8,1.6c0,0.6,0.2,1.1,0.5,1.4c0.3,0.3,0.8,0.6,1.5,0.8l2,0.5
		c2.1,0.5,3.1,1.5,3.1,3c0,1-0.4,1.7-1.2,2.3c-0.8,0.6-1.8,0.9-3.2,0.9C268.7,101.2,267.2,100.7,266.1,99.6z"/>
	<path class="st1" d="M277.4,84.7h1.5v1.5h-1.5V84.7z M277.7,101.1V89.4h1v11.6C278.7,101.1,277.7,101.1,277.7,101.1z"/>
	<path class="st1" d="M291.7,89.4v11.1c0,1.7-0.4,2.9-1.2,3.8c-0.8,0.8-2,1.3-3.5,1.3c-1.9,0-3.6-0.6-4.9-1.7l0.5-0.8
		c0.8,0.6,1.5,1,2.2,1.2c0.6,0.2,1.4,0.3,2.3,0.3c1.2,0,2.1-0.3,2.7-1c0.6-0.7,0.9-1.6,0.9-2.9v-2.5c-0.3,0.8-0.9,1.5-1.6,1.9
		c-0.7,0.4-1.6,0.7-2.6,0.7c-1,0-1.9-0.2-2.7-0.7c-0.8-0.5-1.4-1.2-1.8-2s-0.7-1.9-0.7-3c0-1.1,0.2-2.1,0.7-3c0.4-0.9,1.1-1.5,1.8-2
		c0.8-0.5,1.7-0.7,2.7-0.7c1,0,1.8,0.2,2.5,0.6c0.7,0.4,1.2,1,1.6,1.8v-2.2L291.7,89.4L291.7,89.4z M289.6,98.4
		c0.7-0.9,1.1-2,1.1-3.5c0-1.5-0.4-2.7-1.1-3.5c-0.7-0.8-1.7-1.3-3-1.3c-1.3,0-2.3,0.4-3,1.3c-0.7,0.8-1.1,2-1.1,3.5
		c0,1.5,0.4,2.7,1.1,3.5c0.7,0.8,1.8,1.3,3,1.3C287.9,99.7,288.9,99.3,289.6,98.4z"/>
	<path class="st1" d="M304.4,93.6v7.5h-1v-7.4c0-1.2-0.2-2.1-0.7-2.7s-1.3-0.9-2.4-0.9c-1.2,0-2.2,0.4-3,1.1c-0.7,0.8-1.1,1.8-1.1,3
		v6.8h-1V89.4h1v2.1c0.4-0.8,0.9-1.4,1.6-1.8c0.7-0.4,1.5-0.6,2.4-0.6C303,89.1,304.4,90.6,304.4,93.6z"/>
	<path class="st1" d="M317.2,95.3h-9c0,1.6,0.4,2.8,1.2,3.6s1.8,1.3,3.3,1.3c0.7,0,1.4-0.1,2-0.4c0.6-0.2,1.3-0.6,1.9-1.2l0.5,0.9
		c-0.5,0.5-1.1,0.9-1.9,1.2c-0.8,0.3-1.6,0.4-2.4,0.4c-1.7,0-3.1-0.5-4.1-1.6c-1-1.1-1.5-2.5-1.5-4.4c0-1.2,0.2-2.3,0.7-3.2
		s1.1-1.6,1.9-2.1s1.8-0.8,2.8-0.8c1.5,0,2.7,0.5,3.5,1.5c0.8,1,1.2,2.3,1.2,4.1L317.2,95.3L317.2,95.3z M309.5,91.2
		c-0.7,0.8-1.2,1.8-1.3,3.2h8c0-1.4-0.4-2.5-1-3.2s-1.6-1.1-2.8-1.1C311.2,90.1,310.3,90.5,309.5,91.2z"/>
	<path class="st1" d="M325.4,90.1l-0.8,0.1c-1.3,0.1-2.3,0.6-2.9,1.3c-0.6,0.7-0.9,1.6-0.9,2.7v7h-1V89.4h1v2
		c0.4-0.7,0.9-1.3,1.5-1.6c0.6-0.4,1.5-0.6,2.4-0.7l0.5,0L325.4,90.1z"/>
	<path class="st1" d="M337.1,95.1l4.8,6h-1.3l-4.1-5.1l-4.1,5.1H331l4.8-6l-4.5-5.6h1.3l3.8,4.8l3.8-4.8h1.3L337.1,95.1z"/>
	<path class="st1" d="M172.2,118.2h1.1l-4.9,11.6h-1.2l-4.9-11.6h1.1l4.4,10.7L172.2,118.2z"/>
	<path class="st1" d="M175,113.5h1.5v1.5H175V113.5z M175.3,129.9v-11.6h1v11.6H175.3z"/>
	<path class="st1" d="M179,128.4l0.5-0.8c0.6,0.5,1.2,0.9,1.8,1.1c0.6,0.2,1.3,0.3,2.1,0.3c1,0,1.8-0.2,2.4-0.6s0.8-0.9,0.8-1.6
		c0-0.6-0.2-1-0.5-1.3s-0.9-0.6-1.7-0.8l-2-0.5c-0.9-0.2-1.6-0.6-2.2-1.1c-0.5-0.6-0.8-1.2-0.8-1.9c0-1,0.4-1.8,1.1-2.4
		c0.8-0.6,1.8-0.9,3-0.9c0.8,0,1.6,0.1,2.3,0.4c0.7,0.3,1.2,0.7,1.7,1.2l-0.5,0.9c-0.5-0.5-1-0.8-1.6-1.1c-0.6-0.2-1.2-0.3-1.8-0.3
		c-0.9,0-1.7,0.2-2.2,0.6c-0.5,0.4-0.8,0.9-0.8,1.6c0,0.6,0.2,1.1,0.5,1.4c0.3,0.3,0.8,0.6,1.5,0.8l2,0.5c2.1,0.5,3.1,1.5,3.1,3
		c0,1-0.4,1.7-1.2,2.3s-1.8,0.9-3.2,0.9C181.6,130,180.1,129.5,179,128.4z"/>
	<path class="st1" d="M199.6,118.2v11.6h-1v-2.2c-0.4,0.8-0.9,1.3-1.6,1.7c-0.7,0.4-1.5,0.6-2.4,0.6c-1.3,0-2.4-0.4-3.1-1.1
		s-1-1.9-1-3.3v-7.3h1v7.2c0,1.2,0.2,2.1,0.7,2.7c0.5,0.6,1.3,0.9,2.3,0.9c1.2,0,2.2-0.4,2.9-1.1s1.1-1.8,1.1-3v-6.6L199.6,118.2
		L199.6,118.2z"/>
	<path class="st1" d="M211.5,122.2v7.6h-1v-2.1c-0.4,0.7-0.9,1.3-1.5,1.7c-0.7,0.4-1.4,0.6-2.3,0.6c-0.7,0-1.4-0.2-2-0.5
		s-1.1-0.7-1.5-1.3c-0.4-0.5-0.5-1.1-0.5-1.8c0-0.9,0.2-1.5,0.7-2c0.5-0.5,1.2-0.8,2.3-1c1-0.2,2.5-0.3,4.4-0.3h0.5v-1
		c0-1.1-0.2-2-0.7-2.5c-0.4-0.5-1.2-0.8-2.1-0.8c-0.8,0-1.4,0.1-2.1,0.3c-0.6,0.2-1.3,0.5-2,1l-0.5-0.9c0.6-0.4,1.3-0.8,2.1-1
		c0.8-0.2,1.6-0.4,2.3-0.4C210.2,117.9,211.5,119.4,211.5,122.2z M208.6,128.5c0.6-0.3,1-0.8,1.4-1.4c0.3-0.6,0.5-1.3,0.5-2.1v-0.9
		H210c-1.7,0-3,0.1-3.8,0.2c-0.9,0.1-1.5,0.4-1.8,0.7s-0.5,0.8-0.5,1.5c0,0.7,0.3,1.3,0.8,1.8c0.5,0.5,1.2,0.7,2.1,0.7
		C207.4,129,208.1,128.8,208.6,128.5z"/>
	<path class="st1" d="M214.9,129.9v-16.9h1v16.9H214.9z"/>
	<path class="st1" d="M226.5,129.3c-0.8-0.5-1.4-1.2-1.9-2.1c-0.4-0.9-0.7-2-0.7-3.1c0-1.2,0.2-2.3,0.7-3.2c0.4-0.9,1.1-1.6,1.9-2.1
		c0.8-0.5,1.7-0.8,2.8-0.8c0.8,0,1.5,0.1,2.2,0.4c0.7,0.3,1.3,0.7,1.7,1.1l-0.5,0.9c-0.6-0.5-1.2-0.9-1.7-1.1
		c-0.5-0.2-1.1-0.3-1.7-0.3c-1.3,0-2.4,0.5-3.1,1.4c-0.8,0.9-1.2,2.2-1.2,3.8c0,1.6,0.4,2.8,1.1,3.7c0.8,0.9,1.8,1.3,3.1,1.3
		c0.6,0,1.2-0.1,1.7-0.3c0.6-0.2,1.1-0.6,1.7-1.1l0.5,0.8c-0.5,0.5-1.1,0.9-1.8,1.2c-0.7,0.3-1.5,0.4-2.2,0.4
		C228.2,130,227.3,129.8,226.5,129.3z"/>
	<path class="st1" d="M241,118.9l-0.8,0.1c-1.3,0.1-2.3,0.6-2.9,1.3c-0.6,0.7-0.9,1.6-0.9,2.7v7h-1v-11.6h1v2
		c0.4-0.7,0.9-1.3,1.5-1.6c0.6-0.4,1.5-0.6,2.4-0.7l0.5,0L241,118.9z"/>
	<path class="st1" d="M251.7,124.1h-9c0,1.6,0.4,2.8,1.2,3.6c0.8,0.8,1.8,1.3,3.3,1.3c0.7,0,1.4-0.1,2-0.4s1.3-0.6,1.9-1.2l0.5,0.9
		c-0.5,0.5-1.1,0.9-1.9,1.2c-0.8,0.3-1.6,0.4-2.4,0.4c-1.7,0-3.1-0.5-4.1-1.6c-1-1.1-1.5-2.5-1.5-4.4c0-1.2,0.2-2.3,0.7-3.2
		c0.4-0.9,1.1-1.6,1.9-2.1c0.8-0.5,1.8-0.8,2.8-0.8c1.5,0,2.7,0.5,3.5,1.5c0.8,1,1.2,2.3,1.2,4.1L251.7,124.1L251.7,124.1z M244,120
		c-0.7,0.8-1.2,1.8-1.3,3.2h8c0-1.4-0.4-2.5-1-3.2c-0.7-0.7-1.6-1.1-2.8-1.1C245.8,118.9,244.8,119.3,244,120z"/>
	<path class="st1" d="M262.9,122.2v7.6h-1v-2.1c-0.4,0.7-0.9,1.3-1.5,1.7c-0.7,0.4-1.4,0.6-2.3,0.6c-0.7,0-1.4-0.2-2-0.5
		c-0.6-0.3-1.1-0.7-1.5-1.3s-0.5-1.1-0.5-1.8c0-0.9,0.2-1.5,0.7-2c0.5-0.5,1.2-0.8,2.3-1s2.5-0.3,4.4-0.3h0.5v-1
		c0-1.1-0.2-2-0.7-2.5c-0.4-0.5-1.2-0.8-2.1-0.8c-0.8,0-1.4,0.1-2.1,0.3s-1.3,0.5-2,1l-0.5-0.9c0.6-0.4,1.3-0.8,2.1-1
		c0.8-0.2,1.6-0.4,2.3-0.4C261.5,117.9,262.9,119.4,262.9,122.2z M260,128.5c0.6-0.3,1-0.8,1.4-1.4c0.3-0.6,0.5-1.3,0.5-2.1v-0.9
		h-0.5c-1.7,0-3,0.1-3.8,0.2s-1.5,0.4-1.8,0.7c-0.4,0.3-0.5,0.8-0.5,1.5c0,0.7,0.3,1.3,0.8,1.8c0.5,0.5,1.2,0.7,2.1,0.7
		C258.7,129,259.4,128.8,260,128.5z"/>
	<path class="st1" d="M271.6,129l0,0.9c-0.3,0-0.7,0.1-1.1,0.1c-1.2,0-2.1-0.3-2.8-1c-0.6-0.7-1-1.6-1-2.8v-7.1h-2.3v-0.9h2.3v-3.6
		h1v3.6h3.5v0.9h-3.5v6.8c0,1,0.2,1.8,0.7,2.3s1.2,0.8,2.1,0.8C271,129.1,271.3,129,271.6,129z"/>
	<path class="st1" d="M274.9,129.3c-0.8-0.5-1.4-1.2-1.8-2.1c-0.4-0.9-0.6-2-0.6-3.2c0-1.2,0.2-2.3,0.6-3.2s1-1.6,1.8-2.1
		c0.8-0.5,1.7-0.7,2.7-0.7c1,0,1.9,0.2,2.7,0.7c0.8,0.5,1.4,1.2,1.8,2.1s0.6,2,0.6,3.2c0,1.2-0.2,2.3-0.6,3.2
		c-0.4,0.9-1,1.6-1.8,2.1c-0.8,0.5-1.7,0.7-2.7,0.7C276.6,130,275.7,129.8,274.9,129.3z M280.6,127.7c0.7-0.9,1.1-2.1,1.1-3.8
		c0-1.6-0.4-2.8-1.1-3.7s-1.7-1.3-3-1.3s-2.3,0.4-3,1.3c-0.7,0.9-1.1,2.1-1.1,3.7c0,1.6,0.4,2.9,1.1,3.8c0.7,0.9,1.7,1.3,3,1.3
		C278.9,129,279.9,128.6,280.6,127.7z"/>
	<path class="st1" d="M291.1,118.9l-0.8,0.1c-1.3,0.1-2.3,0.6-2.9,1.3c-0.6,0.7-0.9,1.6-0.9,2.7v7h-1v-11.6h1v2
		c0.4-0.7,0.9-1.3,1.5-1.6c0.6-0.4,1.5-0.6,2.4-0.7l0.5,0L291.1,118.9z"/>
</g>
<polygon points="38.4,56.3 38.4,75.9 48.2,93 66.5,93 49.9,64.3 62.7,41.1 48.1,41.1 "/>
<rect x="92.2" y="59.6" width="37.4" height="10.8"/>
<rect x="18.4" y="41.1" width="15.1" height="51.9"/>
<rect x="70" y="41.1" width="15.1" height="51.9"/>
</svg>
