<?xml version="1.0" encoding="utf-8"?>
<!-- Generator: Adobe Illustrator 26.3.1, SVG Export Plug-In . SVG Version: 6.00 Build 0)  -->
<svg version="1.1" id="Layer_1" xmlns="http://www.w3.org/2000/svg" xmlns:xlink="http://www.w3.org/1999/xlink" x="0px" y="0px"
	 viewBox="0 0 219.5 80" style="enable-background:new 0 0 219.5 80;" xml:space="preserve">
<style type="text/css">
	.st0{fill:#46C182;}
	.st1{fill:none;stroke:#000000;stroke-width:4;stroke-miterlimit:10;}
</style>
<path class="st0" d="M185.5,15.3h-149c-15.1,0-27.3,12.2-27.3,27.3C9.2,57.8,21.4,70,36.5,70h149c15.1,0,27.3-12.2,27.3-27.3
	C212.8,27.6,200.6,15.3,185.5,15.3z"/>
<g>
	<path d="M59.2,47c-0.7-0.2-1.4-0.5-1.9-0.9l0.8-2c0.5,0.3,1.1,0.6,1.7,0.8c0.6,0.2,1.2,0.3,1.9,0.3c0.5,0,0.8-0.1,1.1-0.2
		c0.3-0.1,0.4-0.4,0.4-0.6c0-0.2-0.1-0.4-0.3-0.5c-0.2-0.1-0.5-0.2-1-0.4l-1.6-0.4c-0.9-0.2-1.6-0.5-2-1c-0.4-0.4-0.7-1-0.7-1.8
		c0-0.6,0.2-1.1,0.5-1.6c0.3-0.5,0.8-0.8,1.5-1.1c0.6-0.3,1.3-0.4,2.1-0.4c0.7,0,1.4,0.1,2,0.3c0.6,0.2,1.2,0.5,1.7,0.9l-0.8,1.9
		c-1-0.7-2-1-3-1c-0.5,0-0.8,0.1-1.1,0.2c-0.3,0.2-0.4,0.4-0.4,0.7c0,0.2,0.1,0.4,0.2,0.5c0.2,0.1,0.4,0.2,0.8,0.3l1.6,0.4
		c1,0.2,1.7,0.6,2.1,1c0.4,0.4,0.7,1.1,0.7,1.8c0,0.9-0.4,1.6-1.1,2.2c-0.7,0.5-1.7,0.8-3,0.8C60.7,47.3,59.9,47.2,59.2,47z"/>
	<path d="M76,43h-6.2c0.1,0.8,0.3,1.3,0.7,1.7c0.4,0.3,1,0.5,1.7,0.5c0.5,0,1-0.1,1.5-0.2c0.5-0.2,0.9-0.4,1.3-0.7l0.8,2
		c-0.5,0.4-1,0.6-1.7,0.9c-0.7,0.2-1.3,0.3-2,0.3c-1.6,0-2.9-0.4-3.8-1.3c-0.9-0.9-1.4-2.1-1.4-3.6c0-1,0.2-1.8,0.6-2.6
		c0.4-0.8,1-1.3,1.7-1.8c0.7-0.4,1.5-0.6,2.4-0.6c1.3,0,2.4,0.4,3.2,1.3c0.8,0.9,1.2,2,1.2,3.5V43z M70.4,40
		c-0.3,0.4-0.5,0.9-0.6,1.5h3.7c0-0.7-0.2-1.2-0.5-1.6c-0.3-0.3-0.7-0.5-1.3-0.5C71.2,39.5,70.7,39.6,70.4,40z"/>
	<path d="M86.3,43h-6.2c0.1,0.8,0.3,1.3,0.7,1.7c0.4,0.3,1,0.5,1.7,0.5c0.5,0,1-0.1,1.5-0.2c0.5-0.2,0.9-0.4,1.3-0.7l0.8,2
		c-0.5,0.4-1,0.6-1.7,0.9c-0.7,0.2-1.3,0.3-2,0.3c-1.6,0-2.9-0.4-3.8-1.3c-0.9-0.9-1.4-2.1-1.4-3.6c0-1,0.2-1.8,0.6-2.6
		c0.4-0.8,1-1.3,1.7-1.8c0.7-0.4,1.5-0.6,2.4-0.6c1.3,0,2.4,0.4,3.2,1.3c0.8,0.9,1.2,2,1.2,3.5V43z M80.7,40
		c-0.3,0.4-0.5,0.9-0.6,1.5h3.7c0-0.7-0.2-1.2-0.5-1.6c-0.3-0.3-0.7-0.5-1.3-0.5C81.5,39.5,81,39.6,80.7,40z"/>
	<path d="M107.6,38.4c0.5,0.7,0.8,1.7,0.8,3v5.7h-2.9v-5.6c0-0.6-0.1-1.1-0.3-1.4c-0.2-0.3-0.5-0.4-1-0.4c-0.6,0-1,0.2-1.3,0.6
		c-0.3,0.4-0.5,0.9-0.5,1.6v5.3h-2.9v-5.6c0-0.6-0.1-1.1-0.3-1.4c-0.2-0.3-0.5-0.4-1-0.4c-0.6,0-1,0.2-1.3,0.6
		c-0.3,0.4-0.5,0.9-0.5,1.6v5.3h-2.9v-9.5h2.9v1.3c0.3-0.5,0.7-0.9,1.2-1.1c0.5-0.3,1.1-0.4,1.7-0.4c1.4,0,2.4,0.6,2.8,1.8
		c0.3-0.5,0.7-1,1.3-1.3c0.6-0.3,1.2-0.5,1.8-0.5C106.3,37.4,107.1,37.8,107.6,38.4z"/>
	<path d="M112.6,46.7c-0.8-0.4-1.4-1-1.8-1.7c-0.4-0.7-0.6-1.6-0.6-2.6c0-1,0.2-1.9,0.6-2.6c0.4-0.7,1-1.3,1.8-1.7
		c0.8-0.4,1.6-0.6,2.7-0.6c1,0,1.9,0.2,2.7,0.6c0.8,0.4,1.4,1,1.8,1.7c0.4,0.7,0.6,1.6,0.6,2.6c0,1-0.2,1.9-0.6,2.6
		c-0.4,0.7-1,1.3-1.8,1.7c-0.8,0.4-1.6,0.6-2.7,0.6C114.2,47.3,113.3,47.1,112.6,46.7z M117.4,42.4c0-0.9-0.2-1.6-0.6-2.1
		c-0.4-0.5-0.9-0.7-1.6-0.7c-1.4,0-2.1,0.9-2.1,2.7c0,1.8,0.7,2.7,2.1,2.7C116.7,45.1,117.4,44.2,117.4,42.4z"/>
	<path d="M128.9,39.8l-1.6,0.2c-0.8,0.1-1.4,0.3-1.7,0.7c-0.3,0.4-0.5,0.9-0.5,1.5v5h-2.9v-9.5h2.8v1.6c0.5-1.1,1.5-1.7,3-1.8
		l0.9-0.1L128.9,39.8z"/>
	<path d="M138.2,43H132c0.1,0.8,0.3,1.3,0.7,1.7c0.4,0.3,1,0.5,1.7,0.5c0.5,0,1-0.1,1.5-0.2c0.5-0.2,0.9-0.4,1.3-0.7l0.8,2
		c-0.5,0.4-1,0.6-1.7,0.9c-0.7,0.2-1.3,0.3-2,0.3c-1.6,0-2.9-0.4-3.8-1.3c-0.9-0.9-1.4-2.1-1.4-3.6c0-1,0.2-1.8,0.6-2.6
		c0.4-0.8,1-1.3,1.7-1.8c0.7-0.4,1.5-0.6,2.4-0.6c1.3,0,2.4,0.4,3.2,1.3c0.8,0.9,1.2,2,1.2,3.5V43L138.2,43z M132.6,40
		c-0.3,0.4-0.5,0.9-0.6,1.5h3.7c0-0.7-0.2-1.2-0.5-1.6c-0.3-0.3-0.7-0.5-1.3-0.5C133.4,39.5,132.9,39.6,132.6,40z"/>
	<path d="M158.2,37.7h2.9l-3.9,9.5h-2.5l-2.1-5.4l-2,5.4h-2.5l-3.9-9.5h3l2.2,6l2.2-6h2l2.3,6.1L158.2,37.7z"/>
	<path d="M163.9,46.7c-0.8-0.4-1.4-1-1.8-1.7c-0.4-0.7-0.6-1.6-0.6-2.6c0-1,0.2-1.9,0.6-2.6c0.4-0.7,1-1.3,1.8-1.7
		c0.8-0.4,1.6-0.6,2.7-0.6c1,0,1.9,0.2,2.7,0.6c0.8,0.4,1.4,1,1.8,1.7c0.4,0.7,0.6,1.6,0.6,2.6c0,1-0.2,1.9-0.6,2.6
		c-0.4,0.7-1,1.3-1.8,1.7c-0.8,0.4-1.6,0.6-2.7,0.6C165.5,47.3,164.6,47.1,163.9,46.7z M168.6,42.4c0-0.9-0.2-1.6-0.6-2.1
		c-0.4-0.5-0.9-0.7-1.6-0.7c-1.4,0-2.1,0.9-2.1,2.7c0,1.8,0.7,2.7,2.1,2.7C167.9,45.1,168.6,44.2,168.6,42.4z"/>
	<path d="M180.1,39.8l-1.6,0.2c-0.8,0.1-1.4,0.3-1.7,0.7c-0.3,0.4-0.5,0.9-0.5,1.5v5h-2.9v-9.5h2.8v1.6c0.5-1.1,1.5-1.7,3-1.8
		l0.9-0.1L180.1,39.8z"/>
	<path d="M191.3,47.2h-3.6l-3.6-4.2v4.2h-2.9V33.5h2.9v8.2l3.5-4.1h3.5l-4,4.5L191.3,47.2z"/>
</g>
<g>
	<line class="st1" x1="43.2" y1="33.7" x2="33.4" y2="43.5"/>
	<line class="st1" x1="43.2" y1="51.6" x2="33.4" y2="41.8"/>
	<rect x="31.8" y="42.1" transform="matrix(0.7071 -0.7071 0.7071 0.7071 -20.8488 35.369)" width="0.9" height="1.4"/>
</g>
</svg>
