<?xml version="1.0" encoding="utf-8"?>
<!-- Generator: Adobe Illustrator 16.0.0, SVG Export Plug-In . SVG Version: 6.00 Build 0)  -->
<!DOCTYPE svg PUBLIC "-//W3C//DTD SVG 1.1//EN" "http://www.w3.org/Graphics/SVG/1.1/DTD/svg11.dtd">
<svg version="1.1" id="Layer_1" xmlns="http://www.w3.org/2000/svg" xmlns:xlink="http://www.w3.org/1999/xlink" x="0px" y="0px"
	 width="1920px" height="238.5px" viewBox="0 0 1920 238.5" enable-background="new 0 0 1920 238.5" xml:space="preserve">
<g>
	<path d="M131.592,92.943c-0.813-1.22-1.22-3.01-1.22-5.37c0-2.373,0.403-4.17,1.21-5.39c0.806-1.22,1.99-1.83,3.55-1.83
		c1.56,0,2.743,0.606,3.55,1.82s1.21,3.007,1.21,5.38c0,2.36-0.407,4.153-1.22,5.38s-1.994,1.84-3.54,1.84
		C133.585,94.773,132.405,94.163,131.592,92.943z M138.042,92.373c0.633-1.04,0.95-2.646,0.95-4.82c0-2.187-0.313-3.796-0.94-4.83
		c-0.627-1.033-1.6-1.55-2.92-1.55c-1.307,0-2.277,0.52-2.91,1.56c-0.633,1.04-0.95,2.647-0.95,4.82c0,2.16,0.316,3.764,0.95,4.81
		c0.633,1.047,1.604,1.57,2.91,1.57C136.438,93.933,137.408,93.413,138.042,92.373z"/>
	<path d="M150.732,88.593c0.44,0.587,0.66,1.327,0.66,2.22c0,1.213-0.383,2.173-1.15,2.88c-0.767,0.707-1.81,1.06-3.13,1.06
		c-0.88,0-1.724-0.16-2.53-0.48c-0.807-0.32-1.503-0.78-2.09-1.38l0.42-0.7c0.653,0.6,1.323,1.043,2.01,1.33s1.423,0.43,2.21,0.43
		c1.08,0,1.917-0.267,2.51-0.8c0.593-0.533,0.89-1.293,0.89-2.28c0-1-0.313-1.756-0.94-2.27c-0.627-0.513-1.547-0.77-2.76-0.77h-1.4
		v-0.78h1.1c1.16,0,2.067-0.283,2.72-0.85c0.653-0.566,0.98-1.356,0.98-2.37c0-0.854-0.26-1.513-0.78-1.98
		c-0.52-0.467-1.247-0.7-2.18-0.7c-0.733,0-1.437,0.144-2.11,0.43s-1.35,0.73-2.03,1.33l-0.42-0.7
		c0.573-0.586,1.256-1.043,2.05-1.37c0.794-0.327,1.623-0.49,2.49-0.49c1.187,0,2.126,0.313,2.82,0.94
		c0.693,0.626,1.04,1.48,1.04,2.56c0,0.827-0.204,1.553-0.61,2.18c-0.407,0.627-0.963,1.074-1.67,1.34
		C149.658,87.6,150.292,88.006,150.732,88.593z"/>
</g>
<g>
	<path d="M213.095,94.613v-14.1h0.82v13.34h7.5v0.76H213.095z"/>
	<path d="M224.834,94.133c-0.653-0.413-1.16-1-1.52-1.76c-0.36-0.76-0.54-1.646-0.54-2.66c0-1,0.18-1.88,0.54-2.64
		c0.36-0.76,0.867-1.347,1.52-1.76s1.406-0.62,2.26-0.62s1.607,0.207,2.26,0.62s1.16,1,1.52,1.76c0.36,0.76,0.54,1.64,0.54,2.64
		c0,1.013-0.18,1.9-0.54,2.66c-0.36,0.76-0.867,1.347-1.52,1.76c-0.653,0.414-1.407,0.62-2.26,0.62
		C226.241,94.753,225.487,94.546,224.834,94.133z M229.625,92.843c0.593-0.727,0.89-1.77,0.89-3.13c0-1.32-0.303-2.35-0.91-3.09
		s-1.443-1.11-2.51-1.11c-1.067,0-1.903,0.37-2.51,1.11s-0.91,1.77-0.91,3.09c0,1.36,0.296,2.403,0.89,3.13
		c0.593,0.727,1.43,1.09,2.51,1.09C228.181,93.933,229.031,93.57,229.625,92.843z"/>
	<path d="M242.135,84.933v9.22c0,1.387-0.327,2.433-0.979,3.14c-0.654,0.707-1.627,1.06-2.92,1.06c-1.613,0-2.98-0.46-4.1-1.38
		l0.4-0.7c0.667,0.48,1.267,0.81,1.8,0.99c0.533,0.18,1.173,0.27,1.92,0.27c1,0,1.76-0.277,2.28-0.83
		c0.52-0.553,0.78-1.363,0.78-2.43v-2.1c-0.28,0.693-0.717,1.223-1.31,1.59c-0.593,0.367-1.31,0.55-2.15,0.55
		c-0.854,0-1.61-0.2-2.27-0.6s-1.173-0.967-1.54-1.7s-0.55-1.573-0.55-2.52c0-0.946,0.183-1.783,0.55-2.51s0.88-1.29,1.54-1.69
		s1.417-0.6,2.27-0.6c0.827,0,1.533,0.18,2.12,0.54c0.586,0.36,1.026,0.874,1.32,1.54v-1.84H242.135z M240.385,92.423
		c0.606-0.713,0.91-1.69,0.91-2.93c0-1.24-0.303-2.213-0.91-2.92c-0.607-0.707-1.45-1.06-2.53-1.06c-1.067,0-1.91,0.354-2.53,1.06
		c-0.62,0.707-0.93,1.68-0.93,2.92c0,1.253,0.31,2.233,0.93,2.94c0.62,0.707,1.463,1.06,2.53,1.06
		C238.935,93.493,239.778,93.136,240.385,92.423z"/>
	<path d="M246.934,94.133c-0.653-0.413-1.16-1-1.52-1.76c-0.36-0.76-0.54-1.646-0.54-2.66c0-1,0.18-1.88,0.54-2.64
		c0.36-0.76,0.867-1.347,1.52-1.76s1.406-0.62,2.26-0.62c0.853,0,1.607,0.207,2.26,0.62c0.653,0.413,1.16,1,1.52,1.76
		c0.36,0.76,0.54,1.64,0.54,2.64c0,1.013-0.18,1.9-0.54,2.66c-0.36,0.76-0.867,1.347-1.52,1.76c-0.653,0.414-1.407,0.62-2.26,0.62
		C248.34,94.753,247.587,94.546,246.934,94.133z M251.724,92.843c0.593-0.727,0.89-1.77,0.89-3.13c0-1.32-0.303-2.35-0.91-3.09
		s-1.443-1.11-2.51-1.11s-1.903,0.37-2.51,1.11s-0.91,1.77-0.91,3.09c0,1.36,0.296,2.403,0.89,3.13c0.593,0.727,1.43,1.09,2.51,1.09
		C250.281,93.933,251.13,93.57,251.724,92.843z"/>
	<path d="M223.575,142.613h-0.92l-2.38-4.521c-0.347-0.667-0.747-1.12-1.2-1.36c-0.453-0.24-1.087-0.36-1.9-0.36h-3.26v6.24h-0.82
		v-14.1h5.44c1.453,0,2.577,0.33,3.37,0.99c0.793,0.66,1.189,1.63,1.189,2.91c0,1.094-0.323,1.967-0.97,2.62
		c-0.647,0.653-1.563,1.047-2.75,1.18c0.333,0.107,0.63,0.287,0.89,0.54c0.26,0.253,0.51,0.593,0.75,1.02L223.575,142.613z
		 M218.555,135.573c2.44,0,3.66-1.06,3.66-3.18c0-1.04-0.3-1.816-0.9-2.33s-1.52-0.77-2.76-0.77h-4.62v6.28H218.555z"/>
	<path d="M234.194,137.853h-7.52c0.026,1.307,0.356,2.313,0.99,3.02c0.633,0.707,1.536,1.06,2.71,1.06c0.6,0,1.163-0.1,1.69-0.3
		c0.526-0.2,1.05-0.52,1.57-0.96l0.4,0.72c-0.413,0.414-0.947,0.744-1.6,0.99c-0.654,0.247-1.327,0.37-2.02,0.37
		c-1.44,0-2.577-0.447-3.41-1.34s-1.25-2.12-1.25-3.68c0-1,0.187-1.88,0.56-2.64c0.373-0.76,0.9-1.35,1.58-1.77
		c0.68-0.42,1.46-0.63,2.34-0.63c1.253,0,2.227,0.407,2.92,1.22c0.693,0.813,1.04,1.954,1.04,3.42V137.853z M227.784,134.423
		c-0.62,0.633-0.983,1.517-1.09,2.65h6.7c-0.027-1.16-0.313-2.05-0.86-2.67c-0.547-0.62-1.313-0.93-2.3-0.93
		C229.221,133.473,228.404,133.79,227.784,134.423z"/>
	<path d="M236.895,142.613v-14.1h0.84v14.1H236.895z"/>
	<path d="M248.194,136.273v6.34h-0.86v-1.78c-0.293,0.613-0.717,1.086-1.27,1.42s-1.183,0.5-1.89,0.5
		c-0.614,0-1.177-0.127-1.69-0.38c-0.513-0.253-0.92-0.603-1.22-1.05c-0.3-0.446-0.45-0.938-0.45-1.47c0-0.72,0.19-1.277,0.57-1.67
		c0.38-0.393,1.006-0.676,1.88-0.85c0.873-0.173,2.097-0.26,3.67-0.26h0.4v-0.84c0-0.947-0.187-1.637-0.56-2.07
		s-0.967-0.65-1.78-0.65c-0.627,0-1.204,0.083-1.73,0.25c-0.527,0.167-1.077,0.437-1.65,0.81l-0.4-0.72
		c0.493-0.36,1.063-0.644,1.71-0.85c0.646-0.207,1.296-0.31,1.95-0.31C247.087,132.693,248.194,133.886,248.194,136.273z
		 M245.794,141.483c0.48-0.287,0.857-0.683,1.13-1.19c0.273-0.507,0.41-1.08,0.41-1.72v-0.72h-0.38c-1.4,0-2.467,0.057-3.2,0.17
		s-1.247,0.307-1.54,0.58s-0.44,0.677-0.44,1.21c0,0.613,0.227,1.117,0.68,1.51c0.453,0.394,1.026,0.59,1.72,0.59
		C244.774,141.913,245.314,141.77,245.794,141.483z"/>
	<path d="M255.454,137.613l3.98,5h-1.1l-3.42-4.28l-3.42,4.28h-1.08l3.98-5l-3.76-4.68h1.08l3.2,4.02l3.2-4.02h1.1L255.454,137.613z
		"/>
	<path d="M261.454,128.973h1.28v1.26h-1.28V128.973z M261.674,142.613v-9.68h0.84v9.68H261.674z"/>
	<path d="M273.614,136.373v6.24h-0.84v-6.16c0-1.026-0.207-1.776-0.62-2.25c-0.414-0.473-1.08-0.71-2-0.71
		c-1.027,0-1.85,0.317-2.47,0.95c-0.62,0.633-0.93,1.477-0.93,2.53v5.64h-0.84v-9.68h0.82v1.74c0.293-0.64,0.736-1.13,1.33-1.47
		c0.593-0.34,1.27-0.51,2.03-0.51C272.44,132.693,273.614,133.919,273.614,136.373z"/>
	<path d="M284.954,132.933v9.22c0,1.387-0.327,2.433-0.98,3.14c-0.654,0.707-1.627,1.06-2.92,1.06c-1.613,0-2.979-0.46-4.1-1.38
		l0.4-0.7c0.667,0.48,1.267,0.81,1.8,0.99c0.533,0.18,1.173,0.27,1.92,0.27c1,0,1.76-0.277,2.28-0.83
		c0.52-0.553,0.78-1.363,0.78-2.43v-2.1c-0.28,0.693-0.717,1.223-1.31,1.59c-0.593,0.367-1.31,0.55-2.15,0.55
		c-0.854,0-1.61-0.2-2.27-0.6c-0.66-0.4-1.173-0.967-1.54-1.7c-0.367-0.733-0.55-1.573-0.55-2.52c0-0.946,0.183-1.783,0.55-2.51
		c0.367-0.727,0.88-1.29,1.54-1.69c0.66-0.4,1.417-0.6,2.27-0.6c0.827,0,1.533,0.18,2.12,0.54c0.586,0.36,1.026,0.874,1.32,1.54
		v-1.84H284.954z M283.204,140.423c0.606-0.713,0.91-1.69,0.91-2.93c0-1.24-0.303-2.213-0.91-2.92s-1.45-1.06-2.53-1.06
		c-1.067,0-1.91,0.354-2.53,1.06c-0.62,0.707-0.93,1.68-0.93,2.92c0,1.253,0.31,2.233,0.93,2.94s1.463,1.06,2.53,1.06
		C281.753,141.493,282.597,141.136,283.204,140.423z"/>
	<path d="M213.095,152.513h4.34c2.213,0,3.917,0.607,5.11,1.82s1.79,2.953,1.79,5.22c0,2.253-0.6,3.994-1.8,5.22
		c-1.2,1.227-2.9,1.84-5.1,1.84h-4.34V152.513z M217.415,165.853c1.986,0,3.486-0.53,4.5-1.59c1.013-1.06,1.52-2.63,1.52-4.71
		c0-2.08-0.503-3.646-1.51-4.7c-1.007-1.053-2.51-1.58-4.51-1.58h-3.5v12.58H217.415z"/>
	<path d="M227.155,152.973h1.28v1.26h-1.28V152.973z M227.375,166.613v-9.68h0.84v9.68H227.375z"/>
	<path d="M231.015,165.433l0.4-0.7c0.52,0.44,1.023,0.747,1.51,0.92c0.487,0.173,1.077,0.26,1.77,0.26
		c0.854,0,1.507-0.153,1.96-0.46c0.453-0.307,0.68-0.74,0.68-1.3c0-0.467-0.147-0.84-0.44-1.12c-0.293-0.28-0.767-0.5-1.42-0.66
		l-1.64-0.38c-0.76-0.173-1.363-0.49-1.81-0.95c-0.447-0.46-0.67-0.99-0.67-1.59c0-0.826,0.313-1.493,0.94-2
		c0.626-0.506,1.473-0.76,2.54-0.76c0.68,0,1.307,0.113,1.88,0.34c0.573,0.227,1.04,0.547,1.4,0.96l-0.4,0.72
		c-0.427-0.4-0.873-0.697-1.34-0.89c-0.467-0.193-0.98-0.29-1.54-0.29c-0.787,0-1.403,0.16-1.85,0.48
		c-0.447,0.32-0.67,0.76-0.67,1.32c0,0.493,0.137,0.883,0.41,1.17s0.703,0.503,1.29,0.65l1.66,0.4c1.72,0.4,2.58,1.247,2.58,2.54
		c0,0.8-0.327,1.443-0.98,1.93s-1.533,0.73-2.64,0.73C233.141,166.753,231.935,166.313,231.015,165.433z"/>
	<path d="M242.575,166.133c-0.667-0.413-1.184-1-1.55-1.76c-0.367-0.76-0.55-1.633-0.55-2.62c0-1,0.183-1.883,0.55-2.65
		c0.367-0.767,0.887-1.36,1.56-1.78c0.673-0.42,1.457-0.63,2.35-0.63c0.653,0,1.273,0.117,1.86,0.35s1.067,0.55,1.44,0.95l-0.4,0.72
		c-0.507-0.427-0.987-0.737-1.44-0.93c-0.454-0.193-0.934-0.29-1.44-0.29c-1.107,0-1.98,0.38-2.62,1.14
		c-0.64,0.76-0.96,1.807-0.96,3.14c0,1.307,0.316,2.327,0.95,3.06c0.633,0.733,1.503,1.1,2.61,1.1c0.506,0,0.99-0.093,1.45-0.28
		s0.943-0.493,1.45-0.92l0.4,0.7c-0.387,0.414-0.88,0.737-1.48,0.97c-0.6,0.233-1.213,0.35-1.84,0.35
		C244.021,166.753,243.241,166.546,242.575,166.133z"/>
	<path d="M251.934,166.133c-0.653-0.413-1.16-1-1.52-1.76s-0.54-1.646-0.54-2.66c0-1,0.18-1.88,0.54-2.64
		c0.36-0.76,0.867-1.347,1.52-1.76s1.406-0.62,2.26-0.62c0.853,0,1.607,0.207,2.26,0.62c0.653,0.413,1.16,1,1.52,1.76
		c0.36,0.76,0.54,1.64,0.54,2.64c0,1.013-0.18,1.9-0.54,2.66c-0.36,0.76-0.867,1.347-1.52,1.76c-0.653,0.414-1.407,0.62-2.26,0.62
		C253.34,166.753,252.587,166.546,251.934,166.133z M256.724,164.843c0.593-0.727,0.89-1.77,0.89-3.13c0-1.32-0.303-2.35-0.91-3.09
		c-0.607-0.74-1.443-1.11-2.51-1.11s-1.903,0.37-2.51,1.11s-0.91,1.77-0.91,3.09c0,1.36,0.296,2.403,0.89,3.13
		c0.593,0.727,1.43,1.09,2.51,1.09C255.281,165.933,256.13,165.57,256.724,164.843z"/>
	<path d="M268.234,156.933h0.88l-4.12,9.68h-0.96l-4.12-9.68h0.9l3.7,8.94L268.234,156.933z"/>
	<path d="M278.954,161.853h-7.52c0.026,1.307,0.356,2.313,0.99,3.02c0.633,0.707,1.536,1.06,2.71,1.06c0.6,0,1.163-0.1,1.69-0.3
		c0.526-0.2,1.05-0.52,1.57-0.96l0.4,0.72c-0.413,0.414-0.947,0.744-1.6,0.99c-0.654,0.247-1.327,0.37-2.02,0.37
		c-1.44,0-2.577-0.447-3.41-1.34s-1.25-2.12-1.25-3.68c0-1,0.187-1.88,0.56-2.64c0.373-0.76,0.9-1.35,1.58-1.77
		c0.68-0.42,1.46-0.63,2.34-0.63c1.253,0,2.227,0.407,2.92,1.22c0.693,0.813,1.04,1.954,1.04,3.42V161.853z M272.544,158.423
		c-0.62,0.633-0.983,1.517-1.09,2.65h6.7c-0.027-1.16-0.313-2.05-0.86-2.67c-0.547-0.62-1.313-0.93-2.3-0.93
		C273.98,157.473,273.164,157.79,272.544,158.423z"/>
	<path d="M286.313,157.453l-0.68,0.08c-1.094,0.107-1.89,0.463-2.39,1.07c-0.5,0.606-0.75,1.343-0.75,2.21v5.8h-0.84v-9.68h0.84v1.7
		c0.307-0.6,0.73-1.05,1.27-1.35c0.54-0.3,1.216-0.483,2.03-0.55l0.42-0.04L286.313,157.453z"/>
	<path d="M295.833,156.933h0.88l-5.68,13.28h-0.86l1.5-3.5l-4.16-9.78h0.9l3.7,8.94L295.833,156.933z"/>
	<path d="M213.095,190.613v-14.1h8.48v0.78h-7.64v5.78h7.24v0.78h-7.24v5.98h7.64v0.78L213.095,190.613L213.095,190.613z"/>
	<path d="M231.454,180.933h0.88l-5.68,13.28h-0.86l1.5-3.5l-4.16-9.78h0.9l3.7,8.94L231.454,180.933z"/>
	<path d="M242.174,185.853h-7.52c0.026,1.307,0.356,2.313,0.99,3.02c0.633,0.707,1.536,1.06,2.71,1.06c0.6,0,1.163-0.1,1.69-0.3
		c0.526-0.2,1.05-0.52,1.57-0.96l0.4,0.72c-0.413,0.414-0.947,0.744-1.6,0.99c-0.654,0.247-1.327,0.37-2.02,0.37
		c-1.44,0-2.577-0.447-3.41-1.34s-1.25-2.12-1.25-3.68c0-1,0.187-1.88,0.56-2.64c0.373-0.76,0.9-1.35,1.58-1.77
		c0.68-0.42,1.46-0.63,2.34-0.63c1.253,0,2.227,0.407,2.92,1.22c0.693,0.813,1.04,1.954,1.04,3.42V185.853L242.174,185.853z
		 M235.764,182.423c-0.62,0.633-0.983,1.517-1.09,2.65h6.7c-0.027-1.16-0.313-2.05-0.86-2.67c-0.547-0.62-1.313-0.93-2.3-0.93
		C237.201,181.473,236.384,181.79,235.764,182.423z"/>
	<path d="M244.874,185.693v-0.76h5.28v0.76H244.874z"/>
	<path d="M253.594,190.613v-14.1h0.82v13.34h7.5v0.76L253.594,190.613L253.594,190.613z"/>
	<path d="M271.713,185.853h-7.52c0.026,1.307,0.356,2.313,0.99,3.02c0.633,0.707,1.536,1.06,2.71,1.06c0.6,0,1.163-0.1,1.69-0.3
		c0.526-0.2,1.05-0.52,1.57-0.96l0.4,0.72c-0.413,0.414-0.947,0.744-1.6,0.99c-0.654,0.247-1.327,0.37-2.02,0.37
		c-1.44,0-2.577-0.447-3.41-1.34s-1.25-2.12-1.25-3.68c0-1,0.187-1.88,0.56-2.64c0.373-0.76,0.9-1.35,1.58-1.77
		c0.68-0.42,1.46-0.63,2.34-0.63c1.253,0,2.227,0.407,2.92,1.22c0.693,0.813,1.04,1.954,1.04,3.42V185.853z M265.303,182.423
		c-0.62,0.633-0.983,1.517-1.09,2.65h6.7c-0.027-1.16-0.313-2.05-0.86-2.67c-0.547-0.62-1.313-0.93-2.3-0.93
		C266.74,181.473,265.923,181.79,265.303,182.423z"/>
	<path d="M281.473,184.273v6.34h-0.86v-1.78c-0.293,0.613-0.717,1.086-1.271,1.42c-0.553,0.334-1.183,0.5-1.89,0.5
		c-0.614,0-1.177-0.127-1.69-0.38c-0.513-0.253-0.92-0.603-1.22-1.05c-0.3-0.446-0.45-0.938-0.45-1.47c0-0.72,0.19-1.277,0.57-1.67
		s1.006-0.676,1.88-0.85c0.873-0.173,2.097-0.26,3.67-0.26h0.4v-0.84c0-0.947-0.188-1.637-0.561-2.07
		c-0.373-0.433-0.967-0.65-1.78-0.65c-0.627,0-1.204,0.083-1.73,0.25c-0.527,0.167-1.077,0.437-1.65,0.81l-0.4-0.72
		c0.493-0.36,1.063-0.644,1.71-0.85c0.646-0.207,1.296-0.31,1.95-0.31C280.367,180.693,281.473,181.886,281.473,184.273z
		 M279.073,189.483c0.479-0.287,0.857-0.683,1.13-1.19s0.41-1.08,0.41-1.72v-0.72h-0.38c-1.4,0-2.467,0.057-3.2,0.17
		c-0.733,0.113-1.247,0.307-1.54,0.58s-0.44,0.677-0.44,1.21c0,0.613,0.227,1.117,0.68,1.51c0.453,0.394,1.026,0.59,1.72,0.59
		C278.053,189.913,278.593,189.77,279.073,189.483z"/>
	<path d="M286.073,180.933h2.92v0.72h-2.92v8.96h-0.84v-8.96h-1.94v-0.72h1.94v-0.62c0-1.213,0.29-2.133,0.87-2.76
		c0.58-0.626,1.457-0.973,2.63-1.04l0.62-0.04l0.1,0.74l-0.92,0.06c-0.84,0.053-1.46,0.333-1.86,0.84c-0.4,0.507-0.6,1.24-0.6,2.2
		V180.933z"/>
	<path d="M297.233,190.133c-0.667-0.413-1.184-1-1.55-1.76c-0.367-0.76-0.55-1.633-0.55-2.62c0-1,0.183-1.883,0.55-2.65
		c0.367-0.767,0.887-1.36,1.56-1.78c0.673-0.42,1.457-0.63,2.35-0.63c0.653,0,1.273,0.117,1.86,0.35s1.067,0.55,1.44,0.95l-0.4,0.72
		c-0.507-0.427-0.987-0.737-1.44-0.93c-0.454-0.193-0.934-0.29-1.439-0.29c-1.107,0-1.98,0.38-2.62,1.14
		c-0.64,0.76-0.96,1.807-0.96,3.14c0,1.307,0.316,2.327,0.95,3.06c0.633,0.733,1.503,1.1,2.61,1.1c0.506,0,0.99-0.093,1.45-0.28
		s0.943-0.493,1.45-0.92l0.4,0.7c-0.387,0.414-0.88,0.737-1.48,0.97c-0.6,0.233-1.213,0.35-1.84,0.35
		C298.679,190.753,297.899,190.546,297.233,190.133z"/>
	<path d="M306.592,190.133c-0.653-0.413-1.16-1-1.52-1.76c-0.36-0.76-0.54-1.646-0.54-2.66c0-1,0.18-1.88,0.54-2.64
		c0.36-0.76,0.867-1.347,1.52-1.76c0.653-0.413,1.406-0.62,2.26-0.62c0.853,0,1.607,0.207,2.26,0.62c0.653,0.413,1.16,1,1.52,1.76
		c0.36,0.76,0.54,1.64,0.54,2.64c0,1.013-0.18,1.9-0.54,2.66c-0.36,0.76-0.867,1.347-1.52,1.76c-0.653,0.414-1.407,0.62-2.26,0.62
		S307.245,190.546,306.592,190.133z M311.382,188.843c0.593-0.727,0.89-1.77,0.89-3.13c0-1.32-0.303-2.35-0.91-3.09
		c-0.607-0.74-1.443-1.11-2.51-1.11s-1.903,0.37-2.51,1.11c-0.607,0.74-0.91,1.77-0.91,3.09c0,1.36,0.296,2.403,0.89,3.13
		c0.593,0.727,1.43,1.09,2.51,1.09C309.939,189.933,310.789,189.57,311.382,188.843z"/>
	<path d="M323.612,184.373v6.24h-0.84v-6.16c0-1.026-0.207-1.776-0.62-2.25c-0.414-0.473-1.08-0.71-2-0.71
		c-1.027,0-1.85,0.317-2.47,0.95c-0.62,0.633-0.93,1.477-0.93,2.53v5.64h-0.84v-9.68h0.82v1.74c0.293-0.64,0.736-1.13,1.33-1.47
		c0.593-0.34,1.27-0.51,2.03-0.51C322.439,180.693,323.612,181.919,323.612,184.373z"/>
	<path d="M328.412,190.133c-0.667-0.413-1.184-1-1.55-1.76c-0.367-0.76-0.55-1.633-0.55-2.62c0-1,0.183-1.883,0.55-2.65
		c0.367-0.767,0.887-1.36,1.56-1.78c0.673-0.42,1.457-0.63,2.35-0.63c0.653,0,1.273,0.117,1.86,0.35s1.067,0.55,1.44,0.95l-0.4,0.72
		c-0.507-0.427-0.987-0.737-1.44-0.93c-0.454-0.193-0.934-0.29-1.44-0.29c-1.107,0-1.98,0.38-2.62,1.14
		c-0.64,0.76-0.96,1.807-0.96,3.14c0,1.307,0.316,2.327,0.95,3.06c0.633,0.733,1.503,1.1,2.61,1.1c0.506,0,0.99-0.093,1.45-0.28
		c0.46-0.187,0.943-0.493,1.45-0.92l0.4,0.7c-0.387,0.414-0.88,0.737-1.48,0.97c-0.6,0.233-1.213,0.35-1.84,0.35
		C329.858,190.753,329.079,190.546,328.412,190.133z"/>
	<path d="M344.152,185.853h-7.52c0.026,1.307,0.356,2.313,0.99,3.02c0.633,0.707,1.536,1.06,2.71,1.06c0.6,0,1.163-0.1,1.69-0.3
		c0.526-0.2,1.05-0.52,1.57-0.96l0.4,0.72c-0.413,0.414-0.947,0.744-1.6,0.99c-0.654,0.247-1.327,0.37-2.02,0.37
		c-1.44,0-2.577-0.447-3.41-1.34s-1.25-2.12-1.25-3.68c0-1,0.187-1.88,0.56-2.64c0.373-0.76,0.9-1.35,1.58-1.77
		c0.68-0.42,1.46-0.63,2.34-0.63c1.253,0,2.227,0.407,2.92,1.22c0.693,0.813,1.04,1.954,1.04,3.42V185.853z M337.742,182.423
		c-0.62,0.633-0.983,1.517-1.09,2.65h6.7c-0.027-1.16-0.313-2.05-0.86-2.67c-0.547-0.62-1.313-0.93-2.3-0.93
		C339.178,181.473,338.362,181.79,337.742,182.423z"/>
	<path d="M353.352,181.323c0.653,0.42,1.16,1.01,1.52,1.77c0.36,0.76,0.54,1.647,0.54,2.66c0,1-0.18,1.877-0.54,2.63
		c-0.36,0.753-0.867,1.337-1.52,1.75c-0.654,0.414-1.407,0.62-2.26,0.62c-0.813,0-1.51-0.18-2.09-0.54
		c-0.58-0.36-1.017-0.88-1.31-1.56v5.56h-0.84v-13.28h0.84v1.82c0.293-0.667,0.73-1.177,1.31-1.53s1.276-0.53,2.09-0.53
		C351.944,180.693,352.698,180.903,353.352,181.323z M353.591,188.843c0.6-0.727,0.9-1.756,0.9-3.09s-0.3-2.373-0.9-3.12
		c-0.6-0.747-1.434-1.12-2.5-1.12c-1.093,0-1.934,0.364-2.52,1.09c-0.587,0.727-0.88,1.763-0.88,3.11c0,1.347,0.293,2.387,0.88,3.12
		c0.586,0.733,1.42,1.1,2.5,1.1C352.151,189.933,352.991,189.57,353.591,188.843z"/>
	<path d="M362.631,189.893l-0.04,0.78c-0.28,0.04-0.58,0.06-0.9,0.06c-1,0-1.77-0.29-2.31-0.87c-0.54-0.58-0.81-1.356-0.81-2.33
		v-5.88h-1.94v-0.72h1.94v-3.02h0.84v3.02h2.92v0.72h-2.92v5.7c0,0.853,0.2,1.5,0.6,1.94c0.4,0.44,0.993,0.66,1.78,0.66
		C362.098,189.953,362.378,189.933,362.631,189.893z"/>
</g>
<g>
	<path d="M1581.416,93.913c-0.939-0.573-1.664-1.403-2.17-2.49c-0.507-1.086-0.76-2.376-0.76-3.87c0-1.493,0.253-2.78,0.76-3.86
		c0.506-1.08,1.23-1.907,2.17-2.48c0.939-0.573,2.057-0.86,3.35-0.86c1.975,0,3.574,0.633,4.801,1.9l-0.42,0.7
		c-0.692-0.64-1.384-1.096-2.069-1.37c-0.688-0.273-1.463-0.41-2.33-0.41c-1.707,0-3.03,0.56-3.971,1.68
		c-0.939,1.12-1.409,2.687-1.409,4.7c0,2.027,0.47,3.6,1.409,4.72s2.264,1.68,3.971,1.68c0.867,0,1.644-0.136,2.33-0.41
		c0.687-0.273,1.377-0.73,2.069-1.37l0.42,0.7c-1.227,1.267-2.826,1.9-4.801,1.9C1583.473,94.773,1582.355,94.486,1581.416,93.913z"
		/>
	<path d="M1593.586,94.133c-0.652-0.413-1.16-1-1.52-1.76c-0.36-0.76-0.541-1.646-0.541-2.66c0-1,0.181-1.88,0.541-2.64
		c0.358-0.76,0.865-1.347,1.52-1.76c0.652-0.413,1.406-0.62,2.26-0.62c0.854,0,1.607,0.207,2.26,0.62c0.653,0.413,1.16,1,1.521,1.76
		c0.36,0.76,0.54,1.64,0.54,2.64c0,1.013-0.18,1.9-0.54,2.66c-0.359,0.76-0.867,1.347-1.521,1.76c-0.651,0.414-1.405,0.62-2.26,0.62
		C1594.992,94.753,1594.238,94.546,1593.586,94.133z M1598.376,92.843c0.593-0.727,0.89-1.77,0.89-3.13c0-1.32-0.303-2.35-0.91-3.09
		c-0.605-0.74-1.442-1.11-2.51-1.11c-1.066,0-1.902,0.37-2.51,1.11s-0.91,1.77-0.91,3.09c0,1.36,0.297,2.403,0.891,3.13
		c0.594,0.727,1.431,1.09,2.511,1.09C1596.934,93.933,1597.782,93.57,1598.376,92.843z"/>
	<path d="M1602.906,94.613v-14.1h0.84v14.1H1602.906z"/>
	<path d="M1608.546,94.133c-0.653-0.413-1.16-1-1.521-1.76c-0.359-0.76-0.539-1.646-0.539-2.66c0-1,0.18-1.88,0.539-2.64
		c0.359-0.76,0.867-1.347,1.521-1.76c0.654-0.413,1.406-0.62,2.261-0.62c0.853,0,1.605,0.207,2.26,0.62
		c0.652,0.413,1.16,1,1.521,1.76c0.359,0.76,0.54,1.64,0.54,2.64c0,1.013-0.181,1.9-0.54,2.66c-0.36,0.76-0.866,1.347-1.521,1.76
		c-0.653,0.414-1.407,0.62-2.26,0.62C1609.952,94.753,1609.199,94.546,1608.546,94.133z M1613.336,92.843
		c0.594-0.727,0.891-1.77,0.891-3.13c0-1.32-0.305-2.35-0.91-3.09c-0.606-0.74-1.442-1.11-2.51-1.11c-1.068,0-1.903,0.37-2.511,1.11
		c-0.606,0.74-0.91,1.77-0.91,3.09c0,1.36,0.296,2.403,0.89,3.13c0.595,0.727,1.431,1.09,2.511,1.09
		C1611.893,93.933,1612.742,93.57,1613.336,92.843z"/>
	<path d="M1622.525,85.453l-0.681,0.08c-1.094,0.107-1.891,0.463-2.391,1.07c-0.5,0.606-0.75,1.343-0.75,2.21v5.8h-0.84v-9.68h0.84
		v1.7c0.307-0.6,0.729-1.05,1.271-1.35c0.541-0.3,1.217-0.483,2.03-0.55l0.42-0.04L1622.525,85.453z"/>
	<path d="M1629.085,80.973h1.28v1.26h-1.28V80.973z M1629.305,94.613v-9.68h0.84v9.68H1629.305z"/>
	<path d="M1638.005,93.893l-0.04,0.78c-0.279,0.04-0.58,0.06-0.9,0.06c-1,0-1.77-0.29-2.31-0.87c-0.54-0.58-0.81-1.356-0.81-2.33
		v-5.88h-1.94v-0.72h1.94v-3.02h0.84v3.02h2.92v0.72h-2.92v5.7c0,0.853,0.199,1.5,0.6,1.94s0.993,0.66,1.779,0.66
		C1637.471,93.953,1637.752,93.933,1638.005,93.893z"/>
	<path d="M1647.604,89.853h-7.521c0.026,1.307,0.356,2.313,0.99,3.02c0.633,0.707,1.536,1.06,2.711,1.06c0.6,0,1.162-0.1,1.688-0.3
		c0.526-0.2,1.051-0.52,1.57-0.96l0.398,0.72c-0.412,0.414-0.945,0.744-1.6,0.99s-1.326,0.37-2.021,0.37
		c-1.439,0-2.576-0.447-3.41-1.34c-0.833-0.893-1.25-2.12-1.25-3.68c0-1,0.188-1.88,0.562-2.64c0.373-0.76,0.899-1.35,1.579-1.77
		c0.681-0.42,1.46-0.63,2.341-0.63c1.252,0,2.227,0.407,2.92,1.22c0.692,0.813,1.039,1.954,1.039,3.42v0.52H1647.604z
		 M1641.193,86.423c-0.619,0.633-0.982,1.517-1.09,2.65h6.7c-0.026-1.16-0.313-2.05-0.86-2.67c-0.547-0.62-1.313-0.93-2.299-0.93
		C1642.631,85.473,1641.814,85.79,1641.193,86.423z"/>
	<path d="M1654.965,85.453l-0.68,0.08c-1.094,0.107-1.891,0.463-2.391,1.07c-0.5,0.606-0.75,1.343-0.75,2.21v5.8h-0.841v-9.68h0.841
		v1.7c0.307-0.6,0.729-1.05,1.27-1.35c0.541-0.3,1.217-0.483,2.029-0.55l0.421-0.04L1654.965,85.453z"/>
	<path d="M1663.764,88.273v6.34h-0.858v-1.78c-0.293,0.613-0.718,1.086-1.271,1.42c-0.554,0.333-1.184,0.5-1.891,0.5
		c-0.613,0-1.178-0.127-1.689-0.38c-0.514-0.253-0.92-0.603-1.221-1.05c-0.3-0.446-0.449-0.938-0.449-1.47
		c0-0.72,0.189-1.277,0.57-1.67c0.379-0.393,1.006-0.676,1.879-0.85s2.098-0.26,3.67-0.26h0.4v-0.84c0-0.947-0.188-1.637-0.561-2.07
		s-0.968-0.65-1.779-0.65c-0.627,0-1.203,0.083-1.73,0.25c-0.525,0.167-1.076,0.437-1.648,0.81l-0.4-0.72
		c0.493-0.36,1.063-0.644,1.71-0.85s1.297-0.31,1.95-0.31C1662.658,84.693,1663.764,85.886,1663.764,88.273z M1661.364,93.483
		c0.479-0.287,0.855-0.683,1.13-1.19c0.273-0.507,0.41-1.08,0.41-1.72v-0.72h-0.381c-1.398,0-2.467,0.057-3.199,0.17
		s-1.246,0.307-1.54,0.58s-0.44,0.677-0.44,1.21c0,0.613,0.228,1.117,0.682,1.51c0.453,0.394,1.025,0.59,1.72,0.59
		C1660.344,93.913,1660.885,93.77,1661.364,93.483z"/>
	<path d="M1671.584,93.893l-0.039,0.78c-0.281,0.04-0.58,0.06-0.9,0.06c-1,0-1.77-0.29-2.311-0.87
		c-0.539-0.58-0.811-1.356-0.811-2.33v-5.88h-1.939v-0.72h1.939v-3.02h0.84v3.02h2.921v0.72h-2.921v5.7
		c0,0.853,0.201,1.5,0.602,1.94c0.398,0.44,0.992,0.66,1.779,0.66C1671.051,93.953,1671.331,93.933,1671.584,93.893z"/>
	<path d="M1673.184,80.973h1.28v1.26h-1.28V80.973z M1673.404,94.613v-9.68h0.84v9.68H1673.404z"/>
	<path d="M1679.044,94.133c-0.653-0.413-1.16-1-1.521-1.76c-0.359-0.76-0.539-1.646-0.539-2.66c0-1,0.18-1.88,0.539-2.64
		c0.359-0.76,0.866-1.347,1.521-1.76s1.406-0.62,2.26-0.62s1.606,0.207,2.261,0.62c0.652,0.413,1.16,1,1.521,1.76
		c0.358,0.76,0.54,1.64,0.54,2.64c0,1.013-0.182,1.9-0.54,2.66c-0.36,0.76-0.867,1.347-1.521,1.76
		c-0.653,0.414-1.407,0.62-2.261,0.62S1679.697,94.546,1679.044,94.133z M1683.834,92.843c0.593-0.727,0.891-1.77,0.891-3.13
		c0-1.32-0.305-2.35-0.91-3.09c-0.606-0.74-1.442-1.11-2.511-1.11c-1.067,0-1.903,0.37-2.51,1.11s-0.91,1.77-0.91,3.09
		c0,1.36,0.296,2.403,0.89,3.13c0.595,0.727,1.431,1.09,2.511,1.09C1682.391,93.933,1683.24,93.57,1683.834,92.843z"/>
	<path d="M1696.063,88.373v6.24h-0.84v-6.16c0-1.026-0.207-1.776-0.619-2.25c-0.414-0.473-1.08-0.71-2-0.71
		c-1.027,0-1.851,0.317-2.471,0.95c-0.619,0.633-0.931,1.477-0.931,2.53v5.64h-0.84v-9.68h0.819v1.74
		c0.293-0.64,0.736-1.13,1.33-1.47c0.594-0.34,1.271-0.51,2.029-0.51C1694.891,84.693,1696.063,85.919,1696.063,88.373z"/>
	<path d="M1698.824,93.433l0.398-0.7c0.521,0.44,1.022,0.747,1.51,0.92c0.488,0.173,1.078,0.26,1.771,0.26
		c0.854,0,1.506-0.153,1.96-0.46c0.453-0.307,0.681-0.74,0.681-1.3c0-0.467-0.147-0.84-0.44-1.12c-0.293-0.28-0.767-0.5-1.42-0.66
		l-1.64-0.38c-0.761-0.173-1.363-0.49-1.811-0.95s-0.67-0.99-0.67-1.59c0-0.826,0.313-1.493,0.939-2
		c0.627-0.506,1.473-0.76,2.539-0.76c0.682,0,1.308,0.113,1.881,0.34c0.572,0.227,1.039,0.547,1.399,0.96l-0.399,0.72
		c-0.428-0.4-0.873-0.697-1.34-0.89c-0.468-0.193-0.98-0.29-1.541-0.29c-0.785,0-1.402,0.16-1.851,0.48
		c-0.446,0.32-0.67,0.76-0.67,1.32c0,0.493,0.137,0.883,0.41,1.17c0.272,0.287,0.702,0.503,1.291,0.65l1.659,0.4
		c1.72,0.4,2.58,1.247,2.58,2.54c0,0.8-0.328,1.443-0.979,1.93c-0.654,0.487-1.533,0.73-2.642,0.73
		C1700.95,94.753,1699.744,94.313,1698.824,93.433z"/>
	<path d="M1720.363,85.313c0.652,0.413,1.16,0.993,1.521,1.74c0.36,0.747,0.54,1.62,0.54,2.62c0,1.013-0.18,1.903-0.54,2.67
		c-0.36,0.767-0.866,1.36-1.521,1.78c-0.653,0.42-1.406,0.63-2.26,0.63c-0.813,0-1.511-0.18-2.09-0.54
		c-0.58-0.36-1.019-0.88-1.312-1.56v1.96h-0.84v-14.1h0.84v6.26c0.293-0.667,0.729-1.18,1.312-1.54c0.579-0.36,1.275-0.54,2.09-0.54
		C1718.957,84.693,1719.71,84.9,1720.363,85.313z M1720.604,92.813c0.601-0.747,0.9-1.793,0.9-3.14c0-1.32-0.301-2.343-0.9-3.07
		c-0.599-0.727-1.438-1.09-2.52-1.09s-1.914,0.367-2.5,1.1c-0.588,0.733-0.881,1.767-0.881,3.1c0,1.347,0.293,2.387,0.881,3.12
		c0.586,0.733,1.426,1.1,2.52,1.1C1719.17,93.933,1720.004,93.56,1720.604,92.813z"/>
	<path d="M1732.943,89.853h-7.521c0.025,1.307,0.354,2.313,0.99,3.02c0.633,0.707,1.535,1.06,2.709,1.06c0.6,0,1.164-0.1,1.69-0.3
		c0.525-0.2,1.049-0.52,1.568-0.96l0.4,0.72c-0.413,0.414-0.947,0.744-1.601,0.99c-0.653,0.247-1.327,0.37-2.02,0.37
		c-1.441,0-2.578-0.447-3.41-1.34c-0.834-0.893-1.25-2.12-1.25-3.68c0-1,0.187-1.88,0.56-2.64c0.373-0.76,0.899-1.35,1.58-1.77
		c0.68-0.42,1.46-0.63,2.34-0.63c1.254,0,2.228,0.407,2.92,1.22c0.693,0.813,1.041,1.954,1.041,3.42v0.52H1732.943z
		 M1726.533,86.423c-0.619,0.633-0.983,1.517-1.09,2.65h6.699c-0.025-1.16-0.313-2.05-0.859-2.67c-0.547-0.62-1.313-0.93-2.301-0.93
		C1727.97,85.473,1727.152,85.79,1726.533,86.423z"/>
	<path d="M1735.643,94.613v-14.1h0.84v14.1H1735.643z"/>
	<path d="M1741.283,94.133c-0.654-0.413-1.16-1-1.521-1.76c-0.359-0.76-0.54-1.646-0.54-2.66c0-1,0.181-1.88,0.54-2.64
		c0.36-0.76,0.866-1.347,1.521-1.76c0.652-0.413,1.406-0.62,2.26-0.62s1.605,0.207,2.26,0.62c0.652,0.413,1.16,1,1.521,1.76
		c0.36,0.76,0.541,1.64,0.541,2.64c0,1.013-0.181,1.9-0.541,2.66c-0.359,0.76-0.867,1.347-1.521,1.76
		c-0.652,0.414-1.406,0.62-2.26,0.62S1741.936,94.546,1741.283,94.133z M1746.072,92.843c0.594-0.727,0.891-1.77,0.891-3.13
		c0-1.32-0.304-2.35-0.91-3.09c-0.607-0.74-1.443-1.11-2.51-1.11s-1.904,0.37-2.51,1.11c-0.607,0.74-0.91,1.77-0.91,3.09
		c0,1.36,0.296,2.403,0.89,3.13c0.593,0.727,1.431,1.09,2.511,1.09C1744.629,93.933,1745.479,93.57,1746.072,92.843z"/>
	<path d="M1763.742,84.933h0.9l-3.439,9.68h-1l-3.061-8.64l-3.119,8.64h-1l-3.4-9.68h0.92l2.98,8.7l3.119-8.7h1.02l3.041,8.68
		L1763.742,84.933z"/>
</g>
</svg>
