<?xml version="1.0" encoding="utf-8"?>
<!-- Generator: Adobe Illustrator 16.0.0, SVG Export Plug-In . SVG Version: 6.00 Build 0)  -->
<!DOCTYPE svg PUBLIC "-//W3C//DTD SVG 1.1//EN" "http://www.w3.org/Graphics/SVG/1.1/DTD/svg11.dtd">
<svg version="1.1" id="Layer_1" xmlns="http://www.w3.org/2000/svg" xmlns:xlink="http://www.w3.org/1999/xlink" x="0px" y="0px"
	 width="1920px" height="214.107px" viewBox="0 0 1920 214.107" enable-background="new 0 0 1920 214.107" xml:space="preserve">
<g>
	<path d="M131.592,92.943c-0.813-1.22-1.22-3.01-1.22-5.37c0-2.373,0.403-4.17,1.21-5.39c0.806-1.22,1.99-1.83,3.55-1.83
		c1.56,0,2.743,0.606,3.55,1.82s1.21,3.007,1.21,5.38c0,2.36-0.407,4.153-1.22,5.38s-1.994,1.84-3.54,1.84
		C133.585,94.773,132.405,94.163,131.592,92.943z M138.042,92.373c0.633-1.04,0.95-2.646,0.95-4.82c0-2.187-0.313-3.796-0.94-4.83
		c-0.627-1.033-1.6-1.55-2.92-1.55c-1.307,0-2.277,0.52-2.91,1.56c-0.633,1.04-0.95,2.647-0.95,4.82c0,2.16,0.316,3.764,0.95,4.81
		c0.633,1.047,1.604,1.57,2.91,1.57C136.438,93.933,137.408,93.413,138.042,92.373z"/>
	<path d="M151.772,93.853v0.76h-8.74v-0.64l5.08-5.72c0.76-0.867,1.307-1.63,1.64-2.29s0.5-1.33,0.5-2.01
		c0-0.893-0.26-1.583-0.78-2.07c-0.52-0.487-1.253-0.73-2.2-0.73c-0.747,0-1.457,0.144-2.13,0.43c-0.673,0.286-1.343,0.73-2.01,1.33
		l-0.42-0.7c0.56-0.56,1.25-1.01,2.07-1.35c0.82-0.34,1.637-0.51,2.45-0.51c1.2,0,2.146,0.32,2.84,0.96
		c0.693,0.64,1.04,1.513,1.04,2.62c0,0.813-0.19,1.61-0.57,2.39c-0.38,0.78-1.003,1.65-1.87,2.61l-4.46,4.92H151.772z"/>
</g>
<g>
	<path d="M213.095,94.613v-14.1h0.82v13.34h7.5v0.76H213.095z"/>
	<path d="M224.834,94.133c-0.653-0.413-1.16-1-1.52-1.76c-0.36-0.76-0.54-1.646-0.54-2.66c0-1,0.18-1.88,0.54-2.64
		c0.36-0.76,0.867-1.347,1.52-1.76s1.406-0.62,2.26-0.62s1.607,0.207,2.26,0.62s1.16,1,1.52,1.76c0.36,0.76,0.54,1.64,0.54,2.64
		c0,1.013-0.18,1.9-0.54,2.66c-0.36,0.76-0.867,1.347-1.52,1.76c-0.653,0.414-1.407,0.62-2.26,0.62
		C226.241,94.753,225.487,94.546,224.834,94.133z M229.625,92.843c0.593-0.727,0.89-1.77,0.89-3.13c0-1.32-0.303-2.35-0.91-3.09
		s-1.443-1.11-2.51-1.11c-1.067,0-1.903,0.37-2.51,1.11s-0.91,1.77-0.91,3.09c0,1.36,0.296,2.403,0.89,3.13
		c0.593,0.727,1.43,1.09,2.51,1.09C228.181,93.933,229.031,93.57,229.625,92.843z"/>
	<path d="M242.135,84.933v9.22c0,1.387-0.327,2.433-0.979,3.14c-0.654,0.707-1.627,1.06-2.92,1.06c-1.613,0-2.98-0.46-4.1-1.38
		l0.4-0.7c0.667,0.48,1.267,0.81,1.8,0.99c0.533,0.18,1.173,0.27,1.92,0.27c1,0,1.76-0.277,2.28-0.83
		c0.52-0.553,0.78-1.363,0.78-2.43v-2.1c-0.28,0.693-0.717,1.223-1.31,1.59c-0.593,0.367-1.31,0.55-2.15,0.55
		c-0.854,0-1.61-0.2-2.27-0.6s-1.173-0.967-1.54-1.7s-0.55-1.573-0.55-2.52c0-0.946,0.183-1.783,0.55-2.51s0.88-1.29,1.54-1.69
		s1.417-0.6,2.27-0.6c0.827,0,1.533,0.18,2.12,0.54c0.586,0.36,1.026,0.874,1.32,1.54v-1.84H242.135z M240.385,92.423
		c0.606-0.713,0.91-1.69,0.91-2.93c0-1.24-0.303-2.213-0.91-2.92c-0.607-0.707-1.45-1.06-2.53-1.06c-1.067,0-1.91,0.354-2.53,1.06
		c-0.62,0.707-0.93,1.68-0.93,2.92c0,1.253,0.31,2.233,0.93,2.94c0.62,0.707,1.463,1.06,2.53,1.06
		C238.935,93.493,239.778,93.136,240.385,92.423z"/>
	<path d="M246.934,94.133c-0.653-0.413-1.16-1-1.52-1.76c-0.36-0.76-0.54-1.646-0.54-2.66c0-1,0.18-1.88,0.54-2.64
		c0.36-0.76,0.867-1.347,1.52-1.76s1.406-0.62,2.26-0.62c0.853,0,1.607,0.207,2.26,0.62c0.653,0.413,1.16,1,1.52,1.76
		c0.36,0.76,0.54,1.64,0.54,2.64c0,1.013-0.18,1.9-0.54,2.66c-0.36,0.76-0.867,1.347-1.52,1.76c-0.653,0.414-1.407,0.62-2.26,0.62
		C248.34,94.753,247.587,94.546,246.934,94.133z M251.724,92.843c0.593-0.727,0.89-1.77,0.89-3.13c0-1.32-0.303-2.35-0.91-3.09
		s-1.443-1.11-2.51-1.11s-1.903,0.37-2.51,1.11s-0.91,1.77-0.91,3.09c0,1.36,0.296,2.403,0.89,3.13c0.593,0.727,1.43,1.09,2.51,1.09
		C250.281,93.933,251.13,93.57,251.724,92.843z"/>
	<path d="M215.445,141.913c-0.94-0.573-1.664-1.403-2.17-2.49c-0.507-1.086-0.76-2.376-0.76-3.87c0-1.493,0.253-2.78,0.76-3.86
		c0.506-1.08,1.23-1.907,2.17-2.48c0.94-0.573,2.057-0.86,3.35-0.86c1.973,0,3.573,0.633,4.8,1.9l-0.42,0.7
		c-0.693-0.64-1.383-1.096-2.07-1.37c-0.687-0.273-1.463-0.41-2.33-0.41c-1.707,0-3.03,0.56-3.97,1.68s-1.41,2.687-1.41,4.7
		c0,2.027,0.47,3.6,1.41,4.72s2.263,1.68,3.97,1.68c0.867,0,1.643-0.136,2.33-0.41c0.687-0.273,1.376-0.73,2.07-1.37l0.42,0.7
		c-1.227,1.267-2.827,1.9-4.8,1.9C217.501,142.773,216.385,142.486,215.445,141.913z"/>
	<path d="M234.114,136.373v6.24h-0.84v-6.16c0-1.026-0.207-1.776-0.62-2.25c-0.414-0.473-1.08-0.71-2-0.71
		c-1.027,0-1.85,0.317-2.47,0.95c-0.62,0.633-0.93,1.477-0.93,2.53v5.64h-0.84v-14.1h0.84v6.12c0.293-0.626,0.733-1.106,1.32-1.44
		c0.587-0.333,1.26-0.5,2.02-0.5C232.941,132.693,234.114,133.919,234.114,136.373z"/>
	<path d="M245.254,137.853h-7.52c0.026,1.307,0.356,2.313,0.99,3.02c0.633,0.707,1.536,1.06,2.71,1.06c0.6,0,1.163-0.1,1.69-0.3
		c0.526-0.2,1.05-0.52,1.57-0.96l0.4,0.72c-0.413,0.414-0.947,0.744-1.6,0.99c-0.654,0.247-1.327,0.37-2.02,0.37
		c-1.44,0-2.577-0.447-3.41-1.34s-1.25-2.12-1.25-3.68c0-1,0.187-1.88,0.56-2.64c0.373-0.76,0.9-1.35,1.58-1.77
		c0.68-0.42,1.46-0.63,2.34-0.63c1.253,0,2.227,0.407,2.92,1.22c0.693,0.813,1.04,1.954,1.04,3.42V137.853L245.254,137.853z
		 M238.844,134.423c-0.62,0.633-0.983,1.517-1.09,2.65h6.7c-0.027-1.16-0.313-2.05-0.86-2.67c-0.547-0.62-1.313-0.93-2.3-0.93
		C240.281,133.473,239.464,133.79,238.844,134.423z"/>
	<path d="M255.734,137.853h-7.52c0.026,1.307,0.356,2.313,0.99,3.02c0.633,0.707,1.536,1.06,2.71,1.06c0.6,0,1.163-0.1,1.69-0.3
		c0.526-0.2,1.05-0.52,1.57-0.96l0.4,0.72c-0.413,0.414-0.947,0.744-1.6,0.99c-0.654,0.247-1.327,0.37-2.02,0.37
		c-1.44,0-2.577-0.447-3.41-1.34s-1.25-2.12-1.25-3.68c0-1,0.187-1.88,0.56-2.64c0.373-0.76,0.9-1.35,1.58-1.77
		c0.68-0.42,1.46-0.63,2.34-0.63c1.253,0,2.227,0.407,2.92,1.22s1.04,1.954,1.04,3.42V137.853z M249.324,134.423
		c-0.62,0.633-0.983,1.517-1.09,2.65h6.7c-0.027-1.16-0.313-2.05-0.86-2.67c-0.547-0.62-1.313-0.93-2.3-0.93
		C250.76,133.473,249.944,133.79,249.324,134.423z"/>
	<path d="M263.094,133.453l-0.68,0.08c-1.094,0.107-1.89,0.463-2.39,1.07c-0.5,0.606-0.75,1.343-0.75,2.21v5.8h-0.84v-9.68h0.84v1.7
		c0.307-0.6,0.73-1.05,1.27-1.35c0.54-0.3,1.216-0.483,2.03-0.55l0.42-0.04L263.094,133.453z"/>
	<path d="M266.854,132.933h2.92v0.72h-2.92v8.96h-0.84v-8.96h-1.94v-0.72h1.94v-0.62c0-1.213,0.29-2.133,0.87-2.76
		c0.58-0.626,1.457-0.973,2.63-1.04l0.62-0.04l0.1,0.74l-0.92,0.06c-0.84,0.053-1.46,0.333-1.86,0.84c-0.4,0.507-0.6,1.24-0.6,2.2
		V132.933z"/>
	<path d="M279.153,132.933v9.68h-0.82v-1.82c-0.307,0.626-0.75,1.11-1.33,1.45c-0.58,0.34-1.237,0.51-1.97,0.51
		c-1.12,0-1.97-0.313-2.55-0.94c-0.58-0.627-0.87-1.547-0.87-2.76v-6.12h0.84v6.04c0,1.014,0.207,1.76,0.62,2.24
		c0.413,0.48,1.053,0.72,1.92,0.72c1,0,1.803-0.316,2.41-0.95c0.605-0.633,0.91-1.477,0.91-2.53v-5.52H279.153z"/>
	<path d="M282.553,142.613v-14.1h0.84v14.1H282.553z"/>
	<path d="M214.435,166.313c-0.827-0.307-1.573-0.787-2.24-1.44l0.42-0.7c0.707,0.653,1.413,1.113,2.12,1.38
		c0.707,0.267,1.573,0.4,2.6,0.4c1.267,0,2.247-0.263,2.94-0.79c0.693-0.526,1.04-1.276,1.04-2.25c0-0.56-0.173-1.013-0.52-1.36
		c-0.347-0.347-0.773-0.61-1.28-0.79c-0.507-0.18-1.187-0.37-2.04-0.57c-1.146-0.28-2.03-0.53-2.65-0.75
		c-0.62-0.22-1.173-0.586-1.66-1.1c-0.487-0.513-0.73-1.21-0.73-2.09c0-0.787,0.197-1.473,0.59-2.06c0.393-0.586,0.96-1.04,1.7-1.36
		c0.74-0.32,1.604-0.48,2.59-0.48c1.933,0,3.513,0.633,4.74,1.9l-0.42,0.7c-0.667-0.626-1.343-1.08-2.03-1.36
		c-0.687-0.28-1.45-0.42-2.29-0.42c-1.267,0-2.253,0.273-2.96,0.82c-0.707,0.547-1.06,1.313-1.06,2.3c0,0.853,0.307,1.483,0.92,1.89
		c0.613,0.407,1.473,0.75,2.58,1.03l0.86,0.2c0.96,0.214,1.74,0.43,2.34,0.65c0.6,0.22,1.11,0.563,1.53,1.03
		c0.42,0.467,0.63,1.093,0.63,1.88c0,0.747-0.2,1.407-0.6,1.98c-0.4,0.574-0.963,1.02-1.69,1.34c-0.727,0.32-1.57,0.48-2.53,0.48
		C216.228,166.773,215.261,166.619,214.435,166.313z"/>
	<path d="M238.155,160.373v6.24h-0.84v-6.16c0-1.026-0.187-1.776-0.56-2.25c-0.374-0.473-0.967-0.71-1.78-0.71
		c-0.933,0-1.677,0.313-2.23,0.94c-0.553,0.627-0.83,1.474-0.83,2.54v5.64h-0.84v-6.16c0-1.026-0.187-1.776-0.56-2.25
		c-0.374-0.473-0.967-0.71-1.78-0.71c-0.934,0-1.677,0.313-2.23,0.94c-0.554,0.627-0.83,1.474-0.83,2.54v5.64h-0.84v-9.68h0.82v1.7
		c0.267-0.626,0.663-1.106,1.19-1.44c0.526-0.333,1.15-0.5,1.87-0.5c1.546,0,2.54,0.647,2.98,1.94c0.28-0.6,0.71-1.073,1.29-1.42
		c0.58-0.347,1.236-0.52,1.97-0.52C237.088,156.693,238.155,157.919,238.155,160.373z"/>
	<path d="M241.294,152.973h1.28v1.26h-1.28V152.973z M241.515,166.613v-9.68h0.84v9.68H241.515z"/>
	<path d="M245.755,166.613v-14.1h0.84v14.1H245.755z"/>
	<path d="M257.774,161.853h-7.52c0.026,1.307,0.356,2.313,0.99,3.02c0.633,0.707,1.536,1.06,2.71,1.06c0.6,0,1.163-0.1,1.69-0.3
		c0.526-0.2,1.05-0.52,1.57-0.96l0.4,0.72c-0.413,0.414-0.947,0.744-1.6,0.99c-0.654,0.247-1.327,0.37-2.02,0.37
		c-1.44,0-2.577-0.447-3.41-1.34s-1.25-2.12-1.25-3.68c0-1,0.187-1.88,0.56-2.64c0.373-0.76,0.9-1.35,1.58-1.77
		c0.68-0.42,1.46-0.63,2.34-0.63c1.253,0,2.227,0.407,2.92,1.22s1.04,1.954,1.04,3.42V161.853z M251.364,158.423
		c-0.62,0.633-0.983,1.517-1.09,2.65h6.7c-0.027-1.16-0.313-2.05-0.86-2.67c-0.547-0.62-1.313-0.93-2.3-0.93
		C252.801,157.473,251.984,157.79,251.364,158.423z"/>
	<path d="M213.095,190.613v-14.1h8.28v0.78h-7.46v5.78h7.06v0.76h-7.06v6.78L213.095,190.613L213.095,190.613z"/>
	<path d="M228.294,181.453l-0.68,0.08c-1.094,0.107-1.89,0.463-2.39,1.07c-0.5,0.606-0.75,1.343-0.75,2.21v5.8h-0.84v-9.68h0.84v1.7
		c0.307-0.6,0.73-1.05,1.27-1.35c0.54-0.3,1.216-0.483,2.03-0.55l0.42-0.04L228.294,181.453z"/>
	<path d="M237.655,180.933v9.68h-0.82v-1.82c-0.307,0.626-0.75,1.11-1.33,1.45c-0.58,0.34-1.237,0.51-1.97,0.51
		c-1.12,0-1.97-0.313-2.55-0.94s-0.87-1.547-0.87-2.76v-6.12h0.84v6.04c0,1.014,0.207,1.76,0.62,2.24
		c0.413,0.48,1.053,0.72,1.92,0.72c1,0,1.803-0.316,2.41-0.95c0.606-0.633,0.91-1.477,0.91-2.53v-5.52H237.655z"/>
	<path d="M240.834,176.973h1.28v1.26h-1.28V176.973z M241.055,190.613v-9.68h0.84v9.68H241.055z"/>
	<path d="M249.754,189.893l-0.04,0.78c-0.28,0.04-0.58,0.06-0.9,0.06c-1,0-1.77-0.29-2.31-0.87c-0.54-0.58-0.81-1.356-0.81-2.33
		v-5.88h-1.94v-0.72h1.94v-3.02h0.84v3.02h2.92v0.72h-2.92v5.7c0,0.853,0.2,1.5,0.6,1.94c0.4,0.44,0.993,0.66,1.78,0.66
		C249.221,189.953,249.501,189.933,249.754,189.893z"/>
	<path d="M258.714,180.933h0.88l-5.68,13.28h-0.86l1.5-3.5l-4.16-9.78h0.9l3.7,8.94L258.714,180.933z"/>
	<path d="M277.674,190.613l-1.68-3.9h-7.82l-1.68,3.9h-0.86l6.06-14.1h0.8l6.06,14.1H277.674z M268.514,185.913h7.14l-3.561-8.32
		L268.514,185.913z"/>
	<path d="M288.713,185.853h-7.52c0.026,1.307,0.356,2.313,0.99,3.02c0.633,0.707,1.536,1.06,2.71,1.06c0.6,0,1.163-0.1,1.69-0.3
		c0.526-0.2,1.05-0.52,1.57-0.96l0.4,0.72c-0.413,0.414-0.947,0.744-1.6,0.99c-0.654,0.247-1.327,0.37-2.02,0.37
		c-1.44,0-2.577-0.447-3.41-1.34s-1.25-2.12-1.25-3.68c0-1,0.187-1.88,0.56-2.64c0.373-0.76,0.9-1.35,1.58-1.77
		c0.68-0.42,1.46-0.63,2.34-0.63c1.253,0,2.227,0.407,2.92,1.22c0.693,0.813,1.04,1.954,1.04,3.42V185.853z M282.303,182.423
		c-0.62,0.633-0.983,1.517-1.09,2.65h6.7c-0.027-1.16-0.313-2.05-0.86-2.67c-0.547-0.62-1.313-0.93-2.3-0.93
		C283.74,181.473,282.923,181.79,282.303,182.423z"/>
	<path d="M290.813,189.433l0.4-0.7c0.52,0.44,1.023,0.747,1.51,0.92c0.487,0.173,1.077,0.26,1.77,0.26
		c0.854,0,1.507-0.153,1.96-0.46c0.453-0.307,0.68-0.74,0.68-1.3c0-0.467-0.147-0.84-0.44-1.12c-0.293-0.28-0.767-0.5-1.42-0.66
		l-1.64-0.38c-0.76-0.173-1.363-0.49-1.81-0.95c-0.447-0.46-0.67-0.99-0.67-1.59c0-0.826,0.313-1.493,0.94-2
		c0.626-0.506,1.473-0.76,2.54-0.76c0.68,0,1.307,0.113,1.88,0.34c0.573,0.227,1.04,0.547,1.4,0.96l-0.4,0.72
		c-0.427-0.4-0.873-0.697-1.34-0.89c-0.467-0.193-0.98-0.29-1.54-0.29c-0.787,0-1.403,0.16-1.85,0.48
		c-0.447,0.32-0.67,0.76-0.67,1.32c0,0.493,0.137,0.883,0.41,1.17s0.703,0.503,1.29,0.65l1.66,0.4c1.72,0.4,2.58,1.247,2.58,2.54
		c0,0.8-0.327,1.443-0.98,1.93c-0.653,0.487-1.533,0.73-2.64,0.73C292.94,190.753,291.733,190.313,290.813,189.433z"/>
	<path d="M305.293,189.893l-0.04,0.78c-0.28,0.04-0.58,0.06-0.9,0.06c-1,0-1.77-0.29-2.31-0.87c-0.54-0.58-0.81-1.356-0.81-2.33
		v-5.88h-1.94v-0.72h1.94v-3.02h0.84v3.02h2.92v0.72h-2.92v5.7c0,0.853,0.2,1.5,0.6,1.94c0.4,0.44,0.993,0.66,1.78,0.66
		C304.76,189.953,305.04,189.933,305.293,189.893z"/>
	<path d="M314.813,184.373v6.24h-0.84v-6.16c0-1.026-0.207-1.776-0.62-2.25c-0.414-0.473-1.08-0.71-2-0.71
		c-1.027,0-1.85,0.317-2.47,0.95c-0.62,0.633-0.93,1.477-0.93,2.53v5.64h-0.84v-14.1h0.84v6.12c0.293-0.626,0.733-1.106,1.32-1.44
		c0.587-0.333,1.26-0.5,2.02-0.5C313.64,180.693,314.813,181.919,314.813,184.373z"/>
	<path d="M325.953,185.853h-7.52c0.026,1.307,0.356,2.313,0.99,3.02c0.633,0.707,1.536,1.06,2.71,1.06c0.6,0,1.163-0.1,1.69-0.3
		c0.526-0.2,1.05-0.52,1.57-0.96l0.4,0.72c-0.413,0.414-0.947,0.744-1.6,0.99c-0.654,0.247-1.327,0.37-2.02,0.37
		c-1.44,0-2.577-0.447-3.41-1.34s-1.25-2.12-1.25-3.68c0-1,0.187-1.88,0.56-2.64c0.373-0.76,0.9-1.35,1.58-1.77
		c0.68-0.42,1.46-0.63,2.34-0.63c1.253,0,2.227,0.407,2.92,1.22c0.693,0.813,1.04,1.954,1.04,3.42V185.853z M319.543,182.423
		c-0.62,0.633-0.983,1.517-1.09,2.65h6.7c-0.027-1.16-0.313-2.05-0.86-2.67c-0.547-0.62-1.313-0.93-2.3-0.93
		C320.979,181.473,320.163,181.79,319.543,182.423z"/>
	<path d="M333.133,189.893l-0.04,0.78c-0.28,0.04-0.58,0.06-0.9,0.06c-1,0-1.77-0.29-2.31-0.87c-0.54-0.58-0.81-1.356-0.81-2.33
		v-5.88h-1.94v-0.72h1.94v-3.02h0.84v3.02h2.92v0.72h-2.92v5.7c0,0.853,0.2,1.5,0.6,1.94s0.993,0.66,1.78,0.66
		C332.599,189.953,332.879,189.933,333.133,189.893z"/>
	<path d="M334.733,176.973h1.28v1.26h-1.28V176.973z M334.953,190.613v-9.68h0.84v9.68H334.953z"/>
	<path d="M340.633,190.133c-0.667-0.413-1.184-1-1.55-1.76c-0.367-0.76-0.55-1.633-0.55-2.62c0-1,0.183-1.883,0.55-2.65
		s0.887-1.36,1.56-1.78c0.673-0.42,1.457-0.63,2.35-0.63c0.653,0,1.273,0.117,1.86,0.35s1.067,0.55,1.44,0.95l-0.4,0.72
		c-0.507-0.427-0.987-0.737-1.44-0.93c-0.454-0.193-0.934-0.29-1.44-0.29c-1.107,0-1.98,0.38-2.62,1.14
		c-0.64,0.76-0.96,1.807-0.96,3.14c0,1.307,0.316,2.327,0.95,3.06c0.633,0.733,1.503,1.1,2.61,1.1c0.506,0,0.99-0.093,1.45-0.28
		s0.943-0.493,1.45-0.92l0.4,0.7c-0.387,0.414-0.88,0.737-1.48,0.97c-0.6,0.233-1.213,0.35-1.84,0.35
		C342.079,190.753,341.299,190.546,340.633,190.133z"/>
</g>
<g>
	<path d="M1581.416,93.913c-0.939-0.573-1.664-1.403-2.17-2.49c-0.507-1.086-0.76-2.376-0.76-3.87c0-1.493,0.253-2.78,0.76-3.86
		c0.506-1.08,1.23-1.907,2.17-2.48c0.939-0.573,2.057-0.86,3.35-0.86c1.975,0,3.574,0.633,4.801,1.9l-0.42,0.7
		c-0.692-0.64-1.384-1.096-2.069-1.37c-0.688-0.273-1.463-0.41-2.33-0.41c-1.707,0-3.03,0.56-3.971,1.68
		c-0.939,1.12-1.409,2.687-1.409,4.7c0,2.027,0.47,3.6,1.409,4.72s2.264,1.68,3.971,1.68c0.867,0,1.644-0.136,2.33-0.41
		c0.687-0.273,1.377-0.73,2.069-1.37l0.42,0.7c-1.227,1.267-2.826,1.9-4.801,1.9C1583.473,94.773,1582.355,94.486,1581.416,93.913z"
		/>
	<path d="M1593.586,94.133c-0.652-0.413-1.16-1-1.52-1.76c-0.36-0.76-0.541-1.646-0.541-2.66c0-1,0.181-1.88,0.541-2.64
		c0.358-0.76,0.865-1.347,1.52-1.76c0.652-0.413,1.406-0.62,2.26-0.62c0.854,0,1.607,0.207,2.26,0.62c0.653,0.413,1.16,1,1.521,1.76
		c0.36,0.76,0.54,1.64,0.54,2.64c0,1.013-0.18,1.9-0.54,2.66c-0.359,0.76-0.867,1.347-1.521,1.76c-0.651,0.414-1.405,0.62-2.26,0.62
		C1594.992,94.753,1594.238,94.546,1593.586,94.133z M1598.376,92.843c0.593-0.727,0.89-1.77,0.89-3.13c0-1.32-0.303-2.35-0.91-3.09
		c-0.605-0.74-1.442-1.11-2.51-1.11c-1.066,0-1.902,0.37-2.51,1.11s-0.91,1.77-0.91,3.09c0,1.36,0.297,2.403,0.891,3.13
		c0.594,0.727,1.431,1.09,2.511,1.09C1596.934,93.933,1597.782,93.57,1598.376,92.843z"/>
	<path d="M1602.906,94.613v-14.1h0.84v14.1H1602.906z"/>
	<path d="M1608.546,94.133c-0.653-0.413-1.16-1-1.521-1.76c-0.359-0.76-0.539-1.646-0.539-2.66c0-1,0.18-1.88,0.539-2.64
		c0.359-0.76,0.867-1.347,1.521-1.76c0.654-0.413,1.406-0.62,2.261-0.62c0.853,0,1.605,0.207,2.26,0.62
		c0.652,0.413,1.16,1,1.521,1.76c0.359,0.76,0.54,1.64,0.54,2.64c0,1.013-0.181,1.9-0.54,2.66c-0.36,0.76-0.866,1.347-1.521,1.76
		c-0.653,0.414-1.407,0.62-2.26,0.62C1609.952,94.753,1609.199,94.546,1608.546,94.133z M1613.336,92.843
		c0.594-0.727,0.891-1.77,0.891-3.13c0-1.32-0.305-2.35-0.91-3.09c-0.606-0.74-1.442-1.11-2.51-1.11c-1.068,0-1.903,0.37-2.511,1.11
		c-0.606,0.74-0.91,1.77-0.91,3.09c0,1.36,0.296,2.403,0.89,3.13c0.595,0.727,1.431,1.09,2.511,1.09
		C1611.893,93.933,1612.742,93.57,1613.336,92.843z"/>
	<path d="M1622.525,85.453l-0.681,0.08c-1.094,0.107-1.891,0.463-2.391,1.07c-0.5,0.606-0.75,1.343-0.75,2.21v5.8h-0.84v-9.68h0.84
		v1.7c0.307-0.6,0.729-1.05,1.271-1.35c0.541-0.3,1.217-0.483,2.03-0.55l0.42-0.04L1622.525,85.453z"/>
	<path d="M1629.085,80.973h1.28v1.26h-1.28V80.973z M1629.305,94.613v-9.68h0.84v9.68H1629.305z"/>
	<path d="M1638.005,93.893l-0.04,0.78c-0.279,0.04-0.58,0.06-0.9,0.06c-1,0-1.77-0.29-2.31-0.87c-0.54-0.58-0.81-1.356-0.81-2.33
		v-5.88h-1.94v-0.72h1.94v-3.02h0.84v3.02h2.92v0.72h-2.92v5.7c0,0.853,0.199,1.5,0.6,1.94s0.993,0.66,1.779,0.66
		C1637.471,93.953,1637.752,93.933,1638.005,93.893z"/>
	<path d="M1647.604,89.853h-7.521c0.026,1.307,0.356,2.313,0.99,3.02c0.633,0.707,1.536,1.06,2.711,1.06c0.6,0,1.162-0.1,1.688-0.3
		c0.526-0.2,1.051-0.52,1.57-0.96l0.398,0.72c-0.412,0.414-0.945,0.744-1.6,0.99s-1.326,0.37-2.021,0.37
		c-1.439,0-2.576-0.447-3.41-1.34c-0.833-0.893-1.25-2.12-1.25-3.68c0-1,0.188-1.88,0.562-2.64c0.373-0.76,0.899-1.35,1.579-1.77
		c0.681-0.42,1.46-0.63,2.341-0.63c1.252,0,2.227,0.407,2.92,1.22c0.692,0.813,1.039,1.954,1.039,3.42v0.52H1647.604z
		 M1641.193,86.423c-0.619,0.633-0.982,1.517-1.09,2.65h6.7c-0.026-1.16-0.313-2.05-0.86-2.67c-0.547-0.62-1.313-0.93-2.299-0.93
		C1642.631,85.473,1641.814,85.79,1641.193,86.423z"/>
	<path d="M1654.965,85.453l-0.68,0.08c-1.094,0.107-1.891,0.463-2.391,1.07c-0.5,0.606-0.75,1.343-0.75,2.21v5.8h-0.841v-9.68h0.841
		v1.7c0.307-0.6,0.729-1.05,1.27-1.35c0.541-0.3,1.217-0.483,2.029-0.55l0.421-0.04L1654.965,85.453z"/>
	<path d="M1663.764,88.273v6.34h-0.858v-1.78c-0.293,0.613-0.718,1.086-1.271,1.42c-0.554,0.333-1.184,0.5-1.891,0.5
		c-0.613,0-1.178-0.127-1.689-0.38c-0.514-0.253-0.92-0.603-1.221-1.05c-0.3-0.446-0.449-0.938-0.449-1.47
		c0-0.72,0.189-1.277,0.57-1.67c0.379-0.393,1.006-0.676,1.879-0.85s2.098-0.26,3.67-0.26h0.4v-0.84c0-0.947-0.188-1.637-0.561-2.07
		s-0.968-0.65-1.779-0.65c-0.627,0-1.203,0.083-1.73,0.25c-0.525,0.167-1.076,0.437-1.648,0.81l-0.4-0.72
		c0.493-0.36,1.063-0.644,1.71-0.85s1.297-0.31,1.95-0.31C1662.658,84.693,1663.764,85.886,1663.764,88.273z M1661.364,93.483
		c0.479-0.287,0.855-0.683,1.13-1.19c0.273-0.507,0.41-1.08,0.41-1.72v-0.72h-0.381c-1.398,0-2.467,0.057-3.199,0.17
		s-1.246,0.307-1.54,0.58s-0.44,0.677-0.44,1.21c0,0.613,0.228,1.117,0.682,1.51c0.453,0.394,1.025,0.59,1.72,0.59
		C1660.344,93.913,1660.885,93.77,1661.364,93.483z"/>
	<path d="M1671.584,93.893l-0.039,0.78c-0.281,0.04-0.58,0.06-0.9,0.06c-1,0-1.77-0.29-2.311-0.87
		c-0.539-0.58-0.811-1.356-0.811-2.33v-5.88h-1.939v-0.72h1.939v-3.02h0.84v3.02h2.921v0.72h-2.921v5.7
		c0,0.853,0.201,1.5,0.602,1.94c0.398,0.44,0.992,0.66,1.779,0.66C1671.051,93.953,1671.331,93.933,1671.584,93.893z"/>
	<path d="M1673.184,80.973h1.28v1.26h-1.28V80.973z M1673.404,94.613v-9.68h0.84v9.68H1673.404z"/>
	<path d="M1679.044,94.133c-0.653-0.413-1.16-1-1.521-1.76c-0.359-0.76-0.539-1.646-0.539-2.66c0-1,0.18-1.88,0.539-2.64
		c0.359-0.76,0.866-1.347,1.521-1.76s1.406-0.62,2.26-0.62s1.606,0.207,2.261,0.62c0.652,0.413,1.16,1,1.521,1.76
		c0.358,0.76,0.54,1.64,0.54,2.64c0,1.013-0.182,1.9-0.54,2.66c-0.36,0.76-0.867,1.347-1.521,1.76
		c-0.653,0.414-1.407,0.62-2.261,0.62S1679.697,94.546,1679.044,94.133z M1683.834,92.843c0.593-0.727,0.891-1.77,0.891-3.13
		c0-1.32-0.305-2.35-0.91-3.09c-0.606-0.74-1.442-1.11-2.511-1.11c-1.067,0-1.903,0.37-2.51,1.11s-0.91,1.77-0.91,3.09
		c0,1.36,0.296,2.403,0.89,3.13c0.595,0.727,1.431,1.09,2.511,1.09C1682.391,93.933,1683.24,93.57,1683.834,92.843z"/>
	<path d="M1696.063,88.373v6.24h-0.84v-6.16c0-1.026-0.207-1.776-0.619-2.25c-0.414-0.473-1.08-0.71-2-0.71
		c-1.027,0-1.851,0.317-2.471,0.95c-0.619,0.633-0.931,1.477-0.931,2.53v5.64h-0.84v-9.68h0.819v1.74
		c0.293-0.64,0.736-1.13,1.33-1.47c0.594-0.34,1.271-0.51,2.029-0.51C1694.891,84.693,1696.063,85.919,1696.063,88.373z"/>
	<path d="M1698.824,93.433l0.398-0.7c0.521,0.44,1.022,0.747,1.51,0.92c0.488,0.173,1.078,0.26,1.771,0.26
		c0.854,0,1.506-0.153,1.96-0.46c0.453-0.307,0.681-0.74,0.681-1.3c0-0.467-0.147-0.84-0.44-1.12c-0.293-0.28-0.767-0.5-1.42-0.66
		l-1.64-0.38c-0.761-0.173-1.363-0.49-1.811-0.95s-0.67-0.99-0.67-1.59c0-0.826,0.313-1.493,0.939-2
		c0.627-0.506,1.473-0.76,2.539-0.76c0.682,0,1.308,0.113,1.881,0.34c0.572,0.227,1.039,0.547,1.399,0.96l-0.399,0.72
		c-0.428-0.4-0.873-0.697-1.34-0.89c-0.468-0.193-0.98-0.29-1.541-0.29c-0.785,0-1.402,0.16-1.851,0.48
		c-0.446,0.32-0.67,0.76-0.67,1.32c0,0.493,0.137,0.883,0.41,1.17c0.272,0.287,0.702,0.503,1.291,0.65l1.659,0.4
		c1.72,0.4,2.58,1.247,2.58,2.54c0,0.8-0.328,1.443-0.979,1.93c-0.654,0.487-1.533,0.73-2.642,0.73
		C1700.95,94.753,1699.744,94.313,1698.824,93.433z"/>
	<path d="M1720.363,85.313c0.652,0.413,1.16,0.993,1.521,1.74c0.36,0.747,0.54,1.62,0.54,2.62c0,1.013-0.18,1.903-0.54,2.67
		c-0.36,0.767-0.866,1.36-1.521,1.78c-0.653,0.42-1.406,0.63-2.26,0.63c-0.813,0-1.511-0.18-2.09-0.54
		c-0.58-0.36-1.019-0.88-1.312-1.56v1.96h-0.84v-14.1h0.84v6.26c0.293-0.667,0.729-1.18,1.312-1.54c0.579-0.36,1.275-0.54,2.09-0.54
		C1718.957,84.693,1719.71,84.9,1720.363,85.313z M1720.604,92.813c0.601-0.747,0.9-1.793,0.9-3.14c0-1.32-0.301-2.343-0.9-3.07
		c-0.599-0.727-1.438-1.09-2.52-1.09s-1.914,0.367-2.5,1.1c-0.588,0.733-0.881,1.767-0.881,3.1c0,1.347,0.293,2.387,0.881,3.12
		c0.586,0.733,1.426,1.1,2.52,1.1C1719.17,93.933,1720.004,93.56,1720.604,92.813z"/>
	<path d="M1732.943,89.853h-7.521c0.025,1.307,0.354,2.313,0.99,3.02c0.633,0.707,1.535,1.06,2.709,1.06c0.6,0,1.164-0.1,1.69-0.3
		c0.525-0.2,1.049-0.52,1.568-0.96l0.4,0.72c-0.413,0.414-0.947,0.744-1.601,0.99c-0.653,0.247-1.327,0.37-2.02,0.37
		c-1.441,0-2.578-0.447-3.41-1.34c-0.834-0.893-1.25-2.12-1.25-3.68c0-1,0.187-1.88,0.56-2.64c0.373-0.76,0.899-1.35,1.58-1.77
		c0.68-0.42,1.46-0.63,2.34-0.63c1.254,0,2.228,0.407,2.92,1.22c0.693,0.813,1.041,1.954,1.041,3.42v0.52H1732.943z
		 M1726.533,86.423c-0.619,0.633-0.983,1.517-1.09,2.65h6.699c-0.025-1.16-0.313-2.05-0.859-2.67c-0.547-0.62-1.313-0.93-2.301-0.93
		C1727.97,85.473,1727.152,85.79,1726.533,86.423z"/>
	<path d="M1735.643,94.613v-14.1h0.84v14.1H1735.643z"/>
	<path d="M1741.283,94.133c-0.654-0.413-1.16-1-1.521-1.76c-0.359-0.76-0.54-1.646-0.54-2.66c0-1,0.181-1.88,0.54-2.64
		c0.36-0.76,0.866-1.347,1.521-1.76c0.652-0.413,1.406-0.62,2.26-0.62s1.605,0.207,2.26,0.62c0.652,0.413,1.16,1,1.521,1.76
		c0.36,0.76,0.541,1.64,0.541,2.64c0,1.013-0.181,1.9-0.541,2.66c-0.359,0.76-0.867,1.347-1.521,1.76
		c-0.652,0.414-1.406,0.62-2.26,0.62S1741.936,94.546,1741.283,94.133z M1746.072,92.843c0.594-0.727,0.891-1.77,0.891-3.13
		c0-1.32-0.304-2.35-0.91-3.09c-0.607-0.74-1.443-1.11-2.51-1.11s-1.904,0.37-2.51,1.11c-0.607,0.74-0.91,1.77-0.91,3.09
		c0,1.36,0.296,2.403,0.89,3.13c0.593,0.727,1.431,1.09,2.511,1.09C1744.629,93.933,1745.479,93.57,1746.072,92.843z"/>
	<path d="M1763.742,84.933h0.9l-3.439,9.68h-1l-3.061-8.64l-3.119,8.64h-1l-3.4-9.68h0.92l2.98,8.7l3.119-8.7h1.02l3.041,8.68
		L1763.742,84.933z"/>
</g>
</svg>
