<?xml version="1.0" encoding="utf-8"?>
<!-- Generator: Adobe Illustrator 16.0.0, SVG Export Plug-In . SVG Version: 6.00 Build 0)  -->
<!DOCTYPE svg PUBLIC "-//W3C//DTD SVG 1.1//EN" "http://www.w3.org/Graphics/SVG/1.1/DTD/svg11.dtd">
<svg version="1.1" id="Layer_1" xmlns="http://www.w3.org/2000/svg" xmlns:xlink="http://www.w3.org/1999/xlink" x="0px" y="0px"
	 width="413.667px" height="161px" viewBox="0 0 413.667 161" enable-background="new 0 0 413.667 161" xml:space="preserve">
<g>
	<path d="M1.876,38.426c0,0.451,0.047,0.779,0.141,0.984s0.264,0.346,0.51,0.422s0.636,0.123,1.169,0.141v0.36
		c-0.621-0.035-1.503-0.053-2.646-0.053c-1.031,0-1.799,0.018-2.303,0.053v-0.36c0.434-0.018,0.749-0.064,0.945-0.141
		s0.331-0.217,0.404-0.422s0.11-0.533,0.11-0.984v-8.93c0-0.451-0.037-0.779-0.11-0.984s-0.208-0.346-0.404-0.422
		s-0.511-0.123-0.945-0.141v-0.36c0.498,0.035,1.23,0.053,2.197,0.053c0.469,0,0.986-0.006,1.551-0.018s0.954-0.018,1.165-0.018
		c0.943,0,1.74,0.148,2.391,0.444s1.138,0.71,1.463,1.244s0.488,1.154,0.488,1.863c0,0.656-0.146,1.289-0.439,1.898
		s-0.792,1.116-1.499,1.521s-1.639,0.606-2.799,0.606H1.876V38.426z M5.523,33.882C5.975,33.255,6.2,32.412,6.2,31.351
		c0-0.773-0.1-1.409-0.299-1.907s-0.517-0.872-0.954-1.121S3.933,27.95,3.212,27.95c-0.375,0-0.656,0.042-0.844,0.127
		s-0.316,0.236-0.387,0.453s-0.105,0.539-0.105,0.967v5.326h1.213C4.261,34.823,5.072,34.509,5.523,33.882z"/>
	<path d="M11.882,39.446c0.091,0.188,0.234,0.319,0.431,0.396s0.464,0.114,0.804,0.114v0.378c-1.102-0.047-1.828-0.07-2.18-0.07
		s-1.078,0.023-2.18,0.07v-0.378c0.34,0,0.608-0.038,0.804-0.114s0.34-0.208,0.431-0.396s0.136-0.448,0.136-0.782V28.38
		c0-0.557-0.101-0.959-0.303-1.208s-0.558-0.374-1.068-0.374V26.42c0.375,0.035,0.747,0.053,1.116,0.053
		c0.773,0,1.397-0.085,1.872-0.255v12.445C11.746,38.998,11.792,39.258,11.882,39.446z"/>
	<path d="M18.834,31.558c-0.29-0.255-0.702-0.382-1.235-0.382c-0.85,0-1.444,0.214-1.784,0.642c0.24,0.059,0.441,0.186,0.602,0.382
		s0.242,0.435,0.242,0.716c0,0.305-0.095,0.543-0.286,0.716s-0.447,0.259-0.769,0.259c-0.305,0-0.543-0.103-0.716-0.308
		s-0.259-0.475-0.259-0.809c0-0.469,0.281-0.896,0.844-1.283c0.293-0.193,0.655-0.354,1.085-0.483s0.91-0.193,1.437-0.193
		c0.492,0,0.926,0.06,1.301,0.18s0.668,0.286,0.879,0.497c0.275,0.281,0.464,0.608,0.567,0.98s0.154,0.886,0.154,1.542v5.001
		c0,0.299,0.042,0.516,0.127,0.65s0.227,0.202,0.426,0.202c0.146,0,0.281-0.032,0.404-0.097s0.258-0.158,0.404-0.281l0.202,0.308
		c-0.211,0.158-0.387,0.281-0.527,0.369s-0.302,0.158-0.483,0.211s-0.393,0.079-0.633,0.079c-0.58,0-0.983-0.145-1.208-0.435
		s-0.338-0.678-0.338-1.165c-0.352,0.58-0.773,0.992-1.266,1.235s-0.993,0.365-1.503,0.365c-0.416,0-0.797-0.072-1.143-0.215
		s-0.623-0.366-0.831-0.668s-0.312-0.678-0.312-1.129c0-0.457,0.111-0.847,0.334-1.169s0.536-0.605,0.94-0.848
		s0.946-0.508,1.626-0.795c0.117-0.047,0.404-0.164,0.861-0.352s0.787-0.375,0.989-0.563s0.303-0.393,0.303-0.615v-1.116
		C19.27,32.289,19.125,31.813,18.834,31.558z M18.83,35.218c-0.205,0.117-0.633,0.334-1.283,0.65
		c-0.346,0.164-0.639,0.333-0.879,0.505s-0.445,0.406-0.615,0.699s-0.255,0.653-0.255,1.081c0,0.521,0.132,0.916,0.396,1.182
		s0.612,0.4,1.046,0.4c0.797,0,1.474-0.454,2.03-1.362V34.84C19.182,34.975,19.035,35.101,18.83,35.218z"/>
	<path d="M29.904,31.114c0.533,0,0.99-0.018,1.371-0.053v0.36c-0.24,0.029-0.454,0.138-0.642,0.325s-0.363,0.501-0.527,0.94
		l-2.953,7.734l-0.615,1.564c-0.229,0.592-0.486,1.014-0.773,1.266c-0.34,0.311-0.809,0.466-1.406,0.466
		c-0.357,0-0.65-0.095-0.879-0.286s-0.343-0.456-0.343-0.795c0-0.287,0.085-0.517,0.255-0.69s0.404-0.259,0.703-0.259
		c0.264,0,0.482,0.073,0.655,0.22s0.259,0.354,0.259,0.624c0,0.357-0.161,0.627-0.483,0.809c0.023,0.012,0.059,0.018,0.105,0.018
		c0.662,0,1.172-0.469,1.529-1.406l0.642-1.644l-3.27-7.857c-0.205-0.416-0.409-0.688-0.611-0.817s-0.406-0.193-0.611-0.193v-0.378
		c0.563,0.076,1.151,0.114,1.767,0.114c0.516,0,1.295-0.038,2.338-0.114v0.378c-0.293,0-0.521,0.01-0.686,0.031
		s-0.3,0.076-0.409,0.167s-0.163,0.233-0.163,0.426c0,0.217,0.076,0.513,0.229,0.888l2.171,5.379l1.986-5.212
		c0.129-0.352,0.193-0.627,0.193-0.826c0-0.281-0.107-0.489-0.321-0.624s-0.555-0.217-1.024-0.246v-0.36
		C29.025,31.096,29.529,31.114,29.904,31.114z"/>
	<path d="M33.314,29.29c0.059-0.478,0.154-0.883,0.286-1.217s0.315-0.639,0.549-0.914c0.234-0.281,0.539-0.502,0.914-0.664
		s0.782-0.242,1.222-0.242c0.615,0,1.137,0.164,1.564,0.492c0.375,0.305,0.563,0.677,0.563,1.116c0,0.275-0.089,0.502-0.268,0.681
		s-0.409,0.268-0.69,0.268c-0.275,0-0.508-0.088-0.699-0.264s-0.286-0.41-0.286-0.703c0-0.246,0.069-0.45,0.207-0.611
		s0.321-0.265,0.549-0.312c-0.035-0.111-0.132-0.205-0.29-0.281s-0.357-0.114-0.598-0.114c-0.533,0-0.923,0.223-1.169,0.668
		c-0.135,0.24-0.223,0.599-0.264,1.077s-0.062,1.258-0.062,2.342v0.466h1.934v0.36h-1.934v7.04c0,0.557,0.158,0.942,0.475,1.156
		s0.794,0.321,1.433,0.321v0.378c-1.477-0.047-2.399-0.07-2.769-0.07c-0.293,0-1.002,0.023-2.127,0.07v-0.378
		c0.34,0,0.608-0.038,0.804-0.114s0.34-0.208,0.431-0.396s0.136-0.448,0.136-0.782v-7.225h-1.441v-0.36h1.441
		C33.227,30.364,33.256,29.768,33.314,29.29z"/>
	<path d="M42.618,31.558c-0.29-0.255-0.702-0.382-1.235-0.382c-0.85,0-1.444,0.214-1.784,0.642c0.24,0.059,0.441,0.186,0.602,0.382
		s0.242,0.435,0.242,0.716c0,0.305-0.095,0.543-0.286,0.716s-0.447,0.259-0.769,0.259c-0.305,0-0.543-0.103-0.716-0.308
		s-0.259-0.475-0.259-0.809c0-0.469,0.281-0.896,0.844-1.283c0.293-0.193,0.655-0.354,1.085-0.483s0.91-0.193,1.437-0.193
		c0.492,0,0.926,0.06,1.301,0.18s0.668,0.286,0.879,0.497c0.275,0.281,0.464,0.608,0.567,0.98s0.154,0.886,0.154,1.542v5.001
		c0,0.299,0.042,0.516,0.127,0.65s0.227,0.202,0.426,0.202c0.146,0,0.281-0.032,0.404-0.097s0.258-0.158,0.404-0.281l0.202,0.308
		c-0.211,0.158-0.387,0.281-0.527,0.369s-0.302,0.158-0.483,0.211s-0.393,0.079-0.633,0.079c-0.58,0-0.983-0.145-1.208-0.435
		s-0.338-0.678-0.338-1.165c-0.352,0.58-0.773,0.992-1.266,1.235s-0.993,0.365-1.503,0.365c-0.416,0-0.797-0.072-1.143-0.215
		s-0.623-0.366-0.831-0.668s-0.312-0.678-0.312-1.129c0-0.457,0.111-0.847,0.334-1.169s0.536-0.605,0.94-0.848
		s0.946-0.508,1.626-0.795c0.117-0.047,0.404-0.164,0.861-0.352s0.787-0.375,0.989-0.563s0.303-0.393,0.303-0.615v-1.116
		C43.053,32.289,42.908,31.813,42.618,31.558z M42.613,35.218c-0.205,0.117-0.633,0.334-1.283,0.65
		c-0.346,0.164-0.639,0.333-0.879,0.505s-0.445,0.406-0.615,0.699s-0.255,0.653-0.255,1.081c0,0.521,0.132,0.916,0.396,1.182
		s0.612,0.4,1.046,0.4c0.797,0,1.474-0.454,2.03-1.362V34.84C42.965,34.975,42.818,35.101,42.613,35.218z"/>
	<path d="M49.904,39.446c0.091,0.188,0.234,0.319,0.431,0.396s0.464,0.114,0.804,0.114v0.378c-1.102-0.047-1.828-0.07-2.18-0.07
		s-1.078,0.023-2.18,0.07v-0.378c0.34,0,0.608-0.038,0.804-0.114s0.34-0.208,0.431-0.396s0.136-0.448,0.136-0.782V33.03
		c0-0.557-0.101-0.961-0.303-1.213s-0.558-0.378-1.068-0.378v-0.378c0.375,0.035,0.747,0.053,1.116,0.053
		c0.762,0,1.386-0.082,1.872-0.246v7.796C49.768,38.998,49.813,39.258,49.904,39.446z M49.407,26.719
		c0.176,0.105,0.316,0.246,0.422,0.422s0.158,0.366,0.158,0.571s-0.053,0.397-0.158,0.576s-0.246,0.319-0.422,0.422
		s-0.366,0.154-0.571,0.154s-0.397-0.051-0.576-0.154s-0.319-0.243-0.422-0.422s-0.154-0.371-0.154-0.576s0.051-0.396,0.154-0.571
		s0.243-0.316,0.422-0.422s0.371-0.158,0.576-0.158S49.231,26.614,49.407,26.719z"/>
	<path d="M55.625,32.028c0.255-0.352,0.558-0.642,0.91-0.87s0.724-0.343,1.116-0.343c0.316,0,0.599,0.063,0.848,0.189
		s0.444,0.297,0.584,0.514s0.211,0.454,0.211,0.712c0,0.316-0.094,0.584-0.281,0.804s-0.437,0.33-0.747,0.33
		c-0.264,0-0.489-0.083-0.677-0.25s-0.281-0.394-0.281-0.681c0-0.393,0.205-0.718,0.615-0.976c-0.082-0.117-0.208-0.176-0.378-0.176
		c-0.475,0-0.902,0.182-1.283,0.545s-0.68,0.812-0.896,1.345s-0.325,1.031-0.325,1.494v3.814c0,0.557,0.158,0.942,0.475,1.156
		s0.794,0.321,1.433,0.321v0.378c-1.477-0.047-2.399-0.07-2.769-0.07c-0.316,0-1.025,0.023-2.127,0.07v-0.378
		c0.34,0,0.608-0.038,0.804-0.114s0.34-0.208,0.431-0.396s0.136-0.448,0.136-0.782V33.03c0-0.557-0.101-0.961-0.303-1.213
		s-0.558-0.378-1.068-0.378v-0.378c0.375,0.035,0.747,0.053,1.116,0.053c0.762,0,1.386-0.082,1.872-0.246v2.25
		C55.176,32.743,55.371,32.379,55.625,32.028z"/>
	<path d="M66.159,27.651l0.439-0.009c1.652-0.035,2.558-0.053,2.716-0.053c2.121,0,3.71,0.53,4.768,1.591s1.586,2.607,1.586,4.641
		c0,1.307-0.256,2.451-0.769,3.432s-1.258,1.74-2.237,2.276s-2.147,0.804-3.507,0.804c-0.164,0-0.555-0.009-1.173-0.026
		s-1.068-0.026-1.349-0.026c-0.984,0-1.729,0.018-2.232,0.053v-0.36c0.434-0.018,0.749-0.064,0.945-0.141s0.331-0.217,0.404-0.422
		s0.11-0.533,0.11-0.984v-8.93c0-0.451-0.037-0.779-0.11-0.984s-0.208-0.346-0.404-0.422s-0.511-0.123-0.945-0.141v-0.36
		C65.046,27.63,65.632,27.651,66.159,27.651z M67.636,39.433c0.07,0.214,0.201,0.363,0.391,0.448s0.476,0.127,0.857,0.127
		c1.277,0,2.279-0.231,3.006-0.694s1.238-1.138,1.534-2.026s0.444-2.02,0.444-3.397c0-1.383-0.161-2.509-0.483-3.379
		s-0.848-1.521-1.578-1.951s-1.709-0.646-2.94-0.646c-0.375,0-0.656,0.042-0.844,0.127s-0.316,0.236-0.387,0.453
		s-0.105,0.539-0.105,0.967v9C67.53,38.895,67.565,39.219,67.636,39.433z"/>
	<path d="M80.305,39.446c0.091,0.188,0.234,0.319,0.431,0.396s0.464,0.114,0.804,0.114v0.378c-1.102-0.047-1.828-0.07-2.18-0.07
		s-1.078,0.023-2.18,0.07v-0.378c0.34,0,0.608-0.038,0.804-0.114s0.34-0.208,0.431-0.396s0.136-0.448,0.136-0.782V33.03
		c0-0.557-0.101-0.961-0.303-1.213s-0.558-0.378-1.068-0.378v-0.378c0.375,0.035,0.747,0.053,1.116,0.053
		c0.762,0,1.386-0.082,1.872-0.246v7.796C80.169,38.998,80.214,39.258,80.305,39.446z M79.809,26.719
		c0.176,0.105,0.316,0.246,0.422,0.422s0.158,0.366,0.158,0.571s-0.053,0.397-0.158,0.576s-0.246,0.319-0.422,0.422
		s-0.366,0.154-0.571,0.154s-0.397-0.051-0.576-0.154s-0.319-0.243-0.422-0.422s-0.154-0.371-0.154-0.576s0.051-0.396,0.154-0.571
		s0.243-0.316,0.422-0.422s0.371-0.158,0.576-0.158S79.633,26.614,79.809,26.719z"/>
	<path d="M83.79,38.699c0.164,0.48,0.416,0.855,0.756,1.125s0.797,0.404,1.371,0.404c0.264,0,0.517-0.057,0.76-0.171
		s0.444-0.299,0.602-0.554s0.237-0.584,0.237-0.989c0-0.328-0.083-0.623-0.25-0.883s-0.385-0.495-0.655-0.703
		s-0.647-0.464-1.134-0.769c-0.592-0.375-1.044-0.683-1.358-0.923s-0.579-0.533-0.795-0.879s-0.325-0.753-0.325-1.222
		c0-0.51,0.12-0.939,0.36-1.288s0.561-0.608,0.962-0.778s0.848-0.255,1.34-0.255c0.422,0,0.801,0.067,1.138,0.202
		s0.611,0.287,0.822,0.457c0.129,0.1,0.234,0.149,0.316,0.149c0.211,0,0.346-0.264,0.404-0.791h0.413
		c-0.047,0.586-0.07,1.605-0.07,3.059h-0.413c-0.129-0.791-0.384-1.444-0.765-1.96s-0.943-0.773-1.688-0.773
		c-0.434,0-0.788,0.122-1.063,0.365s-0.413,0.582-0.413,1.015c0,0.416,0.142,0.763,0.426,1.042s0.627,0.543,1.028,0.795
		s0.687,0.434,0.857,0.545c0.551,0.357,0.995,0.675,1.332,0.954s0.609,0.598,0.817,0.958s0.312,0.772,0.312,1.235
		c0,0.533-0.139,0.989-0.417,1.367s-0.652,0.665-1.121,0.861s-0.981,0.294-1.538,0.294c-0.533,0-1.008-0.085-1.424-0.255
		c-0.234-0.117-0.48-0.278-0.738-0.483c-0.047-0.047-0.103-0.07-0.167-0.07c-0.176,0-0.299,0.226-0.369,0.677h-0.413
		c0.047-0.686,0.07-1.884,0.07-3.595h0.413C83.5,37.606,83.626,38.218,83.79,38.699z"/>
	<path d="M94.504,31.325c0.504-0.34,1.078-0.51,1.723-0.51c0.639,0,1.211,0.173,1.718,0.519s0.905,0.855,1.195,1.529
		s0.435,1.479,0.435,2.417c0,0.92-0.146,1.783-0.439,2.588s-0.749,1.46-1.367,1.964s-1.39,0.756-2.316,0.756
		c-0.457,0-0.872-0.089-1.244-0.268s-0.661-0.415-0.866-0.708v2.303c0,0.486,0.144,0.825,0.431,1.015s0.721,0.286,1.301,0.286v0.378
		c-0.152-0.006-0.494-0.021-1.024-0.044s-1.053-0.035-1.569-0.035c-0.381,0-0.773,0.012-1.178,0.035s-0.659,0.038-0.765,0.044
		v-0.378c0.439,0,0.747-0.081,0.923-0.242s0.264-0.453,0.264-0.875v-9.07c0-0.557-0.101-0.961-0.303-1.213s-0.558-0.378-1.068-0.378
		v-0.378c0.375,0.035,0.747,0.053,1.116,0.053c0.762,0,1.386-0.082,1.872-0.246v1.898C93.613,32.145,94,31.665,94.504,31.325z
		 M94.091,39.863c0.322,0.208,0.709,0.312,1.16,0.312c1.717,0,2.575-1.55,2.575-4.649c0-2.783-0.697-4.175-2.092-4.175
		c-0.545,0-1.033,0.195-1.463,0.584s-0.74,0.954-0.927,1.692v5.388C93.52,39.373,93.769,39.655,94.091,39.863z"/>
	<path d="M103.939,39.446c0.091,0.188,0.234,0.319,0.431,0.396s0.464,0.114,0.804,0.114v0.378c-1.102-0.047-1.828-0.07-2.18-0.07
		s-1.078,0.023-2.18,0.07v-0.378c0.34,0,0.608-0.038,0.804-0.114s0.34-0.208,0.431-0.396s0.136-0.448,0.136-0.782V28.38
		c0-0.557-0.101-0.959-0.303-1.208s-0.558-0.374-1.068-0.374V26.42c0.375,0.035,0.747,0.053,1.116,0.053
		c0.773,0,1.397-0.085,1.872-0.255v12.445C103.803,38.998,103.848,39.258,103.939,39.446z"/>
	<path d="M110.891,31.558c-0.29-0.255-0.702-0.382-1.235-0.382c-0.85,0-1.444,0.214-1.784,0.642c0.24,0.059,0.441,0.186,0.602,0.382
		s0.242,0.435,0.242,0.716c0,0.305-0.095,0.543-0.286,0.716s-0.447,0.259-0.769,0.259c-0.305,0-0.543-0.103-0.716-0.308
		s-0.259-0.475-0.259-0.809c0-0.469,0.281-0.896,0.844-1.283c0.293-0.193,0.655-0.354,1.085-0.483s0.91-0.193,1.437-0.193
		c0.492,0,0.926,0.06,1.301,0.18s0.668,0.286,0.879,0.497c0.275,0.281,0.464,0.608,0.567,0.98s0.154,0.886,0.154,1.542v5.001
		c0,0.299,0.042,0.516,0.127,0.65s0.227,0.202,0.426,0.202c0.146,0,0.281-0.032,0.404-0.097s0.258-0.158,0.404-0.281l0.202,0.308
		c-0.211,0.158-0.387,0.281-0.527,0.369s-0.302,0.158-0.483,0.211s-0.393,0.079-0.633,0.079c-0.58,0-0.983-0.145-1.208-0.435
		s-0.338-0.678-0.338-1.165c-0.352,0.58-0.773,0.992-1.266,1.235s-0.993,0.365-1.503,0.365c-0.416,0-0.797-0.072-1.143-0.215
		s-0.623-0.366-0.831-0.668s-0.312-0.678-0.312-1.129c0-0.457,0.111-0.847,0.334-1.169s0.536-0.605,0.94-0.848
		s0.946-0.508,1.626-0.795c0.117-0.047,0.404-0.164,0.861-0.352s0.787-0.375,0.989-0.563s0.303-0.393,0.303-0.615v-1.116
		C111.326,32.289,111.181,31.813,110.891,31.558z M110.887,35.218c-0.205,0.117-0.633,0.334-1.283,0.65
		c-0.346,0.164-0.639,0.333-0.879,0.505s-0.445,0.406-0.615,0.699s-0.255,0.653-0.255,1.081c0,0.521,0.132,0.916,0.396,1.182
		s0.612,0.4,1.046,0.4c0.797,0,1.474-0.454,2.03-1.362V34.84C111.238,34.975,111.092,35.101,110.887,35.218z"/>
	<path d="M121.961,31.114c0.533,0,0.99-0.018,1.371-0.053v0.36c-0.24,0.029-0.454,0.138-0.642,0.325s-0.363,0.501-0.527,0.94
		l-2.953,7.734l-0.615,1.564c-0.229,0.592-0.486,1.014-0.773,1.266c-0.34,0.311-0.809,0.466-1.406,0.466
		c-0.357,0-0.65-0.095-0.879-0.286s-0.343-0.456-0.343-0.795c0-0.287,0.085-0.517,0.255-0.69s0.404-0.259,0.703-0.259
		c0.264,0,0.482,0.073,0.655,0.22s0.259,0.354,0.259,0.624c0,0.357-0.161,0.627-0.483,0.809c0.023,0.012,0.059,0.018,0.105,0.018
		c0.662,0,1.172-0.469,1.529-1.406l0.642-1.644l-3.27-7.857c-0.205-0.416-0.409-0.688-0.611-0.817s-0.406-0.193-0.611-0.193v-0.378
		c0.563,0.076,1.151,0.114,1.767,0.114c0.516,0,1.295-0.038,2.338-0.114v0.378c-0.293,0-0.521,0.01-0.686,0.031
		s-0.3,0.076-0.409,0.167s-0.163,0.233-0.163,0.426c0,0.217,0.076,0.513,0.229,0.888l2.171,5.379l1.986-5.212
		c0.129-0.352,0.193-0.627,0.193-0.826c0-0.281-0.107-0.489-0.321-0.624s-0.555-0.217-1.024-0.246v-0.36
		C121.082,31.096,121.586,31.114,121.961,31.114z"/>
</g>
<g>
	<path d="M11.452,99.973v0.36c-0.492-0.035-1.137-0.053-1.934-0.053c-1.025,0-1.793,0.018-2.303,0.053v-0.36
		C7.673,99.956,8,99.9,8.196,99.806s0.294-0.261,0.294-0.501c0-0.205-0.07-0.486-0.211-0.844l-1.107-2.953H2.83l-0.738,1.907
		c-0.24,0.609-0.36,1.102-0.36,1.477c0,0.381,0.127,0.653,0.382,0.817s0.649,0.252,1.182,0.264v0.36
		c-0.686-0.035-1.377-0.053-2.074-0.053c-0.539,0-0.987,0.018-1.345,0.053v-0.36c0.598-0.135,1.069-0.656,1.415-1.564l4.236-10.907
		h0.29l4.386,11.32C10.497,99.566,10.913,99.95,11.452,99.973z M5.027,89.778l-2.065,5.37H7.04L5.027,89.778z"/>
	<path d="M25.374,94.739c0.563,0.583,0.844,1.285,0.844,2.105c0,0.68-0.174,1.283-0.523,1.811s-0.848,0.939-1.499,1.235
		s-1.418,0.444-2.303,0.444c-0.24,0-0.662-0.009-1.266-0.026s-1.213-0.026-1.828-0.026c-0.984,0-1.729,0.018-2.232,0.053v-0.36
		c0.434-0.018,0.749-0.064,0.945-0.141s0.331-0.217,0.404-0.422s0.11-0.533,0.11-0.984v-8.93c0-0.451-0.037-0.779-0.11-0.984
		s-0.208-0.346-0.404-0.422s-0.511-0.123-0.945-0.141v-0.36c0.498,0.035,1.23,0.053,2.197,0.053c0.469,0,0.986-0.006,1.551-0.018
		s0.954-0.018,1.165-0.018c0.82,0,1.515,0.119,2.083,0.356s0.996,0.568,1.283,0.993s0.431,0.918,0.431,1.481
		c0,0.691-0.218,1.313-0.655,1.863s-1.129,0.973-2.079,1.266v0.035C23.868,93.777,24.812,94.156,25.374,94.739z M22.966,92.766
		c0.393-0.533,0.589-1.245,0.589-2.136c0-0.902-0.199-1.575-0.598-2.017s-1.04-0.664-1.925-0.664c-0.375,0-0.656,0.042-0.844,0.127
		s-0.316,0.236-0.387,0.453s-0.105,0.539-0.105,0.967v4.069h1.213C21.888,93.566,22.573,93.299,22.966,92.766z M19.802,99.384
		c0.07,0.205,0.199,0.346,0.387,0.422s0.475,0.114,0.861,0.114c2.244,0,3.366-1.052,3.366-3.155c0-0.943-0.256-1.661-0.769-2.153
		s-1.326-0.738-2.439-0.738h-1.512v4.553C19.696,98.86,19.731,99.179,19.802,99.384z"/>
	<path d="M42.166,99.521c-0.067-0.167-0.166-0.25-0.294-0.25c-0.094,0-0.217,0.05-0.369,0.149c-0.357,0.252-0.687,0.458-0.989,0.62
		s-0.646,0.293-1.033,0.396s-0.823,0.154-1.31,0.154c-1.143,0-2.143-0.258-3.001-0.773s-1.523-1.264-1.995-2.246
		s-0.708-2.149-0.708-3.502c0-1.324,0.243-2.496,0.729-3.516s1.163-1.811,2.03-2.373s1.854-0.844,2.962-0.844
		c0.715,0,1.326,0.103,1.833,0.308s1,0.492,1.481,0.861c0.129,0.105,0.246,0.158,0.352,0.158c0.246,0,0.398-0.357,0.457-1.072h0.413
		c-0.047,0.779-0.07,2.159-0.07,4.14H42.24c-0.088-0.539-0.168-0.958-0.242-1.257s-0.16-0.552-0.259-0.76s-0.234-0.423-0.404-0.646
		c-0.363-0.469-0.823-0.82-1.38-1.055s-1.157-0.352-1.802-0.352c-0.779,0-1.462,0.258-2.048,0.773s-1.04,1.251-1.362,2.206
		s-0.483,2.074-0.483,3.357c0,1.307,0.176,2.429,0.527,3.366s0.835,1.649,1.45,2.136s1.313,0.729,2.092,0.729
		c0.598,0,1.181-0.114,1.749-0.343s1.011-0.571,1.327-1.028c0.246-0.328,0.422-0.684,0.527-1.068s0.208-0.977,0.308-1.78h0.413
		c0,2.068,0.023,3.51,0.07,4.324h-0.413C42.281,99.958,42.233,99.688,42.166,99.521z"/>
	<path d="M50.889,87.651l0.439-0.009c1.652-0.035,2.558-0.053,2.716-0.053c2.121,0,3.71,0.53,4.768,1.591s1.586,2.607,1.586,4.641
		c0,1.307-0.256,2.451-0.769,3.432s-1.258,1.74-2.237,2.276s-2.147,0.804-3.507,0.804c-0.164,0-0.555-0.009-1.173-0.026
		s-1.068-0.026-1.349-0.026c-0.984,0-1.729,0.018-2.232,0.053v-0.36c0.434-0.018,0.749-0.064,0.945-0.141s0.331-0.217,0.404-0.422
		s0.11-0.533,0.11-0.984v-8.93c0-0.451-0.037-0.779-0.11-0.984s-0.208-0.346-0.404-0.422s-0.511-0.123-0.945-0.141v-0.36
		C49.775,87.63,50.361,87.651,50.889,87.651z M52.365,99.433c0.07,0.214,0.201,0.363,0.391,0.448s0.476,0.127,0.857,0.127
		c1.277,0,2.279-0.231,3.006-0.694s1.238-1.138,1.534-2.026s0.444-2.02,0.444-3.397c0-1.383-0.161-2.509-0.483-3.379
		s-0.848-1.521-1.578-1.951s-1.709-0.646-2.94-0.646c-0.375,0-0.656,0.042-0.844,0.127s-0.316,0.236-0.387,0.453
		s-0.105,0.539-0.105,0.967v9C52.26,98.895,52.295,99.219,52.365,99.433z"/>
	<path d="M75.85,98.031c0,0.68,0.041,1.447,0.123,2.303c-0.814-0.035-2.188-0.053-4.122-0.053c-2.303,0-4.043,0.018-5.221,0.053
		v-0.36c0.434-0.018,0.749-0.064,0.945-0.141s0.331-0.217,0.404-0.422s0.11-0.533,0.11-0.984v-8.93c0-0.451-0.037-0.779-0.11-0.984
		s-0.208-0.346-0.404-0.422s-0.511-0.123-0.945-0.141v-0.36c1.178,0.035,2.918,0.053,5.221,0.053c1.764,0,3.018-0.018,3.762-0.053
		c-0.082,0.785-0.123,1.494-0.123,2.127c0,0.469,0.018,0.841,0.053,1.116h-0.413c-0.088-0.779-0.198-1.359-0.33-1.74
		s-0.354-0.658-0.668-0.831s-0.787-0.259-1.419-0.259h-1.494c-0.434,0-0.749,0.035-0.945,0.105s-0.331,0.207-0.404,0.409
		s-0.11,0.529-0.11,0.98v4.245h1.195c0.604,0,1.005-0.18,1.204-0.541s0.322-0.728,0.369-1.103s0.079-0.618,0.097-0.729h0.413
		c-0.041,0.592-0.062,1.157-0.062,1.696l0.009,0.861c0,0.609,0.035,1.462,0.105,2.558h-0.413c-0.012-0.082-0.045-0.372-0.101-0.87
		s-0.218-0.875-0.488-1.129s-0.647-0.382-1.134-0.382h-1.195v4.324c0,0.451,0.037,0.778,0.11,0.98s0.208,0.338,0.404,0.409
		s0.511,0.105,0.945,0.105h1.318c0.75,0,1.32-0.1,1.709-0.299s0.671-0.519,0.844-0.958s0.306-1.084,0.4-1.934h0.413
		C75.867,97.052,75.85,97.486,75.85,98.031z"/>
	<path d="M87.293,87.642c1.764,0,3.018-0.018,3.762-0.053c-0.082,0.855-0.123,1.623-0.123,2.303c0,0.604,0.018,1.096,0.053,1.477
		h-0.413c-0.094-0.932-0.214-1.622-0.36-2.07s-0.4-0.776-0.76-0.984s-0.913-0.312-1.657-0.312H86.66
		c-0.434,0-0.749,0.035-0.945,0.105s-0.331,0.207-0.404,0.409s-0.11,0.529-0.11,0.98v4.43h1.318c0.604,0,1.005-0.18,1.204-0.541
		s0.322-0.728,0.369-1.103s0.079-0.618,0.097-0.729h0.413c-0.041,0.586-0.062,1.151-0.062,1.696l0.009,0.853
		c0,0.633,0.038,1.485,0.114,2.558h-0.422c-0.012-0.082-0.045-0.372-0.101-0.87s-0.218-0.873-0.488-1.125s-0.647-0.378-1.134-0.378
		h-1.318v4.14c0,0.451,0.047,0.779,0.141,0.984s0.264,0.346,0.51,0.422s0.636,0.123,1.169,0.141v0.36
		c-0.621-0.035-1.503-0.053-2.646-0.053c-1.031,0-1.799,0.018-2.303,0.053v-0.36c0.434-0.018,0.749-0.064,0.945-0.141
		s0.331-0.217,0.404-0.422s0.11-0.533,0.11-0.984v-8.93c0-0.451-0.037-0.779-0.11-0.984s-0.208-0.346-0.404-0.422
		s-0.511-0.123-0.945-0.141v-0.36C83.25,87.625,84.99,87.642,87.293,87.642z"/>
	<path d="M106.225,99.635c-0.088-0.22-0.202-0.33-0.343-0.33c-0.076,0-0.149,0.019-0.22,0.057s-0.193,0.122-0.369,0.25
		c-0.422,0.322-0.857,0.565-1.305,0.729s-0.951,0.246-1.507,0.246c-1.23,0-2.288-0.255-3.173-0.765s-1.56-1.245-2.026-2.206
		s-0.699-2.106-0.699-3.437c0-1.377,0.248-2.583,0.743-3.617s1.182-1.831,2.061-2.391s1.875-0.839,2.988-0.839
		c0.486,0,0.918,0.051,1.296,0.154s0.706,0.233,0.984,0.391s0.599,0.366,0.962,0.624c0.152,0.123,0.272,0.185,0.36,0.185
		c0.229,0,0.378-0.366,0.448-1.099h0.413c-0.047,0.779-0.07,2.159-0.07,4.14h-0.413c-0.105-0.645-0.22-1.173-0.343-1.586
		s-0.311-0.772-0.563-1.077c-0.352-0.434-0.806-0.776-1.362-1.028s-1.14-0.378-1.749-0.378c-0.791,0-1.485,0.258-2.083,0.773
		s-1.061,1.25-1.389,2.202s-0.492,2.067-0.492,3.344c0,1.441,0.154,2.622,0.461,3.542s0.776,1.601,1.406,2.043
		s1.437,0.664,2.421,0.664c0.721,0,1.345-0.188,1.872-0.563c0.217-0.146,0.357-0.287,0.422-0.422s0.097-0.322,0.097-0.563V96.95
		c0-0.498-0.047-0.863-0.141-1.094s-0.264-0.39-0.51-0.475s-0.636-0.139-1.169-0.163v-0.36c0.592,0.041,1.438,0.062,2.54,0.062
		c0.844,0,1.468-0.021,1.872-0.062v0.36c-0.281,0.023-0.482,0.072-0.602,0.145s-0.202,0.209-0.246,0.409s-0.066,0.53-0.066,0.993
		v3.568h-0.36C106.362,100.087,106.313,99.854,106.225,99.635z"/>
	<path d="M124.668,88.09c-0.196,0.076-0.331,0.217-0.404,0.422s-0.11,0.533-0.11,0.984v8.93c0,0.451,0.037,0.779,0.11,0.984
		s0.208,0.346,0.404,0.422s0.511,0.123,0.945,0.141v0.36c-0.498-0.035-1.266-0.053-2.303-0.053c-0.961,0-1.723,0.018-2.285,0.053
		v-0.36c0.434-0.018,0.749-0.064,0.945-0.141s0.331-0.217,0.404-0.422s0.11-0.533,0.11-0.984v-4.324h-5.854v4.324
		c0,0.451,0.037,0.779,0.11,0.984s0.208,0.346,0.404,0.422s0.511,0.123,0.945,0.141v0.36c-0.551-0.035-1.313-0.053-2.285-0.053
		c-1.031,0-1.799,0.018-2.303,0.053v-0.36c0.434-0.018,0.749-0.064,0.945-0.141s0.331-0.217,0.404-0.422s0.11-0.533,0.11-0.984
		v-8.93c0-0.451-0.037-0.779-0.11-0.984s-0.208-0.346-0.404-0.422s-0.511-0.123-0.945-0.141v-0.36
		c0.498,0.035,1.266,0.053,2.303,0.053c0.973,0,1.734-0.018,2.285-0.053v0.36c-0.434,0.018-0.749,0.064-0.945,0.141
		s-0.331,0.217-0.404,0.422s-0.11,0.533-0.11,0.984v4.245h5.854v-4.245c0-0.451-0.037-0.779-0.11-0.984s-0.208-0.346-0.404-0.422
		s-0.511-0.123-0.945-0.141v-0.36c0.563,0.035,1.324,0.053,2.285,0.053c1.031,0,1.799-0.018,2.303-0.053v0.36
		C125.18,87.967,124.865,88.014,124.668,88.09z"/>
	<path d="M135.25,88.09c-0.196,0.076-0.331,0.217-0.404,0.422s-0.11,0.533-0.11,0.984v8.93c0,0.451,0.037,0.779,0.11,0.984
		s0.208,0.346,0.404,0.422s0.511,0.123,0.945,0.141v0.36c-0.551-0.035-1.313-0.053-2.285-0.053c-1.031,0-1.799,0.018-2.303,0.053
		v-0.36c0.434-0.018,0.749-0.064,0.945-0.141s0.331-0.217,0.404-0.422s0.11-0.533,0.11-0.984v-8.93c0-0.451-0.037-0.779-0.11-0.984
		s-0.208-0.346-0.404-0.422s-0.511-0.123-0.945-0.141v-0.36c0.498,0.035,1.266,0.053,2.303,0.053c0.973,0,1.734-0.018,2.285-0.053
		v0.36C135.762,87.967,135.447,88.014,135.25,88.09z"/>
	<path d="M145.736,88.09c-0.196,0.076-0.331,0.217-0.404,0.422s-0.11,0.533-0.11,0.984v6.592c0,1.02-0.019,1.923-0.057,2.711
		s-0.122,1.449-0.25,1.982c-0.135,0.563-0.372,1.065-0.712,1.507s-0.772,0.791-1.296,1.046s-1.121,0.382-1.789,0.382
		c-0.586,0-1.09-0.108-1.512-0.325c-0.574-0.299-0.861-0.712-0.861-1.239c0-0.281,0.089-0.511,0.268-0.69s0.406-0.268,0.681-0.268
		c0.287,0,0.524,0.088,0.712,0.264s0.281,0.413,0.281,0.712c0,0.252-0.067,0.456-0.202,0.611s-0.319,0.256-0.554,0.303
		c0.105,0.105,0.271,0.18,0.497,0.224s0.444,0.066,0.655,0.066c0.521,0,0.971-0.135,1.349-0.404s0.649-0.645,0.813-1.125
		c0.123-0.375,0.205-0.842,0.246-1.402s0.062-1.466,0.062-2.72v-8.227c0-0.451-0.037-0.779-0.11-0.984s-0.208-0.346-0.404-0.422
		s-0.511-0.123-0.945-0.141v-0.36c0.498,0.035,1.266,0.053,2.303,0.053c0.961,0,1.723-0.018,2.285-0.053v0.36
		C146.247,87.967,145.932,88.014,145.736,88.09z"/>
	<path d="M162.642,99.586c0.246,0.17,0.551,0.299,0.914,0.387v0.36c-0.568-0.035-1.286-0.053-2.153-0.053
		c-0.65,0-1.269,0.018-1.854,0.053v-0.36c0.281-0.012,0.489-0.047,0.624-0.105s0.202-0.149,0.202-0.272
		c0-0.111-0.062-0.255-0.185-0.431l-2.628-3.964c-0.24-0.369-0.448-0.642-0.624-0.817s-0.356-0.297-0.541-0.365
		s-0.426-0.11-0.725-0.127v4.535c0,0.451,0.037,0.779,0.11,0.984s0.208,0.346,0.404,0.422s0.511,0.123,0.945,0.141v0.36
		c-0.551-0.035-1.313-0.053-2.285-0.053c-1.031,0-1.799,0.018-2.303,0.053v-0.36c0.434-0.018,0.749-0.064,0.945-0.141
		s0.331-0.217,0.404-0.422s0.11-0.533,0.11-0.984v-8.93c0-0.451-0.037-0.779-0.11-0.984s-0.208-0.346-0.404-0.422
		s-0.511-0.123-0.945-0.141v-0.36c0.498,0.035,1.266,0.053,2.303,0.053c0.973,0,1.734-0.018,2.285-0.053v0.36
		c-0.434,0.018-0.749,0.064-0.945,0.141s-0.331,0.217-0.404,0.422s-0.11,0.533-0.11,0.984v4.034
		c0.873-0.035,1.559-0.372,2.057-1.011l1.723-2.197c0.615-0.779,0.923-1.354,0.923-1.723c0-0.416-0.372-0.633-1.116-0.65v-0.36
		c0.686,0.035,1.374,0.053,2.065,0.053c0.668,0,1.181-0.018,1.538-0.053v0.36c-0.398,0.059-0.772,0.188-1.121,0.387
		s-0.684,0.507-1.006,0.923l-2.936,3.762l4.175,5.854C162.173,99.179,162.396,99.417,162.642,99.586z"/>
	<path d="M172.455,88.09c-0.196,0.076-0.331,0.217-0.404,0.422s-0.11,0.533-0.11,0.984v8.93c0,0.451,0.037,0.778,0.11,0.98
		s0.208,0.338,0.404,0.409s0.511,0.105,0.945,0.105h1.318c0.75,0,1.32-0.105,1.709-0.316s0.671-0.548,0.844-1.011
		s0.306-1.143,0.4-2.039h0.413c-0.035,0.375-0.053,0.867-0.053,1.477c0,0.68,0.041,1.447,0.123,2.303
		c-0.814-0.035-2.188-0.053-4.122-0.053c-2.303,0-4.043,0.018-5.221,0.053v-0.36c0.434-0.018,0.749-0.064,0.945-0.141
		s0.331-0.217,0.404-0.422s0.11-0.533,0.11-0.984v-8.93c0-0.451-0.037-0.779-0.11-0.984s-0.208-0.346-0.404-0.422
		s-0.511-0.123-0.945-0.141v-0.36c0.498,0.035,1.266,0.053,2.303,0.053c0.973,0,1.734-0.018,2.285-0.053v0.36
		C172.966,87.967,172.651,88.014,172.455,88.09z"/>
	<path d="M197.099,88.09c-0.196,0.076-0.331,0.217-0.404,0.422s-0.11,0.533-0.11,0.984v8.93c0,0.451,0.037,0.779,0.11,0.984
		s0.208,0.346,0.404,0.422s0.511,0.123,0.945,0.141v0.36c-0.563-0.035-1.324-0.053-2.285-0.053c-1.031,0-1.799,0.018-2.303,0.053
		v-0.36c0.434-0.018,0.747-0.064,0.94-0.141s0.327-0.217,0.4-0.422s0.11-0.533,0.11-0.984v-9.633l-4.333,11.628h-0.29l-4.535-11.681
		v9.501c0,0.463,0.041,0.812,0.123,1.046s0.236,0.403,0.461,0.505s0.576,0.163,1.05,0.18v0.36c-0.428-0.035-1.04-0.053-1.837-0.053
		c-0.715,0-1.271,0.018-1.67,0.053v-0.36c0.416-0.018,0.725-0.078,0.927-0.18s0.341-0.271,0.417-0.505s0.114-0.583,0.114-1.046
		v-8.745c0-0.451-0.037-0.779-0.11-0.984s-0.208-0.346-0.404-0.422s-0.511-0.123-0.945-0.141v-0.36
		c0.393,0.035,0.949,0.053,1.67,0.053c0.633,0,1.146-0.018,1.538-0.053l3.955,10.441l3.867-10.389h0.853
		c0.961,0,1.723-0.018,2.285-0.053v0.36C197.61,87.967,197.295,88.014,197.099,88.09z"/>
	<path d="M214.414,88.13c-0.202,0.103-0.341,0.271-0.417,0.505s-0.114,0.583-0.114,1.046v10.74h-0.413l-7.559-11.681v9.501
		c0,0.463,0.041,0.812,0.123,1.046s0.236,0.403,0.461,0.505s0.576,0.163,1.05,0.18v0.36c-0.428-0.035-1.04-0.053-1.837-0.053
		c-0.715,0-1.271,0.018-1.67,0.053v-0.36c0.416-0.018,0.725-0.078,0.927-0.18s0.341-0.271,0.417-0.505s0.114-0.583,0.114-1.046
		v-8.745c0-0.451-0.037-0.779-0.11-0.984s-0.208-0.346-0.404-0.422s-0.511-0.123-0.945-0.141v-0.36
		c0.393,0.035,0.949,0.053,1.67,0.053c0.539,0,1.008-0.018,1.406-0.053l6.354,9.791v-7.699c0-0.463-0.04-0.812-0.119-1.046
		s-0.233-0.403-0.461-0.505s-0.58-0.163-1.055-0.18v-0.36c0.428,0.035,1.04,0.053,1.837,0.053c0.715,0,1.271-0.018,1.67-0.053v0.36
		C214.925,87.967,214.616,88.027,214.414,88.13z"/>
	<path d="M230.155,88.108c0.858,0.516,1.523,1.264,1.995,2.246s0.708,2.149,0.708,3.502c0,1.324-0.243,2.496-0.729,3.516
		s-1.163,1.811-2.03,2.373s-1.854,0.844-2.962,0.844c-1.143,0-2.143-0.258-3.001-0.773s-1.523-1.264-1.995-2.246
		s-0.708-2.149-0.708-3.502c0-1.324,0.243-2.496,0.729-3.516s1.163-1.811,2.03-2.373s1.854-0.844,2.962-0.844
		C228.296,87.334,229.296,87.592,230.155,88.108z M225.053,88.464c-0.586,0.536-1.037,1.283-1.354,2.241s-0.475,2.055-0.475,3.292
		c0,1.248,0.176,2.347,0.527,3.296s0.831,1.682,1.437,2.197s1.279,0.773,2.017,0.773c0.768,0,1.443-0.268,2.026-0.804
		s1.033-1.283,1.349-2.241s0.475-2.055,0.475-3.292c0-1.248-0.176-2.347-0.527-3.296s-0.829-1.682-1.433-2.197
		s-1.274-0.773-2.013-0.773C226.315,87.66,225.639,87.928,225.053,88.464z"/>
	<path d="M242.183,98.426c0,0.451,0.047,0.779,0.141,0.984s0.264,0.346,0.51,0.422s0.636,0.123,1.169,0.141v0.36
		c-0.621-0.035-1.503-0.053-2.646-0.053c-1.031,0-1.799,0.018-2.303,0.053v-0.36c0.434-0.018,0.749-0.064,0.945-0.141
		s0.331-0.217,0.404-0.422s0.11-0.533,0.11-0.984v-8.93c0-0.451-0.037-0.779-0.11-0.984s-0.208-0.346-0.404-0.422
		s-0.511-0.123-0.945-0.141v-0.36c0.498,0.035,1.23,0.053,2.197,0.053c0.469,0,0.986-0.006,1.551-0.018s0.954-0.018,1.165-0.018
		c0.943,0,1.74,0.148,2.391,0.444s1.138,0.71,1.463,1.244s0.488,1.154,0.488,1.863c0,0.656-0.146,1.289-0.439,1.898
		s-0.792,1.116-1.499,1.521s-1.639,0.606-2.799,0.606h-1.389V98.426z M245.83,93.882c0.451-0.627,0.677-1.471,0.677-2.531
		c0-0.773-0.1-1.409-0.299-1.907s-0.517-0.872-0.954-1.121s-1.015-0.374-1.736-0.374c-0.375,0-0.656,0.042-0.844,0.127
		s-0.316,0.236-0.387,0.453s-0.105,0.539-0.105,0.967v5.326h1.213C244.567,94.823,245.379,94.509,245.83,93.882z"/>
	<path d="M265.465,102.909c-0.598,0.539-1.409,0.809-2.435,0.809c-0.557,0-1.094-0.083-1.613-0.25s-1.211-0.441-2.079-0.822
		s-1.567-0.659-2.101-0.835c-0.082-0.023-0.16-0.045-0.233-0.066s-0.139-0.04-0.198-0.057c-0.527,0.176-1.025,0.264-1.494,0.264
		c-0.557,0-0.835-0.12-0.835-0.36c0-0.252,0.325-0.378,0.976-0.378c0.434,0,0.885,0.05,1.354,0.149
		c0.229-0.059,0.437-0.126,0.624-0.202s0.426-0.18,0.716-0.312s0.52-0.23,0.69-0.294c-1.014-0.1-1.898-0.42-2.654-0.962
		s-1.339-1.283-1.749-2.224s-0.615-2.041-0.615-3.3c0-1.324,0.243-2.496,0.729-3.516s1.163-1.811,2.03-2.373
		s1.854-0.844,2.962-0.844c1.143,0,2.143,0.258,3.001,0.773s1.523,1.264,1.995,2.246s0.708,2.149,0.708,3.502
		c0,1.248-0.217,2.361-0.65,3.34s-1.04,1.761-1.819,2.347s-1.673,0.926-2.681,1.02v0.009c-0.293,0.035-0.551,0.089-0.773,0.163
		s-0.523,0.19-0.901,0.352s-0.708,0.283-0.989,0.365c1.318,0.264,2.445,0.473,3.379,0.628s1.709,0.233,2.325,0.233
		c0.855,0,1.532-0.125,2.03-0.374s0.885-0.646,1.16-1.191l0.272,0.105C266.329,101.772,265.951,102.458,265.465,102.909z
		 M256.14,97.292c0.352,0.949,0.831,1.682,1.437,2.197s1.279,0.773,2.017,0.773c0.768,0,1.443-0.268,2.026-0.804
		s1.033-1.283,1.349-2.241s0.475-2.055,0.475-3.292c0-1.248-0.176-2.347-0.527-3.296s-0.829-1.682-1.433-2.197
		s-1.274-0.773-2.013-0.773c-0.768,0-1.444,0.268-2.03,0.804s-1.037,1.283-1.354,2.241s-0.475,2.055-0.475,3.292
		C255.612,95.245,255.788,96.343,256.14,97.292z"/>
	<path d="M281.733,100.316c-0.275,0.182-0.639,0.272-1.09,0.272c-0.492,0-0.896-0.144-1.213-0.431s-0.557-0.794-0.721-1.521
		l-0.396-1.793c-0.141-0.627-0.274-1.109-0.4-1.446s-0.316-0.606-0.571-0.809s-0.608-0.303-1.059-0.303h-1.714v4.14
		c0,0.451,0.037,0.779,0.11,0.984s0.208,0.346,0.404,0.422s0.511,0.123,0.945,0.141v0.36c-0.551-0.035-1.313-0.053-2.285-0.053
		c-1.031,0-1.799,0.018-2.303,0.053v-0.36c0.434-0.018,0.749-0.064,0.945-0.141s0.331-0.217,0.404-0.422s0.11-0.533,0.11-0.984
		v-8.93c0-0.451-0.037-0.779-0.11-0.984s-0.208-0.346-0.404-0.422s-0.511-0.123-0.945-0.141v-0.36
		c0.504,0.035,1.236,0.053,2.197,0.053c0.469,0,0.986-0.006,1.551-0.018s0.954-0.018,1.165-0.018c0.938,0,1.731,0.136,2.382,0.409
		s1.14,0.645,1.468,1.116s0.492,1.006,0.492,1.604c0,0.469-0.11,0.942-0.33,1.419s-0.592,0.905-1.116,1.283s-1.208,0.631-2.052,0.76
		l0.22,0.035c0.539,0.088,0.97,0.221,1.292,0.4s0.579,0.423,0.769,0.734s0.344,0.724,0.461,1.239l0.448,1.837
		c0.076,0.369,0.154,0.658,0.233,0.866s0.173,0.362,0.281,0.461s0.245,0.149,0.409,0.149c0.199,0,0.363-0.051,0.492-0.154
		s0.293-0.28,0.492-0.532l0.272,0.202C282.287,99.841,282.009,100.134,281.733,100.316z M277.682,93.54
		c0.457-0.258,0.773-0.604,0.949-1.037s0.264-0.955,0.264-1.564c0-0.984-0.234-1.729-0.703-2.232s-1.23-0.756-2.285-0.756
		c-0.375,0-0.656,0.042-0.844,0.127s-0.316,0.236-0.387,0.453s-0.105,0.539-0.105,0.967v4.43h1.213
		C276.592,93.926,277.225,93.797,277.682,93.54z"/>
	<path d="M289.125,99.099c0.516,0.753,1.31,1.129,2.382,1.129c0.41,0,0.792-0.085,1.147-0.255s0.642-0.435,0.861-0.795
		s0.33-0.81,0.33-1.349c0-0.463-0.113-0.877-0.338-1.244s-0.532-0.702-0.918-1.006s-0.902-0.65-1.547-1.037
		c-0.715-0.428-1.289-0.812-1.723-1.151s-0.79-0.746-1.068-1.217s-0.417-1.027-0.417-1.666c0-0.68,0.154-1.254,0.461-1.723
		s0.718-0.819,1.23-1.05s1.077-0.347,1.692-0.347c0.369,0,0.687,0.031,0.954,0.092s0.488,0.138,0.664,0.229s0.369,0.207,0.58,0.347
		c0.27,0.17,0.475,0.255,0.615,0.255c0.111,0,0.196-0.063,0.255-0.189s0.105-0.327,0.141-0.602h0.413
		c-0.059,0.703-0.088,1.928-0.088,3.674h-0.413c-0.047-0.615-0.18-1.184-0.4-1.705s-0.542-0.945-0.967-1.27
		s-0.954-0.488-1.586-0.488c-0.422,0-0.8,0.088-1.134,0.264s-0.595,0.422-0.782,0.738s-0.281,0.68-0.281,1.09
		c0,0.65,0.196,1.175,0.589,1.573s0.851,0.757,1.375,1.077s0.877,0.535,1.059,0.646c0.756,0.475,1.354,0.886,1.793,1.235
		s0.791,0.753,1.055,1.213s0.396,0.995,0.396,1.604c0,0.738-0.17,1.364-0.51,1.876s-0.798,0.898-1.375,1.156
		s-1.223,0.387-1.938,0.387c-0.574,0-1.046-0.06-1.415-0.18s-0.718-0.283-1.046-0.488c-0.27-0.17-0.475-0.255-0.615-0.255
		c-0.111,0-0.196,0.063-0.255,0.189s-0.105,0.327-0.141,0.602h-0.413c0.047-0.656,0.07-2.095,0.07-4.315h0.413
		C288.311,97.36,288.609,98.346,289.125,99.099z"/>
	<path d="M301.034,89.892c0-0.703-0.044-1.471-0.132-2.303c0.996,0.035,2.689,0.053,5.08,0.053c2.373,0,4.058-0.018,5.054-0.053
		c-0.082,0.855-0.123,1.623-0.123,2.303c0,0.604,0.018,1.096,0.053,1.477h-0.413c-0.094-0.932-0.212-1.622-0.356-2.07
		s-0.396-0.776-0.756-0.984s-0.913-0.312-1.657-0.312h-0.976v10.239c0,0.498,0.047,0.863,0.141,1.094s0.264,0.391,0.51,0.479
		s0.636,0.141,1.169,0.158v0.36c-0.633-0.035-1.515-0.053-2.646-0.053c-1.201,0-2.089,0.018-2.663,0.053v-0.36
		c0.533-0.018,0.923-0.07,1.169-0.158s0.416-0.248,0.51-0.479s0.141-0.596,0.141-1.094V88.002h-0.976
		c-0.744,0-1.296,0.104-1.657,0.312s-0.612,0.536-0.756,0.984s-0.262,1.138-0.356,2.07h-0.413
		C301.017,90.988,301.034,90.496,301.034,89.892z"/>
	<path d="M326.474,88.13c-0.202,0.103-0.34,0.271-0.413,0.505s-0.11,0.583-0.11,1.046v5.414c0,0.861-0.057,1.601-0.171,2.219
		s-0.303,1.15-0.567,1.595c-0.305,0.516-0.749,0.924-1.332,1.226s-1.238,0.453-1.964,0.453c-1.318,0-2.326-0.325-3.023-0.976
		c-0.357-0.334-0.631-0.687-0.822-1.059s-0.324-0.822-0.4-1.349s-0.114-1.213-0.114-2.057v-5.651c0-0.451-0.037-0.779-0.11-0.984
		s-0.208-0.346-0.404-0.422s-0.511-0.123-0.945-0.141v-0.36c0.51,0.035,1.277,0.053,2.303,0.053c0.967,0,1.731-0.018,2.294-0.053
		v0.36c-0.434,0.018-0.749,0.064-0.945,0.141s-0.331,0.217-0.404,0.422s-0.11,0.533-0.11,0.984v5.959
		c0,0.961,0.064,1.758,0.193,2.391s0.4,1.143,0.813,1.529s1.024,0.58,1.833,0.58c1.271,0,2.165-0.407,2.681-1.222
		s0.773-1.96,0.773-3.437v-5.616c0-0.445-0.051-0.788-0.154-1.028s-0.27-0.413-0.501-0.519s-0.558-0.167-0.98-0.185v-0.36
		c0.434,0.035,1.046,0.053,1.837,0.053c0.721,0,1.277-0.018,1.67-0.053v0.36C326.985,87.967,326.676,88.027,326.474,88.13z"/>
	<path d="M341.886,87.642c0.539,0,0.99-0.018,1.354-0.053v0.36c-0.604,0.135-1.078,0.656-1.424,1.564l-4.228,10.907h-0.149h-0.141
		l-4.395-11.32c-0.293-0.744-0.706-1.128-1.239-1.151v-0.36c0.486,0.035,1.128,0.053,1.925,0.053c1.031,0,1.799-0.018,2.303-0.053
		v0.36c-0.457,0.018-0.784,0.073-0.98,0.167s-0.294,0.261-0.294,0.501c0,0.199,0.07,0.48,0.211,0.844l3.261,8.648l2.936-7.603
		c0.24-0.621,0.36-1.11,0.36-1.468c0-0.381-0.129-0.655-0.387-0.822s-0.653-0.256-1.187-0.268v-0.36
		C340.497,87.625,341.188,87.642,341.886,87.642z"/>
	<path d="M361.354,87.642c0.539,0,0.99-0.018,1.354-0.053v0.36c-0.668,0.146-1.143,0.668-1.424,1.564l-3.401,10.907h-0.149h-0.141
		l-3.129-9.272l-2.865,9.272h-0.141h-0.149l-3.814-11.32c-0.258-0.738-0.671-1.122-1.239-1.151v-0.36
		c0.48,0.035,1.122,0.053,1.925,0.053c0.861,0,1.509-0.018,1.942-0.053v0.36c-0.316,0.023-0.542,0.082-0.677,0.176
		s-0.202,0.243-0.202,0.448c0,0.193,0.064,0.489,0.193,0.888l2.637,8.024l2.18-6.97l-0.475-1.415
		c-0.246-0.744-0.601-1.128-1.063-1.151v-0.36c0.434,0.035,1.017,0.053,1.749,0.053c1.025,0,1.793-0.018,2.303-0.053v0.36
		c-0.311,0.012-0.548,0.034-0.712,0.066s-0.292,0.092-0.382,0.18s-0.136,0.22-0.136,0.396c0,0.199,0.062,0.489,0.185,0.87
		l2.584,8.007l2.224-6.961c0.193-0.609,0.29-1.093,0.29-1.45c0-0.398-0.122-0.68-0.365-0.844s-0.634-0.252-1.173-0.264v-0.36
		C359.965,87.625,360.656,87.642,361.354,87.642z"/>
	<path d="M376.761,99.6c0.111,0.12,0.229,0.207,0.352,0.259s0.275,0.085,0.457,0.097v0.378c-0.82-0.047-1.336-0.07-1.547-0.07
		c-0.404,0-1.251,0.023-2.54,0.07v-0.378c0.469,0,0.8-0.021,0.993-0.062s0.29-0.117,0.29-0.229c0-0.088-0.044-0.196-0.132-0.325
		l-3.076-4.711l-1.942,2.9c-0.457,0.68-0.686,1.207-0.686,1.582c0,0.305,0.136,0.521,0.409,0.65s0.669,0.199,1.191,0.211v0.36
		c-0.68-0.035-1.488-0.053-2.426-0.053c-0.662,0-1.172,0.018-1.529,0.053v-0.36c0.357-0.053,0.699-0.214,1.024-0.483
		s0.661-0.659,1.006-1.169l2.716-4.052l-3.524-5.405c-0.152-0.24-0.284-0.42-0.396-0.541s-0.229-0.207-0.352-0.259
		s-0.275-0.085-0.457-0.097v-0.378c0.82,0.047,1.336,0.07,1.547,0.07c0.803,0,1.649-0.023,2.54-0.07v0.378
		c-0.803,0-1.204,0.132-1.204,0.396c0,0.094,0.053,0.226,0.158,0.396l2.804,4.289l1.767-2.646c0.521-0.779,0.782-1.356,0.782-1.731
		c0-0.252-0.116-0.432-0.347-0.541s-0.582-0.168-1.05-0.18v-0.36c0.686,0.035,1.377,0.053,2.074,0.053
		c0.656,0,1.166-0.018,1.529-0.053v0.36c-0.363,0.053-0.708,0.215-1.033,0.488s-0.658,0.661-0.998,1.165l-2.522,3.762l3.727,5.695
		C376.518,99.299,376.649,99.479,376.761,99.6z"/>
	<path d="M390.568,87.642c0.539,0,0.987-0.018,1.345-0.053v0.36c-0.24,0.053-0.475,0.204-0.703,0.453s-0.475,0.631-0.738,1.147
		l-2.821,5.599v3.278c0,0.451,0.036,0.779,0.11,0.984c0.072,0.205,0.207,0.346,0.404,0.422c0.195,0.076,0.511,0.123,0.944,0.141
		v0.36c-0.563-0.035-1.324-0.053-2.285-0.053c-1.031,0-1.802,0.018-2.312,0.053v-0.36c0.434-0.018,0.748-0.064,0.945-0.141
		c0.195-0.076,0.33-0.217,0.404-0.422c0.072-0.205,0.109-0.533,0.109-0.984V95.71l-3.647-6.732
		c-0.223-0.404-0.415-0.674-0.575-0.809c-0.162-0.135-0.318-0.202-0.471-0.202v-0.378c0.469,0.035,0.996,0.053,1.582,0.053
		c1.166,0,2.007-0.018,2.522-0.053v0.378c-0.844,0-1.266,0.231-1.266,0.694c0,0.176,0.062,0.384,0.185,0.624l2.997,5.739l2.294-4.57
		c0.328-0.662,0.492-1.178,0.492-1.547c0-0.34-0.132-0.582-0.396-0.725s-0.662-0.221-1.195-0.233v-0.36
		C389.18,87.625,389.871,87.642,390.568,87.642z"/>
	<path d="M398.312,99.92h3.797c0.75,0,1.319-0.105,1.709-0.316s0.671-0.548,0.844-1.011s0.307-1.143,0.4-2.039h0.413
		c-0.041,0.439-0.062,0.932-0.062,1.477c0,0.621,0.044,1.389,0.132,2.303c-0.891-0.035-2.385-0.053-4.482-0.053
		c-2.051,0-3.533,0.018-4.447,0.053v-0.36l7.506-11.971h-3.779c-0.75,0-1.32,0.105-1.71,0.316s-0.671,0.548-0.844,1.011
		s-0.306,1.143-0.399,2.039h-0.413c0.035-0.381,0.053-0.873,0.053-1.477c0-0.68-0.041-1.447-0.123-2.303
		c0.885,0.035,2.379,0.053,4.482,0.053c2.039,0,3.495-0.018,4.368-0.053v0.36L398.312,99.92z"/>
	<path d="M5.313,113.158c-0.29-0.255-0.702-0.382-1.235-0.382c-0.85,0-1.444,0.214-1.784,0.642c0.24,0.059,0.441,0.186,0.602,0.382
		s0.242,0.435,0.242,0.716c0,0.305-0.095,0.543-0.286,0.716s-0.447,0.259-0.769,0.259c-0.305,0-0.543-0.103-0.716-0.308
		s-0.259-0.475-0.259-0.809c0-0.469,0.281-0.896,0.844-1.283c0.293-0.193,0.655-0.354,1.085-0.483s0.91-0.193,1.437-0.193
		c0.492,0,0.926,0.06,1.301,0.18s0.668,0.286,0.879,0.497c0.275,0.281,0.464,0.608,0.567,0.98s0.154,0.886,0.154,1.542v5.001
		c0,0.299,0.042,0.516,0.127,0.65s0.227,0.202,0.426,0.202c0.146,0,0.281-0.032,0.404-0.097s0.258-0.158,0.404-0.281l0.202,0.308
		c-0.211,0.158-0.387,0.281-0.527,0.369s-0.302,0.158-0.483,0.211s-0.393,0.079-0.633,0.079c-0.58,0-0.983-0.145-1.208-0.435
		s-0.338-0.678-0.338-1.165c-0.352,0.58-0.773,0.992-1.266,1.235s-0.993,0.365-1.503,0.365c-0.416,0-0.797-0.072-1.143-0.215
		s-0.623-0.366-0.831-0.668s-0.312-0.678-0.312-1.129c0-0.457,0.111-0.847,0.334-1.169s0.536-0.605,0.94-0.848
		s0.946-0.508,1.626-0.795c0.117-0.047,0.404-0.164,0.861-0.352s0.787-0.375,0.989-0.563s0.303-0.393,0.303-0.615v-1.116
		C5.748,113.889,5.603,113.413,5.313,113.158z M5.309,116.818c-0.205,0.117-0.633,0.334-1.283,0.65
		c-0.346,0.164-0.639,0.333-0.879,0.505s-0.445,0.406-0.615,0.699s-0.255,0.653-0.255,1.081c0,0.521,0.132,0.916,0.396,1.182
		s0.612,0.4,1.046,0.4c0.797,0,1.474-0.454,2.03-1.362v-3.533C5.66,116.575,5.514,116.701,5.309,116.818z"/>
	<path d="M17.429,112.92c0.492-0.337,1.049-0.505,1.67-0.505c0.668,0,1.258,0.183,1.771,0.549s0.916,0.917,1.208,1.652
		s0.439,1.633,0.439,2.694c0,1.037-0.18,1.923-0.541,2.659s-0.845,1.289-1.455,1.661s-1.283,0.558-2.021,0.558
		c-0.439,0-0.867-0.089-1.283-0.268s-0.779-0.441-1.09-0.787l-1.283,1.09l-0.299-0.132c0.082-0.293,0.123-0.639,0.123-1.037v-11.057
		c0-0.557-0.101-0.959-0.303-1.208s-0.558-0.374-1.068-0.374v-0.378c0.381,0.035,0.753,0.053,1.116,0.053
		c0.773,0,1.397-0.085,1.872-0.255v6.504C16.556,113.73,16.937,113.257,17.429,112.92z M17.249,121.547
		c0.36,0.152,0.731,0.229,1.112,0.229c0.809,0,1.412-0.365,1.811-1.094s0.598-1.853,0.598-3.371c0-1.465-0.18-2.558-0.541-3.278
		s-0.913-1.081-1.657-1.081c-0.322,0-0.636,0.086-0.94,0.259s-0.576,0.428-0.813,0.765s-0.415,0.743-0.532,1.217v5.687
		C16.567,121.172,16.888,121.395,17.249,121.547z"/>
	<path d="M35.332,120.892c-0.281,0.378-0.649,0.688-1.103,0.932s-0.983,0.365-1.586,0.365c-0.75,0-1.427-0.193-2.03-0.58
		s-1.08-0.94-1.428-1.661s-0.523-1.564-0.523-2.531c0-0.973,0.177-1.838,0.532-2.597s0.851-1.349,1.49-1.771
		s1.362-0.633,2.171-0.633s1.506,0.19,2.092,0.571c0.563,0.381,0.844,0.844,0.844,1.389c0,0.316-0.089,0.564-0.268,0.743
		s-0.406,0.268-0.681,0.268c-0.281,0-0.517-0.081-0.708-0.242s-0.286-0.382-0.286-0.664c0-0.258,0.072-0.473,0.215-0.646
		s0.324-0.289,0.541-0.347c-0.117-0.217-0.331-0.397-0.642-0.541s-0.636-0.215-0.976-0.215c-0.439,0-0.853,0.141-1.239,0.422
		s-0.706,0.75-0.958,1.406s-0.378,1.518-0.378,2.584c0,1.494,0.24,2.58,0.721,3.256s1.104,1.015,1.872,1.015
		c0.51,0,0.998-0.149,1.463-0.448s0.848-0.768,1.147-1.406l0.343,0.123C35.821,120.111,35.613,120.514,35.332,120.892z"/>
	<path d="M48.722,120.954c-0.308,0.366-0.691,0.664-1.151,0.892s-0.974,0.343-1.542,0.343c-0.855,0-1.595-0.195-2.219-0.584
		s-1.1-0.938-1.428-1.644s-0.492-1.519-0.492-2.439c0-1.043,0.167-1.948,0.501-2.716s0.807-1.358,1.419-1.771s1.329-0.62,2.149-0.62
		c1.078,0,1.909,0.327,2.492,0.98s0.875,1.645,0.875,2.975h-5.625c-0.041,0.311-0.062,0.694-0.062,1.151
		c0,0.791,0.13,1.482,0.391,2.074s0.602,1.046,1.024,1.362s0.867,0.475,1.336,0.475c1.207,0,2.089-0.601,2.646-1.802l0.36,0.141
		C49.254,120.193,49.03,120.587,48.722,120.954z M47.443,114.384c-0.123-0.498-0.316-0.894-0.58-1.187s-0.589-0.439-0.976-0.439
		c-0.369,0-0.709,0.119-1.02,0.356s-0.573,0.601-0.787,1.09s-0.35,1.097-0.409,1.824h3.92
		C47.616,115.43,47.566,114.882,47.443,114.384z"/>
	<path d="M56.646,110.89c0.059-0.478,0.154-0.883,0.286-1.217s0.315-0.639,0.549-0.914c0.234-0.281,0.539-0.502,0.914-0.664
		s0.782-0.242,1.222-0.242c0.615,0,1.137,0.164,1.564,0.492c0.375,0.305,0.563,0.677,0.563,1.116c0,0.275-0.089,0.502-0.268,0.681
		s-0.409,0.268-0.69,0.268c-0.275,0-0.508-0.088-0.699-0.264s-0.286-0.41-0.286-0.703c0-0.246,0.069-0.45,0.207-0.611
		s0.321-0.265,0.549-0.312c-0.035-0.111-0.132-0.205-0.29-0.281s-0.357-0.114-0.598-0.114c-0.533,0-0.923,0.223-1.169,0.668
		c-0.135,0.24-0.223,0.599-0.264,1.077s-0.062,1.258-0.062,2.342v0.466h1.934v0.36h-1.934v7.04c0,0.557,0.158,0.942,0.475,1.156
		s0.794,0.321,1.433,0.321v0.378c-1.477-0.047-2.399-0.07-2.769-0.07c-0.293,0-1.002,0.023-2.127,0.07v-0.378
		c0.34,0,0.608-0.038,0.804-0.114s0.34-0.208,0.431-0.396s0.136-0.448,0.136-0.782v-7.225h-1.441v-0.36h1.441
		C56.558,111.964,56.587,111.368,56.646,110.89z"/>
	<path d="M73.525,120.352c0.39,0.264,0.584,0.688,0.584,1.274c0,0.574-0.186,1.146-0.558,1.714s-0.938,1.04-1.696,1.415
		s-1.686,0.563-2.782,0.563c-0.627,0-1.217-0.063-1.771-0.189s-1-0.313-1.34-0.563s-0.51-0.549-0.51-0.901
		c0-0.41,0.215-0.807,0.646-1.191s0.968-0.719,1.613-1.006h-0.062c-0.457,0-0.872-0.097-1.244-0.29s-0.558-0.554-0.558-1.081
		c0-0.41,0.17-0.8,0.51-1.169s0.92-0.738,1.74-1.107c-0.527-0.205-0.938-0.521-1.23-0.949s-0.439-0.967-0.439-1.617
		c0-0.949,0.303-1.66,0.91-2.131s1.411-0.708,2.413-0.708c0.469,0,0.894,0.053,1.274,0.158c0.117-0.668,0.328-1.201,0.633-1.6
		c0.322-0.398,0.732-0.598,1.23-0.598c0.299,0,0.532,0.088,0.699,0.264s0.25,0.401,0.25,0.677c0,0.246-0.082,0.451-0.246,0.615
		s-0.369,0.246-0.615,0.246c-0.305,0-0.524-0.092-0.659-0.277s-0.234-0.47-0.299-0.857c-0.176,0.158-0.337,0.451-0.483,0.879
		c-0.088,0.264-0.149,0.513-0.185,0.747c0.545,0.199,0.97,0.514,1.274,0.945s0.457,0.977,0.457,1.639
		c0,0.639-0.144,1.17-0.431,1.595s-0.68,0.74-1.178,0.945s-1.072,0.308-1.723,0.308c-0.486,0-0.929-0.056-1.327-0.167
		c-0.486,0.258-0.86,0.497-1.121,0.716s-0.391,0.456-0.391,0.708c0,0.199,0.067,0.349,0.202,0.448s0.354,0.149,0.659,0.149H72
		C72.627,119.956,73.135,120.088,73.525,120.352z M67.25,122.268c-0.214,0.334-0.321,0.674-0.321,1.02
		c0,0.387,0.129,0.709,0.387,0.967s0.589,0.448,0.993,0.571s0.82,0.185,1.248,0.185c0.533,0,1.055-0.095,1.564-0.286
		s0.929-0.478,1.257-0.861s0.492-0.848,0.492-1.393c0-0.234-0.04-0.423-0.119-0.567s-0.218-0.252-0.417-0.325
		s-0.478-0.11-0.835-0.11H68.15C67.764,121.667,67.463,121.934,67.25,122.268z M68.533,113.307
		c-0.278,0.384-0.417,1.033-0.417,1.947s0.139,1.563,0.417,1.947s0.684,0.576,1.217,0.576c0.539,0,0.948-0.19,1.226-0.571
		s0.417-1.031,0.417-1.951s-0.139-1.57-0.417-1.951s-0.687-0.571-1.226-0.571C69.217,112.731,68.811,112.923,68.533,113.307z"/>
	<path d="M82.982,112.92c0.536-0.337,1.138-0.505,1.806-0.505c0.838,0,1.474,0.226,1.907,0.677c0.229,0.246,0.391,0.549,0.488,0.91
		s0.145,0.845,0.145,1.455v4.808c0,0.334,0.045,0.595,0.136,0.782s0.234,0.319,0.431,0.396s0.464,0.114,0.804,0.114v0.378
		c-1.125-0.047-1.846-0.07-2.162-0.07c-0.34,0-1.014,0.023-2.021,0.07v-0.378c0.299,0,0.533-0.038,0.703-0.114
		s0.294-0.208,0.374-0.396s0.119-0.448,0.119-0.782v-5.203c0-0.434-0.035-0.797-0.105-1.09s-0.212-0.53-0.426-0.712
		s-0.523-0.272-0.927-0.272c-0.486,0-0.921,0.139-1.305,0.417s-0.683,0.665-0.896,1.16s-0.321,1.056-0.321,1.683v4.017
		c0,0.334,0.04,0.595,0.119,0.782s0.202,0.319,0.369,0.396s0.4,0.114,0.699,0.114v0.378c-1.008-0.047-1.679-0.07-2.013-0.07
		c-0.34,0-1.061,0.023-2.162,0.07v-0.378c0.34,0,0.608-0.038,0.804-0.114s0.34-0.208,0.431-0.396s0.136-0.448,0.136-0.782v-10.266
		c0-0.557-0.101-0.959-0.303-1.208s-0.558-0.374-1.068-0.374v-0.378c0.381,0.035,0.753,0.053,1.116,0.053
		c0.773,0,1.397-0.085,1.872-0.255v6.732C82.028,113.807,82.446,113.257,82.982,112.92z"/>
	<path d="M97.088,121.046c0.091,0.188,0.234,0.319,0.431,0.396s0.464,0.114,0.804,0.114v0.378c-1.102-0.047-1.828-0.07-2.18-0.07
		s-1.078,0.023-2.18,0.07v-0.378c0.34,0,0.608-0.038,0.804-0.114s0.34-0.208,0.431-0.396s0.136-0.448,0.136-0.782v-5.634
		c0-0.557-0.101-0.961-0.303-1.213s-0.558-0.378-1.068-0.378v-0.378c0.375,0.035,0.747,0.053,1.116,0.053
		c0.762,0,1.386-0.082,1.872-0.246v7.796C96.952,120.598,96.998,120.858,97.088,121.046z M96.592,108.319
		c0.176,0.105,0.316,0.246,0.422,0.422s0.158,0.366,0.158,0.571s-0.053,0.397-0.158,0.576s-0.246,0.319-0.422,0.422
		s-0.366,0.154-0.571,0.154s-0.397-0.051-0.576-0.154s-0.319-0.243-0.422-0.422s-0.154-0.371-0.154-0.576s0.051-0.396,0.154-0.571
		s0.243-0.316,0.422-0.422s0.371-0.158,0.576-0.158S96.416,108.214,96.592,108.319z"/>
	<path d="M106.396,122.421c-0.132,0.729-0.385,1.329-0.76,1.797c-0.275,0.357-0.608,0.63-0.998,0.817s-0.781,0.281-1.173,0.281
		c-0.422,0-0.759-0.091-1.011-0.272c-0.264-0.199-0.396-0.475-0.396-0.826c0-0.275,0.086-0.5,0.259-0.672s0.397-0.259,0.672-0.259
		c0.287,0,0.516,0.073,0.686,0.22s0.255,0.366,0.255,0.659c0,0.41-0.229,0.697-0.686,0.861c0.07,0.012,0.173,0.018,0.308,0.018
		c0.416,0,0.753-0.138,1.011-0.413c0.275-0.346,0.413-0.855,0.413-1.529v-8.473c0-0.557-0.101-0.961-0.303-1.213
		s-0.558-0.378-1.068-0.378v-0.378c0.375,0.035,0.747,0.053,1.116,0.053c0.762,0,1.386-0.082,1.872-0.246v7.392
		C106.594,120.838,106.528,121.692,106.396,122.421z M106.176,108.412c0.179,0.103,0.319,0.243,0.422,0.422s0.154,0.371,0.154,0.576
		s-0.051,0.396-0.154,0.571s-0.243,0.316-0.422,0.422s-0.371,0.158-0.576,0.158s-0.396-0.053-0.571-0.158s-0.316-0.246-0.422-0.422
		s-0.158-0.366-0.158-0.571s0.053-0.397,0.158-0.576s0.246-0.319,0.422-0.422s0.366-0.154,0.571-0.154
		S105.998,108.309,106.176,108.412z"/>
	<path d="M121.078,121.288c0.182,0.144,0.398,0.233,0.65,0.268v0.378c-0.727-0.047-1.213-0.07-1.459-0.07
		c-0.322,0-0.987,0.023-1.995,0.07v-0.378c0.17,0,0.305-0.032,0.404-0.097s0.149-0.146,0.149-0.246c0-0.082-0.035-0.173-0.105-0.272
		l-2.065-3.023c-0.217-0.305-0.416-0.51-0.598-0.615s-0.434-0.164-0.756-0.176v3.138c0,0.334,0.04,0.595,0.119,0.782
		s0.202,0.319,0.369,0.396s0.4,0.114,0.699,0.114v0.378c-1.008-0.047-1.673-0.07-1.995-0.07c-0.352,0-1.078,0.023-2.18,0.07v-0.378
		c0.34,0,0.608-0.038,0.804-0.114s0.34-0.208,0.431-0.396s0.136-0.448,0.136-0.782V109.98c0-0.557-0.101-0.959-0.303-1.208
		s-0.558-0.374-1.068-0.374v-0.378c0.381,0.035,0.753,0.053,1.116,0.053c0.773,0,1.397-0.085,1.872-0.255v8.938
		c0.352-0.047,0.645-0.127,0.879-0.242s0.457-0.283,0.668-0.505l1.336-1.38c0.381-0.398,0.571-0.729,0.571-0.993
		c0-0.211-0.12-0.366-0.36-0.466s-0.563-0.149-0.967-0.149v-0.36c0.832,0.047,1.509,0.07,2.03,0.07c0.563,0,1.084-0.023,1.564-0.07
		v0.36c-0.586,0.053-1.125,0.334-1.617,0.844l-2.188,2.303l3.252,4.447C120.694,120.92,120.896,121.144,121.078,121.288z"/>
	<path d="M129.098,121.046c0.091,0.188,0.234,0.319,0.431,0.396s0.464,0.114,0.804,0.114v0.378c-1.102-0.047-1.828-0.07-2.18-0.07
		s-1.078,0.023-2.18,0.07v-0.378c0.34,0,0.608-0.038,0.804-0.114s0.34-0.208,0.431-0.396s0.136-0.448,0.136-0.782V109.98
		c0-0.557-0.101-0.959-0.303-1.208s-0.558-0.374-1.068-0.374v-0.378c0.375,0.035,0.747,0.053,1.116,0.053
		c0.773,0,1.397-0.085,1.872-0.255v12.445C128.962,120.598,129.007,120.858,129.098,121.046z"/>
	<path d="M149.691,121.046c0.091,0.188,0.234,0.319,0.431,0.396s0.464,0.114,0.804,0.114v0.378c-1.102-0.047-1.822-0.07-2.162-0.07
		c-0.334,0-1.005,0.023-2.013,0.07v-0.378c0.299,0,0.532-0.038,0.699-0.114s0.29-0.208,0.369-0.396s0.119-0.448,0.119-0.782v-5.203
		c0-0.457-0.026-0.828-0.079-1.112s-0.179-0.516-0.378-0.694s-0.504-0.268-0.914-0.268c-0.457,0-0.87,0.144-1.239,0.431
		s-0.659,0.68-0.87,1.178s-0.316,1.049-0.316,1.652v4.017c0,0.334,0.045,0.595,0.136,0.782s0.233,0.319,0.426,0.396
		s0.46,0.114,0.8,0.114v0.378c-1.102-0.047-1.819-0.07-2.153-0.07c-0.34,0-1.014,0.023-2.021,0.07v-0.378
		c0.299,0,0.533-0.038,0.703-0.114s0.293-0.208,0.369-0.396s0.114-0.448,0.114-0.782v-5.203c0-0.457-0.026-0.828-0.079-1.112
		s-0.179-0.516-0.378-0.694s-0.501-0.268-0.905-0.268c-0.463,0-0.879,0.145-1.248,0.435s-0.659,0.686-0.87,1.187
		s-0.316,1.053-0.316,1.657v3.999c0,0.334,0.04,0.595,0.119,0.782s0.204,0.319,0.374,0.396s0.404,0.114,0.703,0.114v0.378
		c-1.008-0.047-1.682-0.07-2.021-0.07s-1.061,0.023-2.162,0.07v-0.378c0.34,0,0.608-0.038,0.804-0.114s0.34-0.208,0.431-0.396
		s0.136-0.448,0.136-0.782v-5.634c0-0.557-0.101-0.961-0.303-1.213s-0.558-0.378-1.068-0.378v-0.378
		c0.375,0.035,0.747,0.053,1.116,0.053c0.762,0,1.386-0.082,1.872-0.246v2.118c0.293-0.738,0.703-1.285,1.23-1.639
		s1.102-0.532,1.723-0.532c0.814,0,1.438,0.226,1.872,0.677c0.299,0.328,0.483,0.812,0.554,1.45c0.299-0.756,0.712-1.299,1.239-1.63
		s1.113-0.497,1.758-0.497c0.814,0,1.438,0.226,1.872,0.677c0.217,0.24,0.369,0.546,0.457,0.918s0.132,0.854,0.132,1.446v4.808
		C149.555,120.598,149.6,120.858,149.691,121.046z"/>
	<path d="M160.44,112.929c0.536-0.343,1.141-0.514,1.815-0.514c0.838,0,1.474,0.226,1.907,0.677c0.223,0.246,0.382,0.549,0.479,0.91
		s0.145,0.845,0.145,1.455v4.808c0,0.334,0.045,0.595,0.136,0.782s0.234,0.319,0.431,0.396s0.464,0.114,0.804,0.114v0.378
		c-1.102-0.047-1.822-0.07-2.162-0.07c-0.334,0-1.005,0.023-2.013,0.07v-0.378c0.299,0,0.532-0.038,0.699-0.114
		s0.29-0.208,0.369-0.396s0.119-0.448,0.119-0.782v-5.203c0-0.434-0.034-0.797-0.101-1.09s-0.208-0.53-0.422-0.712
		s-0.526-0.272-0.936-0.272c-0.492,0-0.93,0.144-1.314,0.431s-0.681,0.681-0.892,1.182s-0.316,1.056-0.316,1.666v3.999
		c0,0.334,0.04,0.595,0.119,0.782s0.204,0.319,0.374,0.396s0.404,0.114,0.703,0.114v0.378c-1.008-0.047-1.682-0.07-2.021-0.07
		s-1.061,0.023-2.162,0.07v-0.378c0.34,0,0.608-0.038,0.804-0.114s0.34-0.208,0.431-0.396s0.136-0.448,0.136-0.782v-5.634
		c0-0.557-0.101-0.961-0.303-1.213s-0.558-0.378-1.068-0.378v-0.378c0.375,0.035,0.747,0.053,1.116,0.053
		c0.762,0,1.386-0.082,1.872-0.246v2.118C159.486,113.824,159.904,113.272,160.44,112.929z"/>
	<path d="M177.948,112.934c0.612,0.346,1.096,0.883,1.45,1.613s0.532,1.651,0.532,2.764s-0.177,2.033-0.532,2.76
		s-0.838,1.261-1.45,1.604s-1.314,0.514-2.105,0.514s-1.493-0.171-2.105-0.514s-1.096-0.877-1.45-1.604s-0.532-1.646-0.532-2.76
		s0.177-2.035,0.532-2.764s0.838-1.267,1.45-1.613s1.314-0.519,2.105-0.519S177.335,112.588,177.948,112.934z M174.133,113.883
		c-0.419,0.738-0.628,1.881-0.628,3.428c0,1.541,0.209,2.679,0.628,3.415s0.989,1.103,1.709,1.103s1.291-0.368,1.709-1.103
		s0.628-1.874,0.628-3.415c0-1.547-0.209-2.689-0.628-3.428s-0.989-1.107-1.709-1.107S174.552,113.145,174.133,113.883z"/>
	<path d="M189.8,112.925c0.504-0.34,1.078-0.51,1.723-0.51c0.639,0,1.211,0.173,1.718,0.519s0.905,0.855,1.195,1.529
		s0.435,1.479,0.435,2.417c0,0.92-0.146,1.783-0.439,2.588s-0.749,1.46-1.367,1.964s-1.39,0.756-2.316,0.756
		c-0.457,0-0.872-0.089-1.244-0.268s-0.661-0.415-0.866-0.708v2.303c0,0.486,0.144,0.825,0.431,1.015s0.721,0.286,1.301,0.286v0.378
		c-0.152-0.006-0.494-0.021-1.024-0.044s-1.053-0.035-1.569-0.035c-0.381,0-0.773,0.012-1.178,0.035s-0.659,0.038-0.765,0.044
		v-0.378c0.439,0,0.747-0.081,0.923-0.242s0.264-0.453,0.264-0.875v-9.07c0-0.557-0.101-0.961-0.303-1.213s-0.558-0.378-1.068-0.378
		v-0.378c0.375,0.035,0.747,0.053,1.116,0.053c0.762,0,1.386-0.082,1.872-0.246v1.898
		C188.909,113.745,189.296,113.265,189.8,112.925z M189.387,121.463c0.322,0.208,0.709,0.312,1.16,0.312
		c1.717,0,2.575-1.55,2.575-4.649c0-2.783-0.697-4.175-2.092-4.175c-0.545,0-1.033,0.195-1.463,0.584s-0.74,0.954-0.927,1.692v5.388
		C188.815,120.973,189.064,121.255,189.387,121.463z"/>
	<path d="M209.153,124.575c0.176,0.161,0.483,0.242,0.923,0.242v0.378c-0.105-0.006-0.36-0.021-0.765-0.044
		s-0.797-0.035-1.178-0.035c-0.516,0-1.039,0.012-1.569,0.035s-0.872,0.038-1.024,0.044v-0.378c0.58,0,1.014-0.095,1.301-0.286
		s0.431-0.529,0.431-1.015v-3.103c-0.24,0.568-0.582,1.006-1.024,1.314s-0.942,0.461-1.499,0.461c-0.703,0-1.334-0.182-1.894-0.545
		s-1.002-0.911-1.327-1.644s-0.488-1.629-0.488-2.689s0.168-1.958,0.505-2.694s0.795-1.286,1.375-1.652s1.239-0.549,1.978-0.549
		c0.609,0,1.119,0.104,1.529,0.312s0.744,0.541,1.002,0.998c0.639-0.674,1.066-1.122,1.283-1.345l0.308,0.123
		c-0.088,0.293-0.132,0.642-0.132,1.046V123.7C208.89,124.122,208.978,124.414,209.153,124.575z M205.04,112.828
		c-0.727,0-1.283,0.374-1.67,1.121s-0.58,1.868-0.58,3.362c0,1.436,0.212,2.517,0.637,3.243s1.042,1.09,1.85,1.09
		c0.445,0,0.851-0.18,1.217-0.541s0.625-0.875,0.778-1.542v-5.528C206.815,113.229,206.071,112.828,205.04,112.828z"/>
	<path d="M218.905,113.628c0.255-0.352,0.558-0.642,0.91-0.87s0.724-0.343,1.116-0.343c0.316,0,0.599,0.063,0.848,0.189
		s0.444,0.297,0.584,0.514s0.211,0.454,0.211,0.712c0,0.316-0.094,0.584-0.281,0.804s-0.437,0.33-0.747,0.33
		c-0.264,0-0.489-0.083-0.677-0.25s-0.281-0.394-0.281-0.681c0-0.393,0.205-0.718,0.615-0.976c-0.082-0.117-0.208-0.176-0.378-0.176
		c-0.475,0-0.902,0.182-1.283,0.545s-0.68,0.812-0.896,1.345s-0.325,1.031-0.325,1.494v3.814c0,0.557,0.158,0.942,0.475,1.156
		s0.794,0.321,1.433,0.321v0.378c-1.477-0.047-2.399-0.07-2.769-0.07c-0.316,0-1.025,0.023-2.127,0.07v-0.378
		c0.34,0,0.608-0.038,0.804-0.114s0.34-0.208,0.431-0.396s0.136-0.448,0.136-0.782v-5.634c0-0.557-0.101-0.961-0.303-1.213
		s-0.558-0.378-1.068-0.378v-0.378c0.375,0.035,0.747,0.053,1.116,0.053c0.762,0,1.386-0.082,1.872-0.246v2.25
		C218.455,114.343,218.65,113.979,218.905,113.628z"/>
	<path d="M228.779,120.299c0.164,0.48,0.416,0.855,0.756,1.125s0.797,0.404,1.371,0.404c0.264,0,0.517-0.057,0.76-0.171
		s0.444-0.299,0.602-0.554s0.237-0.584,0.237-0.989c0-0.328-0.083-0.623-0.25-0.883s-0.385-0.495-0.655-0.703
		s-0.647-0.464-1.134-0.769c-0.592-0.375-1.044-0.683-1.358-0.923s-0.579-0.533-0.795-0.879s-0.325-0.753-0.325-1.222
		c0-0.51,0.12-0.939,0.36-1.288s0.561-0.608,0.962-0.778s0.848-0.255,1.34-0.255c0.422,0,0.801,0.067,1.138,0.202
		s0.611,0.287,0.822,0.457c0.129,0.1,0.234,0.149,0.316,0.149c0.211,0,0.346-0.264,0.404-0.791h0.413
		c-0.047,0.586-0.07,1.605-0.07,3.059h-0.413c-0.129-0.791-0.384-1.444-0.765-1.96s-0.943-0.773-1.688-0.773
		c-0.434,0-0.788,0.122-1.063,0.365s-0.413,0.582-0.413,1.015c0,0.416,0.142,0.763,0.426,1.042s0.627,0.543,1.028,0.795
		s0.687,0.434,0.857,0.545c0.551,0.357,0.995,0.675,1.332,0.954s0.609,0.598,0.817,0.958s0.312,0.772,0.312,1.235
		c0,0.533-0.139,0.989-0.417,1.367s-0.652,0.665-1.121,0.861s-0.981,0.294-1.538,0.294c-0.533,0-1.008-0.085-1.424-0.255
		c-0.234-0.117-0.48-0.278-0.738-0.483c-0.047-0.047-0.103-0.07-0.167-0.07c-0.176,0-0.299,0.226-0.369,0.677h-0.413
		c0.047-0.686,0.07-1.884,0.07-3.595h0.413C228.489,119.206,228.615,119.818,228.779,120.299z"/>
	<path d="M245.285,112.679v0.36h-2.663v6.97c0,0.545,0.097,0.936,0.29,1.173s0.48,0.356,0.861,0.356
		c0.375,0,0.694-0.149,0.958-0.448s0.486-0.791,0.668-1.477l0.352,0.088c-0.293,1.658-1.072,2.487-2.338,2.487
		c-0.404,0-0.738-0.048-1.002-0.145s-0.498-0.248-0.703-0.453c-0.258-0.264-0.439-0.587-0.545-0.971s-0.158-0.901-0.158-1.551
		v-6.029h-1.731v-0.36h1.731v-2.751c0.674-0.018,1.213-0.103,1.617-0.255v3.006H245.285z"/>
	<path d="M258.737,121.2c0.202,0.249,0.558,0.374,1.068,0.374v0.378c-0.375-0.035-0.747-0.053-1.116-0.053
		c-0.773,0-1.397,0.085-1.872,0.255v-2.127c-0.293,0.738-0.702,1.283-1.226,1.635s-1.1,0.527-1.727,0.527
		c-0.809,0-1.433-0.229-1.872-0.686c-0.217-0.234-0.371-0.539-0.461-0.914s-0.136-0.855-0.136-1.441v-4.518
		c0-0.557-0.1-0.961-0.299-1.213s-0.554-0.378-1.063-0.378v-0.378c0.375,0.035,0.747,0.053,1.116,0.053
		c0.756,0,1.38-0.082,1.872-0.246v7.075c0,0.457,0.026,0.826,0.079,1.107s0.179,0.511,0.378,0.69s0.501,0.268,0.905,0.268
		c0.463,0,0.879-0.144,1.248-0.431s0.659-0.68,0.87-1.178s0.316-1.049,0.316-1.652v-3.718c0-0.557-0.101-0.961-0.303-1.213
		s-0.558-0.378-1.068-0.378v-0.378c0.375,0.035,0.747,0.053,1.116,0.053c0.762,0,1.386-0.082,1.872-0.246v7.523
		C258.434,120.548,258.535,120.951,258.737,121.2z"/>
	<path d="M271.608,112.714c0.527,0,0.981-0.018,1.362-0.053v0.36c-0.24,0.029-0.454,0.138-0.642,0.325s-0.363,0.501-0.527,0.94
		l-2.953,7.734h-0.299l-3.313-7.972c-0.176-0.416-0.35-0.688-0.523-0.817s-0.347-0.193-0.523-0.193v-0.378
		c0.621,0.047,1.148,0.07,1.582,0.07c0.92,0,1.699-0.023,2.338-0.07v0.378c-0.299,0-0.532,0.01-0.699,0.031
		s-0.305,0.075-0.413,0.163s-0.163,0.229-0.163,0.422c0,0.199,0.064,0.463,0.193,0.791l2.215,5.476l1.986-5.203
		c0.129-0.328,0.193-0.606,0.193-0.835c0-0.275-0.105-0.48-0.316-0.615s-0.548-0.217-1.011-0.246v-0.36
		C270.718,112.696,271.222,112.714,271.608,112.714z"/>
	<path d="M289.011,112.714c0.533,0,0.99-0.018,1.371-0.053v0.36c-0.252,0.029-0.475,0.138-0.668,0.325s-0.36,0.501-0.501,0.94
		l-2.61,7.734h-0.308l-2.856-7.242l-2.566,7.242h-0.299l-2.953-7.972c-0.164-0.422-0.334-0.696-0.51-0.822s-0.354-0.189-0.536-0.189
		v-0.378c0.504,0.076,1.031,0.114,1.582,0.114c0.533,0,1.313-0.038,2.338-0.114v0.378c-0.393,0-0.684,0.023-0.875,0.07
		s-0.313,0.179-0.369,0.396s0.001,0.565,0.171,1.046l1.802,5.177l2.584-7.137h0.413l2.76,7.286l1.688-5.159
		c0.111-0.352,0.167-0.624,0.167-0.817c0-0.287-0.104-0.498-0.312-0.633s-0.549-0.217-1.024-0.246v-0.36
		C288.132,112.696,288.636,112.714,289.011,112.714z"/>
	<path d="M302.801,121.305c0.152,0.126,0.343,0.209,0.571,0.25v0.378c-0.609-0.047-1.034-0.07-1.274-0.07
		c-0.41,0-1.119,0.023-2.127,0.07v-0.378c0.193,0,0.36-0.038,0.501-0.114s0.211-0.173,0.211-0.29c0-0.059-0.026-0.129-0.079-0.211
		l-2.048-2.988l-1.318,1.714c-0.334,0.428-0.501,0.788-0.501,1.081c0,0.492,0.442,0.768,1.327,0.826v0.36
		c-0.633-0.035-1.315-0.053-2.048-0.053c-0.533,0-0.99,0.018-1.371,0.053v-0.36c0.234-0.029,0.475-0.138,0.721-0.325
		s0.533-0.498,0.861-0.932l2.074-2.733l-2.505-3.639c-0.164-0.24-0.302-0.42-0.413-0.541s-0.218-0.207-0.321-0.259
		s-0.23-0.088-0.382-0.105v-0.378c0.633,0.047,1.061,0.07,1.283,0.07c0.404,0,1.11-0.023,2.118-0.07v0.378
		c-0.193,0-0.359,0.037-0.497,0.11s-0.207,0.171-0.207,0.294c0,0.07,0.023,0.141,0.07,0.211l1.925,2.804l1.248-1.74
		c0.363-0.51,0.545-0.888,0.545-1.134c0-0.17-0.082-0.3-0.246-0.391s-0.425-0.148-0.782-0.171v-0.36
		c0.621,0.035,1.125,0.053,1.512,0.053c0.527,0,0.981-0.018,1.362-0.053v0.36c-0.486,0.059-1.014,0.48-1.582,1.266l-1.819,2.514
		l2.646,3.858C302.467,120.964,302.648,121.179,302.801,121.305z"/>
	<path d="M314.956,112.714c0.533,0,0.99-0.018,1.371-0.053v0.36c-0.24,0.029-0.454,0.138-0.642,0.325s-0.363,0.501-0.527,0.94
		l-2.953,7.734l-0.615,1.564c-0.229,0.592-0.486,1.014-0.773,1.266c-0.34,0.311-0.809,0.466-1.406,0.466
		c-0.357,0-0.65-0.095-0.879-0.286s-0.343-0.456-0.343-0.795c0-0.287,0.085-0.517,0.255-0.69s0.404-0.259,0.703-0.259
		c0.264,0,0.482,0.073,0.655,0.22s0.259,0.354,0.259,0.624c0,0.357-0.161,0.627-0.483,0.809c0.023,0.012,0.059,0.018,0.105,0.018
		c0.662,0,1.172-0.469,1.529-1.406l0.642-1.644l-3.27-7.857c-0.205-0.416-0.409-0.688-0.611-0.817s-0.406-0.193-0.611-0.193v-0.378
		c0.563,0.076,1.151,0.114,1.767,0.114c0.516,0,1.295-0.038,2.338-0.114v0.378c-0.293,0-0.521,0.01-0.686,0.031
		s-0.3,0.076-0.409,0.167s-0.163,0.233-0.163,0.426c0,0.217,0.076,0.513,0.229,0.888l2.171,5.379l1.986-5.212
		c0.129-0.352,0.193-0.627,0.193-0.826c0-0.281-0.107-0.489-0.321-0.624s-0.555-0.217-1.024-0.246v-0.36
		C314.077,112.696,314.581,112.714,314.956,112.714z"/>
	<path d="M325.187,121.661c0.738,0,1.321-0.23,1.749-0.69s0.68-1.194,0.756-2.202h0.413c0,1.564,0.023,2.643,0.07,3.234
		c-0.938-0.047-2.051-0.07-3.34-0.07c-1.148,0-2.361,0.029-3.639,0.088l5.203-9.088h-1.986c-0.539,0-0.981,0.097-1.327,0.29
		s-0.614,0.502-0.804,0.927s-0.312,0.986-0.365,1.683h-0.413c0-1.588-0.026-2.669-0.079-3.243c0.943,0.047,2.06,0.07,3.349,0.07
		c1.148,0,2.361-0.029,3.639-0.088l-5.203,9.088H325.187z"/>
</g>
</svg>
