<?xml version="1.0" encoding="utf-8"?>
<!-- Generator: Adobe Illustrator 16.0.0, SVG Export Plug-In . SVG Version: 6.00 Build 0)  -->
<!DOCTYPE svg PUBLIC "-//W3C//DTD SVG 1.1//EN" "http://www.w3.org/Graphics/SVG/1.1/DTD/svg11.dtd">
<svg version="1.1" id="Layer_1" xmlns="http://www.w3.org/2000/svg" xmlns:xlink="http://www.w3.org/1999/xlink" x="0px" y="0px"
	 width="577px" height="161px" viewBox="0 0 577 161" enable-background="new 0 0 577 161" xml:space="preserve">
<g>
	<path d="M12.796,39.775c0.024,0.048,0.036,0.114,0.036,0.198s-0.039,0.165-0.117,0.243c-0.078,0.079-0.171,0.117-0.279,0.117H8.35
		c-0.36,0-0.612-0.15-0.756-0.45L6.01,36.319H4.498v3.528c0,0.132-0.048,0.246-0.144,0.342c-0.096,0.096-0.21,0.144-0.342,0.144
		H0.124c-0.132,0-0.246-0.048-0.342-0.144c-0.096-0.096-0.144-0.21-0.144-0.342V28.22c0-0.132,0.048-0.246,0.144-0.342
		c0.096-0.096,0.209-0.144,0.342-0.144h7.002c1.644,0,2.946,0.39,3.906,1.17c0.959,0.78,1.44,1.842,1.44,3.186
		c0,1.632-0.63,2.814-1.89,3.546L12.796,39.775z M4.498,31.082v1.908h2.25c0.264,0,0.468-0.086,0.612-0.261
		c0.144-0.174,0.216-0.393,0.216-0.657c0-0.264-0.069-0.495-0.207-0.693c-0.138-0.198-0.345-0.297-0.621-0.297H4.498z"/>
	<path d="M25.747,39.054c-1.182,0.865-2.781,1.297-4.797,1.297s-3.615-0.432-4.797-1.297c-1.182-0.865-1.773-2.215-1.773-4.052
		v-6.789c0-0.13,0.048-0.243,0.144-0.337c0.096-0.095,0.209-0.143,0.342-0.143h3.762c0.132,0,0.246,0.047,0.342,0.142
		s0.144,0.207,0.144,0.336v7.038c0,0.483,0.165,0.854,0.495,1.114c0.33,0.26,0.777,0.389,1.341,0.389s1.011-0.129,1.341-0.389
		c0.33-0.259,0.495-0.63,0.495-1.114v-7.038c0-0.129,0.048-0.242,0.144-0.336s0.21-0.142,0.342-0.142h3.762
		c0.132,0,0.246,0.048,0.342,0.143c0.096,0.095,0.144,0.207,0.144,0.337v6.789C27.52,36.839,26.929,38.189,25.747,39.054z"/>
	<path d="M43.107,36.374c0,2.64-1.692,3.96-5.076,3.96h-7.416c-0.132,0-0.246-0.048-0.342-0.144
		c-0.096-0.096-0.144-0.21-0.144-0.342V28.22c0-0.132,0.048-0.246,0.144-0.342c0.096-0.096,0.21-0.144,0.342-0.144h7.236
		c1.704,0,2.961,0.309,3.771,0.927s1.215,1.551,1.215,2.799v0.054c0,0.576-0.156,1.068-0.468,1.476
		c-0.312,0.408-0.636,0.666-0.972,0.774c0.468,0.144,0.87,0.459,1.206,0.945S43.107,35.75,43.107,36.374z M37.771,32.207
		c0.126-0.174,0.189-0.369,0.189-0.585c0-0.216-0.063-0.402-0.189-0.558c-0.126-0.156-0.309-0.234-0.549-0.234H34.81v1.638h2.412
		C37.461,32.467,37.645,32.38,37.771,32.207z M34.81,35.474v1.764h2.61c0.276,0,0.483-0.093,0.621-0.279
		c0.138-0.186,0.207-0.393,0.207-0.621v-0.018c0-0.228-0.075-0.426-0.225-0.594s-0.351-0.252-0.603-0.252H34.81z"/>
	<path d="M57.255,31.423h-3.258v5.22h3.258c0.132,0,0.246,0.048,0.342,0.144c0.096,0.096,0.144,0.21,0.144,0.342v2.718
		c0,0.132-0.048,0.246-0.144,0.342c-0.096,0.096-0.21,0.144-0.342,0.144H45.843c-0.132,0-0.246-0.048-0.342-0.144
		c-0.096-0.096-0.144-0.21-0.144-0.342v-2.718c0-0.132,0.048-0.246,0.144-0.342c0.096-0.096,0.21-0.144,0.342-0.144h3.294v-5.22
		h-3.294c-0.132,0-0.246-0.048-0.342-0.144c-0.096-0.096-0.144-0.209-0.144-0.342V28.22c0-0.132,0.048-0.246,0.144-0.342
		c0.096-0.096,0.21-0.144,0.342-0.144h11.412c0.132,0,0.246,0.048,0.342,0.144c0.096,0.096,0.144,0.21,0.144,0.342v2.718
		c0,0.132-0.048,0.246-0.144,0.342C57.501,31.375,57.387,31.423,57.255,31.423z"/>
	<path d="M74.283,39.704c0.048,0.072,0.072,0.156,0.072,0.252s-0.039,0.183-0.117,0.261c-0.078,0.079-0.171,0.117-0.279,0.117
		h-4.644c-0.276,0-0.492-0.096-0.648-0.288l-3.132-3.87v3.672c0,0.132-0.048,0.246-0.144,0.342c-0.096,0.096-0.21,0.144-0.342,0.144
		h-3.708c-0.132,0-0.246-0.048-0.342-0.144c-0.096-0.096-0.144-0.21-0.144-0.342V28.22c0-0.132,0.048-0.246,0.144-0.342
		c0.096-0.096,0.21-0.144,0.342-0.144h3.708c0.132,0,0.246,0.048,0.342,0.144c0.096,0.096,0.144,0.21,0.144,0.342v3.384l2.844-3.564
		c0.18-0.204,0.402-0.306,0.666-0.306h4.338c0.108,0,0.201,0.039,0.279,0.117s0.117,0.168,0.117,0.27s-0.03,0.189-0.09,0.261
		l-4.266,5.202L74.283,39.704z"/>
	<path d="M100.581,27.733h3.294c0.132,0,0.246,0.048,0.342,0.144c0.096,0.096,0.144,0.21,0.144,0.342v11.628
		c0,0.132-0.048,0.246-0.144,0.342c-0.096,0.096-0.21,0.144-0.342,0.144h-3.258c-0.132,0-0.246-0.048-0.342-0.144
		c-0.096-0.096-0.144-0.21-0.144-0.342v-5.58l-1.314,2.592c-0.072,0.144-0.18,0.255-0.324,0.333
		c-0.144,0.078-0.288,0.117-0.432,0.117h-1.224c-0.204,0-0.372-0.054-0.504-0.162c-0.132-0.108-0.216-0.204-0.252-0.288
		l-1.314-2.592v5.58c0,0.132-0.048,0.246-0.144,0.342c-0.096,0.096-0.21,0.144-0.342,0.144h-3.258c-0.132,0-0.246-0.048-0.342-0.144
		c-0.096-0.096-0.144-0.21-0.144-0.342V28.22c0-0.132,0.048-0.246,0.144-0.342c0.096-0.096,0.21-0.144,0.342-0.144h3.294
		c0.336,0,0.594,0.162,0.774,0.486l2.358,4.32l2.358-4.32C99.987,27.896,100.245,27.733,100.581,27.733z"/>
	<path d="M119.445,32.963v2.141c0,1.206-0.3,2.212-0.9,3.019s-1.386,1.38-2.358,1.72c-0.972,0.339-2.118,0.509-3.438,0.509
		c-1.32,0-2.466-0.169-3.438-0.509c-0.972-0.339-1.758-0.913-2.358-1.72s-0.9-1.826-0.9-3.054v-2.071
		c0-1.767,0.621-3.089,1.863-3.966c1.242-0.877,2.853-1.316,4.833-1.316s3.591,0.439,4.833,1.316
		C118.824,29.909,119.445,31.22,119.445,32.963z M110.913,32.672v2.723c0,0.465,0.165,0.823,0.495,1.072
		c0.33,0.25,0.777,0.374,1.341,0.374s1.011-0.127,1.341-0.383c0.33-0.255,0.495-0.615,0.495-1.081v-2.689
		c0-0.465-0.165-0.825-0.495-1.081c-0.331-0.255-0.777-0.383-1.341-0.383s-1.011,0.125-1.341,0.374
		C111.078,31.85,110.913,32.207,110.913,32.672z"/>
	<path d="M130.334,27.733h3.348c0.132,0,0.246,0.048,0.342,0.144c0.096,0.096,0.144,0.21,0.144,0.342v11.628
		c0,0.132-0.048,0.246-0.144,0.342c-0.096,0.096-0.21,0.144-0.342,0.144h-2.898c-0.288,0-0.528-0.126-0.72-0.378l-3.924-5.004v4.896
		c0,0.132-0.048,0.246-0.144,0.342c-0.096,0.096-0.21,0.144-0.342,0.144h-3.348c-0.132,0-0.246-0.048-0.342-0.144
		c-0.096-0.096-0.144-0.21-0.144-0.342V28.22c0-0.132,0.048-0.246,0.144-0.342c0.096-0.096,0.21-0.144,0.342-0.144h2.916
		c0.288,0,0.522,0.12,0.702,0.36l3.924,5.418V28.22c0-0.132,0.048-0.246,0.144-0.342C130.088,27.782,130.202,27.733,130.334,27.733z
		"/>
	<path d="M150.045,32.963v2.141c0,1.206-0.3,2.212-0.9,3.019s-1.386,1.38-2.358,1.72c-0.972,0.339-2.118,0.509-3.438,0.509
		c-1.32,0-2.466-0.169-3.438-0.509c-0.972-0.339-1.758-0.913-2.358-1.72s-0.9-1.826-0.9-3.054v-2.071
		c0-1.767,0.621-3.089,1.863-3.966c1.242-0.877,2.853-1.316,4.833-1.316s3.591,0.439,4.833,1.316
		C149.424,29.909,150.045,31.22,150.045,32.963z M141.513,32.672v2.723c0,0.465,0.165,0.823,0.495,1.072
		c0.33,0.25,0.777,0.374,1.341,0.374s1.011-0.127,1.341-0.383c0.33-0.255,0.495-0.615,0.495-1.081v-2.689
		c0-0.465-0.165-0.825-0.495-1.081c-0.331-0.255-0.777-0.383-1.341-0.383s-1.011,0.125-1.341,0.374
		C141.678,31.85,141.513,32.207,141.513,32.672z"/>
	<path d="M180.645,32.963v2.141c0,1.206-0.3,2.212-0.9,3.019s-1.386,1.38-2.358,1.72c-0.972,0.339-2.118,0.509-3.438,0.509
		c-1.32,0-2.466-0.169-3.438-0.509c-0.972-0.339-1.758-0.913-2.358-1.72s-0.9-1.826-0.9-3.054v-2.071
		c0-1.767,0.621-3.089,1.863-3.966c1.242-0.877,2.853-1.316,4.833-1.316s3.591,0.439,4.833,1.316
		C180.023,29.909,180.645,31.22,180.645,32.963z M172.112,32.672v2.723c0,0.465,0.165,0.823,0.495,1.072
		c0.33,0.25,0.777,0.374,1.341,0.374s1.011-0.127,1.341-0.383c0.33-0.255,0.495-0.615,0.495-1.081v-2.689
		c0-0.465-0.165-0.825-0.495-1.081c-0.331-0.255-0.777-0.383-1.341-0.383s-1.011,0.125-1.341,0.374
		C172.277,31.85,172.112,32.207,172.112,32.672z"/>
	<path d="M191.534,27.733h3.348c0.132,0,0.246,0.048,0.342,0.144c0.096,0.096,0.144,0.21,0.144,0.342v11.628
		c0,0.132-0.048,0.246-0.144,0.342c-0.096,0.096-0.21,0.144-0.342,0.144h-2.898c-0.288,0-0.528-0.126-0.72-0.378l-3.924-5.004v4.896
		c0,0.132-0.048,0.246-0.144,0.342c-0.096,0.096-0.21,0.144-0.342,0.144h-3.348c-0.132,0-0.246-0.048-0.342-0.144
		c-0.096-0.096-0.144-0.21-0.144-0.342V28.22c0-0.132,0.048-0.246,0.144-0.342c0.096-0.096,0.21-0.144,0.342-0.144h2.916
		c0.288,0,0.522,0.12,0.702,0.36l3.924,5.418V28.22c0-0.132,0.048-0.246,0.144-0.342C191.288,27.782,191.402,27.733,191.534,27.733z
		"/>
	<path d="M203.198,36.824h7.182c0.132,0,0.246,0.048,0.342,0.144c0.096,0.096,0.144,0.21,0.144,0.342v2.538
		c0,0.132-0.048,0.246-0.144,0.342c-0.096,0.096-0.21,0.144-0.342,0.144h-11.376c-0.132,0-0.246-0.048-0.342-0.144
		c-0.096-0.096-0.144-0.21-0.144-0.342V28.22c0-0.132,0.048-0.246,0.144-0.342c0.096-0.096,0.209-0.144,0.342-0.144H210.2
		c0.132,0,0.246,0.048,0.342,0.144c0.096,0.096,0.144,0.21,0.144,0.342v2.538c0,0.132-0.048,0.246-0.144,0.342
		c-0.096,0.096-0.21,0.144-0.342,0.144h-7.002v1.134h6.012c0.132,0,0.246,0.048,0.342,0.144c0.096,0.096,0.144,0.21,0.144,0.342
		v2.34c0,0.132-0.048,0.246-0.144,0.342c-0.096,0.096-0.21,0.144-0.342,0.144h-6.012V36.824z"/>
</g>
<g>
	<path d="M4.248,100.333H0.846c-0.108,0-0.201-0.039-0.279-0.117c-0.078-0.078-0.117-0.153-0.117-0.225
		c0-0.072,0.006-0.126,0.018-0.162l3.924-11.502c0.108-0.396,0.378-0.594,0.81-0.594h5.004c0.432,0,0.702,0.198,0.81,0.594
		L14.94,99.83c0.012,0.036,0.018,0.09,0.018,0.162c0,0.072-0.039,0.147-0.117,0.225c-0.078,0.079-0.171,0.117-0.279,0.117H11.16
		c-0.384,0-0.654-0.204-0.81-0.612l-0.45-1.26H5.508l-0.45,1.26C4.902,100.129,4.632,100.333,4.248,100.333z M8.982,94.952
		l-1.278-3.744l-1.278,3.744H8.982z"/>
	<path d="M45.107,96.374c0,2.64-1.692,3.96-5.076,3.96h-7.416c-0.132,0-0.246-0.048-0.342-0.144
		c-0.096-0.096-0.144-0.21-0.144-0.342V88.22c0-0.132,0.048-0.246,0.144-0.342c0.096-0.096,0.21-0.144,0.342-0.144h7.236
		c1.704,0,2.961,0.309,3.771,0.927s1.215,1.551,1.215,2.799v0.054c0,0.576-0.156,1.068-0.468,1.476
		c-0.312,0.408-0.636,0.666-0.972,0.774c0.468,0.144,0.87,0.459,1.206,0.945S45.107,95.75,45.107,96.374z M39.771,92.207
		c0.126-0.174,0.189-0.369,0.189-0.585c0-0.216-0.063-0.402-0.189-0.558c-0.126-0.156-0.309-0.234-0.549-0.234H36.81v1.638h2.412
		C39.461,92.467,39.645,92.38,39.771,92.207z M36.81,95.474v1.764h2.61c0.276,0,0.483-0.093,0.621-0.279
		c0.138-0.186,0.207-0.393,0.207-0.621v-0.018c0-0.228-0.075-0.426-0.225-0.594s-0.351-0.252-0.603-0.252H36.81z"/>
	<path d="M67.193,92.672v2.723c0,0.465,0.165,0.823,0.495,1.072s0.762,0.374,1.296,0.374c0.534,0,0.921-0.079,1.161-0.238
		c0.24-0.159,0.441-0.392,0.603-0.698c0.162-0.306,0.375-0.459,0.639-0.459h3.888c0.108,0,0.201,0.039,0.279,0.115
		c0.078,0.077,0.117,0.168,0.117,0.274c0,1.098-0.528,2.102-1.584,3.011c-0.528,0.449-1.23,0.812-2.106,1.089
		c-0.876,0.277-1.908,0.416-3.096,0.416s-2.271-0.178-3.249-0.535s-1.773-0.942-2.385-1.755c-0.612-0.813-0.918-1.81-0.918-2.992
		v-2.071c0-1.182,0.306-2.182,0.918-3.001c1.152-1.521,3.078-2.282,5.778-2.282c1.092,0,2.076,0.139,2.952,0.417
		c0.875,0.277,1.578,0.64,2.106,1.089c1.056,0.909,1.584,1.913,1.584,3.011c0,0.106-0.039,0.198-0.117,0.274
		s-0.171,0.115-0.279,0.115h-3.888c-0.264,0-0.477-0.153-0.639-0.459c-0.162-0.307-0.363-0.539-0.603-0.698
		c-0.24-0.159-0.627-0.238-1.161-0.238c-0.534,0-0.966,0.125-1.296,0.374C67.358,91.85,67.193,92.207,67.193,92.672z"/>
	<path d="M93.653,87.733h5.742c1.32,0,2.466,0.174,3.438,0.522c0.972,0.348,1.758,0.936,2.358,1.764c0.6,0.828,0.9,1.86,0.9,3.096
		v1.836c0,1.92-0.648,3.318-1.944,4.194c-1.188,0.792-2.772,1.188-4.752,1.188h-5.742c-0.132,0-0.246-0.048-0.342-0.144
		c-0.096-0.096-0.144-0.21-0.144-0.342V88.22c0-0.132,0.048-0.246,0.144-0.342C93.407,87.782,93.521,87.733,93.653,87.733z
		 M97.847,91.244v5.58h1.638c0.564,0,1.011-0.135,1.341-0.405s0.495-0.651,0.495-1.143v-2.484c0-0.492-0.165-0.873-0.495-1.143
		s-0.777-0.405-1.341-0.405H97.847z"/>
	<path d="M128.698,96.824h7.182c0.132,0,0.246,0.048,0.342,0.144c0.096,0.096,0.144,0.21,0.144,0.342v2.538
		c0,0.132-0.048,0.246-0.144,0.342c-0.096,0.096-0.21,0.144-0.342,0.144h-11.376c-0.132,0-0.246-0.048-0.342-0.144
		c-0.096-0.096-0.144-0.21-0.144-0.342V88.22c0-0.132,0.048-0.246,0.144-0.342c0.096-0.096,0.209-0.144,0.342-0.144H135.7
		c0.132,0,0.246,0.048,0.342,0.144c0.096,0.096,0.144,0.21,0.144,0.342v2.538c0,0.132-0.048,0.246-0.144,0.342
		c-0.096,0.096-0.21,0.144-0.342,0.144h-7.002v1.134h6.012c0.132,0,0.246,0.048,0.342,0.144c0.096,0.096,0.144,0.21,0.144,0.342
		v2.34c0,0.132-0.048,0.246-0.144,0.342c-0.096,0.096-0.21,0.144-0.342,0.144h-6.012V96.824z"/>
	<path d="M155.285,87.733h11.448c0.132,0,0.246,0.048,0.342,0.144c0.096,0.096,0.144,0.21,0.144,0.342v2.736
		c0,0.132-0.048,0.246-0.144,0.342c-0.096,0.096-0.21,0.144-0.342,0.144h-7.074v1.152h5.904c0.132,0,0.246,0.048,0.342,0.144
		c0.096,0.096,0.144,0.21,0.144,0.342v2.718c0,0.132-0.048,0.246-0.144,0.342s-0.21,0.144-0.342,0.144h-5.904v3.564
		c0,0.132-0.048,0.246-0.144,0.342c-0.096,0.096-0.21,0.144-0.342,0.144h-3.888c-0.132,0-0.246-0.048-0.342-0.144
		c-0.096-0.096-0.144-0.21-0.144-0.342V88.22c0-0.132,0.048-0.246,0.144-0.342C155.039,87.782,155.152,87.733,155.285,87.733z"/>
	<path d="M192.508,92.576h5.22c0.132,0,0.246,0.048,0.342,0.144c0.096,0.096,0.144,0.21,0.144,0.342v1.908
		c0,1.824-0.621,3.177-1.863,4.059c-1.242,0.882-2.883,1.323-4.923,1.323s-3.681-0.43-4.923-1.29
		c-1.242-0.86-1.863-2.191-1.863-3.993v-2.071c0-0.901,0.177-1.696,0.531-2.387c0.354-0.69,0.849-1.246,1.485-1.667
		c1.248-0.819,2.838-1.229,4.77-1.229c0.96,0,1.839,0.107,2.637,0.32c0.798,0.213,1.434,0.479,1.908,0.795s0.879,0.66,1.215,1.029
		c0.588,0.646,0.882,1.216,0.882,1.711c0,0.104-0.039,0.193-0.117,0.268s-0.171,0.112-0.279,0.112h-4.068
		c-0.24,0-0.414-0.053-0.522-0.16c-0.372-0.377-0.879-0.566-1.521-0.566s-1.146,0.119-1.512,0.357
		c-0.366,0.238-0.549,0.544-0.549,0.919v2.893c0,0.454,0.18,0.808,0.54,1.063c0.36,0.255,0.867,0.383,1.521,0.383
		c0.654,0,1.158-0.128,1.512-0.387c0.354-0.258,0.537-0.561,0.549-0.909h-1.116c-0.132,0-0.246-0.048-0.342-0.144
		c-0.096-0.096-0.144-0.209-0.144-0.342v-1.998c0-0.132,0.048-0.246,0.144-0.342S192.376,92.576,192.508,92.576z"/>
	<path d="M224.134,87.733h3.708c0.132,0,0.246,0.048,0.342,0.144c0.096,0.096,0.144,0.21,0.144,0.342v11.628
		c0,0.132-0.048,0.246-0.144,0.342c-0.096,0.096-0.21,0.144-0.342,0.144h-3.708c-0.132,0-0.246-0.048-0.342-0.144
		c-0.096-0.096-0.144-0.21-0.144-0.342v-3.834h-3.6v3.834c0,0.132-0.048,0.246-0.144,0.342c-0.096,0.096-0.21,0.144-0.342,0.144
		h-3.708c-0.132,0-0.246-0.045-0.342-0.135c-0.096-0.09-0.144-0.207-0.144-0.351V88.22c0-0.132,0.048-0.246,0.144-0.342
		c0.096-0.096,0.21-0.144,0.342-0.144h3.708c0.132,0,0.246,0.048,0.342,0.144c0.096,0.096,0.144,0.21,0.144,0.342v3.69h3.6v-3.69
		c0-0.132,0.048-0.246,0.144-0.342C223.888,87.782,224.001,87.733,224.134,87.733z"/>
	<path d="M258.153,91.423h-3.258v5.22h3.258c0.132,0,0.246,0.048,0.342,0.144c0.096,0.096,0.144,0.21,0.144,0.342v2.718
		c0,0.132-0.048,0.246-0.144,0.342c-0.096,0.096-0.21,0.144-0.342,0.144h-11.412c-0.132,0-0.246-0.048-0.342-0.144
		c-0.096-0.096-0.144-0.21-0.144-0.342v-2.718c0-0.132,0.048-0.246,0.144-0.342c0.096-0.096,0.21-0.144,0.342-0.144h3.294v-5.22
		h-3.294c-0.132,0-0.246-0.048-0.342-0.144c-0.096-0.096-0.144-0.209-0.144-0.342V88.22c0-0.132,0.048-0.246,0.144-0.342
		c0.096-0.096,0.21-0.144,0.342-0.144h11.412c0.132,0,0.246,0.048,0.342,0.144c0.096,0.096,0.144,0.21,0.144,0.342v2.718
		c0,0.132-0.048,0.246-0.144,0.342C258.399,91.375,258.285,91.423,258.153,91.423z"/>
	<path d="M289.221,88.213v6.789c0,1.801-0.601,3.143-1.8,4.026c-1.2,0.882-2.802,1.324-4.806,1.324c-1.092,0-2.082-0.14-2.97-0.419
		c-0.888-0.279-1.596-0.645-2.124-1.098c-1.092-0.939-1.638-1.951-1.638-3.034c0-0.107,0.039-0.199,0.117-0.276
		c0.078-0.077,0.171-0.116,0.279-0.116h4.068c0.216,0,0.366,0.128,0.45,0.384c0.228,0.699,0.804,1.049,1.728,1.049
		c0.564,0,1.011-0.128,1.341-0.384c0.33-0.256,0.495-0.623,0.495-1.101v-3.933h-6.57c-0.132,0-0.246-0.048-0.342-0.144
		c-0.096-0.096-0.144-0.209-0.144-0.342V88.22c0-0.132,0.048-0.246,0.144-0.342c0.096-0.096,0.21-0.144,0.342-0.144h10.944
		c0.132,0,0.246,0.048,0.342,0.143C289.173,87.971,289.221,88.083,289.221,88.213z"/>
	<path d="M321.081,99.704c0.048,0.072,0.072,0.156,0.072,0.252s-0.039,0.183-0.117,0.261c-0.078,0.079-0.171,0.117-0.279,0.117
		h-4.644c-0.276,0-0.492-0.096-0.648-0.288l-3.132-3.87v3.672c0,0.132-0.048,0.246-0.144,0.342c-0.096,0.096-0.21,0.144-0.342,0.144
		h-3.708c-0.132,0-0.246-0.048-0.342-0.144c-0.096-0.096-0.144-0.21-0.144-0.342V88.22c0-0.132,0.048-0.246,0.144-0.342
		c0.096-0.096,0.21-0.144,0.342-0.144h3.708c0.132,0,0.246,0.048,0.342,0.144c0.096,0.096,0.144,0.21,0.144,0.342v3.384l2.844-3.564
		c0.18-0.204,0.402-0.306,0.666-0.306h4.338c0.108,0,0.201,0.039,0.279,0.117s0.117,0.168,0.117,0.27s-0.03,0.189-0.09,0.261
		l-4.266,5.202L321.081,99.704z"/>
	<path d="M343.976,96.644h6.138c0.132,0,0.246,0.048,0.342,0.144s0.144,0.21,0.144,0.342v2.718c0,0.132-0.048,0.246-0.144,0.342
		c-0.096,0.096-0.21,0.144-0.342,0.144h-10.512c-0.132,0-0.246-0.048-0.342-0.144c-0.096-0.096-0.144-0.21-0.144-0.342V88.22
		c0-0.132,0.048-0.246,0.144-0.342c0.096-0.096,0.21-0.144,0.342-0.144h3.888c0.132,0,0.246,0.048,0.342,0.144
		c0.096,0.096,0.144,0.21,0.144,0.342V96.644z"/>
	<path d="M377.979,87.733h3.294c0.132,0,0.246,0.048,0.342,0.144c0.096,0.096,0.144,0.21,0.144,0.342v11.628
		c0,0.132-0.048,0.246-0.144,0.342c-0.096,0.096-0.21,0.144-0.342,0.144h-3.258c-0.132,0-0.246-0.048-0.342-0.144
		c-0.096-0.096-0.144-0.21-0.144-0.342v-5.58l-1.314,2.592c-0.072,0.144-0.18,0.255-0.324,0.333
		c-0.144,0.078-0.288,0.117-0.432,0.117h-1.224c-0.204,0-0.372-0.054-0.504-0.162c-0.132-0.108-0.216-0.204-0.252-0.288
		l-1.314-2.592v5.58c0,0.132-0.048,0.246-0.144,0.342c-0.096,0.096-0.21,0.144-0.342,0.144h-3.258c-0.132,0-0.246-0.048-0.342-0.144
		c-0.096-0.096-0.144-0.21-0.144-0.342V88.22c0-0.132,0.048-0.246,0.144-0.342c0.096-0.096,0.21-0.144,0.342-0.144h3.294
		c0.336,0,0.594,0.162,0.774,0.486l2.358,4.32l2.358-4.32C377.384,87.896,377.642,87.733,377.979,87.733z"/>
	<path d="M407.731,87.733h3.349c0.132,0,0.246,0.048,0.342,0.144c0.096,0.096,0.144,0.21,0.144,0.342v11.628
		c0,0.132-0.048,0.246-0.144,0.342c-0.096,0.096-0.21,0.144-0.342,0.144h-2.898c-0.288,0-0.528-0.126-0.72-0.378l-3.924-5.004v4.896
		c0,0.132-0.048,0.246-0.145,0.342c-0.096,0.096-0.21,0.144-0.342,0.144h-3.348c-0.133,0-0.246-0.048-0.342-0.144
		c-0.097-0.096-0.145-0.21-0.145-0.342V88.22c0-0.132,0.048-0.246,0.145-0.342c0.096-0.096,0.209-0.144,0.342-0.144h2.916
		c0.288,0,0.521,0.12,0.702,0.36l3.924,5.418V88.22c0-0.132,0.048-0.246,0.144-0.342C407.485,87.782,407.6,87.733,407.731,87.733z"
		/>
	<path d="M442.741,92.963v2.141c0,1.206-0.3,2.212-0.899,3.019c-0.601,0.807-1.387,1.38-2.358,1.72s-2.118,0.509-3.438,0.509
		c-1.32,0-2.467-0.169-3.438-0.509s-1.758-0.913-2.358-1.72c-0.6-0.807-0.899-1.826-0.899-3.054v-2.071
		c0-1.767,0.621-3.089,1.863-3.966c1.241-0.877,2.853-1.316,4.833-1.316c1.979,0,3.591,0.439,4.833,1.316
		C442.12,89.909,442.741,91.22,442.741,92.963z M434.21,92.672v2.723c0,0.465,0.164,0.823,0.494,1.072s0.777,0.374,1.342,0.374
		c0.563,0,1.011-0.127,1.341-0.383s0.495-0.615,0.495-1.081v-2.689c0-0.465-0.165-0.825-0.495-1.081s-0.777-0.383-1.341-0.383
		c-0.564,0-1.012,0.125-1.342,0.374C434.374,91.85,434.21,92.207,434.21,92.672z"/>
	<path d="M461.749,87.733h6.732c1.703,0,3.054,0.414,4.05,1.242s1.494,1.89,1.494,3.186s-0.421,2.325-1.261,3.087
		c-0.84,0.762-2.268,1.143-4.283,1.143h-2.376v3.456c0,0.132-0.049,0.246-0.145,0.342c-0.096,0.096-0.21,0.144-0.342,0.144h-3.87
		c-0.132,0-0.246-0.048-0.342-0.144c-0.097-0.096-0.145-0.21-0.145-0.342V88.22c0-0.132,0.048-0.246,0.145-0.342
		C461.503,87.782,461.617,87.733,461.749,87.733z M466.123,91.082v1.98h2.286c0.275,0,0.501-0.084,0.675-0.252
		s0.261-0.402,0.261-0.702c0-0.3-0.084-0.546-0.252-0.738s-0.396-0.288-0.684-0.288H466.123z"/>
	<path d="M503.923,92.947v2.135c0,1.715-0.582,3.015-1.746,3.902l1.332,1.799c0.084,0.168,0.081,0.303-0.009,0.405
		s-0.189,0.153-0.297,0.153h-3.438c-0.384,0-0.678-0.15-0.882-0.45l-0.468-0.594c-0.385,0.036-0.78,0.054-1.188,0.054
		c-1.32,0-2.466-0.169-3.438-0.509c-0.973-0.339-1.759-0.913-2.358-1.72c-0.601-0.807-0.9-1.826-0.9-3.054v-2.071
		c0-1.229,0.3-2.247,0.9-3.054c0.6-0.807,1.386-1.38,2.358-1.72c0.972-0.339,2.117-0.509,3.438-0.509s2.466,0.169,3.438,0.507
		c0.972,0.338,1.758,0.91,2.357,1.715C503.623,90.743,503.923,91.746,503.923,92.947z M495.391,92.672v2.723
		c0,0.465,0.165,0.823,0.495,1.072s0.776,0.374,1.341,0.374s1.011-0.127,1.341-0.383s0.495-0.615,0.495-1.081v-2.689
		c0-0.465-0.165-0.825-0.495-1.081s-0.776-0.383-1.341-0.383s-1.011,0.125-1.341,0.374C495.556,91.85,495.391,92.207,495.391,92.672
		z"/>
	<path d="M534.99,99.775c0.024,0.048,0.036,0.114,0.036,0.198s-0.039,0.165-0.117,0.243c-0.078,0.079-0.171,0.117-0.279,0.117
		h-4.086c-0.359,0-0.611-0.15-0.756-0.45l-1.584-3.564h-1.512v3.528c0,0.132-0.048,0.246-0.145,0.342
		c-0.096,0.096-0.21,0.144-0.342,0.144h-3.888c-0.132,0-0.246-0.048-0.342-0.144c-0.097-0.096-0.145-0.21-0.145-0.342V88.22
		c0-0.132,0.048-0.246,0.145-0.342c0.096-0.096,0.21-0.144,0.342-0.144h7.002c1.644,0,2.946,0.39,3.906,1.17
		c0.96,0.78,1.439,1.842,1.439,3.186c0,1.632-0.63,2.814-1.89,3.546L534.99,99.775z M526.692,91.082v1.908h2.25
		c0.264,0,0.468-0.086,0.612-0.261c0.144-0.174,0.216-0.393,0.216-0.657c0-0.264-0.069-0.495-0.207-0.693
		c-0.139-0.198-0.346-0.297-0.621-0.297H526.692z"/>
	<path d="M12.843,115.25c0.834,0.597,1.251,1.492,1.251,2.686c0,1.194-0.606,2.162-1.818,2.903s-2.82,1.112-4.824,1.112
		c-2.004,0-3.562-0.365-4.671-1.097s-1.665-1.632-1.665-2.702c0-0.261,0.138-0.392,0.414-0.392h3.69
		c0.252,0,0.456,0.074,0.612,0.221c0.336,0.307,0.918,0.459,1.746,0.459c1.14,0,1.71-0.167,1.71-0.504
		c0-0.208-0.18-0.374-0.54-0.496c-0.36-0.122-1.074-0.24-2.142-0.356c-3.396-0.394-5.094-1.651-5.094-3.772
		c0-1.193,0.546-2.158,1.638-2.894s2.553-1.104,4.383-1.104c1.83,0,3.309,0.396,4.437,1.188c1.127,0.791,1.692,1.627,1.692,2.508
		c0,0.119-0.039,0.214-0.117,0.286c-0.078,0.071-0.183,0.107-0.315,0.107H9.36c-0.216,0-0.402-0.068-0.558-0.204
		c-0.288-0.249-0.72-0.374-1.296-0.374c-0.804,0-1.206,0.162-1.206,0.487c0,0.174,0.156,0.31,0.468,0.408
		c0.312,0.099,0.936,0.2,1.872,0.304C10.608,114.245,12.009,114.654,12.843,115.25z"/>
	<path d="M32.04,109.333h12.42c0.132,0,0.246,0.048,0.342,0.144c0.096,0.096,0.144,0.21,0.144,0.342v2.898
		c0,0.132-0.048,0.246-0.144,0.342c-0.096,0.096-0.21,0.144-0.342,0.144h-3.87v8.244c0,0.132-0.048,0.246-0.144,0.342
		c-0.096,0.096-0.21,0.144-0.342,0.144h-3.708c-0.132,0-0.246-0.048-0.342-0.144c-0.096-0.096-0.144-0.21-0.144-0.342v-8.244h-3.87
		c-0.132,0-0.246-0.048-0.342-0.144c-0.096-0.096-0.144-0.21-0.144-0.342v-2.898c0-0.132,0.048-0.246,0.144-0.342
		C31.793,109.382,31.907,109.333,32.04,109.333z"/>
	<path d="M73.646,120.654c-1.182,0.865-2.781,1.297-4.797,1.297s-3.615-0.432-4.797-1.297c-1.182-0.865-1.773-2.215-1.773-4.052
		v-6.789c0-0.13,0.048-0.243,0.144-0.337c0.096-0.095,0.209-0.143,0.342-0.143h3.762c0.132,0,0.246,0.047,0.342,0.142
		s0.144,0.207,0.144,0.336v7.038c0,0.483,0.165,0.854,0.495,1.114c0.33,0.26,0.777,0.389,1.341,0.389s1.011-0.129,1.341-0.389
		c0.33-0.259,0.495-0.63,0.495-1.114v-7.038c0-0.129,0.048-0.242,0.144-0.336s0.21-0.142,0.342-0.142h3.762
		c0.132,0,0.246,0.048,0.342,0.143c0.096,0.095,0.144,0.207,0.144,0.337v6.789C75.419,118.439,74.828,119.79,73.646,120.654z"/>
	<path d="M102.329,109.333h3.798c0.108,0,0.201,0.039,0.279,0.117s0.117,0.153,0.117,0.225c0,0.072-0.006,0.132-0.018,0.18
		l-4.14,11.484c-0.132,0.396-0.402,0.594-0.81,0.594h-4.194c-0.396,0-0.66-0.18-0.792-0.54l-4.176-11.538
		c-0.012-0.048-0.018-0.108-0.018-0.18c0-0.072,0.039-0.147,0.117-0.225s0.171-0.117,0.279-0.117h3.798
		c0.216,0,0.393,0.063,0.531,0.189c0.138,0.126,0.231,0.261,0.279,0.405l2.07,6.894l2.07-6.894
		C101.627,109.532,101.897,109.333,102.329,109.333z"/>
	<path d="M127.672,121.934h-2.52c-0.228,0-0.417-0.069-0.567-0.207c-0.15-0.138-0.237-0.297-0.261-0.477l-1.566-11.466v-0.054
		c0-0.108,0.039-0.201,0.117-0.279c0.078-0.078,0.171-0.117,0.279-0.117h3.096c0.24,0,0.435,0.072,0.585,0.216
		c0.15,0.144,0.237,0.324,0.261,0.54l0.576,5.508l1.044-2.862c0.036-0.12,0.123-0.236,0.261-0.351
		c0.138-0.114,0.315-0.171,0.531-0.171h1.224c0.216,0,0.393,0.057,0.531,0.171c0.138,0.114,0.225,0.231,0.261,0.351l1.044,2.862
		l0.576-5.508c0.024-0.216,0.111-0.396,0.261-0.54c0.15-0.144,0.345-0.216,0.585-0.216h3.096c0.108,0,0.201,0.039,0.279,0.117
		s0.117,0.171,0.117,0.279v0.054l-1.566,11.466c-0.024,0.18-0.111,0.339-0.261,0.477c-0.15,0.138-0.339,0.207-0.567,0.207h-2.52
		c-0.216,0-0.393-0.054-0.531-0.162c-0.138-0.108-0.225-0.216-0.261-0.324l-1.656-3.798l-1.656,3.798
		c-0.036,0.108-0.123,0.216-0.261,0.324C128.065,121.879,127.889,121.934,127.672,121.934z"/>
	<path d="M167.327,121.339c0.036,0.048,0.054,0.12,0.054,0.216s-0.039,0.183-0.117,0.261c-0.078,0.079-0.171,0.117-0.279,0.117
		h-3.87c-0.324,0-0.57-0.138-0.738-0.414l-1.746-2.682l-1.71,2.682c-0.18,0.276-0.426,0.414-0.738,0.414h-3.888
		c-0.108,0-0.201-0.039-0.279-0.117c-0.078-0.078-0.117-0.165-0.117-0.261s0.018-0.168,0.054-0.216l3.978-6.084l-3.546-5.328
		c-0.036-0.048-0.054-0.12-0.054-0.216c0-0.096,0.039-0.183,0.117-0.261c0.078-0.078,0.171-0.117,0.279-0.117h3.888
		c0.312,0,0.563,0.15,0.756,0.45l1.404,2.304l1.512-2.34c0.204-0.276,0.45-0.414,0.738-0.414h3.87c0.108,0,0.201,0.039,0.279,0.117
		s0.117,0.165,0.117,0.261c0,0.096-0.018,0.168-0.054,0.216l-3.762,5.562L167.327,121.339z"/>
	<path d="M194.074,109.333h3.762c0.108,0,0.201,0.039,0.279,0.117c0.078,0.078,0.117,0.159,0.117,0.243
		c0,0.084-0.018,0.162-0.054,0.234l-4.536,7.506v4.014c0,0.132-0.048,0.246-0.144,0.342c-0.096,0.096-0.21,0.144-0.342,0.144h-3.834
		c-0.132,0-0.246-0.048-0.342-0.144c-0.096-0.096-0.144-0.21-0.144-0.342v-4.014l-4.518-7.506c-0.036-0.072-0.054-0.15-0.054-0.234
		c0-0.083,0.039-0.165,0.117-0.243c0.078-0.078,0.171-0.117,0.279-0.117h3.798c0.336,0,0.582,0.138,0.738,0.414l2.034,3.564
		l2.088-3.528C193.498,109.484,193.75,109.333,194.074,109.333z"/>
	<path d="M227.644,118.244c0.132,0,0.246,0.048,0.342,0.144c0.096,0.096,0.144,0.21,0.144,0.342v2.718
		c0,0.132-0.048,0.246-0.144,0.342c-0.096,0.096-0.21,0.144-0.342,0.144h-11.556c-0.132,0-0.246-0.048-0.342-0.144
		c-0.096-0.096-0.144-0.21-0.144-0.342v-2.592c0-0.276,0.09-0.486,0.27-0.63l5.688-5.202h-5.094c-0.132,0-0.246-0.048-0.342-0.144
		c-0.096-0.096-0.144-0.209-0.144-0.342v-2.718c0-0.132,0.047-0.246,0.144-0.342c0.096-0.096,0.21-0.144,0.342-0.144h10.8
		c0.132,0,0.246,0.048,0.342,0.144c0.096,0.096,0.144,0.21,0.144,0.342v2.574c0,0.252-0.079,0.45-0.234,0.594l-5.616,5.256H227.644z
		"/>
</g>
</svg>
