<?xml version="1.0" encoding="utf-8"?>
<!-- Generator: Adobe Illustrator 16.0.0, SVG Export Plug-In . SVG Version: 6.00 Build 0)  -->
<!DOCTYPE svg PUBLIC "-//W3C//DTD SVG 1.1//EN" "http://www.w3.org/Graphics/SVG/1.1/DTD/svg11.dtd">
<svg version="1.1" id="Layer_1" xmlns="http://www.w3.org/2000/svg" xmlns:xlink="http://www.w3.org/1999/xlink" x="0px" y="0px"
	 width="219.5px" height="80px" viewBox="0 0 219.5 80" enable-background="new 0 0 219.5 80" xml:space="preserve">
<path fill="#9E2CFD" d="M185.501,15.333H36.5c-15.096,0-27.333,12.238-27.333,27.333C9.167,57.761,21.404,70,36.5,70h149.001
	c15.097,0,27.334-12.236,27.334-27.333C212.835,27.571,200.598,15.333,185.501,15.333z"/>
<image display="none" overflow="visible" enable-background="new    " width="233" height="80" xlink:href="69DCC628.png"  transform="matrix(1 0 0 1 -6.5 0)">
</image>
<g>
	<path d="M59.209,47.043c-0.731-0.2-1.361-0.488-1.891-0.863l0.776-2.017c0.517,0.349,1.086,0.62,1.707,0.813
		c0.621,0.194,1.248,0.291,1.881,0.291c0.453,0,0.805-0.074,1.057-0.224c0.252-0.147,0.378-0.353,0.378-0.61
		c0-0.231-0.087-0.414-0.262-0.543c-0.174-0.129-0.501-0.246-0.979-0.35l-1.551-0.35c-0.918-0.207-1.594-0.525-2.027-0.959
		c-0.434-0.435-0.65-1.024-0.65-1.774c0-0.595,0.171-1.118,0.514-1.571c0.342-0.453,0.827-0.808,1.455-1.067
		c0.627-0.258,1.341-0.388,2.143-0.388c0.685,0,1.351,0.104,1.998,0.31c0.646,0.207,1.228,0.498,1.746,0.873l-0.776,1.939
		c-1.008-0.699-2.004-1.049-2.987-1.049c-0.453,0-0.808,0.078-1.066,0.233c-0.259,0.155-0.388,0.375-0.388,0.659
		c0,0.208,0.078,0.368,0.233,0.484c0.155,0.117,0.427,0.228,0.814,0.33l1.61,0.368c0.97,0.221,1.678,0.553,2.124,0.999
		c0.446,0.446,0.669,1.051,0.669,1.813c0,0.918-0.366,1.639-1.096,2.162s-1.736,0.785-3.016,0.785
		C60.745,47.344,59.939,47.243,59.209,47.043z"/>
	<path d="M75.976,42.979H69.77c0.09,0.765,0.339,1.316,0.747,1.658c0.407,0.344,0.986,0.516,1.736,0.516
		c0.491,0,0.979-0.082,1.464-0.243c0.485-0.161,0.927-0.392,1.328-0.688l0.776,1.959c-0.465,0.362-1.031,0.646-1.697,0.854
		c-0.666,0.207-1.335,0.311-2.007,0.311c-1.604,0-2.868-0.442-3.792-1.329c-0.924-0.885-1.387-2.091-1.387-3.615
		c0-0.971,0.201-1.83,0.602-2.581c0.4-0.75,0.957-1.334,1.668-1.755c0.711-0.42,1.519-0.63,2.424-0.63
		c1.332,0,2.389,0.433,3.171,1.299c0.782,0.866,1.173,2.043,1.173,3.53V42.979z M70.381,39.983c-0.33,0.355-0.534,0.871-0.611,1.542
		h3.743c-0.039-0.687-0.21-1.202-0.514-1.552c-0.304-0.349-0.734-0.523-1.29-0.523S70.71,39.628,70.381,39.983z"/>
	<path d="M86.313,42.979h-6.206c0.09,0.765,0.339,1.316,0.747,1.658c0.407,0.344,0.986,0.516,1.736,0.516
		c0.491,0,0.979-0.082,1.464-0.243c0.485-0.161,0.927-0.392,1.328-0.688l0.776,1.959c-0.465,0.362-1.031,0.646-1.697,0.854
		c-0.666,0.207-1.335,0.311-2.007,0.311c-1.604,0-2.868-0.442-3.792-1.329c-0.924-0.885-1.387-2.091-1.387-3.615
		c0-0.971,0.201-1.83,0.602-2.581c0.4-0.75,0.957-1.334,1.668-1.755c0.711-0.42,1.519-0.63,2.424-0.63
		c1.332,0,2.389,0.433,3.171,1.299c0.782,0.866,1.173,2.043,1.173,3.53V42.979z M80.718,39.983c-0.33,0.355-0.534,0.871-0.611,1.542
		h3.743c-0.039-0.687-0.21-1.202-0.514-1.552c-0.304-0.349-0.734-0.523-1.29-0.523C81.49,39.45,81.047,39.628,80.718,39.983z"/>
	<path d="M107.646,38.422c0.53,0.66,0.795,1.667,0.795,3.025v5.74h-2.929v-5.644c0-0.646-0.1-1.112-0.3-1.396
		c-0.201-0.284-0.54-0.427-1.019-0.427c-0.556,0-0.989,0.193-1.299,0.582c-0.311,0.389-0.465,0.932-0.465,1.629v5.256H99.5v-5.644
		c0-0.646-0.1-1.112-0.301-1.396c-0.201-0.284-0.54-0.427-1.018-0.427c-0.556,0-0.989,0.193-1.299,0.582
		c-0.311,0.389-0.466,0.932-0.466,1.629v5.256h-2.928v-9.522h2.851v1.28c0.297-0.491,0.695-0.866,1.192-1.125
		c0.498-0.258,1.07-0.388,1.717-0.388c1.409,0,2.353,0.588,2.832,1.765c0.31-0.543,0.743-0.973,1.299-1.29
		c0.556-0.317,1.17-0.475,1.842-0.475C106.309,37.433,107.116,37.763,107.646,38.422z"/>
	<path d="M112.573,46.732c-0.763-0.407-1.353-0.982-1.765-1.727c-0.414-0.742-0.622-1.62-0.622-2.628
		c0-1.009,0.208-1.885,0.622-2.628c0.412-0.743,1.002-1.316,1.765-1.717c0.763-0.4,1.647-0.601,2.657-0.601
		c1.008,0,1.894,0.201,2.656,0.601c0.764,0.401,1.352,0.974,1.766,1.717s0.619,1.619,0.619,2.628c0,1.008-0.205,1.886-0.619,2.628
		c-0.414,0.743-1.002,1.318-1.766,1.727c-0.764,0.406-1.648,0.61-2.656,0.61C114.221,47.343,113.336,47.141,112.573,46.732z
		 M117.363,42.379c0-0.918-0.184-1.604-0.553-2.056c-0.369-0.453-0.896-0.68-1.58-0.68c-1.424,0-2.135,0.912-2.135,2.735
		s0.711,2.733,2.135,2.733C116.652,45.113,117.363,44.202,117.363,42.379z"/>
	<path d="M128.863,39.838l-1.647,0.175c-0.813,0.077-1.391,0.307-1.728,0.688c-0.336,0.381-0.504,0.889-0.504,1.521v4.965h-2.928
		v-9.522h2.813v1.61c0.479-1.099,1.467-1.7,2.967-1.804l0.854-0.058L128.863,39.838z"/>
	<path d="M138.212,42.979h-6.206c0.09,0.765,0.34,1.316,0.746,1.658c0.407,0.344,0.986,0.516,1.736,0.516
		c0.49,0,0.979-0.082,1.464-0.243s0.928-0.392,1.329-0.688l0.775,1.959c-0.467,0.362-1.031,0.646-1.697,0.854
		s-1.336,0.311-2.008,0.311c-1.604,0-2.867-0.442-3.791-1.329c-0.926-0.885-1.388-2.091-1.388-3.615c0-0.971,0.2-1.83,0.603-2.581
		c0.399-0.75,0.957-1.334,1.668-1.755c0.711-0.42,1.519-0.63,2.424-0.63c1.332,0,2.389,0.433,3.171,1.299
		c0.782,0.866,1.174,2.043,1.174,3.53V42.979L138.212,42.979z M132.616,39.983c-0.329,0.355-0.533,0.871-0.61,1.542h3.743
		c-0.039-0.687-0.211-1.202-0.515-1.552c-0.305-0.349-0.733-0.523-1.289-0.523C133.389,39.45,132.945,39.628,132.616,39.983z"/>
	<path d="M158.188,37.666h2.852l-3.859,9.523h-2.481l-2.095-5.373l-2.037,5.373h-2.463l-3.879-9.523h2.986l2.249,6.032l2.25-6.032
		h1.979l2.27,6.09L158.188,37.666z"/>
	<path d="M163.852,46.732c-0.763-0.407-1.352-0.982-1.765-1.727c-0.414-0.742-0.621-1.62-0.621-2.628
		c0-1.009,0.207-1.885,0.621-2.628c0.413-0.743,1.002-1.316,1.765-1.717c0.764-0.4,1.648-0.601,2.657-0.601s1.894,0.201,2.657,0.601
		c0.764,0.401,1.352,0.974,1.766,1.717s0.619,1.619,0.619,2.628c0,1.008-0.205,1.886-0.619,2.628
		c-0.414,0.743-1.002,1.318-1.766,1.727c-0.764,0.406-1.648,0.61-2.657,0.61S164.614,47.141,163.852,46.732z M168.643,42.379
		c0-0.918-0.185-1.604-0.554-2.056c-0.368-0.453-0.896-0.68-1.58-0.68c-1.423,0-2.134,0.912-2.134,2.735s0.711,2.733,2.134,2.733
		C167.932,45.113,168.643,44.202,168.643,42.379z"/>
	<path d="M180.143,39.838l-1.647,0.175c-0.813,0.077-1.392,0.307-1.728,0.688c-0.336,0.381-0.504,0.889-0.504,1.521v4.965h-2.929
		v-9.522h2.813v1.61c0.478-1.099,1.467-1.7,2.967-1.804l0.854-0.058L180.143,39.838z"/>
	<path d="M191.275,47.188h-3.59l-3.646-4.246v4.246h-2.929V33.515h2.929v8.223l3.51-4.053h3.491l-3.995,4.54L191.275,47.188z"/>
</g>
<g>
	<line fill="none" stroke="#000000" stroke-width="4" stroke-miterlimit="10" x1="43.228" y1="33.703" x2="33.395" y2="43.536"/>
	<line fill="none" stroke="#000000" stroke-width="4" stroke-miterlimit="10" x1="43.229" y1="51.631" x2="33.395" y2="41.797"/>
	<rect x="31.824" y="42.126" transform="matrix(-0.7068 0.7074 -0.7074 -0.7068 85.39 50.3111)" width="0.89" height="1.449"/>
</g>
</svg>
