<?xml version="1.0" encoding="utf-8"?>
<!-- Generator: Adobe Illustrator 16.0.0, SVG Export Plug-In . SVG Version: 6.00 Build 0)  -->
<!DOCTYPE svg PUBLIC "-//W3C//DTD SVG 1.1//EN" "http://www.w3.org/Graphics/SVG/1.1/DTD/svg11.dtd">
<svg version="1.1" id="Layer_1" xmlns="http://www.w3.org/2000/svg" xmlns:xlink="http://www.w3.org/1999/xlink" x="0px" y="0px"
	 width="1523.924px" height="256.09px" viewBox="0 0 1523.924 256.09" enable-background="new 0 0 1523.924 256.09"
	 xml:space="preserve">
<rect x="1387.322" y="202.333" width="6.549" height="21.287"/>
<rect x="1398.322" y="202.333" width="6.549" height="21.287"/>
<rect x="1409.822" y="202.333" width="6.549" height="21.287"/>
<rect x="1420.822" y="202.333" fill="#E1E1E1" width="6.549" height="21.287"/>
<rect x="1431.322" y="202.333" fill="#E1E1E1" width="6.549" height="21.287"/>
<rect x="1442.822" y="202.333" fill="#E1E1E1" width="6.549" height="21.287"/>
<rect x="1453.822" y="202.333" fill="#E1E1E1" width="6.549" height="21.287"/>
<g>
	<path d="M22.651,69.136h-3.7l-3.76-4.38v4.38h-3.02v-14.1h3.02v8.48l3.62-4.18h3.6l-4.12,4.68L22.651,69.136z"/>
	<path d="M32.071,64.796h-6.4c0.093,0.787,0.35,1.357,0.77,1.71c0.42,0.354,1.017,0.53,1.79,0.53c0.506,0,1.01-0.083,1.51-0.25
		c0.5-0.167,0.957-0.403,1.37-0.71l0.8,2.02c-0.48,0.374-1.063,0.667-1.75,0.88c-0.687,0.213-1.377,0.32-2.07,0.32
		c-1.653,0-2.957-0.457-3.91-1.37c-0.953-0.913-1.43-2.157-1.43-3.73c0-1,0.207-1.887,0.62-2.66c0.413-0.773,0.987-1.376,1.72-1.81
		c0.733-0.433,1.566-0.65,2.5-0.65c1.373,0,2.463,0.447,3.27,1.34c0.807,0.894,1.21,2.107,1.21,3.64V64.796z M26.301,61.706
		c-0.34,0.367-0.55,0.897-0.63,1.59h3.86c-0.04-0.707-0.217-1.24-0.53-1.6c-0.313-0.36-0.757-0.54-1.33-0.54
		C27.097,61.156,26.641,61.339,26.301,61.706z"/>
	<path d="M40.491,59.336h2.96l-5.92,13.4h-3.06l1.88-4.14l-4.04-9.26h3.14l2.48,6.24L40.491,59.336z"/>
	<path d="M57.571,59.316h2.94l-3.98,9.82h-2.56l-2.16-5.54l-2.1,5.54h-2.54l-4-9.82h3.08l2.32,6.22l2.32-6.22h2.04l2.34,6.28
		L57.571,59.316z"/>
	<path d="M63.411,68.666c-0.787-0.42-1.394-1.013-1.82-1.78c-0.427-0.767-0.64-1.67-0.64-2.71s0.213-1.943,0.64-2.71
		s1.033-1.356,1.82-1.77c0.787-0.413,1.7-0.62,2.74-0.62s1.953,0.207,2.74,0.62c0.787,0.414,1.393,1.003,1.82,1.77
		s0.64,1.67,0.64,2.71s-0.213,1.943-0.64,2.71c-0.427,0.767-1.033,1.36-1.82,1.78c-0.787,0.42-1.7,0.63-2.74,0.63
		S64.197,69.086,63.411,68.666z M68.351,64.176c0-0.947-0.19-1.653-0.57-2.12c-0.38-0.466-0.923-0.7-1.63-0.7
		c-1.467,0-2.2,0.94-2.2,2.82s0.733,2.82,2.2,2.82S68.351,66.056,68.351,64.176z"/>
	<path d="M80.211,61.556l-1.7,0.18c-0.84,0.08-1.434,0.317-1.78,0.71c-0.347,0.394-0.52,0.917-0.52,1.57v5.12h-3.02v-9.82h2.9v1.66
		c0.493-1.133,1.513-1.753,3.06-1.86l0.88-0.06L80.211,61.556z"/>
	<path d="M90.951,55.036v14.1h-3v-1.46c-0.293,0.507-0.71,0.903-1.25,1.19s-1.15,0.43-1.83,0.43c-0.84,0-1.59-0.217-2.25-0.65
		c-0.66-0.433-1.173-1.04-1.54-1.82c-0.367-0.78-0.55-1.676-0.55-2.69c0-1.013,0.183-1.903,0.55-2.67s0.876-1.356,1.53-1.77
		c0.653-0.413,1.407-0.62,2.26-0.62c0.667,0,1.27,0.14,1.81,0.42c0.54,0.28,0.957,0.673,1.25,1.18v-5.64H90.951z M87.38,66.266
		c0.38-0.486,0.57-1.183,0.57-2.09s-0.19-1.6-0.57-2.08c-0.38-0.48-0.923-0.72-1.63-0.72s-1.253,0.237-1.64,0.71
		s-0.58,1.157-0.58,2.05c0,0.907,0.193,1.61,0.58,2.11s0.934,0.75,1.64,0.75S87,66.752,87.38,66.266z"/>
</g>
<g>
	<path d="M744.402,60.106c0.573,0.687,0.86,1.723,0.86,3.11v5.92h-3.02v-5.78c0-0.667-0.123-1.153-0.37-1.46
		c-0.247-0.306-0.63-0.46-1.15-0.46c-0.626,0-1.13,0.2-1.51,0.6s-0.57,0.934-0.57,1.6v5.5h-3.02v-9.82h2.94v1.4
		c0.347-0.533,0.796-0.94,1.35-1.22c0.553-0.28,1.176-0.42,1.87-0.42C742.955,59.076,743.829,59.419,744.402,60.106z"/>
	<path d="M749.502,68.666c-0.787-0.42-1.394-1.013-1.82-1.78c-0.427-0.767-0.64-1.67-0.64-2.71s0.213-1.943,0.64-2.71
		s1.033-1.356,1.82-1.77c0.787-0.413,1.7-0.62,2.74-0.62s1.953,0.207,2.74,0.62c0.787,0.414,1.393,1.003,1.82,1.77
		s0.64,1.67,0.64,2.71s-0.213,1.943-0.64,2.71c-0.427,0.767-1.033,1.36-1.82,1.78c-0.787,0.42-1.7,0.63-2.74,0.63
		S750.289,69.086,749.502,68.666z M754.442,64.176c0-0.947-0.19-1.653-0.57-2.12c-0.38-0.466-0.923-0.7-1.63-0.7
		c-1.467,0-2.2,0.94-2.2,2.82s0.733,2.82,2.2,2.82S754.442,66.056,754.442,64.176z"/>
	<path d="M765.582,67.016l-0.16,2.2c-0.387,0.053-0.773,0.08-1.159,0.08c-1.494,0-2.584-0.327-3.271-0.98
		c-0.687-0.653-1.03-1.647-1.03-2.98v-3.76h-1.86v-2.26h1.86v-2.88h3.02v2.88h2.461v2.26h-2.461v3.74c0,1.173,0.547,1.76,1.641,1.76
		C764.929,67.076,765.249,67.056,765.582,67.016z"/>
	<path d="M775.762,64.796h-6.399c0.093,0.787,0.35,1.357,0.77,1.71c0.42,0.354,1.017,0.53,1.79,0.53c0.507,0,1.01-0.083,1.51-0.25
		c0.5-0.167,0.956-0.403,1.37-0.71l0.8,2.02c-0.479,0.374-1.063,0.667-1.75,0.88c-0.687,0.213-1.377,0.32-2.069,0.32
		c-1.654,0-2.957-0.457-3.91-1.37c-0.953-0.913-1.43-2.157-1.43-3.73c0-1,0.206-1.887,0.619-2.66
		c0.413-0.773,0.986-1.376,1.721-1.81c0.732-0.433,1.566-0.65,2.5-0.65c1.373,0,2.463,0.447,3.27,1.34
		c0.807,0.894,1.21,2.107,1.21,3.64V64.796z M769.991,61.706c-0.34,0.367-0.549,0.897-0.629,1.59h3.859
		c-0.04-0.707-0.217-1.24-0.529-1.6c-0.314-0.36-0.758-0.54-1.33-0.54C770.788,61.156,770.331,61.339,769.991,61.706z"/>
</g>
<g>
	<path d="M1119.244,55.036v14.1h-3v-1.46c-0.293,0.507-0.71,0.903-1.25,1.19s-1.149,0.43-1.83,0.43c-0.84,0-1.59-0.217-2.25-0.65
		c-0.659-0.433-1.173-1.04-1.539-1.82c-0.367-0.78-0.551-1.676-0.551-2.69c0-1.013,0.184-1.903,0.551-2.67
		c0.366-0.767,0.876-1.356,1.529-1.77c0.653-0.413,1.407-0.62,2.26-0.62c0.667,0,1.271,0.14,1.811,0.42
		c0.54,0.28,0.956,0.673,1.25,1.18v-5.64H1119.244z M1115.675,66.266c0.38-0.486,0.569-1.183,0.569-2.09s-0.189-1.6-0.569-2.08
		s-0.924-0.72-1.63-0.72c-0.707,0-1.254,0.237-1.641,0.71s-0.58,1.157-0.58,2.05c0,0.907,0.193,1.61,0.58,2.11
		s0.934,0.75,1.641,0.75C1114.751,66.996,1115.295,66.752,1115.675,66.266z"/>
	<path d="M1129.174,60.116c0.7,0.693,1.051,1.767,1.051,3.22v5.8h-2.86v-1.46c-0.2,0.507-0.533,0.903-1,1.19s-1.014,0.43-1.64,0.43
		c-0.667,0-1.271-0.134-1.811-0.4c-0.54-0.266-0.967-0.64-1.279-1.12c-0.313-0.48-0.471-1.013-0.471-1.6
		c0-0.72,0.184-1.287,0.55-1.7c0.367-0.413,0.957-0.713,1.771-0.9c0.813-0.187,1.927-0.28,3.34-0.28h0.521v-0.36
		c0-0.586-0.127-1-0.381-1.24c-0.253-0.24-0.693-0.36-1.319-0.36c-0.48,0-1.014,0.087-1.601,0.26
		c-0.587,0.173-1.146,0.414-1.68,0.72l-0.8-2.02c0.56-0.347,1.25-0.637,2.07-0.87c0.819-0.233,1.583-0.35,2.289-0.35
		C1127.391,59.076,1128.475,59.423,1129.174,60.116z M1126.805,66.626c0.359-0.394,0.54-0.903,0.54-1.53v-0.34h-0.341
		c-1.08,0-1.837,0.087-2.27,0.26c-0.434,0.173-0.65,0.487-0.65,0.94c0,0.36,0.123,0.66,0.37,0.9c0.247,0.24,0.557,0.36,0.931,0.36
		C1125.971,67.216,1126.444,67.019,1126.805,66.626z"/>
	<path d="M1139.284,59.336h2.96l-5.92,13.4h-3.06l1.88-4.14l-4.04-9.26h3.14l2.48,6.24L1139.284,59.336z"/>
</g>
<g>
	<path d="M1397.516,60.28c0.572,0.687,0.859,1.723,0.859,3.11v5.92h-3.02v-5.78c0-0.667-0.124-1.153-0.37-1.46
		c-0.247-0.306-0.63-0.46-1.15-0.46c-0.627,0-1.13,0.2-1.51,0.6s-0.57,0.934-0.57,1.6v5.5h-3.02v-14.1h3.02v5.58
		c0.347-0.506,0.79-0.89,1.33-1.15c0.54-0.26,1.144-0.39,1.811-0.39C1396.068,59.25,1396.941,59.593,1397.516,60.28z"/>
	<path d="M1400.534,54.77h3.24v2.82h-3.24V54.77z M1400.635,69.31v-9.82h3.02v9.82H1400.635z"/>
	<path d="M1415.994,59.49v8.76c0,1.586-0.453,2.787-1.359,3.6c-0.907,0.813-2.247,1.22-4.021,1.22c-0.88,0-1.724-0.106-2.53-0.32
		s-1.517-0.513-2.13-0.9l0.801-2.08c1.267,0.693,2.526,1.04,3.779,1.04c1.653,0,2.48-0.78,2.48-2.34v-1.08
		c-0.28,0.507-0.7,0.907-1.26,1.2c-0.561,0.293-1.188,0.44-1.881,0.44c-0.853,0-1.609-0.2-2.27-0.6s-1.177-0.97-1.55-1.71
		c-0.374-0.74-0.561-1.597-0.561-2.57c0-0.973,0.187-1.83,0.561-2.57c0.373-0.74,0.89-1.313,1.55-1.72
		c0.66-0.406,1.417-0.61,2.27-0.61c0.681,0,1.297,0.144,1.851,0.43c0.553,0.287,0.977,0.683,1.27,1.19v-1.38H1415.994z
		 M1412.404,66.05c0.394-0.453,0.59-1.087,0.59-1.9c0-0.813-0.196-1.45-0.59-1.91s-0.943-0.69-1.649-0.69
		c-0.707,0-1.261,0.23-1.66,0.69c-0.4,0.46-0.601,1.097-0.601,1.91c0,0.8,0.2,1.43,0.601,1.89c0.399,0.46,0.953,0.69,1.66,0.69
		C1411.461,66.729,1412.011,66.503,1412.404,66.05z"/>
	<path d="M1427.095,60.28c0.572,0.687,0.859,1.723,0.859,3.11v5.92h-3.02v-5.78c0-0.667-0.124-1.153-0.37-1.46
		c-0.247-0.306-0.63-0.46-1.15-0.46c-0.627,0-1.13,0.2-1.51,0.6s-0.57,0.934-0.57,1.6v5.5h-3.02v-14.1h3.02v5.58
		c0.347-0.506,0.79-0.89,1.33-1.15c0.54-0.26,1.144-0.39,1.811-0.39C1425.647,59.25,1426.521,59.593,1427.095,60.28z"/>
	<path d="M1439.055,64.97h-6.4c0.094,0.787,0.351,1.357,0.771,1.71c0.42,0.354,1.017,0.53,1.79,0.53c0.507,0,1.01-0.083,1.51-0.25
		c0.5-0.167,0.957-0.403,1.37-0.71l0.8,2.02c-0.479,0.374-1.063,0.667-1.75,0.88c-0.687,0.213-1.377,0.32-2.07,0.32
		c-1.653,0-2.956-0.457-3.909-1.37c-0.954-0.913-1.431-2.157-1.431-3.73c0-1,0.207-1.887,0.62-2.66
		c0.413-0.773,0.986-1.376,1.72-1.81c0.733-0.433,1.567-0.65,2.5-0.65c1.374,0,2.464,0.447,3.271,1.34
		c0.807,0.894,1.21,2.107,1.21,3.64V64.97z M1433.285,61.879c-0.341,0.367-0.551,0.897-0.631,1.59h3.86
		c-0.04-0.707-0.217-1.24-0.53-1.6s-0.757-0.54-1.33-0.54S1433.625,61.513,1433.285,61.879z"/>
	<path d="M1442.164,69.16c-0.754-0.207-1.403-0.503-1.95-0.89l0.8-2.08c0.533,0.36,1.12,0.64,1.76,0.84
		c0.641,0.2,1.287,0.3,1.94,0.3c0.467,0,0.83-0.077,1.09-0.23s0.391-0.363,0.391-0.63c0-0.24-0.091-0.427-0.271-0.56
		s-0.517-0.253-1.01-0.36l-1.601-0.36c-0.946-0.213-1.643-0.543-2.09-0.99c-0.446-0.447-0.67-1.057-0.67-1.83
		c0-0.613,0.177-1.153,0.53-1.62c0.353-0.466,0.853-0.833,1.5-1.1c0.646-0.267,1.383-0.4,2.21-0.4c0.706,0,1.393,0.107,2.06,0.32
		c0.667,0.214,1.267,0.514,1.801,0.9l-0.801,2c-1.04-0.72-2.066-1.08-3.08-1.08c-0.467,0-0.833,0.08-1.1,0.24
		c-0.267,0.16-0.4,0.387-0.4,0.68c0,0.213,0.08,0.38,0.24,0.5s0.44,0.233,0.84,0.34l1.66,0.38c1,0.227,1.73,0.57,2.19,1.03
		s0.689,1.083,0.689,1.87c0,0.947-0.377,1.69-1.13,2.23s-1.79,0.81-3.109,0.81C1443.747,69.47,1442.917,69.366,1442.164,69.16z"/>
	<path d="M1456.914,67.189l-0.159,2.2c-0.388,0.053-0.773,0.08-1.16,0.08c-1.494,0-2.584-0.327-3.271-0.98s-1.029-1.647-1.029-2.98
		v-3.76h-1.86v-2.26h1.86v-2.88h3.02v2.88h2.46v2.26h-2.46v3.74c0,1.173,0.547,1.76,1.64,1.76
		C1456.261,67.25,1456.581,67.229,1456.914,67.189z"/>
	<path d="M1472.164,59.899c0.66,0.434,1.173,1.04,1.54,1.82c0.366,0.78,0.55,1.677,0.55,2.69s-0.184,1.903-0.55,2.67
		c-0.367,0.767-0.877,1.357-1.53,1.77c-0.653,0.414-1.407,0.62-2.26,0.62c-0.667,0-1.271-0.137-1.811-0.41s-0.957-0.657-1.25-1.15v5
		h-3.02V59.49h2.979v1.38c0.294-0.507,0.714-0.903,1.261-1.19c0.546-0.287,1.159-0.43,1.84-0.43
		C1470.754,59.25,1471.504,59.466,1472.164,59.899z M1470.674,66.459c0.387-0.473,0.58-1.156,0.58-2.05
		c0-0.907-0.193-1.61-0.58-2.11s-0.934-0.75-1.64-0.75c-0.707,0-1.254,0.243-1.641,0.73s-0.58,1.183-0.58,2.09
		c0,0.894,0.193,1.583,0.58,2.07c0.387,0.487,0.934,0.73,1.641,0.73C1469.74,67.169,1470.287,66.933,1470.674,66.459z"/>
	<path d="M1478.073,68.839c-0.786-0.42-1.394-1.013-1.819-1.78c-0.427-0.767-0.641-1.67-0.641-2.71s0.214-1.943,0.641-2.71
		c0.426-0.767,1.033-1.356,1.819-1.77c0.787-0.413,1.7-0.62,2.74-0.62s1.953,0.207,2.74,0.62c0.786,0.414,1.393,1.003,1.82,1.77
		c0.426,0.767,0.64,1.67,0.64,2.71s-0.214,1.943-0.64,2.71c-0.428,0.767-1.034,1.36-1.82,1.78c-0.787,0.42-1.7,0.63-2.74,0.63
		S1478.86,69.26,1478.073,68.839z M1483.014,64.35c0-0.947-0.19-1.653-0.57-2.12c-0.38-0.466-0.923-0.7-1.63-0.7
		c-1.467,0-2.2,0.94-2.2,2.82s0.733,2.82,2.2,2.82S1483.014,66.229,1483.014,64.35z"/>
	<path d="M1487.754,54.77h3.24v2.82h-3.24V54.77z M1487.854,69.31v-9.82h3.02v9.82H1487.854z"/>
	<path d="M1501.975,60.28c0.572,0.687,0.859,1.723,0.859,3.11v5.92h-3.02v-5.78c0-0.667-0.124-1.153-0.37-1.46
		c-0.247-0.306-0.63-0.46-1.15-0.46c-0.627,0-1.13,0.2-1.51,0.6s-0.57,0.934-0.57,1.6v5.5h-3.02v-9.82h2.939v1.4
		c0.347-0.533,0.797-0.94,1.351-1.22c0.553-0.28,1.177-0.42,1.87-0.42C1500.527,59.25,1501.4,59.593,1501.975,60.28z"/>
	<path d="M1511.493,67.189l-0.159,2.2c-0.388,0.053-0.773,0.08-1.16,0.08c-1.494,0-2.584-0.327-3.271-0.98s-1.029-1.647-1.029-2.98
		v-3.76h-1.86v-2.26h1.86v-2.88h3.02v2.88h2.46v2.26h-2.46v3.74c0,1.173,0.547,1.76,1.64,1.76
		C1510.84,67.25,1511.16,67.229,1511.493,67.189z"/>
</g>
<g>
	<path d="M1388.382,168.755h3.24v2.82h-3.24V168.755z M1388.482,183.295v-9.82h3.02v9.82H1388.482z"/>
	<path d="M1402.603,174.265c0.572,0.688,0.859,1.724,0.859,3.11v5.92h-3.02v-5.78c0-0.666-0.124-1.153-0.37-1.46
		c-0.247-0.307-0.63-0.46-1.15-0.46c-0.627,0-1.13,0.2-1.51,0.601c-0.38,0.399-0.57,0.933-0.57,1.6v5.5h-3.02v-9.82h2.939v1.4
		c0.347-0.533,0.797-0.94,1.351-1.22c0.553-0.28,1.177-0.42,1.87-0.42C1401.155,173.235,1402.028,173.578,1402.603,174.265z"/>
	<path d="M1412.121,181.175l-0.159,2.2c-0.388,0.053-0.773,0.08-1.16,0.08c-1.494,0-2.584-0.327-3.271-0.98
		c-0.687-0.652-1.029-1.646-1.029-2.979v-3.76h-1.86v-2.261h1.86v-2.88h3.02v2.88h2.46v2.261h-2.46v3.739
		c0,1.174,0.547,1.761,1.64,1.761C1411.468,181.235,1411.788,181.215,1412.121,181.175z"/>
	<path d="M1422.302,178.955h-6.4c0.094,0.787,0.351,1.356,0.771,1.71s1.017,0.53,1.79,0.53c0.507,0,1.01-0.084,1.51-0.25
		c0.5-0.167,0.957-0.403,1.37-0.71l0.8,2.02c-0.479,0.373-1.063,0.667-1.75,0.88s-1.377,0.32-2.07,0.32
		c-1.653,0-2.956-0.457-3.909-1.37c-0.954-0.913-1.431-2.156-1.431-3.73c0-1,0.207-1.886,0.62-2.659s0.986-1.377,1.72-1.811
		c0.733-0.433,1.567-0.649,2.5-0.649c1.374,0,2.464,0.446,3.271,1.34s1.21,2.106,1.21,3.64V178.955z M1416.532,175.865
		c-0.341,0.366-0.551,0.896-0.631,1.59h3.86c-0.04-0.707-0.217-1.24-0.53-1.601c-0.313-0.359-0.757-0.54-1.33-0.54
		S1416.872,175.498,1416.532,175.865z"/>
	<path d="M1432.902,174.265c0.572,0.688,0.859,1.724,0.859,3.11v5.92h-3.02v-5.78c0-0.666-0.124-1.153-0.37-1.46
		c-0.247-0.307-0.63-0.46-1.15-0.46c-0.627,0-1.13,0.2-1.51,0.601c-0.38,0.399-0.57,0.933-0.57,1.6v5.5h-3.02v-9.82h2.939v1.4
		c0.347-0.533,0.797-0.94,1.351-1.22c0.553-0.28,1.177-0.42,1.87-0.42C1431.455,173.235,1432.328,173.578,1432.902,174.265z"/>
	<path d="M1437.312,183.145c-0.754-0.206-1.403-0.503-1.95-0.89l0.8-2.08c0.533,0.36,1.12,0.64,1.76,0.84
		c0.641,0.2,1.287,0.3,1.94,0.3c0.467,0,0.83-0.076,1.09-0.229s0.391-0.363,0.391-0.63c0-0.24-0.091-0.427-0.271-0.561
		c-0.18-0.133-0.517-0.253-1.01-0.359l-1.601-0.36c-0.946-0.213-1.643-0.543-2.09-0.99c-0.446-0.446-0.67-1.057-0.67-1.83
		c0-0.612,0.177-1.152,0.53-1.619c0.353-0.467,0.853-0.834,1.5-1.101c0.646-0.267,1.383-0.399,2.21-0.399
		c0.706,0,1.393,0.106,2.06,0.319c0.667,0.214,1.267,0.514,1.801,0.9l-0.801,2c-1.04-0.72-2.066-1.08-3.08-1.08
		c-0.467,0-0.833,0.08-1.1,0.24s-0.4,0.387-0.4,0.68c0,0.214,0.08,0.38,0.24,0.5s0.44,0.233,0.84,0.34l1.66,0.38
		c1,0.228,1.73,0.57,2.19,1.03s0.689,1.083,0.689,1.87c0,0.946-0.377,1.689-1.13,2.229s-1.79,0.811-3.109,0.811
		C1438.895,183.455,1438.064,183.352,1437.312,183.145z"/>
	<path d="M1445.661,168.755h3.24v2.82h-3.24V168.755z M1445.762,183.295v-9.82h3.02v9.82H1445.762z"/>
	<path d="M1457.501,181.175l-0.159,2.2c-0.388,0.053-0.773,0.08-1.16,0.08c-1.494,0-2.584-0.327-3.271-0.98
		c-0.687-0.652-1.029-1.646-1.029-2.979v-3.76h-1.86v-2.261h1.86v-2.88h3.02v2.88h2.46v2.261h-2.46v3.739
		c0,1.174,0.547,1.761,1.64,1.761C1456.848,181.235,1457.168,181.215,1457.501,181.175z"/>
	<path d="M1465.841,173.495h2.96l-5.92,13.399h-3.06l1.88-4.14l-4.04-9.26h3.14l2.48,6.24L1465.841,173.495z"/>
</g>
<g>
	<path d="M1122.505,173.475h2.939l-3.979,9.82h-2.561l-2.16-5.54l-2.1,5.54h-2.54l-4-9.82h3.08l2.32,6.221l2.319-6.221h2.04
		l2.34,6.28L1122.505,173.475z"/>
	<path d="M1135.204,178.955h-6.4c0.094,0.787,0.351,1.356,0.771,1.71s1.017,0.53,1.79,0.53c0.507,0,1.01-0.084,1.51-0.25
		c0.5-0.167,0.957-0.403,1.37-0.71l0.8,2.02c-0.479,0.373-1.063,0.667-1.75,0.88s-1.377,0.32-2.07,0.32
		c-1.653,0-2.956-0.457-3.909-1.37c-0.954-0.913-1.431-2.156-1.431-3.73c0-1,0.207-1.886,0.62-2.659s0.986-1.377,1.72-1.811
		c0.733-0.433,1.567-0.649,2.5-0.649c1.374,0,2.464,0.446,3.271,1.34s1.21,2.106,1.21,3.64V178.955z M1129.435,175.865
		c-0.341,0.366-0.551,0.896-0.631,1.59h3.86c-0.04-0.707-0.217-1.24-0.53-1.601c-0.313-0.359-0.757-0.54-1.33-0.54
		S1129.774,175.498,1129.435,175.865z"/>
	<path d="M1144.634,174.275c0.7,0.693,1.051,1.767,1.051,3.22v5.8h-2.86v-1.46c-0.2,0.507-0.533,0.903-1,1.19
		c-0.467,0.286-1.014,0.43-1.64,0.43c-0.667,0-1.271-0.134-1.811-0.4s-0.967-0.64-1.279-1.12c-0.313-0.479-0.471-1.013-0.471-1.6
		c0-0.72,0.184-1.286,0.55-1.7c0.367-0.413,0.957-0.713,1.771-0.899s1.927-0.28,3.34-0.28h0.521v-0.36c0-0.586-0.127-1-0.381-1.24
		c-0.253-0.239-0.693-0.359-1.319-0.359c-0.48,0-1.014,0.087-1.601,0.26c-0.587,0.174-1.146,0.413-1.68,0.72l-0.8-2.02
		c0.56-0.347,1.25-0.637,2.07-0.87c0.819-0.233,1.583-0.35,2.289-0.35C1142.851,173.235,1143.935,173.582,1144.634,174.275z
		 M1142.265,180.785c0.359-0.394,0.54-0.903,0.54-1.53v-0.34h-0.341c-1.08,0-1.837,0.087-2.27,0.26
		c-0.434,0.174-0.65,0.487-0.65,0.94c0,0.359,0.123,0.66,0.37,0.899c0.247,0.24,0.557,0.36,0.931,0.36
		C1141.431,181.375,1141.904,181.179,1142.265,180.785z"/>
	<path d="M1154.344,181.175l-0.159,2.2c-0.388,0.053-0.773,0.08-1.16,0.08c-1.494,0-2.584-0.327-3.271-0.98
		c-0.687-0.652-1.029-1.646-1.029-2.979v-3.76h-1.86v-2.261h1.86v-2.88h3.02v2.88h2.46v2.261h-2.46v3.739
		c0,1.174,0.547,1.761,1.64,1.761C1153.69,181.235,1154.011,181.215,1154.344,181.175z"/>
	<path d="M1164.465,174.265c0.572,0.688,0.859,1.724,0.859,3.11v5.92h-3.02v-5.78c0-0.666-0.124-1.153-0.37-1.46
		c-0.247-0.307-0.63-0.46-1.15-0.46c-0.627,0-1.13,0.2-1.51,0.601c-0.38,0.399-0.57,0.933-0.57,1.6v5.5h-3.02v-14.1h3.02v5.58
		c0.347-0.507,0.79-0.891,1.33-1.15s1.144-0.39,1.811-0.39C1163.018,173.235,1163.891,173.578,1164.465,174.265z"/>
	<path d="M1176.424,178.955h-6.4c0.094,0.787,0.351,1.356,0.771,1.71s1.017,0.53,1.79,0.53c0.507,0,1.01-0.084,1.51-0.25
		c0.5-0.167,0.957-0.403,1.37-0.71l0.8,2.02c-0.479,0.373-1.063,0.667-1.75,0.88s-1.377,0.32-2.07,0.32
		c-1.653,0-2.956-0.457-3.909-1.37c-0.954-0.913-1.431-2.156-1.431-3.73c0-1,0.207-1.886,0.62-2.659s0.986-1.377,1.72-1.811
		c0.733-0.433,1.567-0.649,2.5-0.649c1.374,0,2.464,0.446,3.271,1.34s1.21,2.106,1.21,3.64V178.955z M1170.654,175.865
		c-0.341,0.366-0.551,0.896-0.631,1.59h3.86c-0.04-0.707-0.217-1.24-0.53-1.601c-0.313-0.359-0.757-0.54-1.33-0.54
		S1170.994,175.498,1170.654,175.865z"/>
	<path d="M1185.263,175.715l-1.699,0.18c-0.841,0.08-1.434,0.317-1.78,0.71c-0.347,0.394-0.521,0.917-0.521,1.57v5.12h-3.02v-9.82
		h2.899v1.66c0.493-1.133,1.514-1.753,3.061-1.859l0.88-0.061L1185.263,175.715z"/>
</g>
<g>
	<path d="M13.117,173.615h5.6v9.68h-0.84v-8.96h-4.76v8.96h-0.84v-8.96h-1.94v-0.72h1.94v-0.62c0-1.213,0.287-2.134,0.86-2.76
		c0.573-0.627,1.453-0.974,2.64-1.04l0.64-0.04l0.1,0.739l-0.92,0.061c-0.84,0.066-1.463,0.347-1.87,0.84s-0.61,1.227-0.61,2.2
		V173.615z M17.637,169.635h1.3v1.3h-1.3V169.635z"/>
	<path d="M23.357,173.615h2.92v0.72h-2.92v8.96h-0.84v-8.96h-1.94v-0.72h1.94v-0.62c0-1.213,0.29-2.134,0.87-2.76
		c0.58-0.627,1.457-0.974,2.63-1.04l0.62-0.04l0.1,0.739l-0.92,0.061c-0.84,0.054-1.46,0.333-1.86,0.84s-0.6,1.24-0.6,2.2V173.615z"
		/>
	<path d="M32.237,182.575l-0.04,0.779c-0.28,0.04-0.58,0.061-0.9,0.061c-1,0-1.77-0.29-2.31-0.87s-0.81-1.356-0.81-2.33v-5.88h-1.94
		v-0.72h1.94v-3.021h0.84v3.021h2.92v0.72h-2.92v5.7c0,0.854,0.2,1.5,0.6,1.939c0.4,0.44,0.993,0.66,1.78,0.66
		C31.703,182.635,31.983,182.615,32.237,182.575z"/>
	<path d="M41.757,177.055v6.24h-0.84v-6.16c0-1.026-0.207-1.776-0.62-2.25c-0.414-0.473-1.08-0.71-2-0.71
		c-1.027,0-1.85,0.317-2.47,0.95c-0.62,0.634-0.93,1.477-0.93,2.53v5.64h-0.84v-14.1h0.84v6.119c0.293-0.626,0.733-1.106,1.32-1.439
		s1.26-0.5,2.02-0.5C40.583,173.375,41.757,174.602,41.757,177.055z"/>
	<path d="M63.356,177.055v6.24h-0.84v-6.16c0-1.026-0.187-1.776-0.56-2.25c-0.374-0.473-0.967-0.71-1.78-0.71
		c-0.933,0-1.677,0.313-2.23,0.94s-0.83,1.473-0.83,2.54v5.64h-0.84v-6.16c0-1.026-0.187-1.776-0.56-2.25
		c-0.374-0.473-0.967-0.71-1.78-0.71c-0.934,0-1.677,0.313-2.23,0.94c-0.554,0.627-0.83,1.473-0.83,2.54v5.64h-0.84v-9.68h0.82
		v1.699c0.267-0.626,0.663-1.106,1.19-1.439c0.526-0.333,1.15-0.5,1.87-0.5c1.546,0,2.54,0.646,2.98,1.939
		c0.28-0.6,0.71-1.072,1.29-1.42c0.58-0.346,1.236-0.52,1.97-0.52C62.29,173.375,63.356,174.602,63.356,177.055z"/>
	<path d="M68.117,182.814c-0.653-0.413-1.16-1-1.52-1.76s-0.54-1.646-0.54-2.66c0-1,0.18-1.88,0.54-2.64s0.867-1.347,1.52-1.76
		c0.653-0.413,1.406-0.62,2.26-0.62c0.853,0,1.607,0.207,2.26,0.62c0.653,0.413,1.16,1,1.52,1.76c0.36,0.76,0.54,1.64,0.54,2.64
		c0,1.014-0.18,1.9-0.54,2.66c-0.36,0.76-0.867,1.347-1.52,1.76c-0.653,0.414-1.407,0.62-2.26,0.62
		C69.523,183.435,68.77,183.229,68.117,182.814z M72.907,181.525c0.593-0.727,0.89-1.771,0.89-3.131c0-1.319-0.303-2.35-0.91-3.09
		c-0.607-0.74-1.443-1.109-2.51-1.109s-1.903,0.369-2.51,1.109c-0.607,0.74-0.91,1.771-0.91,3.09c0,1.36,0.296,2.404,0.89,3.131
		c0.593,0.727,1.43,1.09,2.51,1.09C71.463,182.615,72.313,182.252,72.907,181.525z"/>
	<path d="M84.937,173.615v9.68h-0.82v-1.82c-0.307,0.627-0.75,1.11-1.33,1.45c-0.58,0.34-1.237,0.51-1.97,0.51
		c-1.12,0-1.97-0.313-2.55-0.939c-0.58-0.627-0.87-1.547-0.87-2.76v-6.12h0.84v6.04c0,1.013,0.207,1.76,0.62,2.239
		c0.413,0.48,1.053,0.721,1.92,0.721c1,0,1.803-0.316,2.41-0.95c0.606-0.633,0.91-1.477,0.91-2.53v-5.52H84.937z"/>
	<path d="M96.036,177.055v6.24h-0.84v-6.16c0-1.026-0.207-1.776-0.62-2.25c-0.414-0.473-1.08-0.71-2-0.71
		c-1.027,0-1.85,0.317-2.47,0.95c-0.62,0.634-0.93,1.477-0.93,2.53v5.64h-0.84v-9.68h0.82v1.739c0.293-0.64,0.736-1.13,1.33-1.47
		c0.593-0.34,1.27-0.51,2.03-0.51C94.863,173.375,96.036,174.602,96.036,177.055z"/>
	<path d="M103.856,182.575l-0.04,0.779c-0.28,0.04-0.58,0.061-0.9,0.061c-1,0-1.77-0.29-2.31-0.87s-0.81-1.356-0.81-2.33v-5.88
		h-1.94v-0.72h1.94v-3.021h0.84v3.021h2.92v0.72h-2.92v5.7c0,0.854,0.2,1.5,0.6,1.939c0.4,0.44,0.993,0.66,1.78,0.66
		C103.323,182.635,103.603,182.615,103.856,182.575z"/>
	<path d="M112.736,176.955v6.34h-0.86v-1.78c-0.293,0.613-0.717,1.087-1.27,1.42c-0.553,0.334-1.183,0.5-1.89,0.5
		c-0.614,0-1.177-0.127-1.69-0.38s-0.92-0.603-1.22-1.05c-0.3-0.446-0.45-0.937-0.45-1.47c0-0.721,0.19-1.276,0.57-1.67
		c0.38-0.394,1.006-0.677,1.88-0.851c0.873-0.173,2.097-0.26,3.67-0.26h0.4v-0.84c0-0.946-0.187-1.637-0.56-2.07
		c-0.373-0.433-0.967-0.649-1.78-0.649c-0.627,0-1.204,0.083-1.73,0.25c-0.527,0.166-1.077,0.437-1.65,0.81l-0.4-0.72
		c0.493-0.36,1.063-0.644,1.71-0.851c0.646-0.206,1.296-0.31,1.95-0.31C111.629,173.375,112.736,174.568,112.736,176.955z
		 M110.336,182.165c0.48-0.287,0.857-0.684,1.13-1.19c0.273-0.506,0.41-1.08,0.41-1.72v-0.72h-0.38c-1.4,0-2.467,0.057-3.2,0.17
		s-1.247,0.307-1.54,0.58s-0.44,0.677-0.44,1.21c0,0.613,0.227,1.116,0.68,1.51c0.453,0.394,1.026,0.59,1.72,0.59
		C109.316,182.595,109.856,182.452,110.336,182.165z"/>
	<path d="M115.876,169.655h1.28v1.26h-1.28V169.655z M116.096,183.295v-9.68h0.84v9.68H116.096z"/>
	<path d="M128.036,177.055v6.24h-0.84v-6.16c0-1.026-0.207-1.776-0.62-2.25c-0.414-0.473-1.08-0.71-2-0.71
		c-1.027,0-1.85,0.317-2.47,0.95c-0.62,0.634-0.93,1.477-0.93,2.53v5.64h-0.84v-9.68h0.82v1.739c0.293-0.64,0.736-1.13,1.33-1.47
		c0.593-0.34,1.27-0.51,2.03-0.51C126.862,173.375,128.036,174.602,128.036,177.055z"/>
</g>
<g>
	<path d="M736.922,107.53v-14.1h0.82v14.1H736.922z"/>
	<path d="M747.522,97.85h2.92v0.72h-2.92v8.96h-0.84v-8.96h-1.94v-0.72h1.94v-0.62c0-1.213,0.29-2.133,0.87-2.76
		c0.58-0.626,1.457-0.973,2.63-1.04l0.62-0.04l0.1,0.74l-0.92,0.06c-0.84,0.053-1.46,0.333-1.86,0.84c-0.4,0.507-0.6,1.24-0.6,2.2
		V97.85z"/>
	<path d="M760.002,102.771h-7.52c0.026,1.307,0.356,2.313,0.99,3.02c0.633,0.707,1.536,1.061,2.71,1.061
		c0.6,0,1.163-0.101,1.69-0.301c0.526-0.199,1.05-0.52,1.57-0.96l0.4,0.721c-0.413,0.413-0.947,0.743-1.6,0.989
		c-0.654,0.247-1.327,0.37-2.02,0.37c-1.44,0-2.577-0.446-3.41-1.34c-0.833-0.893-1.25-2.12-1.25-3.68c0-1,0.187-1.88,0.56-2.64
		c0.373-0.76,0.9-1.35,1.58-1.77c0.68-0.42,1.46-0.63,2.34-0.63c1.253,0,2.227,0.407,2.92,1.22c0.693,0.813,1.04,1.954,1.04,3.42
		V102.771z M753.592,99.34c-0.62,0.633-0.983,1.517-1.09,2.65h6.7c-0.027-1.16-0.313-2.05-0.86-2.67s-1.313-0.93-2.3-0.93
		C755.028,98.39,754.212,98.707,753.592,99.34z"/>
	<path d="M770.481,102.771h-7.52c0.025,1.307,0.355,2.313,0.99,3.02c0.633,0.707,1.535,1.061,2.709,1.061
		c0.6,0,1.164-0.101,1.69-0.301c0.526-0.199,1.05-0.52,1.569-0.96l0.4,0.721c-0.413,0.413-0.947,0.743-1.6,0.989
		c-0.654,0.247-1.327,0.37-2.02,0.37c-1.441,0-2.578-0.446-3.41-1.34c-0.834-0.893-1.25-2.12-1.25-3.68c0-1,0.187-1.88,0.56-2.64
		c0.373-0.76,0.899-1.35,1.58-1.77c0.68-0.42,1.46-0.63,2.34-0.63c1.253,0,2.227,0.407,2.92,1.22c0.693,0.813,1.04,1.954,1.04,3.42
		V102.771z M764.071,99.34c-0.619,0.633-0.983,1.517-1.09,2.65h6.7c-0.026-1.16-0.313-2.05-0.86-2.67s-1.313-0.93-2.3-0.93
		C765.508,98.39,764.691,98.707,764.071,99.34z"/>
	<path d="M773.182,107.53v-14.1h0.84v14.1H773.182z"/>
	<path d="M795.661,101.29v6.24h-0.84v-6.16c0-1.026-0.188-1.776-0.561-2.25c-0.373-0.473-0.967-0.71-1.78-0.71
		c-0.933,0-1.677,0.313-2.229,0.94c-0.554,0.627-0.83,1.474-0.83,2.54v5.64h-0.84v-6.16c0-1.026-0.188-1.776-0.561-2.25
		c-0.373-0.473-0.967-0.71-1.779-0.71c-0.934,0-1.678,0.313-2.23,0.94c-0.554,0.627-0.83,1.474-0.83,2.54v5.64h-0.84v-9.68h0.82v1.7
		c0.266-0.626,0.662-1.106,1.189-1.44c0.526-0.333,1.15-0.5,1.87-0.5c1.546,0,2.54,0.647,2.979,1.94
		c0.28-0.6,0.711-1.073,1.291-1.42s1.236-0.52,1.969-0.52C794.594,97.61,795.661,98.837,795.661,101.29z"/>
	<path d="M806.081,97.85h0.88l-5.681,13.28h-0.859l1.5-3.5l-4.16-9.78h0.9l3.699,8.94L806.081,97.85z"/>
	<path d="M808.281,106.351l0.399-0.7c0.521,0.439,1.024,0.747,1.511,0.92c0.486,0.174,1.076,0.26,1.77,0.26
		c0.854,0,1.506-0.153,1.961-0.46c0.453-0.307,0.68-0.74,0.68-1.3c0-0.467-0.146-0.84-0.439-1.12c-0.295-0.28-0.768-0.5-1.422-0.66
		l-1.639-0.38c-0.76-0.173-1.363-0.49-1.811-0.95c-0.446-0.46-0.67-0.99-0.67-1.59c0-0.826,0.313-1.493,0.939-2
		c0.627-0.506,1.475-0.76,2.541-0.76c0.68,0,1.307,0.113,1.879,0.34c0.574,0.227,1.041,0.547,1.4,0.96l-0.4,0.72
		c-0.426-0.4-0.873-0.697-1.34-0.89c-0.467-0.193-0.979-0.29-1.539-0.29c-0.787,0-1.404,0.16-1.85,0.48
		c-0.447,0.32-0.67,0.76-0.67,1.32c0,0.493,0.135,0.883,0.408,1.17s0.703,0.503,1.291,0.65l1.66,0.4c1.721,0.4,2.58,1.247,2.58,2.54
		c0,0.8-0.328,1.444-0.98,1.93s-1.533,0.729-2.641,0.729C810.408,107.67,809.201,107.23,808.281,106.351z"/>
	<path d="M826.182,102.771h-7.521c0.026,1.307,0.356,2.313,0.99,3.02c0.633,0.707,1.536,1.061,2.71,1.061
		c0.6,0,1.163-0.101,1.689-0.301c0.527-0.199,1.051-0.52,1.57-0.96l0.4,0.721c-0.414,0.413-0.947,0.743-1.601,0.989
		c-0.653,0.247-1.326,0.37-2.02,0.37c-1.44,0-2.577-0.446-3.41-1.34c-0.833-0.893-1.25-2.12-1.25-3.68c0-1,0.187-1.88,0.56-2.64
		c0.373-0.76,0.9-1.35,1.58-1.77c0.681-0.42,1.46-0.63,2.34-0.63c1.254,0,2.227,0.407,2.921,1.22c0.692,0.813,1.04,1.954,1.04,3.42
		V102.771z M819.771,99.34c-0.62,0.633-0.983,1.517-1.09,2.65h6.699c-0.026-1.16-0.313-2.05-0.859-2.67
		c-0.547-0.62-1.313-0.93-2.301-0.93C821.208,98.39,820.392,98.707,819.771,99.34z"/>
	<path d="M828.881,107.53v-14.1h0.84v14.1H828.881z"/>
	<path d="M834.361,97.85h2.92v0.72h-2.92v8.96h-0.841v-8.96h-1.939v-0.72h1.939v-0.62c0-1.213,0.29-2.133,0.87-2.76
		c0.58-0.626,1.457-0.973,2.63-1.04l0.62-0.04l0.101,0.74l-0.92,0.06c-0.841,0.053-1.46,0.333-1.86,0.84
		c-0.4,0.507-0.6,1.24-0.6,2.2V97.85z"/>
	<path d="M852.06,97.85v9.22c0,1.387-0.326,2.433-0.979,3.14s-1.627,1.061-2.92,1.061c-1.613,0-2.98-0.46-4.101-1.38l0.4-0.7
		c0.666,0.479,1.267,0.81,1.8,0.99c0.533,0.18,1.173,0.27,1.92,0.27c1,0,1.76-0.276,2.28-0.83c0.52-0.554,0.78-1.363,0.78-2.43v-2.1
		c-0.28,0.694-0.717,1.223-1.311,1.59c-0.593,0.366-1.31,0.55-2.149,0.55c-0.854,0-1.61-0.2-2.271-0.601
		c-0.66-0.399-1.173-0.966-1.54-1.7c-0.367-0.733-0.55-1.573-0.55-2.52c0-0.946,0.183-1.783,0.55-2.51s0.88-1.29,1.54-1.69
		c0.66-0.4,1.417-0.6,2.271-0.6c0.826,0,1.533,0.18,2.119,0.54c0.587,0.36,1.027,0.874,1.32,1.54v-1.84H852.06z M850.31,105.34
		c0.606-0.713,0.91-1.69,0.91-2.93c0-1.24-0.304-2.213-0.91-2.92c-0.606-0.707-1.449-1.06-2.529-1.06c-1.067,0-1.91,0.354-2.53,1.06
		c-0.62,0.707-0.93,1.68-0.93,2.92c0,1.253,0.31,2.233,0.93,2.94c0.62,0.708,1.463,1.06,2.53,1.06
		C848.86,106.41,849.703,106.054,850.31,105.34z"/>
	<path d="M863.24,102.771h-7.521c0.026,1.307,0.356,2.313,0.99,3.02c0.633,0.707,1.536,1.061,2.71,1.061
		c0.6,0,1.163-0.101,1.689-0.301c0.527-0.199,1.051-0.52,1.57-0.96l0.4,0.721c-0.414,0.413-0.947,0.743-1.601,0.989
		c-0.653,0.247-1.326,0.37-2.02,0.37c-1.44,0-2.577-0.446-3.41-1.34c-0.833-0.893-1.25-2.12-1.25-3.68c0-1,0.187-1.88,0.56-2.64
		c0.373-0.76,0.9-1.35,1.58-1.77c0.681-0.42,1.46-0.63,2.34-0.63c1.254,0,2.227,0.407,2.921,1.22c0.692,0.813,1.04,1.954,1.04,3.42
		V102.771z M856.83,99.34c-0.62,0.633-0.983,1.517-1.09,2.65h6.699c-0.026-1.16-0.313-2.05-0.859-2.67
		c-0.547-0.62-1.313-0.93-2.301-0.93C858.267,98.39,857.45,98.707,856.83,99.34z"/>
	<path d="M870.42,106.811l-0.04,0.779c-0.28,0.04-0.58,0.061-0.9,0.061c-1,0-1.77-0.29-2.31-0.87s-0.811-1.356-0.811-2.33v-5.88
		h-1.939v-0.72h1.939v-3.02h0.841v3.02h2.92v0.72h-2.92v5.7c0,0.853,0.199,1.5,0.6,1.939c0.4,0.44,0.993,0.66,1.78,0.66
		C869.887,106.87,870.166,106.851,870.42,106.811z"/>
	<path d="M876.959,106.811l-0.04,0.779c-0.28,0.04-0.58,0.061-0.9,0.061c-1,0-1.77-0.29-2.31-0.87s-0.811-1.356-0.811-2.33v-5.88
		h-1.939v-0.72h1.939v-3.02h0.841v3.02h2.92v0.72h-2.92v5.7c0,0.853,0.199,1.5,0.6,1.939c0.4,0.44,0.993,0.66,1.78,0.66
		C876.426,106.87,876.705,106.851,876.959,106.811z"/>
	<path d="M878.56,93.89h1.279v1.26h-1.279V93.89z M878.779,107.53v-9.68h0.84v9.68H878.779z"/>
	<path d="M890.719,101.29v6.24h-0.841v-6.16c0-1.026-0.206-1.776-0.619-2.25c-0.414-0.473-1.08-0.71-2-0.71
		c-1.027,0-1.851,0.317-2.471,0.95s-0.93,1.477-0.93,2.53v5.64h-0.84v-9.68h0.819v1.74c0.294-0.64,0.737-1.13,1.33-1.47
		c0.594-0.34,1.271-0.51,2.03-0.51C889.545,97.61,890.719,98.837,890.719,101.29z"/>
	<path d="M902.059,97.85v9.22c0,1.387-0.326,2.433-0.979,3.14s-1.627,1.061-2.92,1.061c-1.613,0-2.98-0.46-4.101-1.38l0.4-0.7
		c0.666,0.479,1.267,0.81,1.8,0.99c0.533,0.18,1.173,0.27,1.92,0.27c1,0,1.76-0.276,2.28-0.83c0.52-0.554,0.78-1.363,0.78-2.43v-2.1
		c-0.28,0.694-0.717,1.223-1.311,1.59c-0.593,0.366-1.31,0.55-2.149,0.55c-0.854,0-1.61-0.2-2.271-0.601
		c-0.66-0.399-1.173-0.966-1.54-1.7c-0.367-0.733-0.55-1.573-0.55-2.52c0-0.946,0.183-1.783,0.55-2.51s0.88-1.29,1.54-1.69
		c0.66-0.4,1.417-0.6,2.271-0.6c0.826,0,1.533,0.18,2.119,0.54c0.587,0.36,1.027,0.874,1.32,1.54v-1.84H902.059z M900.309,105.34
		c0.606-0.713,0.91-1.69,0.91-2.93c0-1.24-0.304-2.213-0.91-2.92c-0.606-0.707-1.449-1.06-2.529-1.06c-1.067,0-1.91,0.354-2.53,1.06
		c-0.62,0.707-0.93,1.68-0.93,2.92c0,1.253,0.31,2.233,0.93,2.94c0.62,0.708,1.463,1.06,2.53,1.06
		C898.859,106.41,899.702,106.054,900.309,105.34z"/>
	<path d="M916.878,98.23c0.653,0.413,1.16,0.993,1.52,1.74c0.36,0.747,0.54,1.62,0.54,2.62c0,1.013-0.18,1.903-0.54,2.67
		c-0.359,0.767-0.866,1.36-1.52,1.78s-1.407,0.63-2.26,0.63c-0.813,0-1.511-0.18-2.091-0.54c-0.58-0.359-1.017-0.88-1.31-1.56v1.96
		h-0.84v-14.1h0.84v6.26c0.293-0.667,0.729-1.18,1.31-1.54c0.58-0.36,1.277-0.54,2.091-0.54
		C915.471,97.61,916.225,97.817,916.878,98.23z M917.118,105.73c0.6-0.747,0.899-1.793,0.899-3.14c0-1.32-0.3-2.343-0.899-3.07
		c-0.601-0.727-1.44-1.09-2.521-1.09s-1.913,0.367-2.5,1.1c-0.587,0.733-0.88,1.767-0.88,3.1c0,1.347,0.293,2.387,0.88,3.12
		c0.587,0.733,1.427,1.101,2.521,1.101C915.685,106.851,916.518,106.478,917.118,105.73z"/>
	<path d="M929.458,102.771h-7.521c0.026,1.307,0.356,2.313,0.99,3.02c0.633,0.707,1.536,1.061,2.71,1.061
		c0.6,0,1.163-0.101,1.689-0.301c0.527-0.199,1.051-0.52,1.57-0.96l0.4,0.721c-0.414,0.413-0.947,0.743-1.601,0.989
		c-0.653,0.247-1.326,0.37-2.02,0.37c-1.44,0-2.577-0.446-3.41-1.34c-0.833-0.893-1.25-2.12-1.25-3.68c0-1,0.187-1.88,0.56-2.64
		c0.373-0.76,0.9-1.35,1.58-1.77c0.681-0.42,1.46-0.63,2.34-0.63c1.254,0,2.227,0.407,2.921,1.22c0.692,0.813,1.04,1.954,1.04,3.42
		V102.771z M923.048,99.34c-0.62,0.633-0.983,1.517-1.09,2.65h6.699c-0.026-1.16-0.313-2.05-0.859-2.67
		c-0.547-0.62-1.313-0.93-2.301-0.93C924.484,98.39,923.668,98.707,923.048,99.34z"/>
	<path d="M936.638,106.811l-0.04,0.779c-0.28,0.04-0.58,0.061-0.9,0.061c-1,0-1.77-0.29-2.31-0.87s-0.811-1.356-0.811-2.33v-5.88
		h-1.939v-0.72h1.939v-3.02h0.841v3.02h2.92v0.72h-2.92v5.7c0,0.853,0.199,1.5,0.6,1.939c0.4,0.44,0.993,0.66,1.78,0.66
		C936.104,106.87,936.384,106.851,936.638,106.811z"/>
	<path d="M943.177,106.811l-0.04,0.779c-0.28,0.04-0.58,0.061-0.9,0.061c-1,0-1.77-0.29-2.31-0.87s-0.811-1.356-0.811-2.33v-5.88
		h-1.939v-0.72h1.939v-3.02h0.841v3.02h2.92v0.72h-2.92v5.7c0,0.853,0.199,1.5,0.6,1.939c0.4,0.44,0.993,0.66,1.78,0.66
		C942.644,106.87,942.923,106.851,943.177,106.811z"/>
	<path d="M952.777,102.771h-7.521c0.026,1.307,0.356,2.313,0.99,3.02c0.633,0.707,1.536,1.061,2.71,1.061
		c0.6,0,1.163-0.101,1.689-0.301c0.527-0.199,1.051-0.52,1.57-0.96l0.4,0.721c-0.414,0.413-0.947,0.743-1.601,0.989
		c-0.653,0.247-1.326,0.37-2.02,0.37c-1.44,0-2.577-0.446-3.41-1.34c-0.833-0.893-1.25-2.12-1.25-3.68c0-1,0.187-1.88,0.56-2.64
		c0.373-0.76,0.9-1.35,1.58-1.77c0.681-0.42,1.46-0.63,2.34-0.63c1.254,0,2.227,0.407,2.921,1.22c0.692,0.813,1.04,1.954,1.04,3.42
		V102.771z M946.367,99.34c-0.62,0.633-0.983,1.517-1.09,2.65h6.699c-0.026-1.16-0.313-2.05-0.859-2.67
		c-0.547-0.62-1.313-0.93-2.301-0.93C947.804,98.39,946.987,98.707,946.367,99.34z"/>
	<path d="M960.137,98.37l-0.681,0.08c-1.093,0.107-1.89,0.463-2.39,1.07c-0.5,0.606-0.75,1.343-0.75,2.21v5.8h-0.84v-9.68h0.84v1.7
		c0.307-0.6,0.729-1.05,1.27-1.35c0.54-0.3,1.217-0.483,2.03-0.55l0.42-0.04L960.137,98.37z"/>
	<path d="M961.336,106.13h1.38v1.4h-1.38V106.13z"/>
	<path d="M740.422,131.53v-13.34h-5.18v-0.76h11.2v0.76h-5.18v13.34H740.422z"/>
	<path d="M756.083,125.29v6.24h-0.84v-6.16c0-1.026-0.207-1.776-0.62-2.25c-0.414-0.473-1.08-0.71-2-0.71
		c-1.027,0-1.85,0.317-2.47,0.95c-0.62,0.634-0.93,1.477-0.93,2.53v5.64h-0.84v-14.1h0.84v6.119c0.293-0.626,0.733-1.106,1.32-1.439
		s1.26-0.5,2.02-0.5C754.909,121.61,756.083,122.837,756.083,125.29z"/>
	<path d="M767.222,126.771h-7.52c0.026,1.307,0.356,2.313,0.99,3.02c0.633,0.707,1.536,1.061,2.71,1.061
		c0.6,0,1.163-0.101,1.69-0.301c0.525-0.199,1.049-0.52,1.569-0.96l0.399,0.721c-0.412,0.413-0.946,0.743-1.6,0.989
		c-0.653,0.247-1.326,0.37-2.02,0.37c-1.44,0-2.577-0.446-3.41-1.34c-0.833-0.893-1.25-2.12-1.25-3.68c0-1,0.187-1.88,0.56-2.64
		c0.373-0.761,0.9-1.351,1.58-1.771c0.68-0.42,1.46-0.63,2.34-0.63c1.252,0,2.227,0.407,2.92,1.22
		c0.693,0.813,1.039,1.954,1.039,3.42V126.771z M760.812,123.34c-0.62,0.634-0.983,1.518-1.09,2.65h6.701
		c-0.027-1.16-0.314-2.05-0.861-2.67s-1.313-0.93-2.299-0.93C762.249,122.391,761.432,122.707,760.812,123.34z"/>
	<path d="M788.062,121.851h0.9l-3.44,9.68h-1l-3.06-8.64l-3.12,8.64h-1l-3.4-9.68h0.921l2.979,8.699l3.12-8.699h1.02l3.04,8.68
		L788.062,121.851z"/>
	<path d="M792.762,131.05c-0.653-0.413-1.16-1-1.521-1.76c-0.359-0.76-0.539-1.646-0.539-2.66c0-1,0.18-1.88,0.539-2.64
		c0.36-0.76,0.867-1.347,1.521-1.76s1.406-0.62,2.26-0.62c0.853,0,1.606,0.207,2.261,0.62c0.652,0.413,1.159,1,1.52,1.76
		c0.359,0.76,0.54,1.64,0.54,2.64c0,1.014-0.181,1.9-0.54,2.66c-0.36,0.76-0.867,1.347-1.52,1.76
		c-0.654,0.414-1.408,0.62-2.261,0.62C794.168,131.67,793.415,131.464,792.762,131.05z M797.552,129.761
		c0.593-0.727,0.89-1.771,0.89-3.131c0-1.319-0.304-2.35-0.909-3.09c-0.607-0.74-1.443-1.109-2.511-1.109s-1.903,0.369-2.51,1.109
		s-0.91,1.771-0.91,3.09c0,1.36,0.296,2.404,0.89,3.131s1.43,1.09,2.51,1.09C796.108,130.851,796.958,130.487,797.552,129.761z"/>
	<path d="M806.741,122.37l-0.68,0.08c-1.094,0.107-1.891,0.464-2.391,1.07s-0.75,1.343-0.75,2.21v5.8h-0.84v-9.68h0.84v1.699
		c0.307-0.6,0.73-1.05,1.271-1.35s1.216-0.483,2.03-0.55l0.42-0.04L806.741,122.37z"/>
	<path d="M816.281,131.53h-1.22l-5.62-4.78v4.78h-0.84v-14.1h0.84v8.939l5.06-4.52h1.181l-5.28,4.66L816.281,131.53z"/>
	<path d="M819.141,131.05c-0.653-0.413-1.159-1-1.52-1.76s-0.54-1.646-0.54-2.66c0-1,0.18-1.88,0.54-2.64s0.866-1.347,1.52-1.76
		s1.407-0.62,2.261-0.62c0.853,0,1.606,0.207,2.26,0.62s1.16,1,1.52,1.76c0.36,0.76,0.54,1.64,0.54,2.64c0,1.014-0.18,1.9-0.54,2.66
		c-0.359,0.76-0.866,1.347-1.52,1.76c-0.653,0.414-1.407,0.62-2.26,0.62C820.548,131.67,819.794,131.464,819.141,131.05z
		 M823.931,129.761c0.594-0.727,0.891-1.771,0.891-3.131c0-1.319-0.304-2.35-0.91-3.09c-0.607-0.74-1.443-1.109-2.51-1.109
		c-1.067,0-1.903,0.369-2.511,1.109c-0.606,0.74-0.909,1.771-0.909,3.09c0,1.36,0.296,2.404,0.89,3.131
		c0.593,0.727,1.43,1.09,2.51,1.09C822.487,130.851,823.338,130.487,823.931,129.761z"/>
	<path d="M835.961,121.851v9.68h-0.82v-1.82c-0.307,0.627-0.75,1.11-1.33,1.45s-1.236,0.51-1.97,0.51c-1.12,0-1.97-0.313-2.55-0.939
		s-0.87-1.547-0.87-2.76v-6.12h0.84v6.04c0,1.013,0.207,1.76,0.62,2.239c0.413,0.48,1.053,0.721,1.92,0.721
		c1,0,1.803-0.316,2.41-0.95c0.606-0.633,0.91-1.477,0.91-2.53v-5.52H835.961z"/>
	<path d="M843.821,130.811l-0.04,0.779c-0.28,0.04-0.58,0.061-0.9,0.061c-1,0-1.77-0.29-2.31-0.87s-0.811-1.356-0.811-2.33v-5.88
		h-1.939v-0.72h1.939v-3.021h0.841v3.021h2.92v0.72h-2.92v5.7c0,0.854,0.199,1.5,0.6,1.939c0.4,0.44,0.993,0.66,1.78,0.66
		C843.288,130.87,843.567,130.851,843.821,130.811z"/>
	<path d="M863.78,121.851h0.9l-3.44,9.68h-1l-3.06-8.64l-3.12,8.64h-1l-3.4-9.68h0.92l2.98,8.699l3.12-8.699h1.02l3.04,8.68
		L863.78,121.851z"/>
	<path d="M874.001,125.19v6.34h-0.859v-1.78c-0.294,0.613-0.717,1.087-1.271,1.42c-0.554,0.334-1.184,0.5-1.89,0.5
		c-0.613,0-1.177-0.127-1.69-0.38s-0.92-0.603-1.22-1.05c-0.3-0.446-0.45-0.937-0.45-1.47c0-0.721,0.19-1.276,0.57-1.67
		s1.007-0.677,1.88-0.851c0.873-0.173,2.097-0.26,3.67-0.26h0.4v-0.84c0-0.946-0.188-1.637-0.561-2.07
		c-0.373-0.433-0.967-0.649-1.78-0.649c-0.626,0-1.203,0.083-1.729,0.25c-0.527,0.166-1.077,0.437-1.65,0.81l-0.399-0.72
		c0.493-0.36,1.063-0.644,1.71-0.851c0.646-0.206,1.296-0.31,1.95-0.31C872.895,121.61,874.001,122.804,874.001,125.19z
		 M871.602,130.4c0.479-0.287,0.856-0.684,1.13-1.19c0.272-0.506,0.41-1.08,0.41-1.72v-0.72h-0.381c-1.399,0-2.467,0.057-3.199,0.17
		c-0.733,0.113-1.247,0.307-1.54,0.58c-0.294,0.273-0.44,0.677-0.44,1.21c0,0.613,0.227,1.116,0.68,1.51s1.027,0.59,1.721,0.59
		C870.581,130.83,871.121,130.688,871.602,130.4z"/>
	<path d="M876.761,130.351l0.4-0.7c0.52,0.439,1.023,0.747,1.51,0.92c0.486,0.174,1.077,0.26,1.771,0.26
		c0.853,0,1.506-0.153,1.96-0.46c0.453-0.307,0.68-0.74,0.68-1.3c0-0.467-0.146-0.84-0.439-1.12c-0.294-0.28-0.768-0.5-1.421-0.66
		l-1.64-0.38c-0.76-0.173-1.363-0.49-1.81-0.95c-0.447-0.46-0.67-0.989-0.67-1.59c0-0.826,0.313-1.493,0.939-2s1.474-0.76,2.54-0.76
		c0.68,0,1.307,0.113,1.88,0.34s1.04,0.547,1.4,0.96l-0.4,0.72c-0.427-0.399-0.873-0.696-1.34-0.89s-0.979-0.29-1.54-0.29
		c-0.787,0-1.403,0.16-1.85,0.48c-0.447,0.319-0.67,0.76-0.67,1.319c0,0.494,0.136,0.884,0.409,1.17
		c0.273,0.287,0.703,0.504,1.29,0.65l1.66,0.4c1.721,0.399,2.58,1.246,2.58,2.54c0,0.8-0.327,1.443-0.979,1.93
		c-0.653,0.486-1.534,0.729-2.641,0.729C878.888,131.67,877.681,131.23,876.761,130.351z"/>
	<path d="M891.2,130.351l0.4-0.7c0.52,0.439,1.023,0.747,1.51,0.92c0.486,0.174,1.077,0.26,1.771,0.26
		c0.853,0,1.506-0.153,1.96-0.46c0.453-0.307,0.68-0.74,0.68-1.3c0-0.467-0.146-0.84-0.439-1.12c-0.294-0.28-0.768-0.5-1.421-0.66
		l-1.64-0.38c-0.76-0.173-1.363-0.49-1.81-0.95c-0.447-0.46-0.67-0.989-0.67-1.59c0-0.826,0.313-1.493,0.939-2s1.474-0.76,2.54-0.76
		c0.68,0,1.307,0.113,1.88,0.34s1.04,0.547,1.4,0.96l-0.4,0.72c-0.427-0.399-0.873-0.696-1.34-0.89s-0.979-0.29-1.54-0.29
		c-0.787,0-1.403,0.16-1.85,0.48c-0.447,0.319-0.67,0.76-0.67,1.319c0,0.494,0.136,0.884,0.409,1.17
		c0.273,0.287,0.703,0.504,1.29,0.65l1.66,0.4c1.721,0.399,2.58,1.246,2.58,2.54c0,0.8-0.327,1.443-0.979,1.93
		c-0.653,0.486-1.534,0.729-2.641,0.729C893.327,131.67,892.12,131.23,891.2,130.351z"/>
	<path d="M905.681,130.811l-0.04,0.779c-0.28,0.04-0.58,0.061-0.9,0.061c-1,0-1.77-0.29-2.31-0.87s-0.811-1.356-0.811-2.33v-5.88
		h-1.939v-0.72h1.939v-3.021h0.841v3.021h2.92v0.72h-2.92v5.7c0,0.854,0.199,1.5,0.6,1.939c0.4,0.44,0.993,0.66,1.78,0.66
		C905.147,130.87,905.427,130.851,905.681,130.811z"/>
	<path d="M907.281,117.891h1.279v1.26h-1.279V117.891z M907.501,131.53v-9.68h0.84v9.68H907.501z"/>
	<path d="M911.74,131.53v-14.1h0.84v14.1H911.74z"/>
	<path d="M915.98,131.53v-14.1h0.84v14.1H915.98z"/>
	<path d="M743.762,149.19v6.34h-0.86v-1.78c-0.293,0.613-0.717,1.087-1.27,1.42c-0.553,0.334-1.183,0.5-1.89,0.5
		c-0.614,0-1.177-0.127-1.69-0.38s-0.92-0.603-1.22-1.05c-0.3-0.446-0.45-0.937-0.45-1.47c0-0.721,0.19-1.276,0.57-1.67
		c0.38-0.394,1.006-0.677,1.88-0.851c0.873-0.173,2.097-0.26,3.67-0.26h0.4v-0.84c0-0.946-0.187-1.637-0.56-2.07
		c-0.373-0.433-0.967-0.649-1.78-0.649c-0.627,0-1.204,0.083-1.73,0.25c-0.527,0.166-1.077,0.437-1.65,0.81l-0.4-0.72
		c0.493-0.36,1.063-0.644,1.71-0.851c0.646-0.206,1.296-0.31,1.95-0.31C742.656,145.61,743.762,146.804,743.762,149.19z
		 M741.362,154.4c0.48-0.287,0.857-0.684,1.13-1.19c0.273-0.506,0.41-1.08,0.41-1.72v-0.72h-0.38c-1.4,0-2.467,0.057-3.2,0.17
		s-1.247,0.307-1.54,0.58s-0.44,0.677-0.44,1.21c0,0.613,0.227,1.116,0.68,1.51c0.453,0.394,1.026,0.59,1.72,0.59
		C740.342,154.83,740.882,154.688,741.362,154.4z"/>
	<path d="M752.042,155.53v-14.1h0.84v14.1H752.042z"/>
	<path d="M756.062,141.891h1.28v1.26h-1.28V141.891z M756.282,155.53v-9.68h0.84v9.68H756.282z"/>
	<path d="M764.981,154.811l-0.039,0.779c-0.281,0.04-0.58,0.061-0.9,0.061c-1,0-1.77-0.29-2.31-0.87s-0.81-1.356-0.81-2.33v-5.88
		h-1.94v-0.72h1.94v-3.021h0.84v3.021h2.92v0.72h-2.92v5.7c0,0.854,0.2,1.5,0.6,1.939c0.4,0.44,0.993,0.66,1.78,0.66
		C764.448,154.87,764.729,154.851,764.981,154.811z"/>
	<path d="M771.521,154.811l-0.04,0.779c-0.28,0.04-0.58,0.061-0.9,0.061c-1,0-1.77-0.29-2.31-0.87s-0.81-1.356-0.81-2.33v-5.88
		h-1.94v-0.72h1.94v-3.021h0.84v3.021h2.92v0.72h-2.92v5.7c0,0.854,0.199,1.5,0.6,1.939c0.4,0.44,0.993,0.66,1.779,0.66
		C770.987,154.87,771.269,154.851,771.521,154.811z"/>
	<path d="M773.341,155.53v-14.1h0.84v14.1H773.341z"/>
	<path d="M785.36,150.771h-7.52c0.026,1.307,0.356,2.313,0.99,3.02c0.633,0.707,1.536,1.061,2.71,1.061
		c0.6,0,1.163-0.101,1.69-0.301c0.525-0.199,1.049-0.52,1.569-0.96l0.399,0.721c-0.412,0.413-0.946,0.743-1.6,0.989
		c-0.653,0.247-1.326,0.37-2.02,0.37c-1.44,0-2.577-0.446-3.41-1.34c-0.834-0.893-1.25-2.12-1.25-3.68c0-1,0.187-1.88,0.561-2.64
		c0.373-0.761,0.899-1.351,1.58-1.771c0.68-0.42,1.459-0.63,2.34-0.63c1.252,0,2.227,0.407,2.92,1.22
		c0.693,0.813,1.039,1.954,1.039,3.42V150.771z M778.95,147.34c-0.619,0.634-0.982,1.518-1.09,2.65h6.701
		c-0.027-1.16-0.314-2.05-0.861-2.67s-1.313-0.93-2.299-0.93C780.388,146.391,779.571,146.707,778.95,147.34z"/>
	<path d="M800.681,149.29v6.24h-0.84v-6.16c0-1.026-0.207-1.776-0.621-2.25c-0.413-0.473-1.08-0.71-2-0.71
		c-1.026,0-1.85,0.317-2.469,0.95c-0.621,0.634-0.931,1.477-0.931,2.53v5.64h-0.84v-14.1h0.84v6.119
		c0.293-0.626,0.733-1.106,1.319-1.439c0.588-0.333,1.261-0.5,2.021-0.5C799.507,145.61,800.681,146.837,800.681,149.29z"/>
	<path d="M811.1,149.19v6.34h-0.859v-1.78c-0.293,0.613-0.717,1.087-1.271,1.42c-0.553,0.334-1.183,0.5-1.889,0.5
		c-0.614,0-1.178-0.127-1.691-0.38c-0.513-0.253-0.92-0.603-1.219-1.05c-0.301-0.446-0.451-0.937-0.451-1.47
		c0-0.721,0.19-1.276,0.57-1.67c0.381-0.394,1.007-0.677,1.881-0.851c0.873-0.173,2.096-0.26,3.669-0.26h0.4v-0.84
		c0-0.946-0.188-1.637-0.561-2.07c-0.373-0.433-0.966-0.649-1.779-0.649c-0.627,0-1.204,0.083-1.729,0.25
		c-0.527,0.166-1.078,0.437-1.65,0.81l-0.4-0.72c0.493-0.36,1.063-0.644,1.711-0.851c0.646-0.206,1.296-0.31,1.949-0.31
		C809.994,145.61,811.1,146.804,811.1,149.19z M808.7,154.4c0.479-0.287,0.856-0.684,1.13-1.19c0.273-0.506,0.41-1.08,0.41-1.72
		v-0.72h-0.381c-1.399,0-2.466,0.057-3.199,0.17s-1.247,0.307-1.54,0.58s-0.439,0.677-0.439,1.21c0,0.613,0.227,1.116,0.68,1.51
		s1.026,0.59,1.721,0.59C807.681,154.83,808.22,154.688,808.7,154.4z"/>
	<path d="M819.121,146.37l-0.681,0.08c-1.093,0.107-1.89,0.464-2.39,1.07s-0.75,1.343-0.75,2.21v5.8h-0.84v-9.68h0.84v1.699
		c0.307-0.6,0.729-1.05,1.27-1.35s1.217-0.483,2.03-0.55l0.42-0.04L819.121,146.37z"/>
	<path d="M828.68,141.431v14.1h-0.84v-1.96c-0.293,0.68-0.729,1.2-1.31,1.56c-0.58,0.36-1.277,0.54-2.09,0.54
		c-0.854,0-1.607-0.21-2.261-0.63s-1.159-1.013-1.52-1.779s-0.54-1.657-0.54-2.671c0-1,0.18-1.873,0.54-2.619
		c0.36-0.747,0.866-1.327,1.52-1.74s1.407-0.62,2.261-0.62c0.813,0,1.51,0.18,2.09,0.54s1.017,0.873,1.31,1.54v-6.26H828.68z
		 M826.96,153.75c0.587-0.732,0.88-1.772,0.88-3.12c0-1.333-0.293-2.366-0.88-3.1s-1.42-1.1-2.5-1.1s-1.923,0.363-2.53,1.09
		c-0.606,0.727-0.909,1.75-0.909,3.069c0,1.334,0.303,2.377,0.909,3.131c0.607,0.753,1.443,1.13,2.511,1.13
		C825.533,154.851,826.373,154.483,826.96,153.75z"/>
	<path d="M841.46,154.811l-0.04,0.779c-0.28,0.04-0.58,0.061-0.9,0.061c-1,0-1.77-0.29-2.31-0.87s-0.811-1.356-0.811-2.33v-5.88
		h-1.939v-0.72h1.939v-3.021h0.841v3.021h2.92v0.72h-2.92v5.7c0,0.854,0.199,1.5,0.6,1.939c0.4,0.44,0.993,0.66,1.78,0.66
		C840.927,154.87,841.206,154.851,841.46,154.811z"/>
	<path d="M844.68,155.05c-0.653-0.413-1.159-1-1.52-1.76s-0.54-1.646-0.54-2.66c0-1,0.18-1.88,0.54-2.64s0.866-1.347,1.52-1.76
		s1.407-0.62,2.261-0.62c0.853,0,1.606,0.207,2.26,0.62s1.16,1,1.52,1.76c0.36,0.76,0.54,1.64,0.54,2.64c0,1.014-0.18,1.9-0.54,2.66
		c-0.359,0.76-0.866,1.347-1.52,1.76c-0.653,0.414-1.407,0.62-2.26,0.62C846.087,155.67,845.333,155.464,844.68,155.05z
		 M849.47,153.761c0.594-0.727,0.891-1.771,0.891-3.131c0-1.319-0.304-2.35-0.91-3.09c-0.607-0.74-1.443-1.109-2.51-1.109
		c-1.067,0-1.903,0.369-2.511,1.109c-0.606,0.74-0.909,1.771-0.909,3.09c0,1.36,0.296,2.404,0.89,3.131
		c0.593,0.727,1.43,1.09,2.51,1.09C848.026,154.851,848.877,154.487,849.47,153.761z"/>
	<path d="M861.899,141.431v14.1h-0.84v-1.96c-0.293,0.68-0.729,1.2-1.31,1.56c-0.58,0.36-1.277,0.54-2.09,0.54
		c-0.854,0-1.607-0.21-2.261-0.63s-1.159-1.013-1.52-1.779s-0.54-1.657-0.54-2.671c0-1,0.18-1.873,0.54-2.619
		c0.36-0.747,0.866-1.327,1.52-1.74s1.407-0.62,2.261-0.62c0.813,0,1.51,0.18,2.09,0.54s1.017,0.873,1.31,1.54v-6.26H861.899z
		 M860.18,153.75c0.587-0.732,0.88-1.772,0.88-3.12c0-1.333-0.293-2.366-0.88-3.1s-1.42-1.1-2.5-1.1s-1.923,0.363-2.53,1.09
		c-0.606,0.727-0.909,1.75-0.909,3.069c0,1.334,0.303,2.377,0.909,3.131c0.607,0.753,1.443,1.13,2.511,1.13
		C858.753,154.851,859.593,154.483,860.18,153.75z"/>
	<path d="M872.359,149.19v6.34H871.5v-1.78c-0.294,0.613-0.717,1.087-1.271,1.42c-0.554,0.334-1.184,0.5-1.89,0.5
		c-0.613,0-1.177-0.127-1.69-0.38s-0.92-0.603-1.22-1.05c-0.3-0.446-0.45-0.937-0.45-1.47c0-0.721,0.19-1.276,0.57-1.67
		s1.007-0.677,1.88-0.851c0.873-0.173,2.097-0.26,3.67-0.26h0.4v-0.84c0-0.946-0.188-1.637-0.561-2.07
		c-0.373-0.433-0.967-0.649-1.78-0.649c-0.626,0-1.203,0.083-1.729,0.25c-0.527,0.166-1.077,0.437-1.65,0.81l-0.399-0.72
		c0.493-0.36,1.063-0.644,1.71-0.851c0.646-0.206,1.296-0.31,1.95-0.31C871.253,145.61,872.359,146.804,872.359,149.19z
		 M869.96,154.4c0.479-0.287,0.856-0.684,1.13-1.19c0.272-0.506,0.41-1.08,0.41-1.72v-0.72h-0.381c-1.399,0-2.467,0.057-3.199,0.17
		c-0.733,0.113-1.247,0.307-1.54,0.58c-0.294,0.273-0.44,0.677-0.44,1.21c0,0.613,0.227,1.116,0.68,1.51s1.027,0.59,1.721,0.59
		C868.939,154.83,869.479,154.688,869.96,154.4z"/>
	<path d="M882.779,145.851h0.88l-5.68,13.279h-0.86l1.5-3.5l-4.159-9.779h0.899l3.7,8.939L882.779,145.851z"/>
	<path d="M897.219,146.23c0.653,0.413,1.16,0.993,1.52,1.74c0.36,0.746,0.54,1.619,0.54,2.619c0,1.014-0.18,1.904-0.54,2.671
		c-0.359,0.767-0.866,1.359-1.52,1.779s-1.407,0.63-2.26,0.63c-0.813,0-1.511-0.18-2.091-0.54c-0.58-0.359-1.017-0.88-1.31-1.56
		v1.96h-0.84v-14.1h0.84v6.26c0.293-0.667,0.729-1.18,1.31-1.54s1.277-0.54,2.091-0.54
		C895.812,145.61,896.565,145.817,897.219,146.23z M897.459,153.73c0.6-0.747,0.899-1.793,0.899-3.141
		c0-1.319-0.3-2.343-0.899-3.069c-0.601-0.727-1.44-1.09-2.521-1.09s-1.913,0.366-2.5,1.1s-0.88,1.767-0.88,3.1
		c0,1.348,0.293,2.388,0.88,3.12c0.587,0.733,1.427,1.101,2.521,1.101C896.025,154.851,896.858,154.478,897.459,153.73z"/>
	<path d="M909.519,145.851v9.68h-0.82v-1.82c-0.307,0.627-0.75,1.11-1.33,1.45s-1.236,0.51-1.97,0.51c-1.12,0-1.97-0.313-2.55-0.939
		s-0.87-1.547-0.87-2.76v-6.12h0.84v6.04c0,1.013,0.207,1.76,0.62,2.239c0.413,0.48,1.053,0.721,1.92,0.721
		c1,0,1.803-0.316,2.41-0.95c0.606-0.633,0.91-1.477,0.91-2.53v-5.52H909.519z"/>
	<path d="M917.379,154.811l-0.04,0.779c-0.28,0.04-0.58,0.061-0.9,0.061c-1,0-1.77-0.29-2.31-0.87s-0.811-1.356-0.811-2.33v-5.88
		h-1.939v-0.72h1.939v-3.021h0.841v3.021h2.92v0.72h-2.92v5.7c0,0.854,0.199,1.5,0.6,1.939c0.4,0.44,0.993,0.66,1.78,0.66
		C916.846,154.87,917.125,154.851,917.379,154.811z"/>
	<path d="M924.338,155.53v-14.1h0.82v14.1H924.338z"/>
	<path d="M940.758,149.19v6.34h-0.859v-1.78c-0.294,0.613-0.717,1.087-1.271,1.42c-0.554,0.334-1.184,0.5-1.89,0.5
		c-0.613,0-1.177-0.127-1.69-0.38s-0.92-0.603-1.22-1.05c-0.3-0.446-0.45-0.937-0.45-1.47c0-0.721,0.19-1.276,0.57-1.67
		s1.007-0.677,1.88-0.851c0.873-0.173,2.097-0.26,3.67-0.26h0.4v-0.84c0-0.946-0.188-1.637-0.561-2.07
		c-0.373-0.433-0.967-0.649-1.78-0.649c-0.626,0-1.203,0.083-1.729,0.25c-0.527,0.166-1.077,0.437-1.65,0.81l-0.399-0.72
		c0.493-0.36,1.063-0.644,1.71-0.851c0.646-0.206,1.296-0.31,1.95-0.31C939.651,145.61,940.758,146.804,940.758,149.19z
		 M938.358,154.4c0.479-0.287,0.856-0.684,1.13-1.19c0.272-0.506,0.41-1.08,0.41-1.72v-0.72h-0.381c-1.399,0-2.467,0.057-3.199,0.17
		c-0.733,0.113-1.247,0.307-1.54,0.58c-0.294,0.273-0.44,0.677-0.44,1.21c0,0.613,0.227,1.116,0.68,1.51s1.027,0.59,1.721,0.59
		C937.338,154.83,937.878,154.688,938.358,154.4z"/>
	<path d="M957.438,149.29v6.24h-0.84v-6.16c0-1.026-0.187-1.776-0.56-2.25c-0.374-0.473-0.967-0.71-1.78-0.71
		c-0.934,0-1.677,0.313-2.229,0.94c-0.554,0.627-0.83,1.473-0.83,2.54v5.64h-0.84v-6.16c0-1.026-0.188-1.776-0.561-2.25
		c-0.373-0.473-0.967-0.71-1.78-0.71c-0.933,0-1.677,0.313-2.229,0.94c-0.554,0.627-0.83,1.473-0.83,2.54v5.64h-0.84v-9.68h0.819
		v1.699c0.267-0.626,0.664-1.106,1.19-1.439s1.15-0.5,1.87-0.5c1.547,0,2.54,0.646,2.979,1.939c0.28-0.6,0.71-1.072,1.29-1.42
		c0.58-0.346,1.237-0.52,1.971-0.52C956.371,145.61,957.438,146.837,957.438,149.29z"/>
	<path d="M736.103,178.351l0.4-0.7c0.52,0.439,1.023,0.747,1.51,0.92c0.487,0.174,1.077,0.26,1.77,0.26
		c0.854,0,1.507-0.153,1.96-0.46c0.453-0.307,0.68-0.74,0.68-1.3c0-0.467-0.147-0.84-0.44-1.12c-0.293-0.28-0.767-0.5-1.42-0.66
		l-1.64-0.38c-0.76-0.173-1.363-0.49-1.81-0.95s-0.67-0.989-0.67-1.59c0-0.826,0.313-1.493,0.94-2c0.626-0.507,1.473-0.76,2.54-0.76
		c0.68,0,1.307,0.113,1.88,0.34s1.04,0.547,1.4,0.96l-0.4,0.72c-0.427-0.399-0.873-0.696-1.34-0.89s-0.98-0.29-1.54-0.29
		c-0.787,0-1.403,0.16-1.85,0.48c-0.447,0.319-0.67,0.76-0.67,1.319c0,0.494,0.137,0.884,0.41,1.17
		c0.273,0.287,0.703,0.504,1.29,0.65l1.66,0.4c1.72,0.399,2.58,1.246,2.58,2.54c0,0.8-0.327,1.443-0.98,1.93
		s-1.533,0.729-2.64,0.729C738.229,179.67,737.022,179.23,736.103,178.351z"/>
	<path d="M750.583,178.811l-0.04,0.779c-0.28,0.04-0.58,0.061-0.9,0.061c-1,0-1.77-0.29-2.31-0.87s-0.81-1.356-0.81-2.33v-5.88
		h-1.94v-0.72h1.94v-3.021h0.84v3.021h2.92v0.72h-2.92v5.7c0,0.854,0.2,1.5,0.6,1.939c0.4,0.44,0.993,0.66,1.78,0.66
		C750.049,178.87,750.33,178.851,750.583,178.811z"/>
	<path d="M759.462,173.19v6.34h-0.86v-1.78c-0.293,0.613-0.717,1.087-1.27,1.42c-0.553,0.334-1.183,0.5-1.89,0.5
		c-0.614,0-1.177-0.127-1.69-0.38s-0.92-0.603-1.22-1.05c-0.3-0.446-0.45-0.937-0.45-1.47c0-0.721,0.19-1.276,0.57-1.67
		c0.38-0.394,1.006-0.677,1.88-0.851c0.873-0.173,2.097-0.26,3.67-0.26h0.4v-0.84c0-0.946-0.187-1.637-0.56-2.07
		c-0.373-0.433-0.967-0.649-1.78-0.649c-0.627,0-1.204,0.083-1.73,0.25c-0.527,0.166-1.077,0.437-1.65,0.81l-0.4-0.72
		c0.493-0.36,1.063-0.644,1.71-0.851c0.646-0.206,1.296-0.31,1.95-0.31C758.356,169.61,759.462,170.804,759.462,173.19z
		 M757.063,178.4c0.48-0.287,0.857-0.684,1.13-1.19c0.273-0.506,0.41-1.08,0.41-1.72v-0.72h-0.38c-1.4,0-2.467,0.057-3.2,0.17
		s-1.247,0.307-1.54,0.58s-0.44,0.677-0.44,1.21c0,0.613,0.227,1.116,0.68,1.51c0.453,0.394,1.026,0.59,1.72,0.59
		C756.042,178.83,756.583,178.688,757.063,178.4z"/>
	<path d="M767.482,170.37l-0.68,0.08c-1.094,0.107-1.89,0.464-2.39,1.07s-0.75,1.343-0.75,2.21v5.8h-0.84v-9.68h0.84v1.699
		c0.307-0.6,0.729-1.05,1.27-1.35s1.217-0.483,2.029-0.55l0.42-0.04L767.482,170.37z"/>
	<path d="M774.462,178.811l-0.04,0.779c-0.28,0.04-0.58,0.061-0.899,0.061c-1,0-1.771-0.29-2.311-0.87s-0.811-1.356-0.811-2.33
		v-5.88h-1.939v-0.72h1.939v-3.021h0.84v3.021h2.92v0.72h-2.92v5.7c0,0.854,0.201,1.5,0.601,1.939c0.399,0.44,0.993,0.66,1.78,0.66
		C773.929,178.87,774.208,178.851,774.462,178.811z"/>
	<path d="M776.062,165.891h1.28v1.26h-1.28V165.891z M776.282,179.53v-9.68h0.84v9.68H776.282z"/>
	<path d="M788.222,173.29v6.24h-0.84v-6.16c0-1.026-0.207-1.776-0.62-2.25c-0.413-0.473-1.08-0.71-2-0.71
		c-1.026,0-1.851,0.317-2.47,0.95c-0.62,0.634-0.93,1.477-0.93,2.53v5.64h-0.84v-9.68h0.819v1.739c0.293-0.64,0.736-1.13,1.33-1.47
		c0.593-0.34,1.271-0.51,2.03-0.51C787.048,169.61,788.222,170.837,788.222,173.29z"/>
	<path d="M799.562,169.851v9.22c0,1.387-0.326,2.433-0.979,3.14s-1.627,1.061-2.921,1.061c-1.613,0-2.979-0.46-4.1-1.38l0.4-0.7
		c0.666,0.479,1.267,0.81,1.8,0.99c0.533,0.18,1.173,0.27,1.92,0.27c1,0,1.761-0.276,2.28-0.83s0.779-1.363,0.779-2.43v-2.101
		c-0.279,0.694-0.717,1.224-1.31,1.591c-0.593,0.366-1.31,0.55-2.149,0.55c-0.854,0-1.61-0.2-2.271-0.601
		c-0.659-0.399-1.173-0.966-1.54-1.699s-0.55-1.573-0.55-2.521c0-0.946,0.183-1.783,0.55-2.51s0.881-1.29,1.54-1.69
		c0.66-0.399,1.417-0.6,2.271-0.6c0.826,0,1.533,0.18,2.119,0.54c0.587,0.36,1.027,0.873,1.32,1.54v-1.84H799.562z M797.812,177.34
		c0.607-0.713,0.91-1.689,0.91-2.93s-0.303-2.213-0.91-2.92c-0.606-0.706-1.449-1.06-2.529-1.06c-1.067,0-1.91,0.354-2.53,1.06
		c-0.62,0.707-0.931,1.68-0.931,2.92c0,1.254,0.311,2.233,0.931,2.94s1.463,1.06,2.53,1.06
		C796.362,178.41,797.205,178.054,797.812,177.34z"/>
	<path d="M812.342,178.811l-0.041,0.779c-0.279,0.04-0.58,0.061-0.9,0.061c-1,0-1.77-0.29-2.309-0.87
		c-0.54-0.58-0.811-1.356-0.811-2.33v-5.88h-1.94v-0.72h1.94v-3.021h0.84v3.021h2.92v0.72h-2.92v5.7c0,0.854,0.199,1.5,0.6,1.939
		c0.4,0.44,0.994,0.66,1.781,0.66C811.809,178.87,812.088,178.851,812.342,178.811z"/>
	<path d="M815.561,179.05c-0.653-0.413-1.159-1-1.52-1.76s-0.54-1.646-0.54-2.66c0-1,0.18-1.88,0.54-2.64s0.866-1.347,1.52-1.76
		s1.407-0.62,2.261-0.62c0.853,0,1.606,0.207,2.26,0.62s1.16,1,1.52,1.76c0.36,0.76,0.54,1.64,0.54,2.64c0,1.014-0.18,1.9-0.54,2.66
		c-0.359,0.76-0.866,1.347-1.52,1.76c-0.653,0.414-1.407,0.62-2.26,0.62C816.968,179.67,816.214,179.464,815.561,179.05z
		 M820.351,177.761c0.594-0.727,0.891-1.771,0.891-3.131c0-1.319-0.304-2.35-0.91-3.09c-0.607-0.74-1.443-1.109-2.51-1.109
		c-1.067,0-1.903,0.369-2.511,1.109c-0.606,0.74-0.909,1.771-0.909,3.09c0,1.36,0.296,2.404,0.89,3.131
		c0.593,0.727,1.43,1.09,2.51,1.09C818.907,178.851,819.758,178.487,820.351,177.761z"/>
	<path d="M831.041,169.851h5.6v9.68h-0.84v-8.96h-4.76v8.96H830.2v-8.96h-1.939v-0.72h1.939v-0.62c0-1.213,0.287-2.134,0.86-2.76
		c0.573-0.627,1.453-0.974,2.64-1.04l0.641-0.04l0.1,0.739l-0.92,0.061c-0.84,0.066-1.463,0.347-1.87,0.84
		c-0.406,0.493-0.609,1.227-0.609,2.2V169.851z M835.561,165.87h1.3v1.3h-1.3V165.87z"/>
	<path d="M847.741,173.29v6.24H846.9v-6.16c0-1.026-0.206-1.776-0.619-2.25c-0.414-0.473-1.08-0.71-2-0.71
		c-1.027,0-1.851,0.317-2.471,0.95c-0.62,0.634-0.93,1.477-0.93,2.53v5.64h-0.84v-9.68h0.819v1.739c0.294-0.64,0.737-1.13,1.33-1.47
		c0.594-0.34,1.271-0.51,2.03-0.51C846.567,169.61,847.741,170.837,847.741,173.29z"/>
	<path d="M859,165.431v14.1h-0.84v-1.96c-0.293,0.68-0.729,1.2-1.31,1.56c-0.58,0.36-1.277,0.54-2.09,0.54
		c-0.854,0-1.607-0.21-2.261-0.63s-1.159-1.013-1.52-1.779s-0.54-1.657-0.54-2.671c0-1,0.18-1.873,0.54-2.619
		c0.36-0.747,0.866-1.327,1.52-1.74s1.407-0.62,2.261-0.62c0.813,0,1.51,0.18,2.09,0.54s1.017,0.873,1.31,1.54v-6.26H859z
		 M857.28,177.75c0.587-0.732,0.88-1.772,0.88-3.12c0-1.333-0.293-2.366-0.88-3.1s-1.42-1.1-2.5-1.1s-1.923,0.363-2.53,1.09
		c-0.606,0.727-0.909,1.75-0.909,3.069c0,1.334,0.303,2.377,0.909,3.131c0.607,0.753,1.443,1.13,2.511,1.13
		C855.854,178.851,856.693,178.483,857.28,177.75z"/>
	<path d="M880.64,173.29v6.24h-0.84v-6.16c0-1.026-0.187-1.776-0.56-2.25c-0.374-0.473-0.967-0.71-1.78-0.71
		c-0.934,0-1.677,0.313-2.229,0.94c-0.554,0.627-0.83,1.473-0.83,2.54v5.64h-0.84v-6.16c0-1.026-0.188-1.776-0.561-2.25
		c-0.373-0.473-0.967-0.71-1.78-0.71c-0.933,0-1.677,0.313-2.229,0.94c-0.554,0.627-0.83,1.473-0.83,2.54v5.64h-0.84v-9.68h0.819
		v1.699c0.267-0.626,0.664-1.106,1.19-1.439s1.15-0.5,1.87-0.5c1.547,0,2.54,0.646,2.979,1.939c0.28-0.6,0.71-1.072,1.29-1.42
		c0.58-0.346,1.237-0.52,1.971-0.52C879.573,169.61,880.64,170.837,880.64,173.29z"/>
	<path d="M891.06,169.851h0.88l-5.68,13.279h-0.86l1.5-3.5l-4.159-9.779h0.899l3.7,8.939L891.06,169.851z"/>
	<path d="M736.103,202.351l0.4-0.7c0.52,0.439,1.023,0.747,1.51,0.92c0.487,0.174,1.077,0.26,1.77,0.26
		c0.854,0,1.507-0.153,1.96-0.46c0.453-0.307,0.68-0.74,0.68-1.3c0-0.467-0.147-0.84-0.44-1.12c-0.293-0.28-0.767-0.5-1.42-0.66
		l-1.64-0.38c-0.76-0.173-1.363-0.49-1.81-0.95s-0.67-0.989-0.67-1.59c0-0.826,0.313-1.493,0.94-2c0.626-0.507,1.473-0.76,2.54-0.76
		c0.68,0,1.307,0.113,1.88,0.34s1.04,0.547,1.4,0.96l-0.4,0.72c-0.427-0.399-0.873-0.696-1.34-0.89s-0.98-0.29-1.54-0.29
		c-0.787,0-1.403,0.16-1.85,0.48c-0.447,0.319-0.67,0.76-0.67,1.319c0,0.494,0.137,0.884,0.41,1.17
		c0.273,0.287,0.703,0.504,1.29,0.65l1.66,0.4c1.72,0.399,2.58,1.246,2.58,2.54c0,0.8-0.327,1.443-0.98,1.93
		s-1.533,0.729-2.64,0.729C738.229,203.67,737.022,203.23,736.103,202.351z"/>
	<path d="M750.583,202.811l-0.04,0.779c-0.28,0.04-0.58,0.061-0.9,0.061c-1,0-1.77-0.29-2.31-0.87s-0.81-1.356-0.81-2.33v-5.88
		h-1.94v-0.72h1.94v-3.021h0.84v3.021h2.92v0.72h-2.92v5.7c0,0.854,0.2,1.5,0.6,1.939c0.4,0.44,0.993,0.66,1.78,0.66
		C750.049,202.87,750.33,202.851,750.583,202.811z"/>
	<path d="M759.462,197.19v6.34h-0.86v-1.78c-0.293,0.613-0.717,1.087-1.27,1.42c-0.553,0.334-1.183,0.5-1.89,0.5
		c-0.614,0-1.177-0.127-1.69-0.38s-0.92-0.603-1.22-1.05c-0.3-0.446-0.45-0.937-0.45-1.47c0-0.721,0.19-1.276,0.57-1.67
		c0.38-0.394,1.006-0.677,1.88-0.851c0.873-0.173,2.097-0.26,3.67-0.26h0.4v-0.84c0-0.946-0.187-1.637-0.56-2.07
		c-0.373-0.433-0.967-0.649-1.78-0.649c-0.627,0-1.204,0.083-1.73,0.25c-0.527,0.166-1.077,0.437-1.65,0.81l-0.4-0.72
		c0.493-0.36,1.063-0.644,1.71-0.851c0.646-0.206,1.296-0.31,1.95-0.31C758.356,193.61,759.462,194.804,759.462,197.19z
		 M757.063,202.4c0.48-0.287,0.857-0.684,1.13-1.19c0.273-0.506,0.41-1.08,0.41-1.72v-0.72h-0.38c-1.4,0-2.467,0.057-3.2,0.17
		s-1.247,0.307-1.54,0.58s-0.44,0.677-0.44,1.21c0,0.613,0.227,1.116,0.68,1.51c0.453,0.394,1.026,0.59,1.72,0.59
		C756.042,202.83,756.583,202.688,757.063,202.4z"/>
	<path d="M769.323,194.23c0.652,0.413,1.159,0.993,1.52,1.74c0.359,0.746,0.539,1.619,0.539,2.619c0,1.014-0.18,1.904-0.539,2.671
		c-0.36,0.767-0.867,1.359-1.52,1.779c-0.654,0.42-1.408,0.63-2.261,0.63c-0.813,0-1.51-0.18-2.09-0.54
		c-0.58-0.359-1.017-0.88-1.31-1.56v1.96h-0.84v-14.1h0.84v6.26c0.293-0.667,0.729-1.18,1.31-1.54s1.276-0.54,2.09-0.54
		C767.915,193.61,768.669,193.817,769.323,194.23z M769.563,201.73c0.601-0.747,0.899-1.793,0.899-3.141
		c0-1.319-0.299-2.343-0.899-3.069s-1.44-1.09-2.521-1.09s-1.913,0.366-2.5,1.1c-0.586,0.733-0.879,1.767-0.879,3.1
		c0,1.348,0.293,2.388,0.879,3.12c0.587,0.733,1.428,1.101,2.521,1.101C768.129,202.851,768.962,202.478,769.563,201.73z"/>
	<path d="M773.902,189.891h1.28v1.26h-1.28V189.891z M774.122,203.53v-9.68h0.84v9.68H774.122z"/>
	<path d="M778.362,203.53v-14.1h0.84v14.1H778.362z"/>
	<path d="M782.382,189.891h1.279v1.26h-1.279V189.891z M782.603,203.53v-9.68h0.84v9.68H782.603z"/>
	<path d="M791.302,202.811l-0.04,0.779c-0.28,0.04-0.58,0.061-0.899,0.061c-1,0-1.771-0.29-2.311-0.87s-0.811-1.356-0.811-2.33
		v-5.88h-1.939v-0.72h1.939v-3.021h0.84v3.021h2.92v0.72h-2.92v5.7c0,0.854,0.201,1.5,0.601,1.939c0.399,0.44,0.993,0.66,1.78,0.66
		C790.769,202.87,791.048,202.851,791.302,202.811z"/>
	<path d="M800.261,193.851h0.881l-5.68,13.279h-0.86l1.5-3.5l-4.16-9.779h0.899l3.701,8.939L800.261,193.851z"/>
	<path d="M815.261,197.19v6.34h-0.859v-1.78c-0.294,0.613-0.717,1.087-1.271,1.42c-0.554,0.334-1.184,0.5-1.89,0.5
		c-0.613,0-1.177-0.127-1.69-0.38s-0.92-0.603-1.22-1.05c-0.301-0.446-0.45-0.937-0.45-1.47c0-0.721,0.19-1.276,0.57-1.67
		s1.006-0.677,1.88-0.851c0.873-0.173,2.097-0.26,3.67-0.26h0.4v-0.84c0-0.946-0.188-1.637-0.561-2.07
		c-0.373-0.433-0.967-0.649-1.78-0.649c-0.626,0-1.203,0.083-1.729,0.25c-0.527,0.166-1.077,0.437-1.65,0.81l-0.4-0.72
		c0.494-0.36,1.063-0.644,1.711-0.851c0.646-0.206,1.296-0.31,1.95-0.31C814.154,193.61,815.261,194.804,815.261,197.19z
		 M812.861,202.4c0.479-0.287,0.856-0.684,1.13-1.19c0.272-0.506,0.41-1.08,0.41-1.72v-0.72h-0.381c-1.399,0-2.467,0.057-3.199,0.17
		c-0.733,0.113-1.247,0.307-1.54,0.58c-0.294,0.273-0.44,0.677-0.44,1.21c0,0.613,0.227,1.116,0.68,1.51s1.027,0.59,1.721,0.59
		C811.841,202.83,812.381,202.688,812.861,202.4z"/>
	<path d="M826.321,197.29v6.24h-0.841v-6.16c0-1.026-0.206-1.776-0.619-2.25c-0.414-0.473-1.08-0.71-2-0.71
		c-1.027,0-1.851,0.317-2.471,0.95c-0.62,0.634-0.93,1.477-0.93,2.53v5.64h-0.84v-9.68h0.819v1.739c0.294-0.64,0.737-1.13,1.33-1.47
		c0.594-0.34,1.271-0.51,2.03-0.51C825.147,193.61,826.321,194.837,826.321,197.29z"/>
	<path d="M837.58,189.431v14.1h-0.84v-1.96c-0.293,0.68-0.729,1.2-1.31,1.56c-0.58,0.36-1.277,0.54-2.09,0.54
		c-0.854,0-1.607-0.21-2.261-0.63s-1.159-1.013-1.52-1.779s-0.54-1.657-0.54-2.671c0-1,0.18-1.873,0.54-2.619
		c0.36-0.747,0.866-1.327,1.52-1.74s1.407-0.62,2.261-0.62c0.813,0,1.51,0.18,2.09,0.54s1.017,0.873,1.31,1.54v-6.26H837.58z
		 M835.86,201.75c0.587-0.732,0.88-1.772,0.88-3.12c0-1.333-0.293-2.366-0.88-3.1s-1.42-1.1-2.5-1.1s-1.923,0.363-2.53,1.09
		c-0.606,0.727-0.909,1.75-0.909,3.069c0,1.334,0.303,2.377,0.909,3.131c0.607,0.753,1.443,1.13,2.511,1.13
		C834.434,202.851,835.273,202.483,835.86,201.75z"/>
	<path d="M859.22,197.29v6.24h-0.84v-6.16c0-1.026-0.187-1.776-0.56-2.25c-0.374-0.473-0.967-0.71-1.78-0.71
		c-0.934,0-1.677,0.313-2.229,0.94c-0.554,0.627-0.83,1.473-0.83,2.54v5.64h-0.84v-6.16c0-1.026-0.188-1.776-0.561-2.25
		c-0.373-0.473-0.967-0.71-1.78-0.71c-0.933,0-1.677,0.313-2.229,0.94c-0.554,0.627-0.83,1.473-0.83,2.54v5.64h-0.84v-9.68h0.819
		v1.699c0.267-0.626,0.664-1.106,1.19-1.439s1.15-0.5,1.87-0.5c1.547,0,2.54,0.646,2.979,1.939c0.28-0.6,0.71-1.072,1.29-1.42
		c0.58-0.346,1.237-0.52,1.971-0.52C858.153,193.61,859.22,194.837,859.22,197.29z"/>
	<path d="M863.98,203.05c-0.653-0.413-1.159-1-1.52-1.76s-0.54-1.646-0.54-2.66c0-1,0.18-1.88,0.54-2.64s0.866-1.347,1.52-1.76
		s1.407-0.62,2.261-0.62c0.853,0,1.606,0.207,2.26,0.62s1.16,1,1.52,1.76c0.36,0.76,0.54,1.64,0.54,2.64c0,1.014-0.18,1.9-0.54,2.66
		c-0.359,0.76-0.866,1.347-1.52,1.76c-0.653,0.414-1.407,0.62-2.26,0.62C865.388,203.67,864.634,203.464,863.98,203.05z
		 M868.771,201.761c0.594-0.727,0.891-1.771,0.891-3.131c0-1.319-0.304-2.35-0.91-3.09c-0.607-0.74-1.443-1.109-2.51-1.109
		c-1.067,0-1.903,0.369-2.511,1.109c-0.606,0.74-0.909,1.771-0.909,3.09c0,1.36,0.296,2.404,0.89,3.131
		c0.593,0.727,1.43,1.09,2.51,1.09C867.327,202.851,868.178,202.487,868.771,201.761z"/>
	<path d="M886.62,197.29v6.24h-0.84v-6.16c0-1.026-0.187-1.776-0.56-2.25c-0.374-0.473-0.967-0.71-1.78-0.71
		c-0.934,0-1.677,0.313-2.229,0.94c-0.554,0.627-0.83,1.473-0.83,2.54v5.64h-0.84v-6.16c0-1.026-0.188-1.776-0.561-2.25
		c-0.373-0.473-0.967-0.71-1.78-0.71c-0.933,0-1.677,0.313-2.229,0.94c-0.554,0.627-0.83,1.473-0.83,2.54v5.64h-0.84v-9.68h0.819
		v1.699c0.267-0.626,0.664-1.106,1.19-1.439s1.15-0.5,1.87-0.5c1.547,0,2.54,0.646,2.979,1.939c0.28-0.6,0.71-1.072,1.29-1.42
		c0.58-0.346,1.237-0.52,1.971-0.52C885.554,193.61,886.62,194.837,886.62,197.29z"/>
	<path d="M897.761,198.771h-7.521c0.026,1.307,0.356,2.313,0.99,3.02c0.633,0.707,1.536,1.061,2.71,1.061
		c0.6,0,1.163-0.101,1.689-0.301c0.527-0.199,1.051-0.52,1.57-0.96l0.4,0.721c-0.414,0.413-0.947,0.743-1.601,0.989
		c-0.653,0.247-1.326,0.37-2.02,0.37c-1.44,0-2.577-0.446-3.41-1.34c-0.833-0.893-1.25-2.12-1.25-3.68c0-1,0.187-1.88,0.56-2.64
		c0.373-0.761,0.9-1.351,1.58-1.771c0.681-0.42,1.46-0.63,2.34-0.63c1.254,0,2.227,0.407,2.921,1.22
		c0.692,0.813,1.04,1.954,1.04,3.42V198.771z M891.351,195.34c-0.62,0.634-0.983,1.518-1.09,2.65h6.699
		c-0.026-1.16-0.313-2.05-0.859-2.67c-0.547-0.62-1.313-0.93-2.301-0.93C892.787,194.391,891.971,194.707,891.351,195.34z"/>
	<path d="M908.16,197.29v6.24h-0.841v-6.16c0-1.026-0.206-1.776-0.619-2.25c-0.414-0.473-1.08-0.71-2-0.71
		c-1.027,0-1.851,0.317-2.471,0.95c-0.62,0.634-0.93,1.477-0.93,2.53v5.64h-0.84v-9.68h0.819v1.739c0.294-0.64,0.737-1.13,1.33-1.47
		c0.594-0.34,1.271-0.51,2.03-0.51C906.986,193.61,908.16,194.837,908.16,197.29z"/>
	<path d="M915.98,202.811l-0.04,0.779c-0.28,0.04-0.58,0.061-0.9,0.061c-1,0-1.77-0.29-2.31-0.87s-0.811-1.356-0.811-2.33v-5.88
		h-1.939v-0.72h1.939v-3.021h0.841v3.021h2.92v0.72h-2.92v5.7c0,0.854,0.199,1.5,0.6,1.939c0.4,0.44,0.993,0.66,1.78,0.66
		C915.447,202.87,915.727,202.851,915.98,202.811z"/>
	<path d="M925.3,193.851v9.68h-0.82v-1.82c-0.307,0.627-0.75,1.11-1.33,1.45s-1.236,0.51-1.97,0.51c-1.12,0-1.97-0.313-2.55-0.939
		s-0.87-1.547-0.87-2.76v-6.12h0.84v6.04c0,1.013,0.207,1.76,0.62,2.239c0.413,0.48,1.053,0.721,1.92,0.721
		c1,0,1.803-0.316,2.41-0.95c0.606-0.633,0.91-1.477,0.91-2.53v-5.52H925.3z"/>
	<path d="M942.02,197.29v6.24h-0.84v-6.16c0-1.026-0.187-1.776-0.56-2.25c-0.374-0.473-0.967-0.71-1.78-0.71
		c-0.934,0-1.677,0.313-2.229,0.94c-0.554,0.627-0.83,1.473-0.83,2.54v5.64h-0.84v-6.16c0-1.026-0.188-1.776-0.561-2.25
		c-0.373-0.473-0.967-0.71-1.78-0.71c-0.933,0-1.677,0.313-2.229,0.94c-0.554,0.627-0.83,1.473-0.83,2.54v5.64h-0.84v-9.68h0.819
		v1.699c0.267-0.626,0.664-1.106,1.19-1.439s1.15-0.5,1.87-0.5c1.547,0,2.54,0.646,2.979,1.939c0.28-0.6,0.71-1.072,1.29-1.42
		c0.58-0.346,1.237-0.52,1.971-0.52C940.953,193.61,942.02,194.837,942.02,197.29z"/>
	<path d="M945.1,202.13h1.38v1.4h-1.38V202.13z"/>
</g>
<g>
	<path d="M1114.984,106.161h3.141v0.76h-7.101v-0.76h3.14v-12.12l-2.539,1.68l-0.521-0.7l3.06-2.06v-0.02l0.2-0.12h0.62V106.161z"/>
	<path d="M1130.295,101.011c0.473,0.62,0.71,1.364,0.71,2.23c0,1.2-0.417,2.137-1.25,2.81c-0.834,0.673-2.037,1.01-3.61,1.01
		s-2.777-0.337-3.61-1.01c-0.833-0.673-1.25-1.61-1.25-2.81c0-0.866,0.237-1.613,0.71-2.24c0.474-0.626,1.123-1.06,1.95-1.3
		c-0.72-0.266-1.29-0.693-1.71-1.28c-0.42-0.586-0.63-1.267-0.63-2.04c0-1.146,0.394-2.053,1.18-2.72c0.787-0.667,1.907-1,3.36-1
		s2.573,0.333,3.36,1c0.786,0.667,1.18,1.573,1.18,2.72c0,0.773-0.214,1.454-0.64,2.04c-0.428,0.587-1,1.014-1.721,1.28
		C1129.164,99.954,1129.821,100.391,1130.295,101.011z M1130.104,103.221c0-2.026-1.32-3.04-3.96-3.04s-3.96,1.014-3.96,3.04
		c0,2.027,1.32,3.04,3.96,3.04S1130.104,105.248,1130.104,103.221z M1123.435,98.571c0.62,0.527,1.523,0.79,2.71,0.79
		s2.09-0.263,2.71-0.79c0.62-0.526,0.93-1.256,0.93-2.19c0-0.92-0.31-1.637-0.93-2.15s-1.523-0.77-2.71-0.77s-2.09,0.257-2.71,0.77
		s-0.93,1.23-0.93,2.15C1122.505,97.314,1122.814,98.044,1123.435,98.571z"/>
	<path d="M1132.585,108.081l-0.82-0.3l5.06-15.78l0.82,0.3L1132.585,108.081z"/>
	<path d="M1144.104,106.161h3.141v0.76h-7.101v-0.76h3.14v-12.12l-2.539,1.68l-0.521-0.7l3.06-2.06v-0.02l0.2-0.12h0.62V106.161z"/>
	<path d="M1156.104,106.161h3.141v0.76h-7.101v-0.76h3.14v-12.12l-2.539,1.68l-0.521-0.7l3.06-2.06v-0.02l0.2-0.12h0.62V106.161z"/>
	<path d="M1161.704,108.081l-0.82-0.3l5.06-15.78l0.82,0.3L1161.704,108.081z"/>
	<path d="M1173.224,106.161h3.141v0.76h-7.101v-0.76h3.14v-12.12l-2.539,1.68l-0.521-0.7l3.06-2.06v-0.02l0.2-0.12h0.62V106.161z"/>
	<path d="M1179.943,92.821h8.86v0.62l-6.78,13.48h-0.899l6.72-13.34h-7.9V92.821z"/>
	<path d="M1196.822,102.001v-0.76h5.28v0.76H1196.822z"/>
	<path d="M1215.382,106.161h3.141v0.76h-7.101v-0.76h3.14v-12.12l-2.539,1.68l-0.521-0.7l3.06-2.06v-0.02l0.2-0.12h0.62V106.161z"/>
	<path d="M1227.382,106.161h3.141v0.76h-7.101v-0.76h3.14v-12.12l-2.539,1.68l-0.521-0.7l3.06-2.06v-0.02l0.2-0.12h0.62V106.161z"/>
	<path d="M1233.962,97.241h1.38v1.4h-1.38V97.241z M1233.962,105.521h1.38v1.4h-1.38V105.521z"/>
	<path d="M1239.242,105.251c-0.813-1.22-1.22-3.01-1.22-5.37c0-2.373,0.403-4.17,1.21-5.39c0.807-1.22,1.99-1.83,3.55-1.83
		s2.743,0.606,3.55,1.82s1.21,3.007,1.21,5.38c0,2.36-0.406,4.153-1.22,5.38c-0.813,1.227-1.993,1.84-3.54,1.84
		S1240.056,106.471,1239.242,105.251z M1245.692,104.681c0.633-1.04,0.95-2.646,0.95-4.82c0-2.187-0.313-3.796-0.94-4.83
		c-0.627-1.033-1.6-1.55-2.92-1.55c-1.307,0-2.277,0.52-2.91,1.56s-0.95,2.647-0.95,4.82c0,2.16,0.317,3.764,0.95,4.81
		c0.633,1.047,1.604,1.57,2.91,1.57S1245.059,105.721,1245.692,104.681z"/>
	<path d="M1251.242,105.251c-0.813-1.22-1.22-3.01-1.22-5.37c0-2.373,0.403-4.17,1.21-5.39c0.807-1.22,1.99-1.83,3.55-1.83
		s2.743,0.606,3.55,1.82s1.21,3.007,1.21,5.38c0,2.36-0.406,4.153-1.22,5.38c-0.813,1.227-1.993,1.84-3.54,1.84
		S1252.056,106.471,1251.242,105.251z M1257.692,104.681c0.633-1.04,0.95-2.646,0.95-4.82c0-2.187-0.313-3.796-0.94-4.83
		c-0.627-1.033-1.6-1.55-2.92-1.55c-1.307,0-2.277,0.52-2.91,1.56s-0.95,2.647-0.95,4.82c0,2.16,0.317,3.764,0.95,4.81
		c0.633,1.047,1.604,1.57,2.91,1.57S1257.059,105.721,1257.692,104.681z"/>
	<path d="M1273.501,106.921l-1.68-3.9h-7.82l-1.68,3.9h-0.86l6.061-14.1h0.8l6.06,14.1H1273.501z M1264.341,102.221h7.141
		l-3.561-8.32L1264.341,102.221z"/>
	<path d="M1289.201,92.821h0.74v14.1h-0.82l0.021-12.34l-5.32,10.14h-0.68l-5.36-10.06l0.021,12.26h-0.82v-14.1h0.72l5.78,11.1
		L1289.201,92.821z"/>
</g>
<g>
	<path d="M1120.8,216.36v6.3c-0.493,0.28-1.183,0.51-2.069,0.689c-0.887,0.181-1.783,0.271-2.69,0.271
		c-1.347,0-2.503-0.287-3.47-0.86s-1.707-1.399-2.22-2.479c-0.514-1.08-0.771-2.373-0.771-3.88s0.257-2.801,0.771-3.881
		c0.513-1.079,1.246-1.902,2.199-2.47c0.953-0.566,2.091-0.85,3.41-0.85c1.947,0,3.526,0.633,4.74,1.899l-0.42,0.721
		c-0.68-0.641-1.363-1.101-2.05-1.38c-0.688-0.28-1.464-0.421-2.33-0.421c-1.72,0-3.057,0.558-4.01,1.671
		c-0.954,1.113-1.431,2.683-1.431,4.71c0,2.066,0.483,3.653,1.45,4.76s2.343,1.66,4.13,1.66c0.733,0,1.446-0.063,2.141-0.19
		c0.692-0.127,1.306-0.303,1.84-0.53v-4.939h-3.9v-0.8H1120.8z"/>
	<path d="M1124.26,223.46v-14.1h0.84v14.1H1124.26z"/>
	<path d="M1129.899,222.979c-0.653-0.413-1.159-1-1.52-1.76s-0.54-1.646-0.54-2.66c0-1,0.18-1.88,0.54-2.64s0.866-1.347,1.52-1.76
		s1.407-0.62,2.261-0.62c0.853,0,1.606,0.207,2.26,0.62s1.16,1,1.52,1.76c0.36,0.76,0.54,1.64,0.54,2.64c0,1.014-0.18,1.9-0.54,2.66
		c-0.359,0.76-0.866,1.347-1.52,1.76c-0.653,0.414-1.407,0.62-2.26,0.62C1131.307,223.6,1130.553,223.394,1129.899,222.979z
		 M1134.689,221.69c0.594-0.727,0.891-1.771,0.891-3.131c0-1.319-0.304-2.35-0.91-3.09c-0.607-0.74-1.443-1.109-2.51-1.109
		c-1.067,0-1.903,0.369-2.511,1.109c-0.606,0.74-0.909,1.771-0.909,3.09c0,1.36,0.296,2.404,0.89,3.131
		c0.593,0.727,1.43,1.09,2.51,1.09C1133.246,222.78,1134.097,222.417,1134.689,221.69z"/>
	<path d="M1140.619,222.979c-0.653-0.413-1.159-1-1.52-1.76s-0.54-1.646-0.54-2.66c0-1,0.18-1.88,0.54-2.64s0.866-1.347,1.52-1.76
		s1.407-0.62,2.261-0.62c0.853,0,1.606,0.207,2.26,0.62s1.16,1,1.52,1.76c0.36,0.76,0.54,1.64,0.54,2.64c0,1.014-0.18,1.9-0.54,2.66
		c-0.359,0.76-0.866,1.347-1.52,1.76c-0.653,0.414-1.407,0.62-2.26,0.62C1142.026,223.6,1141.272,223.394,1140.619,222.979z
		 M1145.409,221.69c0.594-0.727,0.891-1.771,0.891-3.131c0-1.319-0.304-2.35-0.91-3.09c-0.607-0.74-1.443-1.109-2.51-1.109
		c-1.067,0-1.903,0.369-2.511,1.109c-0.606,0.74-0.909,1.771-0.909,3.09c0,1.36,0.296,2.404,0.89,3.131
		c0.593,0.727,1.43,1.09,2.51,1.09C1143.966,222.78,1144.816,222.417,1145.409,221.69z"/>
	<path d="M1163.259,217.22v6.24h-0.84v-6.16c0-1.026-0.187-1.776-0.56-2.25c-0.374-0.473-0.967-0.71-1.78-0.71
		c-0.934,0-1.677,0.313-2.229,0.94c-0.554,0.627-0.83,1.473-0.83,2.54v5.64h-0.84v-6.16c0-1.026-0.188-1.776-0.561-2.25
		c-0.373-0.473-0.967-0.71-1.78-0.71c-0.933,0-1.677,0.313-2.229,0.94c-0.554,0.627-0.83,1.473-0.83,2.54v5.64h-0.84v-9.68h0.819
		v1.699c0.267-0.626,0.664-1.106,1.19-1.439s1.15-0.5,1.87-0.5c1.547,0,2.54,0.646,2.979,1.939c0.28-0.6,0.71-1.072,1.29-1.42
		c0.58-0.346,1.237-0.52,1.971-0.52C1162.192,213.54,1163.259,214.767,1163.259,217.22z"/>
</g>
<g>
	<path d="M1397.962,107.021v0.76h-8.739v-0.64l5.08-5.721c0.76-0.866,1.306-1.63,1.64-2.29c0.333-0.659,0.5-1.33,0.5-2.01
		c0-0.893-0.26-1.583-0.78-2.07c-0.52-0.486-1.253-0.729-2.2-0.729c-0.746,0-1.456,0.144-2.13,0.43
		c-0.673,0.287-1.343,0.73-2.01,1.33l-0.42-0.7c0.56-0.56,1.25-1.01,2.07-1.35c0.819-0.34,1.636-0.51,2.449-0.51
		c1.2,0,2.146,0.319,2.841,0.96c0.692,0.64,1.04,1.514,1.04,2.62c0,0.813-0.19,1.609-0.57,2.39s-1.004,1.65-1.87,2.61l-4.46,4.92
		H1397.962z"/>
	<path d="M1401.782,106.111c-0.813-1.22-1.22-3.01-1.22-5.37c0-2.373,0.403-4.17,1.21-5.39c0.807-1.221,1.99-1.83,3.55-1.83
		s2.743,0.606,3.55,1.819c0.807,1.214,1.21,3.007,1.21,5.381c0,2.359-0.406,4.153-1.22,5.38s-1.993,1.84-3.54,1.84
		S1402.596,107.331,1401.782,106.111z M1408.232,105.541c0.633-1.04,0.95-2.646,0.95-4.819c0-2.187-0.313-3.797-0.94-4.83
		s-1.6-1.551-2.92-1.551c-1.307,0-2.277,0.521-2.91,1.561s-0.95,2.646-0.95,4.82c0,2.159,0.317,3.763,0.95,4.81
		s1.604,1.57,2.91,1.57S1407.599,106.581,1408.232,105.541z"/>
	<path d="M1421.473,101.871c0.473,0.62,0.71,1.363,0.71,2.23c0,1.199-0.417,2.137-1.25,2.81c-0.834,0.674-2.037,1.01-3.61,1.01
		s-2.777-0.336-3.61-1.01c-0.833-0.673-1.25-1.61-1.25-2.81c0-0.867,0.237-1.613,0.71-2.24c0.474-0.627,1.123-1.061,1.95-1.3
		c-0.72-0.267-1.29-0.693-1.71-1.28s-0.63-1.267-0.63-2.04c0-1.146,0.394-2.053,1.18-2.72c0.787-0.667,1.907-1,3.36-1
		s2.573,0.333,3.36,1c0.786,0.667,1.18,1.573,1.18,2.72c0,0.773-0.214,1.453-0.64,2.04c-0.428,0.587-1,1.014-1.721,1.28
		C1420.342,100.814,1420.999,101.251,1421.473,101.871z M1421.282,104.081c0-2.026-1.32-3.04-3.96-3.04s-3.96,1.014-3.96,3.04
		c0,2.027,1.32,3.04,3.96,3.04S1421.282,106.108,1421.282,104.081z M1414.612,99.432c0.62,0.526,1.523,0.79,2.71,0.79
		s2.09-0.264,2.71-0.79c0.62-0.527,0.93-1.257,0.93-2.19c0-0.92-0.31-1.637-0.93-2.15c-0.62-0.513-1.523-0.77-2.71-0.77
		s-2.09,0.257-2.71,0.77c-0.62,0.514-0.93,1.23-0.93,2.15C1413.683,98.175,1413.992,98.904,1414.612,99.432z"/>
	<path d="M1425.781,106.111c-0.813-1.22-1.22-3.01-1.22-5.37c0-2.373,0.403-4.17,1.21-5.39c0.807-1.221,1.99-1.83,3.55-1.83
		s2.743,0.606,3.55,1.819c0.807,1.214,1.21,3.007,1.21,5.381c0,2.359-0.406,4.153-1.22,5.38s-1.993,1.84-3.54,1.84
		S1426.595,107.331,1425.781,106.111z M1432.231,105.541c0.633-1.04,0.95-2.646,0.95-4.819c0-2.187-0.313-3.797-0.94-4.83
		s-1.6-1.551-2.92-1.551c-1.307,0-2.277,0.521-2.91,1.561s-0.95,2.646-0.95,4.82c0,2.159,0.317,3.763,0.95,4.81
		s1.604,1.57,2.91,1.57S1431.598,106.581,1432.231,105.541z"/>
	<path d="M1441.941,107.781v-14.1h0.84v14.1H1441.941z"/>
	<path d="M1452.682,98.481c0.653,0.413,1.16,0.993,1.52,1.74c0.36,0.746,0.54,1.619,0.54,2.619c0,1.014-0.18,1.904-0.54,2.671
		c-0.359,0.767-0.866,1.359-1.52,1.779s-1.407,0.63-2.26,0.63c-0.813,0-1.511-0.18-2.091-0.54c-0.58-0.359-1.017-0.88-1.31-1.56
		v1.96h-0.84v-14.1h0.84v6.26c0.293-0.667,0.729-1.18,1.31-1.54s1.277-0.54,2.091-0.54
		C1451.274,97.861,1452.028,98.068,1452.682,98.481z M1452.922,105.981c0.6-0.747,0.899-1.793,0.899-3.141
		c0-1.319-0.3-2.343-0.899-3.069c-0.601-0.727-1.44-1.09-2.521-1.09s-1.913,0.366-2.5,1.1s-0.88,1.767-0.88,3.1
		c0,1.348,0.293,2.388,0.88,3.12c0.587,0.733,1.427,1.101,2.521,1.101C1451.488,107.102,1452.321,106.729,1452.922,105.981z"/>
	<path d="M1456.881,106.602l0.4-0.7c0.52,0.439,1.023,0.747,1.51,0.92c0.486,0.174,1.077,0.26,1.771,0.26
		c0.853,0,1.506-0.153,1.96-0.46c0.453-0.307,0.68-0.74,0.68-1.3c0-0.467-0.146-0.84-0.439-1.12c-0.294-0.28-0.768-0.5-1.421-0.66
		l-1.64-0.38c-0.76-0.173-1.363-0.49-1.81-0.95c-0.447-0.46-0.67-0.989-0.67-1.59c0-0.826,0.313-1.493,0.939-2s1.474-0.76,2.54-0.76
		c0.68,0,1.307,0.113,1.88,0.34s1.04,0.547,1.4,0.96l-0.4,0.72c-0.427-0.399-0.873-0.696-1.34-0.89s-0.979-0.29-1.54-0.29
		c-0.787,0-1.403,0.16-1.85,0.48c-0.447,0.319-0.67,0.76-0.67,1.319c0,0.494,0.136,0.884,0.409,1.17
		c0.273,0.287,0.703,0.504,1.29,0.65l1.66,0.4c1.721,0.399,2.58,1.246,2.58,2.54c0,0.8-0.327,1.443-0.979,1.93
		c-0.653,0.486-1.534,0.729-2.641,0.729C1459.008,107.921,1457.801,107.481,1456.881,106.602z"/>
	<path d="M1466.621,106.381h1.38v1.4h-1.38V106.381z"/>
</g>
<g>
	<path d="M48.744,117.945c1.367,1.7,2.05,4.3,2.05,7.8v14.8h-7.55v-14.55c0-1.667-0.258-2.867-0.775-3.6
		c-0.517-0.733-1.392-1.1-2.625-1.1c-1.434,0-2.55,0.5-3.35,1.5c-0.8,1-1.2,2.4-1.2,4.2v13.55h-7.55v-14.55
		c0-1.667-0.258-2.867-0.775-3.6c-0.517-0.733-1.392-1.1-2.625-1.1c-1.434,0-2.55,0.5-3.35,1.5c-0.8,1-1.2,2.4-1.2,4.2v13.55h-7.55
		v-24.55h7.35v3.3c0.767-1.267,1.792-2.233,3.075-2.9c1.283-0.667,2.758-1,4.425-1c3.633,0,6.066,1.517,7.3,4.55
		c0.8-1.4,1.917-2.508,3.35-3.325c1.433-0.816,3.017-1.225,4.75-1.225C45.294,115.395,47.376,116.245,48.744,117.945z"/>
	<path d="M61.443,139.37c-1.967-1.05-3.484-2.533-4.55-4.45c-1.067-1.916-1.6-4.175-1.6-6.775s0.533-4.858,1.6-6.775
		c1.066-1.917,2.583-3.392,4.55-4.425c1.966-1.033,4.25-1.55,6.85-1.55c2.6,0,4.883,0.517,6.85,1.55
		c1.967,1.034,3.483,2.509,4.55,4.425c1.066,1.917,1.6,4.175,1.6,6.775s-0.534,4.859-1.6,6.775c-1.067,1.917-2.583,3.4-4.55,4.45
		s-4.25,1.575-6.85,1.575C65.693,140.945,63.41,140.42,61.443,139.37z M73.793,128.145c0-2.367-0.475-4.133-1.425-5.3
		c-0.95-1.166-2.309-1.75-4.075-1.75c-3.667,0-5.5,2.35-5.5,7.05c0,4.7,1.833,7.05,5.5,7.05
		C71.959,135.195,73.793,132.845,73.793,128.145z"/>
	<path d="M122.393,117.945c1.367,1.7,2.05,4.3,2.05,7.8v14.8h-7.55v-14.55c0-1.667-0.258-2.867-0.775-3.6
		c-0.517-0.733-1.392-1.1-2.625-1.1c-1.434,0-2.55,0.5-3.35,1.5c-0.8,1-1.2,2.4-1.2,4.2v13.55h-7.55v-14.55
		c0-1.667-0.258-2.867-0.775-3.6c-0.517-0.733-1.392-1.1-2.625-1.1c-1.434,0-2.55,0.5-3.35,1.5c-0.8,1-1.2,2.4-1.2,4.2v13.55h-7.55
		v-24.55h7.35v3.3c0.767-1.267,1.792-2.233,3.075-2.9c1.283-0.667,2.758-1,4.425-1c3.633,0,6.066,1.517,7.3,4.55
		c0.8-1.4,1.917-2.508,3.35-3.325c1.433-0.816,3.017-1.225,4.75-1.225C118.943,115.395,121.026,116.245,122.393,117.945z"/>
	<path d="M152.243,129.695h-16c0.233,1.967,0.875,3.392,1.925,4.274c1.05,0.884,2.542,1.325,4.475,1.325
		c1.267,0,2.525-0.208,3.775-0.625c1.25-0.416,2.392-1.008,3.425-1.775l2,5.051c-1.2,0.934-2.659,1.667-4.375,2.199
		c-1.717,0.533-3.442,0.801-5.175,0.801c-4.133,0-7.392-1.142-9.775-3.426c-2.383-2.282-3.575-5.391-3.575-9.325
		c0-2.5,0.516-4.716,1.55-6.65c1.033-1.933,2.466-3.441,4.3-4.525c1.833-1.083,3.917-1.625,6.25-1.625
		c3.433,0,6.158,1.117,8.175,3.35c2.016,2.233,3.025,5.267,3.025,9.1V129.695z M137.818,121.97c-0.85,0.917-1.375,2.242-1.575,3.975
		h9.65c-0.1-1.766-0.542-3.1-1.325-4c-0.784-0.9-1.893-1.35-3.325-1.35C139.81,120.595,138.668,121.054,137.818,121.97z"/>
	<path d="M178.743,117.97c1.433,1.717,2.15,4.309,2.15,7.775v14.8h-7.55v-14.45c0-1.666-0.309-2.883-0.925-3.65
		c-0.617-0.766-1.575-1.15-2.875-1.15c-1.567,0-2.825,0.5-3.775,1.5s-1.425,2.333-1.425,4v13.75h-7.55v-24.55h7.35v3.5
		c0.866-1.333,1.991-2.35,3.375-3.05c1.383-0.7,2.941-1.05,4.675-1.05C175.125,115.395,177.309,116.253,178.743,117.97z"/>
	<path d="M202.542,135.245l-0.4,5.5c-0.967,0.133-1.934,0.2-2.9,0.2c-3.734,0-6.458-0.816-8.175-2.45
		c-1.717-1.633-2.575-4.116-2.575-7.45v-9.4h-4.65v-5.65h4.65v-7.2h7.55v7.2h6.15v5.65h-6.15v9.35c0,2.934,1.367,4.399,4.1,4.399
		C200.908,135.395,201.708,135.345,202.542,135.245z"/>
	<path d="M229.542,115.995v24.55h-7.35v-3.5c-0.768,1.268-1.775,2.233-3.025,2.9c-1.25,0.666-2.658,1-4.225,1
		c-3.1,0-5.409-0.858-6.925-2.575c-1.517-1.717-2.275-4.308-2.275-7.775v-14.6h7.55v14.75c0,1.467,0.308,2.55,0.925,3.25
		c0.616,0.7,1.558,1.05,2.825,1.05c1.467,0,2.658-0.5,3.575-1.5c0.917-1,1.375-2.316,1.375-3.95v-13.6H229.542z"/>
	<path d="M271.841,117.945c1.367,1.7,2.05,4.3,2.05,7.8v14.8h-7.55v-14.55c0-1.667-0.258-2.867-0.775-3.6
		c-0.517-0.733-1.392-1.1-2.625-1.1c-1.434,0-2.55,0.5-3.35,1.5c-0.8,1-1.2,2.4-1.2,4.2v13.55h-7.55v-14.55
		c0-1.667-0.258-2.867-0.775-3.6c-0.517-0.733-1.392-1.1-2.625-1.1c-1.434,0-2.55,0.5-3.35,1.5c-0.8,1-1.2,2.4-1.2,4.2v13.55h-7.55
		v-24.55h7.35v3.3c0.767-1.267,1.792-2.233,3.075-2.9c1.283-0.667,2.758-1,4.425-1c3.633,0,6.066,1.517,7.3,4.55
		c0.8-1.4,1.917-2.508,3.35-3.325c1.433-0.816,3.017-1.225,4.75-1.225C268.391,115.395,270.474,116.245,271.841,117.945z"/>
</g>
</svg>
