<?xml version="1.0" encoding="utf-8"?>
<!-- Generator: Adobe Illustrator 16.0.0, SVG Export Plug-In . SVG Version: 6.00 Build 0)  -->
<!DOCTYPE svg PUBLIC "-//W3C//DTD SVG 1.1//EN" "http://www.w3.org/Graphics/SVG/1.1/DTD/svg11.dtd">
<svg version="1.1" id="Layer_1" xmlns="http://www.w3.org/2000/svg" xmlns:xlink="http://www.w3.org/1999/xlink" x="0px" y="0px"
	 width="1523.924px" height="256.09px" viewBox="0 0 1523.924 256.09" enable-background="new 0 0 1523.924 256.09"
	 xml:space="preserve">
<g>
	<path d="M20.824,69.136h-3.7l-3.76-4.38v4.38h-3.02v-14.1h3.02v8.48l3.62-4.18h3.6l-4.12,4.68L20.824,69.136z"/>
	<path d="M30.244,64.796h-6.4c0.093,0.787,0.35,1.357,0.77,1.71c0.42,0.354,1.017,0.53,1.79,0.53c0.506,0,1.01-0.083,1.51-0.25
		c0.5-0.167,0.957-0.403,1.37-0.71l0.8,2.02c-0.48,0.374-1.063,0.667-1.75,0.88c-0.687,0.213-1.377,0.32-2.07,0.32
		c-1.653,0-2.957-0.457-3.91-1.37c-0.953-0.913-1.43-2.157-1.43-3.73c0-1,0.207-1.887,0.62-2.66c0.413-0.773,0.987-1.376,1.72-1.81
		c0.733-0.433,1.566-0.65,2.5-0.65c1.373,0,2.463,0.447,3.27,1.34c0.807,0.894,1.21,2.107,1.21,3.64V64.796z M24.474,61.706
		c-0.34,0.367-0.55,0.897-0.63,1.59h3.86c-0.04-0.707-0.217-1.24-0.53-1.6c-0.313-0.36-0.757-0.54-1.33-0.54
		C25.271,61.156,24.814,61.34,24.474,61.706z"/>
	<path d="M38.664,59.336h2.96l-5.92,13.4h-3.06l1.88-4.14l-4.04-9.26h3.14l2.48,6.24L38.664,59.336z"/>
	<path d="M55.744,59.316h2.94l-3.98,9.82h-2.56l-2.16-5.54l-2.1,5.54h-2.54l-4-9.82h3.08l2.32,6.22l2.32-6.22h2.04l2.34,6.28
		L55.744,59.316z"/>
	<path d="M61.584,68.666c-0.787-0.42-1.394-1.013-1.82-1.78c-0.427-0.767-0.64-1.67-0.64-2.71s0.213-1.943,0.64-2.71
		s1.033-1.356,1.82-1.77c0.787-0.413,1.7-0.62,2.74-0.62s1.953,0.207,2.74,0.62c0.787,0.414,1.393,1.003,1.82,1.77
		s0.64,1.67,0.64,2.71s-0.213,1.943-0.64,2.71c-0.427,0.767-1.033,1.36-1.82,1.78c-0.787,0.42-1.7,0.63-2.74,0.63
		S62.371,69.086,61.584,68.666z M66.524,64.176c0-0.947-0.19-1.653-0.57-2.12c-0.38-0.466-0.923-0.7-1.63-0.7
		c-1.467,0-2.2,0.94-2.2,2.82s0.733,2.82,2.2,2.82S66.524,66.056,66.524,64.176z"/>
	<path d="M78.384,61.556l-1.7,0.18c-0.84,0.08-1.434,0.317-1.78,0.71c-0.347,0.394-0.52,0.917-0.52,1.57v5.12h-3.02v-9.82h2.9v1.66
		c0.493-1.133,1.513-1.753,3.06-1.86l0.88-0.06L78.384,61.556z"/>
	<path d="M89.124,55.036v14.1h-3v-1.46c-0.293,0.507-0.71,0.903-1.25,1.19s-1.15,0.43-1.83,0.43c-0.84,0-1.59-0.217-2.25-0.65
		c-0.66-0.433-1.173-1.04-1.54-1.82c-0.367-0.78-0.55-1.676-0.55-2.69c0-1.013,0.183-1.903,0.55-2.67s0.876-1.356,1.53-1.77
		c0.653-0.413,1.407-0.62,2.26-0.62c0.667,0,1.27,0.14,1.81,0.42c0.54,0.28,0.957,0.673,1.25,1.18v-5.64H89.124z M85.554,66.266
		c0.38-0.486,0.57-1.183,0.57-2.09s-0.19-1.6-0.57-2.08c-0.38-0.48-0.923-0.72-1.63-0.72s-1.253,0.237-1.64,0.71
		s-0.58,1.157-0.58,2.05c0,0.907,0.193,1.61,0.58,2.11s0.934,0.75,1.64,0.75S85.174,66.753,85.554,66.266z"/>
</g>
<g>
	<path d="M744.902,60.106c0.573,0.687,0.86,1.723,0.86,3.11v5.92h-3.02v-5.78c0-0.667-0.123-1.153-0.37-1.46
		c-0.247-0.306-0.63-0.46-1.15-0.46c-0.626,0-1.13,0.2-1.51,0.6s-0.57,0.934-0.57,1.6v5.5h-3.02v-9.82h2.94v1.4
		c0.347-0.533,0.796-0.94,1.35-1.22c0.553-0.28,1.176-0.42,1.87-0.42C743.455,59.076,744.329,59.419,744.902,60.106z"/>
	<path d="M750.002,68.666c-0.787-0.42-1.394-1.013-1.82-1.78c-0.427-0.767-0.64-1.67-0.64-2.71s0.213-1.943,0.64-2.71
		s1.033-1.356,1.82-1.77c0.787-0.413,1.7-0.62,2.74-0.62s1.953,0.207,2.74,0.62c0.787,0.414,1.393,1.003,1.82,1.77
		s0.64,1.67,0.64,2.71s-0.213,1.943-0.64,2.71c-0.427,0.767-1.033,1.36-1.82,1.78c-0.787,0.42-1.7,0.63-2.74,0.63
		S750.789,69.086,750.002,68.666z M754.942,64.176c0-0.947-0.19-1.653-0.57-2.12c-0.38-0.466-0.923-0.7-1.63-0.7
		c-1.467,0-2.2,0.94-2.2,2.82s0.733,2.82,2.2,2.82S754.942,66.056,754.942,64.176z"/>
	<path d="M766.082,67.016l-0.16,2.2c-0.387,0.053-0.773,0.08-1.16,0.08c-1.494,0-2.583-0.327-3.27-0.98
		c-0.687-0.653-1.03-1.647-1.03-2.98v-3.76h-1.86v-2.26h1.86v-2.88h3.02v2.88h2.46v2.26h-2.46v3.74c0,1.173,0.546,1.76,1.64,1.76
		C765.429,67.076,765.749,67.056,766.082,67.016z"/>
	<path d="M776.262,64.796h-6.4c0.093,0.787,0.35,1.357,0.77,1.71c0.42,0.354,1.017,0.53,1.79,0.53c0.506,0,1.01-0.083,1.51-0.25
		c0.5-0.167,0.957-0.403,1.37-0.71l0.8,2.02c-0.48,0.374-1.063,0.667-1.75,0.88c-0.687,0.213-1.377,0.32-2.07,0.32
		c-1.653,0-2.957-0.457-3.91-1.37c-0.953-0.913-1.43-2.157-1.43-3.73c0-1,0.207-1.887,0.62-2.66c0.413-0.773,0.987-1.376,1.72-1.81
		c0.733-0.433,1.566-0.65,2.5-0.65c1.373,0,2.463,0.447,3.27,1.34c0.807,0.894,1.21,2.107,1.21,3.64V64.796z M770.492,61.706
		c-0.34,0.367-0.55,0.897-0.63,1.59h3.86c-0.04-0.707-0.217-1.24-0.53-1.6c-0.313-0.36-0.757-0.54-1.33-0.54
		C771.288,61.156,770.832,61.34,770.492,61.706z"/>
</g>
<g>
	<path d="M1119.286,55.035v14.1h-3v-1.46c-0.293,0.507-0.709,0.903-1.25,1.19c-0.539,0.287-1.149,0.43-1.83,0.43
		c-0.84,0-1.59-0.217-2.25-0.65c-0.66-0.433-1.173-1.04-1.539-1.82c-0.367-0.78-0.551-1.676-0.551-2.69
		c0-1.013,0.184-1.903,0.551-2.67c0.366-0.767,0.876-1.356,1.529-1.77c0.653-0.413,1.406-0.62,2.26-0.62
		c0.667,0,1.271,0.14,1.811,0.42c0.54,0.28,0.957,0.673,1.25,1.18v-5.64H1119.286z M1115.716,66.265
		c0.381-0.486,0.57-1.183,0.57-2.09s-0.189-1.6-0.57-2.08c-0.379-0.48-0.923-0.72-1.629-0.72c-0.707,0-1.254,0.237-1.641,0.71
		s-0.58,1.157-0.58,2.05c0,0.907,0.193,1.61,0.58,2.11s0.934,0.75,1.641,0.75C1114.793,66.995,1115.337,66.752,1115.716,66.265z"/>
	<path d="M1129.216,60.115c0.701,0.693,1.051,1.767,1.051,3.22v5.8h-2.86v-1.46c-0.2,0.507-0.533,0.903-1,1.19
		s-1.013,0.43-1.64,0.43c-0.667,0-1.271-0.134-1.811-0.4c-0.539-0.266-0.967-0.64-1.279-1.12c-0.314-0.48-0.471-1.013-0.471-1.6
		c0-0.72,0.184-1.287,0.551-1.7c0.366-0.413,0.956-0.713,1.77-0.9c0.813-0.187,1.926-0.28,3.34-0.28h0.52v-0.36
		c0-0.586-0.127-1-0.379-1.24c-0.254-0.24-0.693-0.36-1.32-0.36c-0.48,0-1.014,0.087-1.6,0.26c-0.588,0.173-1.147,0.414-1.681,0.72
		l-0.8-2.02c0.561-0.347,1.25-0.637,2.07-0.87c0.819-0.233,1.582-0.35,2.289-0.35C1127.433,59.075,1128.517,59.422,1129.216,60.115z
		 M1126.847,66.625c0.359-0.394,0.539-0.903,0.539-1.53v-0.34h-0.34c-1.08,0-1.836,0.087-2.27,0.26
		c-0.434,0.173-0.65,0.487-0.65,0.94c0,0.36,0.123,0.66,0.37,0.9c0.247,0.24,0.557,0.36,0.931,0.36
		C1126.013,67.215,1126.486,67.019,1126.847,66.625z"/>
	<path d="M1139.326,59.335h2.96l-5.92,13.4h-3.061l1.881-4.14l-4.041-9.26h3.141l2.48,6.24L1139.326,59.335z"/>
</g>
<g>
	<path d="M1397.263,60.106c0.572,0.687,0.859,1.723,0.859,3.11v5.92h-3.02v-5.78c0-0.667-0.123-1.153-0.37-1.46
		c-0.247-0.306-0.63-0.46-1.15-0.46c-0.626,0-1.13,0.2-1.51,0.6s-0.569,0.934-0.569,1.6v5.5h-3.021v-14.1h3.021v5.58
		c0.346-0.506,0.789-0.89,1.329-1.15c0.54-0.26,1.144-0.39,1.81-0.39C1395.815,59.076,1396.688,59.419,1397.263,60.106z"/>
	<path d="M1400.282,54.596h3.24v2.82h-3.24V54.596z M1400.382,69.136v-9.82h3.021v9.82H1400.382z"/>
	<path d="M1415.742,59.316v8.76c0,1.586-0.454,2.787-1.36,3.6c-0.906,0.813-2.246,1.22-4.02,1.22c-0.881,0-1.724-0.106-2.53-0.32
		c-0.808-0.213-1.517-0.513-2.13-0.9l0.8-2.08c1.267,0.693,2.526,1.04,3.78,1.04c1.652,0,2.48-0.78,2.48-2.34v-1.08
		c-0.281,0.507-0.701,0.907-1.261,1.2c-0.56,0.293-1.187,0.44-1.88,0.44c-0.854,0-1.609-0.2-2.27-0.6s-1.178-0.97-1.551-1.71
		c-0.373-0.74-0.56-1.597-0.56-2.57c0-0.973,0.187-1.83,0.56-2.57c0.373-0.74,0.891-1.313,1.551-1.72
		c0.66-0.406,1.416-0.61,2.27-0.61c0.68,0,1.297,0.144,1.85,0.43s0.977,0.683,1.271,1.19v-1.38H1415.742z M1412.151,65.876
		c0.394-0.453,0.591-1.087,0.591-1.9c0-0.813-0.197-1.45-0.591-1.91c-0.393-0.46-0.943-0.69-1.649-0.69
		c-0.707,0-1.26,0.23-1.66,0.69c-0.399,0.46-0.6,1.097-0.6,1.91c0,0.8,0.2,1.43,0.6,1.89c0.4,0.46,0.953,0.69,1.66,0.69
		C1411.208,66.556,1411.759,66.33,1412.151,65.876z"/>
	<path d="M1426.842,60.106c0.573,0.687,0.86,1.723,0.86,3.11v5.92h-3.021v-5.78c0-0.667-0.123-1.153-0.37-1.46
		c-0.246-0.306-0.63-0.46-1.15-0.46c-0.626,0-1.129,0.2-1.51,0.6c-0.379,0.4-0.569,0.934-0.569,1.6v5.5h-3.021v-14.1h3.021v5.58
		c0.347-0.506,0.79-0.89,1.329-1.15c0.541-0.26,1.145-0.39,1.811-0.39C1425.396,59.076,1426.269,59.419,1426.842,60.106z"/>
	<path d="M1438.802,64.796h-6.4c0.094,0.787,0.35,1.357,0.77,1.71c0.42,0.354,1.018,0.53,1.791,0.53c0.506,0,1.01-0.083,1.51-0.25
		c0.5-0.167,0.956-0.403,1.369-0.71l0.801,2.02c-0.48,0.374-1.064,0.667-1.75,0.88c-0.688,0.213-1.377,0.32-2.07,0.32
		c-1.653,0-2.957-0.457-3.91-1.37c-0.953-0.913-1.43-2.157-1.43-3.73c0-1,0.207-1.887,0.619-2.66
		c0.414-0.773,0.987-1.376,1.721-1.81c0.732-0.433,1.566-0.65,2.5-0.65c1.373,0,2.463,0.447,3.27,1.34
		c0.807,0.894,1.211,2.107,1.211,3.64V64.796z M1433.031,61.706c-0.34,0.367-0.55,0.897-0.63,1.59h3.859
		c-0.039-0.707-0.217-1.24-0.529-1.6c-0.313-0.36-0.757-0.54-1.33-0.54C1433.827,61.156,1433.371,61.34,1433.031,61.706z"/>
	<path d="M1441.911,68.986c-0.753-0.207-1.403-0.503-1.949-0.89l0.799-2.08c0.533,0.36,1.121,0.64,1.761,0.84
		c0.64,0.2,1.286,0.3,1.94,0.3c0.467,0,0.83-0.077,1.09-0.23s0.39-0.363,0.39-0.63c0-0.24-0.09-0.427-0.271-0.56
		c-0.18-0.133-0.516-0.253-1.01-0.36l-1.6-0.36c-0.947-0.213-1.644-0.543-2.09-0.99c-0.447-0.447-0.67-1.057-0.67-1.83
		c0-0.613,0.176-1.153,0.529-1.62c0.354-0.466,0.854-0.833,1.5-1.1c0.646-0.267,1.383-0.4,2.211-0.4c0.706,0,1.393,0.107,2.06,0.32
		c0.667,0.214,1.267,0.514,1.8,0.9l-0.8,2c-1.04-0.72-2.067-1.08-3.08-1.08c-0.467,0-0.833,0.08-1.101,0.24
		c-0.266,0.16-0.399,0.387-0.399,0.68c0,0.213,0.08,0.38,0.239,0.5c0.16,0.12,0.441,0.233,0.841,0.34l1.659,0.38
		c1,0.227,1.73,0.57,2.191,1.03c0.459,0.46,0.689,1.083,0.689,1.87c0,0.947-0.377,1.69-1.131,2.23
		c-0.753,0.54-1.789,0.81-3.109,0.81C1443.495,69.296,1442.665,69.193,1441.911,68.986z"/>
	<path d="M1456.661,67.016l-0.16,2.2c-0.387,0.053-0.773,0.08-1.159,0.08c-1.493,0-2.583-0.327-3.271-0.98
		c-0.687-0.653-1.029-1.647-1.029-2.98v-3.76h-1.86v-2.26h1.86v-2.88h3.02v2.88h2.46v2.26h-2.46v3.74c0,1.173,0.547,1.76,1.641,1.76
		C1456.009,67.076,1456.328,67.056,1456.661,67.016z"/>
	<path d="M1471.911,59.726c0.66,0.434,1.174,1.04,1.54,1.82c0.366,0.78,0.55,1.677,0.55,2.69s-0.184,1.903-0.55,2.67
		c-0.366,0.767-0.876,1.357-1.53,1.77c-0.652,0.414-1.406,0.62-2.26,0.62c-0.666,0-1.27-0.137-1.81-0.41s-0.957-0.657-1.25-1.15v5
		h-3.021v-13.42h2.98v1.38c0.293-0.507,0.713-0.903,1.26-1.19s1.16-0.43,1.84-0.43C1470.501,59.076,1471.251,59.293,1471.911,59.726
		z M1470.421,66.286c0.387-0.473,0.58-1.156,0.58-2.05c0-0.907-0.193-1.61-0.58-2.11s-0.934-0.75-1.64-0.75s-1.253,0.243-1.64,0.73
		s-0.58,1.183-0.58,2.09c0,0.894,0.193,1.583,0.58,2.07c0.387,0.487,0.934,0.73,1.64,0.73S1470.034,66.76,1470.421,66.286z"/>
	<path d="M1477.821,68.666c-0.787-0.42-1.394-1.013-1.82-1.78c-0.427-0.767-0.64-1.67-0.64-2.71s0.213-1.943,0.64-2.71
		s1.033-1.356,1.82-1.77c0.787-0.413,1.699-0.62,2.74-0.62c1.039,0,1.953,0.207,2.74,0.62c0.786,0.414,1.393,1.003,1.819,1.77
		s0.64,1.67,0.64,2.71s-0.213,1.943-0.64,2.71c-0.427,0.767-1.033,1.36-1.819,1.78c-0.787,0.42-1.701,0.63-2.74,0.63
		C1479.521,69.296,1478.608,69.086,1477.821,68.666z M1482.761,64.176c0-0.947-0.189-1.653-0.57-2.12
		c-0.379-0.466-0.923-0.7-1.629-0.7c-1.467,0-2.2,0.94-2.2,2.82s0.733,2.82,2.2,2.82S1482.761,66.056,1482.761,64.176z"/>
	<path d="M1487.501,54.596h3.24v2.82h-3.24V54.596z M1487.601,69.136v-9.82h3.021v9.82H1487.601z"/>
	<path d="M1501.721,60.106c0.573,0.687,0.86,1.723,0.86,3.11v5.92h-3.021v-5.78c0-0.667-0.123-1.153-0.37-1.46
		c-0.246-0.306-0.63-0.46-1.15-0.46c-0.626,0-1.129,0.2-1.51,0.6c-0.379,0.4-0.569,0.934-0.569,1.6v5.5h-3.021v-9.82h2.94v1.4
		c0.347-0.533,0.796-0.94,1.351-1.22c0.553-0.28,1.176-0.42,1.869-0.42C1500.274,59.076,1501.147,59.419,1501.721,60.106z"/>
	<path d="M1511.241,67.016l-0.16,2.2c-0.387,0.053-0.773,0.08-1.16,0.08c-1.494,0-2.584-0.327-3.27-0.98
		c-0.688-0.653-1.031-1.647-1.031-2.98v-3.76h-1.859v-2.26h1.859v-2.88h3.021v2.88h2.46v2.26h-2.46v3.74
		c0,1.173,0.546,1.76,1.64,1.76C1510.587,67.076,1510.907,67.056,1511.241,67.016z"/>
</g>
<g>
	<path d="M32.934,116.627c1.633,1.034,2.908,2.509,3.825,4.425c0.916,1.917,1.375,4.142,1.375,6.675
		c0,2.534-0.459,4.775-1.375,6.725c-0.917,1.95-2.2,3.467-3.85,4.55c-1.65,1.083-3.525,1.625-5.625,1.625
		c-1.7,0-3.234-0.358-4.6-1.075c-1.367-0.717-2.417-1.708-3.15-2.975v3.65h-7.45v-35.25h7.55v14
		c0.732-1.233,1.775-2.191,3.125-2.875c1.35-0.683,2.857-1.025,4.525-1.025C29.417,115.077,31.3,115.594,32.934,116.627z
		 M29.184,133.002c0.966-1.25,1.45-3.008,1.45-5.275c0-2.233-0.484-3.941-1.45-5.125c-0.967-1.183-2.333-1.775-4.1-1.775
		c-1.767,0-3.133,0.608-4.1,1.825c-0.967,1.217-1.45,2.942-1.45,5.175c0,2.267,0.483,4.008,1.45,5.225s2.333,1.825,4.1,1.825
		C26.851,134.877,28.217,134.252,29.184,133.002z"/>
	<path d="M60.284,121.277l-4.25,0.45c-2.1,0.2-3.584,0.792-4.45,1.775c-0.867,0.984-1.3,2.292-1.3,3.925v12.8h-7.55v-24.55h7.25
		v4.15c1.233-2.833,3.783-4.383,7.65-4.65l2.2-0.15L60.284,121.277z"/>
	<path d="M62.533,103.877h8.1v7.05h-8.1V103.877z M62.783,140.227v-24.55h7.55v24.55H62.783z"/>
	<path d="M76.133,140.227v-35.25h7.55v35.25H76.133z"/>
	<path d="M89.483,140.227v-35.25h7.55v35.25H89.483z"/>
	<path d="M102.583,103.877h8.1v7.05h-8.1V103.877z M102.833,140.227v-24.55h7.55v24.55H102.833z"/>
	<path d="M135.208,117.677c1.75,1.733,2.625,4.417,2.625,8.05v14.5h-7.15v-3.65c-0.5,1.267-1.333,2.258-2.5,2.975
		c-1.167,0.716-2.534,1.075-4.1,1.075c-1.667,0-3.175-0.333-4.525-1s-2.417-1.6-3.2-2.8c-0.784-1.2-1.175-2.533-1.175-4
		c0-1.8,0.458-3.216,1.375-4.25c0.917-1.033,2.392-1.783,4.425-2.25c2.033-0.466,4.816-0.7,8.35-0.7h1.3v-0.9
		c0-1.466-0.317-2.5-0.95-3.1c-0.633-0.6-1.733-0.9-3.3-0.9c-1.2,0-2.534,0.217-4,0.65c-1.467,0.434-2.867,1.034-4.2,1.8l-2-5.05
		c1.4-0.866,3.125-1.591,5.175-2.175c2.05-0.583,3.958-0.875,5.725-0.875C130.749,115.077,133.458,115.944,135.208,117.677z
		 M129.283,133.952c0.9-0.983,1.35-2.258,1.35-3.825v-0.85h-0.85c-2.7,0-4.592,0.217-5.675,0.65
		c-1.084,0.434-1.625,1.217-1.625,2.35c0,0.9,0.308,1.65,0.925,2.25c0.616,0.6,1.392,0.9,2.325,0.9
		C127.199,135.427,128.383,134.936,129.283,133.952z"/>
	<path d="M165.432,117.652c1.433,1.717,2.15,4.309,2.15,7.775v14.8h-7.55v-14.45c0-1.666-0.309-2.883-0.925-3.65
		c-0.617-0.766-1.575-1.15-2.875-1.15c-1.567,0-2.825,0.5-3.775,1.5s-1.425,2.333-1.425,4v13.75h-7.55v-24.55h7.35v3.5
		c0.866-1.333,1.991-2.35,3.375-3.05c1.383-0.7,2.941-1.05,4.675-1.05C161.815,115.077,163.999,115.936,165.432,117.652z"/>
	<path d="M189.231,134.927l-0.4,5.5c-0.967,0.133-1.934,0.2-2.9,0.2c-3.734,0-6.458-0.816-8.175-2.45
		c-1.717-1.633-2.575-4.117-2.575-7.45v-9.4h-4.65v-5.65h4.65v-7.2h7.55v7.2h6.15v5.65h-6.15v9.35c0,2.934,1.367,4.4,4.1,4.4
		C187.598,135.077,188.398,135.027,189.231,134.927z"/>
</g>
<g>
	<path d="M12.124,162.365h5.6v9.68h-0.84v-8.96h-4.76v8.96h-0.84v-8.96h-1.94v-0.72h1.94v-0.62c0-1.213,0.287-2.133,0.86-2.76
		c0.573-0.626,1.453-0.973,2.64-1.04l0.64-0.04l0.1,0.74l-0.92,0.06c-0.84,0.067-1.463,0.347-1.87,0.84
		c-0.407,0.494-0.61,1.227-0.61,2.2V162.365z M16.644,158.385h1.3v1.3h-1.3V158.385z"/>
	<path d="M25.784,162.885l-0.68,0.08c-1.094,0.107-1.89,0.463-2.39,1.07c-0.5,0.606-0.75,1.343-0.75,2.21v5.8h-0.84v-9.68h0.84v1.7
		c0.307-0.6,0.73-1.05,1.27-1.35c0.54-0.3,1.216-0.483,2.03-0.55l0.42-0.04L25.784,162.885z"/>
	<path d="M26.944,170.865l0.4-0.7c0.52,0.44,1.023,0.747,1.51,0.92s1.077,0.26,1.77,0.26c0.854,0,1.507-0.153,1.96-0.46
		c0.453-0.307,0.68-0.74,0.68-1.3c0-0.467-0.147-0.84-0.44-1.12c-0.293-0.28-0.767-0.5-1.42-0.66l-1.64-0.38
		c-0.76-0.173-1.363-0.49-1.81-0.95s-0.67-0.99-0.67-1.59c0-0.826,0.313-1.493,0.94-2c0.626-0.506,1.473-0.76,2.54-0.76
		c0.68,0,1.307,0.113,1.88,0.34c0.573,0.227,1.04,0.547,1.4,0.96l-0.4,0.72c-0.427-0.4-0.873-0.697-1.34-0.89
		c-0.467-0.193-0.98-0.29-1.54-0.29c-0.787,0-1.403,0.16-1.85,0.48c-0.447,0.32-0.67,0.76-0.67,1.32c0,0.493,0.137,0.883,0.41,1.17
		c0.273,0.287,0.703,0.503,1.29,0.65l1.66,0.4c1.72,0.4,2.58,1.247,2.58,2.54c0,0.8-0.327,1.443-0.98,1.93s-1.533,0.73-2.64,0.73
		C29.07,172.185,27.864,171.745,26.944,170.865z"/>
	<path d="M41.424,171.325l-0.04,0.78c-0.28,0.04-0.58,0.06-0.9,0.06c-1,0-1.77-0.29-2.31-0.87s-0.81-1.356-0.81-2.33v-5.88h-1.94
		v-0.72h1.94v-3.02h0.84v3.02h2.92v0.72h-2.92v5.7c0,0.853,0.2,1.5,0.6,1.94s0.993,0.66,1.78,0.66
		C40.891,171.385,41.171,171.365,41.424,171.325z"/>
	<path d="M61.484,165.805v6.24h-0.84v-6.16c0-1.026-0.187-1.776-0.56-2.25c-0.374-0.473-0.967-0.71-1.78-0.71
		c-0.933,0-1.677,0.313-2.23,0.94c-0.553,0.627-0.83,1.474-0.83,2.54v5.64h-0.84v-6.16c0-1.026-0.187-1.776-0.56-2.25
		c-0.374-0.473-0.967-0.71-1.78-0.71c-0.934,0-1.677,0.313-2.23,0.94c-0.554,0.627-0.83,1.474-0.83,2.54v5.64h-0.84v-9.68h0.82v1.7
		c0.267-0.626,0.663-1.106,1.19-1.44c0.526-0.333,1.15-0.5,1.87-0.5c1.546,0,2.54,0.647,2.98,1.94c0.28-0.6,0.71-1.073,1.29-1.42
		s1.236-0.52,1.97-0.52C60.417,162.125,61.484,163.352,61.484,165.805z"/>
	<path d="M66.244,171.565c-0.653-0.413-1.16-1-1.52-1.76c-0.36-0.76-0.54-1.646-0.54-2.66c0-1,0.18-1.88,0.54-2.64
		c0.36-0.76,0.867-1.347,1.52-1.76c0.653-0.413,1.406-0.62,2.26-0.62c0.853,0,1.607,0.207,2.26,0.62c0.653,0.413,1.16,1,1.52,1.76
		c0.36,0.76,0.54,1.64,0.54,2.64c0,1.013-0.18,1.9-0.54,2.66c-0.36,0.76-0.867,1.347-1.52,1.76c-0.653,0.414-1.407,0.62-2.26,0.62
		C67.65,172.185,66.896,171.979,66.244,171.565z M71.034,170.275c0.593-0.727,0.89-1.77,0.89-3.13c0-1.32-0.303-2.35-0.91-3.09
		c-0.607-0.74-1.443-1.11-2.51-1.11s-1.903,0.37-2.51,1.11c-0.607,0.74-0.91,1.77-0.91,3.09c0,1.36,0.296,2.403,0.89,3.13
		c0.593,0.727,1.43,1.09,2.51,1.09C69.59,171.365,70.44,171.002,71.034,170.275z"/>
	<path d="M83.064,162.365v9.68h-0.82v-1.82c-0.307,0.626-0.75,1.11-1.33,1.45c-0.58,0.34-1.237,0.51-1.97,0.51
		c-1.12,0-1.97-0.313-2.55-0.94c-0.58-0.627-0.87-1.547-0.87-2.76v-6.12h0.84v6.04c0,1.014,0.207,1.76,0.62,2.24
		c0.413,0.48,1.053,0.72,1.92,0.72c1,0,1.803-0.316,2.41-0.95c0.606-0.633,0.91-1.477,0.91-2.53v-5.52H83.064z"/>
	<path d="M94.164,165.805v6.24h-0.84v-6.16c0-1.026-0.207-1.776-0.62-2.25c-0.414-0.473-1.08-0.71-2-0.71
		c-1.027,0-1.85,0.317-2.47,0.95c-0.62,0.633-0.93,1.477-0.93,2.53v5.64h-0.84v-9.68h0.82v1.74c0.293-0.64,0.736-1.13,1.33-1.47
		c0.593-0.34,1.27-0.51,2.03-0.51C92.99,162.125,94.164,163.352,94.164,165.805z"/>
	<path d="M101.983,171.325l-0.04,0.78c-0.28,0.04-0.58,0.06-0.9,0.06c-1,0-1.77-0.29-2.31-0.87s-0.81-1.356-0.81-2.33v-5.88h-1.94
		v-0.72h1.94v-3.02h0.84v3.02h2.92v0.72h-2.92v5.7c0,0.853,0.2,1.5,0.6,1.94s0.993,0.66,1.78,0.66
		C101.45,171.385,101.73,171.365,101.983,171.325z"/>
	<path d="M110.863,165.705v6.34h-0.86v-1.78c-0.293,0.613-0.717,1.086-1.27,1.42s-1.183,0.5-1.89,0.5
		c-0.614,0-1.177-0.127-1.69-0.38c-0.513-0.253-0.92-0.603-1.22-1.05c-0.3-0.446-0.45-0.937-0.45-1.47c0-0.72,0.19-1.277,0.57-1.67
		c0.38-0.393,1.006-0.676,1.88-0.85c0.873-0.173,2.097-0.26,3.67-0.26h0.4v-0.84c0-0.947-0.187-1.637-0.56-2.07
		c-0.373-0.433-0.967-0.65-1.78-0.65c-0.627,0-1.204,0.083-1.73,0.25c-0.527,0.167-1.077,0.437-1.65,0.81l-0.4-0.72
		c0.493-0.36,1.063-0.644,1.71-0.85c0.646-0.207,1.296-0.31,1.95-0.31C109.757,162.125,110.863,163.318,110.863,165.705z
		 M108.463,170.915c0.48-0.287,0.857-0.683,1.13-1.19c0.273-0.507,0.41-1.08,0.41-1.72v-0.72h-0.38c-1.4,0-2.467,0.057-3.2,0.17
		s-1.247,0.307-1.54,0.58s-0.44,0.677-0.44,1.21c0,0.613,0.227,1.117,0.68,1.51c0.453,0.394,1.026,0.59,1.72,0.59
		C107.443,171.345,107.983,171.202,108.463,170.915z"/>
	<path d="M114.003,158.405h1.28v1.26h-1.28V158.405z M114.224,172.045v-9.68h0.84v9.68H114.224z"/>
	<path d="M126.163,165.805v6.24h-0.84v-6.16c0-1.026-0.207-1.776-0.62-2.25c-0.414-0.473-1.08-0.71-2-0.71
		c-1.027,0-1.85,0.317-2.47,0.95c-0.62,0.633-0.93,1.477-0.93,2.53v5.64h-0.84v-9.68h0.82v1.74c0.293-0.64,0.736-1.13,1.33-1.47
		c0.593-0.34,1.27-0.51,2.03-0.51C124.99,162.125,126.163,163.352,126.163,165.805z"/>
</g>
<g>
	<path d="M736.881,107.621v-14.1h0.82v14.1H736.881z"/>
	<path d="M753.941,101.38v6.24h-0.84v-6.16c0-1.026-0.207-1.776-0.62-2.25c-0.414-0.473-1.08-0.71-2-0.71
		c-1.027,0-1.85,0.317-2.47,0.95c-0.62,0.633-0.93,1.477-0.93,2.53v5.64h-0.84v-14.1h0.84v6.12c0.293-0.626,0.733-1.106,1.32-1.44
		c0.587-0.333,1.26-0.5,2.02-0.5C752.768,97.701,753.941,98.927,753.941,101.38z"/>
	<path d="M764.36,101.281v6.34h-0.86v-1.78c-0.293,0.613-0.717,1.086-1.27,1.42s-1.183,0.5-1.89,0.5c-0.614,0-1.177-0.127-1.69-0.38
		c-0.513-0.253-0.92-0.603-1.22-1.05c-0.3-0.446-0.45-0.937-0.45-1.47c0-0.72,0.19-1.277,0.57-1.67
		c0.38-0.393,1.006-0.676,1.88-0.85c0.873-0.173,2.097-0.26,3.67-0.26h0.4v-0.84c0-0.947-0.187-1.637-0.56-2.07
		c-0.373-0.433-0.967-0.65-1.78-0.65c-0.627,0-1.204,0.083-1.73,0.25c-0.527,0.167-1.077,0.437-1.65,0.81l-0.4-0.72
		c0.493-0.36,1.063-0.644,1.71-0.85c0.646-0.207,1.296-0.31,1.95-0.31C763.254,97.701,764.36,98.894,764.36,101.281z
		 M761.96,106.491c0.48-0.287,0.857-0.683,1.13-1.19c0.273-0.507,0.41-1.08,0.41-1.72v-0.72h-0.38c-1.4,0-2.467,0.057-3.2,0.17
		s-1.247,0.307-1.54,0.58s-0.44,0.677-0.44,1.21c0,0.613,0.227,1.117,0.68,1.51c0.453,0.394,1.026,0.59,1.72,0.59
		C760.94,106.92,761.48,106.777,761.96,106.491z"/>
	<path d="M775.621,93.521v14.1h-0.84v-1.96c-0.293,0.68-0.73,1.2-1.31,1.56c-0.58,0.36-1.277,0.54-2.09,0.54
		c-0.854,0-1.607-0.21-2.26-0.63c-0.653-0.42-1.16-1.013-1.52-1.78c-0.36-0.767-0.54-1.657-0.54-2.67c0-1,0.18-1.873,0.54-2.62
		c0.36-0.747,0.867-1.327,1.52-1.74c0.653-0.413,1.406-0.62,2.26-0.62c0.813,0,1.51,0.18,2.09,0.54c0.58,0.36,1.017,0.874,1.31,1.54
		v-6.26H775.621z M773.9,105.841c0.587-0.733,0.88-1.773,0.88-3.12c0-1.333-0.293-2.367-0.88-3.1c-0.587-0.733-1.42-1.1-2.5-1.1
		s-1.923,0.364-2.53,1.09c-0.607,0.727-0.91,1.75-0.91,3.07c0,1.333,0.303,2.377,0.91,3.13c0.606,0.753,1.443,1.13,2.51,1.13
		C772.474,106.94,773.313,106.574,773.9,105.841z"/>
	<path d="M791,101.281v6.34h-0.86v-1.78c-0.293,0.613-0.717,1.086-1.27,1.42s-1.183,0.5-1.89,0.5c-0.614,0-1.177-0.127-1.69-0.38
		c-0.513-0.253-0.92-0.603-1.22-1.05c-0.3-0.446-0.45-0.937-0.45-1.47c0-0.72,0.19-1.277,0.57-1.67
		c0.38-0.393,1.006-0.676,1.88-0.85c0.873-0.173,2.097-0.26,3.67-0.26h0.4v-0.84c0-0.947-0.187-1.637-0.56-2.07
		c-0.373-0.433-0.967-0.65-1.78-0.65c-0.627,0-1.204,0.083-1.73,0.25c-0.527,0.167-1.077,0.437-1.65,0.81l-0.4-0.72
		c0.493-0.36,1.063-0.644,1.71-0.85c0.646-0.207,1.296-0.31,1.95-0.31C789.894,97.701,791,98.894,791,101.281z M788.6,106.491
		c0.48-0.287,0.857-0.683,1.13-1.19c0.273-0.507,0.41-1.08,0.41-1.72v-0.72h-0.38c-1.4,0-2.467,0.057-3.2,0.17
		s-1.247,0.307-1.54,0.58s-0.44,0.677-0.44,1.21c0,0.613,0.227,1.117,0.68,1.51c0.453,0.394,1.026,0.59,1.72,0.59
		C787.58,106.92,788.12,106.777,788.6,106.491z"/>
	<path d="M807.26,97.94v9.22c0,1.387-0.327,2.433-0.98,3.14c-0.654,0.707-1.627,1.06-2.92,1.06c-1.613,0-2.98-0.46-4.1-1.38l0.4-0.7
		c0.667,0.48,1.267,0.81,1.8,0.99c0.533,0.18,1.173,0.27,1.92,0.27c1,0,1.76-0.277,2.28-0.83s0.78-1.363,0.78-2.43v-2.1
		c-0.28,0.693-0.717,1.223-1.31,1.59c-0.593,0.367-1.31,0.55-2.15,0.55c-0.854,0-1.61-0.2-2.27-0.6c-0.66-0.4-1.173-0.967-1.54-1.7
		c-0.367-0.733-0.55-1.573-0.55-2.52c0-0.946,0.183-1.783,0.55-2.51s0.88-1.29,1.54-1.69c0.66-0.4,1.417-0.6,2.27-0.6
		c0.827,0,1.533,0.18,2.12,0.54c0.586,0.36,1.026,0.874,1.32,1.54v-1.84H807.26z M805.51,105.431c0.606-0.713,0.91-1.69,0.91-2.93
		c0-1.24-0.303-2.213-0.91-2.92c-0.607-0.707-1.45-1.06-2.53-1.06c-1.067,0-1.91,0.354-2.53,1.06c-0.62,0.707-0.93,1.68-0.93,2.92
		c0,1.253,0.31,2.233,0.93,2.94c0.62,0.707,1.463,1.06,2.53,1.06C804.06,106.5,804.903,106.144,805.51,105.431z"/>
	<path d="M815.319,98.46l-0.68,0.08c-1.094,0.107-1.89,0.463-2.39,1.07c-0.5,0.606-0.75,1.343-0.75,2.21v5.8h-0.84v-9.68h0.84v1.7
		c0.307-0.6,0.73-1.05,1.27-1.35c0.54-0.3,1.216-0.483,2.03-0.55l0.42-0.04L815.319,98.46z"/>
	<path d="M824.759,102.861h-7.52c0.026,1.307,0.356,2.313,0.99,3.02c0.633,0.707,1.536,1.06,2.71,1.06c0.6,0,1.163-0.1,1.69-0.3
		c0.526-0.2,1.05-0.52,1.57-0.96l0.4,0.72c-0.413,0.414-0.947,0.744-1.6,0.99c-0.654,0.247-1.327,0.37-2.02,0.37
		c-1.44,0-2.577-0.447-3.41-1.34c-0.833-0.893-1.25-2.12-1.25-3.68c0-1,0.187-1.88,0.56-2.64c0.373-0.76,0.9-1.35,1.58-1.77
		c0.68-0.42,1.46-0.63,2.34-0.63c1.253,0,2.227,0.407,2.92,1.22c0.693,0.813,1.04,1.954,1.04,3.42V102.861z M818.349,99.431
		c-0.62,0.633-0.983,1.517-1.09,2.65h6.7c-0.027-1.16-0.313-2.05-0.86-2.67s-1.313-0.93-2.3-0.93
		C819.786,98.48,818.969,98.797,818.349,99.431z"/>
	<path d="M834.519,101.281v6.34h-0.86v-1.78c-0.293,0.613-0.717,1.086-1.27,1.42s-1.183,0.5-1.89,0.5
		c-0.614,0-1.177-0.127-1.69-0.38c-0.513-0.253-0.92-0.603-1.22-1.05c-0.3-0.446-0.45-0.937-0.45-1.47c0-0.72,0.19-1.277,0.57-1.67
		c0.38-0.393,1.006-0.676,1.88-0.85c0.873-0.173,2.097-0.26,3.67-0.26h0.4v-0.84c0-0.947-0.187-1.637-0.56-2.07
		c-0.373-0.433-0.967-0.65-1.78-0.65c-0.627,0-1.204,0.083-1.73,0.25c-0.527,0.167-1.077,0.437-1.65,0.81l-0.4-0.72
		c0.493-0.36,1.063-0.644,1.71-0.85c0.646-0.207,1.296-0.31,1.95-0.31C833.413,97.701,834.519,98.894,834.519,101.281z
		 M832.119,106.491c0.48-0.287,0.857-0.683,1.13-1.19c0.273-0.507,0.41-1.08,0.41-1.72v-0.72h-0.38c-1.4,0-2.467,0.057-3.2,0.17
		s-1.247,0.307-1.54,0.58s-0.44,0.677-0.44,1.21c0,0.613,0.227,1.117,0.68,1.51c0.453,0.394,1.026,0.59,1.72,0.59
		C831.099,106.92,831.639,106.777,832.119,106.491z"/>
	<path d="M842.339,106.9l-0.04,0.78c-0.28,0.04-0.58,0.06-0.9,0.06c-1,0-1.77-0.29-2.31-0.87s-0.81-1.356-0.81-2.33v-5.88h-1.94
		v-0.72h1.94v-3.02h0.84v3.02h2.92v0.72h-2.92v5.7c0,0.853,0.2,1.5,0.6,1.94s0.993,0.66,1.78,0.66
		C841.806,106.96,842.086,106.94,842.339,106.9z"/>
	<path d="M862.299,97.94h0.9l-3.44,9.68h-1l-3.06-8.64l-3.12,8.64h-1l-3.4-9.68h0.92l2.98,8.7l3.12-8.7h1.02l3.04,8.68
		L862.299,97.94z"/>
	<path d="M866.999,107.141c-0.653-0.413-1.16-1-1.52-1.76c-0.36-0.76-0.54-1.646-0.54-2.66c0-1,0.18-1.88,0.54-2.64
		c0.36-0.76,0.867-1.347,1.52-1.76c0.653-0.413,1.406-0.62,2.26-0.62c0.853,0,1.607,0.207,2.26,0.62c0.652,0.413,1.16,1,1.52,1.76
		c0.36,0.76,0.541,1.64,0.541,2.64c0,1.013-0.181,1.9-0.541,2.66c-0.359,0.76-0.867,1.347-1.52,1.76
		c-0.653,0.414-1.407,0.62-2.26,0.62C868.405,107.761,867.651,107.554,866.999,107.141z M871.788,105.851
		c0.594-0.727,0.891-1.77,0.891-3.13c0-1.32-0.304-2.35-0.91-3.09c-0.607-0.74-1.443-1.11-2.51-1.11s-1.903,0.37-2.51,1.11
		c-0.607,0.74-0.91,1.77-0.91,3.09c0,1.36,0.296,2.403,0.89,3.13c0.593,0.727,1.43,1.09,2.51,1.09
		C870.345,106.94,871.194,106.578,871.788,105.851z"/>
	<path d="M880.978,98.46l-0.68,0.08c-1.094,0.107-1.89,0.463-2.39,1.07c-0.5,0.606-0.75,1.343-0.75,2.21v5.8h-0.84v-9.68h0.84v1.7
		c0.307-0.6,0.729-1.05,1.271-1.35c0.539-0.3,1.216-0.483,2.029-0.55l0.42-0.04L880.978,98.46z"/>
	<path d="M890.519,107.621h-1.221l-5.619-4.78v4.78h-0.84v-14.1h0.84v8.94l5.06-4.52h1.18l-5.28,4.66L890.519,107.621z"/>
	<path d="M893.378,107.141c-0.652-0.413-1.16-1-1.52-1.76c-0.359-0.76-0.54-1.646-0.54-2.66c0-1,0.181-1.88,0.54-2.64
		c0.359-0.76,0.867-1.347,1.52-1.76c0.653-0.413,1.406-0.62,2.26-0.62s1.607,0.207,2.261,0.62s1.159,1,1.521,1.76
		c0.359,0.76,0.539,1.64,0.539,2.64c0,1.013-0.18,1.9-0.539,2.66c-0.361,0.76-0.867,1.347-1.521,1.76
		c-0.653,0.414-1.407,0.62-2.261,0.62S894.031,107.554,893.378,107.141z M898.169,105.851c0.592-0.727,0.889-1.77,0.889-3.13
		c0-1.32-0.303-2.35-0.909-3.09c-0.606-0.74-1.443-1.11-2.511-1.11c-1.066,0-1.902,0.37-2.51,1.11c-0.606,0.74-0.91,1.77-0.91,3.09
		c0,1.36,0.297,2.403,0.891,3.13c0.594,0.727,1.43,1.09,2.51,1.09C896.726,106.94,897.575,106.578,898.169,105.851z"/>
	<path d="M910.198,97.94v9.68h-0.82v-1.82c-0.307,0.626-0.75,1.11-1.33,1.45c-0.58,0.34-1.236,0.51-1.97,0.51
		c-1.12,0-1.97-0.313-2.55-0.94c-0.58-0.627-0.87-1.547-0.87-2.76v-6.12h0.84v6.04c0,1.014,0.206,1.76,0.62,2.24
		c0.413,0.48,1.053,0.72,1.92,0.72c1,0,1.803-0.316,2.41-0.95c0.606-0.633,0.91-1.477,0.91-2.53v-5.52H910.198z"/>
	<path d="M918.058,106.9l-0.039,0.78c-0.281,0.04-0.58,0.06-0.9,0.06c-1,0-1.77-0.29-2.311-0.87c-0.539-0.58-0.81-1.356-0.81-2.33
		v-5.88h-1.94v-0.72h1.94v-3.02h0.84v3.02h2.92v0.72h-2.92v5.7c0,0.853,0.2,1.5,0.601,1.94c0.399,0.44,0.992,0.66,1.779,0.66
		C917.524,106.96,917.805,106.94,918.058,106.9z"/>
	<path d="M929.258,106.9l-0.04,0.78c-0.28,0.04-0.58,0.06-0.9,0.06c-1,0-1.77-0.29-2.31-0.87s-0.81-1.356-0.81-2.33v-5.88h-1.94
		v-0.72h1.94v-3.02h0.84v3.02h2.92v0.72h-2.92v5.7c0,0.853,0.199,1.5,0.6,1.94s0.993,0.66,1.779,0.66
		C928.724,106.96,929.005,106.94,929.258,106.9z"/>
	<path d="M932.478,107.141c-0.653-0.413-1.16-1-1.52-1.76c-0.36-0.76-0.541-1.646-0.541-2.66c0-1,0.181-1.88,0.541-2.64
		c0.359-0.76,0.866-1.347,1.52-1.76c0.652-0.413,1.406-0.62,2.26-0.62s1.607,0.207,2.26,0.62c0.653,0.413,1.16,1,1.521,1.76
		c0.36,0.76,0.54,1.64,0.54,2.64c0,1.013-0.18,1.9-0.54,2.66c-0.36,0.76-0.867,1.347-1.521,1.76c-0.652,0.414-1.406,0.62-2.26,0.62
		S933.13,107.554,932.478,107.141z M937.268,105.851c0.593-0.727,0.89-1.77,0.89-3.13c0-1.32-0.303-2.35-0.91-3.09
		c-0.606-0.74-1.443-1.11-2.51-1.11s-1.903,0.37-2.51,1.11c-0.607,0.74-0.91,1.77-0.91,3.09c0,1.36,0.297,2.403,0.891,3.13
		c0.593,0.727,1.43,1.09,2.51,1.09C935.824,106.94,936.674,106.578,937.268,105.851z"/>
	<path d="M949.698,93.521v14.1h-0.841v-1.96c-0.293,0.68-0.729,1.2-1.31,1.56s-1.277,0.54-2.09,0.54c-0.854,0-1.607-0.21-2.26-0.63
		c-0.654-0.42-1.16-1.013-1.521-1.78c-0.36-0.767-0.54-1.657-0.54-2.67c0-1,0.18-1.873,0.54-2.62c0.36-0.747,0.866-1.327,1.521-1.74
		c0.652-0.413,1.406-0.62,2.26-0.62c0.813,0,1.51,0.18,2.09,0.54c0.58,0.36,1.017,0.874,1.31,1.54v-6.26H949.698z M947.978,105.841
		c0.587-0.733,0.88-1.773,0.88-3.12c0-1.333-0.293-2.367-0.88-3.1c-0.587-0.733-1.42-1.1-2.5-1.1s-1.924,0.364-2.529,1.09
		c-0.607,0.727-0.91,1.75-0.91,3.07c0,1.333,0.303,2.377,0.91,3.13c0.605,0.753,1.442,1.13,2.51,1.13
		C946.551,106.94,947.391,106.574,947.978,105.841z"/>
	<path d="M960.157,101.281v6.34h-0.859v-1.78c-0.294,0.613-0.717,1.086-1.271,1.42s-1.183,0.5-1.89,0.5
		c-0.613,0-1.178-0.127-1.69-0.38c-0.513-0.253-0.92-0.603-1.22-1.05c-0.301-0.446-0.45-0.937-0.45-1.47
		c0-0.72,0.19-1.277,0.57-1.67c0.38-0.393,1.007-0.676,1.88-0.85s2.097-0.26,3.67-0.26h0.4v-0.84c0-0.947-0.188-1.637-0.561-2.07
		c-0.373-0.433-0.967-0.65-1.779-0.65c-0.627,0-1.204,0.083-1.73,0.25c-0.527,0.167-1.077,0.437-1.65,0.81l-0.4-0.72
		c0.494-0.36,1.064-0.644,1.711-0.85s1.297-0.31,1.949-0.31C959.051,97.701,960.157,98.894,960.157,101.281z M957.757,106.491
		c0.48-0.287,0.857-0.683,1.131-1.19s0.41-1.08,0.41-1.72v-0.72h-0.381c-1.399,0-2.467,0.057-3.199,0.17
		c-0.734,0.113-1.247,0.307-1.541,0.58c-0.293,0.273-0.439,0.677-0.439,1.21c0,0.613,0.227,1.117,0.68,1.51
		c0.453,0.394,1.027,0.59,1.721,0.59C956.737,106.92,957.277,106.777,957.757,106.491z"/>
	<path d="M970.577,97.94h0.881l-5.681,13.28h-0.86l1.5-3.5l-4.16-9.78h0.9l3.7,8.94L970.577,97.94z"/>
	<path d="M972.638,106.221h1.379v1.4h-1.379V106.221z"/>
	<path d="M736.881,131.621v-14.1h0.82v14.1H736.881z"/>
	<path d="M745.781,130.9l-0.04,0.78c-0.28,0.04-0.58,0.06-0.9,0.06c-1,0-1.77-0.29-2.31-0.87s-0.81-1.356-0.81-2.33v-5.88h-1.94
		v-0.72h1.94v-3.02h0.84v3.02h2.92v0.72h-2.92v5.7c0,0.853,0.2,1.5,0.6,1.94s0.993,0.66,1.78,0.66
		C745.248,130.96,745.528,130.94,745.781,130.9z"/>
	<path d="M765.741,121.94h0.9l-3.44,9.68h-1l-3.06-8.64l-3.12,8.64h-1l-3.4-9.68h0.92l2.98,8.7l3.12-8.7h1.02l3.04,8.68
		L765.741,121.94z"/>
	<path d="M775.96,125.281v6.34h-0.86v-1.78c-0.293,0.613-0.717,1.086-1.27,1.42s-1.183,0.5-1.89,0.5c-0.614,0-1.177-0.127-1.69-0.38
		c-0.513-0.253-0.92-0.603-1.22-1.05c-0.3-0.446-0.45-0.937-0.45-1.47c0-0.72,0.19-1.277,0.57-1.67
		c0.38-0.393,1.006-0.676,1.88-0.85c0.873-0.173,2.097-0.26,3.67-0.26h0.4v-0.84c0-0.947-0.187-1.637-0.56-2.07
		c-0.373-0.433-0.967-0.65-1.78-0.65c-0.627,0-1.204,0.083-1.73,0.25c-0.527,0.167-1.077,0.437-1.65,0.81l-0.4-0.72
		c0.493-0.36,1.063-0.644,1.71-0.85c0.646-0.207,1.296-0.31,1.95-0.31C774.854,121.701,775.96,122.894,775.96,125.281z
		 M773.561,130.491c0.48-0.287,0.857-0.683,1.13-1.19c0.273-0.507,0.41-1.08,0.41-1.72v-0.72h-0.38c-1.4,0-2.467,0.057-3.2,0.17
		s-1.247,0.307-1.54,0.58s-0.44,0.677-0.44,1.21c0,0.613,0.227,1.117,0.68,1.51c0.453,0.394,1.026,0.59,1.72,0.59
		C772.541,130.92,773.081,130.777,773.561,130.491z"/>
	<path d="M778.721,130.44l0.4-0.7c0.52,0.44,1.023,0.747,1.51,0.92s1.077,0.26,1.77,0.26c0.854,0,1.507-0.153,1.96-0.46
		c0.453-0.307,0.68-0.74,0.68-1.3c0-0.467-0.147-0.84-0.44-1.12c-0.293-0.28-0.767-0.5-1.42-0.66l-1.64-0.38
		c-0.76-0.173-1.363-0.49-1.81-0.95s-0.67-0.99-0.67-1.59c0-0.826,0.313-1.493,0.94-2c0.626-0.506,1.473-0.76,2.54-0.76
		c0.68,0,1.307,0.113,1.88,0.34c0.573,0.227,1.04,0.547,1.4,0.96l-0.4,0.72c-0.427-0.4-0.873-0.697-1.34-0.89
		c-0.467-0.193-0.98-0.29-1.54-0.29c-0.787,0-1.403,0.16-1.85,0.48c-0.447,0.32-0.67,0.76-0.67,1.32c0,0.493,0.137,0.883,0.41,1.17
		c0.273,0.287,0.703,0.503,1.29,0.65l1.66,0.4c1.72,0.4,2.58,1.247,2.58,2.54c0,0.8-0.327,1.443-0.98,1.93s-1.533,0.73-2.64,0.73
		C780.847,131.761,779.641,131.321,778.721,130.44z"/>
	<path d="M796.541,125.38v6.24h-0.84v-6.16c0-1.026-0.207-1.776-0.62-2.25c-0.414-0.473-1.08-0.71-2-0.71
		c-1.027,0-1.85,0.317-2.47,0.95c-0.62,0.633-0.93,1.477-0.93,2.53v5.64h-0.84v-9.68h0.82v1.74c0.293-0.64,0.736-1.13,1.33-1.47
		c0.593-0.34,1.27-0.51,2.03-0.51C795.367,121.701,796.541,122.927,796.541,125.38z"/>
	<path d="M800.581,117.521v1.1c0,0.454-0.067,0.867-0.2,1.24c-0.133,0.373-0.36,0.713-0.68,1.02l-0.52-0.4
		c0.253-0.28,0.423-0.54,0.51-0.78c0.086-0.24,0.136-0.5,0.15-0.78h-0.64v-1.4H800.581z"/>
	<path d="M808.161,130.9l-0.04,0.78c-0.28,0.04-0.58,0.06-0.9,0.06c-1,0-1.77-0.29-2.31-0.87s-0.81-1.356-0.81-2.33v-5.88h-1.94
		v-0.72h1.94v-3.02h0.84v3.02h2.92v0.72h-2.92v5.7c0,0.853,0.2,1.5,0.6,1.94s0.993,0.66,1.78,0.66
		C807.627,130.96,807.907,130.94,808.161,130.9z"/>
	<path d="M819.36,130.9l-0.04,0.78c-0.28,0.04-0.58,0.06-0.9,0.06c-1,0-1.77-0.29-2.31-0.87s-0.81-1.356-0.81-2.33v-5.88h-1.94
		v-0.72h1.94v-3.02h0.84v3.02h2.92v0.72h-2.92v5.7c0,0.853,0.2,1.5,0.6,1.94s0.993,0.66,1.78,0.66
		C818.827,130.96,819.107,130.94,819.36,130.9z"/>
	<path d="M828.88,125.38v6.24h-0.84v-6.16c0-1.026-0.207-1.776-0.62-2.25c-0.414-0.473-1.08-0.71-2-0.71
		c-1.027,0-1.85,0.317-2.47,0.95c-0.62,0.633-0.93,1.477-0.93,2.53v5.64h-0.84v-14.1h0.84v6.12c0.293-0.626,0.733-1.106,1.32-1.44
		c0.587-0.333,1.26-0.5,2.02-0.5C827.707,121.701,828.88,122.927,828.88,125.38z"/>
	<path d="M840.02,126.861h-7.52c0.026,1.307,0.356,2.313,0.99,3.02c0.633,0.707,1.536,1.06,2.71,1.06c0.6,0,1.163-0.1,1.69-0.3
		c0.526-0.2,1.05-0.52,1.57-0.96l0.4,0.72c-0.413,0.414-0.947,0.744-1.6,0.99c-0.654,0.247-1.327,0.37-2.02,0.37
		c-1.44,0-2.577-0.447-3.41-1.34c-0.833-0.893-1.25-2.12-1.25-3.68c0-1,0.187-1.88,0.56-2.64c0.373-0.76,0.9-1.35,1.58-1.77
		c0.68-0.42,1.46-0.63,2.34-0.63c1.253,0,2.227,0.407,2.92,1.22c0.693,0.813,1.04,1.954,1.04,3.42V126.861z M833.61,123.431
		c-0.62,0.633-0.983,1.517-1.09,2.65h6.7c-0.027-1.16-0.313-2.05-0.86-2.67s-1.313-0.93-2.3-0.93
		C835.046,122.48,834.23,122.797,833.61,123.431z"/>
	<path d="M854.14,122.321c0.653,0.413,1.16,0.993,1.52,1.74c0.36,0.747,0.54,1.62,0.54,2.62c0,1.013-0.18,1.903-0.54,2.67
		c-0.36,0.767-0.867,1.36-1.52,1.78c-0.654,0.42-1.407,0.63-2.26,0.63c-0.813,0-1.51-0.18-2.09-0.54s-1.017-0.88-1.31-1.56v1.96
		h-0.84v-14.1h0.84v6.26c0.293-0.667,0.73-1.18,1.31-1.54c0.58-0.36,1.276-0.54,2.09-0.54
		C852.732,121.701,853.486,121.908,854.14,122.321z M854.379,129.821c0.6-0.747,0.9-1.793,0.9-3.14c0-1.32-0.3-2.343-0.9-3.07
		s-1.44-1.09-2.52-1.09s-1.914,0.367-2.5,1.1c-0.587,0.733-0.88,1.767-0.88,3.1c0,1.347,0.293,2.387,0.88,3.12
		c0.586,0.733,1.427,1.1,2.52,1.1C852.946,130.94,853.779,130.567,854.379,129.821z"/>
	<path d="M866.719,126.861h-7.52c0.026,1.307,0.356,2.313,0.99,3.02c0.633,0.707,1.536,1.06,2.71,1.06c0.6,0,1.163-0.1,1.69-0.3
		c0.526-0.2,1.05-0.52,1.57-0.96l0.4,0.72c-0.413,0.414-0.947,0.744-1.6,0.99c-0.654,0.247-1.327,0.37-2.02,0.37
		c-1.44,0-2.577-0.447-3.41-1.34c-0.833-0.893-1.25-2.12-1.25-3.68c0-1,0.187-1.88,0.56-2.64c0.373-0.76,0.9-1.35,1.58-1.77
		c0.68-0.42,1.46-0.63,2.34-0.63c1.253,0,2.227,0.407,2.92,1.22c0.693,0.813,1.04,1.954,1.04,3.42V126.861z M860.309,123.431
		c-0.62,0.633-0.983,1.517-1.09,2.65h6.7c-0.027-1.16-0.313-2.05-0.86-2.67s-1.313-0.93-2.3-0.93
		C861.746,122.48,860.929,122.797,860.309,123.431z"/>
	<path d="M868.819,130.44l0.4-0.7c0.521,0.44,1.022,0.747,1.51,0.92s1.077,0.26,1.771,0.26c0.854,0,1.506-0.153,1.96-0.46
		c0.453-0.307,0.68-0.74,0.68-1.3c0-0.467-0.147-0.84-0.44-1.12c-0.293-0.28-0.767-0.5-1.42-0.66l-1.64-0.38
		c-0.76-0.173-1.363-0.49-1.81-0.95c-0.447-0.46-0.67-0.99-0.67-1.59c0-0.826,0.313-1.493,0.94-2c0.627-0.506,1.473-0.76,2.54-0.76
		c0.681,0,1.307,0.113,1.88,0.34c0.573,0.227,1.04,0.547,1.4,0.96l-0.4,0.72c-0.427-0.4-0.873-0.697-1.34-0.89
		c-0.467-0.193-0.98-0.29-1.54-0.29c-0.786,0-1.403,0.16-1.851,0.48c-0.446,0.32-0.67,0.76-0.67,1.32c0,0.493,0.137,0.883,0.41,1.17
		s0.703,0.503,1.291,0.65l1.659,0.4c1.72,0.4,2.58,1.247,2.58,2.54c0,0.8-0.327,1.443-0.979,1.93
		c-0.654,0.487-1.533,0.73-2.641,0.73C870.945,131.761,869.739,131.321,868.819,130.44z"/>
	<path d="M883.3,130.9l-0.041,0.78c-0.279,0.04-0.58,0.06-0.899,0.06c-1,0-1.771-0.29-2.31-0.87c-0.541-0.58-0.811-1.356-0.811-2.33
		v-5.88H877.3v-0.72h1.939v-3.02h0.84v3.02h2.92v0.72h-2.92v5.7c0,0.853,0.2,1.5,0.6,1.94c0.4,0.44,0.994,0.66,1.78,0.66
		C882.766,130.96,883.046,130.94,883.3,130.9z"/>
	<path d="M896.539,122.321c0.653,0.413,1.159,0.993,1.521,1.74c0.359,0.747,0.539,1.62,0.539,2.62c0,1.013-0.18,1.903-0.539,2.67
		c-0.361,0.767-0.867,1.36-1.521,1.78c-0.653,0.42-1.407,0.63-2.261,0.63c-0.813,0-1.51-0.18-2.09-0.54s-1.017-0.88-1.31-1.56v1.96
		h-0.84v-14.1h0.84v6.26c0.293-0.667,0.729-1.18,1.31-1.54c0.58-0.36,1.277-0.54,2.09-0.54
		C895.132,121.701,895.886,121.908,896.539,122.321z M896.778,129.821c0.601-0.747,0.9-1.793,0.9-3.14c0-1.32-0.3-2.343-0.9-3.07
		c-0.6-0.727-1.439-1.09-2.52-1.09s-1.914,0.367-2.5,1.1c-0.587,0.733-0.88,1.767-0.88,3.1c0,1.347,0.293,2.387,0.88,3.12
		c0.586,0.733,1.427,1.1,2.52,1.1C895.345,130.94,896.179,130.567,896.778,129.821z"/>
	<path d="M908.839,121.94v9.68h-0.82v-1.82c-0.307,0.626-0.75,1.11-1.33,1.45c-0.58,0.34-1.236,0.51-1.97,0.51
		c-1.12,0-1.97-0.313-2.55-0.94c-0.58-0.627-0.87-1.547-0.87-2.76v-6.12h0.84v6.04c0,1.014,0.206,1.76,0.62,2.24
		c0.413,0.48,1.053,0.72,1.92,0.72c1,0,1.803-0.316,2.41-0.95c0.606-0.633,0.91-1.477,0.91-2.53v-5.52H908.839z"/>
	<path d="M916.698,130.9l-0.039,0.78c-0.281,0.04-0.58,0.06-0.9,0.06c-1,0-1.77-0.29-2.311-0.87c-0.539-0.58-0.81-1.356-0.81-2.33
		v-5.88h-1.94v-0.72h1.94v-3.02h0.84v3.02h2.92v0.72h-2.92v5.7c0,0.853,0.2,1.5,0.601,1.94c0.399,0.44,0.992,0.66,1.779,0.66
		C916.165,130.96,916.445,130.94,916.698,130.9z"/>
	<path d="M923.658,131.621v-14.1h0.82v14.1H923.658z"/>
	<path d="M940.077,125.281v6.34h-0.859v-1.78c-0.294,0.613-0.717,1.086-1.271,1.42s-1.183,0.5-1.89,0.5
		c-0.613,0-1.178-0.127-1.69-0.38c-0.513-0.253-0.92-0.603-1.22-1.05c-0.301-0.446-0.45-0.937-0.45-1.47
		c0-0.72,0.19-1.277,0.57-1.67c0.38-0.393,1.007-0.676,1.88-0.85s2.097-0.26,3.67-0.26h0.4v-0.84c0-0.947-0.188-1.637-0.561-2.07
		c-0.373-0.433-0.967-0.65-1.779-0.65c-0.627,0-1.204,0.083-1.73,0.25c-0.527,0.167-1.077,0.437-1.65,0.81l-0.4-0.72
		c0.494-0.36,1.064-0.644,1.711-0.85s1.297-0.31,1.949-0.31C938.971,121.701,940.077,122.894,940.077,125.281z M937.677,130.491
		c0.48-0.287,0.857-0.683,1.131-1.19s0.41-1.08,0.41-1.72v-0.72h-0.381c-1.399,0-2.467,0.057-3.199,0.17
		c-0.734,0.113-1.247,0.307-1.541,0.58c-0.293,0.273-0.439,0.677-0.439,1.21c0,0.613,0.227,1.117,0.68,1.51
		c0.453,0.394,1.027,0.59,1.721,0.59C936.657,130.92,937.197,130.777,937.677,130.491z"/>
	<path d="M956.757,125.38v6.24h-0.84v-6.16c0-1.026-0.187-1.776-0.56-2.25c-0.374-0.473-0.967-0.71-1.78-0.71
		c-0.934,0-1.677,0.313-2.23,0.94c-0.553,0.627-0.83,1.474-0.83,2.54v5.64h-0.84v-6.16c0-1.026-0.187-1.776-0.56-2.25
		c-0.374-0.473-0.967-0.71-1.78-0.71c-0.934,0-1.676,0.313-2.229,0.94c-0.554,0.627-0.83,1.474-0.83,2.54v5.64h-0.84v-9.68h0.819
		v1.7c0.268-0.626,0.664-1.106,1.19-1.44c0.526-0.333,1.149-0.5,1.87-0.5c1.547,0,2.54,0.647,2.98,1.94
		c0.279-0.6,0.709-1.073,1.289-1.42s1.236-0.52,1.971-0.52C955.69,121.701,956.757,122.927,956.757,125.38z"/>
	<path d="M743.162,146.331c0.653,0.42,1.16,1.01,1.52,1.77c0.36,0.76,0.54,1.647,0.54,2.66c0,1-0.18,1.877-0.54,2.63
		c-0.36,0.753-0.867,1.337-1.52,1.75c-0.654,0.414-1.407,0.62-2.26,0.62c-0.813,0-1.51-0.18-2.09-0.54s-1.017-0.88-1.31-1.56v5.56
		h-0.84v-13.28h0.84v1.82c0.293-0.667,0.73-1.177,1.31-1.53c0.58-0.353,1.276-0.53,2.09-0.53
		C741.754,145.701,742.508,145.911,743.162,146.331z M743.401,153.851c0.6-0.727,0.9-1.756,0.9-3.09s-0.3-2.373-0.9-3.12
		c-0.6-0.747-1.434-1.12-2.5-1.12c-1.093,0-1.934,0.364-2.52,1.09c-0.587,0.727-0.88,1.763-0.88,3.11s0.293,2.387,0.88,3.12
		c0.586,0.733,1.42,1.1,2.5,1.1S742.801,154.578,743.401,153.851z"/>
	<path d="M752.621,146.46l-0.68,0.08c-1.094,0.107-1.89,0.463-2.39,1.07c-0.5,0.606-0.75,1.343-0.75,2.21v5.8h-0.84v-9.68h0.84v1.7
		c0.307-0.6,0.73-1.05,1.27-1.35c0.54-0.3,1.216-0.483,2.03-0.55l0.42-0.04L752.621,146.46z"/>
	<path d="M762.061,150.861h-7.52c0.026,1.307,0.356,2.313,0.99,3.02c0.633,0.707,1.536,1.06,2.71,1.06c0.6,0,1.163-0.1,1.69-0.3
		c0.526-0.2,1.05-0.52,1.57-0.96l0.4,0.72c-0.413,0.414-0.947,0.744-1.6,0.99c-0.654,0.247-1.327,0.37-2.02,0.37
		c-1.44,0-2.577-0.447-3.41-1.34c-0.833-0.893-1.25-2.12-1.25-3.68c0-1,0.187-1.88,0.56-2.64c0.373-0.76,0.9-1.35,1.58-1.77
		c0.68-0.42,1.46-0.63,2.34-0.63c1.253,0,2.227,0.407,2.92,1.22c0.693,0.813,1.04,1.954,1.04,3.42V150.861z M755.651,147.431
		c-0.62,0.633-0.983,1.517-1.09,2.65h6.7c-0.027-1.16-0.313-2.05-0.86-2.67s-1.313-0.93-2.3-0.93
		C757.087,146.48,756.271,146.797,755.651,147.431z"/>
	<path d="M769.241,154.9l-0.04,0.78c-0.28,0.04-0.58,0.06-0.9,0.06c-1,0-1.77-0.29-2.31-0.87s-0.81-1.356-0.81-2.33v-5.88h-1.94
		v-0.72h1.94v-3.02h0.84v3.02h2.92v0.72h-2.92v5.7c0,0.853,0.2,1.5,0.6,1.94s0.993,0.66,1.78,0.66
		C768.707,154.96,768.987,154.94,769.241,154.9z"/>
	<path d="M775.78,154.9l-0.04,0.78c-0.28,0.04-0.58,0.06-0.9,0.06c-1,0-1.77-0.29-2.31-0.87s-0.81-1.356-0.81-2.33v-5.88h-1.94
		v-0.72h1.94v-3.02h0.84v3.02h2.92v0.72h-2.92v5.7c0,0.853,0.2,1.5,0.6,1.94s0.993,0.66,1.78,0.66
		C775.247,154.96,775.527,154.94,775.78,154.9z"/>
	<path d="M784.74,145.94h0.88l-5.68,13.28h-0.86l1.5-3.5l-4.16-9.78h0.9l3.7,8.94L784.74,145.94z"/>
	<path d="M799.18,146.331c0.653,0.42,1.16,1.01,1.52,1.77c0.36,0.76,0.54,1.647,0.54,2.66c0,1-0.18,1.877-0.54,2.63
		c-0.36,0.753-0.867,1.337-1.52,1.75c-0.654,0.414-1.407,0.62-2.26,0.62c-0.813,0-1.51-0.18-2.09-0.54s-1.017-0.88-1.31-1.56v5.56
		h-0.84v-13.28h0.84v1.82c0.293-0.667,0.73-1.177,1.31-1.53c0.58-0.353,1.276-0.53,2.09-0.53
		C797.773,145.701,798.526,145.911,799.18,146.331z M799.42,153.851c0.6-0.727,0.9-1.756,0.9-3.09s-0.3-2.373-0.9-3.12
		c-0.6-0.747-1.434-1.12-2.5-1.12c-1.093,0-1.934,0.364-2.52,1.09c-0.587,0.727-0.88,1.763-0.88,3.11s0.293,2.387,0.88,3.12
		c0.586,0.733,1.42,1.1,2.5,1.1S798.82,154.578,799.42,153.851z"/>
	<path d="M808.639,146.46l-0.68,0.08c-1.094,0.107-1.89,0.463-2.39,1.07c-0.5,0.606-0.75,1.343-0.75,2.21v5.8h-0.84v-9.68h0.84v1.7
		c0.307-0.6,0.73-1.05,1.27-1.35c0.54-0.3,1.216-0.483,2.03-0.55l0.42-0.04L808.639,146.46z"/>
	<path d="M811.7,155.141c-0.653-0.413-1.16-1-1.52-1.76c-0.36-0.76-0.54-1.646-0.54-2.66c0-1,0.18-1.88,0.54-2.64
		c0.36-0.76,0.867-1.347,1.52-1.76c0.653-0.413,1.406-0.62,2.26-0.62c0.853,0,1.607,0.207,2.26,0.62c0.653,0.413,1.16,1,1.52,1.76
		c0.36,0.76,0.54,1.64,0.54,2.64c0,1.013-0.18,1.9-0.54,2.66c-0.36,0.76-0.867,1.347-1.52,1.76c-0.653,0.414-1.407,0.62-2.26,0.62
		C813.106,155.761,812.353,155.554,811.7,155.141z M816.49,153.851c0.593-0.727,0.89-1.77,0.89-3.13c0-1.32-0.303-2.35-0.91-3.09
		c-0.607-0.74-1.443-1.11-2.51-1.11s-1.903,0.37-2.51,1.11c-0.607,0.74-0.91,1.77-0.91,3.09c0,1.36,0.296,2.403,0.89,3.13
		c0.593,0.727,1.43,1.09,2.51,1.09C815.046,154.94,815.896,154.578,816.49,153.851z"/>
	<path d="M828.52,145.94v9.68h-0.82v-1.82c-0.307,0.626-0.75,1.11-1.33,1.45c-0.58,0.34-1.237,0.51-1.97,0.51
		c-1.12,0-1.97-0.313-2.55-0.94c-0.58-0.627-0.87-1.547-0.87-2.76v-6.12h0.84v6.04c0,1.014,0.207,1.76,0.62,2.24
		c0.413,0.48,1.053,0.72,1.92,0.72c1,0,1.803-0.316,2.41-0.95c0.606-0.633,0.91-1.477,0.91-2.53v-5.52H828.52z"/>
	<path d="M839.819,141.521v14.1h-0.84v-1.96c-0.293,0.68-0.73,1.2-1.31,1.56c-0.58,0.36-1.277,0.54-2.09,0.54
		c-0.854,0-1.607-0.21-2.26-0.63c-0.653-0.42-1.16-1.013-1.52-1.78c-0.36-0.767-0.54-1.657-0.54-2.67c0-1,0.18-1.873,0.54-2.62
		c0.36-0.747,0.867-1.327,1.52-1.74c0.653-0.413,1.406-0.62,2.26-0.62c0.813,0,1.51,0.18,2.09,0.54c0.58,0.36,1.017,0.874,1.31,1.54
		v-6.26H839.819z M838.099,153.841c0.587-0.733,0.88-1.773,0.88-3.12c0-1.333-0.293-2.367-0.88-3.1c-0.587-0.733-1.42-1.1-2.5-1.1
		s-1.923,0.364-2.53,1.09c-0.607,0.727-0.91,1.75-0.91,3.07c0,1.333,0.303,2.377,0.91,3.13c0.606,0.753,1.443,1.13,2.51,1.13
		C836.672,154.94,837.512,154.574,838.099,153.841z"/>
	<path d="M855.199,149.281v6.34h-0.86v-1.78c-0.293,0.613-0.717,1.086-1.27,1.42s-1.183,0.5-1.89,0.5
		c-0.614,0-1.177-0.127-1.69-0.38c-0.513-0.253-0.92-0.603-1.22-1.05c-0.3-0.446-0.45-0.937-0.45-1.47c0-0.72,0.19-1.277,0.57-1.67
		c0.38-0.393,1.006-0.676,1.88-0.85c0.873-0.173,2.097-0.26,3.67-0.26h0.4v-0.84c0-0.947-0.187-1.637-0.56-2.07
		c-0.373-0.433-0.967-0.65-1.78-0.65c-0.627,0-1.204,0.083-1.73,0.25c-0.527,0.167-1.077,0.437-1.65,0.81l-0.4-0.72
		c0.493-0.36,1.063-0.644,1.71-0.85c0.646-0.207,1.296-0.31,1.95-0.31C854.092,145.701,855.199,146.894,855.199,149.281z
		 M852.799,154.491c0.48-0.287,0.857-0.683,1.13-1.19c0.273-0.507,0.41-1.08,0.41-1.72v-0.72h-0.38c-1.4,0-2.467,0.057-3.2,0.17
		s-1.247,0.307-1.54,0.58s-0.44,0.677-0.44,1.21c0,0.613,0.227,1.117,0.68,1.51c0.453,0.394,1.026,0.59,1.72,0.59
		C851.779,154.92,852.319,154.777,852.799,154.491z"/>
	<path d="M866.259,149.38v6.24h-0.84v-6.16c0-1.026-0.207-1.776-0.62-2.25c-0.414-0.473-1.08-0.71-2-0.71
		c-1.027,0-1.85,0.317-2.47,0.95c-0.62,0.633-0.93,1.477-0.93,2.53v5.64h-0.84v-9.68h0.82v1.74c0.293-0.64,0.736-1.13,1.33-1.47
		c0.593-0.34,1.27-0.51,2.03-0.51C865.085,145.701,866.259,146.927,866.259,149.38z"/>
	<path d="M877.519,141.521v14.1h-0.84v-1.96c-0.293,0.68-0.73,1.2-1.311,1.56s-1.276,0.54-2.09,0.54c-0.854,0-1.607-0.21-2.26-0.63
		c-0.653-0.42-1.16-1.013-1.52-1.78c-0.36-0.767-0.541-1.657-0.541-2.67c0-1,0.18-1.873,0.541-2.62
		c0.359-0.747,0.866-1.327,1.52-1.74c0.652-0.413,1.406-0.62,2.26-0.62c0.813,0,1.51,0.18,2.09,0.54
		c0.58,0.36,1.018,0.874,1.311,1.54v-6.26H877.519z M875.798,153.841c0.588-0.733,0.881-1.773,0.881-3.12
		c0-1.333-0.293-2.367-0.881-3.1c-0.586-0.733-1.42-1.1-2.5-1.1s-1.923,0.364-2.529,1.09c-0.607,0.727-0.91,1.75-0.91,3.07
		c0,1.333,0.303,2.377,0.91,3.13c0.606,0.753,1.443,1.13,2.51,1.13C874.372,154.94,875.212,154.574,875.798,153.841z"/>
	<path d="M887.278,155.141c-0.667-0.413-1.184-1-1.551-1.76c-0.366-0.76-0.549-1.633-0.549-2.62c0-1,0.183-1.883,0.549-2.65
		c0.367-0.767,0.887-1.36,1.561-1.78s1.457-0.63,2.35-0.63c0.654,0,1.273,0.117,1.86,0.35s1.067,0.55,1.44,0.95l-0.4,0.72
		c-0.507-0.427-0.986-0.737-1.439-0.93c-0.454-0.193-0.934-0.29-1.44-0.29c-1.106,0-1.979,0.38-2.62,1.14
		c-0.641,0.76-0.96,1.807-0.96,3.14c0,1.307,0.316,2.327,0.95,3.06c0.633,0.733,1.503,1.1,2.609,1.1c0.507,0,0.99-0.093,1.451-0.28
		c0.459-0.187,0.942-0.493,1.449-0.92l0.4,0.7c-0.387,0.414-0.881,0.737-1.48,0.97c-0.6,0.233-1.213,0.35-1.84,0.35
		C888.725,155.761,887.944,155.554,887.278,155.141z"/>
	<path d="M903.018,150.861h-7.521c0.027,1.307,0.357,2.313,0.99,3.02c0.633,0.707,1.537,1.06,2.711,1.06c0.6,0,1.162-0.1,1.689-0.3
		c0.526-0.2,1.05-0.52,1.57-0.96l0.399,0.72c-0.413,0.414-0.946,0.744-1.6,0.99s-1.327,0.37-2.021,0.37
		c-1.439,0-2.576-0.447-3.41-1.34c-0.833-0.893-1.25-2.12-1.25-3.68c0-1,0.188-1.88,0.561-2.64c0.373-0.76,0.9-1.35,1.58-1.77
		s1.46-0.63,2.34-0.63c1.253,0,2.227,0.407,2.92,1.22c0.693,0.813,1.04,1.954,1.04,3.42V150.861z M896.607,147.431
		c-0.62,0.633-0.983,1.517-1.09,2.65h6.7c-0.027-1.16-0.313-2.05-0.86-2.67s-1.313-0.93-2.3-0.93
		C898.044,146.48,897.228,146.797,896.607,147.431z"/>
	<path d="M905.718,155.621v-14.1h0.84v14.1H905.718z"/>
	<path d="M917.737,150.861h-7.52c0.025,1.307,0.355,2.313,0.99,3.02c0.633,0.707,1.535,1.06,2.709,1.06c0.6,0,1.164-0.1,1.69-0.3
		s1.05-0.52,1.569-0.96l0.4,0.72c-0.413,0.414-0.947,0.744-1.6,0.99c-0.654,0.247-1.327,0.37-2.02,0.37
		c-1.441,0-2.578-0.447-3.41-1.34c-0.834-0.893-1.25-2.12-1.25-3.68c0-1,0.186-1.88,0.56-2.64c0.373-0.76,0.899-1.35,1.58-1.77
		c0.68-0.42,1.46-0.63,2.34-0.63c1.253,0,2.227,0.407,2.92,1.22c0.693,0.813,1.04,1.954,1.04,3.42V150.861z M911.327,147.431
		c-0.619,0.633-0.983,1.517-1.09,2.65h6.7c-0.026-1.16-0.313-2.05-0.86-2.67s-1.313-0.93-2.3-0.93
		C912.764,146.48,911.947,146.797,911.327,147.431z"/>
	<path d="M926.938,146.321c0.653,0.413,1.159,0.993,1.521,1.74c0.359,0.747,0.539,1.62,0.539,2.62c0,1.013-0.18,1.903-0.539,2.67
		c-0.361,0.767-0.867,1.36-1.521,1.78c-0.653,0.42-1.407,0.63-2.261,0.63c-0.813,0-1.51-0.18-2.09-0.54s-1.017-0.88-1.31-1.56v1.96
		h-0.84v-14.1h0.84v6.26c0.293-0.667,0.729-1.18,1.31-1.54c0.58-0.36,1.277-0.54,2.09-0.54
		C925.53,145.701,926.284,145.908,926.938,146.321z M927.177,153.821c0.601-0.747,0.9-1.793,0.9-3.14c0-1.32-0.3-2.343-0.9-3.07
		c-0.6-0.727-1.439-1.09-2.52-1.09s-1.914,0.367-2.5,1.1c-0.587,0.733-0.88,1.767-0.88,3.1c0,1.347,0.293,2.387,0.88,3.12
		c0.586,0.733,1.427,1.1,2.52,1.1C925.743,154.94,926.577,154.567,927.177,153.821z"/>
	<path d="M936.396,146.46l-0.68,0.08c-1.094,0.107-1.89,0.463-2.39,1.07c-0.5,0.606-0.75,1.343-0.75,2.21v5.8h-0.84v-9.68h0.84v1.7
		c0.307-0.6,0.729-1.05,1.27-1.35c0.54-0.3,1.217-0.483,2.029-0.55l0.42-0.04L936.396,146.46z"/>
	<path d="M945.196,149.281v6.34h-0.859v-1.78c-0.294,0.613-0.717,1.086-1.271,1.42s-1.183,0.5-1.89,0.5
		c-0.613,0-1.178-0.127-1.69-0.38c-0.513-0.253-0.92-0.603-1.22-1.05c-0.301-0.446-0.45-0.937-0.45-1.47
		c0-0.72,0.19-1.277,0.57-1.67c0.38-0.393,1.007-0.676,1.88-0.85s2.097-0.26,3.67-0.26h0.4v-0.84c0-0.947-0.188-1.637-0.561-2.07
		c-0.373-0.433-0.967-0.65-1.779-0.65c-0.627,0-1.204,0.083-1.73,0.25c-0.527,0.167-1.077,0.437-1.65,0.81l-0.4-0.72
		c0.494-0.36,1.064-0.644,1.711-0.85s1.297-0.31,1.949-0.31C944.09,145.701,945.196,146.894,945.196,149.281z M942.796,154.491
		c0.48-0.287,0.857-0.683,1.131-1.19s0.41-1.08,0.41-1.72v-0.72h-0.381c-1.399,0-2.467,0.057-3.199,0.17
		c-0.734,0.113-1.247,0.307-1.541,0.58c-0.293,0.273-0.439,0.677-0.439,1.21c0,0.613,0.227,1.117,0.68,1.51
		c0.453,0.394,1.027,0.59,1.721,0.59C941.776,154.92,942.316,154.777,942.796,154.491z"/>
	<path d="M953.017,154.9l-0.04,0.78c-0.28,0.04-0.58,0.06-0.899,0.06c-1,0-1.771-0.29-2.311-0.87s-0.811-1.356-0.811-2.33v-5.88
		h-1.939v-0.72h1.939v-3.02h0.84v3.02h2.92v0.72h-2.92v5.7c0,0.853,0.201,1.5,0.601,1.94s0.993,0.66,1.78,0.66
		C952.483,154.96,952.763,154.94,953.017,154.9z"/>
	<path d="M956.237,155.141c-0.654-0.413-1.16-1-1.521-1.76c-0.36-0.76-0.54-1.646-0.54-2.66c0-1,0.18-1.88,0.54-2.64
		c0.36-0.76,0.866-1.347,1.521-1.76c0.652-0.413,1.406-0.62,2.26-0.62c0.853,0,1.606,0.207,2.26,0.62c0.652,0.413,1.16,1,1.52,1.76
		c0.36,0.76,0.541,1.64,0.541,2.64c0,1.013-0.181,1.9-0.541,2.66c-0.359,0.76-0.867,1.347-1.52,1.76
		c-0.653,0.414-1.407,0.62-2.26,0.62C957.644,155.761,956.89,155.554,956.237,155.141z M961.026,153.851
		c0.594-0.727,0.891-1.77,0.891-3.13c0-1.32-0.304-2.35-0.91-3.09c-0.607-0.74-1.443-1.11-2.51-1.11c-1.067,0-1.904,0.37-2.51,1.11
		c-0.607,0.74-0.91,1.77-0.91,3.09c0,1.36,0.296,2.403,0.89,3.13c0.593,0.727,1.43,1.09,2.51,1.09
		C959.583,154.94,960.433,154.578,961.026,153.851z"/>
	<path d="M970.216,146.46l-0.68,0.08c-1.094,0.107-1.89,0.463-2.39,1.07c-0.5,0.606-0.75,1.343-0.75,2.21v5.8h-0.84v-9.68h0.84v1.7
		c0.307-0.6,0.729-1.05,1.271-1.35c0.539-0.3,1.216-0.483,2.029-0.55l0.42-0.04L970.216,146.46z"/>
	<path d="M979.735,145.94h0.881l-5.68,13.28h-0.86l1.5-3.5l-4.16-9.78h0.899l3.701,8.94L979.735,145.94z"/>
	<path d="M738.062,179.141c-0.653-0.413-1.16-1-1.52-1.76c-0.36-0.76-0.54-1.646-0.54-2.66c0-1,0.18-1.88,0.54-2.64
		c0.36-0.76,0.867-1.347,1.52-1.76c0.653-0.413,1.406-0.62,2.26-0.62c0.853,0,1.607,0.207,2.26,0.62c0.653,0.413,1.16,1,1.52,1.76
		c0.36,0.76,0.54,1.64,0.54,2.64c0,1.013-0.18,1.9-0.54,2.66c-0.36,0.76-0.867,1.347-1.52,1.76c-0.653,0.414-1.407,0.62-2.26,0.62
		C739.468,179.761,738.714,179.554,738.062,179.141z M742.852,177.851c0.593-0.727,0.89-1.77,0.89-3.13c0-1.32-0.303-2.35-0.91-3.09
		c-0.607-0.74-1.443-1.11-2.51-1.11s-1.903,0.37-2.51,1.11c-0.607,0.74-0.91,1.77-0.91,3.09c0,1.36,0.296,2.403,0.89,3.13
		c0.593,0.727,1.43,1.09,2.51,1.09C741.408,178.94,742.258,178.578,742.852,177.851z"/>
	<path d="M748.641,169.94h2.92v0.72h-2.92v8.96h-0.84v-8.96h-1.94v-0.72h1.94v-0.62c0-1.213,0.29-2.133,0.87-2.76
		c0.58-0.626,1.457-0.973,2.63-1.04l0.62-0.04l0.1,0.74l-0.92,0.06c-0.84,0.053-1.46,0.333-1.86,0.84c-0.4,0.507-0.6,1.24-0.6,2.2
		V169.94z"/>
	<path d="M766.061,173.38v6.24h-0.84v-6.16c0-1.026-0.207-1.776-0.62-2.25c-0.414-0.473-1.08-0.71-2-0.71
		c-1.027,0-1.85,0.317-2.47,0.95c-0.62,0.633-0.93,1.477-0.93,2.53v5.64h-0.84v-14.1h0.84v6.12c0.293-0.626,0.733-1.106,1.32-1.44
		c0.587-0.333,1.26-0.5,2.02-0.5C764.887,169.701,766.061,170.927,766.061,173.38z"/>
	<path d="M770.821,179.141c-0.653-0.413-1.16-1-1.52-1.76c-0.36-0.76-0.54-1.646-0.54-2.66c0-1,0.18-1.88,0.54-2.64
		c0.36-0.76,0.867-1.347,1.52-1.76c0.653-0.413,1.406-0.62,2.26-0.62c0.853,0,1.607,0.207,2.26,0.62c0.653,0.413,1.16,1,1.52,1.76
		c0.36,0.76,0.54,1.64,0.54,2.64c0,1.013-0.18,1.9-0.54,2.66c-0.36,0.76-0.867,1.347-1.52,1.76c-0.653,0.414-1.407,0.62-2.26,0.62
		C772.227,179.761,771.474,179.554,770.821,179.141z M775.611,177.851c0.593-0.727,0.89-1.77,0.89-3.13c0-1.32-0.303-2.35-0.91-3.09
		c-0.607-0.74-1.443-1.11-2.51-1.11s-1.903,0.37-2.51,1.11c-0.607,0.74-0.91,1.77-0.91,3.09c0,1.36,0.296,2.403,0.89,3.13
		c0.593,0.727,1.43,1.09,2.51,1.09C774.167,178.94,775.017,178.578,775.611,177.851z"/>
	<path d="M793.28,169.94h0.9l-3.44,9.68h-1l-3.06-8.64l-3.12,8.64h-1l-3.4-9.68h0.92l2.98,8.7l3.12-8.7h1.02l3.04,8.68
		L793.28,169.94z"/>
	<path d="M801.8,179.621v-14.1h0.82v14.1H801.8z"/>
	<path d="M819.06,165.521v14.1h-0.84v-1.96c-0.293,0.68-0.73,1.2-1.31,1.56c-0.58,0.36-1.277,0.54-2.09,0.54
		c-0.854,0-1.607-0.21-2.26-0.63c-0.653-0.42-1.16-1.013-1.52-1.78c-0.36-0.767-0.54-1.657-0.54-2.67c0-1,0.18-1.873,0.54-2.62
		c0.36-0.747,0.867-1.327,1.52-1.74c0.653-0.413,1.406-0.62,2.26-0.62c0.813,0,1.51,0.18,2.09,0.54c0.58,0.36,1.017,0.874,1.31,1.54
		v-6.26H819.06z M817.339,177.841c0.587-0.733,0.88-1.773,0.88-3.12c0-1.333-0.293-2.367-0.88-3.1c-0.587-0.733-1.42-1.1-2.5-1.1
		s-1.923,0.364-2.53,1.09c-0.607,0.727-0.91,1.75-0.91,3.07c0,1.333,0.303,2.377,0.91,3.13c0.606,0.753,1.443,1.13,2.51,1.13
		C815.913,178.94,816.752,178.574,817.339,177.841z"/>
	<path d="M822.239,165.98h1.28v1.26h-1.28V165.98z M822.459,179.621v-9.68h0.84v9.68H822.459z"/>
	<path d="M834.599,165.521v14.1h-0.84v-1.96c-0.293,0.68-0.73,1.2-1.31,1.56c-0.58,0.36-1.277,0.54-2.09,0.54
		c-0.854,0-1.607-0.21-2.26-0.63c-0.653-0.42-1.16-1.013-1.52-1.78c-0.36-0.767-0.54-1.657-0.54-2.67c0-1,0.18-1.873,0.54-2.62
		c0.36-0.747,0.867-1.327,1.52-1.74c0.653-0.413,1.406-0.62,2.26-0.62c0.813,0,1.51,0.18,2.09,0.54c0.58,0.36,1.017,0.874,1.31,1.54
		v-6.26H834.599z M832.879,177.841c0.587-0.733,0.88-1.773,0.88-3.12c0-1.333-0.293-2.367-0.88-3.1c-0.587-0.733-1.42-1.1-2.5-1.1
		s-1.923,0.364-2.53,1.09c-0.607,0.727-0.91,1.75-0.91,3.07c0,1.333,0.303,2.377,0.91,3.13c0.606,0.753,1.443,1.13,2.51,1.13
		C831.452,178.94,832.292,178.574,832.879,177.841z"/>
	<path d="M837.719,178.221h1.38v1.4h-1.38V178.221z"/>
</g>
<g>
	<path d="M1115.026,106.861h3.14v0.76h-7.101v-0.76h3.141v-12.12l-2.54,1.68l-0.521-0.7l3.061-2.06v-0.02l0.2-0.12h0.62V106.861z"/>
	<path d="M1122.646,105.951c-0.813-1.22-1.219-3.01-1.219-5.37c0-2.373,0.402-4.17,1.209-5.39c0.807-1.22,1.99-1.83,3.551-1.83
		c1.56,0,2.742,0.606,3.549,1.82s1.211,3.007,1.211,5.38c0,2.36-0.407,4.153-1.221,5.38c-0.813,1.227-1.993,1.84-3.539,1.84
		C1124.64,107.781,1123.459,107.17,1122.646,105.951z M1129.097,105.38c0.633-1.04,0.949-2.646,0.949-4.82
		c0-2.187-0.313-3.796-0.939-4.83c-0.627-1.033-1.601-1.55-2.92-1.55c-1.307,0-2.277,0.52-2.91,1.56
		c-0.634,1.04-0.95,2.647-0.95,4.82c0,2.16,0.316,3.764,0.95,4.81c0.633,1.047,1.604,1.57,2.91,1.57
		S1128.462,106.42,1129.097,105.38z"/>
	<path d="M1132.626,108.781l-0.82-0.3l5.061-15.78l0.819,0.3L1132.626,108.781z"/>
	<path d="M1144.146,106.861h3.141v0.76h-7.101v-0.76h3.14v-12.12l-2.539,1.68l-0.521-0.7l3.06-2.06v-0.02l0.201-0.12h0.619V106.861z
		"/>
	<path d="M1156.146,106.861h3.141v0.76h-7.101v-0.76h3.14v-12.12l-2.539,1.68l-0.521-0.7l3.06-2.06v-0.02l0.201-0.12h0.619V106.861z
		"/>
	<path d="M1161.745,108.781l-0.82-0.3l5.061-15.78l0.82,0.3L1161.745,108.781z"/>
	<path d="M1173.265,106.861h3.141v0.76h-7.1v-0.76h3.14v-12.12l-2.54,1.68l-0.52-0.7l3.06-2.06v-0.02l0.2-0.12h0.619V106.861z"/>
	<path d="M1179.985,93.521h8.859v0.62l-6.779,13.48h-0.9l6.72-13.34h-7.899V93.521z"/>
	<path d="M1196.864,102.701v-0.76h5.28v0.76H1196.864z"/>
	<path d="M1217.954,95.121c0.887,1.173,1.33,2.847,1.33,5.02c0,2.414-0.453,4.29-1.36,5.63c-0.907,1.34-2.18,2.01-3.819,2.01
		c-0.787,0-1.551-0.16-2.291-0.48c-0.739-0.32-1.41-0.78-2.01-1.38l0.42-0.7c0.68,0.613,1.33,1.06,1.95,1.34
		c0.62,0.28,1.271,0.42,1.95,0.42c1.347,0,2.4-0.603,3.16-1.81c0.76-1.207,1.14-2.89,1.14-5.05v-0.76
		c-0.294,0.88-0.817,1.573-1.569,2.08c-0.754,0.507-1.624,0.76-2.61,0.76c-0.88,0-1.657-0.183-2.33-0.55
		c-0.673-0.366-1.196-0.883-1.57-1.55c-0.373-0.667-0.56-1.44-0.56-2.32c0-0.84,0.187-1.597,0.56-2.27
		c0.374-0.673,0.894-1.2,1.56-1.58c0.667-0.38,1.421-0.57,2.261-0.57C1215.804,93.361,1217.067,93.947,1217.954,95.121z
		 M1216.124,100.94c0.561-0.306,0.996-0.733,1.311-1.28c0.313-0.546,0.469-1.167,0.469-1.86c0-1.093-0.34-1.973-1.02-2.64
		c-0.68-0.667-1.573-1-2.68-1c-1.066,0-1.92,0.333-2.561,1c-0.64,0.667-0.959,1.547-0.959,2.64c0,1.08,0.322,1.95,0.969,2.61
		c0.647,0.66,1.504,0.99,2.57,0.99C1214.931,101.4,1215.563,101.248,1216.124,100.94z"/>
	<path d="M1222.004,97.94h1.38v1.4h-1.38V97.94z M1222.004,106.221h1.38v1.4h-1.38V106.221z"/>
	<path d="M1234.474,100.141c0.78,0.813,1.17,1.887,1.17,3.22c0,0.853-0.18,1.613-0.54,2.28c-0.36,0.667-0.873,1.187-1.54,1.56
		c-0.666,0.374-1.447,0.56-2.34,0.56c-0.826,0-1.644-0.163-2.449-0.49c-0.808-0.327-1.504-0.783-2.091-1.37l0.42-0.7
		c1.294,1.173,2.667,1.76,4.12,1.76c1.08,0,1.937-0.33,2.57-0.99c0.633-0.66,0.949-1.537,0.949-2.63c0-1.067-0.31-1.933-0.93-2.6
		c-0.619-0.667-1.437-1-2.449-1c-0.801,0-1.487,0.16-2.061,0.48c-0.573,0.32-1.073,0.827-1.5,1.52h-0.76v-8.22h8.1v0.78h-7.279v6.2
		c0.387-0.506,0.876-0.896,1.469-1.17c0.594-0.273,1.244-0.41,1.951-0.41C1232.63,98.92,1233.694,99.328,1234.474,100.141z"/>
	<path d="M1239.283,105.951c-0.813-1.22-1.22-3.01-1.22-5.37c0-2.373,0.402-4.17,1.21-5.39c0.806-1.22,1.989-1.83,3.55-1.83
		s2.743,0.606,3.55,1.82s1.21,3.007,1.21,5.38c0,2.36-0.406,4.153-1.22,5.38c-0.813,1.227-1.993,1.84-3.54,1.84
		S1240.097,107.17,1239.283,105.951z M1245.733,105.38c0.633-1.04,0.949-2.646,0.949-4.82c0-2.187-0.313-3.796-0.939-4.83
		c-0.627-1.033-1.6-1.55-2.92-1.55c-1.307,0-2.277,0.52-2.91,1.56s-0.949,2.647-0.949,4.82c0,2.16,0.316,3.764,0.949,4.81
		c0.633,1.047,1.604,1.57,2.91,1.57S1245.1,106.42,1245.733,105.38z"/>
	<path d="M1261.544,107.621l-1.681-3.9h-7.819l-1.681,3.9h-0.86l6.061-14.1h0.8l6.06,14.1H1261.544z M1252.384,102.92h7.14
		l-3.56-8.32L1252.384,102.92z"/>
	<path d="M1277.243,93.521h0.74v14.1h-0.82l0.02-12.34l-5.32,10.14h-0.68l-5.359-10.06l0.02,12.26h-0.82v-14.1h0.721l5.779,11.1
		L1277.243,93.521z"/>
</g>
<g>
	<path d="M1122.546,173.315h2.939l-3.98,9.82h-2.56l-2.159-5.54l-2.101,5.54h-2.54l-4-9.82h3.08l2.32,6.22l2.32-6.22h2.039
		l2.34,6.28L1122.546,173.315z"/>
	<path d="M1135.245,178.795h-6.399c0.093,0.787,0.351,1.357,0.771,1.71c0.42,0.354,1.016,0.53,1.789,0.53
		c0.507,0,1.01-0.083,1.51-0.25c0.5-0.167,0.957-0.403,1.371-0.71l0.799,2.02c-0.479,0.374-1.063,0.667-1.75,0.88
		c-0.686,0.213-1.377,0.32-2.069,0.32c-1.653,0-2.957-0.457-3.91-1.37c-0.953-0.913-1.43-2.157-1.43-3.73c0-1,0.206-1.887,0.62-2.66
		c0.412-0.773,0.986-1.376,1.72-1.81c0.733-0.433,1.566-0.65,2.5-0.65c1.373,0,2.463,0.447,3.271,1.34
		c0.807,0.894,1.209,2.107,1.209,3.64V178.795z M1129.476,175.705c-0.34,0.367-0.55,0.897-0.63,1.59h3.86
		c-0.041-0.707-0.217-1.24-0.53-1.6s-0.757-0.54-1.33-0.54S1129.815,175.339,1129.476,175.705z"/>
	<path d="M1144.675,174.115c0.701,0.693,1.051,1.767,1.051,3.22v5.8h-2.86v-1.46c-0.2,0.507-0.533,0.903-1,1.19
		s-1.013,0.43-1.64,0.43c-0.667,0-1.271-0.134-1.811-0.4c-0.539-0.266-0.967-0.64-1.279-1.12c-0.314-0.48-0.471-1.013-0.471-1.6
		c0-0.72,0.184-1.287,0.551-1.7c0.366-0.413,0.956-0.713,1.77-0.9c0.813-0.187,1.926-0.28,3.34-0.28h0.52v-0.36
		c0-0.586-0.127-1-0.379-1.24c-0.254-0.24-0.693-0.36-1.32-0.36c-0.48,0-1.014,0.087-1.6,0.26c-0.588,0.173-1.147,0.414-1.681,0.72
		l-0.8-2.02c0.561-0.347,1.25-0.637,2.07-0.87c0.819-0.233,1.582-0.35,2.289-0.35
		C1142.892,173.075,1143.976,173.422,1144.675,174.115z M1142.306,180.625c0.359-0.394,0.539-0.903,0.539-1.53v-0.34h-0.34
		c-1.08,0-1.836,0.087-2.27,0.26c-0.434,0.173-0.65,0.487-0.65,0.94c0,0.36,0.123,0.66,0.37,0.9c0.247,0.24,0.557,0.36,0.931,0.36
		C1141.472,181.215,1141.945,181.019,1142.306,180.625z"/>
	<path d="M1154.386,181.015l-0.16,2.2c-0.387,0.053-0.773,0.08-1.16,0.08c-1.494,0-2.584-0.327-3.27-0.98
		c-0.688-0.653-1.031-1.647-1.031-2.98v-3.76h-1.859v-2.26h1.859v-2.88h3.021v2.88h2.46v2.26h-2.46v3.74
		c0,1.173,0.546,1.76,1.64,1.76C1153.731,181.075,1154.052,181.055,1154.386,181.015z"/>
	<path d="M1164.505,174.105c0.573,0.687,0.859,1.723,0.859,3.11v5.92h-3.02v-5.78c0-0.667-0.123-1.153-0.369-1.46
		c-0.248-0.306-0.631-0.46-1.15-0.46c-0.627,0-1.131,0.2-1.51,0.6c-0.381,0.4-0.57,0.934-0.57,1.6v5.5h-3.02v-14.1h3.02v5.58
		c0.346-0.506,0.79-0.89,1.33-1.15c0.539-0.26,1.143-0.39,1.81-0.39C1163.058,173.075,1163.932,173.418,1164.505,174.105z"/>
	<path d="M1176.465,178.795h-6.399c0.093,0.787,0.35,1.357,0.77,1.71c0.42,0.354,1.017,0.53,1.79,0.53c0.507,0,1.01-0.083,1.51-0.25
		c0.5-0.167,0.956-0.403,1.37-0.71l0.8,2.02c-0.479,0.374-1.063,0.667-1.75,0.88c-0.687,0.213-1.377,0.32-2.069,0.32
		c-1.654,0-2.957-0.457-3.91-1.37c-0.953-0.913-1.43-2.157-1.43-3.73c0-1,0.206-1.887,0.619-2.66
		c0.413-0.773,0.986-1.376,1.721-1.81c0.732-0.433,1.566-0.65,2.5-0.65c1.373,0,2.463,0.447,3.27,1.34
		c0.807,0.894,1.21,2.107,1.21,3.64V178.795z M1170.694,175.705c-0.34,0.367-0.549,0.897-0.629,1.59h3.859
		c-0.04-0.707-0.217-1.24-0.529-1.6c-0.314-0.36-0.758-0.54-1.33-0.54C1171.491,175.155,1171.034,175.339,1170.694,175.705z"/>
	<path d="M1185.305,175.555l-1.7,0.18c-0.84,0.08-1.434,0.317-1.779,0.71c-0.348,0.394-0.521,0.917-0.521,1.57v5.12h-3.021v-9.82
		h2.9v1.66c0.493-1.133,1.514-1.753,3.061-1.86l0.879-0.06L1185.305,175.555z"/>
</g>
<g>
	<path d="M1110.106,223.621v-14.1h0.82v13.34h7.5v0.76H1110.106z"/>
	<path d="M1120.207,209.98h1.28v1.26h-1.28V209.98z M1120.427,223.621v-9.68h0.84v9.68H1120.427z"/>
	<path d="M1132.647,213.94v9.22c0,1.387-0.328,2.433-0.98,3.14c-0.654,0.707-1.627,1.06-2.92,1.06c-1.613,0-2.98-0.46-4.1-1.38
		l0.399-0.7c0.667,0.48,1.267,0.81,1.8,0.99c0.533,0.18,1.174,0.27,1.92,0.27c1,0,1.76-0.277,2.28-0.83s0.78-1.363,0.78-2.43v-2.1
		c-0.28,0.693-0.717,1.223-1.311,1.59c-0.594,0.367-1.31,0.55-2.15,0.55c-0.854,0-1.609-0.2-2.27-0.6s-1.174-0.967-1.54-1.7
		c-0.366-0.733-0.55-1.573-0.55-2.52c0-0.946,0.184-1.783,0.55-2.51s0.88-1.29,1.54-1.69c0.66-0.4,1.416-0.6,2.27-0.6
		c0.827,0,1.533,0.18,2.121,0.54c0.586,0.36,1.025,0.874,1.319,1.54v-1.84H1132.647z M1130.897,221.431
		c0.605-0.713,0.909-1.69,0.909-2.93c0-1.24-0.304-2.213-0.909-2.92c-0.607-0.707-1.451-1.06-2.531-1.06
		c-1.066,0-1.909,0.354-2.529,1.06c-0.62,0.707-0.93,1.68-0.93,2.92c0,1.253,0.31,2.233,0.93,2.94c0.62,0.707,1.463,1.06,2.529,1.06
		C1129.446,222.5,1130.29,222.144,1130.897,221.431z"/>
	<path d="M1143.746,217.38v6.24h-0.84v-6.16c0-1.026-0.207-1.776-0.62-2.25c-0.414-0.473-1.08-0.71-2-0.71
		c-1.027,0-1.85,0.317-2.47,0.95s-0.931,1.477-0.931,2.53v5.64h-0.84v-14.1h0.84v6.12c0.293-0.626,0.733-1.106,1.32-1.44
		c0.587-0.333,1.26-0.5,2.02-0.5C1142.573,213.701,1143.746,214.927,1143.746,217.38z"/>
	<path d="M1151.566,222.9l-0.04,0.78c-0.28,0.04-0.58,0.06-0.9,0.06c-1,0-1.77-0.29-2.31-0.87s-0.81-1.356-0.81-2.33v-5.88h-1.94
		v-0.72h1.94v-3.02h0.84v3.02h2.92v0.72h-2.92v5.7c0,0.853,0.199,1.5,0.6,1.94s0.993,0.66,1.779,0.66
		C1151.032,222.96,1151.313,222.94,1151.566,222.9z"/>
	<path d="M1159.866,223.321c-0.827-0.307-1.574-0.787-2.24-1.44l0.42-0.7c0.707,0.653,1.413,1.113,2.12,1.38
		c0.706,0.267,1.573,0.4,2.601,0.4c1.266,0,2.246-0.263,2.939-0.79c0.693-0.526,1.04-1.276,1.04-2.25c0-0.56-0.173-1.013-0.521-1.36
		c-0.347-0.347-0.773-0.61-1.279-0.79c-0.508-0.18-1.188-0.37-2.041-0.57c-1.146-0.28-2.029-0.53-2.649-0.75
		c-0.62-0.22-1.173-0.586-1.659-1.1c-0.488-0.513-0.73-1.21-0.73-2.09c0-0.787,0.196-1.473,0.59-2.06
		c0.393-0.586,0.96-1.04,1.699-1.36c0.74-0.32,1.604-0.48,2.591-0.48c1.933,0,3.513,0.633,4.739,1.9l-0.42,0.7
		c-0.666-0.626-1.343-1.08-2.029-1.36c-0.688-0.28-1.45-0.42-2.29-0.42c-1.267,0-2.253,0.273-2.96,0.82
		c-0.707,0.547-1.061,1.313-1.061,2.3c0,0.853,0.307,1.483,0.92,1.89c0.613,0.407,1.474,0.75,2.58,1.03l0.86,0.2
		c0.96,0.214,1.74,0.43,2.34,0.65c0.601,0.22,1.11,0.563,1.53,1.03c0.42,0.467,0.63,1.093,0.63,1.88c0,0.747-0.2,1.407-0.601,1.98
		c-0.399,0.574-0.963,1.02-1.689,1.34c-0.727,0.32-1.57,0.48-2.529,0.48C1161.659,223.781,1160.692,223.627,1159.866,223.321z"/>
	<path d="M1177.966,217.38v6.24h-0.84v-6.16c0-1.026-0.207-1.776-0.62-2.25c-0.413-0.473-1.08-0.71-2-0.71
		c-1.026,0-1.851,0.317-2.47,0.95c-0.62,0.633-0.93,1.477-0.93,2.53v5.64h-0.84v-9.68h0.819v1.74c0.293-0.64,0.736-1.13,1.33-1.47
		c0.593-0.34,1.271-0.51,2.03-0.51C1176.792,213.701,1177.966,214.927,1177.966,217.38z"/>
	<path d="M1182.726,223.141c-0.653-0.413-1.16-1-1.52-1.76c-0.36-0.76-0.541-1.646-0.541-2.66c0-1,0.181-1.88,0.541-2.64
		c0.359-0.76,0.866-1.347,1.52-1.76c0.652-0.413,1.406-0.62,2.26-0.62s1.607,0.207,2.26,0.62c0.653,0.413,1.16,1,1.521,1.76
		c0.36,0.76,0.54,1.64,0.54,2.64c0,1.013-0.18,1.9-0.54,2.66c-0.36,0.76-0.867,1.347-1.521,1.76c-0.652,0.414-1.406,0.62-2.26,0.62
		S1183.378,223.554,1182.726,223.141z M1187.516,221.851c0.593-0.727,0.89-1.77,0.89-3.13c0-1.32-0.303-2.35-0.91-3.09
		c-0.606-0.74-1.443-1.11-2.51-1.11s-1.903,0.37-2.51,1.11c-0.607,0.74-0.91,1.77-0.91,3.09c0,1.36,0.297,2.403,0.891,3.13
		c0.593,0.727,1.43,1.09,2.51,1.09C1186.072,222.94,1186.922,222.578,1187.516,221.851z"/>
	<path d="M1205.186,213.94h0.899l-3.439,9.68h-1l-3.061-8.64l-3.119,8.64h-1l-3.4-9.68h0.92l2.98,8.7l3.119-8.7h1.021l3.04,8.68
		L1205.186,213.94z"/>
</g>
<g>
	<path d="M1396.973,100.141c0.78,0.813,1.17,1.887,1.17,3.22c0,0.853-0.18,1.613-0.54,2.28c-0.359,0.667-0.873,1.187-1.539,1.56
		c-0.668,0.374-1.447,0.56-2.341,0.56c-0.827,0-1.644-0.163-2.45-0.49c-0.807-0.327-1.503-0.783-2.09-1.37l0.42-0.7
		c1.293,1.173,2.667,1.76,4.12,1.76c1.08,0,1.937-0.33,2.57-0.99c0.633-0.66,0.95-1.537,0.95-2.63c0-1.067-0.311-1.933-0.93-2.6
		c-0.621-0.667-1.438-1-2.451-1c-0.799,0-1.486,0.16-2.06,0.48c-0.573,0.32-1.073,0.827-1.5,1.52h-0.76v-8.22h8.1v0.78h-7.28v6.2
		c0.387-0.506,0.877-0.896,1.471-1.17c0.593-0.273,1.242-0.41,1.949-0.41C1395.13,98.92,1396.192,99.328,1396.973,100.141z"/>
	<path d="M1409.963,106.861v0.76h-8.74v-0.64l5.08-5.72c0.761-0.867,1.307-1.63,1.64-2.29c0.334-0.66,0.5-1.33,0.5-2.01
		c0-0.893-0.26-1.583-0.779-2.07c-0.521-0.487-1.254-0.73-2.2-0.73c-0.747,0-1.457,0.144-2.13,0.43
		c-0.674,0.287-1.344,0.73-2.01,1.33l-0.42-0.7c0.56-0.56,1.25-1.01,2.069-1.35c0.82-0.34,1.637-0.51,2.45-0.51
		c1.199,0,2.146,0.32,2.84,0.96c0.693,0.64,1.04,1.513,1.04,2.62c0,0.813-0.19,1.61-0.569,2.39c-0.381,0.78-1.004,1.65-1.871,2.61
		l-4.459,4.92H1409.963z"/>
	<path d="M1421.962,106.861v0.76h-8.74v-0.64l5.08-5.72c0.761-0.867,1.307-1.63,1.641-2.29c0.333-0.66,0.5-1.33,0.5-2.01
		c0-0.893-0.26-1.583-0.78-2.07s-1.253-0.73-2.2-0.73c-0.746,0-1.457,0.144-2.13,0.43s-1.343,0.73-2.01,1.33l-0.42-0.7
		c0.56-0.56,1.25-1.01,2.069-1.35c0.82-0.34,1.637-0.51,2.451-0.51c1.199,0,2.146,0.32,2.84,0.96c0.693,0.64,1.039,1.513,1.039,2.62
		c0,0.813-0.189,1.61-0.569,2.39c-0.38,0.78-1.003,1.65-1.87,2.61l-4.46,4.92H1421.962z"/>
	<path d="M1425.782,105.951c-0.813-1.22-1.22-3.01-1.22-5.37c0-2.373,0.403-4.17,1.21-5.39c0.807-1.22,1.99-1.83,3.55-1.83
		s2.743,0.606,3.55,1.82s1.21,3.007,1.21,5.38c0,2.36-0.407,4.153-1.22,5.38c-0.813,1.227-1.994,1.84-3.54,1.84
		C1427.775,107.781,1426.595,107.17,1425.782,105.951z M1432.232,105.38c0.633-1.04,0.95-2.646,0.95-4.82
		c0-2.187-0.314-3.796-0.94-4.83c-0.627-1.033-1.601-1.55-2.92-1.55c-1.307,0-2.276,0.52-2.91,1.56s-0.95,2.647-0.95,4.82
		c0,2.16,0.316,3.764,0.95,4.81c0.634,1.047,1.604,1.57,2.91,1.57S1431.599,106.42,1432.232,105.38z"/>
	<path d="M1441.942,107.621v-14.1h0.84v14.1H1441.942z"/>
	<path d="M1452.682,98.321c0.653,0.413,1.159,0.993,1.521,1.74c0.359,0.747,0.539,1.62,0.539,2.62c0,1.013-0.18,1.903-0.539,2.67
		c-0.361,0.767-0.867,1.36-1.521,1.78c-0.653,0.42-1.407,0.63-2.261,0.63c-0.813,0-1.51-0.18-2.09-0.54s-1.017-0.88-1.31-1.56v1.96
		h-0.84v-14.1h0.84v6.26c0.293-0.667,0.729-1.18,1.31-1.54c0.58-0.36,1.277-0.54,2.09-0.54
		C1451.274,97.701,1452.028,97.908,1452.682,98.321z M1452.921,105.821c0.601-0.747,0.9-1.793,0.9-3.14c0-1.32-0.3-2.343-0.9-3.07
		c-0.6-0.727-1.439-1.09-2.52-1.09s-1.914,0.367-2.5,1.1c-0.587,0.733-0.88,1.767-0.88,3.1c0,1.347,0.293,2.387,0.88,3.12
		c0.586,0.733,1.427,1.1,2.52,1.1C1451.487,106.94,1452.321,106.567,1452.921,105.821z"/>
	<path d="M1456.882,106.44l0.399-0.7c0.521,0.44,1.022,0.747,1.51,0.92s1.077,0.26,1.771,0.26c0.854,0,1.506-0.153,1.96-0.46
		c0.453-0.307,0.68-0.74,0.68-1.3c0-0.467-0.147-0.84-0.44-1.12c-0.293-0.28-0.767-0.5-1.42-0.66l-1.64-0.38
		c-0.76-0.173-1.363-0.49-1.81-0.95c-0.447-0.46-0.67-0.99-0.67-1.59c0-0.826,0.313-1.493,0.939-2c0.627-0.506,1.473-0.76,2.54-0.76
		c0.681,0,1.307,0.113,1.88,0.34c0.573,0.227,1.04,0.547,1.4,0.96l-0.4,0.72c-0.427-0.4-0.873-0.697-1.34-0.89
		c-0.467-0.193-0.98-0.29-1.54-0.29c-0.786,0-1.403,0.16-1.851,0.48c-0.446,0.32-0.67,0.76-0.67,1.32c0,0.493,0.137,0.883,0.41,1.17
		s0.703,0.503,1.291,0.65l1.659,0.4c1.72,0.4,2.58,1.247,2.58,2.54c0,0.8-0.327,1.443-0.979,1.93
		c-0.654,0.487-1.533,0.73-2.641,0.73C1459.008,107.761,1457.802,107.321,1456.882,106.44z"/>
	<path d="M1466.622,106.221h1.379v1.4h-1.379V106.221z"/>
</g>
<g>
	<path d="M1388.382,168.595h3.24v2.82h-3.24V168.595z M1388.482,183.135v-9.82h3.021v9.82H1388.482z"/>
	<path d="M1402.603,174.105c0.572,0.687,0.859,1.723,0.859,3.11v5.92h-3.02v-5.78c0-0.667-0.123-1.153-0.37-1.46
		c-0.247-0.306-0.63-0.46-1.15-0.46c-0.626,0-1.13,0.2-1.51,0.6s-0.569,0.934-0.569,1.6v5.5h-3.021v-9.82h2.94v1.4
		c0.346-0.533,0.796-0.94,1.35-1.22c0.553-0.28,1.176-0.42,1.869-0.42C1401.155,173.075,1402.028,173.418,1402.603,174.105z"/>
	<path d="M1412.122,181.015l-0.16,2.2c-0.387,0.053-0.773,0.08-1.16,0.08c-1.493,0-2.583-0.327-3.27-0.98
		c-0.688-0.653-1.03-1.647-1.03-2.98v-3.76h-1.86v-2.26h1.86v-2.88h3.021v2.88h2.459v2.26h-2.459v3.74c0,1.173,0.546,1.76,1.64,1.76
		C1411.469,181.075,1411.788,181.055,1412.122,181.015z"/>
	<path d="M1422.302,178.795h-6.4c0.094,0.787,0.351,1.357,0.771,1.71c0.42,0.354,1.017,0.53,1.79,0.53c0.506,0,1.01-0.083,1.51-0.25
		c0.5-0.167,0.957-0.403,1.37-0.71l0.8,2.02c-0.48,0.374-1.063,0.667-1.75,0.88c-0.687,0.213-1.377,0.32-2.07,0.32
		c-1.652,0-2.957-0.457-3.91-1.37c-0.953-0.913-1.43-2.157-1.43-3.73c0-1,0.207-1.887,0.62-2.66c0.413-0.773,0.987-1.376,1.72-1.81
		c0.733-0.433,1.566-0.65,2.5-0.65c1.373,0,2.463,0.447,3.271,1.34c0.807,0.894,1.21,2.107,1.21,3.64V178.795z M1416.532,175.705
		c-0.34,0.367-0.551,0.897-0.631,1.59h3.86c-0.04-0.707-0.217-1.24-0.53-1.6c-0.313-0.36-0.756-0.54-1.33-0.54
		C1417.328,175.155,1416.872,175.339,1416.532,175.705z"/>
	<path d="M1432.901,174.105c0.573,0.687,0.859,1.723,0.859,3.11v5.92h-3.02v-5.78c0-0.667-0.123-1.153-0.369-1.46
		c-0.248-0.306-0.631-0.46-1.15-0.46c-0.627,0-1.131,0.2-1.51,0.6c-0.381,0.4-0.57,0.934-0.57,1.6v5.5h-3.02v-9.82h2.939v1.4
		c0.347-0.533,0.797-0.94,1.35-1.22c0.553-0.28,1.177-0.42,1.87-0.42C1431.454,173.075,1432.328,173.418,1432.901,174.105z"/>
	<path d="M1437.312,182.985c-0.754-0.207-1.404-0.503-1.95-0.89l0.8-2.08c0.533,0.36,1.12,0.64,1.76,0.84
		c0.641,0.2,1.287,0.3,1.94,0.3c0.467,0,0.83-0.077,1.09-0.23c0.261-0.153,0.39-0.363,0.39-0.63c0-0.24-0.09-0.427-0.27-0.56
		s-0.517-0.253-1.01-0.36l-1.6-0.36c-0.947-0.213-1.645-0.543-2.091-0.99s-0.67-1.057-0.67-1.83c0-0.613,0.177-1.153,0.53-1.62
		c0.354-0.466,0.854-0.833,1.5-1.1c0.646-0.267,1.383-0.4,2.21-0.4c0.706,0,1.394,0.107,2.06,0.32
		c0.667,0.214,1.268,0.514,1.801,0.9l-0.801,2c-1.039-0.72-2.066-1.08-3.08-1.08c-0.467,0-0.833,0.08-1.1,0.24
		c-0.267,0.16-0.4,0.387-0.4,0.68c0,0.213,0.08,0.38,0.24,0.5s0.44,0.233,0.84,0.34l1.66,0.38c1,0.227,1.73,0.57,2.19,1.03
		s0.69,1.083,0.69,1.87c0,0.947-0.377,1.69-1.131,2.23s-1.79,0.81-3.109,0.81C1438.895,183.295,1438.064,183.192,1437.312,182.985z"
		/>
	<path d="M1445.661,168.595h3.24v2.82h-3.24V168.595z M1445.761,183.135v-9.82h3.021v9.82H1445.761z"/>
	<path d="M1457.501,181.015l-0.16,2.2c-0.387,0.053-0.773,0.08-1.159,0.08c-1.493,0-2.583-0.327-3.271-0.98
		c-0.687-0.653-1.029-1.647-1.029-2.98v-3.76h-1.86v-2.26h1.86v-2.88h3.02v2.88h2.46v2.26h-2.46v3.74c0,1.173,0.547,1.76,1.641,1.76
		C1456.849,181.075,1457.168,181.055,1457.501,181.015z"/>
	<path d="M1465.841,173.335h2.96l-5.92,13.4h-3.06l1.879-4.14l-4.039-9.26h3.14l2.479,6.24L1465.841,173.335z"/>
</g>
<rect x="1387.322" y="202.333" width="6.549" height="21.287"/>
<rect x="1398.322" y="202.333" width="6.549" height="21.287"/>
<rect x="1409.822" y="202.333" width="6.549" height="21.287"/>
<rect x="1420.822" y="202.333" width="6.549" height="21.287"/>
<rect x="1431.322" y="202.333" width="6.549" height="21.287"/>
<rect x="1442.822" y="202.333" width="6.549" height="21.287"/>
<rect x="1453.822" y="202.333" fill="#E1E1E1" width="6.549" height="21.287"/>
</svg>
