<?xml version="1.0" encoding="utf-8"?>
<!-- Generator: Adobe Illustrator 16.0.0, SVG Export Plug-In . SVG Version: 6.00 Build 0)  -->
<!DOCTYPE svg PUBLIC "-//W3C//DTD SVG 1.1//EN" "http://www.w3.org/Graphics/SVG/1.1/DTD/svg11.dtd">
<svg version="1.1" id="Layer_1" xmlns="http://www.w3.org/2000/svg" xmlns:xlink="http://www.w3.org/1999/xlink" x="0px" y="0px"
	 width="1523.924px" height="256.09px" viewBox="0 0 1523.924 256.09" enable-background="new 0 0 1523.924 256.09"
	 xml:space="preserve">
<rect x="1387.322" y="202.333" width="6.549" height="21.287"/>
<rect x="1398.322" y="202.333" width="6.549" height="21.287"/>
<rect x="1409.822" y="202.333" width="6.549" height="21.287"/>
<rect x="1420.822" y="202.333" width="6.549" height="21.287"/>
<rect x="1431.322" y="202.333" fill="#E1E1E1" width="6.549" height="21.287"/>
<rect x="1442.822" y="202.333" fill="#E1E1E1" width="6.549" height="21.287"/>
<rect x="1453.822" y="202.333" fill="#E1E1E1" width="6.549" height="21.287"/>
<g>
	<path d="M22.651,69.136h-3.7l-3.76-4.38v4.38h-3.02v-14.1h3.02v8.48l3.62-4.18h3.6l-4.12,4.68L22.651,69.136z"/>
	<path d="M32.071,64.796h-6.4c0.093,0.787,0.35,1.357,0.77,1.71c0.42,0.354,1.017,0.53,1.79,0.53c0.506,0,1.01-0.083,1.51-0.25
		c0.5-0.167,0.957-0.403,1.37-0.71l0.8,2.02c-0.48,0.374-1.063,0.667-1.75,0.88c-0.687,0.213-1.377,0.32-2.07,0.32
		c-1.653,0-2.957-0.457-3.91-1.37c-0.953-0.913-1.43-2.157-1.43-3.73c0-1,0.207-1.887,0.62-2.66c0.413-0.773,0.987-1.376,1.72-1.81
		c0.733-0.433,1.566-0.65,2.5-0.65c1.373,0,2.463,0.447,3.27,1.34c0.807,0.894,1.21,2.107,1.21,3.64V64.796z M26.301,61.706
		c-0.34,0.367-0.55,0.897-0.63,1.59h3.86c-0.04-0.707-0.217-1.24-0.53-1.6c-0.313-0.36-0.757-0.54-1.33-0.54
		C27.097,61.156,26.641,61.339,26.301,61.706z"/>
	<path d="M40.491,59.336h2.96l-5.92,13.4h-3.06l1.88-4.14l-4.04-9.26h3.14l2.48,6.24L40.491,59.336z"/>
	<path d="M57.571,59.316h2.94l-3.98,9.82h-2.56l-2.16-5.54l-2.1,5.54h-2.54l-4-9.82h3.08l2.32,6.22l2.32-6.22h2.04l2.34,6.28
		L57.571,59.316z"/>
	<path d="M63.411,68.666c-0.787-0.42-1.394-1.013-1.82-1.78c-0.427-0.767-0.64-1.67-0.64-2.71s0.213-1.943,0.64-2.71
		s1.033-1.356,1.82-1.77c0.787-0.413,1.7-0.62,2.74-0.62s1.953,0.207,2.74,0.62c0.787,0.414,1.393,1.003,1.82,1.77
		s0.64,1.67,0.64,2.71s-0.213,1.943-0.64,2.71c-0.427,0.767-1.033,1.36-1.82,1.78c-0.787,0.42-1.7,0.63-2.74,0.63
		S64.197,69.086,63.411,68.666z M68.351,64.176c0-0.947-0.19-1.653-0.57-2.12c-0.38-0.466-0.923-0.7-1.63-0.7
		c-1.467,0-2.2,0.94-2.2,2.82s0.733,2.82,2.2,2.82S68.351,66.056,68.351,64.176z"/>
	<path d="M80.211,61.556l-1.7,0.18c-0.84,0.08-1.434,0.317-1.78,0.71c-0.347,0.394-0.52,0.917-0.52,1.57v5.12h-3.02v-9.82h2.9v1.66
		c0.493-1.133,1.513-1.753,3.06-1.86l0.88-0.06L80.211,61.556z"/>
	<path d="M90.951,55.036v14.1h-3v-1.46c-0.293,0.507-0.71,0.903-1.25,1.19s-1.15,0.43-1.83,0.43c-0.84,0-1.59-0.217-2.25-0.65
		c-0.66-0.433-1.173-1.04-1.54-1.82c-0.367-0.78-0.55-1.676-0.55-2.69c0-1.013,0.183-1.903,0.55-2.67s0.876-1.356,1.53-1.77
		c0.653-0.413,1.407-0.62,2.26-0.62c0.667,0,1.27,0.14,1.81,0.42c0.54,0.28,0.957,0.673,1.25,1.18v-5.64H90.951z M87.38,66.266
		c0.38-0.486,0.57-1.183,0.57-2.09s-0.19-1.6-0.57-2.08c-0.38-0.48-0.923-0.72-1.63-0.72s-1.253,0.237-1.64,0.71
		s-0.58,1.157-0.58,2.05c0,0.907,0.193,1.61,0.58,2.11s0.934,0.75,1.64,0.75S87,66.752,87.38,66.266z"/>
</g>
<g>
	<path d="M744.402,60.106c0.573,0.687,0.86,1.723,0.86,3.11v5.92h-3.02v-5.78c0-0.667-0.123-1.153-0.37-1.46
		c-0.247-0.306-0.63-0.46-1.15-0.46c-0.626,0-1.13,0.2-1.51,0.6s-0.57,0.934-0.57,1.6v5.5h-3.02v-9.82h2.94v1.4
		c0.347-0.533,0.796-0.94,1.35-1.22c0.553-0.28,1.176-0.42,1.87-0.42C742.955,59.076,743.829,59.419,744.402,60.106z"/>
	<path d="M749.502,68.666c-0.787-0.42-1.394-1.013-1.82-1.78c-0.427-0.767-0.64-1.67-0.64-2.71s0.213-1.943,0.64-2.71
		s1.033-1.356,1.82-1.77c0.787-0.413,1.7-0.62,2.74-0.62s1.953,0.207,2.74,0.62c0.787,0.414,1.393,1.003,1.82,1.77
		s0.64,1.67,0.64,2.71s-0.213,1.943-0.64,2.71c-0.427,0.767-1.033,1.36-1.82,1.78c-0.787,0.42-1.7,0.63-2.74,0.63
		S750.289,69.086,749.502,68.666z M754.442,64.176c0-0.947-0.19-1.653-0.57-2.12c-0.38-0.466-0.923-0.7-1.63-0.7
		c-1.467,0-2.2,0.94-2.2,2.82s0.733,2.82,2.2,2.82S754.442,66.056,754.442,64.176z"/>
	<path d="M765.582,67.016l-0.16,2.2c-0.387,0.053-0.773,0.08-1.159,0.08c-1.494,0-2.584-0.327-3.271-0.98
		c-0.687-0.653-1.03-1.647-1.03-2.98v-3.76h-1.86v-2.26h1.86v-2.88h3.02v2.88h2.461v2.26h-2.461v3.74c0,1.173,0.547,1.76,1.641,1.76
		C764.929,67.076,765.249,67.056,765.582,67.016z"/>
	<path d="M775.762,64.796h-6.399c0.093,0.787,0.35,1.357,0.77,1.71c0.42,0.354,1.017,0.53,1.79,0.53c0.507,0,1.01-0.083,1.51-0.25
		c0.5-0.167,0.956-0.403,1.37-0.71l0.8,2.02c-0.479,0.374-1.063,0.667-1.75,0.88c-0.687,0.213-1.377,0.32-2.069,0.32
		c-1.654,0-2.957-0.457-3.91-1.37c-0.953-0.913-1.43-2.157-1.43-3.73c0-1,0.206-1.887,0.619-2.66
		c0.413-0.773,0.986-1.376,1.721-1.81c0.732-0.433,1.566-0.65,2.5-0.65c1.373,0,2.463,0.447,3.27,1.34
		c0.807,0.894,1.21,2.107,1.21,3.64V64.796z M769.991,61.706c-0.34,0.367-0.549,0.897-0.629,1.59h3.859
		c-0.04-0.707-0.217-1.24-0.529-1.6c-0.314-0.36-0.758-0.54-1.33-0.54C770.788,61.156,770.331,61.339,769.991,61.706z"/>
</g>
<g>
	<path d="M1119.244,55.036v14.1h-3v-1.46c-0.293,0.507-0.71,0.903-1.25,1.19s-1.149,0.43-1.83,0.43c-0.84,0-1.59-0.217-2.25-0.65
		c-0.659-0.433-1.173-1.04-1.539-1.82c-0.367-0.78-0.551-1.676-0.551-2.69c0-1.013,0.184-1.903,0.551-2.67
		c0.366-0.767,0.876-1.356,1.529-1.77c0.653-0.413,1.407-0.62,2.26-0.62c0.667,0,1.271,0.14,1.811,0.42
		c0.54,0.28,0.956,0.673,1.25,1.18v-5.64H1119.244z M1115.675,66.266c0.38-0.486,0.569-1.183,0.569-2.09s-0.189-1.6-0.569-2.08
		s-0.924-0.72-1.63-0.72c-0.707,0-1.254,0.237-1.641,0.71s-0.58,1.157-0.58,2.05c0,0.907,0.193,1.61,0.58,2.11
		s0.934,0.75,1.641,0.75C1114.751,66.996,1115.295,66.752,1115.675,66.266z"/>
	<path d="M1129.174,60.116c0.7,0.693,1.051,1.767,1.051,3.22v5.8h-2.86v-1.46c-0.2,0.507-0.533,0.903-1,1.19s-1.014,0.43-1.64,0.43
		c-0.667,0-1.271-0.134-1.811-0.4c-0.54-0.266-0.967-0.64-1.279-1.12c-0.313-0.48-0.471-1.013-0.471-1.6
		c0-0.72,0.184-1.287,0.55-1.7c0.367-0.413,0.957-0.713,1.771-0.9c0.813-0.187,1.927-0.28,3.34-0.28h0.521v-0.36
		c0-0.586-0.127-1-0.381-1.24c-0.253-0.24-0.693-0.36-1.319-0.36c-0.48,0-1.014,0.087-1.601,0.26
		c-0.587,0.173-1.146,0.414-1.68,0.72l-0.8-2.02c0.56-0.347,1.25-0.637,2.07-0.87c0.819-0.233,1.583-0.35,2.289-0.35
		C1127.391,59.076,1128.475,59.423,1129.174,60.116z M1126.805,66.626c0.359-0.394,0.54-0.903,0.54-1.53v-0.34h-0.341
		c-1.08,0-1.837,0.087-2.27,0.26c-0.434,0.173-0.65,0.487-0.65,0.94c0,0.36,0.123,0.66,0.37,0.9c0.247,0.24,0.557,0.36,0.931,0.36
		C1125.971,67.216,1126.444,67.019,1126.805,66.626z"/>
	<path d="M1139.284,59.336h2.96l-5.92,13.4h-3.06l1.88-4.14l-4.04-9.26h3.14l2.48,6.24L1139.284,59.336z"/>
</g>
<g>
	<path d="M1397.516,60.28c0.572,0.687,0.859,1.723,0.859,3.11v5.92h-3.02v-5.78c0-0.667-0.124-1.153-0.37-1.46
		c-0.247-0.306-0.63-0.46-1.15-0.46c-0.627,0-1.13,0.2-1.51,0.6s-0.57,0.934-0.57,1.6v5.5h-3.02v-14.1h3.02v5.58
		c0.347-0.506,0.79-0.89,1.33-1.15c0.54-0.26,1.144-0.39,1.811-0.39C1396.068,59.25,1396.941,59.593,1397.516,60.28z"/>
	<path d="M1400.534,54.77h3.24v2.82h-3.24V54.77z M1400.635,69.31v-9.82h3.02v9.82H1400.635z"/>
	<path d="M1415.994,59.49v8.76c0,1.586-0.453,2.787-1.359,3.6c-0.907,0.813-2.247,1.22-4.021,1.22c-0.88,0-1.724-0.106-2.53-0.32
		s-1.517-0.513-2.13-0.9l0.801-2.08c1.267,0.693,2.526,1.04,3.779,1.04c1.653,0,2.48-0.78,2.48-2.34v-1.08
		c-0.28,0.507-0.7,0.907-1.26,1.2c-0.561,0.293-1.188,0.44-1.881,0.44c-0.853,0-1.609-0.2-2.27-0.6s-1.177-0.97-1.55-1.71
		c-0.374-0.74-0.561-1.597-0.561-2.57c0-0.973,0.187-1.83,0.561-2.57c0.373-0.74,0.89-1.313,1.55-1.72
		c0.66-0.406,1.417-0.61,2.27-0.61c0.681,0,1.297,0.144,1.851,0.43c0.553,0.287,0.977,0.683,1.27,1.19v-1.38H1415.994z
		 M1412.404,66.05c0.394-0.453,0.59-1.087,0.59-1.9c0-0.813-0.196-1.45-0.59-1.91s-0.943-0.69-1.649-0.69
		c-0.707,0-1.261,0.23-1.66,0.69c-0.4,0.46-0.601,1.097-0.601,1.91c0,0.8,0.2,1.43,0.601,1.89c0.399,0.46,0.953,0.69,1.66,0.69
		C1411.461,66.729,1412.011,66.503,1412.404,66.05z"/>
	<path d="M1427.095,60.28c0.572,0.687,0.859,1.723,0.859,3.11v5.92h-3.02v-5.78c0-0.667-0.124-1.153-0.37-1.46
		c-0.247-0.306-0.63-0.46-1.15-0.46c-0.627,0-1.13,0.2-1.51,0.6s-0.57,0.934-0.57,1.6v5.5h-3.02v-14.1h3.02v5.58
		c0.347-0.506,0.79-0.89,1.33-1.15c0.54-0.26,1.144-0.39,1.811-0.39C1425.647,59.25,1426.521,59.593,1427.095,60.28z"/>
	<path d="M1439.055,64.97h-6.4c0.094,0.787,0.351,1.357,0.771,1.71c0.42,0.354,1.017,0.53,1.79,0.53c0.507,0,1.01-0.083,1.51-0.25
		c0.5-0.167,0.957-0.403,1.37-0.71l0.8,2.02c-0.479,0.374-1.063,0.667-1.75,0.88c-0.687,0.213-1.377,0.32-2.07,0.32
		c-1.653,0-2.956-0.457-3.909-1.37c-0.954-0.913-1.431-2.157-1.431-3.73c0-1,0.207-1.887,0.62-2.66
		c0.413-0.773,0.986-1.376,1.72-1.81c0.733-0.433,1.567-0.65,2.5-0.65c1.374,0,2.464,0.447,3.271,1.34
		c0.807,0.894,1.21,2.107,1.21,3.64V64.97z M1433.285,61.879c-0.341,0.367-0.551,0.897-0.631,1.59h3.86
		c-0.04-0.707-0.217-1.24-0.53-1.6s-0.757-0.54-1.33-0.54S1433.625,61.513,1433.285,61.879z"/>
	<path d="M1442.164,69.16c-0.754-0.207-1.403-0.503-1.95-0.89l0.8-2.08c0.533,0.36,1.12,0.64,1.76,0.84
		c0.641,0.2,1.287,0.3,1.94,0.3c0.467,0,0.83-0.077,1.09-0.23s0.391-0.363,0.391-0.63c0-0.24-0.091-0.427-0.271-0.56
		s-0.517-0.253-1.01-0.36l-1.601-0.36c-0.946-0.213-1.643-0.543-2.09-0.99c-0.446-0.447-0.67-1.057-0.67-1.83
		c0-0.613,0.177-1.153,0.53-1.62c0.353-0.466,0.853-0.833,1.5-1.1c0.646-0.267,1.383-0.4,2.21-0.4c0.706,0,1.393,0.107,2.06,0.32
		c0.667,0.214,1.267,0.514,1.801,0.9l-0.801,2c-1.04-0.72-2.066-1.08-3.08-1.08c-0.467,0-0.833,0.08-1.1,0.24
		c-0.267,0.16-0.4,0.387-0.4,0.68c0,0.213,0.08,0.38,0.24,0.5s0.44,0.233,0.84,0.34l1.66,0.38c1,0.227,1.73,0.57,2.19,1.03
		s0.689,1.083,0.689,1.87c0,0.947-0.377,1.69-1.13,2.23s-1.79,0.81-3.109,0.81C1443.747,69.47,1442.917,69.366,1442.164,69.16z"/>
	<path d="M1456.914,67.189l-0.159,2.2c-0.388,0.053-0.773,0.08-1.16,0.08c-1.494,0-2.584-0.327-3.271-0.98s-1.029-1.647-1.029-2.98
		v-3.76h-1.86v-2.26h1.86v-2.88h3.02v2.88h2.46v2.26h-2.46v3.74c0,1.173,0.547,1.76,1.64,1.76
		C1456.261,67.25,1456.581,67.229,1456.914,67.189z"/>
	<path d="M1472.164,59.899c0.66,0.434,1.173,1.04,1.54,1.82c0.366,0.78,0.55,1.677,0.55,2.69s-0.184,1.903-0.55,2.67
		c-0.367,0.767-0.877,1.357-1.53,1.77c-0.653,0.414-1.407,0.62-2.26,0.62c-0.667,0-1.271-0.137-1.811-0.41s-0.957-0.657-1.25-1.15v5
		h-3.02V59.49h2.979v1.38c0.294-0.507,0.714-0.903,1.261-1.19c0.546-0.287,1.159-0.43,1.84-0.43
		C1470.754,59.25,1471.504,59.466,1472.164,59.899z M1470.674,66.459c0.387-0.473,0.58-1.156,0.58-2.05
		c0-0.907-0.193-1.61-0.58-2.11s-0.934-0.75-1.64-0.75c-0.707,0-1.254,0.243-1.641,0.73s-0.58,1.183-0.58,2.09
		c0,0.894,0.193,1.583,0.58,2.07c0.387,0.487,0.934,0.73,1.641,0.73C1469.74,67.169,1470.287,66.933,1470.674,66.459z"/>
	<path d="M1478.073,68.839c-0.786-0.42-1.394-1.013-1.819-1.78c-0.427-0.767-0.641-1.67-0.641-2.71s0.214-1.943,0.641-2.71
		c0.426-0.767,1.033-1.356,1.819-1.77c0.787-0.413,1.7-0.62,2.74-0.62s1.953,0.207,2.74,0.62c0.786,0.414,1.393,1.003,1.82,1.77
		c0.426,0.767,0.64,1.67,0.64,2.71s-0.214,1.943-0.64,2.71c-0.428,0.767-1.034,1.36-1.82,1.78c-0.787,0.42-1.7,0.63-2.74,0.63
		S1478.86,69.26,1478.073,68.839z M1483.014,64.35c0-0.947-0.19-1.653-0.57-2.12c-0.38-0.466-0.923-0.7-1.63-0.7
		c-1.467,0-2.2,0.94-2.2,2.82s0.733,2.82,2.2,2.82S1483.014,66.229,1483.014,64.35z"/>
	<path d="M1487.754,54.77h3.24v2.82h-3.24V54.77z M1487.854,69.31v-9.82h3.02v9.82H1487.854z"/>
	<path d="M1501.975,60.28c0.572,0.687,0.859,1.723,0.859,3.11v5.92h-3.02v-5.78c0-0.667-0.124-1.153-0.37-1.46
		c-0.247-0.306-0.63-0.46-1.15-0.46c-0.627,0-1.13,0.2-1.51,0.6s-0.57,0.934-0.57,1.6v5.5h-3.02v-9.82h2.939v1.4
		c0.347-0.533,0.797-0.94,1.351-1.22c0.553-0.28,1.177-0.42,1.87-0.42C1500.527,59.25,1501.4,59.593,1501.975,60.28z"/>
	<path d="M1511.493,67.189l-0.159,2.2c-0.388,0.053-0.773,0.08-1.16,0.08c-1.494,0-2.584-0.327-3.271-0.98s-1.029-1.647-1.029-2.98
		v-3.76h-1.86v-2.26h1.86v-2.88h3.02v2.88h2.46v2.26h-2.46v3.74c0,1.173,0.547,1.76,1.64,1.76
		C1510.84,67.25,1511.16,67.229,1511.493,67.189z"/>
</g>
<g>
	<path d="M1388.382,168.755h3.24v2.82h-3.24V168.755z M1388.482,183.295v-9.82h3.02v9.82H1388.482z"/>
	<path d="M1402.603,174.265c0.572,0.688,0.859,1.724,0.859,3.11v5.92h-3.02v-5.78c0-0.666-0.124-1.153-0.37-1.46
		c-0.247-0.307-0.63-0.46-1.15-0.46c-0.627,0-1.13,0.2-1.51,0.601c-0.38,0.399-0.57,0.933-0.57,1.6v5.5h-3.02v-9.82h2.939v1.4
		c0.347-0.533,0.797-0.94,1.351-1.22c0.553-0.28,1.177-0.42,1.87-0.42C1401.155,173.235,1402.028,173.578,1402.603,174.265z"/>
	<path d="M1412.121,181.175l-0.159,2.2c-0.388,0.053-0.773,0.08-1.16,0.08c-1.494,0-2.584-0.327-3.271-0.98
		c-0.687-0.652-1.029-1.646-1.029-2.979v-3.76h-1.86v-2.261h1.86v-2.88h3.02v2.88h2.46v2.261h-2.46v3.739
		c0,1.174,0.547,1.761,1.64,1.761C1411.468,181.235,1411.788,181.215,1412.121,181.175z"/>
	<path d="M1422.302,178.955h-6.4c0.094,0.787,0.351,1.356,0.771,1.71s1.017,0.53,1.79,0.53c0.507,0,1.01-0.084,1.51-0.25
		c0.5-0.167,0.957-0.403,1.37-0.71l0.8,2.02c-0.479,0.373-1.063,0.667-1.75,0.88s-1.377,0.32-2.07,0.32
		c-1.653,0-2.956-0.457-3.909-1.37c-0.954-0.913-1.431-2.156-1.431-3.73c0-1,0.207-1.886,0.62-2.659s0.986-1.377,1.72-1.811
		c0.733-0.433,1.567-0.649,2.5-0.649c1.374,0,2.464,0.446,3.271,1.34s1.21,2.106,1.21,3.64V178.955z M1416.532,175.865
		c-0.341,0.366-0.551,0.896-0.631,1.59h3.86c-0.04-0.707-0.217-1.24-0.53-1.601c-0.313-0.359-0.757-0.54-1.33-0.54
		S1416.872,175.498,1416.532,175.865z"/>
	<path d="M1432.902,174.265c0.572,0.688,0.859,1.724,0.859,3.11v5.92h-3.02v-5.78c0-0.666-0.124-1.153-0.37-1.46
		c-0.247-0.307-0.63-0.46-1.15-0.46c-0.627,0-1.13,0.2-1.51,0.601c-0.38,0.399-0.57,0.933-0.57,1.6v5.5h-3.02v-9.82h2.939v1.4
		c0.347-0.533,0.797-0.94,1.351-1.22c0.553-0.28,1.177-0.42,1.87-0.42C1431.455,173.235,1432.328,173.578,1432.902,174.265z"/>
	<path d="M1437.312,183.145c-0.754-0.206-1.403-0.503-1.95-0.89l0.8-2.08c0.533,0.36,1.12,0.64,1.76,0.84
		c0.641,0.2,1.287,0.3,1.94,0.3c0.467,0,0.83-0.076,1.09-0.229s0.391-0.363,0.391-0.63c0-0.24-0.091-0.427-0.271-0.561
		c-0.18-0.133-0.517-0.253-1.01-0.359l-1.601-0.36c-0.946-0.213-1.643-0.543-2.09-0.99c-0.446-0.446-0.67-1.057-0.67-1.83
		c0-0.612,0.177-1.152,0.53-1.619c0.353-0.467,0.853-0.834,1.5-1.101c0.646-0.267,1.383-0.399,2.21-0.399
		c0.706,0,1.393,0.106,2.06,0.319c0.667,0.214,1.267,0.514,1.801,0.9l-0.801,2c-1.04-0.72-2.066-1.08-3.08-1.08
		c-0.467,0-0.833,0.08-1.1,0.24s-0.4,0.387-0.4,0.68c0,0.214,0.08,0.38,0.24,0.5s0.44,0.233,0.84,0.34l1.66,0.38
		c1,0.228,1.73,0.57,2.19,1.03s0.689,1.083,0.689,1.87c0,0.946-0.377,1.689-1.13,2.229s-1.79,0.811-3.109,0.811
		C1438.895,183.455,1438.064,183.352,1437.312,183.145z"/>
	<path d="M1445.661,168.755h3.24v2.82h-3.24V168.755z M1445.762,183.295v-9.82h3.02v9.82H1445.762z"/>
	<path d="M1457.501,181.175l-0.159,2.2c-0.388,0.053-0.773,0.08-1.16,0.08c-1.494,0-2.584-0.327-3.271-0.98
		c-0.687-0.652-1.029-1.646-1.029-2.979v-3.76h-1.86v-2.261h1.86v-2.88h3.02v2.88h2.46v2.261h-2.46v3.739
		c0,1.174,0.547,1.761,1.64,1.761C1456.848,181.235,1457.168,181.215,1457.501,181.175z"/>
	<path d="M1465.841,173.495h2.96l-5.92,13.399h-3.06l1.88-4.14l-4.04-9.26h3.14l2.48,6.24L1465.841,173.495z"/>
</g>
<g>
	<path d="M1122.505,173.475h2.939l-3.979,9.82h-2.561l-2.16-5.54l-2.1,5.54h-2.54l-4-9.82h3.08l2.32,6.221l2.319-6.221h2.04
		l2.34,6.28L1122.505,173.475z"/>
	<path d="M1135.204,178.955h-6.4c0.094,0.787,0.351,1.356,0.771,1.71s1.017,0.53,1.79,0.53c0.507,0,1.01-0.084,1.51-0.25
		c0.5-0.167,0.957-0.403,1.37-0.71l0.8,2.02c-0.479,0.373-1.063,0.667-1.75,0.88s-1.377,0.32-2.07,0.32
		c-1.653,0-2.956-0.457-3.909-1.37c-0.954-0.913-1.431-2.156-1.431-3.73c0-1,0.207-1.886,0.62-2.659s0.986-1.377,1.72-1.811
		c0.733-0.433,1.567-0.649,2.5-0.649c1.374,0,2.464,0.446,3.271,1.34s1.21,2.106,1.21,3.64V178.955z M1129.435,175.865
		c-0.341,0.366-0.551,0.896-0.631,1.59h3.86c-0.04-0.707-0.217-1.24-0.53-1.601c-0.313-0.359-0.757-0.54-1.33-0.54
		S1129.774,175.498,1129.435,175.865z"/>
	<path d="M1144.634,174.275c0.7,0.693,1.051,1.767,1.051,3.22v5.8h-2.86v-1.46c-0.2,0.507-0.533,0.903-1,1.19
		c-0.467,0.286-1.014,0.43-1.64,0.43c-0.667,0-1.271-0.134-1.811-0.4s-0.967-0.64-1.279-1.12c-0.313-0.479-0.471-1.013-0.471-1.6
		c0-0.72,0.184-1.286,0.55-1.7c0.367-0.413,0.957-0.713,1.771-0.899s1.927-0.28,3.34-0.28h0.521v-0.36c0-0.586-0.127-1-0.381-1.24
		c-0.253-0.239-0.693-0.359-1.319-0.359c-0.48,0-1.014,0.087-1.601,0.26c-0.587,0.174-1.146,0.413-1.68,0.72l-0.8-2.02
		c0.56-0.347,1.25-0.637,2.07-0.87c0.819-0.233,1.583-0.35,2.289-0.35C1142.851,173.235,1143.935,173.582,1144.634,174.275z
		 M1142.265,180.785c0.359-0.394,0.54-0.903,0.54-1.53v-0.34h-0.341c-1.08,0-1.837,0.087-2.27,0.26
		c-0.434,0.174-0.65,0.487-0.65,0.94c0,0.359,0.123,0.66,0.37,0.899c0.247,0.24,0.557,0.36,0.931,0.36
		C1141.431,181.375,1141.904,181.179,1142.265,180.785z"/>
	<path d="M1154.344,181.175l-0.159,2.2c-0.388,0.053-0.773,0.08-1.16,0.08c-1.494,0-2.584-0.327-3.271-0.98
		c-0.687-0.652-1.029-1.646-1.029-2.979v-3.76h-1.86v-2.261h1.86v-2.88h3.02v2.88h2.46v2.261h-2.46v3.739
		c0,1.174,0.547,1.761,1.64,1.761C1153.69,181.235,1154.011,181.215,1154.344,181.175z"/>
	<path d="M1164.465,174.265c0.572,0.688,0.859,1.724,0.859,3.11v5.92h-3.02v-5.78c0-0.666-0.124-1.153-0.37-1.46
		c-0.247-0.307-0.63-0.46-1.15-0.46c-0.627,0-1.13,0.2-1.51,0.601c-0.38,0.399-0.57,0.933-0.57,1.6v5.5h-3.02v-14.1h3.02v5.58
		c0.347-0.507,0.79-0.891,1.33-1.15s1.144-0.39,1.811-0.39C1163.018,173.235,1163.891,173.578,1164.465,174.265z"/>
	<path d="M1176.424,178.955h-6.4c0.094,0.787,0.351,1.356,0.771,1.71s1.017,0.53,1.79,0.53c0.507,0,1.01-0.084,1.51-0.25
		c0.5-0.167,0.957-0.403,1.37-0.71l0.8,2.02c-0.479,0.373-1.063,0.667-1.75,0.88s-1.377,0.32-2.07,0.32
		c-1.653,0-2.956-0.457-3.909-1.37c-0.954-0.913-1.431-2.156-1.431-3.73c0-1,0.207-1.886,0.62-2.659s0.986-1.377,1.72-1.811
		c0.733-0.433,1.567-0.649,2.5-0.649c1.374,0,2.464,0.446,3.271,1.34s1.21,2.106,1.21,3.64V178.955z M1170.654,175.865
		c-0.341,0.366-0.551,0.896-0.631,1.59h3.86c-0.04-0.707-0.217-1.24-0.53-1.601c-0.313-0.359-0.757-0.54-1.33-0.54
		S1170.994,175.498,1170.654,175.865z"/>
	<path d="M1185.263,175.715l-1.699,0.18c-0.841,0.08-1.434,0.317-1.78,0.71c-0.347,0.394-0.521,0.917-0.521,1.57v5.12h-3.02v-9.82
		h2.899v1.66c0.493-1.133,1.514-1.753,3.061-1.859l0.88-0.061L1185.263,175.715z"/>
</g>
<g>
	<path d="M13.117,173.615h2.92v0.72h-2.92v8.96h-0.84v-8.96h-1.94v-0.72h1.94v-0.62c0-1.213,0.29-2.134,0.87-2.76
		c0.58-0.627,1.457-0.974,2.63-1.04l0.62-0.04l0.1,0.739l-0.92,0.061c-0.84,0.054-1.46,0.333-1.86,0.84s-0.6,1.24-0.6,2.2V173.615z"
		/>
	<path d="M19.217,182.814c-0.653-0.413-1.16-1-1.52-1.76s-0.54-1.646-0.54-2.66c0-1,0.18-1.88,0.54-2.64s0.867-1.347,1.52-1.76
		c0.653-0.413,1.406-0.62,2.26-0.62c0.853,0,1.607,0.207,2.26,0.62c0.653,0.413,1.16,1,1.52,1.76c0.36,0.76,0.54,1.64,0.54,2.64
		c0,1.014-0.18,1.9-0.54,2.66c-0.36,0.76-0.867,1.347-1.52,1.76c-0.653,0.414-1.407,0.62-2.26,0.62
		C20.624,183.435,19.87,183.229,19.217,182.814z M24.007,181.525c0.593-0.727,0.89-1.771,0.89-3.131c0-1.319-0.303-2.35-0.91-3.09
		c-0.607-0.74-1.443-1.109-2.51-1.109s-1.903,0.369-2.51,1.109c-0.607,0.74-0.91,1.771-0.91,3.09c0,1.36,0.296,2.404,0.89,3.131
		c0.593,0.727,1.43,1.09,2.51,1.09C22.564,182.615,23.414,182.252,24.007,181.525z"/>
	<path d="M36.037,173.615v9.68h-0.82v-1.82c-0.307,0.627-0.75,1.11-1.33,1.45c-0.58,0.34-1.237,0.51-1.97,0.51
		c-1.12,0-1.97-0.313-2.55-0.939c-0.58-0.627-0.87-1.547-0.87-2.76v-6.12h0.84v6.04c0,1.013,0.207,1.76,0.62,2.239
		c0.413,0.48,1.053,0.721,1.92,0.721c1,0,1.803-0.316,2.41-0.95c0.606-0.633,0.91-1.477,0.91-2.53v-5.52H36.037z"/>
	<path d="M44.097,174.135l-0.68,0.08c-1.094,0.107-1.89,0.464-2.39,1.07s-0.75,1.343-0.75,2.21v5.8h-0.84v-9.68h0.84v1.699
		c0.307-0.6,0.73-1.05,1.27-1.35s1.216-0.483,2.03-0.55l0.42-0.04L44.097,174.135z"/>
	<path d="M51.077,182.575l-0.04,0.779c-0.28,0.04-0.58,0.061-0.9,0.061c-1,0-1.77-0.29-2.31-0.87s-0.81-1.356-0.81-2.33v-5.88h-1.94
		v-0.72h1.94v-3.021h0.84v3.021h2.92v0.72h-2.92v5.7c0,0.854,0.2,1.5,0.6,1.939c0.4,0.44,0.993,0.66,1.78,0.66
		C50.543,182.635,50.823,182.615,51.077,182.575z"/>
	<path d="M60.597,177.055v6.24h-0.84v-6.16c0-1.026-0.207-1.776-0.62-2.25c-0.414-0.473-1.08-0.71-2-0.71
		c-1.027,0-1.85,0.317-2.47,0.95c-0.62,0.634-0.93,1.477-0.93,2.53v5.64h-0.84v-14.1h0.84v6.119c0.293-0.626,0.733-1.106,1.32-1.439
		s1.26-0.5,2.02-0.5C59.423,173.375,60.597,174.602,60.597,177.055z"/>
	<path d="M82.196,177.055v6.24h-0.84v-6.16c0-1.026-0.187-1.776-0.56-2.25c-0.374-0.473-0.967-0.71-1.78-0.71
		c-0.933,0-1.677,0.313-2.23,0.94s-0.83,1.473-0.83,2.54v5.64h-0.84v-6.16c0-1.026-0.187-1.776-0.56-2.25
		c-0.374-0.473-0.967-0.71-1.78-0.71c-0.934,0-1.677,0.313-2.23,0.94c-0.554,0.627-0.83,1.473-0.83,2.54v5.64h-0.84v-9.68h0.82
		v1.699c0.267-0.626,0.663-1.106,1.19-1.439c0.526-0.333,1.15-0.5,1.87-0.5c1.546,0,2.54,0.646,2.98,1.939
		c0.28-0.6,0.71-1.072,1.29-1.42c0.58-0.346,1.236-0.52,1.97-0.52C81.129,173.375,82.196,174.602,82.196,177.055z"/>
	<path d="M86.956,182.814c-0.653-0.413-1.16-1-1.52-1.76s-0.54-1.646-0.54-2.66c0-1,0.18-1.88,0.54-2.64s0.867-1.347,1.52-1.76
		c0.653-0.413,1.406-0.62,2.26-0.62c0.853,0,1.607,0.207,2.26,0.62c0.653,0.413,1.16,1,1.52,1.76c0.36,0.76,0.54,1.64,0.54,2.64
		c0,1.014-0.18,1.9-0.54,2.66c-0.36,0.76-0.867,1.347-1.52,1.76c-0.653,0.414-1.407,0.62-2.26,0.62
		C88.362,183.435,87.609,183.229,86.956,182.814z M91.746,181.525c0.593-0.727,0.89-1.771,0.89-3.131c0-1.319-0.303-2.35-0.91-3.09
		c-0.607-0.74-1.443-1.109-2.51-1.109s-1.903,0.369-2.51,1.109c-0.607,0.74-0.91,1.771-0.91,3.09c0,1.36,0.296,2.404,0.89,3.131
		c0.593,0.727,1.43,1.09,2.51,1.09C90.303,182.615,91.152,182.252,91.746,181.525z"/>
	<path d="M103.776,173.615v9.68h-0.82v-1.82c-0.307,0.627-0.75,1.11-1.33,1.45c-0.58,0.34-1.237,0.51-1.97,0.51
		c-1.12,0-1.97-0.313-2.55-0.939c-0.58-0.627-0.87-1.547-0.87-2.76v-6.12h0.84v6.04c0,1.013,0.207,1.76,0.62,2.239
		c0.413,0.48,1.053,0.721,1.92,0.721c1,0,1.803-0.316,2.41-0.95c0.606-0.633,0.91-1.477,0.91-2.53v-5.52H103.776z"/>
	<path d="M114.876,177.055v6.24h-0.84v-6.16c0-1.026-0.207-1.776-0.62-2.25c-0.414-0.473-1.08-0.71-2-0.71
		c-1.027,0-1.85,0.317-2.47,0.95c-0.62,0.634-0.93,1.477-0.93,2.53v5.64h-0.84v-9.68h0.82v1.739c0.293-0.64,0.736-1.13,1.33-1.47
		c0.593-0.34,1.27-0.51,2.03-0.51C113.703,173.375,114.876,174.602,114.876,177.055z"/>
	<path d="M122.696,182.575l-0.04,0.779c-0.28,0.04-0.58,0.061-0.9,0.061c-1,0-1.77-0.29-2.31-0.87s-0.81-1.356-0.81-2.33v-5.88
		h-1.94v-0.72h1.94v-3.021h0.84v3.021h2.92v0.72h-2.92v5.7c0,0.854,0.2,1.5,0.6,1.939c0.4,0.44,0.993,0.66,1.78,0.66
		C122.162,182.635,122.442,182.615,122.696,182.575z"/>
	<path d="M131.576,176.955v6.34h-0.86v-1.78c-0.293,0.613-0.717,1.087-1.27,1.42c-0.553,0.334-1.183,0.5-1.89,0.5
		c-0.614,0-1.177-0.127-1.69-0.38s-0.92-0.603-1.22-1.05c-0.3-0.446-0.45-0.937-0.45-1.47c0-0.721,0.19-1.276,0.57-1.67
		c0.38-0.394,1.006-0.677,1.88-0.851c0.873-0.173,2.097-0.26,3.67-0.26h0.4v-0.84c0-0.946-0.187-1.637-0.56-2.07
		c-0.373-0.433-0.967-0.649-1.78-0.649c-0.627,0-1.204,0.083-1.73,0.25c-0.527,0.166-1.077,0.437-1.65,0.81l-0.4-0.72
		c0.493-0.36,1.063-0.644,1.71-0.851c0.646-0.206,1.296-0.31,1.95-0.31C130.469,173.375,131.576,174.568,131.576,176.955z
		 M129.176,182.165c0.48-0.287,0.857-0.684,1.13-1.19c0.273-0.506,0.41-1.08,0.41-1.72v-0.72h-0.38c-1.4,0-2.467,0.057-3.2,0.17
		s-1.247,0.307-1.54,0.58s-0.44,0.677-0.44,1.21c0,0.613,0.227,1.116,0.68,1.51c0.453,0.394,1.026,0.59,1.72,0.59
		C128.156,182.595,128.696,182.452,129.176,182.165z"/>
	<path d="M134.716,169.655h1.28v1.26h-1.28V169.655z M134.936,183.295v-9.68h0.84v9.68H134.936z"/>
	<path d="M146.875,177.055v6.24h-0.84v-6.16c0-1.026-0.207-1.776-0.62-2.25c-0.414-0.473-1.08-0.71-2-0.71
		c-1.027,0-1.85,0.317-2.47,0.95c-0.62,0.634-0.93,1.477-0.93,2.53v5.64h-0.84v-9.68h0.82v1.739c0.293-0.64,0.736-1.13,1.33-1.47
		c0.593-0.34,1.27-0.51,2.03-0.51C145.702,173.375,146.875,174.602,146.875,177.055z"/>
</g>
<g>
	<path d="M736.922,107.53v-14.1h0.82v14.1H736.922z"/>
	<path d="M759.502,97.85h0.9l-3.44,9.68h-1l-3.06-8.64l-3.12,8.64h-1l-3.4-9.68h0.92l2.98,8.7l3.12-8.7h1.02l3.04,8.68
		L759.502,97.85z"/>
	<path d="M769.722,101.19v6.34h-0.859v-1.78c-0.294,0.613-0.717,1.087-1.271,1.42c-0.554,0.334-1.183,0.5-1.89,0.5
		c-0.613,0-1.178-0.127-1.69-0.38s-0.92-0.603-1.22-1.05c-0.301-0.446-0.45-0.937-0.45-1.47c0-0.72,0.19-1.277,0.57-1.67
		c0.38-0.393,1.007-0.676,1.88-0.85s2.097-0.26,3.67-0.26h0.4v-0.84c0-0.947-0.188-1.637-0.561-2.07
		c-0.373-0.433-0.967-0.65-1.779-0.65c-0.627,0-1.204,0.083-1.73,0.25c-0.527,0.167-1.077,0.437-1.65,0.81l-0.4-0.72
		c0.494-0.36,1.064-0.644,1.711-0.85s1.297-0.31,1.949-0.31C768.615,97.61,769.722,98.804,769.722,101.19z M767.321,106.4
		c0.48-0.287,0.857-0.684,1.131-1.19c0.273-0.507,0.41-1.08,0.41-1.72v-0.72h-0.381c-1.399,0-2.467,0.057-3.199,0.17
		c-0.734,0.113-1.247,0.307-1.541,0.58c-0.293,0.273-0.439,0.677-0.439,1.21c0,0.613,0.227,1.116,0.68,1.51s1.027,0.59,1.721,0.59
		C766.302,106.83,766.842,106.688,767.321,106.4z"/>
	<path d="M772.481,106.351l0.4-0.7c0.52,0.439,1.023,0.747,1.51,0.92c0.486,0.174,1.076,0.26,1.77,0.26
		c0.854,0,1.508-0.153,1.961-0.46s0.68-0.74,0.68-1.3c0-0.467-0.146-0.84-0.439-1.12c-0.294-0.28-0.768-0.5-1.42-0.66l-1.641-0.38
		c-0.76-0.173-1.363-0.49-1.811-0.95c-0.446-0.46-0.67-0.99-0.67-1.59c0-0.826,0.313-1.493,0.94-2c0.626-0.506,1.474-0.76,2.54-0.76
		c0.68,0,1.307,0.113,1.88,0.34c0.573,0.227,1.04,0.547,1.4,0.96l-0.4,0.72c-0.427-0.4-0.873-0.697-1.34-0.89
		c-0.467-0.193-0.979-0.29-1.54-0.29c-0.787,0-1.403,0.16-1.85,0.48c-0.447,0.32-0.67,0.76-0.67,1.32c0,0.493,0.137,0.883,0.41,1.17
		c0.272,0.287,0.703,0.503,1.289,0.65l1.66,0.4c1.721,0.4,2.58,1.247,2.58,2.54c0,0.8-0.326,1.444-0.98,1.93
		c-0.652,0.486-1.533,0.729-2.639,0.729C774.608,107.67,773.401,107.23,772.481,106.351z"/>
	<path d="M790.302,101.29v6.24h-0.84v-6.16c0-1.026-0.207-1.776-0.62-2.25c-0.413-0.473-1.08-0.71-2-0.71
		c-1.026,0-1.851,0.317-2.47,0.95c-0.62,0.633-0.93,1.477-0.93,2.53v5.64h-0.84v-9.68h0.819v1.74c0.293-0.64,0.736-1.13,1.33-1.47
		c0.593-0.34,1.271-0.51,2.03-0.51C789.128,97.61,790.302,98.837,790.302,101.29z"/>
	<path d="M794.342,93.43v1.1c0,0.454-0.067,0.867-0.2,1.24c-0.133,0.373-0.359,0.713-0.68,1.02l-0.52-0.4
		c0.253-0.28,0.423-0.54,0.51-0.78c0.086-0.24,0.137-0.5,0.15-0.78h-0.641v-1.4H794.342z"/>
	<path d="M801.922,106.811l-0.04,0.779c-0.28,0.04-0.58,0.061-0.9,0.061c-1,0-1.77-0.29-2.31-0.87s-0.81-1.356-0.81-2.33v-5.88
		h-1.94v-0.72h1.94v-3.02h0.84v3.02h2.92v0.72h-2.92v5.7c0,0.853,0.199,1.5,0.6,1.939c0.4,0.44,0.993,0.66,1.779,0.66
		C801.388,106.87,801.669,106.851,801.922,106.811z"/>
	<path d="M809.901,97.85h2.921v0.72h-2.921v8.96h-0.84v-8.96h-1.939v-0.72h1.939v-0.62c0-1.213,0.29-2.133,0.87-2.76
		c0.58-0.626,1.457-0.973,2.629-1.04l0.621-0.04l0.1,0.74l-0.92,0.06c-0.84,0.053-1.459,0.333-1.859,0.84
		c-0.4,0.507-0.601,1.24-0.601,2.2V97.85z"/>
	<path d="M822.382,102.771h-7.521c0.026,1.307,0.356,2.313,0.99,3.02c0.633,0.707,1.536,1.061,2.71,1.061
		c0.6,0,1.163-0.101,1.689-0.301c0.527-0.199,1.051-0.52,1.57-0.96l0.4,0.721c-0.414,0.413-0.947,0.743-1.601,0.989
		c-0.653,0.247-1.326,0.37-2.02,0.37c-1.44,0-2.577-0.446-3.41-1.34c-0.833-0.893-1.25-2.12-1.25-3.68c0-1,0.187-1.88,0.56-2.64
		c0.373-0.76,0.9-1.35,1.58-1.77c0.681-0.42,1.46-0.63,2.34-0.63c1.254,0,2.227,0.407,2.921,1.22c0.692,0.813,1.04,1.954,1.04,3.42
		V102.771z M815.972,99.34c-0.62,0.633-0.983,1.517-1.09,2.65h6.699c-0.026-1.16-0.313-2.05-0.859-2.67
		c-0.547-0.62-1.313-0.93-2.301-0.93C817.408,98.39,816.592,98.707,815.972,99.34z"/>
	<path d="M832.861,102.771h-7.521c0.026,1.307,0.356,2.313,0.99,3.02c0.633,0.707,1.536,1.061,2.71,1.061
		c0.6,0,1.163-0.101,1.689-0.301c0.527-0.199,1.051-0.52,1.57-0.96l0.4,0.721c-0.414,0.413-0.947,0.743-1.601,0.989
		c-0.653,0.247-1.326,0.37-2.02,0.37c-1.44,0-2.577-0.446-3.41-1.34c-0.833-0.893-1.25-2.12-1.25-3.68c0-1,0.187-1.88,0.56-2.64
		c0.373-0.76,0.9-1.35,1.58-1.77c0.681-0.42,1.46-0.63,2.34-0.63c1.254,0,2.227,0.407,2.921,1.22c0.692,0.813,1.04,1.954,1.04,3.42
		V102.771z M826.451,99.34c-0.62,0.633-0.983,1.517-1.09,2.65h6.699c-0.026-1.16-0.313-2.05-0.859-2.67
		c-0.547-0.62-1.313-0.93-2.301-0.93C827.888,98.39,827.071,98.707,826.451,99.34z"/>
	<path d="M835.561,107.53v-14.1h0.84v14.1H835.561z"/>
	<path d="M839.581,93.89h1.279v1.26h-1.279V93.89z M839.801,107.53v-9.68h0.84v9.68H839.801z"/>
	<path d="M851.741,101.29v6.24H850.9v-6.16c0-1.026-0.206-1.776-0.619-2.25c-0.414-0.473-1.08-0.71-2-0.71
		c-1.027,0-1.851,0.317-2.471,0.95s-0.93,1.477-0.93,2.53v5.64h-0.84v-9.68h0.819v1.74c0.294-0.64,0.737-1.13,1.33-1.47
		c0.594-0.34,1.271-0.51,2.03-0.51C850.567,97.61,851.741,98.837,851.741,101.29z"/>
	<path d="M863.08,97.85v9.22c0,1.387-0.326,2.433-0.979,3.14s-1.627,1.061-2.92,1.061c-1.613,0-2.98-0.46-4.101-1.38l0.4-0.7
		c0.666,0.479,1.267,0.81,1.8,0.99c0.533,0.18,1.173,0.27,1.92,0.27c1,0,1.76-0.276,2.28-0.83c0.52-0.554,0.78-1.363,0.78-2.43v-2.1
		c-0.28,0.694-0.717,1.223-1.311,1.59c-0.593,0.366-1.31,0.55-2.149,0.55c-0.854,0-1.61-0.2-2.271-0.601
		c-0.66-0.399-1.173-0.966-1.54-1.7c-0.367-0.733-0.55-1.573-0.55-2.52c0-0.946,0.183-1.783,0.55-2.51s0.88-1.29,1.54-1.69
		c0.66-0.4,1.417-0.6,2.271-0.6c0.826,0,1.533,0.18,2.119,0.54c0.587,0.36,1.027,0.874,1.32,1.54v-1.84H863.08z M861.33,105.34
		c0.606-0.713,0.91-1.69,0.91-2.93c0-1.24-0.304-2.213-0.91-2.92c-0.606-0.707-1.449-1.06-2.529-1.06c-1.067,0-1.91,0.354-2.53,1.06
		c-0.62,0.707-0.93,1.68-0.93,2.92c0,1.253,0.31,2.233,0.93,2.94c0.62,0.708,1.463,1.06,2.53,1.06
		C859.881,106.41,860.724,106.054,861.33,105.34z"/>
	<path d="M878.459,101.19v6.34H877.6v-1.78c-0.294,0.613-0.717,1.087-1.271,1.42c-0.554,0.334-1.184,0.5-1.89,0.5
		c-0.613,0-1.177-0.127-1.69-0.38s-0.92-0.603-1.22-1.05c-0.3-0.446-0.45-0.937-0.45-1.47c0-0.72,0.19-1.277,0.57-1.67
		c0.38-0.393,1.007-0.676,1.88-0.85s2.097-0.26,3.67-0.26h0.4v-0.84c0-0.947-0.188-1.637-0.561-2.07
		c-0.373-0.433-0.967-0.65-1.78-0.65c-0.626,0-1.203,0.083-1.729,0.25c-0.527,0.167-1.077,0.437-1.65,0.81l-0.399-0.72
		c0.493-0.36,1.063-0.644,1.71-0.85c0.646-0.207,1.296-0.31,1.95-0.31C877.353,97.61,878.459,98.804,878.459,101.19z M876.06,106.4
		c0.479-0.287,0.856-0.684,1.13-1.19c0.272-0.507,0.41-1.08,0.41-1.72v-0.72h-0.381c-1.399,0-2.467,0.057-3.199,0.17
		c-0.733,0.113-1.247,0.307-1.54,0.58c-0.294,0.273-0.44,0.677-0.44,1.21c0,0.613,0.227,1.116,0.68,1.51s1.027,0.59,1.721,0.59
		C875.039,106.83,875.579,106.688,876.06,106.4z"/>
	<path d="M881.219,106.351l0.4-0.7c0.52,0.439,1.023,0.747,1.51,0.92c0.486,0.174,1.077,0.26,1.771,0.26
		c0.853,0,1.506-0.153,1.96-0.46c0.453-0.307,0.68-0.74,0.68-1.3c0-0.467-0.146-0.84-0.439-1.12c-0.294-0.28-0.768-0.5-1.421-0.66
		l-1.64-0.38c-0.76-0.173-1.363-0.49-1.81-0.95c-0.447-0.46-0.67-0.99-0.67-1.59c0-0.826,0.313-1.493,0.939-2
		c0.627-0.506,1.474-0.76,2.54-0.76c0.68,0,1.307,0.113,1.88,0.34c0.573,0.227,1.04,0.547,1.4,0.96l-0.4,0.72
		c-0.427-0.4-0.873-0.697-1.34-0.89c-0.467-0.193-0.979-0.29-1.54-0.29c-0.787,0-1.403,0.16-1.85,0.48
		c-0.447,0.32-0.67,0.76-0.67,1.32c0,0.493,0.136,0.883,0.409,1.17s0.703,0.503,1.29,0.65l1.66,0.4c1.721,0.4,2.58,1.247,2.58,2.54
		c0,0.8-0.327,1.444-0.979,1.93c-0.653,0.486-1.534,0.729-2.641,0.729C883.346,107.67,882.139,107.23,881.219,106.351z"/>
	<path d="M895.659,106.351l0.4-0.7c0.52,0.439,1.023,0.747,1.51,0.92c0.486,0.174,1.077,0.26,1.771,0.26
		c0.853,0,1.506-0.153,1.96-0.46c0.453-0.307,0.68-0.74,0.68-1.3c0-0.467-0.146-0.84-0.439-1.12c-0.294-0.28-0.768-0.5-1.421-0.66
		l-1.64-0.38c-0.76-0.173-1.363-0.49-1.81-0.95c-0.447-0.46-0.67-0.99-0.67-1.59c0-0.826,0.313-1.493,0.939-2
		c0.627-0.506,1.474-0.76,2.54-0.76c0.68,0,1.307,0.113,1.88,0.34c0.573,0.227,1.04,0.547,1.4,0.96l-0.4,0.72
		c-0.427-0.4-0.873-0.697-1.34-0.89c-0.467-0.193-0.979-0.29-1.54-0.29c-0.787,0-1.403,0.16-1.85,0.48
		c-0.447,0.32-0.67,0.76-0.67,1.32c0,0.493,0.136,0.883,0.409,1.17s0.703,0.503,1.29,0.65l1.66,0.4c1.721,0.4,2.58,1.247,2.58,2.54
		c0,0.8-0.327,1.444-0.979,1.93c-0.653,0.486-1.534,0.729-2.641,0.729C897.786,107.67,896.579,107.23,895.659,106.351z"/>
	<path d="M910.14,106.811l-0.04,0.779c-0.28,0.04-0.58,0.061-0.9,0.061c-1,0-1.77-0.29-2.31-0.87s-0.811-1.356-0.811-2.33v-5.88
		h-1.939v-0.72h1.939v-3.02h0.841v3.02h2.92v0.72h-2.92v5.7c0,0.853,0.199,1.5,0.6,1.939c0.4,0.44,0.993,0.66,1.78,0.66
		C909.606,106.87,909.886,106.851,910.14,106.811z"/>
	<path d="M916.62,98.37l-0.681,0.08c-1.093,0.107-1.89,0.463-2.39,1.07c-0.5,0.606-0.75,1.343-0.75,2.21v5.8h-0.84v-9.68h0.84v1.7
		c0.307-0.6,0.729-1.05,1.27-1.35c0.54-0.3,1.217-0.483,2.03-0.55l0.42-0.04L916.62,98.37z"/>
	<path d="M919.679,107.05c-0.653-0.413-1.159-1-1.52-1.76s-0.54-1.646-0.54-2.66c0-1,0.18-1.88,0.54-2.64
		c0.36-0.76,0.866-1.347,1.52-1.76s1.407-0.62,2.261-0.62c0.853,0,1.606,0.207,2.26,0.62s1.16,1,1.52,1.76
		c0.36,0.76,0.54,1.64,0.54,2.64c0,1.013-0.18,1.9-0.54,2.66c-0.359,0.76-0.866,1.347-1.52,1.76c-0.653,0.414-1.407,0.62-2.26,0.62
		C921.086,107.67,920.332,107.464,919.679,107.05z M924.469,105.761c0.594-0.727,0.891-1.771,0.891-3.13
		c0-1.32-0.304-2.35-0.91-3.09c-0.607-0.74-1.443-1.11-2.51-1.11c-1.067,0-1.903,0.37-2.511,1.11c-0.606,0.74-0.909,1.77-0.909,3.09
		c0,1.36,0.296,2.403,0.89,3.13c0.593,0.727,1.43,1.09,2.51,1.09C923.025,106.851,923.876,106.487,924.469,105.761z"/>
	<path d="M936.699,101.29v6.24h-0.841v-6.16c0-1.026-0.206-1.776-0.619-2.25c-0.414-0.473-1.08-0.71-2-0.71
		c-1.027,0-1.851,0.317-2.471,0.95s-0.93,1.477-0.93,2.53v5.64h-0.84v-9.68h0.819v1.74c0.294-0.64,0.737-1.13,1.33-1.47
		c0.594-0.34,1.271-0.51,2.03-0.51C935.525,97.61,936.699,98.837,936.699,101.29z"/>
	<path d="M948.039,97.85v9.22c0,1.387-0.326,2.433-0.979,3.14s-1.627,1.061-2.92,1.061c-1.613,0-2.98-0.46-4.101-1.38l0.4-0.7
		c0.666,0.479,1.267,0.81,1.8,0.99c0.533,0.18,1.173,0.27,1.92,0.27c1,0,1.76-0.276,2.28-0.83c0.52-0.554,0.78-1.363,0.78-2.43v-2.1
		c-0.28,0.694-0.717,1.223-1.311,1.59c-0.593,0.366-1.31,0.55-2.149,0.55c-0.854,0-1.61-0.2-2.271-0.601
		c-0.66-0.399-1.173-0.966-1.54-1.7c-0.367-0.733-0.55-1.573-0.55-2.52c0-0.946,0.183-1.783,0.55-2.51s0.88-1.29,1.54-1.69
		c0.66-0.4,1.417-0.6,2.271-0.6c0.826,0,1.533,0.18,2.119,0.54c0.587,0.36,1.027,0.874,1.32,1.54v-1.84H948.039z M946.289,105.34
		c0.606-0.713,0.91-1.69,0.91-2.93c0-1.24-0.304-2.213-0.91-2.92c-0.606-0.707-1.449-1.06-2.529-1.06c-1.067,0-1.91,0.354-2.53,1.06
		c-0.62,0.707-0.93,1.68-0.93,2.92c0,1.253,0.31,2.233,0.93,2.94c0.62,0.708,1.463,1.06,2.53,1.06
		C944.84,106.41,945.683,106.054,946.289,105.34z"/>
	<path d="M741.163,130.811l-0.04,0.779c-0.28,0.04-0.58,0.061-0.9,0.061c-1,0-1.77-0.29-2.31-0.87s-0.81-1.356-0.81-2.33v-5.88
		h-1.94v-0.72h1.94v-3.021h0.84v3.021h2.92v0.72h-2.92v5.7c0,0.854,0.2,1.5,0.6,1.939c0.4,0.44,0.993,0.66,1.78,0.66
		C740.629,130.87,740.909,130.851,741.163,130.811z"/>
	<path d="M744.382,131.05c-0.653-0.413-1.16-1-1.52-1.76s-0.54-1.646-0.54-2.66c0-1,0.18-1.88,0.54-2.64s0.867-1.347,1.52-1.76
		c0.653-0.413,1.406-0.62,2.26-0.62c0.853,0,1.607,0.207,2.26,0.62c0.653,0.413,1.16,1,1.52,1.76c0.36,0.76,0.54,1.64,0.54,2.64
		c0,1.014-0.18,1.9-0.54,2.66c-0.36,0.76-0.867,1.347-1.52,1.76c-0.653,0.414-1.407,0.62-2.26,0.62
		C745.789,131.67,745.035,131.464,744.382,131.05z M749.172,129.761c0.593-0.727,0.89-1.771,0.89-3.131
		c0-1.319-0.303-2.35-0.91-3.09c-0.607-0.74-1.443-1.109-2.51-1.109s-1.903,0.369-2.51,1.109c-0.607,0.74-0.91,1.771-0.91,3.09
		c0,1.36,0.296,2.404,0.89,3.131c0.593,0.727,1.43,1.09,2.51,1.09C747.729,130.851,748.579,130.487,749.172,129.761z"/>
	<path d="M761.603,117.431v14.1h-0.84v-1.96c-0.293,0.68-0.73,1.2-1.31,1.56c-0.58,0.36-1.277,0.54-2.09,0.54
		c-0.854,0-1.607-0.21-2.26-0.63c-0.653-0.42-1.16-1.013-1.52-1.779s-0.54-1.657-0.54-2.671c0-1,0.18-1.873,0.54-2.619
		c0.36-0.747,0.867-1.327,1.52-1.74c0.653-0.413,1.406-0.62,2.26-0.62c0.813,0,1.51,0.18,2.09,0.54c0.58,0.36,1.017,0.873,1.31,1.54
		v-6.26H761.603z M759.882,129.75c0.587-0.732,0.88-1.772,0.88-3.12c0-1.333-0.293-2.366-0.88-3.1s-1.42-1.1-2.5-1.1
		s-1.923,0.363-2.53,1.09c-0.607,0.727-0.91,1.75-0.91,3.069c0,1.334,0.303,2.377,0.91,3.131c0.606,0.753,1.443,1.13,2.51,1.13
		C758.456,130.851,759.295,130.483,759.882,129.75z"/>
	<path d="M772.062,125.19v6.34h-0.859v-1.78c-0.294,0.613-0.717,1.087-1.271,1.42c-0.554,0.334-1.183,0.5-1.89,0.5
		c-0.613,0-1.178-0.127-1.69-0.38s-0.92-0.603-1.22-1.05c-0.301-0.446-0.45-0.937-0.45-1.47c0-0.721,0.19-1.276,0.57-1.67
		s1.007-0.677,1.88-0.851c0.873-0.173,2.097-0.26,3.67-0.26h0.4v-0.84c0-0.946-0.188-1.637-0.561-2.07
		c-0.373-0.433-0.967-0.649-1.779-0.649c-0.627,0-1.204,0.083-1.73,0.25c-0.527,0.166-1.077,0.437-1.65,0.81l-0.4-0.72
		c0.494-0.36,1.064-0.644,1.711-0.851c0.646-0.206,1.297-0.31,1.949-0.31C770.955,121.61,772.062,122.804,772.062,125.19z
		 M769.661,130.4c0.48-0.287,0.857-0.684,1.131-1.19c0.273-0.506,0.41-1.08,0.41-1.72v-0.72h-0.381c-1.399,0-2.467,0.057-3.199,0.17
		c-0.734,0.113-1.247,0.307-1.541,0.58c-0.293,0.273-0.439,0.677-0.439,1.21c0,0.613,0.227,1.116,0.68,1.51s1.027,0.59,1.721,0.59
		C768.642,130.83,769.182,130.688,769.661,130.4z"/>
	<path d="M782.481,121.851h0.881l-5.681,13.279h-0.86l1.5-3.5l-4.16-9.779h0.9l3.7,8.939L782.481,121.851z"/>
	<path d="M797.481,125.19v6.34h-0.859v-1.78c-0.294,0.613-0.717,1.087-1.271,1.42c-0.554,0.334-1.183,0.5-1.89,0.5
		c-0.613,0-1.178-0.127-1.69-0.38s-0.92-0.603-1.22-1.05c-0.301-0.446-0.45-0.937-0.45-1.47c0-0.721,0.19-1.276,0.57-1.67
		s1.007-0.677,1.88-0.851c0.873-0.173,2.097-0.26,3.67-0.26h0.4v-0.84c0-0.946-0.188-1.637-0.561-2.07
		c-0.373-0.433-0.967-0.649-1.779-0.649c-0.627,0-1.204,0.083-1.73,0.25c-0.527,0.166-1.077,0.437-1.65,0.81l-0.4-0.72
		c0.494-0.36,1.064-0.644,1.711-0.851c0.646-0.206,1.297-0.31,1.949-0.31C796.375,121.61,797.481,122.804,797.481,125.19z
		 M795.081,130.4c0.48-0.287,0.857-0.684,1.131-1.19c0.273-0.506,0.41-1.08,0.41-1.72v-0.72h-0.381c-1.399,0-2.467,0.057-3.199,0.17
		c-0.734,0.113-1.247,0.307-1.541,0.58c-0.293,0.273-0.439,0.677-0.439,1.21c0,0.613,0.227,1.116,0.68,1.51s1.027,0.59,1.721,0.59
		C794.062,130.83,794.602,130.688,795.081,130.4z"/>
	<path d="M808.542,125.29v6.24h-0.84v-6.16c0-1.026-0.207-1.776-0.621-2.25c-0.413-0.473-1.08-0.71-2-0.71
		c-1.026,0-1.85,0.317-2.469,0.95c-0.621,0.634-0.931,1.477-0.931,2.53v5.64h-0.84v-9.68h0.819v1.739
		c0.293-0.64,0.736-1.13,1.33-1.47s1.271-0.51,2.03-0.51C807.368,121.61,808.542,122.837,808.542,125.29z"/>
	<path d="M819.801,117.431v14.1h-0.84v-1.96c-0.293,0.68-0.729,1.2-1.31,1.56c-0.58,0.36-1.277,0.54-2.09,0.54
		c-0.854,0-1.607-0.21-2.261-0.63s-1.159-1.013-1.52-1.779s-0.54-1.657-0.54-2.671c0-1,0.18-1.873,0.54-2.619
		c0.36-0.747,0.866-1.327,1.52-1.74s1.407-0.62,2.261-0.62c0.813,0,1.51,0.18,2.09,0.54s1.017,0.873,1.31,1.54v-6.26H819.801z
		 M818.081,129.75c0.587-0.732,0.88-1.772,0.88-3.12c0-1.333-0.293-2.366-0.88-3.1s-1.42-1.1-2.5-1.1s-1.923,0.363-2.53,1.09
		c-0.606,0.727-0.909,1.75-0.909,3.069c0,1.334,0.303,2.377,0.909,3.131c0.607,0.753,1.443,1.13,2.511,1.13
		C816.654,130.851,817.494,130.483,818.081,129.75z"/>
	<path d="M841.341,121.851h0.9l-3.44,9.68h-1l-3.06-8.64l-3.12,8.64h-1l-3.4-9.68h0.92l2.98,8.699l3.12-8.699h1.02l3.04,8.68
		L841.341,121.851z"/>
	<path d="M851.561,125.19v6.34h-0.859v-1.78c-0.294,0.613-0.717,1.087-1.271,1.42c-0.554,0.334-1.184,0.5-1.89,0.5
		c-0.613,0-1.177-0.127-1.69-0.38s-0.92-0.603-1.22-1.05c-0.3-0.446-0.45-0.937-0.45-1.47c0-0.721,0.19-1.276,0.57-1.67
		s1.007-0.677,1.88-0.851c0.873-0.173,2.097-0.26,3.67-0.26h0.4v-0.84c0-0.946-0.188-1.637-0.561-2.07
		c-0.373-0.433-0.967-0.649-1.78-0.649c-0.626,0-1.203,0.083-1.729,0.25c-0.527,0.166-1.077,0.437-1.65,0.81l-0.399-0.72
		c0.493-0.36,1.063-0.644,1.71-0.851c0.646-0.206,1.296-0.31,1.95-0.31C850.454,121.61,851.561,122.804,851.561,125.19z
		 M849.161,130.4c0.479-0.287,0.856-0.684,1.13-1.19c0.272-0.506,0.41-1.08,0.41-1.72v-0.72h-0.381c-1.399,0-2.467,0.057-3.199,0.17
		c-0.733,0.113-1.247,0.307-1.54,0.58c-0.294,0.273-0.44,0.677-0.44,1.21c0,0.613,0.227,1.116,0.68,1.51s1.027,0.59,1.721,0.59
		C848.141,130.83,848.681,130.688,849.161,130.4z"/>
	<path d="M854.32,130.351l0.4-0.7c0.52,0.439,1.023,0.747,1.51,0.92c0.486,0.174,1.077,0.26,1.771,0.26
		c0.853,0,1.506-0.153,1.96-0.46c0.453-0.307,0.68-0.74,0.68-1.3c0-0.467-0.146-0.84-0.439-1.12c-0.294-0.28-0.768-0.5-1.421-0.66
		l-1.64-0.38c-0.76-0.173-1.363-0.49-1.81-0.95c-0.447-0.46-0.67-0.989-0.67-1.59c0-0.826,0.313-1.493,0.939-2s1.474-0.76,2.54-0.76
		c0.68,0,1.307,0.113,1.88,0.34s1.04,0.547,1.4,0.96l-0.4,0.72c-0.427-0.399-0.873-0.696-1.34-0.89s-0.979-0.29-1.54-0.29
		c-0.787,0-1.403,0.16-1.85,0.48c-0.447,0.319-0.67,0.76-0.67,1.319c0,0.494,0.136,0.884,0.409,1.17
		c0.273,0.287,0.703,0.504,1.29,0.65l1.66,0.4c1.721,0.399,2.58,1.246,2.58,2.54c0,0.8-0.327,1.443-0.979,1.93
		c-0.653,0.486-1.534,0.729-2.641,0.729C856.447,131.67,855.24,131.23,854.32,130.351z"/>
	<path d="M876.86,121.851v9.68h-0.82v-1.82c-0.307,0.627-0.75,1.11-1.33,1.45s-1.236,0.51-1.97,0.51c-1.12,0-1.97-0.313-2.55-0.939
		s-0.87-1.547-0.87-2.76v-6.12h0.84v6.04c0,1.013,0.207,1.76,0.62,2.239c0.413,0.48,1.053,0.721,1.92,0.721
		c1,0,1.803-0.316,2.41-0.95c0.606-0.633,0.91-1.477,0.91-2.53v-5.52H876.86z"/>
	<path d="M887.961,125.29v6.24h-0.841v-6.16c0-1.026-0.206-1.776-0.619-2.25c-0.414-0.473-1.08-0.71-2-0.71
		c-1.027,0-1.851,0.317-2.471,0.95c-0.62,0.634-0.93,1.477-0.93,2.53v5.64h-0.84v-9.68h0.819v1.739c0.294-0.64,0.737-1.13,1.33-1.47
		c0.594-0.34,1.271-0.51,2.03-0.51C886.787,121.61,887.961,122.837,887.961,125.29z"/>
	<path d="M890.72,130.351l0.4-0.7c0.52,0.439,1.023,0.747,1.51,0.92c0.486,0.174,1.077,0.26,1.771,0.26
		c0.853,0,1.506-0.153,1.96-0.46c0.453-0.307,0.68-0.74,0.68-1.3c0-0.467-0.146-0.84-0.439-1.12c-0.294-0.28-0.768-0.5-1.421-0.66
		l-1.64-0.38c-0.76-0.173-1.363-0.49-1.81-0.95c-0.447-0.46-0.67-0.989-0.67-1.59c0-0.826,0.313-1.493,0.939-2s1.474-0.76,2.54-0.76
		c0.68,0,1.307,0.113,1.88,0.34s1.04,0.547,1.4,0.96l-0.4,0.72c-0.427-0.399-0.873-0.696-1.34-0.89s-0.979-0.29-1.54-0.29
		c-0.787,0-1.403,0.16-1.85,0.48c-0.447,0.319-0.67,0.76-0.67,1.319c0,0.494,0.136,0.884,0.409,1.17
		c0.273,0.287,0.703,0.504,1.29,0.65l1.66,0.4c1.721,0.399,2.58,1.246,2.58,2.54c0,0.8-0.327,1.443-0.979,1.93
		c-0.653,0.486-1.534,0.729-2.641,0.729C892.847,131.67,891.64,131.23,890.72,130.351z"/>
	<path d="M905.201,130.811l-0.04,0.779c-0.28,0.04-0.58,0.061-0.9,0.061c-1,0-1.77-0.29-2.31-0.87s-0.811-1.356-0.811-2.33v-5.88
		h-1.939v-0.72h1.939v-3.021h0.841v3.021h2.92v0.72h-2.92v5.7c0,0.854,0.199,1.5,0.6,1.939c0.4,0.44,0.993,0.66,1.78,0.66
		C904.668,130.87,904.947,130.851,905.201,130.811z"/>
	<path d="M914.08,125.19v6.34h-0.859v-1.78c-0.294,0.613-0.717,1.087-1.271,1.42c-0.554,0.334-1.184,0.5-1.89,0.5
		c-0.613,0-1.177-0.127-1.69-0.38s-0.92-0.603-1.22-1.05c-0.3-0.446-0.45-0.937-0.45-1.47c0-0.721,0.19-1.276,0.57-1.67
		s1.007-0.677,1.88-0.851c0.873-0.173,2.097-0.26,3.67-0.26h0.4v-0.84c0-0.946-0.188-1.637-0.561-2.07
		c-0.373-0.433-0.967-0.649-1.78-0.649c-0.626,0-1.203,0.083-1.729,0.25c-0.527,0.166-1.077,0.437-1.65,0.81l-0.399-0.72
		c0.493-0.36,1.063-0.644,1.71-0.851c0.646-0.206,1.296-0.31,1.95-0.31C912.974,121.61,914.08,122.804,914.08,125.19z
		 M911.681,130.4c0.479-0.287,0.856-0.684,1.13-1.19c0.272-0.506,0.41-1.08,0.41-1.72v-0.72h-0.381c-1.399,0-2.467,0.057-3.199,0.17
		c-0.733,0.113-1.247,0.307-1.54,0.58c-0.294,0.273-0.44,0.677-0.44,1.21c0,0.613,0.227,1.116,0.68,1.51s1.027,0.59,1.721,0.59
		C910.66,130.83,911.2,130.688,911.681,130.4z"/>
	<path d="M923.94,122.23c0.653,0.413,1.16,0.993,1.52,1.74c0.36,0.746,0.54,1.619,0.54,2.619c0,1.014-0.18,1.904-0.54,2.671
		c-0.359,0.767-0.866,1.359-1.52,1.779s-1.407,0.63-2.26,0.63c-0.813,0-1.511-0.18-2.091-0.54c-0.58-0.359-1.017-0.88-1.31-1.56
		v1.96h-0.84v-14.1h0.84v6.26c0.293-0.667,0.729-1.18,1.31-1.54s1.277-0.54,2.091-0.54
		C922.533,121.61,923.287,121.817,923.94,122.23z M924.181,129.73c0.6-0.747,0.899-1.793,0.899-3.141c0-1.319-0.3-2.343-0.899-3.069
		c-0.601-0.727-1.44-1.09-2.521-1.09s-1.913,0.366-2.5,1.1s-0.88,1.767-0.88,3.1c0,1.348,0.293,2.388,0.88,3.12
		c0.587,0.733,1.427,1.101,2.521,1.101C922.747,130.851,923.58,130.478,924.181,129.73z"/>
	<path d="M928.74,131.53v-14.1h0.84v14.1H928.74z"/>
	<path d="M940.761,126.771h-7.521c0.026,1.307,0.356,2.313,0.99,3.02c0.633,0.707,1.536,1.061,2.71,1.061
		c0.6,0,1.163-0.101,1.689-0.301c0.527-0.199,1.051-0.52,1.57-0.96l0.4,0.721c-0.414,0.413-0.947,0.743-1.601,0.989
		c-0.653,0.247-1.326,0.37-2.02,0.37c-1.44,0-2.577-0.446-3.41-1.34c-0.833-0.893-1.25-2.12-1.25-3.68c0-1,0.187-1.88,0.56-2.64
		c0.373-0.761,0.9-1.351,1.58-1.771c0.681-0.42,1.46-0.63,2.34-0.63c1.254,0,2.227,0.407,2.921,1.22
		c0.692,0.813,1.04,1.954,1.04,3.42V126.771z M934.351,123.34c-0.62,0.634-0.983,1.518-1.09,2.65h6.699
		c-0.026-1.16-0.313-2.05-0.859-2.67c-0.547-0.62-1.313-0.93-2.301-0.93C935.787,122.391,934.971,122.707,934.351,123.34z"/>
	<path d="M943.18,130.13h1.38v1.4h-1.38V130.13z"/>
	<path d="M737.762,141.431v6.56h9.48v0.76h-9.48v6.78h-0.84v-14.1H737.762z M747.262,141.431h0.84v14.1h-0.84V141.431z"/>
	<path d="M753.123,155.05c-0.653-0.413-1.16-1-1.52-1.76s-0.54-1.646-0.54-2.66c0-1,0.18-1.88,0.54-2.64s0.867-1.347,1.52-1.76
		c0.653-0.413,1.406-0.62,2.26-0.62c0.853,0,1.607,0.207,2.26,0.62c0.653,0.413,1.16,1,1.52,1.76c0.36,0.76,0.54,1.64,0.54,2.64
		c0,1.014-0.18,1.9-0.54,2.66c-0.36,0.76-0.867,1.347-1.52,1.76c-0.653,0.414-1.407,0.62-2.26,0.62
		C754.529,155.67,753.775,155.464,753.123,155.05z M757.913,153.761c0.593-0.727,0.89-1.771,0.89-3.131
		c0-1.319-0.303-2.35-0.91-3.09c-0.607-0.74-1.443-1.109-2.51-1.109s-1.903,0.369-2.51,1.109c-0.607,0.74-0.91,1.771-0.91,3.09
		c0,1.36,0.296,2.404,0.89,3.131c0.593,0.727,1.43,1.09,2.51,1.09C756.469,154.851,757.319,154.487,757.913,153.761z"/>
	<path d="M775.582,145.851h0.899l-3.439,9.68h-1l-3.061-8.64l-3.119,8.64h-1l-3.4-9.68h0.92l2.98,8.699l3.119-8.699h1.021l3.04,8.68
		L775.582,145.851z"/>
	<path d="M786.662,150.771h-7.521c0.027,1.307,0.357,2.313,0.99,3.02c0.633,0.707,1.537,1.061,2.711,1.061
		c0.6,0,1.162-0.101,1.689-0.301c0.526-0.199,1.05-0.52,1.57-0.96l0.399,0.721c-0.413,0.413-0.946,0.743-1.6,0.989
		c-0.653,0.247-1.327,0.37-2.021,0.37c-1.439,0-2.576-0.446-3.41-1.34c-0.833-0.893-1.25-2.12-1.25-3.68c0-1,0.188-1.88,0.561-2.64
		c0.373-0.761,0.9-1.351,1.58-1.771s1.46-0.63,2.34-0.63c1.253,0,2.227,0.407,2.92,1.22c0.693,0.813,1.04,1.954,1.04,3.42V150.771z
		 M780.252,147.34c-0.62,0.634-0.983,1.518-1.09,2.65h6.7c-0.027-1.16-0.313-2.05-0.86-2.67s-1.313-0.93-2.3-0.93
		C781.688,146.391,780.872,146.707,780.252,147.34z"/>
	<path d="M796.342,145.851h0.88l-4.119,9.68h-0.961l-4.119-9.68h0.899l3.7,8.939L796.342,145.851z"/>
	<path d="M807.062,150.771h-7.52c0.026,1.307,0.356,2.313,0.99,3.02c0.633,0.707,1.536,1.061,2.71,1.061
		c0.6,0,1.163-0.101,1.69-0.301c0.525-0.199,1.049-0.52,1.569-0.96l0.399,0.721c-0.412,0.413-0.946,0.743-1.6,0.989
		c-0.653,0.247-1.326,0.37-2.02,0.37c-1.44,0-2.577-0.446-3.41-1.34c-0.834-0.893-1.25-2.12-1.25-3.68c0-1,0.187-1.88,0.561-2.64
		c0.373-0.761,0.899-1.351,1.58-1.771c0.68-0.42,1.459-0.63,2.34-0.63c1.252,0,2.227,0.407,2.92,1.22
		c0.693,0.813,1.039,1.954,1.039,3.42V150.771z M800.651,147.34c-0.619,0.634-0.982,1.518-1.09,2.65h6.701
		c-0.027-1.16-0.314-2.05-0.861-2.67s-1.313-0.93-2.299-0.93C802.089,146.391,801.272,146.707,800.651,147.34z"/>
	<path d="M814.422,146.37l-0.681,0.08c-1.093,0.107-1.89,0.464-2.39,1.07s-0.75,1.343-0.75,2.21v5.8h-0.84v-9.68h0.84v1.699
		c0.307-0.6,0.729-1.05,1.27-1.35s1.217-0.483,2.03-0.55l0.42-0.04L814.422,146.37z"/>
	<path d="M829.101,141.431v14.1h-0.84v-1.96c-0.293,0.68-0.729,1.2-1.31,1.56c-0.58,0.36-1.277,0.54-2.09,0.54
		c-0.854,0-1.607-0.21-2.261-0.63s-1.159-1.013-1.52-1.779s-0.54-1.657-0.54-2.671c0-1,0.18-1.873,0.54-2.619
		c0.36-0.747,0.866-1.327,1.52-1.74s1.407-0.62,2.261-0.62c0.813,0,1.51,0.18,2.09,0.54s1.017,0.873,1.31,1.54v-6.26H829.101z
		 M827.381,153.75c0.587-0.732,0.88-1.772,0.88-3.12c0-1.333-0.293-2.366-0.88-3.1s-1.42-1.1-2.5-1.1s-1.923,0.363-2.53,1.09
		c-0.606,0.727-0.909,1.75-0.909,3.069c0,1.334,0.303,2.377,0.909,3.131c0.607,0.753,1.443,1.13,2.511,1.13
		C825.954,154.851,826.794,154.483,827.381,153.75z"/>
	<path d="M840.281,150.771h-7.521c0.026,1.307,0.356,2.313,0.99,3.02c0.633,0.707,1.536,1.061,2.71,1.061
		c0.6,0,1.163-0.101,1.689-0.301c0.527-0.199,1.051-0.52,1.57-0.96l0.4,0.721c-0.414,0.413-0.947,0.743-1.601,0.989
		c-0.653,0.247-1.326,0.37-2.02,0.37c-1.44,0-2.577-0.446-3.41-1.34c-0.833-0.893-1.25-2.12-1.25-3.68c0-1,0.187-1.88,0.56-2.64
		c0.373-0.761,0.9-1.351,1.58-1.771c0.681-0.42,1.46-0.63,2.34-0.63c1.254,0,2.227,0.407,2.921,1.22
		c0.692,0.813,1.04,1.954,1.04,3.42V150.771z M833.871,147.34c-0.62,0.634-0.983,1.518-1.09,2.65h6.699
		c-0.026-1.16-0.313-2.05-0.859-2.67c-0.547-0.62-1.313-0.93-2.301-0.93C835.308,146.391,834.491,146.707,833.871,147.34z"/>
	<path d="M842.38,154.351l0.4-0.7c0.52,0.439,1.023,0.747,1.51,0.92c0.486,0.174,1.077,0.26,1.771,0.26
		c0.853,0,1.506-0.153,1.96-0.46c0.453-0.307,0.68-0.74,0.68-1.3c0-0.467-0.146-0.84-0.439-1.12c-0.294-0.28-0.768-0.5-1.421-0.66
		l-1.64-0.38c-0.76-0.173-1.363-0.49-1.81-0.95c-0.447-0.46-0.67-0.989-0.67-1.59c0-0.826,0.313-1.493,0.939-2s1.474-0.76,2.54-0.76
		c0.68,0,1.307,0.113,1.88,0.34s1.04,0.547,1.4,0.96l-0.4,0.72c-0.427-0.399-0.873-0.696-1.34-0.89s-0.979-0.29-1.54-0.29
		c-0.787,0-1.403,0.16-1.85,0.48c-0.447,0.319-0.67,0.76-0.67,1.319c0,0.494,0.136,0.884,0.409,1.17
		c0.273,0.287,0.703,0.504,1.29,0.65l1.66,0.4c1.721,0.399,2.58,1.246,2.58,2.54c0,0.8-0.327,1.443-0.979,1.93
		c-0.653,0.486-1.534,0.729-2.641,0.729C844.507,155.67,843.3,155.23,842.38,154.351z"/>
	<path d="M859.001,146.24c0.653,0.42,1.16,1.01,1.52,1.771c0.36,0.76,0.54,1.646,0.54,2.659c0,1-0.18,1.877-0.54,2.63
		c-0.359,0.754-0.866,1.337-1.52,1.75c-0.653,0.414-1.407,0.62-2.26,0.62c-0.813,0-1.511-0.18-2.091-0.54
		c-0.58-0.359-1.017-0.88-1.31-1.56v5.56h-0.84v-13.279h0.84v1.819c0.293-0.666,0.729-1.176,1.31-1.529s1.277-0.53,2.091-0.53
		C857.594,145.61,858.348,145.82,859.001,146.24z M859.241,153.761c0.6-0.727,0.899-1.757,0.899-3.091c0-1.333-0.3-2.373-0.899-3.12
		c-0.601-0.746-1.434-1.119-2.5-1.119c-1.094,0-1.934,0.363-2.521,1.09s-0.88,1.764-0.88,3.109c0,1.348,0.293,2.388,0.88,3.12
		c0.587,0.733,1.42,1.101,2.5,1.101S858.641,154.487,859.241,153.761z"/>
	<path d="M863.581,141.891h1.279v1.26h-1.279V141.891z M863.801,155.53v-9.68h0.84v9.68H863.801z"/>
	<path d="M872.5,154.811l-0.04,0.779c-0.28,0.04-0.58,0.061-0.9,0.061c-1,0-1.77-0.29-2.31-0.87s-0.811-1.356-0.811-2.33v-5.88
		H866.5v-0.72h1.939v-3.021h0.841v3.021h2.92v0.72h-2.92v5.7c0,0.854,0.199,1.5,0.6,1.939c0.4,0.44,0.993,0.66,1.78,0.66
		C871.967,154.87,872.246,154.851,872.5,154.811z"/>
	<path d="M882.101,150.771h-7.521c0.026,1.307,0.356,2.313,0.99,3.02c0.633,0.707,1.536,1.061,2.71,1.061
		c0.6,0,1.163-0.101,1.689-0.301c0.527-0.199,1.051-0.52,1.57-0.96l0.4,0.721c-0.414,0.413-0.947,0.743-1.601,0.989
		c-0.653,0.247-1.326,0.37-2.02,0.37c-1.44,0-2.577-0.446-3.41-1.34c-0.833-0.893-1.25-2.12-1.25-3.68c0-1,0.187-1.88,0.56-2.64
		c0.373-0.761,0.9-1.351,1.58-1.771c0.681-0.42,1.46-0.63,2.34-0.63c1.254,0,2.227,0.407,2.921,1.22
		c0.692,0.813,1.04,1.954,1.04,3.42V150.771z M875.69,147.34c-0.62,0.634-0.983,1.518-1.09,2.65h6.699
		c-0.026-1.16-0.313-2.05-0.859-2.67c-0.547-0.62-1.313-0.93-2.301-0.93C877.127,146.391,876.311,146.707,875.69,147.34z"/>
	<path d="M894.18,154.811l-0.04,0.779c-0.28,0.04-0.58,0.061-0.9,0.061c-1,0-1.77-0.29-2.31-0.87s-0.811-1.356-0.811-2.33v-5.88
		h-1.939v-0.72h1.939v-3.021h0.841v3.021h2.92v0.72h-2.92v5.7c0,0.854,0.199,1.5,0.6,1.939c0.4,0.44,0.993,0.66,1.78,0.66
		C893.646,154.87,893.926,154.851,894.18,154.811z"/>
	<path d="M903.699,149.29v6.24h-0.841v-6.16c0-1.026-0.206-1.776-0.619-2.25c-0.414-0.473-1.08-0.71-2-0.71
		c-1.027,0-1.851,0.317-2.471,0.95c-0.62,0.634-0.93,1.477-0.93,2.53v5.64h-0.84v-14.1h0.84v6.119
		c0.293-0.626,0.733-1.106,1.32-1.439c0.586-0.333,1.26-0.5,2.02-0.5C902.525,145.61,903.699,146.837,903.699,149.29z"/>
	<path d="M906.84,141.891h1.279v1.26h-1.279V141.891z M907.06,155.53v-9.68h0.84v9.68H907.06z"/>
	<path d="M910.698,154.351l0.4-0.7c0.52,0.439,1.023,0.747,1.51,0.92c0.486,0.174,1.077,0.26,1.771,0.26
		c0.853,0,1.506-0.153,1.96-0.46c0.453-0.307,0.68-0.74,0.68-1.3c0-0.467-0.146-0.84-0.439-1.12c-0.294-0.28-0.768-0.5-1.421-0.66
		l-1.64-0.38c-0.76-0.173-1.363-0.49-1.81-0.95c-0.447-0.46-0.67-0.989-0.67-1.59c0-0.826,0.313-1.493,0.939-2s1.474-0.76,2.54-0.76
		c0.68,0,1.307,0.113,1.88,0.34s1.04,0.547,1.4,0.96l-0.4,0.72c-0.427-0.399-0.873-0.696-1.34-0.89s-0.979-0.29-1.54-0.29
		c-0.787,0-1.403,0.16-1.85,0.48c-0.447,0.319-0.67,0.76-0.67,1.319c0,0.494,0.136,0.884,0.409,1.17
		c0.273,0.287,0.703,0.504,1.29,0.65l1.66,0.4c1.721,0.399,2.58,1.246,2.58,2.54c0,0.8-0.327,1.443-0.979,1.93
		c-0.653,0.486-1.534,0.729-2.641,0.729C912.825,155.67,911.618,155.23,910.698,154.351z"/>
	<path d="M921.819,154.13v1.101c0,0.453-0.066,0.866-0.2,1.24c-0.133,0.373-0.359,0.713-0.68,1.02l-0.52-0.4
		c0.253-0.279,0.423-0.54,0.51-0.779c0.086-0.24,0.137-0.5,0.149-0.78h-0.64v-1.4H921.819z"/>
	<path d="M736.922,179.53v-14.1h0.82v14.1H736.922z"/>
	<path d="M752.782,170.24c0.653,0.42,1.16,1.01,1.52,1.771c0.36,0.76,0.54,1.646,0.54,2.659c0,1-0.18,1.877-0.54,2.63
		c-0.36,0.754-0.867,1.337-1.52,1.75c-0.654,0.414-1.407,0.62-2.26,0.62c-0.813,0-1.51-0.18-2.09-0.54
		c-0.58-0.359-1.017-0.88-1.31-1.56v5.56h-0.84v-13.279h0.84v1.819c0.293-0.666,0.73-1.176,1.31-1.529s1.276-0.53,2.09-0.53
		C751.375,169.61,752.128,169.82,752.782,170.24z M753.022,177.761c0.6-0.727,0.9-1.757,0.9-3.091c0-1.333-0.3-2.373-0.9-3.12
		c-0.6-0.746-1.434-1.119-2.5-1.119c-1.093,0-1.934,0.363-2.52,1.09c-0.587,0.727-0.88,1.764-0.88,3.109
		c0,1.348,0.293,2.388,0.88,3.12c0.586,0.733,1.42,1.101,2.5,1.101S752.422,178.487,753.022,177.761z"/>
	<path d="M758.982,179.05c-0.653-0.413-1.16-1-1.52-1.76s-0.54-1.646-0.54-2.66c0-1,0.18-1.88,0.54-2.64s0.867-1.347,1.52-1.76
		c0.653-0.413,1.406-0.62,2.26-0.62c0.853,0,1.607,0.207,2.26,0.62s1.159,1,1.521,1.76c0.359,0.76,0.539,1.64,0.539,2.64
		c0,1.014-0.18,1.9-0.539,2.66c-0.361,0.76-0.867,1.347-1.521,1.76c-0.653,0.414-1.407,0.62-2.26,0.62
		C760.388,179.67,759.635,179.464,758.982,179.05z M763.772,177.761c0.592-0.727,0.889-1.771,0.889-3.131
		c0-1.319-0.303-2.35-0.909-3.09s-1.443-1.109-2.51-1.109s-1.903,0.369-2.51,1.109c-0.607,0.74-0.91,1.771-0.91,3.09
		c0,1.36,0.296,2.404,0.89,3.131c0.593,0.727,1.43,1.09,2.51,1.09C762.329,178.851,763.179,178.487,763.772,177.761z"/>
	<path d="M781.441,169.851h0.899l-3.439,9.68h-1l-3.061-8.64l-3.119,8.64h-1l-3.4-9.68h0.92l2.98,8.699l3.119-8.699h1.021l3.04,8.68
		L781.441,169.851z"/>
	<path d="M792.521,174.771h-7.521c0.027,1.307,0.357,2.313,0.99,3.02c0.633,0.707,1.537,1.061,2.711,1.061
		c0.6,0,1.162-0.101,1.689-0.301c0.526-0.199,1.05-0.52,1.57-0.96l0.399,0.721c-0.413,0.413-0.946,0.743-1.6,0.989
		c-0.653,0.247-1.327,0.37-2.021,0.37c-1.439,0-2.576-0.446-3.41-1.34c-0.833-0.893-1.25-2.12-1.25-3.68c0-1,0.188-1.88,0.561-2.64
		c0.373-0.761,0.9-1.351,1.58-1.771s1.46-0.63,2.34-0.63c1.253,0,2.227,0.407,2.92,1.22c0.693,0.813,1.04,1.954,1.04,3.42V174.771z
		 M786.111,171.34c-0.62,0.634-0.983,1.518-1.09,2.65h6.7c-0.027-1.16-0.313-2.05-0.86-2.67s-1.313-0.93-2.3-0.93
		C787.548,170.391,786.731,170.707,786.111,171.34z"/>
	<path d="M799.881,170.37l-0.68,0.08c-1.094,0.107-1.89,0.464-2.39,1.07s-0.75,1.343-0.75,2.21v5.8h-0.84v-9.68h0.84v1.699
		c0.307-0.6,0.729-1.05,1.27-1.35s1.217-0.483,2.029-0.55l0.42-0.04L799.881,170.37z"/>
	<path d="M809.32,174.771h-7.52c0.026,1.307,0.356,2.313,0.99,3.02c0.633,0.707,1.536,1.061,2.71,1.061
		c0.6,0,1.163-0.101,1.689-0.301c0.527-0.199,1.051-0.52,1.57-0.96l0.399,0.721c-0.413,0.413-0.946,0.743-1.599,0.989
		c-0.654,0.247-1.328,0.37-2.021,0.37c-1.44,0-2.577-0.446-3.41-1.34c-0.833-0.893-1.25-2.12-1.25-3.68c0-1,0.187-1.88,0.56-2.64
		c0.373-0.761,0.9-1.351,1.58-1.771s1.461-0.63,2.34-0.63c1.254,0,2.227,0.407,2.92,1.22c0.693,0.813,1.04,1.954,1.04,3.42V174.771z
		 M802.911,171.34c-0.62,0.634-0.984,1.518-1.09,2.65h6.699c-0.026-1.16-0.313-2.05-0.859-2.67s-1.314-0.93-2.301-0.93
		C804.347,170.391,803.53,170.707,802.911,171.34z"/>
	<path d="M819.92,165.431v14.1h-0.84v-1.96c-0.293,0.68-0.729,1.2-1.31,1.56c-0.58,0.36-1.277,0.54-2.09,0.54
		c-0.854,0-1.607-0.21-2.261-0.63s-1.159-1.013-1.52-1.779s-0.54-1.657-0.54-2.671c0-1,0.18-1.873,0.54-2.619
		c0.36-0.747,0.866-1.327,1.52-1.74s1.407-0.62,2.261-0.62c0.813,0,1.51,0.18,2.09,0.54s1.017,0.873,1.31,1.54v-6.26H819.92z
		 M818.2,177.75c0.587-0.732,0.88-1.772,0.88-3.12c0-1.333-0.293-2.366-0.88-3.1s-1.42-1.1-2.5-1.1s-1.923,0.363-2.53,1.09
		c-0.606,0.727-0.909,1.75-0.909,3.069c0,1.334,0.303,2.377,0.909,3.131c0.607,0.753,1.443,1.13,2.511,1.13
		C816.773,178.851,817.613,178.483,818.2,177.75z"/>
	<path d="M832.7,178.811l-0.04,0.779c-0.28,0.04-0.58,0.061-0.9,0.061c-1,0-1.77-0.29-2.31-0.87s-0.811-1.356-0.811-2.33v-5.88
		H826.7v-0.72h1.939v-3.021h0.841v3.021h2.92v0.72h-2.92v5.7c0,0.854,0.199,1.5,0.6,1.939c0.4,0.44,0.993,0.66,1.78,0.66
		C832.167,178.87,832.446,178.851,832.7,178.811z"/>
	<path d="M842.221,173.29v6.24h-0.841v-6.16c0-1.026-0.206-1.776-0.619-2.25c-0.414-0.473-1.08-0.71-2-0.71
		c-1.027,0-1.851,0.317-2.471,0.95c-0.62,0.634-0.93,1.477-0.93,2.53v5.64h-0.84v-14.1h0.84v6.119
		c0.293-0.626,0.733-1.106,1.32-1.439c0.586-0.333,1.26-0.5,2.02-0.5C841.047,169.61,842.221,170.837,842.221,173.29z"/>
	<path d="M850.24,170.37l-0.681,0.08c-1.093,0.107-1.89,0.464-2.39,1.07s-0.75,1.343-0.75,2.21v5.8h-0.84v-9.68h0.84v1.699
		c0.307-0.6,0.729-1.05,1.27-1.35s1.217-0.483,2.03-0.55l0.42-0.04L850.24,170.37z"/>
	<path d="M853.3,179.05c-0.653-0.413-1.159-1-1.52-1.76s-0.54-1.646-0.54-2.66c0-1,0.18-1.88,0.54-2.64s0.866-1.347,1.52-1.76
		s1.407-0.62,2.261-0.62c0.853,0,1.606,0.207,2.26,0.62s1.16,1,1.52,1.76c0.36,0.76,0.54,1.64,0.54,2.64c0,1.014-0.18,1.9-0.54,2.66
		c-0.359,0.76-0.866,1.347-1.52,1.76c-0.653,0.414-1.407,0.62-2.26,0.62C854.707,179.67,853.953,179.464,853.3,179.05z
		 M858.09,177.761c0.594-0.727,0.891-1.771,0.891-3.131c0-1.319-0.304-2.35-0.91-3.09c-0.607-0.74-1.443-1.109-2.51-1.109
		c-1.067,0-1.903,0.369-2.511,1.109c-0.606,0.74-0.909,1.771-0.909,3.09c0,1.36,0.296,2.404,0.89,3.131
		c0.593,0.727,1.43,1.09,2.51,1.09C856.646,178.851,857.497,178.487,858.09,177.761z"/>
	<path d="M870.12,169.851v9.68h-0.82v-1.82c-0.307,0.627-0.75,1.11-1.33,1.45s-1.236,0.51-1.97,0.51c-1.12,0-1.97-0.313-2.55-0.939
		s-0.87-1.547-0.87-2.76v-6.12h0.84v6.04c0,1.013,0.207,1.76,0.62,2.239c0.413,0.48,1.053,0.721,1.92,0.721
		c1,0,1.803-0.316,2.41-0.95c0.606-0.633,0.91-1.477,0.91-2.53v-5.52H870.12z"/>
	<path d="M881.499,169.851v9.22c0,1.387-0.326,2.433-0.979,3.14s-1.627,1.061-2.92,1.061c-1.613,0-2.98-0.46-4.101-1.38l0.4-0.7
		c0.666,0.479,1.267,0.81,1.8,0.99c0.533,0.18,1.173,0.27,1.92,0.27c1,0,1.76-0.276,2.28-0.83c0.52-0.554,0.78-1.363,0.78-2.43
		v-2.101c-0.28,0.694-0.717,1.224-1.311,1.591c-0.593,0.366-1.31,0.55-2.149,0.55c-0.854,0-1.61-0.2-2.271-0.601
		c-0.66-0.399-1.173-0.966-1.54-1.699s-0.55-1.573-0.55-2.521c0-0.946,0.183-1.783,0.55-2.51s0.88-1.29,1.54-1.69
		c0.66-0.399,1.417-0.6,2.271-0.6c0.826,0,1.533,0.18,2.119,0.54c0.587,0.36,1.027,0.873,1.32,1.54v-1.84H881.499z M879.749,177.34
		c0.606-0.713,0.91-1.689,0.91-2.93s-0.304-2.213-0.91-2.92c-0.606-0.706-1.449-1.06-2.529-1.06c-1.067,0-1.91,0.354-2.53,1.06
		c-0.62,0.707-0.93,1.68-0.93,2.92c0,1.254,0.31,2.233,0.93,2.94s1.463,1.06,2.53,1.06C878.3,178.41,879.143,178.054,879.749,177.34
		z"/>
	<path d="M892.6,173.29v6.24h-0.841v-6.16c0-1.026-0.206-1.776-0.619-2.25c-0.414-0.473-1.08-0.71-2-0.71
		c-1.027,0-1.851,0.317-2.471,0.95c-0.62,0.634-0.93,1.477-0.93,2.53v5.64h-0.84v-14.1h0.84v6.119
		c0.293-0.626,0.733-1.106,1.32-1.439c0.586-0.333,1.26-0.5,2.02-0.5C891.426,169.61,892.6,170.837,892.6,173.29z"/>
	<path d="M895.68,178.13h1.38v1.4h-1.38V178.13z"/>
</g>
<g>
	<path d="M1114.984,106.161h3.141v0.76h-7.101v-0.76h3.14v-12.12l-2.539,1.68l-0.521-0.7l3.06-2.06v-0.02l0.2-0.12h0.62V106.161z"/>
	<path d="M1129.795,99.441c0.779,0.813,1.17,1.887,1.17,3.22c0,0.853-0.181,1.613-0.54,2.28c-0.36,0.667-0.874,1.187-1.54,1.56
		c-0.667,0.374-1.447,0.56-2.34,0.56c-0.827,0-1.644-0.163-2.45-0.49c-0.807-0.327-1.504-0.783-2.09-1.37l0.42-0.7
		c1.293,1.173,2.666,1.76,4.12,1.76c1.08,0,1.937-0.33,2.569-0.99c0.634-0.66,0.95-1.537,0.95-2.63c0-1.067-0.31-1.933-0.93-2.6
		c-0.62-0.667-1.438-1-2.45-1c-0.8,0-1.487,0.16-2.06,0.48c-0.574,0.32-1.074,0.827-1.5,1.52h-0.761v-8.22h8.101v0.78h-7.28v6.2
		c0.387-0.506,0.877-0.896,1.47-1.17c0.594-0.273,1.243-0.41,1.95-0.41C1127.951,98.221,1129.015,98.628,1129.795,99.441z"/>
	<path d="M1132.585,108.081l-0.82-0.3l5.06-15.78l0.82,0.3L1132.585,108.081z"/>
	<path d="M1144.104,106.161h3.141v0.76h-7.101v-0.76h3.14v-12.12l-2.539,1.68l-0.521-0.7l3.06-2.06v-0.02l0.2-0.12h0.62V106.161z"/>
	<path d="M1156.104,106.161h3.141v0.76h-7.101v-0.76h3.14v-12.12l-2.539,1.68l-0.521-0.7l3.06-2.06v-0.02l0.2-0.12h0.62V106.161z"/>
	<path d="M1161.704,108.081l-0.82-0.3l5.06-15.78l0.82,0.3L1161.704,108.081z"/>
	<path d="M1173.224,106.161h3.141v0.76h-7.101v-0.76h3.14v-12.12l-2.539,1.68l-0.521-0.7l3.06-2.06v-0.02l0.2-0.12h0.62V106.161z"/>
	<path d="M1179.943,92.821h8.86v0.62l-6.78,13.48h-0.899l6.72-13.34h-7.9V92.821z"/>
	<path d="M1196.822,102.001v-0.76h5.28v0.76H1196.822z"/>
	<path d="M1218.692,101.011c0.473,0.62,0.71,1.364,0.71,2.23c0,1.2-0.417,2.137-1.25,2.81c-0.834,0.673-2.037,1.01-3.61,1.01
		s-2.777-0.337-3.61-1.01c-0.833-0.673-1.25-1.61-1.25-2.81c0-0.866,0.237-1.613,0.71-2.24c0.474-0.626,1.123-1.06,1.95-1.3
		c-0.72-0.266-1.29-0.693-1.71-1.28c-0.42-0.586-0.63-1.267-0.63-2.04c0-1.146,0.394-2.053,1.18-2.72c0.787-0.667,1.907-1,3.36-1
		s2.573,0.333,3.36,1c0.786,0.667,1.18,1.573,1.18,2.72c0,0.773-0.214,1.454-0.64,2.04c-0.428,0.587-1,1.014-1.721,1.28
		C1217.562,99.954,1218.219,100.391,1218.692,101.011z M1218.502,103.221c0-2.026-1.32-3.04-3.96-3.04s-3.96,1.014-3.96,3.04
		c0,2.027,1.32,3.04,3.96,3.04S1218.502,105.248,1218.502,103.221z M1211.832,98.571c0.62,0.527,1.523,0.79,2.71,0.79
		s2.09-0.263,2.71-0.79c0.62-0.526,0.93-1.256,0.93-2.19c0-0.92-0.31-1.637-0.93-2.15s-1.523-0.77-2.71-0.77s-2.09,0.257-2.71,0.77
		s-0.93,1.23-0.93,2.15C1210.902,97.314,1211.212,98.044,1211.832,98.571z"/>
	<path d="M1221.962,97.241h1.38v1.4h-1.38V97.241z M1221.962,105.521h1.38v1.4h-1.38V105.521z"/>
	<path d="M1234.382,100.901c0.44,0.587,0.66,1.327,0.66,2.22c0,1.213-0.383,2.173-1.149,2.88c-0.768,0.707-1.811,1.06-3.13,1.06
		c-0.881,0-1.724-0.16-2.53-0.48c-0.807-0.32-1.504-0.78-2.09-1.38l0.42-0.7c0.653,0.6,1.323,1.043,2.01,1.33s1.423,0.43,2.21,0.43
		c1.08,0,1.917-0.267,2.51-0.8c0.594-0.533,0.891-1.293,0.891-2.28c0-1-0.313-1.756-0.94-2.27s-1.547-0.77-2.76-0.77h-1.4v-0.78
		h1.101c1.159,0,2.066-0.283,2.72-0.85c0.653-0.566,0.979-1.356,0.979-2.37c0-0.854-0.26-1.513-0.779-1.98
		c-0.521-0.467-1.247-0.7-2.181-0.7c-0.733,0-1.437,0.144-2.109,0.43c-0.674,0.287-1.351,0.73-2.03,1.33l-0.42-0.7
		c0.573-0.586,1.257-1.043,2.05-1.37s1.623-0.49,2.49-0.49c1.187,0,2.126,0.313,2.82,0.94c0.692,0.626,1.04,1.48,1.04,2.56
		c0,0.827-0.204,1.553-0.61,2.18c-0.407,0.627-0.964,1.074-1.67,1.34C1233.309,99.908,1233.942,100.314,1234.382,100.901z"/>
	<path d="M1239.242,105.251c-0.813-1.22-1.22-3.01-1.22-5.37c0-2.373,0.403-4.17,1.21-5.39c0.807-1.22,1.99-1.83,3.55-1.83
		s2.743,0.606,3.55,1.82s1.21,3.007,1.21,5.38c0,2.36-0.406,4.153-1.22,5.38c-0.813,1.227-1.993,1.84-3.54,1.84
		S1240.056,106.471,1239.242,105.251z M1245.692,104.681c0.633-1.04,0.95-2.646,0.95-4.82c0-2.187-0.313-3.796-0.94-4.83
		c-0.627-1.033-1.6-1.55-2.92-1.55c-1.307,0-2.277,0.52-2.91,1.56s-0.95,2.647-0.95,4.82c0,2.16,0.317,3.764,0.95,4.81
		c0.633,1.047,1.604,1.57,2.91,1.57S1245.059,105.721,1245.692,104.681z"/>
	<path d="M1261.502,106.921l-1.68-3.9h-7.82l-1.68,3.9h-0.86l6.061-14.1h0.8l6.06,14.1H1261.502z M1252.342,102.221h7.141
		l-3.561-8.32L1252.342,102.221z"/>
	<path d="M1277.201,92.821h0.74v14.1h-0.82l0.021-12.34l-5.32,10.14h-0.68l-5.36-10.06l0.021,12.26h-0.82v-14.1h0.72l5.78,11.1
		L1277.201,92.821z"/>
</g>
<g>
	<path d="M1111.5,223.16c-0.826-0.307-1.573-0.787-2.24-1.44l0.421-0.7c0.706,0.654,1.413,1.114,2.119,1.381
		c0.707,0.267,1.573,0.399,2.601,0.399c1.267,0,2.246-0.263,2.939-0.79c0.693-0.526,1.04-1.276,1.04-2.25
		c0-0.56-0.173-1.013-0.52-1.359s-0.773-0.61-1.28-0.79c-0.507-0.181-1.187-0.37-2.04-0.57c-1.146-0.28-2.03-0.53-2.649-0.75
		c-0.62-0.22-1.174-0.587-1.66-1.1c-0.487-0.514-0.73-1.211-0.73-2.091c0-0.786,0.197-1.473,0.59-2.06
		c0.394-0.587,0.96-1.04,1.7-1.36c0.74-0.319,1.604-0.479,2.59-0.479c1.934,0,3.514,0.633,4.74,1.899l-0.42,0.7
		c-0.667-0.626-1.344-1.08-2.03-1.359c-0.687-0.28-1.449-0.421-2.29-0.421c-1.267,0-2.253,0.273-2.96,0.82s-1.06,1.313-1.06,2.3
		c0,0.854,0.307,1.483,0.92,1.891c0.613,0.406,1.473,0.75,2.58,1.029l0.86,0.2c0.96,0.214,1.739,0.431,2.34,0.65
		c0.6,0.22,1.109,0.563,1.529,1.03s0.631,1.093,0.631,1.88c0,0.746-0.2,1.406-0.601,1.979c-0.399,0.573-0.963,1.021-1.689,1.34
		c-0.728,0.32-1.57,0.48-2.53,0.48C1113.293,223.62,1112.327,223.467,1111.5,223.16z"/>
	<path d="M1129.4,213.78v9.68h-0.82v-1.82c-0.307,0.627-0.75,1.11-1.33,1.45s-1.236,0.51-1.97,0.51c-1.12,0-1.97-0.313-2.55-0.939
		s-0.87-1.547-0.87-2.76v-6.12h0.84v6.04c0,1.013,0.207,1.76,0.62,2.239c0.413,0.48,1.053,0.721,1.92,0.721
		c1,0,1.803-0.316,2.41-0.95c0.606-0.633,0.91-1.477,0.91-2.53v-5.52H1129.4z"/>
	<path d="M1140.5,217.22v6.24h-0.841v-6.16c0-1.026-0.206-1.776-0.619-2.25c-0.414-0.473-1.08-0.71-2-0.71
		c-1.027,0-1.851,0.317-2.471,0.95c-0.62,0.634-0.93,1.477-0.93,2.53v5.64h-0.84v-9.68h0.819v1.739c0.294-0.64,0.737-1.13,1.33-1.47
		c0.594-0.34,1.271-0.51,2.03-0.51C1139.326,213.54,1140.5,214.767,1140.5,217.22z"/>
	<path d="M1151.561,217.22v6.24h-0.841v-6.16c0-1.026-0.206-1.776-0.619-2.25c-0.414-0.473-1.08-0.71-2-0.71
		c-1.027,0-1.851,0.317-2.471,0.95c-0.62,0.634-0.93,1.477-0.93,2.53v5.64h-0.84v-9.68h0.819v1.739c0.294-0.64,0.737-1.13,1.33-1.47
		c0.594-0.34,1.271-0.51,2.03-0.51C1150.387,213.54,1151.561,214.767,1151.561,217.22z"/>
	<path d="M1161.979,213.78h0.88l-5.68,13.279h-0.86l1.5-3.5l-4.159-9.779h0.899l3.7,8.939L1161.979,213.78z"/>
</g>
<g>
	<path d="M1396.973,100.301c0.779,0.813,1.17,1.888,1.17,3.221c0,0.854-0.181,1.613-0.54,2.279c-0.36,0.667-0.874,1.188-1.54,1.561
		c-0.667,0.373-1.447,0.56-2.34,0.56c-0.827,0-1.644-0.163-2.45-0.489c-0.807-0.327-1.504-0.783-2.09-1.37l0.42-0.7
		c1.293,1.174,2.666,1.76,4.12,1.76c1.08,0,1.937-0.33,2.569-0.99c0.634-0.659,0.95-1.536,0.95-2.63c0-1.066-0.31-1.933-0.93-2.6
		s-1.438-1-2.45-1c-0.8,0-1.487,0.16-2.06,0.479c-0.574,0.32-1.074,0.827-1.5,1.521h-0.761v-8.22h8.101v0.779h-7.28v6.2
		c0.387-0.507,0.877-0.896,1.47-1.17c0.594-0.273,1.243-0.41,1.95-0.41C1395.129,99.081,1396.192,99.488,1396.973,100.301z"/>
	<path d="M1401.782,106.111c-0.813-1.22-1.22-3.01-1.22-5.37c0-2.373,0.403-4.17,1.21-5.39c0.807-1.221,1.99-1.83,3.55-1.83
		s2.743,0.606,3.55,1.819c0.807,1.214,1.21,3.007,1.21,5.381c0,2.359-0.406,4.153-1.22,5.38s-1.993,1.84-3.54,1.84
		S1402.596,107.331,1401.782,106.111z M1408.232,105.541c0.633-1.04,0.95-2.646,0.95-4.819c0-2.187-0.313-3.797-0.94-4.83
		s-1.6-1.551-2.92-1.551c-1.307,0-2.277,0.521-2.91,1.561s-0.95,2.646-0.95,4.82c0,2.159,0.317,3.763,0.95,4.81
		s1.604,1.57,2.91,1.57S1407.599,106.581,1408.232,105.541z"/>
	<path d="M1421.473,101.871c0.473,0.62,0.71,1.363,0.71,2.23c0,1.199-0.417,2.137-1.25,2.81c-0.834,0.674-2.037,1.01-3.61,1.01
		s-2.777-0.336-3.61-1.01c-0.833-0.673-1.25-1.61-1.25-2.81c0-0.867,0.237-1.613,0.71-2.24c0.474-0.627,1.123-1.061,1.95-1.3
		c-0.72-0.267-1.29-0.693-1.71-1.28s-0.63-1.267-0.63-2.04c0-1.146,0.394-2.053,1.18-2.72c0.787-0.667,1.907-1,3.36-1
		s2.573,0.333,3.36,1c0.786,0.667,1.18,1.573,1.18,2.72c0,0.773-0.214,1.453-0.64,2.04c-0.428,0.587-1,1.014-1.721,1.28
		C1420.342,100.814,1420.999,101.251,1421.473,101.871z M1421.282,104.081c0-2.026-1.32-3.04-3.96-3.04s-3.96,1.014-3.96,3.04
		c0,2.027,1.32,3.04,3.96,3.04S1421.282,106.108,1421.282,104.081z M1414.612,99.432c0.62,0.526,1.523,0.79,2.71,0.79
		s2.09-0.264,2.71-0.79c0.62-0.527,0.93-1.257,0.93-2.19c0-0.92-0.31-1.637-0.93-2.15c-0.62-0.513-1.523-0.77-2.71-0.77
		s-2.09,0.257-2.71,0.77c-0.62,0.514-0.93,1.23-0.93,2.15C1413.683,98.175,1413.992,98.904,1414.612,99.432z"/>
	<path d="M1425.781,106.111c-0.813-1.22-1.22-3.01-1.22-5.37c0-2.373,0.403-4.17,1.21-5.39c0.807-1.221,1.99-1.83,3.55-1.83
		s2.743,0.606,3.55,1.819c0.807,1.214,1.21,3.007,1.21,5.381c0,2.359-0.406,4.153-1.22,5.38s-1.993,1.84-3.54,1.84
		S1426.595,107.331,1425.781,106.111z M1432.231,105.541c0.633-1.04,0.95-2.646,0.95-4.819c0-2.187-0.313-3.797-0.94-4.83
		s-1.6-1.551-2.92-1.551c-1.307,0-2.277,0.521-2.91,1.561s-0.95,2.646-0.95,4.82c0,2.159,0.317,3.763,0.95,4.81
		s1.604,1.57,2.91,1.57S1431.598,106.581,1432.231,105.541z"/>
	<path d="M1441.941,107.781v-14.1h0.84v14.1H1441.941z"/>
	<path d="M1452.682,98.481c0.653,0.413,1.16,0.993,1.52,1.74c0.36,0.746,0.54,1.619,0.54,2.619c0,1.014-0.18,1.904-0.54,2.671
		c-0.359,0.767-0.866,1.359-1.52,1.779s-1.407,0.63-2.26,0.63c-0.813,0-1.511-0.18-2.091-0.54c-0.58-0.359-1.017-0.88-1.31-1.56
		v1.96h-0.84v-14.1h0.84v6.26c0.293-0.667,0.729-1.18,1.31-1.54s1.277-0.54,2.091-0.54
		C1451.274,97.861,1452.028,98.068,1452.682,98.481z M1452.922,105.981c0.6-0.747,0.899-1.793,0.899-3.141
		c0-1.319-0.3-2.343-0.899-3.069c-0.601-0.727-1.44-1.09-2.521-1.09s-1.913,0.366-2.5,1.1s-0.88,1.767-0.88,3.1
		c0,1.348,0.293,2.388,0.88,3.12c0.587,0.733,1.427,1.101,2.521,1.101C1451.488,107.102,1452.321,106.729,1452.922,105.981z"/>
	<path d="M1456.881,106.602l0.4-0.7c0.52,0.439,1.023,0.747,1.51,0.92c0.486,0.174,1.077,0.26,1.771,0.26
		c0.853,0,1.506-0.153,1.96-0.46c0.453-0.307,0.68-0.74,0.68-1.3c0-0.467-0.146-0.84-0.439-1.12c-0.294-0.28-0.768-0.5-1.421-0.66
		l-1.64-0.38c-0.76-0.173-1.363-0.49-1.81-0.95c-0.447-0.46-0.67-0.989-0.67-1.59c0-0.826,0.313-1.493,0.939-2s1.474-0.76,2.54-0.76
		c0.68,0,1.307,0.113,1.88,0.34s1.04,0.547,1.4,0.96l-0.4,0.72c-0.427-0.399-0.873-0.696-1.34-0.89s-0.979-0.29-1.54-0.29
		c-0.787,0-1.403,0.16-1.85,0.48c-0.447,0.319-0.67,0.76-0.67,1.319c0,0.494,0.136,0.884,0.409,1.17
		c0.273,0.287,0.703,0.504,1.29,0.65l1.66,0.4c1.721,0.399,2.58,1.246,2.58,2.54c0,0.8-0.327,1.443-0.979,1.93
		c-0.653,0.486-1.534,0.729-2.641,0.729C1459.008,107.921,1457.801,107.481,1456.881,106.602z"/>
	<path d="M1466.621,106.381h1.38v1.4h-1.38V106.381z"/>
</g>
<g>
	<path d="M28.244,135.245l-0.4,5.5c-0.967,0.133-1.934,0.2-2.9,0.2c-3.734,0-6.458-0.816-8.175-2.45
		c-1.717-1.633-2.575-4.116-2.575-7.45v-9.4h-4.65v-5.65h4.65v-7.2h7.55v7.2h6.15v5.65h-6.15v9.35c0,2.934,1.367,4.399,4.1,4.399
		C26.61,135.395,27.41,135.345,28.244,135.245z"/>
	<path d="M53.693,129.695h-16c0.233,1.967,0.875,3.392,1.925,4.274c1.05,0.884,2.542,1.325,4.475,1.325
		c1.267,0,2.525-0.208,3.775-0.625c1.25-0.416,2.392-1.008,3.425-1.775l2,5.051c-1.2,0.934-2.659,1.667-4.375,2.199
		c-1.717,0.533-3.442,0.801-5.175,0.801c-4.133,0-7.392-1.142-9.775-3.426c-2.383-2.282-3.575-5.391-3.575-9.325
		c0-2.5,0.516-4.716,1.55-6.65c1.033-1.933,2.466-3.441,4.3-4.525c1.833-1.083,3.917-1.625,6.25-1.625
		c3.433,0,6.158,1.117,8.175,3.35c2.016,2.233,3.025,5.267,3.025,9.1V129.695z M39.269,121.97c-0.85,0.917-1.375,2.242-1.575,3.975
		h9.65c-0.1-1.766-0.542-3.1-1.325-4c-0.784-0.9-1.893-1.35-3.325-1.35C41.26,120.595,40.118,121.054,39.269,121.97z"/>
	<path d="M80.193,117.97c1.433,1.717,2.15,4.309,2.15,7.775v14.8h-7.55v-14.45c0-1.666-0.309-2.883-0.925-3.65
		c-0.617-0.766-1.575-1.15-2.875-1.15c-1.567,0-2.825,0.5-3.775,1.5s-1.425,2.333-1.425,4v13.75h-7.55v-24.55h7.35v3.5
		c0.866-1.333,1.991-2.35,3.375-3.05c1.383-0.7,2.941-1.05,4.675-1.05C76.576,115.395,78.759,116.253,80.193,117.97z"/>
	<path d="M107.017,117.995c1.75,1.733,2.625,4.417,2.625,8.05v14.5h-7.15v-3.65c-0.5,1.268-1.333,2.259-2.5,2.976
		c-1.167,0.716-2.534,1.075-4.1,1.075c-1.667,0-3.175-0.334-4.525-1c-1.35-0.667-2.417-1.601-3.2-2.801
		c-0.784-1.199-1.175-2.532-1.175-4c0-1.8,0.458-3.216,1.375-4.25c0.917-1.032,2.392-1.782,4.425-2.25
		c2.033-0.466,4.816-0.7,8.35-0.7h1.3v-0.9c0-1.466-0.317-2.5-0.95-3.1c-0.633-0.6-1.733-0.9-3.3-0.9c-1.2,0-2.534,0.217-4,0.65
		c-1.467,0.434-2.867,1.034-4.2,1.8l-2-5.05c1.4-0.866,3.125-1.591,5.175-2.175c2.05-0.583,3.958-0.875,5.725-0.875
		C102.559,115.395,105.267,116.262,107.017,117.995z M101.092,134.27c0.9-0.982,1.35-2.258,1.35-3.824v-0.851h-0.85
		c-2.7,0-4.592,0.218-5.675,0.65c-1.084,0.434-1.625,1.217-1.625,2.35c0,0.9,0.308,1.65,0.925,2.25c0.616,0.601,1.392,0.9,2.325,0.9
		C99.009,135.745,100.192,135.254,101.092,134.27z"/>
	<path d="M117.542,137.545c-2.3-2.267-3.45-5.35-3.45-9.25c0-2.566,0.55-4.825,1.65-6.775c1.1-1.95,2.65-3.458,4.65-4.525
		c2-1.066,4.316-1.6,6.95-1.6c1.8,0,3.533,0.275,5.2,0.825c1.667,0.55,3.017,1.292,4.05,2.225l-2,5.15
		c-0.967-0.766-2.025-1.357-3.175-1.775c-1.15-0.417-2.275-0.625-3.375-0.625c-1.967,0-3.492,0.583-4.575,1.75
		c-1.084,1.167-1.625,2.9-1.625,5.2s0.541,4.042,1.625,5.225c1.083,1.184,2.607,1.774,4.575,1.774c1.1,0,2.225-0.207,3.375-0.625
		c1.15-0.416,2.208-1.008,3.175-1.774l2,5.2c-1.1,0.934-2.5,1.667-4.2,2.199c-1.7,0.533-3.5,0.801-5.4,0.801
		C122.992,140.945,119.842,139.813,117.542,137.545z"/>
	<path d="M139.741,104.195h8.1v7.05h-8.1V104.195z M139.991,140.545v-24.55h7.55v24.55H139.991z"/>
	<path d="M169.341,135.245l-0.4,5.5c-0.967,0.133-1.934,0.2-2.9,0.2c-3.734,0-6.458-0.816-8.175-2.45
		c-1.717-1.633-2.575-4.116-2.575-7.45v-9.4h-4.65v-5.65h4.65v-7.2h7.55v7.2h6.15v5.65h-6.15v9.35c0,2.934,1.367,4.399,4.1,4.399
		C167.708,135.395,168.507,135.345,169.341,135.245z"/>
	<path d="M190.19,116.045h7.4l-14.8,33.5h-7.65l4.7-10.35l-10.1-23.15h7.85l6.2,15.6L190.19,116.045z"/>
</g>
</svg>
