<?xml version="1.0" encoding="utf-8"?>
<!-- Generator: Adobe Illustrator 16.0.0, SVG Export Plug-In . SVG Version: 6.00 Build 0)  -->
<!DOCTYPE svg PUBLIC "-//W3C//DTD SVG 1.1//EN" "http://www.w3.org/Graphics/SVG/1.1/DTD/svg11.dtd">
<svg version="1.1" id="Layer_1" xmlns="http://www.w3.org/2000/svg" xmlns:xlink="http://www.w3.org/1999/xlink" x="0px" y="0px"
	 width="1000px" height="1072px" viewBox="0 0 1000 1072" enable-background="new 0 0 1000 1072" xml:space="preserve">
<path fill="none" stroke="#989898" stroke-width="4" stroke-miterlimit="10" stroke-dasharray="12" d="M388.483,96.818
	c0,0,250.91-9.091,267.273,83.636S641.21,296.818,690.301,375s174.546,134.909,123.637,212S673.937,744.09,688.482,789.545
	S452.12,920.455,411.21,967.728"/>
<rect x="333.091" y="40.636" fill="#CFE2E8" width="216.364" height="412.728"/>
<g>
	<path d="M518.779,139.332c-0.18-0.427-0.51-0.72-0.992-0.878c-0.481-0.159-1.253-0.238-2.313-0.238h-20.99
		c-1.061,0-1.832,0.079-2.313,0.238c-0.482,0.158-0.813,0.455-0.992,0.888c-0.179,0.434-0.289,1.119-0.33,2.056H490
		c0.083-1.57,0.124-3.788,0.124-6.652c0-3.016-0.041-5.241-0.124-6.673h0.848c0.041,1.019,0.151,1.759,0.33,2.221
		s0.51,0.778,0.992,0.95c0.481,0.172,1.253,0.258,2.313,0.258h22.127l-26.651-10.206v-0.682l27.25-11.425h-20.268
		c-1.666,0-2.889,0.089-3.667,0.269s-1.346,0.548-1.704,1.105s-0.599,1.47-0.723,2.737H490c0.083-1.088,0.124-2.61,0.124-4.566
		c0-1.556-0.041-2.782-0.124-3.677h0.848c0.124,0.923,0.361,1.601,0.712,2.035c0.352,0.434,0.889,0.729,1.612,0.888
		c0.723,0.158,1.808,0.238,3.254,0.238h19.048c1.061,0,1.832-0.08,2.313-0.238c0.482-0.159,0.813-0.451,0.992-0.878
		c0.179-0.427,0.289-1.109,0.33-2.045h0.848c-0.083,0.895-0.124,2.121-0.124,3.677c0,2.589,0.041,4.814,0.124,6.673L499.4,123.94
		l20.433,7.81v2.996c0,2.865,0.041,5.082,0.124,6.652h-0.848C519.068,140.448,518.958,139.759,518.779,139.332z"/>
	<path d="M518.738,167.088c-1.213,2.251-2.973,3.998-5.279,5.237c-2.307,1.24-5.051,1.859-8.232,1.859
		c-3.113,0-5.867-0.637-8.264-1.911c-2.396-1.274-4.256-3.047-5.578-5.32c-1.322-2.273-1.983-4.855-1.983-7.748
		c0-2.989,0.605-5.609,1.817-7.861c1.212-2.252,2.972-3.995,5.279-5.227c2.307-1.233,5.051-1.849,8.232-1.849
		c3.112,0,5.867,0.633,8.264,1.901c2.396,1.267,4.256,3.037,5.578,5.31c1.322,2.272,1.983,4.862,1.983,7.768
		C520.556,162.223,519.949,164.836,518.738,167.088z M517.901,154.981c-1.261-1.177-3.017-2.086-5.269-2.727
		c-2.252-0.64-4.831-0.96-7.737-0.96c-2.934,0-5.516,0.358-7.747,1.074c-2.231,0.716-3.953,1.687-5.165,2.913
		c-1.212,1.226-1.818,2.589-1.818,4.09c0,1.557,0.631,2.923,1.891,4.101c1.261,1.178,3.017,2.087,5.269,2.727
		c2.252,0.641,4.831,0.961,7.737,0.961c2.919,0,5.498-0.358,7.736-1.075s3.964-1.69,5.176-2.923c1.212-1.232,1.817-2.593,1.817-4.08
		C519.791,157.526,519.161,156.159,517.901,154.981z"/>
	<path d="M518.396,202.147c-0.351-0.434-0.888-0.73-1.611-0.888c-0.723-0.159-1.808-0.238-3.254-0.238h-11.218
		c-4.036,0-7.024-0.578-8.967-1.735c-1.253-0.771-2.224-1.873-2.912-3.305c-0.689-1.433-1.033-3.196-1.033-5.289
		c0-3.25,0.709-5.792,2.128-7.624c0.716-0.896,1.549-1.581,2.5-2.056c0.95-0.475,2.062-0.799,3.336-0.971
		c1.274-0.172,2.882-0.258,4.824-0.258h13.284c1.061,0,1.832-0.08,2.313-0.238c0.482-0.158,0.813-0.455,0.992-0.888
		c0.179-0.434,0.289-1.119,0.33-2.056h0.848c-0.083,1.446-0.124,3.643-0.124,6.59c0,2.92,0.041,5.165,0.124,6.735h-0.848
		c-0.041-1.019-0.151-1.759-0.33-2.221c-0.18-0.461-0.51-0.778-0.992-0.95c-0.481-0.172-1.253-0.258-2.313-0.258h-15.949
		c-1.983,0-3.599,0.179-4.845,0.537c-1.247,0.358-2.19,0.96-2.83,1.808c-0.641,0.847-0.961,2.014-0.961,3.502
		c0,2.81,0.95,4.796,2.851,5.96c1.901,1.164,4.601,1.746,8.099,1.746h11.177c1.64,0,2.854-0.1,3.646-0.3s1.367-0.582,1.726-1.146
		c0.357-0.565,0.599-1.453,0.723-2.665h0.848c-0.083,1.061-0.124,2.583-0.124,4.566c0,1.57,0.041,2.795,0.124,3.677h-0.848
		C518.985,203.26,518.748,202.582,518.396,202.147z"/>
	<path d="M518.396,232.228c-0.351-0.434-0.888-0.73-1.611-0.888c-0.723-0.159-1.808-0.238-3.254-0.238h-23.613
		c0.014-0.207,0.021-0.551,0.021-1.033c0-0.496-0.007-0.875-0.021-1.136l23.263-18.367h-16.239c-1.666,0-2.889,0.089-3.667,0.269
		s-1.346,0.548-1.704,1.105s-0.599,1.47-0.723,2.737H490c0.083-1.088,0.124-2.61,0.124-4.566c0-1.556-0.041-2.782-0.124-3.677h0.848
		c0.124,0.923,0.361,1.601,0.712,2.035c0.352,0.434,0.889,0.729,1.612,0.888c0.723,0.158,1.808,0.238,3.254,0.238h19.048
		c1.061,0,1.832-0.08,2.313-0.238c0.482-0.159,0.813-0.451,0.992-0.878c0.179-0.427,0.289-1.109,0.33-2.045h0.848
		c-0.083,0.895-0.124,2.121-0.124,3.677c0,1.418,0.041,2.631,0.124,3.636l-20.185,16.383h13.242c1.667,0,2.89-0.09,3.668-0.269
		c0.777-0.179,1.346-0.548,1.704-1.105c0.357-0.558,0.599-1.47,0.723-2.737h0.848c-0.083,1.088-0.124,2.61-0.124,4.566
		c0,1.57,0.041,2.795,0.124,3.677h-0.848C518.985,233.34,518.748,232.662,518.396,232.228z"/>
	<path d="M512.768,236.866c1.928,0,4.324-0.103,7.189-0.31c-0.083,2.575-0.124,6.934-0.124,13.077s0.041,10.488,0.124,13.037
		c-2.865-0.207-5.262-0.31-7.189-0.31c-1.213,0-2.287,0.048-3.224,0.145v-0.971c2.355-0.469,4.218-1.041,5.589-1.715
		c1.37-0.675,2.355-1.484,2.954-2.428c0.6-0.943,0.898-2.09,0.898-3.44v-0.971h-24.172c-1.17,0-2.024,0.12-2.562,0.361
		c-0.537,0.241-0.902,0.668-1.095,1.281c-0.193,0.613-0.296,1.574-0.31,2.882H490c0.083-3.554,0.124-6.232,0.124-8.037
		c0-1.777-0.041-4.359-0.124-7.748h0.848c0.014,1.322,0.116,2.29,0.31,2.903c0.192,0.613,0.558,1.036,1.095,1.271
		c0.537,0.234,1.392,0.351,2.562,0.351h24.172v-0.93c0-1.363-0.296-2.517-0.888-3.46c-0.593-0.943-1.574-1.753-2.944-2.427
		c-1.37-0.675-3.24-1.253-5.609-1.735v-0.971C510.48,236.818,511.555,236.866,512.768,236.866z"/>
	<path d="M491.519,288.433c-0.42,0.468-0.644,0.937-0.671,1.405H490c0.083-1.694,0.124-3.836,0.124-6.425
		c0-2.892-0.041-5.034-0.124-6.425h0.848c0.041,1.06,0.172,1.821,0.393,2.283c0.22,0.461,0.605,0.692,1.156,0.692
		c0.427,0,1.096-0.172,2.004-0.516l6.942-2.542v-9.214l-2.913-1.116c-1.983-0.771-3.554-1.157-4.711-1.157
		c-1.047,0-1.776,0.31-2.189,0.93c-0.413,0.62-0.641,1.556-0.682,2.81H490c0.083-1.901,0.124-3.65,0.124-5.248
		c0-1.295-0.041-2.369-0.124-3.223h0.848c0.233,1.405,1.715,2.617,4.441,3.636l24.75,9.648c-0.041,0.455-0.062,0.943-0.062,1.467
		c0,0.551,0.021,1.04,0.062,1.467l-26.485,10.268C492.617,287.544,491.938,287.964,491.519,288.433z M513.614,272.401l-11.425-4.38
		v8.574L513.614,272.401z"/>
	<path d="M518.779,301.118c-0.18-0.427-0.51-0.716-0.992-0.868c-0.481-0.152-1.253-0.228-2.313-0.228h-20.99
		c-1.061,0-1.832,0.076-2.313,0.228c-0.482,0.151-0.813,0.44-0.992,0.868c-0.179,0.427-0.289,1.116-0.33,2.066H490
		c0.083-1.501,0.124-3.629,0.124-6.384c0-3.017-0.041-5.241-0.124-6.673h0.848c0.041,0.937,0.151,1.619,0.33,2.045
		s0.51,0.72,0.992,0.878c0.481,0.158,1.253,0.238,2.313,0.238h20.99c1.061,0,1.832-0.08,2.313-0.238
		c0.482-0.158,0.813-0.451,0.992-0.878c0.179-0.427,0.289-1.109,0.33-2.045h0.848c-0.083,1.418-0.124,3.643-0.124,6.673
		c0,2.754,0.041,4.882,0.124,6.384h-0.848C519.068,302.233,518.958,301.544,518.779,301.118z"/>
	<path d="M518.396,331.87c-0.351-0.434-0.888-0.73-1.611-0.888c-0.723-0.159-1.808-0.238-3.254-0.238h-23.613
		c0.014-0.207,0.021-0.551,0.021-1.033c0-0.496-0.007-0.875-0.021-1.136l23.263-18.367h-16.239c-1.666,0-2.889,0.089-3.667,0.269
		s-1.346,0.548-1.704,1.105s-0.599,1.47-0.723,2.737H490c0.083-1.088,0.124-2.61,0.124-4.566c0-1.556-0.041-2.782-0.124-3.677h0.848
		c0.124,0.923,0.361,1.601,0.712,2.035c0.352,0.434,0.889,0.729,1.612,0.888c0.723,0.158,1.808,0.238,3.254,0.238h19.048
		c1.061,0,1.832-0.08,2.313-0.238c0.482-0.159,0.813-0.451,0.992-0.878c0.179-0.427,0.289-1.109,0.33-2.045h0.848
		c-0.083,0.895-0.124,2.121-0.124,3.677c0,1.418,0.041,2.631,0.124,3.636l-20.185,16.383h13.242c1.667,0,2.89-0.09,3.668-0.269
		c0.777-0.179,1.346-0.548,1.704-1.105c0.357-0.558,0.599-1.47,0.723-2.737h0.848c-0.083,1.088-0.124,2.61-0.124,4.566
		c0,1.57,0.041,2.795,0.124,3.677h-0.848C518.985,332.982,518.748,332.304,518.396,331.87z"/>
</g>
<g>
	<path d="M518.779,414.877c-0.179-0.427-0.51-0.72-0.991-0.878c-0.482-0.159-1.254-0.238-2.314-0.238h-20.99
		c-1.061,0-1.831,0.079-2.313,0.238c-0.482,0.158-0.813,0.455-0.991,0.888c-0.18,0.434-0.29,1.119-0.331,2.056h-0.847
		c0.082-1.57,0.124-3.788,0.124-6.652c0-3.016-0.042-5.241-0.124-6.673h0.847c0.041,1.019,0.151,1.759,0.331,2.221
		c0.179,0.461,0.509,0.778,0.991,0.95s1.253,0.258,2.313,0.258h22.127l-26.651-10.206v-0.682l27.251-11.425h-20.268
		c-1.667,0-2.889,0.089-3.667,0.269s-1.347,0.548-1.704,1.105c-0.358,0.558-0.6,1.47-0.724,2.737h-0.847
		c0.082-1.088,0.124-2.61,0.124-4.566c0-1.556-0.042-2.782-0.124-3.677h0.847c0.124,0.923,0.361,1.601,0.713,2.035
		c0.352,0.434,0.889,0.729,1.611,0.888c0.724,0.158,1.808,0.238,3.254,0.238h19.048c1.061,0,1.832-0.08,2.314-0.238
		c0.481-0.159,0.813-0.451,0.991-0.878c0.179-0.427,0.29-1.109,0.331-2.045h0.847c-0.082,0.895-0.124,2.121-0.124,3.677
		c0,2.589,0.042,4.814,0.124,6.673l-20.557,8.532l20.433,7.81v2.996c0,2.865,0.042,5.082,0.124,6.652h-0.847
		C519.069,415.993,518.958,415.304,518.779,414.877z"/>
	<path d="M518.738,442.634c-1.212,2.251-2.972,3.998-5.278,5.237c-2.308,1.24-5.052,1.859-8.233,1.859
		c-3.112,0-5.867-0.637-8.264-1.911c-2.396-1.274-4.256-3.047-5.578-5.32c-1.322-2.273-1.983-4.855-1.983-7.748
		c0-2.989,0.606-5.609,1.818-7.861c1.212-2.252,2.972-3.995,5.278-5.227c2.307-1.233,5.052-1.849,8.233-1.849
		c3.112,0,5.867,0.633,8.264,1.901c2.396,1.267,4.256,3.037,5.578,5.31c1.322,2.272,1.983,4.862,1.983,7.768
		C520.557,437.768,519.95,440.382,518.738,442.634z M517.901,430.527c-1.26-1.177-3.016-2.086-5.268-2.727
		c-2.252-0.64-4.831-0.96-7.737-0.96c-2.934,0-5.517,0.358-7.747,1.074c-2.231,0.716-3.953,1.687-5.165,2.913
		c-1.213,1.226-1.818,2.589-1.818,4.09c0,1.557,0.63,2.923,1.891,4.101c1.26,1.178,3.016,2.087,5.268,2.727
		c2.252,0.641,4.831,0.961,7.737,0.961c2.92,0,5.499-0.358,7.737-1.075s3.963-1.69,5.175-2.923c1.212-1.232,1.818-2.593,1.818-4.08
		C519.792,433.071,519.162,431.705,517.901,430.527z"/>
	<path d="M518.397,477.693c-0.352-0.434-0.889-0.73-1.611-0.888c-0.724-0.159-1.808-0.238-3.254-0.238h-11.219
		c-4.035,0-7.023-0.578-8.966-1.735c-1.254-0.771-2.225-1.873-2.913-3.305c-0.688-1.433-1.033-3.196-1.033-5.289
		c0-3.25,0.709-5.792,2.128-7.624c0.716-0.896,1.55-1.581,2.5-2.056s2.063-0.799,3.337-0.971c1.273-0.172,2.882-0.258,4.823-0.258
		h13.284c1.061,0,1.832-0.08,2.314-0.238c0.481-0.158,0.813-0.455,0.991-0.888c0.179-0.434,0.29-1.119,0.331-2.056h0.847
		c-0.082,1.446-0.124,3.643-0.124,6.59c0,2.92,0.042,5.165,0.124,6.735h-0.847c-0.041-1.019-0.152-1.759-0.331-2.221
		s-0.51-0.778-0.991-0.95c-0.482-0.172-1.254-0.258-2.314-0.258h-15.949c-1.982,0-3.598,0.179-4.845,0.537
		c-1.246,0.358-2.189,0.96-2.83,1.808s-0.961,2.014-0.961,3.502c0,2.81,0.951,4.796,2.852,5.96c1.9,1.164,4.6,1.746,8.099,1.746
		h11.177c1.639,0,2.854-0.1,3.646-0.3s1.366-0.582,1.725-1.146c0.358-0.565,0.6-1.453,0.724-2.665h0.847
		c-0.082,1.061-0.124,2.583-0.124,4.566c0,1.57,0.042,2.795,0.124,3.677h-0.847C518.986,478.805,518.749,478.127,518.397,477.693z"
		/>
	<path d="M518.397,507.773c-0.352-0.434-0.889-0.73-1.611-0.888c-0.724-0.159-1.808-0.238-3.254-0.238h-23.614
		c0.014-0.207,0.021-0.551,0.021-1.033c0-0.496-0.007-0.875-0.021-1.136l23.263-18.367h-16.238c-1.667,0-2.889,0.089-3.667,0.269
		s-1.347,0.548-1.704,1.105c-0.358,0.558-0.6,1.47-0.724,2.737h-0.847c0.082-1.088,0.124-2.61,0.124-4.566
		c0-1.556-0.042-2.782-0.124-3.677h0.847c0.124,0.923,0.361,1.601,0.713,2.035c0.352,0.434,0.889,0.729,1.611,0.888
		c0.724,0.158,1.808,0.238,3.254,0.238h19.048c1.061,0,1.832-0.08,2.314-0.238c0.481-0.159,0.813-0.451,0.991-0.878
		c0.179-0.427,0.29-1.109,0.331-2.045h0.847c-0.082,0.895-0.124,2.121-0.124,3.677c0,1.418,0.042,2.631,0.124,3.636l-20.185,16.383
		h13.243c1.666,0,2.889-0.09,3.667-0.269c0.778-0.179,1.346-0.548,1.704-1.105s0.6-1.47,0.724-2.737h0.847
		c-0.082,1.088-0.124,2.61-0.124,4.566c0,1.57,0.042,2.795,0.124,3.677h-0.847C518.986,508.886,518.749,508.208,518.397,507.773z"/>
	<path d="M512.768,512.412c1.928,0,4.325-0.103,7.189-0.31c-0.082,2.575-0.124,6.934-0.124,13.077s0.042,10.488,0.124,13.037
		c-2.864-0.207-5.262-0.31-7.189-0.31c-1.212,0-2.286,0.048-3.223,0.145v-0.971c2.355-0.469,4.218-1.041,5.588-1.715
		c1.371-0.675,2.355-1.484,2.955-2.428c0.599-0.943,0.898-2.09,0.898-3.44v-0.971h-24.172c-1.171,0-2.024,0.12-2.562,0.361
		c-0.537,0.241-0.902,0.668-1.096,1.281c-0.192,0.613-0.296,1.574-0.31,2.882h-0.847c0.082-3.554,0.124-6.232,0.124-8.037
		c0-1.777-0.042-4.359-0.124-7.748h0.847c0.014,1.322,0.117,2.29,0.31,2.903c0.193,0.613,0.559,1.036,1.096,1.271
		c0.537,0.234,1.391,0.351,2.562,0.351h24.172v-0.93c0-1.363-0.297-2.517-0.889-3.46s-1.573-1.753-2.943-2.427
		c-1.371-0.675-3.241-1.253-5.609-1.735v-0.971C510.481,512.363,511.556,512.412,512.768,512.412z"/>
	<path d="M491.52,563.978c-0.421,0.468-0.645,0.937-0.672,1.405h-0.847c0.082-1.694,0.124-3.836,0.124-6.425
		c0-2.892-0.042-5.034-0.124-6.425h0.847c0.041,1.06,0.172,1.821,0.393,2.283s0.606,0.692,1.157,0.692
		c0.427,0,1.095-0.172,2.004-0.516l6.941-2.542v-9.214l-2.913-1.116c-1.983-0.771-3.554-1.157-4.71-1.157
		c-1.047,0-1.777,0.31-2.19,0.93c-0.413,0.62-0.641,1.556-0.682,2.81h-0.847c0.082-1.901,0.124-3.65,0.124-5.248
		c0-1.295-0.042-2.369-0.124-3.223h0.847c0.234,1.405,1.715,2.617,4.442,3.636l24.75,9.648c-0.041,0.455-0.063,0.943-0.063,1.467
		c0,0.551,0.021,1.04,0.063,1.467l-26.486,10.268C492.617,563.09,491.939,563.51,491.52,563.978z M513.614,547.946l-11.425-4.38
		v8.574L513.614,547.946z"/>
	<path d="M518.779,576.663c-0.179-0.427-0.51-0.716-0.991-0.868c-0.482-0.151-1.254-0.227-2.314-0.227h-20.99
		c-1.061,0-1.831,0.075-2.313,0.227c-0.482,0.152-0.813,0.441-0.991,0.868c-0.18,0.427-0.29,1.116-0.331,2.065h-0.847
		c0.082-1.501,0.124-3.629,0.124-6.383c0-3.017-0.042-5.241-0.124-6.674h0.847c0.041,0.937,0.151,1.619,0.331,2.045
		c0.179,0.427,0.509,0.72,0.991,0.878s1.253,0.238,2.313,0.238h20.99c1.061,0,1.832-0.08,2.314-0.238
		c0.481-0.158,0.813-0.451,0.991-0.878s0.29-1.109,0.331-2.045h0.847c-0.082,1.418-0.124,3.643-0.124,6.674
		c0,2.754,0.042,4.882,0.124,6.383h-0.847C519.069,577.779,518.958,577.09,518.779,576.663z"/>
	<path d="M518.397,607.415c-0.352-0.434-0.889-0.729-1.611-0.888c-0.724-0.159-1.808-0.238-3.254-0.238h-23.614
		c0.014-0.207,0.021-0.551,0.021-1.033c0-0.496-0.007-0.875-0.021-1.136l23.263-18.366h-16.238c-1.667,0-2.889,0.089-3.667,0.268
		c-0.778,0.18-1.347,0.549-1.704,1.105c-0.358,0.559-0.6,1.471-0.724,2.738h-0.847c0.082-1.088,0.124-2.611,0.124-4.566
		c0-1.557-0.042-2.782-0.124-3.678h0.847c0.124,0.924,0.361,1.602,0.713,2.035s0.889,0.73,1.611,0.889
		c0.724,0.158,1.808,0.238,3.254,0.238h19.048c1.061,0,1.832-0.08,2.314-0.238c0.481-0.158,0.813-0.451,0.991-0.878
		s0.29-1.108,0.331-2.046h0.847c-0.082,0.896-0.124,2.121-0.124,3.678c0,1.418,0.042,2.631,0.124,3.637l-20.185,16.383h13.243
		c1.666,0,2.889-0.09,3.667-0.269s1.346-0.548,1.704-1.105s0.6-1.47,0.724-2.737h0.847c-0.082,1.088-0.124,2.609-0.124,4.566
		c0,1.569,0.042,2.795,0.124,3.677h-0.847C518.986,608.527,518.749,607.85,518.397,607.415z"/>
</g>
<g>
	<path d="M518.78,696.695c-0.179-0.427-0.51-0.719-0.991-0.877c-0.482-0.159-1.254-0.238-2.314-0.238h-20.99
		c-1.061,0-1.831,0.079-2.313,0.238c-0.482,0.158-0.813,0.454-0.991,0.888c-0.18,0.435-0.29,1.119-0.331,2.056h-0.847
		c0.082-1.57,0.124-3.787,0.124-6.652c0-3.016-0.042-5.24-0.124-6.673h0.847c0.041,1.019,0.151,1.759,0.331,2.221
		c0.179,0.462,0.509,0.778,0.991,0.95s1.253,0.258,2.313,0.258h22.127L489.96,678.66v-0.682l27.251-11.426h-20.268
		c-1.667,0-2.889,0.09-3.667,0.27c-0.778,0.179-1.347,0.547-1.704,1.105c-0.358,0.557-0.6,1.47-0.724,2.736h-0.847
		c0.082-1.088,0.124-2.609,0.124-4.565c0-1.556-0.042-2.782-0.124-3.677h0.847c0.124,0.922,0.361,1.601,0.713,2.035
		c0.352,0.434,0.889,0.729,1.611,0.888c0.724,0.158,1.808,0.237,3.254,0.237h19.048c1.061,0,1.832-0.079,2.314-0.237
		c0.481-0.159,0.813-0.451,0.991-0.878c0.179-0.428,0.29-1.109,0.331-2.045h0.847c-0.082,0.895-0.124,2.121-0.124,3.677
		c0,2.589,0.042,4.813,0.124,6.673l-20.557,8.533l20.433,7.809v2.996c0,2.865,0.042,5.082,0.124,6.652h-0.847
		C519.07,697.812,518.959,697.123,518.78,696.695z"/>
	<path d="M518.739,724.452c-1.212,2.251-2.972,3.997-5.278,5.237c-2.308,1.239-5.052,1.859-8.233,1.859
		c-3.112,0-5.867-0.638-8.264-1.911c-2.396-1.274-4.256-3.048-5.578-5.319c-1.322-2.273-1.983-4.855-1.983-7.748
		c0-2.988,0.606-5.609,1.818-7.861s2.972-3.994,5.278-5.227s5.052-1.85,8.233-1.85c3.112,0,5.867,0.634,8.264,1.901
		c2.396,1.267,4.256,3.036,5.578,5.31c1.322,2.272,1.983,4.861,1.983,7.768C520.558,719.586,519.951,722.2,518.739,724.452z
		 M517.902,712.346c-1.26-1.178-3.016-2.087-5.268-2.728c-2.252-0.64-4.831-0.96-7.737-0.96c-2.934,0-5.517,0.357-7.747,1.074
		c-2.231,0.715-3.953,1.687-5.165,2.912c-1.213,1.227-1.818,2.59-1.818,4.091c0,1.557,0.63,2.923,1.891,4.101
		c1.26,1.178,3.016,2.088,5.268,2.728c2.252,0.641,4.831,0.961,7.737,0.961c2.92,0,5.499-0.358,7.737-1.075
		c2.238-0.716,3.963-1.689,5.175-2.923c1.212-1.232,1.818-2.593,1.818-4.08C519.793,714.89,519.163,713.523,517.902,712.346z"/>
	<path d="M518.398,759.512c-0.352-0.434-0.889-0.73-1.611-0.889c-0.724-0.158-1.808-0.238-3.254-0.238h-11.219
		c-4.035,0-7.023-0.578-8.966-1.734c-1.254-0.771-2.225-1.873-2.913-3.306s-1.033-3.196-1.033-5.289
		c0-3.251,0.709-5.792,2.128-7.624c0.716-0.895,1.55-1.58,2.5-2.055c0.95-0.476,2.063-0.799,3.337-0.971
		c1.273-0.173,2.882-0.259,4.823-0.259h13.284c1.061,0,1.832-0.079,2.314-0.237c0.481-0.158,0.813-0.455,0.991-0.889
		s0.29-1.119,0.331-2.056h0.847c-0.082,1.446-0.124,3.643-0.124,6.591c0,2.92,0.042,5.164,0.124,6.734h-0.847
		c-0.041-1.02-0.152-1.76-0.331-2.221s-0.51-0.778-0.991-0.95c-0.482-0.173-1.254-0.259-2.314-0.259h-15.949
		c-1.982,0-3.598,0.18-4.845,0.537c-1.246,0.358-2.189,0.961-2.83,1.809c-0.641,0.847-0.961,2.014-0.961,3.502
		c0,2.809,0.951,4.796,2.852,5.959c1.9,1.164,4.6,1.746,8.099,1.746h11.177c1.639,0,2.854-0.1,3.646-0.299
		c0.792-0.2,1.366-0.582,1.725-1.146c0.358-0.565,0.6-1.453,0.724-2.666h0.847c-0.082,1.061-0.124,2.583-0.124,4.566
		c0,1.57,0.042,2.795,0.124,3.678h-0.847C518.987,760.623,518.75,759.945,518.398,759.512z"/>
	<path d="M518.398,789.592c-0.352-0.434-0.889-0.73-1.611-0.889c-0.724-0.158-1.808-0.237-3.254-0.237h-23.614
		c0.014-0.206,0.021-0.551,0.021-1.032c0-0.496-0.007-0.875-0.021-1.137l23.263-18.367h-16.238c-1.667,0-2.889,0.09-3.667,0.27
		c-0.778,0.179-1.347,0.547-1.704,1.105c-0.358,0.557-0.6,1.47-0.724,2.736h-0.847c0.082-1.088,0.124-2.609,0.124-4.565
		c0-1.556-0.042-2.782-0.124-3.677h0.847c0.124,0.922,0.361,1.601,0.713,2.035c0.352,0.434,0.889,0.729,1.611,0.888
		c0.724,0.158,1.808,0.237,3.254,0.237h19.048c1.061,0,1.832-0.079,2.314-0.237c0.481-0.159,0.813-0.451,0.991-0.878
		c0.179-0.428,0.29-1.109,0.331-2.045h0.847c-0.082,0.895-0.124,2.121-0.124,3.677c0,1.419,0.042,2.631,0.124,3.636l-20.185,16.384
		h13.243c1.666,0,2.889-0.09,3.667-0.269c0.778-0.18,1.346-0.548,1.704-1.105s0.6-1.471,0.724-2.737h0.847
		c-0.082,1.088-0.124,2.61-0.124,4.565c0,1.57,0.042,2.796,0.124,3.678h-0.847C518.987,790.704,518.75,790.025,518.398,789.592z"/>
	<path d="M512.769,794.23c1.928,0,4.325-0.104,7.189-0.311c-0.082,2.576-0.124,6.935-0.124,13.078
		c0,6.143,0.042,10.488,0.124,13.036c-2.864-0.206-5.262-0.31-7.189-0.31c-1.212,0-2.286,0.047-3.223,0.145v-0.971
		c2.355-0.469,4.218-1.041,5.588-1.715c1.371-0.676,2.355-1.484,2.955-2.428c0.599-0.943,0.898-2.091,0.898-3.44v-0.971h-24.172
		c-1.171,0-2.024,0.12-2.562,0.361s-0.902,0.668-1.096,1.28c-0.192,0.613-0.296,1.574-0.31,2.883h-0.847
		c0.082-3.554,0.124-6.232,0.124-8.037c0-1.776-0.042-4.359-0.124-7.747h0.847c0.014,1.322,0.117,2.29,0.31,2.903
		c0.193,0.612,0.559,1.035,1.096,1.27s1.391,0.352,2.562,0.352h24.172v-0.93c0-1.363-0.297-2.518-0.889-3.461
		s-1.573-1.752-2.943-2.427c-1.371-0.675-3.241-1.253-5.609-1.735v-0.971C510.482,794.182,511.557,794.23,512.769,794.23z"/>
	<path d="M491.521,845.797c-0.421,0.468-0.645,0.936-0.672,1.404h-0.847c0.082-1.693,0.124-3.836,0.124-6.426
		c0-2.892-0.042-5.033-0.124-6.424h0.847c0.041,1.06,0.172,1.82,0.393,2.282s0.606,0.692,1.157,0.692
		c0.427,0,1.095-0.173,2.004-0.517l6.941-2.542v-9.213l-2.913-1.116c-1.983-0.771-3.554-1.157-4.71-1.157
		c-1.047,0-1.777,0.311-2.19,0.93c-0.413,0.62-0.641,1.557-0.682,2.811h-0.847c0.082-1.901,0.124-3.65,0.124-5.248
		c0-1.295-0.042-2.369-0.124-3.223h0.847c0.234,1.404,1.715,2.616,4.442,3.636l24.75,9.647c-0.041,0.455-0.063,0.943-0.063,1.467
		c0,0.551,0.021,1.041,0.063,1.467l-26.486,10.269C492.618,844.908,491.94,845.328,491.521,845.797z M513.615,829.765l-11.425-4.38
		v8.574L513.615,829.765z"/>
	<path d="M518.78,858.481c-0.179-0.427-0.51-0.716-0.991-0.868c-0.482-0.151-1.254-0.227-2.314-0.227h-20.99
		c-1.061,0-1.831,0.075-2.313,0.227c-0.482,0.152-0.813,0.441-0.991,0.868c-0.18,0.427-0.29,1.116-0.331,2.065h-0.847
		c0.082-1.501,0.124-3.629,0.124-6.383c0-3.018-0.042-5.241-0.124-6.674h0.847c0.041,0.937,0.151,1.619,0.331,2.045
		c0.179,0.428,0.509,0.721,0.991,0.879s1.253,0.237,2.313,0.237h20.99c1.061,0,1.832-0.079,2.314-0.237
		c0.481-0.158,0.813-0.451,0.991-0.879c0.179-0.426,0.29-1.108,0.331-2.045h0.847c-0.082,1.418-0.124,3.643-0.124,6.674
		c0,2.754,0.042,4.882,0.124,6.383h-0.847C519.07,859.598,518.959,858.908,518.78,858.481z"/>
	<path d="M518.398,889.233c-0.352-0.434-0.889-0.729-1.611-0.888c-0.724-0.159-1.808-0.238-3.254-0.238h-23.614
		c0.014-0.207,0.021-0.551,0.021-1.033c0-0.496-0.007-0.875-0.021-1.136l23.263-18.366h-16.238c-1.667,0-2.889,0.089-3.667,0.268
		c-0.778,0.18-1.347,0.549-1.704,1.105c-0.358,0.559-0.6,1.471-0.724,2.738h-0.847c0.082-1.088,0.124-2.611,0.124-4.566
		c0-1.557-0.042-2.782-0.124-3.678h0.847c0.124,0.924,0.361,1.602,0.713,2.035s0.889,0.73,1.611,0.889
		c0.724,0.158,1.808,0.238,3.254,0.238h19.048c1.061,0,1.832-0.08,2.314-0.238c0.481-0.158,0.813-0.451,0.991-0.878
		s0.29-1.108,0.331-2.046h0.847c-0.082,0.896-0.124,2.121-0.124,3.678c0,1.418,0.042,2.631,0.124,3.637l-20.185,16.383h13.243
		c1.666,0,2.889-0.09,3.667-0.269s1.346-0.548,1.704-1.105s0.6-1.47,0.724-2.737h0.847c-0.082,1.088-0.124,2.609-0.124,4.566
		c0,1.569,0.042,2.795,0.124,3.677h-0.847C518.987,890.346,518.75,889.668,518.398,889.233z"/>
</g>
<g>
	<path d="M101.874,1031.163h3.454v0.836h-7.81v-0.836h3.454v-13.332l-2.794,1.848l-0.572-0.77l3.366-2.267v-0.021l0.22-0.132h0.682
		V1031.163z"/>
	<path d="M110.255,1030.162c-0.895-1.342-1.342-3.312-1.342-5.907c0-2.61,0.444-4.587,1.331-5.929s2.189-2.013,3.905-2.013
		c1.716,0,3.018,0.667,3.905,2.002c0.887,1.334,1.331,3.308,1.331,5.918c0,2.596-0.447,4.568-1.342,5.918
		c-0.895,1.35-2.193,2.023-3.894,2.023C112.448,1032.175,111.15,1031.504,110.255,1030.162z M117.35,1029.535
		c0.697-1.145,1.045-2.911,1.045-5.302c0-2.405-0.345-4.177-1.034-5.313c-0.689-1.137-1.76-1.705-3.212-1.705
		c-1.438,0-2.505,0.572-3.201,1.716c-0.697,1.145-1.045,2.912-1.045,5.303c0,2.376,0.348,4.14,1.045,5.291
		c0.696,1.151,1.764,1.727,3.201,1.727C115.586,1031.251,116.653,1030.679,117.35,1029.535z"/>
	<path d="M122.421,1026.587v-0.836h5.808v0.836H122.421z"/>
	<path d="M141.605,1031.163v0.836h-9.614v-0.704l5.588-6.292c0.836-0.953,1.437-1.793,1.804-2.519
		c0.367-0.727,0.55-1.463,0.55-2.211c0-0.982-0.286-1.742-0.858-2.277c-0.572-0.535-1.378-0.803-2.42-0.803
		c-0.821,0-1.603,0.157-2.343,0.473c-0.741,0.315-1.478,0.803-2.211,1.463l-0.462-0.77c0.616-0.616,1.375-1.111,2.277-1.485
		c0.902-0.374,1.8-0.561,2.695-0.561c1.32,0,2.361,0.352,3.124,1.056s1.144,1.665,1.144,2.882c0,0.895-0.209,1.771-0.627,2.629
		c-0.418,0.858-1.104,1.815-2.057,2.871l-4.906,5.412H141.605z"/>
	<path d="M154.805,1031.163v0.836h-9.614v-0.704l5.588-6.292c0.836-0.953,1.437-1.793,1.804-2.519
		c0.367-0.727,0.55-1.463,0.55-2.211c0-0.982-0.286-1.742-0.858-2.277c-0.572-0.535-1.378-0.803-2.42-0.803
		c-0.821,0-1.603,0.157-2.343,0.473c-0.741,0.315-1.478,0.803-2.211,1.463l-0.462-0.77c0.616-0.616,1.375-1.111,2.277-1.485
		c0.902-0.374,1.8-0.561,2.695-0.561c1.32,0,2.361,0.352,3.124,1.056s1.144,1.665,1.144,2.882c0,0.895-0.209,1.771-0.627,2.629
		c-0.418,0.858-1.104,1.815-2.057,2.871l-4.906,5.412H154.805z"/>
	<path d="M174.846,1016.489h0.858v15.51h-0.748l-10.274-13.948v13.948h-0.858v-15.51h0.77l10.252,13.926V1016.489z"/>
	<path d="M182.469,1031.218c-1.02-0.638-1.804-1.554-2.354-2.75c-0.55-1.195-0.825-2.6-0.825-4.213c0-1.628,0.271-3.039,0.814-4.234
		c0.542-1.195,1.323-2.112,2.343-2.75c1.02-0.639,2.226-0.957,3.619-0.957c1.393,0,2.603,0.318,3.63,0.957
		c1.026,0.638,1.812,1.551,2.354,2.738c0.542,1.188,0.814,2.597,0.814,4.225s-0.275,3.039-0.825,4.234
		c-0.55,1.196-1.335,2.112-2.354,2.75c-1.02,0.639-2.226,0.957-3.619,0.957C184.687,1032.175,183.488,1031.856,182.469,1031.218z
		 M190.356,1029.425c1.012-1.231,1.518-2.962,1.518-5.191s-0.502-3.957-1.507-5.182c-1.004-1.225-2.438-1.837-4.301-1.837
		c-1.833,0-3.256,0.612-4.268,1.837c-1.012,1.225-1.518,2.952-1.518,5.182s0.506,3.96,1.518,5.191
		c1.012,1.232,2.435,1.849,4.268,1.849C187.914,1031.273,189.344,1030.657,190.356,1029.425z"/>
	<path d="M207.56,1016.489h0.968l-6.688,15.51h-0.902l-6.644-15.51h0.946l6.16,14.344L207.56,1016.489z"/>
	<path d="M210.882,1031.999v-15.51h9.328v0.857h-8.404v6.358h7.964v0.858h-7.964v6.577h8.404v0.858H210.882z"/>
	<path d="M236.996,1016.489h0.814v15.51h-0.902l0.022-13.574l-5.852,11.154h-0.748l-5.896-11.066l0.022,13.486h-0.902v-15.51h0.792
		l6.358,12.21L236.996,1016.489z"/>
	<path d="M252.275,1025.366c0.491,0.652,0.737,1.463,0.737,2.431c0,1.379-0.433,2.424-1.298,3.135
		c-0.866,0.712-2.105,1.067-3.718,1.067h-5.962v-15.51h5.72c1.569,0,2.779,0.349,3.63,1.045s1.276,1.705,1.276,3.024
		c0,0.852-0.216,1.573-0.649,2.167c-0.433,0.595-1.038,1.038-1.815,1.331C251.09,1024.277,251.783,1024.714,252.275,1025.366z
		 M242.958,1023.683h4.686c1.32,0,2.324-0.278,3.014-0.836c0.689-0.557,1.034-1.363,1.034-2.42c0-2.053-1.35-3.08-4.048-3.08h-4.686
		V1023.683z M251.043,1030.349c0.667-0.527,1.001-1.342,1.001-2.441c0-1.101-0.341-1.933-1.023-2.497
		c-0.682-0.564-1.698-0.847-3.047-0.847h-5.016v6.577h5.016C249.353,1031.141,250.375,1030.877,251.043,1030.349z"/>
	<path d="M256.664,1031.999v-15.51h9.328v0.857h-8.404v6.358h7.964v0.858h-7.964v6.577h8.404v0.858H256.664z"/>
	<path d="M280.863,1031.999h-1.012l-2.618-4.972c-0.381-0.733-0.821-1.232-1.32-1.496c-0.499-0.265-1.195-0.396-2.09-0.396h-3.586
		v6.864h-0.902v-15.51h5.984c1.598,0,2.834,0.362,3.707,1.089c0.872,0.726,1.309,1.793,1.309,3.201c0,1.202-0.355,2.163-1.067,2.882
		s-1.72,1.151-3.025,1.298c0.366,0.117,0.693,0.315,0.979,0.594c0.286,0.279,0.561,0.653,0.825,1.122L280.863,1031.999z
		 M275.341,1024.255c2.684,0,4.026-1.166,4.026-3.498c0-1.144-0.33-1.998-0.99-2.563c-0.66-0.564-1.672-0.848-3.036-0.848h-5.082
		v6.908H275.341z"/>
	<path d="M299.233,1031.163v0.836h-9.614v-0.704l5.588-6.292c0.836-0.953,1.437-1.793,1.804-2.519
		c0.367-0.727,0.55-1.463,0.55-2.211c0-0.982-0.286-1.742-0.858-2.277c-0.572-0.535-1.378-0.803-2.42-0.803
		c-0.821,0-1.603,0.157-2.343,0.473c-0.741,0.315-1.478,0.803-2.211,1.463l-0.462-0.77c0.616-0.616,1.375-1.111,2.277-1.485
		c0.902-0.374,1.8-0.561,2.695-0.561c1.32,0,2.361,0.352,3.124,1.056s1.144,1.665,1.144,2.882c0,0.895-0.209,1.771-0.627,2.629
		c-0.418,0.858-1.104,1.815-2.057,2.871l-4.906,5.412H299.233z"/>
	<path d="M303.435,1030.162c-0.895-1.342-1.342-3.312-1.342-5.907c0-2.61,0.444-4.587,1.331-5.929s2.189-2.013,3.905-2.013
		c1.716,0,3.018,0.667,3.905,2.002c0.887,1.334,1.331,3.308,1.331,5.918c0,2.596-0.447,4.568-1.342,5.918
		c-0.895,1.35-2.193,2.023-3.894,2.023C305.627,1032.175,304.329,1031.504,303.435,1030.162z M310.529,1029.535
		c0.697-1.145,1.045-2.911,1.045-5.302c0-2.405-0.345-4.177-1.034-5.313c-0.689-1.137-1.76-1.705-3.212-1.705
		c-1.438,0-2.505,0.572-3.201,1.716c-0.697,1.145-1.045,2.912-1.045,5.303c0,2.376,0.348,4.14,1.045,5.291
		c0.696,1.151,1.764,1.727,3.201,1.727C308.766,1031.251,309.833,1030.679,310.529,1029.535z"/>
	<path d="M321.452,1031.163h3.454v0.836h-7.81v-0.836h3.454v-13.332l-2.794,1.848l-0.572-0.77l3.366-2.267v-0.021l0.22-0.132h0.682
		V1031.163z"/>
	<path d="M328.844,1016.489h9.746v0.682l-7.458,14.828h-0.99l7.392-14.674h-8.69V1016.489z"/>
</g>
<g>
	<path d="M580.325,1031.999l-1.849-4.29h-8.602l-1.848,4.29h-0.946l6.666-15.51h0.88l6.666,15.51H580.325z M570.249,1026.829h7.854
		l-3.916-9.152L570.249,1026.829z"/>
	<path d="M589.564,1016.489h5.588c1.599,0,2.838,0.381,3.719,1.144c0.879,0.763,1.319,1.849,1.319,3.256
		c0,1.408-0.443,2.501-1.331,3.278c-0.887,0.777-2.123,1.166-3.707,1.166h-4.686v6.666h-0.902V1016.489z M595.131,1024.453
		c1.363,0,2.387-0.301,3.068-0.902c0.683-0.601,1.023-1.488,1.023-2.662c0-1.173-0.341-2.057-1.023-2.65
		c-0.682-0.595-1.705-0.892-3.068-0.892h-4.664v7.106H595.131z"/>
	<path d="M614.996,1031.999h-1.012l-2.618-4.972c-0.382-0.733-0.821-1.232-1.319-1.496c-0.499-0.265-1.195-0.396-2.09-0.396h-3.586
		v6.864h-0.902v-15.51h5.984c1.598,0,2.834,0.362,3.707,1.089c0.871,0.726,1.309,1.793,1.309,3.201c0,1.202-0.355,2.163-1.067,2.882
		s-1.72,1.151-3.024,1.298c0.365,0.117,0.692,0.315,0.979,0.594c0.286,0.279,0.561,0.653,0.825,1.122L614.996,1031.999z
		 M609.475,1024.255c2.684,0,4.025-1.166,4.025-3.498c0-1.144-0.33-1.998-0.99-2.563c-0.659-0.564-1.672-0.848-3.035-0.848h-5.082
		v6.908H609.475z"/>
	<path d="M620.793,1031.218c-1.02-0.638-1.804-1.554-2.354-2.75c-0.551-1.195-0.825-2.6-0.825-4.213
		c0-1.628,0.271-3.039,0.813-4.234s1.324-2.112,2.344-2.75c1.02-0.639,2.225-0.957,3.619-0.957c1.393,0,2.603,0.318,3.629,0.957
		c1.027,0.638,1.813,1.551,2.354,2.738c0.542,1.188,0.813,2.597,0.813,4.225s-0.274,3.039-0.824,4.234
		c-0.551,1.196-1.335,2.112-2.354,2.75c-1.02,0.639-2.227,0.957-3.619,0.957C623.012,1032.175,621.813,1031.856,620.793,1031.218z
		 M628.68,1029.425c1.012-1.231,1.519-2.962,1.519-5.191s-0.503-3.957-1.507-5.182c-1.005-1.225-2.439-1.837-4.301-1.837
		c-1.834,0-3.256,0.612-4.269,1.837c-1.012,1.225-1.519,2.952-1.519,5.182s0.507,3.96,1.519,5.191
		c1.013,1.232,2.435,1.849,4.269,1.849C626.238,1031.273,627.668,1030.657,628.68,1029.425z"/>
	<path d="M631.805,1031.295l1.121-0.088c0.822-0.059,1.464-0.37,1.926-0.935s0.693-1.302,0.693-2.212v-11.571h0.901v11.616
		c0,1.173-0.297,2.104-0.892,2.794c-0.594,0.689-1.447,1.07-2.563,1.144l-1.1,0.088L631.805,1031.295z"/>
	<path d="M640.67,1031.999v-15.51h9.328v0.857h-8.404v6.358h7.965v0.858h-7.965v6.577h8.404v0.858H640.67z"/>
	<path d="M655.795,1031.229c-1.033-0.631-1.83-1.544-2.387-2.739c-0.558-1.195-0.836-2.614-0.836-4.257s0.278-3.059,0.836-4.246
		c0.557-1.188,1.354-2.098,2.387-2.729c1.034-0.63,2.262-0.945,3.686-0.945c2.17,0,3.93,0.696,5.279,2.09l-0.461,0.77
		c-0.764-0.704-1.522-1.206-2.277-1.507c-0.756-0.301-1.61-0.451-2.563-0.451c-1.878,0-3.333,0.616-4.366,1.849
		c-1.035,1.231-1.552,2.955-1.552,5.17c0,2.229,0.517,3.96,1.552,5.191c1.033,1.232,2.488,1.849,4.366,1.849
		c0.953,0,1.808-0.15,2.563-0.451c0.755-0.301,1.514-0.804,2.277-1.507l0.461,0.77c-1.35,1.394-3.109,2.09-5.279,2.09
		C658.057,1032.175,656.829,1031.859,655.795,1031.229z"/>
	<path d="M671.734,1031.999v-14.674h-5.698v-0.836h12.319v0.836h-5.697v14.674H671.734z"/>
	<path d="M688.684,1031.218c-1.02-0.638-1.803-1.554-2.354-2.75c-0.55-1.195-0.824-2.6-0.824-4.213c0-1.628,0.271-3.039,0.813-4.234
		c0.542-1.195,1.323-2.112,2.343-2.75c1.02-0.639,2.226-0.957,3.619-0.957c1.393,0,2.604,0.318,3.63,0.957
		c1.026,0.638,1.812,1.551,2.354,2.738c0.542,1.188,0.813,2.597,0.813,4.225s-0.274,3.039-0.825,4.234
		c-0.55,1.196-1.334,2.112-2.354,2.75c-1.02,0.639-2.227,0.957-3.619,0.957C690.902,1032.175,689.703,1031.856,688.684,1031.218z
		 M696.571,1029.425c1.012-1.231,1.519-2.962,1.519-5.191s-0.503-3.957-1.508-5.182c-1.004-1.225-2.438-1.837-4.301-1.837
		c-1.834,0-3.256,0.612-4.268,1.837s-1.519,2.952-1.519,5.182s0.507,3.96,1.519,5.191c1.012,1.232,2.434,1.849,4.268,1.849
		C694.129,1031.273,695.559,1030.657,696.571,1029.425z"/>
	<path d="M713.688,1016.489h0.857v15.51h-0.748l-10.273-13.948v13.948h-0.858v-15.51h0.771l10.252,13.926V1016.489z"/>
	<path d="M728.031,1031.999v-14.674h-5.698v-0.836h12.319v0.836h-5.697v14.674H728.031z"/>
	<path d="M737.953,1016.489v7.216h10.428v0.836h-10.428v7.458h-0.924v-15.51H737.953z M748.402,1016.489h0.925v15.51h-0.925
		V1016.489z"/>
	<path d="M753.551,1031.999v-15.51h9.328v0.857h-8.404v6.358h7.964v0.858h-7.964v6.577h8.404v0.858H753.551z"/>
	<path d="M780.721,1032.439c0.248,0.249,0.506,0.601,0.77,1.056l1.363,2.2l-0.726,0.483l-1.584-2.552
		c-0.587-0.968-1.511-1.452-2.772-1.452c-1.379,0-2.577-0.318-3.597-0.957c-1.02-0.638-1.804-1.554-2.354-2.75
		c-0.549-1.195-0.824-2.6-0.824-4.213c0-1.628,0.271-3.039,0.814-4.234c0.542-1.195,1.322-2.112,2.342-2.75
		c1.02-0.639,2.227-0.957,3.619-0.957c1.394,0,2.6,0.318,3.619,0.957c1.02,0.638,1.805,1.551,2.354,2.738
		c0.55,1.188,0.825,2.597,0.825,4.225c0,1.994-0.411,3.663-1.232,5.005s-1.973,2.232-3.454,2.673
		C780.191,1032.014,780.471,1032.189,780.721,1032.439z M773.504,1029.425c1.012,1.232,2.435,1.849,4.268,1.849
		c1.849,0,3.278-0.616,4.291-1.849c1.012-1.231,1.518-2.962,1.518-5.191s-0.502-3.957-1.508-5.182
		c-1.004-1.225-2.438-1.837-4.301-1.837c-1.833,0-3.256,0.612-4.268,1.837s-1.518,2.952-1.518,5.182
		S772.492,1028.193,773.504,1029.425z"/>
	<path d="M789.531,1030.646c-0.99-1.02-1.485-2.526-1.485-4.521v-9.636h0.901v9.79c0,3.329,1.658,4.994,4.973,4.994
		c1.628,0,2.859-0.418,3.695-1.255c0.837-0.836,1.255-2.082,1.255-3.739v-9.79h0.924v9.636c0,1.995-0.499,3.502-1.496,4.521
		s-2.456,1.528-4.378,1.528C791.984,1032.175,790.521,1031.666,789.531,1030.646z"/>
	<path d="M815.656,1031.999l-1.848-4.29h-8.603l-1.849,4.29h-0.945l6.666-15.51h0.88l6.666,15.51H815.656z M805.58,1026.829h7.854
		l-3.916-9.152L805.58,1026.829z"/>
	<path d="M830.506,1016.489h0.858v15.51h-0.748l-10.274-13.948v13.948h-0.857v-15.51h0.77l10.252,13.926V1016.489z"/>
	<path d="M839.438,1031.999v-14.674h-5.697v-0.836h12.319v0.836h-5.698v14.674H839.438z"/>
	<path d="M848.436,1031.999v-15.51h0.902v15.51H848.436z"/>
	<path d="M853.561,1031.999v-15.51h9.109v0.857h-8.207v6.358h7.766v0.836h-7.766v7.458H853.561z"/>
	<path d="M865.617,1031.999v-15.51h0.902v15.51H865.617z"/>
	<path d="M870.742,1031.999v-15.51h9.328v0.857h-8.403v6.358h7.964v0.858h-7.964v6.577h8.403v0.858H870.742z"/>
	<path d="M883.414,1016.489h4.775c2.434,0,4.308,0.667,5.62,2.002s1.97,3.249,1.97,5.742c0,2.479-0.66,4.393-1.98,5.741
		c-1.32,1.35-3.189,2.024-5.609,2.024h-4.775V1016.489z M888.166,1031.163c2.186,0,3.836-0.583,4.951-1.749
		c1.113-1.166,1.672-2.893,1.672-5.181s-0.555-4.012-1.661-5.17c-1.108-1.159-2.761-1.738-4.962-1.738h-3.85v13.838H888.166z"/>
	<path d="M906.25,1031.669c-0.91-0.337-1.73-0.865-2.464-1.584l0.462-0.77c0.777,0.719,1.555,1.225,2.332,1.518
		c0.777,0.294,1.73,0.44,2.859,0.44c1.395,0,2.472-0.29,3.234-0.869s1.145-1.404,1.145-2.476c0-0.615-0.191-1.114-0.572-1.496
		c-0.382-0.381-0.851-0.671-1.408-0.868c-0.558-0.198-1.305-0.407-2.244-0.627c-1.262-0.309-2.232-0.583-2.914-0.825
		c-0.683-0.242-1.291-0.646-1.826-1.21c-0.536-0.564-0.803-1.331-0.803-2.3c0-0.864,0.215-1.62,0.648-2.266
		c0.432-0.646,1.056-1.144,1.869-1.496c0.814-0.352,1.764-0.527,2.85-0.527c2.127,0,3.865,0.696,5.214,2.09l-0.462,0.77
		c-0.733-0.689-1.478-1.188-2.232-1.496c-0.756-0.308-1.596-0.462-2.52-0.462c-1.394,0-2.479,0.301-3.256,0.902
		s-1.166,1.444-1.166,2.53c0,0.938,0.338,1.631,1.012,2.078c0.675,0.448,1.621,0.825,2.838,1.134l0.946,0.22
		c1.056,0.234,1.914,0.473,2.574,0.715c0.659,0.242,1.221,0.62,1.683,1.133c0.463,0.514,0.693,1.203,0.693,2.068
		c0,0.821-0.221,1.548-0.66,2.178c-0.439,0.631-1.06,1.122-1.859,1.475c-0.799,0.352-1.727,0.527-2.783,0.527
		C908.223,1032.175,907.159,1032.006,906.25,1031.669z"/>
	<path d="M917.932,1031.999v-15.51h9.328v0.857h-8.404v6.358h7.965v0.858h-7.965v6.577h8.404v0.858H917.932z"/>
	<path d="M930.604,1031.999v-15.51h0.902v14.674h8.25v0.836H930.604z"/>
	<path d="M942.197,1031.999v-15.51h9.108v0.857H943.1v6.358h7.766v0.836H943.1v7.458H942.197z"/>
</g>
</svg>
