<?xml version="1.0" encoding="utf-8"?>
<!-- Generator: Adobe Illustrator 16.0.0, SVG Export Plug-In . SVG Version: 6.00 Build 0)  -->
<!DOCTYPE svg PUBLIC "-//W3C//DTD SVG 1.1//EN" "http://www.w3.org/Graphics/SVG/1.1/DTD/svg11.dtd">
<svg version="1.1" id="Layer_1" xmlns="http://www.w3.org/2000/svg" xmlns:xlink="http://www.w3.org/1999/xlink" x="0px" y="0px"
	 width="1523.924px" height="256.09px" viewBox="0 0 1523.924 256.09" enable-background="new 0 0 1523.924 256.09"
	 xml:space="preserve">
<rect x="1387.322" y="202.333" width="6.549" height="21.287"/>
<rect x="1398.322" y="202.333" width="6.549" height="21.287"/>
<rect x="1409.822" y="202.333" width="6.549" height="21.287"/>
<rect x="1420.822" y="202.333" width="6.549" height="21.287"/>
<rect x="1431.322" y="202.333" fill="#E1E1E1" width="6.549" height="21.287"/>
<rect x="1442.822" y="202.333" fill="#E1E1E1" width="6.549" height="21.287"/>
<rect x="1453.822" y="202.333" fill="#E1E1E1" width="6.549" height="21.287"/>
<g>
	<path d="M22.651,69.136h-3.7l-3.76-4.38v4.38h-3.02v-14.1h3.02v8.48l3.62-4.18h3.6l-4.12,4.68L22.651,69.136z"/>
	<path d="M32.071,64.796h-6.4c0.093,0.787,0.35,1.357,0.77,1.71c0.42,0.354,1.017,0.53,1.79,0.53c0.506,0,1.01-0.083,1.51-0.25
		c0.5-0.167,0.957-0.403,1.37-0.71l0.8,2.02c-0.48,0.374-1.063,0.667-1.75,0.88c-0.687,0.213-1.377,0.32-2.07,0.32
		c-1.653,0-2.957-0.457-3.91-1.37c-0.953-0.913-1.43-2.157-1.43-3.73c0-1,0.207-1.887,0.62-2.66c0.413-0.773,0.987-1.376,1.72-1.81
		c0.733-0.433,1.566-0.65,2.5-0.65c1.373,0,2.463,0.447,3.27,1.34c0.807,0.894,1.21,2.107,1.21,3.64V64.796z M26.301,61.706
		c-0.34,0.367-0.55,0.897-0.63,1.59h3.86c-0.04-0.707-0.217-1.24-0.53-1.6c-0.313-0.36-0.757-0.54-1.33-0.54
		C27.097,61.156,26.641,61.339,26.301,61.706z"/>
	<path d="M40.491,59.336h2.96l-5.92,13.4h-3.06l1.88-4.14l-4.04-9.26h3.14l2.48,6.24L40.491,59.336z"/>
	<path d="M57.571,59.316h2.94l-3.98,9.82h-2.56l-2.16-5.54l-2.1,5.54h-2.54l-4-9.82h3.08l2.32,6.22l2.32-6.22h2.04l2.34,6.28
		L57.571,59.316z"/>
	<path d="M63.411,68.666c-0.787-0.42-1.394-1.013-1.82-1.78c-0.427-0.767-0.64-1.67-0.64-2.71s0.213-1.943,0.64-2.71
		s1.033-1.356,1.82-1.77c0.787-0.413,1.7-0.62,2.74-0.62s1.953,0.207,2.74,0.62c0.787,0.414,1.393,1.003,1.82,1.77
		s0.64,1.67,0.64,2.71s-0.213,1.943-0.64,2.71c-0.427,0.767-1.033,1.36-1.82,1.78c-0.787,0.42-1.7,0.63-2.74,0.63
		S64.197,69.086,63.411,68.666z M68.351,64.176c0-0.947-0.19-1.653-0.57-2.12c-0.38-0.466-0.923-0.7-1.63-0.7
		c-1.467,0-2.2,0.94-2.2,2.82s0.733,2.82,2.2,2.82S68.351,66.056,68.351,64.176z"/>
	<path d="M80.211,61.556l-1.7,0.18c-0.84,0.08-1.434,0.317-1.78,0.71c-0.347,0.394-0.52,0.917-0.52,1.57v5.12h-3.02v-9.82h2.9v1.66
		c0.493-1.133,1.513-1.753,3.06-1.86l0.88-0.06L80.211,61.556z"/>
	<path d="M90.951,55.036v14.1h-3v-1.46c-0.293,0.507-0.71,0.903-1.25,1.19s-1.15,0.43-1.83,0.43c-0.84,0-1.59-0.217-2.25-0.65
		c-0.66-0.433-1.173-1.04-1.54-1.82c-0.367-0.78-0.55-1.676-0.55-2.69c0-1.013,0.183-1.903,0.55-2.67s0.876-1.356,1.53-1.77
		c0.653-0.413,1.407-0.62,2.26-0.62c0.667,0,1.27,0.14,1.81,0.42c0.54,0.28,0.957,0.673,1.25,1.18v-5.64H90.951z M87.38,66.266
		c0.38-0.486,0.57-1.183,0.57-2.09s-0.19-1.6-0.57-2.08c-0.38-0.48-0.923-0.72-1.63-0.72s-1.253,0.237-1.64,0.71
		s-0.58,1.157-0.58,2.05c0,0.907,0.193,1.61,0.58,2.11s0.934,0.75,1.64,0.75S87,66.752,87.38,66.266z"/>
</g>
<g>
	<path d="M744.402,60.106c0.573,0.687,0.86,1.723,0.86,3.11v5.92h-3.02v-5.78c0-0.667-0.123-1.153-0.37-1.46
		c-0.247-0.306-0.63-0.46-1.15-0.46c-0.626,0-1.13,0.2-1.51,0.6s-0.57,0.934-0.57,1.6v5.5h-3.02v-9.82h2.94v1.4
		c0.347-0.533,0.796-0.94,1.35-1.22c0.553-0.28,1.176-0.42,1.87-0.42C742.955,59.076,743.829,59.419,744.402,60.106z"/>
	<path d="M749.502,68.666c-0.787-0.42-1.394-1.013-1.82-1.78c-0.427-0.767-0.64-1.67-0.64-2.71s0.213-1.943,0.64-2.71
		s1.033-1.356,1.82-1.77c0.787-0.413,1.7-0.62,2.74-0.62s1.953,0.207,2.74,0.62c0.787,0.414,1.393,1.003,1.82,1.77
		s0.64,1.67,0.64,2.71s-0.213,1.943-0.64,2.71c-0.427,0.767-1.033,1.36-1.82,1.78c-0.787,0.42-1.7,0.63-2.74,0.63
		S750.289,69.086,749.502,68.666z M754.442,64.176c0-0.947-0.19-1.653-0.57-2.12c-0.38-0.466-0.923-0.7-1.63-0.7
		c-1.467,0-2.2,0.94-2.2,2.82s0.733,2.82,2.2,2.82S754.442,66.056,754.442,64.176z"/>
	<path d="M765.582,67.016l-0.16,2.2c-0.387,0.053-0.773,0.08-1.159,0.08c-1.494,0-2.584-0.327-3.271-0.98
		c-0.687-0.653-1.03-1.647-1.03-2.98v-3.76h-1.86v-2.26h1.86v-2.88h3.02v2.88h2.461v2.26h-2.461v3.74c0,1.173,0.547,1.76,1.641,1.76
		C764.929,67.076,765.249,67.056,765.582,67.016z"/>
	<path d="M775.762,64.796h-6.399c0.093,0.787,0.35,1.357,0.77,1.71c0.42,0.354,1.017,0.53,1.79,0.53c0.507,0,1.01-0.083,1.51-0.25
		c0.5-0.167,0.956-0.403,1.37-0.71l0.8,2.02c-0.479,0.374-1.063,0.667-1.75,0.88c-0.687,0.213-1.377,0.32-2.069,0.32
		c-1.654,0-2.957-0.457-3.91-1.37c-0.953-0.913-1.43-2.157-1.43-3.73c0-1,0.206-1.887,0.619-2.66
		c0.413-0.773,0.986-1.376,1.721-1.81c0.732-0.433,1.566-0.65,2.5-0.65c1.373,0,2.463,0.447,3.27,1.34
		c0.807,0.894,1.21,2.107,1.21,3.64V64.796z M769.991,61.706c-0.34,0.367-0.549,0.897-0.629,1.59h3.859
		c-0.04-0.707-0.217-1.24-0.529-1.6c-0.314-0.36-0.758-0.54-1.33-0.54C770.788,61.156,770.331,61.339,769.991,61.706z"/>
</g>
<g>
	<path d="M1119.244,55.036v14.1h-3v-1.46c-0.293,0.507-0.71,0.903-1.25,1.19s-1.149,0.43-1.83,0.43c-0.84,0-1.59-0.217-2.25-0.65
		c-0.659-0.433-1.173-1.04-1.539-1.82c-0.367-0.78-0.551-1.676-0.551-2.69c0-1.013,0.184-1.903,0.551-2.67
		c0.366-0.767,0.876-1.356,1.529-1.77c0.653-0.413,1.407-0.62,2.26-0.62c0.667,0,1.271,0.14,1.811,0.42
		c0.54,0.28,0.956,0.673,1.25,1.18v-5.64H1119.244z M1115.675,66.266c0.38-0.486,0.569-1.183,0.569-2.09s-0.189-1.6-0.569-2.08
		s-0.924-0.72-1.63-0.72c-0.707,0-1.254,0.237-1.641,0.71s-0.58,1.157-0.58,2.05c0,0.907,0.193,1.61,0.58,2.11
		s0.934,0.75,1.641,0.75C1114.751,66.996,1115.295,66.752,1115.675,66.266z"/>
	<path d="M1129.174,60.116c0.7,0.693,1.051,1.767,1.051,3.22v5.8h-2.86v-1.46c-0.2,0.507-0.533,0.903-1,1.19s-1.014,0.43-1.64,0.43
		c-0.667,0-1.271-0.134-1.811-0.4c-0.54-0.266-0.967-0.64-1.279-1.12c-0.313-0.48-0.471-1.013-0.471-1.6
		c0-0.72,0.184-1.287,0.55-1.7c0.367-0.413,0.957-0.713,1.771-0.9c0.813-0.187,1.927-0.28,3.34-0.28h0.521v-0.36
		c0-0.586-0.127-1-0.381-1.24c-0.253-0.24-0.693-0.36-1.319-0.36c-0.48,0-1.014,0.087-1.601,0.26
		c-0.587,0.173-1.146,0.414-1.68,0.72l-0.8-2.02c0.56-0.347,1.25-0.637,2.07-0.87c0.819-0.233,1.583-0.35,2.289-0.35
		C1127.391,59.076,1128.475,59.423,1129.174,60.116z M1126.805,66.626c0.359-0.394,0.54-0.903,0.54-1.53v-0.34h-0.341
		c-1.08,0-1.837,0.087-2.27,0.26c-0.434,0.173-0.65,0.487-0.65,0.94c0,0.36,0.123,0.66,0.37,0.9c0.247,0.24,0.557,0.36,0.931,0.36
		C1125.971,67.216,1126.444,67.019,1126.805,66.626z"/>
	<path d="M1139.284,59.336h2.96l-5.92,13.4h-3.06l1.88-4.14l-4.04-9.26h3.14l2.48,6.24L1139.284,59.336z"/>
</g>
<g>
	<path d="M1397.516,60.28c0.572,0.687,0.859,1.723,0.859,3.11v5.92h-3.02v-5.78c0-0.667-0.124-1.153-0.37-1.46
		c-0.247-0.306-0.63-0.46-1.15-0.46c-0.627,0-1.13,0.2-1.51,0.6s-0.57,0.934-0.57,1.6v5.5h-3.02v-14.1h3.02v5.58
		c0.347-0.506,0.79-0.89,1.33-1.15c0.54-0.26,1.144-0.39,1.811-0.39C1396.068,59.25,1396.941,59.593,1397.516,60.28z"/>
	<path d="M1400.534,54.77h3.24v2.82h-3.24V54.77z M1400.635,69.31v-9.82h3.02v9.82H1400.635z"/>
	<path d="M1415.994,59.49v8.76c0,1.586-0.453,2.787-1.359,3.6c-0.907,0.813-2.247,1.22-4.021,1.22c-0.88,0-1.724-0.106-2.53-0.32
		s-1.517-0.513-2.13-0.9l0.801-2.08c1.267,0.693,2.526,1.04,3.779,1.04c1.653,0,2.48-0.78,2.48-2.34v-1.08
		c-0.28,0.507-0.7,0.907-1.26,1.2c-0.561,0.293-1.188,0.44-1.881,0.44c-0.853,0-1.609-0.2-2.27-0.6s-1.177-0.97-1.55-1.71
		c-0.374-0.74-0.561-1.597-0.561-2.57c0-0.973,0.187-1.83,0.561-2.57c0.373-0.74,0.89-1.313,1.55-1.72
		c0.66-0.406,1.417-0.61,2.27-0.61c0.681,0,1.297,0.144,1.851,0.43c0.553,0.287,0.977,0.683,1.27,1.19v-1.38H1415.994z
		 M1412.404,66.05c0.394-0.453,0.59-1.087,0.59-1.9c0-0.813-0.196-1.45-0.59-1.91s-0.943-0.69-1.649-0.69
		c-0.707,0-1.261,0.23-1.66,0.69c-0.4,0.46-0.601,1.097-0.601,1.91c0,0.8,0.2,1.43,0.601,1.89c0.399,0.46,0.953,0.69,1.66,0.69
		C1411.461,66.729,1412.011,66.503,1412.404,66.05z"/>
	<path d="M1427.095,60.28c0.572,0.687,0.859,1.723,0.859,3.11v5.92h-3.02v-5.78c0-0.667-0.124-1.153-0.37-1.46
		c-0.247-0.306-0.63-0.46-1.15-0.46c-0.627,0-1.13,0.2-1.51,0.6s-0.57,0.934-0.57,1.6v5.5h-3.02v-14.1h3.02v5.58
		c0.347-0.506,0.79-0.89,1.33-1.15c0.54-0.26,1.144-0.39,1.811-0.39C1425.647,59.25,1426.521,59.593,1427.095,60.28z"/>
	<path d="M1439.055,64.97h-6.4c0.094,0.787,0.351,1.357,0.771,1.71c0.42,0.354,1.017,0.53,1.79,0.53c0.507,0,1.01-0.083,1.51-0.25
		c0.5-0.167,0.957-0.403,1.37-0.71l0.8,2.02c-0.479,0.374-1.063,0.667-1.75,0.88c-0.687,0.213-1.377,0.32-2.07,0.32
		c-1.653,0-2.956-0.457-3.909-1.37c-0.954-0.913-1.431-2.157-1.431-3.73c0-1,0.207-1.887,0.62-2.66
		c0.413-0.773,0.986-1.376,1.72-1.81c0.733-0.433,1.567-0.65,2.5-0.65c1.374,0,2.464,0.447,3.271,1.34
		c0.807,0.894,1.21,2.107,1.21,3.64V64.97z M1433.285,61.879c-0.341,0.367-0.551,0.897-0.631,1.59h3.86
		c-0.04-0.707-0.217-1.24-0.53-1.6s-0.757-0.54-1.33-0.54S1433.625,61.513,1433.285,61.879z"/>
	<path d="M1442.164,69.16c-0.754-0.207-1.403-0.503-1.95-0.89l0.8-2.08c0.533,0.36,1.12,0.64,1.76,0.84
		c0.641,0.2,1.287,0.3,1.94,0.3c0.467,0,0.83-0.077,1.09-0.23s0.391-0.363,0.391-0.63c0-0.24-0.091-0.427-0.271-0.56
		s-0.517-0.253-1.01-0.36l-1.601-0.36c-0.946-0.213-1.643-0.543-2.09-0.99c-0.446-0.447-0.67-1.057-0.67-1.83
		c0-0.613,0.177-1.153,0.53-1.62c0.353-0.466,0.853-0.833,1.5-1.1c0.646-0.267,1.383-0.4,2.21-0.4c0.706,0,1.393,0.107,2.06,0.32
		c0.667,0.214,1.267,0.514,1.801,0.9l-0.801,2c-1.04-0.72-2.066-1.08-3.08-1.08c-0.467,0-0.833,0.08-1.1,0.24
		c-0.267,0.16-0.4,0.387-0.4,0.68c0,0.213,0.08,0.38,0.24,0.5s0.44,0.233,0.84,0.34l1.66,0.38c1,0.227,1.73,0.57,2.19,1.03
		s0.689,1.083,0.689,1.87c0,0.947-0.377,1.69-1.13,2.23s-1.79,0.81-3.109,0.81C1443.747,69.47,1442.917,69.366,1442.164,69.16z"/>
	<path d="M1456.914,67.189l-0.159,2.2c-0.388,0.053-0.773,0.08-1.16,0.08c-1.494,0-2.584-0.327-3.271-0.98s-1.029-1.647-1.029-2.98
		v-3.76h-1.86v-2.26h1.86v-2.88h3.02v2.88h2.46v2.26h-2.46v3.74c0,1.173,0.547,1.76,1.64,1.76
		C1456.261,67.25,1456.581,67.229,1456.914,67.189z"/>
	<path d="M1472.164,59.899c0.66,0.434,1.173,1.04,1.54,1.82c0.366,0.78,0.55,1.677,0.55,2.69s-0.184,1.903-0.55,2.67
		c-0.367,0.767-0.877,1.357-1.53,1.77c-0.653,0.414-1.407,0.62-2.26,0.62c-0.667,0-1.271-0.137-1.811-0.41s-0.957-0.657-1.25-1.15v5
		h-3.02V59.49h2.979v1.38c0.294-0.507,0.714-0.903,1.261-1.19c0.546-0.287,1.159-0.43,1.84-0.43
		C1470.754,59.25,1471.504,59.466,1472.164,59.899z M1470.674,66.459c0.387-0.473,0.58-1.156,0.58-2.05
		c0-0.907-0.193-1.61-0.58-2.11s-0.934-0.75-1.64-0.75c-0.707,0-1.254,0.243-1.641,0.73s-0.58,1.183-0.58,2.09
		c0,0.894,0.193,1.583,0.58,2.07c0.387,0.487,0.934,0.73,1.641,0.73C1469.74,67.169,1470.287,66.933,1470.674,66.459z"/>
	<path d="M1478.073,68.839c-0.786-0.42-1.394-1.013-1.819-1.78c-0.427-0.767-0.641-1.67-0.641-2.71s0.214-1.943,0.641-2.71
		c0.426-0.767,1.033-1.356,1.819-1.77c0.787-0.413,1.7-0.62,2.74-0.62s1.953,0.207,2.74,0.62c0.786,0.414,1.393,1.003,1.82,1.77
		c0.426,0.767,0.64,1.67,0.64,2.71s-0.214,1.943-0.64,2.71c-0.428,0.767-1.034,1.36-1.82,1.78c-0.787,0.42-1.7,0.63-2.74,0.63
		S1478.86,69.26,1478.073,68.839z M1483.014,64.35c0-0.947-0.19-1.653-0.57-2.12c-0.38-0.466-0.923-0.7-1.63-0.7
		c-1.467,0-2.2,0.94-2.2,2.82s0.733,2.82,2.2,2.82S1483.014,66.229,1483.014,64.35z"/>
	<path d="M1487.754,54.77h3.24v2.82h-3.24V54.77z M1487.854,69.31v-9.82h3.02v9.82H1487.854z"/>
	<path d="M1501.975,60.28c0.572,0.687,0.859,1.723,0.859,3.11v5.92h-3.02v-5.78c0-0.667-0.124-1.153-0.37-1.46
		c-0.247-0.306-0.63-0.46-1.15-0.46c-0.627,0-1.13,0.2-1.51,0.6s-0.57,0.934-0.57,1.6v5.5h-3.02v-9.82h2.939v1.4
		c0.347-0.533,0.797-0.94,1.351-1.22c0.553-0.28,1.177-0.42,1.87-0.42C1500.527,59.25,1501.4,59.593,1501.975,60.28z"/>
	<path d="M1511.493,67.189l-0.159,2.2c-0.388,0.053-0.773,0.08-1.16,0.08c-1.494,0-2.584-0.327-3.271-0.98s-1.029-1.647-1.029-2.98
		v-3.76h-1.86v-2.26h1.86v-2.88h3.02v2.88h2.46v2.26h-2.46v3.74c0,1.173,0.547,1.76,1.64,1.76
		C1510.84,67.25,1511.16,67.229,1511.493,67.189z"/>
</g>
<g>
	<path d="M1388.382,168.755h3.24v2.82h-3.24V168.755z M1388.482,183.295v-9.82h3.02v9.82H1388.482z"/>
	<path d="M1402.603,174.265c0.572,0.688,0.859,1.724,0.859,3.11v5.92h-3.02v-5.78c0-0.666-0.124-1.153-0.37-1.46
		c-0.247-0.307-0.63-0.46-1.15-0.46c-0.627,0-1.13,0.2-1.51,0.601c-0.38,0.399-0.57,0.933-0.57,1.6v5.5h-3.02v-9.82h2.939v1.4
		c0.347-0.533,0.797-0.94,1.351-1.22c0.553-0.28,1.177-0.42,1.87-0.42C1401.155,173.235,1402.028,173.578,1402.603,174.265z"/>
	<path d="M1412.121,181.175l-0.159,2.2c-0.388,0.053-0.773,0.08-1.16,0.08c-1.494,0-2.584-0.327-3.271-0.98
		c-0.687-0.652-1.029-1.646-1.029-2.979v-3.76h-1.86v-2.261h1.86v-2.88h3.02v2.88h2.46v2.261h-2.46v3.739
		c0,1.174,0.547,1.761,1.64,1.761C1411.468,181.235,1411.788,181.215,1412.121,181.175z"/>
	<path d="M1422.302,178.955h-6.4c0.094,0.787,0.351,1.356,0.771,1.71s1.017,0.53,1.79,0.53c0.507,0,1.01-0.084,1.51-0.25
		c0.5-0.167,0.957-0.403,1.37-0.71l0.8,2.02c-0.479,0.373-1.063,0.667-1.75,0.88s-1.377,0.32-2.07,0.32
		c-1.653,0-2.956-0.457-3.909-1.37c-0.954-0.913-1.431-2.156-1.431-3.73c0-1,0.207-1.886,0.62-2.659s0.986-1.377,1.72-1.811
		c0.733-0.433,1.567-0.649,2.5-0.649c1.374,0,2.464,0.446,3.271,1.34s1.21,2.106,1.21,3.64V178.955z M1416.532,175.865
		c-0.341,0.366-0.551,0.896-0.631,1.59h3.86c-0.04-0.707-0.217-1.24-0.53-1.601c-0.313-0.359-0.757-0.54-1.33-0.54
		S1416.872,175.498,1416.532,175.865z"/>
	<path d="M1432.902,174.265c0.572,0.688,0.859,1.724,0.859,3.11v5.92h-3.02v-5.78c0-0.666-0.124-1.153-0.37-1.46
		c-0.247-0.307-0.63-0.46-1.15-0.46c-0.627,0-1.13,0.2-1.51,0.601c-0.38,0.399-0.57,0.933-0.57,1.6v5.5h-3.02v-9.82h2.939v1.4
		c0.347-0.533,0.797-0.94,1.351-1.22c0.553-0.28,1.177-0.42,1.87-0.42C1431.455,173.235,1432.328,173.578,1432.902,174.265z"/>
	<path d="M1437.312,183.145c-0.754-0.206-1.403-0.503-1.95-0.89l0.8-2.08c0.533,0.36,1.12,0.64,1.76,0.84
		c0.641,0.2,1.287,0.3,1.94,0.3c0.467,0,0.83-0.076,1.09-0.229s0.391-0.363,0.391-0.63c0-0.24-0.091-0.427-0.271-0.561
		c-0.18-0.133-0.517-0.253-1.01-0.359l-1.601-0.36c-0.946-0.213-1.643-0.543-2.09-0.99c-0.446-0.446-0.67-1.057-0.67-1.83
		c0-0.612,0.177-1.152,0.53-1.619c0.353-0.467,0.853-0.834,1.5-1.101c0.646-0.267,1.383-0.399,2.21-0.399
		c0.706,0,1.393,0.106,2.06,0.319c0.667,0.214,1.267,0.514,1.801,0.9l-0.801,2c-1.04-0.72-2.066-1.08-3.08-1.08
		c-0.467,0-0.833,0.08-1.1,0.24s-0.4,0.387-0.4,0.68c0,0.214,0.08,0.38,0.24,0.5s0.44,0.233,0.84,0.34l1.66,0.38
		c1,0.228,1.73,0.57,2.19,1.03s0.689,1.083,0.689,1.87c0,0.946-0.377,1.689-1.13,2.229s-1.79,0.811-3.109,0.811
		C1438.895,183.455,1438.064,183.352,1437.312,183.145z"/>
	<path d="M1445.661,168.755h3.24v2.82h-3.24V168.755z M1445.762,183.295v-9.82h3.02v9.82H1445.762z"/>
	<path d="M1457.501,181.175l-0.159,2.2c-0.388,0.053-0.773,0.08-1.16,0.08c-1.494,0-2.584-0.327-3.271-0.98
		c-0.687-0.652-1.029-1.646-1.029-2.979v-3.76h-1.86v-2.261h1.86v-2.88h3.02v2.88h2.46v2.261h-2.46v3.739
		c0,1.174,0.547,1.761,1.64,1.761C1456.848,181.235,1457.168,181.215,1457.501,181.175z"/>
	<path d="M1465.841,173.495h2.96l-5.92,13.399h-3.06l1.88-4.14l-4.04-9.26h3.14l2.48,6.24L1465.841,173.495z"/>
</g>
<g>
	<path d="M1122.505,173.475h2.939l-3.979,9.82h-2.561l-2.16-5.54l-2.1,5.54h-2.54l-4-9.82h3.08l2.32,6.221l2.319-6.221h2.04
		l2.34,6.28L1122.505,173.475z"/>
	<path d="M1135.204,178.955h-6.4c0.094,0.787,0.351,1.356,0.771,1.71s1.017,0.53,1.79,0.53c0.507,0,1.01-0.084,1.51-0.25
		c0.5-0.167,0.957-0.403,1.37-0.71l0.8,2.02c-0.479,0.373-1.063,0.667-1.75,0.88s-1.377,0.32-2.07,0.32
		c-1.653,0-2.956-0.457-3.909-1.37c-0.954-0.913-1.431-2.156-1.431-3.73c0-1,0.207-1.886,0.62-2.659s0.986-1.377,1.72-1.811
		c0.733-0.433,1.567-0.649,2.5-0.649c1.374,0,2.464,0.446,3.271,1.34s1.21,2.106,1.21,3.64V178.955z M1129.435,175.865
		c-0.341,0.366-0.551,0.896-0.631,1.59h3.86c-0.04-0.707-0.217-1.24-0.53-1.601c-0.313-0.359-0.757-0.54-1.33-0.54
		S1129.774,175.498,1129.435,175.865z"/>
	<path d="M1144.634,174.275c0.7,0.693,1.051,1.767,1.051,3.22v5.8h-2.86v-1.46c-0.2,0.507-0.533,0.903-1,1.19
		c-0.467,0.286-1.014,0.43-1.64,0.43c-0.667,0-1.271-0.134-1.811-0.4s-0.967-0.64-1.279-1.12c-0.313-0.479-0.471-1.013-0.471-1.6
		c0-0.72,0.184-1.286,0.55-1.7c0.367-0.413,0.957-0.713,1.771-0.899s1.927-0.28,3.34-0.28h0.521v-0.36c0-0.586-0.127-1-0.381-1.24
		c-0.253-0.239-0.693-0.359-1.319-0.359c-0.48,0-1.014,0.087-1.601,0.26c-0.587,0.174-1.146,0.413-1.68,0.72l-0.8-2.02
		c0.56-0.347,1.25-0.637,2.07-0.87c0.819-0.233,1.583-0.35,2.289-0.35C1142.851,173.235,1143.935,173.582,1144.634,174.275z
		 M1142.265,180.785c0.359-0.394,0.54-0.903,0.54-1.53v-0.34h-0.341c-1.08,0-1.837,0.087-2.27,0.26
		c-0.434,0.174-0.65,0.487-0.65,0.94c0,0.359,0.123,0.66,0.37,0.899c0.247,0.24,0.557,0.36,0.931,0.36
		C1141.431,181.375,1141.904,181.179,1142.265,180.785z"/>
	<path d="M1154.344,181.175l-0.159,2.2c-0.388,0.053-0.773,0.08-1.16,0.08c-1.494,0-2.584-0.327-3.271-0.98
		c-0.687-0.652-1.029-1.646-1.029-2.979v-3.76h-1.86v-2.261h1.86v-2.88h3.02v2.88h2.46v2.261h-2.46v3.739
		c0,1.174,0.547,1.761,1.64,1.761C1153.69,181.235,1154.011,181.215,1154.344,181.175z"/>
	<path d="M1164.465,174.265c0.572,0.688,0.859,1.724,0.859,3.11v5.92h-3.02v-5.78c0-0.666-0.124-1.153-0.37-1.46
		c-0.247-0.307-0.63-0.46-1.15-0.46c-0.627,0-1.13,0.2-1.51,0.601c-0.38,0.399-0.57,0.933-0.57,1.6v5.5h-3.02v-14.1h3.02v5.58
		c0.347-0.507,0.79-0.891,1.33-1.15s1.144-0.39,1.811-0.39C1163.018,173.235,1163.891,173.578,1164.465,174.265z"/>
	<path d="M1176.424,178.955h-6.4c0.094,0.787,0.351,1.356,0.771,1.71s1.017,0.53,1.79,0.53c0.507,0,1.01-0.084,1.51-0.25
		c0.5-0.167,0.957-0.403,1.37-0.71l0.8,2.02c-0.479,0.373-1.063,0.667-1.75,0.88s-1.377,0.32-2.07,0.32
		c-1.653,0-2.956-0.457-3.909-1.37c-0.954-0.913-1.431-2.156-1.431-3.73c0-1,0.207-1.886,0.62-2.659s0.986-1.377,1.72-1.811
		c0.733-0.433,1.567-0.649,2.5-0.649c1.374,0,2.464,0.446,3.271,1.34s1.21,2.106,1.21,3.64V178.955z M1170.654,175.865
		c-0.341,0.366-0.551,0.896-0.631,1.59h3.86c-0.04-0.707-0.217-1.24-0.53-1.601c-0.313-0.359-0.757-0.54-1.33-0.54
		S1170.994,175.498,1170.654,175.865z"/>
	<path d="M1185.263,175.715l-1.699,0.18c-0.841,0.08-1.434,0.317-1.78,0.71c-0.347,0.394-0.521,0.917-0.521,1.57v5.12h-3.02v-9.82
		h2.899v1.66c0.493-1.133,1.514-1.753,3.061-1.859l0.88-0.061L1185.263,175.715z"/>
</g>
<g>
	<path d="M11.277,182.115l0.4-0.7c0.52,0.439,1.023,0.747,1.51,0.92c0.487,0.174,1.077,0.26,1.77,0.26
		c0.854,0,1.507-0.153,1.96-0.46c0.453-0.307,0.68-0.74,0.68-1.3c0-0.467-0.147-0.84-0.44-1.12c-0.293-0.28-0.767-0.5-1.42-0.66
		l-1.64-0.38c-0.76-0.173-1.363-0.49-1.81-0.95s-0.67-0.989-0.67-1.59c0-0.826,0.313-1.493,0.94-2c0.626-0.507,1.473-0.76,2.54-0.76
		c0.68,0,1.307,0.113,1.88,0.34s1.04,0.547,1.4,0.96l-0.4,0.72c-0.427-0.399-0.873-0.696-1.34-0.89s-0.98-0.29-1.54-0.29
		c-0.787,0-1.403,0.16-1.85,0.48c-0.447,0.319-0.67,0.76-0.67,1.319c0,0.494,0.137,0.884,0.41,1.17
		c0.273,0.287,0.703,0.504,1.29,0.65l1.66,0.4c1.72,0.399,2.58,1.246,2.58,2.54c0,0.8-0.327,1.443-0.98,1.93
		s-1.533,0.729-2.64,0.729C13.404,183.435,12.197,182.995,11.277,182.115z"/>
	<path d="M21.177,169.655h1.28v1.26h-1.28V169.655z M21.397,183.295v-9.68h0.84v9.68H21.397z"/>
	<path d="M29.537,178.295l3.98,5h-1.1l-3.42-4.28l-3.42,4.28h-1.08l3.98-5l-3.76-4.68h1.08l3.2,4.02l3.2-4.02h1.1L29.537,178.295z"
		/>
	<path d="M40.217,182.575l-0.04,0.779c-0.28,0.04-0.58,0.061-0.9,0.061c-1,0-1.77-0.29-2.31-0.87s-0.81-1.356-0.81-2.33v-5.88h-1.94
		v-0.72h1.94v-3.021h0.84v3.021h2.92v0.72h-2.92v5.7c0,0.854,0.2,1.5,0.6,1.939c0.4,0.44,0.993,0.66,1.78,0.66
		C39.684,182.635,39.964,182.615,40.217,182.575z"/>
	<path d="M49.737,177.055v6.24h-0.84v-6.16c0-1.026-0.207-1.776-0.62-2.25c-0.414-0.473-1.08-0.71-2-0.71
		c-1.027,0-1.85,0.317-2.47,0.95c-0.62,0.634-0.93,1.477-0.93,2.53v5.64h-0.84v-14.1h0.84v6.119c0.293-0.626,0.733-1.106,1.32-1.439
		s1.26-0.5,2.02-0.5C48.563,173.375,49.737,174.602,49.737,177.055z"/>
	<path d="M71.336,177.055v6.24h-0.84v-6.16c0-1.026-0.187-1.776-0.56-2.25c-0.374-0.473-0.967-0.71-1.78-0.71
		c-0.933,0-1.677,0.313-2.23,0.94s-0.83,1.473-0.83,2.54v5.64h-0.84v-6.16c0-1.026-0.187-1.776-0.56-2.25
		c-0.374-0.473-0.967-0.71-1.78-0.71c-0.934,0-1.677,0.313-2.23,0.94c-0.554,0.627-0.83,1.473-0.83,2.54v5.64h-0.84v-9.68h0.82
		v1.699c0.267-0.626,0.663-1.106,1.19-1.439c0.526-0.333,1.15-0.5,1.87-0.5c1.546,0,2.54,0.646,2.98,1.939
		c0.28-0.6,0.71-1.072,1.29-1.42c0.58-0.346,1.236-0.52,1.97-0.52C70.27,173.375,71.336,174.602,71.336,177.055z"/>
	<path d="M76.097,182.814c-0.653-0.413-1.16-1-1.52-1.76s-0.54-1.646-0.54-2.66c0-1,0.18-1.88,0.54-2.64s0.867-1.347,1.52-1.76
		c0.653-0.413,1.406-0.62,2.26-0.62c0.853,0,1.607,0.207,2.26,0.62c0.653,0.413,1.16,1,1.52,1.76c0.36,0.76,0.54,1.64,0.54,2.64
		c0,1.014-0.18,1.9-0.54,2.66c-0.36,0.76-0.867,1.347-1.52,1.76c-0.653,0.414-1.407,0.62-2.26,0.62
		C77.503,183.435,76.75,183.229,76.097,182.814z M80.887,181.525c0.593-0.727,0.89-1.771,0.89-3.131c0-1.319-0.303-2.35-0.91-3.09
		c-0.607-0.74-1.443-1.109-2.51-1.109s-1.903,0.369-2.51,1.109c-0.607,0.74-0.91,1.771-0.91,3.09c0,1.36,0.296,2.404,0.89,3.131
		c0.593,0.727,1.43,1.09,2.51,1.09C79.443,182.615,80.293,182.252,80.887,181.525z"/>
	<path d="M92.917,173.615v9.68h-0.82v-1.82c-0.307,0.627-0.75,1.11-1.33,1.45c-0.58,0.34-1.237,0.51-1.97,0.51
		c-1.12,0-1.97-0.313-2.55-0.939c-0.58-0.627-0.87-1.547-0.87-2.76v-6.12h0.84v6.04c0,1.013,0.207,1.76,0.62,2.239
		c0.413,0.48,1.053,0.721,1.92,0.721c1,0,1.803-0.316,2.41-0.95c0.606-0.633,0.91-1.477,0.91-2.53v-5.52H92.917z"/>
	<path d="M104.016,177.055v6.24h-0.84v-6.16c0-1.026-0.207-1.776-0.62-2.25c-0.414-0.473-1.08-0.71-2-0.71
		c-1.027,0-1.85,0.317-2.47,0.95c-0.62,0.634-0.93,1.477-0.93,2.53v5.64h-0.84v-9.68h0.82v1.739c0.293-0.64,0.736-1.13,1.33-1.47
		c0.593-0.34,1.27-0.51,2.03-0.51C102.843,173.375,104.016,174.602,104.016,177.055z"/>
	<path d="M111.836,182.575l-0.04,0.779c-0.28,0.04-0.58,0.061-0.9,0.061c-1,0-1.77-0.29-2.31-0.87s-0.81-1.356-0.81-2.33v-5.88
		h-1.94v-0.72h1.94v-3.021h0.84v3.021h2.92v0.72h-2.92v5.7c0,0.854,0.2,1.5,0.6,1.939c0.4,0.44,0.993,0.66,1.78,0.66
		C111.303,182.635,111.583,182.615,111.836,182.575z"/>
	<path d="M120.716,176.955v6.34h-0.86v-1.78c-0.293,0.613-0.717,1.087-1.27,1.42c-0.553,0.334-1.183,0.5-1.89,0.5
		c-0.614,0-1.177-0.127-1.69-0.38s-0.92-0.603-1.22-1.05c-0.3-0.446-0.45-0.937-0.45-1.47c0-0.721,0.19-1.276,0.57-1.67
		c0.38-0.394,1.006-0.677,1.88-0.851c0.873-0.173,2.097-0.26,3.67-0.26h0.4v-0.84c0-0.946-0.187-1.637-0.56-2.07
		c-0.373-0.433-0.967-0.649-1.78-0.649c-0.627,0-1.204,0.083-1.73,0.25c-0.527,0.166-1.077,0.437-1.65,0.81l-0.4-0.72
		c0.493-0.36,1.063-0.644,1.71-0.851c0.646-0.206,1.296-0.31,1.95-0.31C119.609,173.375,120.716,174.568,120.716,176.955z
		 M118.316,182.165c0.48-0.287,0.857-0.684,1.13-1.19c0.273-0.506,0.41-1.08,0.41-1.72v-0.72h-0.38c-1.4,0-2.467,0.057-3.2,0.17
		s-1.247,0.307-1.54,0.58s-0.44,0.677-0.44,1.21c0,0.613,0.227,1.116,0.68,1.51c0.453,0.394,1.026,0.59,1.72,0.59
		C117.296,182.595,117.836,182.452,118.316,182.165z"/>
	<path d="M123.856,169.655h1.28v1.26h-1.28V169.655z M124.076,183.295v-9.68h0.84v9.68H124.076z"/>
	<path d="M136.016,177.055v6.24h-0.84v-6.16c0-1.026-0.207-1.776-0.62-2.25c-0.414-0.473-1.08-0.71-2-0.71
		c-1.027,0-1.85,0.317-2.47,0.95c-0.62,0.634-0.93,1.477-0.93,2.53v5.64h-0.84v-9.68h0.82v1.739c0.293-0.64,0.736-1.13,1.33-1.47
		c0.593-0.34,1.27-0.51,2.03-0.51C134.842,173.375,136.016,174.602,136.016,177.055z"/>
</g>
<g>
	<path d="M740.422,107.53V94.19h-5.18v-0.76h11.2v0.76h-5.18v13.34H740.422z"/>
	<path d="M748.303,107.05c-0.653-0.413-1.16-1-1.52-1.76s-0.54-1.646-0.54-2.66c0-1,0.18-1.88,0.54-2.64
		c0.36-0.76,0.867-1.347,1.52-1.76c0.653-0.413,1.406-0.62,2.26-0.62c0.853,0,1.607,0.207,2.26,0.62c0.653,0.413,1.16,1,1.52,1.76
		c0.36,0.76,0.54,1.64,0.54,2.64c0,1.013-0.18,1.9-0.54,2.66c-0.36,0.76-0.867,1.347-1.52,1.76c-0.653,0.414-1.407,0.62-2.26,0.62
		C749.709,107.67,748.956,107.464,748.303,107.05z M753.093,105.761c0.593-0.727,0.89-1.771,0.89-3.13c0-1.32-0.303-2.35-0.91-3.09
		c-0.607-0.74-1.443-1.11-2.51-1.11s-1.903,0.37-2.51,1.11c-0.607,0.74-0.91,1.77-0.91,3.09c0,1.36,0.296,2.403,0.89,3.13
		c0.593,0.727,1.43,1.09,2.51,1.09C751.649,106.851,752.499,106.487,753.093,105.761z"/>
	<path d="M765.522,93.43v14.1h-0.84v-1.96c-0.293,0.68-0.73,1.2-1.311,1.56c-0.58,0.36-1.276,0.54-2.09,0.54
		c-0.854,0-1.607-0.21-2.26-0.63c-0.653-0.42-1.16-1.013-1.52-1.78c-0.36-0.767-0.54-1.657-0.54-2.67c0-1,0.18-1.873,0.54-2.62
		c0.36-0.747,0.867-1.327,1.52-1.74c0.653-0.413,1.406-0.62,2.26-0.62c0.813,0,1.51,0.18,2.09,0.54
		c0.58,0.36,1.018,0.874,1.311,1.54v-6.26H765.522z M763.802,105.75c0.588-0.733,0.881-1.773,0.881-3.12
		c0-1.333-0.293-2.367-0.881-3.1c-0.586-0.733-1.419-1.1-2.5-1.1s-1.923,0.364-2.53,1.09c-0.607,0.727-0.91,1.75-0.91,3.07
		c0,1.333,0.303,2.377,0.91,3.13c0.606,0.753,1.443,1.13,2.51,1.13C762.375,106.851,763.216,106.483,763.802,105.75z"/>
	<path d="M775.981,101.19v6.34h-0.859v-1.78c-0.293,0.613-0.717,1.087-1.27,1.42c-0.554,0.334-1.184,0.5-1.891,0.5
		c-0.613,0-1.177-0.127-1.689-0.38c-0.514-0.253-0.92-0.603-1.221-1.05c-0.3-0.446-0.449-0.937-0.449-1.47
		c0-0.72,0.189-1.277,0.57-1.67c0.379-0.393,1.006-0.676,1.879-0.85s2.098-0.26,3.67-0.26h0.4v-0.84c0-0.947-0.188-1.637-0.561-2.07
		c-0.373-0.433-0.967-0.65-1.779-0.65c-0.627,0-1.203,0.083-1.73,0.25c-0.526,0.167-1.076,0.437-1.649,0.81l-0.4-0.72
		c0.493-0.36,1.063-0.644,1.71-0.85s1.297-0.31,1.95-0.31C774.876,97.61,775.981,98.804,775.981,101.19z M773.582,106.4
		c0.479-0.287,0.856-0.684,1.13-1.19c0.273-0.507,0.41-1.08,0.41-1.72v-0.72h-0.38c-1.399,0-2.467,0.057-3.2,0.17
		s-1.246,0.307-1.54,0.58s-0.44,0.677-0.44,1.21c0,0.613,0.227,1.116,0.681,1.51c0.453,0.394,1.026,0.59,1.72,0.59
		C772.562,106.83,773.103,106.688,773.582,106.4z"/>
	<path d="M786.401,97.85h0.881l-5.68,13.28h-0.86l1.5-3.5l-4.16-9.78h0.899l3.701,8.94L786.401,97.85z"/>
	<path d="M790.502,93.43v1.1c0,0.454-0.067,0.867-0.2,1.24c-0.133,0.373-0.359,0.713-0.68,1.02l-0.52-0.4
		c0.253-0.28,0.423-0.54,0.51-0.78c0.086-0.24,0.137-0.5,0.15-0.78h-0.641v-1.4H790.502z"/>
	<path d="M792.423,106.351l0.399-0.7c0.521,0.439,1.022,0.747,1.51,0.92c0.487,0.174,1.077,0.26,1.771,0.26
		c0.854,0,1.506-0.153,1.96-0.46c0.453-0.307,0.68-0.74,0.68-1.3c0-0.467-0.147-0.84-0.44-1.12c-0.293-0.28-0.767-0.5-1.42-0.66
		l-1.64-0.38c-0.76-0.173-1.363-0.49-1.81-0.95c-0.447-0.46-0.67-0.99-0.67-1.59c0-0.826,0.313-1.493,0.939-2
		c0.627-0.506,1.473-0.76,2.54-0.76c0.681,0,1.307,0.113,1.88,0.34c0.573,0.227,1.04,0.547,1.4,0.96l-0.4,0.72
		c-0.427-0.4-0.873-0.697-1.34-0.89c-0.467-0.193-0.98-0.29-1.54-0.29c-0.786,0-1.403,0.16-1.851,0.48
		c-0.446,0.32-0.67,0.76-0.67,1.32c0,0.493,0.137,0.883,0.41,1.17s0.703,0.503,1.291,0.65l1.659,0.4c1.72,0.4,2.58,1.247,2.58,2.54
		c0,0.8-0.327,1.444-0.979,1.93c-0.654,0.486-1.533,0.729-2.641,0.729C794.549,107.67,793.343,107.23,792.423,106.351z"/>
	<path d="M820.682,97.85h0.9l-3.439,9.68h-1l-3.061-8.64l-3.119,8.64h-1l-3.401-9.68h0.921l2.98,8.7l3.119-8.7h1.02l3.041,8.68
		L820.682,97.85z"/>
	<path d="M825.382,107.05c-0.653-0.413-1.159-1-1.52-1.76s-0.54-1.646-0.54-2.66c0-1,0.18-1.88,0.54-2.64
		c0.36-0.76,0.866-1.347,1.52-1.76s1.407-0.62,2.261-0.62c0.853,0,1.606,0.207,2.26,0.62s1.16,1,1.52,1.76
		c0.36,0.76,0.54,1.64,0.54,2.64c0,1.013-0.18,1.9-0.54,2.66c-0.359,0.76-0.866,1.347-1.52,1.76c-0.653,0.414-1.407,0.62-2.26,0.62
		C826.789,107.67,826.035,107.464,825.382,107.05z M830.172,105.761c0.594-0.727,0.891-1.771,0.891-3.13
		c0-1.32-0.304-2.35-0.91-3.09c-0.607-0.74-1.443-1.11-2.51-1.11c-1.067,0-1.903,0.37-2.511,1.11c-0.606,0.74-0.909,1.77-0.909,3.09
		c0,1.36,0.296,2.403,0.89,3.13c0.593,0.727,1.43,1.09,2.51,1.09C828.729,106.851,829.579,106.487,830.172,105.761z"/>
	<path d="M839.362,98.37l-0.681,0.08c-1.093,0.107-1.89,0.463-2.39,1.07c-0.5,0.606-0.75,1.343-0.75,2.21v5.8h-0.84v-9.68h0.84v1.7
		c0.307-0.6,0.729-1.05,1.27-1.35c0.54-0.3,1.217-0.483,2.03-0.55l0.42-0.04L839.362,98.37z"/>
	<path d="M848.901,107.53h-1.22l-5.62-4.78v4.78h-0.84v-14.1h0.84v8.94l5.06-4.52h1.181l-5.28,4.66L848.901,107.53z"/>
	<path d="M851.761,107.05c-0.653-0.413-1.159-1-1.52-1.76s-0.54-1.646-0.54-2.66c0-1,0.18-1.88,0.54-2.64
		c0.36-0.76,0.866-1.347,1.52-1.76s1.407-0.62,2.261-0.62c0.853,0,1.606,0.207,2.26,0.62s1.16,1,1.52,1.76
		c0.36,0.76,0.54,1.64,0.54,2.64c0,1.013-0.18,1.9-0.54,2.66c-0.359,0.76-0.866,1.347-1.52,1.76c-0.653,0.414-1.407,0.62-2.26,0.62
		C853.168,107.67,852.414,107.464,851.761,107.05z M856.551,105.761c0.594-0.727,0.891-1.771,0.891-3.13
		c0-1.32-0.304-2.35-0.91-3.09c-0.607-0.74-1.443-1.11-2.51-1.11c-1.067,0-1.903,0.37-2.511,1.11c-0.606,0.74-0.909,1.77-0.909,3.09
		c0,1.36,0.296,2.403,0.89,3.13c0.593,0.727,1.43,1.09,2.51,1.09C855.107,106.851,855.958,106.487,856.551,105.761z"/>
	<path d="M868.582,97.85v9.68h-0.82v-1.82c-0.307,0.627-0.75,1.11-1.33,1.45s-1.236,0.51-1.97,0.51c-1.12,0-1.97-0.313-2.55-0.939
		s-0.87-1.547-0.87-2.76v-6.12h0.84v6.04c0,1.014,0.207,1.76,0.62,2.24c0.413,0.48,1.053,0.721,1.92,0.721
		c1,0,1.803-0.316,2.41-0.95c0.606-0.633,0.91-1.477,0.91-2.53v-5.52H868.582z"/>
	<path d="M876.441,106.811l-0.04,0.779c-0.28,0.04-0.58,0.061-0.9,0.061c-1,0-1.77-0.29-2.31-0.87s-0.811-1.356-0.811-2.33v-5.88
		h-1.939v-0.72h1.939v-3.02h0.841v3.02h2.92v0.72h-2.92v5.7c0,0.853,0.199,1.5,0.6,1.939c0.4,0.44,0.993,0.66,1.78,0.66
		C875.908,106.87,876.188,106.851,876.441,106.811z"/>
	<path d="M896.401,97.85h0.9l-3.44,9.68h-1l-3.06-8.64l-3.12,8.64h-1l-3.4-9.68h0.92l2.98,8.7l3.12-8.7h1.02l3.04,8.68
		L896.401,97.85z"/>
	<path d="M906.621,101.19v6.34h-0.859v-1.78c-0.294,0.613-0.717,1.087-1.271,1.42c-0.554,0.334-1.184,0.5-1.89,0.5
		c-0.613,0-1.177-0.127-1.69-0.38s-0.92-0.603-1.22-1.05c-0.3-0.446-0.45-0.937-0.45-1.47c0-0.72,0.19-1.277,0.57-1.67
		c0.38-0.393,1.007-0.676,1.88-0.85s2.097-0.26,3.67-0.26h0.4v-0.84c0-0.947-0.188-1.637-0.561-2.07
		c-0.373-0.433-0.967-0.65-1.78-0.65c-0.626,0-1.203,0.083-1.729,0.25c-0.527,0.167-1.077,0.437-1.65,0.81l-0.399-0.72
		c0.493-0.36,1.063-0.644,1.71-0.85c0.646-0.207,1.296-0.31,1.95-0.31C905.515,97.61,906.621,98.804,906.621,101.19z M904.222,106.4
		c0.479-0.287,0.856-0.684,1.13-1.19c0.272-0.507,0.41-1.08,0.41-1.72v-0.72h-0.381c-1.399,0-2.467,0.057-3.199,0.17
		c-0.733,0.113-1.247,0.307-1.54,0.58c-0.294,0.273-0.44,0.677-0.44,1.21c0,0.613,0.227,1.116,0.68,1.51s1.027,0.59,1.721,0.59
		C903.201,106.83,903.741,106.688,904.222,106.4z"/>
	<path d="M909.381,106.351l0.4-0.7c0.52,0.439,1.023,0.747,1.51,0.92c0.486,0.174,1.077,0.26,1.771,0.26
		c0.853,0,1.506-0.153,1.96-0.46c0.453-0.307,0.68-0.74,0.68-1.3c0-0.467-0.146-0.84-0.439-1.12c-0.294-0.28-0.768-0.5-1.421-0.66
		l-1.64-0.38c-0.76-0.173-1.363-0.49-1.81-0.95c-0.447-0.46-0.67-0.99-0.67-1.59c0-0.826,0.313-1.493,0.939-2
		c0.627-0.506,1.474-0.76,2.54-0.76c0.68,0,1.307,0.113,1.88,0.34c0.573,0.227,1.04,0.547,1.4,0.96l-0.4,0.72
		c-0.427-0.4-0.873-0.697-1.34-0.89c-0.467-0.193-0.979-0.29-1.54-0.29c-0.787,0-1.403,0.16-1.85,0.48
		c-0.447,0.32-0.67,0.76-0.67,1.32c0,0.493,0.136,0.883,0.409,1.17s0.703,0.503,1.29,0.65l1.66,0.4c1.721,0.4,2.58,1.247,2.58,2.54
		c0,0.8-0.327,1.444-0.979,1.93c-0.653,0.486-1.534,0.729-2.641,0.729C911.508,107.67,910.301,107.23,909.381,106.351z"/>
	<path d="M737.942,121.851h2.92v0.72h-2.92v8.96h-0.84v-8.96h-1.94v-0.72h1.94v-0.62c0-1.213,0.29-2.134,0.87-2.76
		c0.58-0.627,1.457-0.974,2.63-1.04l0.62-0.04l0.1,0.739l-0.92,0.061c-0.84,0.054-1.46,0.333-1.86,0.84s-0.6,1.24-0.6,2.2V121.851z"
		/>
	<path d="M750.242,121.851v9.68h-0.82v-1.82c-0.307,0.627-0.75,1.11-1.33,1.45c-0.58,0.34-1.237,0.51-1.97,0.51
		c-1.12,0-1.97-0.313-2.55-0.939c-0.58-0.627-0.87-1.547-0.87-2.76v-6.12h0.84v6.04c0,1.013,0.207,1.76,0.62,2.239
		c0.413,0.48,1.053,0.721,1.92,0.721c1,0,1.803-0.316,2.41-0.95c0.606-0.633,0.91-1.477,0.91-2.53v-5.52H750.242z"/>
	<path d="M761.342,125.29v6.24h-0.84v-6.16c0-1.026-0.207-1.776-0.62-2.25c-0.414-0.473-1.08-0.71-2-0.71
		c-1.027,0-1.85,0.317-2.47,0.95c-0.62,0.634-0.93,1.477-0.93,2.53v5.64h-0.84v-9.68h0.82v1.739c0.293-0.64,0.736-1.13,1.33-1.47
		c0.593-0.34,1.27-0.51,2.03-0.51C760.169,121.61,761.342,122.837,761.342,125.29z"/>
	<path d="M764.422,130.13h1.38v1.4h-1.38V130.13z"/>
	<path d="M774.081,131.53v-14.1h0.82v14.1H774.081z"/>
	<path d="M796.761,125.29v6.24h-0.84v-6.16c0-1.026-0.187-1.776-0.56-2.25c-0.374-0.473-0.967-0.71-1.78-0.71
		c-0.934,0-1.677,0.313-2.23,0.94c-0.553,0.627-0.83,1.473-0.83,2.54v5.64h-0.84v-6.16c0-1.026-0.187-1.776-0.56-2.25
		c-0.374-0.473-0.967-0.71-1.78-0.71c-0.934,0-1.676,0.313-2.229,0.94s-0.83,1.473-0.83,2.54v5.64h-0.84v-9.68h0.819v1.699
		c0.268-0.626,0.664-1.106,1.19-1.439s1.149-0.5,1.87-0.5c1.547,0,2.54,0.646,2.98,1.939c0.279-0.6,0.709-1.072,1.289-1.42
		c0.58-0.346,1.236-0.52,1.971-0.52C795.694,121.61,796.761,122.837,796.761,125.29z"/>
	<path d="M807.901,126.771h-7.521c0.026,1.307,0.356,2.313,0.99,3.02c0.633,0.707,1.536,1.061,2.71,1.061
		c0.6,0,1.163-0.101,1.689-0.301c0.527-0.199,1.051-0.52,1.57-0.96l0.4,0.721c-0.414,0.413-0.947,0.743-1.6,0.989
		c-0.654,0.247-1.328,0.37-2.021,0.37c-1.44,0-2.577-0.446-3.41-1.34c-0.833-0.893-1.25-2.12-1.25-3.68c0-1,0.187-1.88,0.56-2.64
		c0.373-0.761,0.9-1.351,1.58-1.771s1.461-0.63,2.34-0.63c1.254,0,2.227,0.407,2.92,1.22c0.693,0.813,1.041,1.954,1.041,3.42
		V126.771z M801.491,123.34c-0.62,0.634-0.984,1.518-1.09,2.65h6.699c-0.026-1.16-0.313-2.05-0.859-2.67s-1.314-0.93-2.301-0.93
		C802.927,122.391,802.11,122.707,801.491,123.34z"/>
	<path d="M815.08,130.811l-0.039,0.779c-0.281,0.04-0.58,0.061-0.9,0.061c-1,0-1.77-0.29-2.311-0.87
		c-0.539-0.58-0.811-1.356-0.811-2.33v-5.88h-1.939v-0.72h1.939v-3.021h0.842v3.021h2.92v0.72h-2.92v5.7
		c0,0.854,0.199,1.5,0.6,1.939c0.4,0.44,0.992,0.66,1.779,0.66C814.547,130.87,814.826,130.851,815.08,130.811z"/>
	<path d="M835.14,125.29v6.24h-0.84v-6.16c0-1.026-0.187-1.776-0.56-2.25c-0.374-0.473-0.967-0.71-1.78-0.71
		c-0.934,0-1.677,0.313-2.229,0.94c-0.554,0.627-0.83,1.473-0.83,2.54v5.64h-0.84v-6.16c0-1.026-0.188-1.776-0.561-2.25
		c-0.373-0.473-0.967-0.71-1.78-0.71c-0.933,0-1.677,0.313-2.229,0.94c-0.554,0.627-0.83,1.473-0.83,2.54v5.64h-0.84v-9.68h0.819
		v1.699c0.267-0.626,0.664-1.106,1.19-1.439s1.15-0.5,1.87-0.5c1.547,0,2.54,0.646,2.979,1.939c0.28-0.6,0.71-1.072,1.29-1.42
		c0.58-0.346,1.237-0.52,1.971-0.52C834.073,121.61,835.14,122.837,835.14,125.29z"/>
	<path d="M845.56,121.851h0.88l-5.68,13.279h-0.86l1.5-3.5l-4.159-9.779h0.899l3.7,8.939L845.56,121.851z"/>
	<path d="M854.74,121.851h2.92v0.72h-2.92v8.96h-0.841v-8.96h-1.939v-0.72h1.939v-0.62c0-1.213,0.29-2.134,0.87-2.76
		c0.58-0.627,1.457-0.974,2.63-1.04l0.62-0.04l0.101,0.739l-0.92,0.061c-0.841,0.054-1.46,0.333-1.86,0.84s-0.6,1.24-0.6,2.2
		V121.851z"/>
	<path d="M864.2,122.37l-0.681,0.08c-1.093,0.107-1.89,0.464-2.39,1.07s-0.75,1.343-0.75,2.21v5.8h-0.84v-9.68h0.84v1.699
		c0.307-0.6,0.729-1.05,1.27-1.35s1.217-0.483,2.03-0.55l0.42-0.04L864.2,122.37z"/>
	<path d="M865.84,117.891h1.279v1.26h-1.279V117.891z M866.06,131.53v-9.68h0.84v9.68H866.06z"/>
	<path d="M878.08,126.771h-7.521c0.026,1.307,0.356,2.313,0.99,3.02c0.633,0.707,1.536,1.061,2.71,1.061
		c0.6,0,1.163-0.101,1.689-0.301c0.527-0.199,1.051-0.52,1.57-0.96l0.4,0.721c-0.414,0.413-0.947,0.743-1.601,0.989
		c-0.653,0.247-1.326,0.37-2.02,0.37c-1.44,0-2.577-0.446-3.41-1.34c-0.833-0.893-1.25-2.12-1.25-3.68c0-1,0.187-1.88,0.56-2.64
		c0.373-0.761,0.9-1.351,1.58-1.771c0.681-0.42,1.46-0.63,2.34-0.63c1.254,0,2.227,0.407,2.921,1.22
		c0.692,0.813,1.04,1.954,1.04,3.42V126.771z M871.67,123.34c-0.62,0.634-0.983,1.518-1.09,2.65h6.699
		c-0.026-1.16-0.313-2.05-0.859-2.67c-0.547-0.62-1.313-0.93-2.301-0.93C873.106,122.391,872.29,122.707,871.67,123.34z"/>
	<path d="M888.479,125.29v6.24h-0.841v-6.16c0-1.026-0.206-1.776-0.619-2.25c-0.414-0.473-1.08-0.71-2-0.71
		c-1.027,0-1.851,0.317-2.471,0.95c-0.62,0.634-0.93,1.477-0.93,2.53v5.64h-0.84v-9.68h0.819v1.739c0.294-0.64,0.737-1.13,1.33-1.47
		c0.594-0.34,1.271-0.51,2.03-0.51C887.306,121.61,888.479,122.837,888.479,125.29z"/>
	<path d="M899.738,117.431v14.1h-0.84v-1.96c-0.293,0.68-0.729,1.2-1.31,1.56c-0.58,0.36-1.277,0.54-2.09,0.54
		c-0.854,0-1.607-0.21-2.261-0.63s-1.159-1.013-1.52-1.779s-0.54-1.657-0.54-2.671c0-1,0.18-1.873,0.54-2.619
		c0.36-0.747,0.866-1.327,1.52-1.74s1.407-0.62,2.261-0.62c0.813,0,1.51,0.18,2.09,0.54s1.017,0.873,1.31,1.54v-6.26H899.738z
		 M898.019,129.75c0.587-0.732,0.88-1.772,0.88-3.12c0-1.333-0.293-2.366-0.88-3.1s-1.42-1.1-2.5-1.1s-1.923,0.363-2.53,1.09
		c-0.606,0.727-0.909,1.75-0.909,3.069c0,1.334,0.303,2.377,0.909,3.131c0.607,0.753,1.443,1.13,2.511,1.13
		C896.592,130.851,897.432,130.483,898.019,129.75z"/>
	<path d="M915.118,125.19v6.34h-0.859v-1.78c-0.294,0.613-0.717,1.087-1.271,1.42c-0.554,0.334-1.184,0.5-1.89,0.5
		c-0.613,0-1.177-0.127-1.69-0.38s-0.92-0.603-1.22-1.05c-0.3-0.446-0.45-0.937-0.45-1.47c0-0.721,0.19-1.276,0.57-1.67
		s1.007-0.677,1.88-0.851c0.873-0.173,2.097-0.26,3.67-0.26h0.4v-0.84c0-0.946-0.188-1.637-0.561-2.07
		c-0.373-0.433-0.967-0.649-1.78-0.649c-0.626,0-1.203,0.083-1.729,0.25c-0.527,0.166-1.077,0.437-1.65,0.81l-0.399-0.72
		c0.493-0.36,1.063-0.644,1.71-0.851c0.646-0.206,1.296-0.31,1.95-0.31C914.012,121.61,915.118,122.804,915.118,125.19z
		 M912.719,130.4c0.479-0.287,0.856-0.684,1.13-1.19c0.272-0.506,0.41-1.08,0.41-1.72v-0.72h-0.381c-1.399,0-2.467,0.057-3.199,0.17
		c-0.733,0.113-1.247,0.307-1.54,0.58c-0.294,0.273-0.44,0.677-0.44,1.21c0,0.613,0.227,1.116,0.68,1.51s1.027,0.59,1.721,0.59
		C911.698,130.83,912.238,130.688,912.719,130.4z"/>
	<path d="M922.938,130.811l-0.04,0.779c-0.28,0.04-0.58,0.061-0.9,0.061c-1,0-1.77-0.29-2.31-0.87s-0.811-1.356-0.811-2.33v-5.88
		h-1.939v-0.72h1.939v-3.021h0.841v3.021h2.92v0.72h-2.92v5.7c0,0.854,0.199,1.5,0.6,1.939c0.4,0.44,0.993,0.66,1.78,0.66
		C922.405,130.87,922.685,130.851,922.938,130.811z"/>
	<path d="M741.163,154.811l-0.04,0.779c-0.28,0.04-0.58,0.061-0.9,0.061c-1,0-1.77-0.29-2.31-0.87s-0.81-1.356-0.81-2.33v-5.88
		h-1.94v-0.72h1.94v-3.021h0.84v3.021h2.92v0.72h-2.92v5.7c0,0.854,0.2,1.5,0.6,1.939c0.4,0.44,0.993,0.66,1.78,0.66
		C740.629,154.87,740.909,154.851,741.163,154.811z"/>
	<path d="M750.682,149.29v6.24h-0.84v-6.16c0-1.026-0.207-1.776-0.62-2.25c-0.414-0.473-1.08-0.71-2-0.71
		c-1.027,0-1.85,0.317-2.47,0.95c-0.62,0.634-0.93,1.477-0.93,2.53v5.64h-0.84v-14.1h0.84v6.119c0.293-0.626,0.733-1.106,1.32-1.439
		s1.26-0.5,2.02-0.5C749.509,145.61,750.682,146.837,750.682,149.29z"/>
	<path d="M761.822,150.771h-7.52c0.026,1.307,0.356,2.313,0.99,3.02c0.633,0.707,1.536,1.061,2.71,1.061
		c0.6,0,1.163-0.101,1.69-0.301c0.526-0.199,1.05-0.52,1.57-0.96l0.4,0.721c-0.413,0.413-0.947,0.743-1.6,0.989
		c-0.654,0.247-1.327,0.37-2.02,0.37c-1.44,0-2.577-0.446-3.41-1.34c-0.833-0.893-1.25-2.12-1.25-3.68c0-1,0.187-1.88,0.56-2.64
		c0.373-0.761,0.9-1.351,1.58-1.771c0.68-0.42,1.46-0.63,2.34-0.63c1.253,0,2.227,0.407,2.92,1.22c0.693,0.813,1.04,1.954,1.04,3.42
		V150.771z M755.412,147.34c-0.62,0.634-0.983,1.518-1.09,2.65h6.7c-0.027-1.16-0.313-2.05-0.86-2.67s-1.313-0.93-2.3-0.93
		C756.849,146.391,756.032,146.707,755.412,147.34z"/>
	<path d="M777.422,145.851v9.22c0,1.387-0.327,2.433-0.979,3.14c-0.654,0.707-1.627,1.061-2.921,1.061c-1.613,0-2.979-0.46-4.1-1.38
		l0.399-0.7c0.667,0.479,1.268,0.81,1.801,0.99c0.533,0.18,1.173,0.27,1.92,0.27c1,0,1.76-0.276,2.279-0.83
		c0.521-0.554,0.78-1.363,0.78-2.43v-2.101c-0.28,0.694-0.717,1.224-1.31,1.591c-0.594,0.366-1.311,0.55-2.15,0.55
		c-0.854,0-1.609-0.2-2.27-0.601c-0.66-0.399-1.174-0.966-1.541-1.699c-0.366-0.733-0.549-1.573-0.549-2.521
		c0-0.946,0.183-1.783,0.549-2.51c0.367-0.727,0.881-1.29,1.541-1.69c0.66-0.399,1.416-0.6,2.27-0.6c0.826,0,1.533,0.18,2.12,0.54
		s1.026,0.873,1.319,1.54v-1.84H777.422z M775.672,153.34c0.606-0.713,0.909-1.689,0.909-2.93s-0.303-2.213-0.909-2.92
		c-0.606-0.706-1.45-1.06-2.53-1.06c-1.066,0-1.91,0.354-2.529,1.06c-0.621,0.707-0.931,1.68-0.931,2.92
		c0,1.254,0.31,2.233,0.931,2.94c0.619,0.707,1.463,1.06,2.529,1.06C774.222,154.41,775.065,154.054,775.672,153.34z"/>
	<path d="M787.882,145.851h0.88l-5.681,13.279h-0.859l1.5-3.5l-4.16-9.779h0.9l3.699,8.939L787.882,145.851z"/>
	<path d="M804.222,149.29v6.24h-0.84v-6.16c0-1.026-0.188-1.776-0.561-2.25c-0.373-0.473-0.967-0.71-1.78-0.71
		c-0.933,0-1.677,0.313-2.229,0.94c-0.554,0.627-0.83,1.473-0.83,2.54v5.64h-0.84v-6.16c0-1.026-0.188-1.776-0.561-2.25
		c-0.373-0.473-0.967-0.71-1.779-0.71c-0.934,0-1.678,0.313-2.23,0.94c-0.554,0.627-0.83,1.473-0.83,2.54v5.64h-0.84v-9.68h0.82
		v1.699c0.266-0.626,0.662-1.106,1.189-1.439c0.526-0.333,1.15-0.5,1.87-0.5c1.546,0,2.54,0.646,2.979,1.939
		c0.28-0.6,0.711-1.072,1.291-1.42c0.58-0.346,1.236-0.52,1.969-0.52C803.154,145.61,804.222,146.837,804.222,149.29z"/>
	<path d="M816.961,154.811l-0.04,0.779c-0.28,0.04-0.58,0.061-0.9,0.061c-1,0-1.77-0.29-2.31-0.87s-0.811-1.356-0.811-2.33v-5.88
		h-1.939v-0.72h1.939v-3.021h0.841v3.021h2.92v0.72h-2.92v5.7c0,0.854,0.199,1.5,0.6,1.939c0.4,0.44,0.993,0.66,1.78,0.66
		C816.428,154.87,816.707,154.851,816.961,154.811z"/>
	<path d="M820.181,155.05c-0.653-0.413-1.159-1-1.52-1.76s-0.54-1.646-0.54-2.66c0-1,0.18-1.88,0.54-2.64s0.866-1.347,1.52-1.76
		s1.407-0.62,2.261-0.62c0.853,0,1.606,0.207,2.26,0.62s1.16,1,1.52,1.76c0.36,0.76,0.54,1.64,0.54,2.64c0,1.014-0.18,1.9-0.54,2.66
		c-0.359,0.76-0.866,1.347-1.52,1.76c-0.653,0.414-1.407,0.62-2.26,0.62C821.588,155.67,820.834,155.464,820.181,155.05z
		 M824.971,153.761c0.594-0.727,0.891-1.771,0.891-3.131c0-1.319-0.304-2.35-0.91-3.09c-0.607-0.74-1.443-1.109-2.51-1.109
		c-1.067,0-1.903,0.369-2.511,1.109c-0.606,0.74-0.909,1.771-0.909,3.09c0,1.36,0.296,2.404,0.89,3.131
		c0.593,0.727,1.43,1.09,2.51,1.09C823.527,154.851,824.378,154.487,824.971,153.761z"/>
	<path d="M837.4,141.431v14.1h-0.84v-1.96c-0.293,0.68-0.729,1.2-1.31,1.56c-0.58,0.36-1.277,0.54-2.09,0.54
		c-0.854,0-1.607-0.21-2.261-0.63s-1.159-1.013-1.52-1.779s-0.54-1.657-0.54-2.671c0-1,0.18-1.873,0.54-2.619
		c0.36-0.747,0.866-1.327,1.52-1.74s1.407-0.62,2.261-0.62c0.813,0,1.51,0.18,2.09,0.54s1.017,0.873,1.31,1.54v-6.26H837.4z
		 M835.681,153.75c0.587-0.732,0.88-1.772,0.88-3.12c0-1.333-0.293-2.366-0.88-3.1s-1.42-1.1-2.5-1.1s-1.923,0.363-2.53,1.09
		c-0.606,0.727-0.909,1.75-0.909,3.069c0,1.334,0.303,2.377,0.909,3.131c0.607,0.753,1.443,1.13,2.511,1.13
		C834.254,154.851,835.094,154.483,835.681,153.75z"/>
	<path d="M847.86,149.19v6.34h-0.859v-1.78c-0.294,0.613-0.717,1.087-1.271,1.42c-0.554,0.334-1.184,0.5-1.89,0.5
		c-0.613,0-1.177-0.127-1.69-0.38s-0.92-0.603-1.22-1.05c-0.3-0.446-0.45-0.937-0.45-1.47c0-0.721,0.19-1.276,0.57-1.67
		s1.007-0.677,1.88-0.851c0.873-0.173,2.097-0.26,3.67-0.26h0.4v-0.84c0-0.946-0.188-1.637-0.561-2.07
		c-0.373-0.433-0.967-0.649-1.78-0.649c-0.626,0-1.203,0.083-1.729,0.25c-0.527,0.166-1.077,0.437-1.65,0.81l-0.399-0.72
		c0.493-0.36,1.063-0.644,1.71-0.851c0.646-0.206,1.296-0.31,1.95-0.31C846.754,145.61,847.86,146.804,847.86,149.19z
		 M845.461,154.4c0.479-0.287,0.856-0.684,1.13-1.19c0.272-0.506,0.41-1.08,0.41-1.72v-0.72h-0.381c-1.399,0-2.467,0.057-3.199,0.17
		c-0.733,0.113-1.247,0.307-1.54,0.58c-0.294,0.273-0.44,0.677-0.44,1.21c0,0.613,0.227,1.116,0.68,1.51s1.027,0.59,1.721,0.59
		C844.44,154.83,844.98,154.688,845.461,154.4z"/>
	<path d="M858.28,145.851h0.88l-5.68,13.279h-0.86l1.5-3.5l-4.159-9.779h0.899l3.7,8.939L858.28,145.851z"/>
	<path d="M873.28,149.19v6.34h-0.859v-1.78c-0.294,0.613-0.717,1.087-1.271,1.42c-0.554,0.334-1.184,0.5-1.89,0.5
		c-0.613,0-1.177-0.127-1.69-0.38s-0.92-0.603-1.22-1.05c-0.3-0.446-0.45-0.937-0.45-1.47c0-0.721,0.19-1.276,0.57-1.67
		s1.007-0.677,1.88-0.851c0.873-0.173,2.097-0.26,3.67-0.26h0.4v-0.84c0-0.946-0.188-1.637-0.561-2.07
		c-0.373-0.433-0.967-0.649-1.78-0.649c-0.626,0-1.203,0.083-1.729,0.25c-0.527,0.166-1.077,0.437-1.65,0.81l-0.399-0.72
		c0.493-0.36,1.063-0.644,1.71-0.851c0.646-0.206,1.296-0.31,1.95-0.31C872.174,145.61,873.28,146.804,873.28,149.19z
		 M870.881,154.4c0.479-0.287,0.856-0.684,1.13-1.19c0.272-0.506,0.41-1.08,0.41-1.72v-0.72h-0.381c-1.399,0-2.467,0.057-3.199,0.17
		c-0.733,0.113-1.247,0.307-1.54,0.58c-0.294,0.273-0.44,0.677-0.44,1.21c0,0.613,0.227,1.116,0.68,1.51s1.027,0.59,1.721,0.59
		C869.86,154.83,870.4,154.688,870.881,154.4z"/>
	<path d="M884.341,149.29v6.24H883.5v-6.16c0-1.026-0.206-1.776-0.619-2.25c-0.414-0.473-1.08-0.71-2-0.71
		c-1.027,0-1.851,0.317-2.471,0.95c-0.62,0.634-0.93,1.477-0.93,2.53v5.64h-0.84v-9.68h0.819v1.739c0.294-0.64,0.737-1.13,1.33-1.47
		c0.594-0.34,1.271-0.51,2.03-0.51C883.167,145.61,884.341,146.837,884.341,149.29z"/>
	<path d="M895.6,141.431v14.1h-0.84v-1.96c-0.293,0.68-0.729,1.2-1.31,1.56c-0.58,0.36-1.277,0.54-2.09,0.54
		c-0.854,0-1.607-0.21-2.261-0.63s-1.159-1.013-1.52-1.779s-0.54-1.657-0.54-2.671c0-1,0.18-1.873,0.54-2.619
		c0.36-0.747,0.866-1.327,1.52-1.74s1.407-0.62,2.261-0.62c0.813,0,1.51,0.18,2.09,0.54s1.017,0.873,1.31,1.54v-6.26H895.6z
		 M893.88,153.75c0.587-0.732,0.88-1.772,0.88-3.12c0-1.333-0.293-2.366-0.88-3.1s-1.42-1.1-2.5-1.1s-1.923,0.363-2.53,1.09
		c-0.606,0.727-0.909,1.75-0.909,3.069c0,1.334,0.303,2.377,0.909,3.131c0.607,0.753,1.443,1.13,2.511,1.13
		C892.453,154.851,893.293,154.483,893.88,153.75z"/>
	<path d="M917.14,145.851h0.9l-3.44,9.68h-1l-3.06-8.64l-3.12,8.64h-1l-3.4-9.68h0.92l2.98,8.699l3.12-8.699h1.02l3.04,8.68
		L917.14,145.851z"/>
	<path d="M928.22,150.771h-7.521c0.026,1.307,0.356,2.313,0.99,3.02c0.633,0.707,1.536,1.061,2.71,1.061
		c0.6,0,1.163-0.101,1.689-0.301c0.527-0.199,1.051-0.52,1.57-0.96l0.4,0.721c-0.414,0.413-0.947,0.743-1.601,0.989
		c-0.653,0.247-1.326,0.37-2.02,0.37c-1.44,0-2.577-0.446-3.41-1.34c-0.833-0.893-1.25-2.12-1.25-3.68c0-1,0.187-1.88,0.56-2.64
		c0.373-0.761,0.9-1.351,1.58-1.771c0.681-0.42,1.46-0.63,2.34-0.63c1.254,0,2.227,0.407,2.921,1.22
		c0.692,0.813,1.04,1.954,1.04,3.42V150.771z M921.81,147.34c-0.62,0.634-0.983,1.518-1.09,2.65h6.699
		c-0.026-1.16-0.313-2.05-0.859-2.67c-0.547-0.62-1.313-0.93-2.301-0.93C923.246,146.391,922.43,146.707,921.81,147.34z"/>
	<path d="M749.922,169.851h0.9l-3.44,9.68h-1l-3.06-8.64l-3.12,8.64h-1l-3.4-9.68h0.92l2.98,8.699l3.12-8.699h1.02l3.04,8.68
		L749.922,169.851z"/>
	<path d="M761.002,174.771h-7.52c0.026,1.307,0.356,2.313,0.99,3.02c0.633,0.707,1.536,1.061,2.71,1.061
		c0.6,0,1.163-0.101,1.69-0.301c0.526-0.199,1.05-0.52,1.57-0.96l0.4,0.721c-0.413,0.413-0.947,0.743-1.6,0.989
		c-0.654,0.247-1.327,0.37-2.02,0.37c-1.44,0-2.577-0.446-3.41-1.34c-0.833-0.893-1.25-2.12-1.25-3.68c0-1,0.187-1.88,0.56-2.64
		c0.373-0.761,0.9-1.351,1.58-1.771c0.68-0.42,1.46-0.63,2.34-0.63c1.253,0,2.227,0.407,2.92,1.22c0.693,0.813,1.04,1.954,1.04,3.42
		V174.771z M754.592,171.34c-0.62,0.634-0.983,1.518-1.09,2.65h6.7c-0.027-1.16-0.313-2.05-0.86-2.67s-1.313-0.93-2.3-0.93
		C756.029,170.391,755.212,170.707,754.592,171.34z"/>
	<path d="M768.362,170.37l-0.68,0.08c-1.094,0.107-1.891,0.464-2.391,1.07s-0.75,1.343-0.75,2.21v5.8h-0.84v-9.68h0.84v1.699
		c0.307-0.6,0.73-1.05,1.27-1.35c0.541-0.3,1.217-0.483,2.03-0.55l0.42-0.04L768.362,170.37z"/>
	<path d="M777.802,174.771h-7.52c0.025,1.307,0.355,2.313,0.99,3.02c0.633,0.707,1.535,1.061,2.709,1.061
		c0.6,0,1.164-0.101,1.69-0.301c0.526-0.199,1.05-0.52,1.569-0.96l0.4,0.721c-0.413,0.413-0.947,0.743-1.6,0.989
		c-0.654,0.247-1.327,0.37-2.02,0.37c-1.441,0-2.578-0.446-3.41-1.34c-0.834-0.893-1.25-2.12-1.25-3.68c0-1,0.186-1.88,0.56-2.64
		c0.373-0.761,0.899-1.351,1.58-1.771c0.68-0.42,1.46-0.63,2.34-0.63c1.253,0,2.227,0.407,2.92,1.22
		c0.693,0.813,1.04,1.954,1.04,3.42V174.771z M771.392,171.34c-0.619,0.634-0.983,1.518-1.09,2.65h6.7
		c-0.026-1.16-0.313-2.05-0.86-2.67s-1.313-0.93-2.3-0.93C772.828,170.391,772.012,170.707,771.392,171.34z"/>
	<path d="M792.481,173.19v6.34h-0.86v-1.78c-0.294,0.613-0.717,1.087-1.271,1.42c-0.553,0.334-1.183,0.5-1.889,0.5
		c-0.614,0-1.178-0.127-1.691-0.38c-0.513-0.253-0.92-0.603-1.219-1.05c-0.301-0.446-0.451-0.937-0.451-1.47
		c0-0.721,0.19-1.276,0.57-1.67c0.381-0.394,1.007-0.677,1.881-0.851c0.873-0.173,2.096-0.26,3.67-0.26h0.399v-0.84
		c0-0.946-0.187-1.637-0.56-2.07c-0.373-0.433-0.967-0.649-1.78-0.649c-0.627,0-1.204,0.083-1.729,0.25
		c-0.527,0.166-1.078,0.437-1.65,0.81l-0.4-0.72c0.493-0.36,1.063-0.644,1.711-0.851c0.646-0.206,1.296-0.31,1.949-0.31
		C791.374,169.61,792.481,170.804,792.481,173.19z M790.081,178.4c0.48-0.287,0.857-0.684,1.131-1.19
		c0.272-0.506,0.409-1.08,0.409-1.72v-0.72h-0.38c-1.4,0-2.467,0.057-3.2,0.17s-1.247,0.307-1.54,0.58s-0.439,0.677-0.439,1.21
		c0,0.613,0.227,1.116,0.68,1.51s1.026,0.59,1.721,0.59C789.062,178.83,789.601,178.688,790.081,178.4z"/>
	<path d="M797.281,179.05c-0.667-0.413-1.184-1-1.55-1.76c-0.367-0.76-0.551-1.633-0.551-2.62c0-1,0.184-1.883,0.551-2.649
		c0.366-0.767,0.887-1.36,1.56-1.78s1.456-0.63,2.351-0.63c0.652,0,1.272,0.117,1.859,0.35c0.587,0.233,1.066,0.551,1.439,0.95
		l-0.399,0.72c-0.507-0.426-0.987-0.736-1.44-0.93s-0.934-0.29-1.439-0.29c-1.107,0-1.98,0.38-2.62,1.14
		c-0.64,0.761-0.96,1.808-0.96,3.141c0,1.307,0.316,2.327,0.95,3.06c0.633,0.733,1.503,1.101,2.61,1.101
		c0.506,0,0.99-0.094,1.449-0.28c0.461-0.187,0.943-0.493,1.45-0.92l0.399,0.7c-0.387,0.413-0.879,0.736-1.479,0.97
		c-0.6,0.233-1.214,0.35-1.84,0.35C798.728,179.67,797.948,179.464,797.281,179.05z"/>
	<path d="M809.682,178.811l-0.041,0.779c-0.279,0.04-0.58,0.061-0.899,0.061c-1,0-1.77-0.29-2.311-0.87
		c-0.539-0.58-0.81-1.356-0.81-2.33v-5.88h-1.94v-0.72h1.94v-3.021h0.84v3.021h2.92v0.72h-2.92v5.7c0,0.854,0.2,1.5,0.601,1.939
		c0.399,0.44,0.992,0.66,1.779,0.66C809.147,178.87,809.428,178.851,809.682,178.811z"/>
	<path d="M811.281,165.891h1.279v1.26h-1.279V165.891z M811.501,179.53v-9.68h0.84v9.68H811.501z"/>
	<path d="M823.441,173.29v6.24h-0.841v-6.16c0-1.026-0.206-1.776-0.619-2.25c-0.414-0.473-1.08-0.71-2-0.71
		c-1.027,0-1.851,0.317-2.471,0.95c-0.62,0.634-0.93,1.477-0.93,2.53v5.64h-0.84v-9.68h0.819v1.739c0.294-0.64,0.737-1.13,1.33-1.47
		c0.594-0.34,1.271-0.51,2.03-0.51C822.268,169.61,823.441,170.837,823.441,173.29z"/>
	<path d="M834.78,169.851v9.22c0,1.387-0.326,2.433-0.979,3.14s-1.627,1.061-2.92,1.061c-1.613,0-2.98-0.46-4.101-1.38l0.4-0.7
		c0.666,0.479,1.267,0.81,1.8,0.99c0.533,0.18,1.173,0.27,1.92,0.27c1,0,1.76-0.276,2.28-0.83c0.52-0.554,0.78-1.363,0.78-2.43
		v-2.101c-0.28,0.694-0.717,1.224-1.311,1.591c-0.593,0.366-1.31,0.55-2.149,0.55c-0.854,0-1.61-0.2-2.271-0.601
		c-0.66-0.399-1.173-0.966-1.54-1.699s-0.55-1.573-0.55-2.521c0-0.946,0.183-1.783,0.55-2.51s0.88-1.29,1.54-1.69
		c0.66-0.399,1.417-0.6,2.271-0.6c0.826,0,1.533,0.18,2.119,0.54c0.587,0.36,1.027,0.873,1.32,1.54v-1.84H834.78z M833.03,177.34
		c0.606-0.713,0.91-1.689,0.91-2.93s-0.304-2.213-0.91-2.92c-0.606-0.706-1.449-1.06-2.529-1.06c-1.067,0-1.91,0.354-2.53,1.06
		c-0.62,0.707-0.93,1.68-0.93,2.92c0,1.254,0.31,2.233,0.93,2.94s1.463,1.06,2.53,1.06
		C831.581,178.41,832.424,178.054,833.03,177.34z"/>
	<path d="M842.5,178.351l0.4-0.7c0.52,0.439,1.023,0.747,1.51,0.92c0.486,0.174,1.077,0.26,1.771,0.26
		c0.853,0,1.506-0.153,1.96-0.46c0.453-0.307,0.68-0.74,0.68-1.3c0-0.467-0.146-0.84-0.439-1.12c-0.294-0.28-0.768-0.5-1.421-0.66
		l-1.64-0.38c-0.76-0.173-1.363-0.49-1.81-0.95c-0.447-0.46-0.67-0.989-0.67-1.59c0-0.826,0.313-1.493,0.939-2s1.474-0.76,2.54-0.76
		c0.68,0,1.307,0.113,1.88,0.34s1.04,0.547,1.4,0.96l-0.4,0.72c-0.427-0.399-0.873-0.696-1.34-0.89s-0.979-0.29-1.54-0.29
		c-0.787,0-1.403,0.16-1.85,0.48c-0.447,0.319-0.67,0.76-0.67,1.319c0,0.494,0.136,0.884,0.409,1.17
		c0.273,0.287,0.703,0.504,1.29,0.65l1.66,0.4c1.721,0.399,2.58,1.246,2.58,2.54c0,0.8-0.327,1.443-0.979,1.93
		c-0.653,0.486-1.534,0.729-2.641,0.729C844.627,179.67,843.42,179.23,842.5,178.351z"/>
	<path d="M852.4,165.891h1.279v1.26H852.4V165.891z M852.62,179.53v-9.68h0.84v9.68H852.62z"/>
	<path d="M856.86,179.53v-14.1h0.84v14.1H856.86z"/>
	<path d="M861.1,179.53v-14.1h0.84v14.1H861.1z"/>
	<path d="M872.399,169.851h0.88l-5.68,13.279h-0.86l1.5-3.5l-4.159-9.779h0.899l3.7,8.939L872.399,169.851z"/>
	<path d="M874.459,178.13h1.38v1.4h-1.38V178.13z"/>
	<path d="M887.619,179.53v-13.34h-5.18v-0.76h11.2v0.76h-5.181v13.34H887.619z"/>
	<path d="M903.279,173.29v6.24h-0.841v-6.16c0-1.026-0.206-1.776-0.619-2.25c-0.414-0.473-1.08-0.71-2-0.71
		c-1.027,0-1.851,0.317-2.471,0.95c-0.62,0.634-0.93,1.477-0.93,2.53v5.64h-0.84v-14.1h0.84v6.119
		c0.293-0.626,0.733-1.106,1.32-1.439c0.586-0.333,1.26-0.5,2.02-0.5C902.105,169.61,903.279,170.837,903.279,173.29z"/>
	<path d="M914.42,174.771h-7.521c0.026,1.307,0.356,2.313,0.99,3.02c0.633,0.707,1.536,1.061,2.71,1.061
		c0.6,0,1.163-0.101,1.689-0.301c0.527-0.199,1.051-0.52,1.57-0.96l0.4,0.721c-0.414,0.413-0.947,0.743-1.601,0.989
		c-0.653,0.247-1.326,0.37-2.02,0.37c-1.44,0-2.577-0.446-3.41-1.34c-0.833-0.893-1.25-2.12-1.25-3.68c0-1,0.187-1.88,0.56-2.64
		c0.373-0.761,0.9-1.351,1.58-1.771c0.681-0.42,1.46-0.63,2.34-0.63c1.254,0,2.227,0.407,2.921,1.22
		c0.692,0.813,1.04,1.954,1.04,3.42V174.771z M908.01,171.34c-0.62,0.634-0.983,1.518-1.09,2.65h6.699
		c-0.026-1.16-0.313-2.05-0.859-2.67c-0.547-0.62-1.313-0.93-2.301-0.93C909.446,170.391,908.63,170.707,908.01,171.34z"/>
	<path d="M921.779,170.37l-0.681,0.08c-1.093,0.107-1.89,0.464-2.39,1.07s-0.75,1.343-0.75,2.21v5.8h-0.84v-9.68h0.84v1.699
		c0.307-0.6,0.729-1.05,1.27-1.35s1.217-0.483,2.03-0.55l0.42-0.04L921.779,170.37z"/>
	<path d="M931.219,174.771h-7.521c0.026,1.307,0.356,2.313,0.99,3.02c0.633,0.707,1.536,1.061,2.71,1.061
		c0.6,0,1.163-0.101,1.689-0.301c0.527-0.199,1.051-0.52,1.57-0.96l0.4,0.721c-0.414,0.413-0.947,0.743-1.601,0.989
		c-0.653,0.247-1.326,0.37-2.02,0.37c-1.44,0-2.577-0.446-3.41-1.34c-0.833-0.893-1.25-2.12-1.25-3.68c0-1,0.187-1.88,0.56-2.64
		c0.373-0.761,0.9-1.351,1.58-1.771c0.681-0.42,1.46-0.63,2.34-0.63c1.254,0,2.227,0.407,2.921,1.22
		c0.692,0.813,1.04,1.954,1.04,3.42V174.771z M924.809,171.34c-0.62,0.634-0.983,1.518-1.09,2.65h6.699
		c-0.026-1.16-0.313-2.05-0.859-2.67c-0.547-0.62-1.313-0.93-2.301-0.93C926.245,170.391,925.429,170.707,924.809,171.34z"/>
	<path d="M952.058,169.851h0.9l-3.44,9.68h-1l-3.06-8.64l-3.12,8.64h-1l-3.4-9.68h0.92l2.98,8.699l3.12-8.699h1.02l3.04,8.68
		L952.058,169.851z"/>
	<path d="M962.277,173.19v6.34h-0.859v-1.78c-0.294,0.613-0.717,1.087-1.271,1.42c-0.554,0.334-1.184,0.5-1.89,0.5
		c-0.613,0-1.177-0.127-1.69-0.38s-0.92-0.603-1.22-1.05c-0.3-0.446-0.45-0.937-0.45-1.47c0-0.721,0.19-1.276,0.57-1.67
		s1.007-0.677,1.88-0.851c0.873-0.173,2.097-0.26,3.67-0.26h0.4v-0.84c0-0.946-0.188-1.637-0.561-2.07
		c-0.373-0.433-0.967-0.649-1.78-0.649c-0.626,0-1.203,0.083-1.729,0.25c-0.527,0.166-1.077,0.437-1.65,0.81l-0.399-0.72
		c0.493-0.36,1.063-0.644,1.71-0.851c0.646-0.206,1.296-0.31,1.95-0.31C961.171,169.61,962.277,170.804,962.277,173.19z
		 M959.878,178.4c0.479-0.287,0.856-0.684,1.13-1.19c0.272-0.506,0.41-1.08,0.41-1.72v-0.72h-0.381c-1.399,0-2.467,0.057-3.199,0.17
		c-0.733,0.113-1.247,0.307-1.54,0.58c-0.294,0.273-0.44,0.677-0.44,1.21c0,0.613,0.227,1.116,0.68,1.51s1.027,0.59,1.721,0.59
		C958.857,178.83,959.397,178.688,959.878,178.4z"/>
	<path d="M965.037,178.351l0.4-0.7c0.52,0.439,1.023,0.747,1.51,0.92c0.486,0.174,1.077,0.26,1.771,0.26
		c0.853,0,1.506-0.153,1.96-0.46c0.453-0.307,0.68-0.74,0.68-1.3c0-0.467-0.146-0.84-0.439-1.12c-0.294-0.28-0.768-0.5-1.421-0.66
		l-1.64-0.38c-0.76-0.173-1.363-0.49-1.81-0.95c-0.447-0.46-0.67-0.989-0.67-1.59c0-0.826,0.313-1.493,0.939-2s1.474-0.76,2.54-0.76
		c0.68,0,1.307,0.113,1.88,0.34s1.04,0.547,1.4,0.96l-0.4,0.72c-0.427-0.399-0.873-0.696-1.34-0.89s-0.979-0.29-1.54-0.29
		c-0.787,0-1.403,0.16-1.85,0.48c-0.447,0.319-0.67,0.76-0.67,1.319c0,0.494,0.136,0.884,0.409,1.17
		c0.273,0.287,0.703,0.504,1.29,0.65l1.66,0.4c1.721,0.399,2.58,1.246,2.58,2.54c0,0.8-0.327,1.443-0.979,1.93
		c-0.653,0.486-1.534,0.729-2.641,0.729C967.164,179.67,965.957,179.23,965.037,178.351z"/>
	<path d="M741.362,194.37l-0.68,0.08c-1.094,0.107-1.89,0.464-2.39,1.07s-0.75,1.343-0.75,2.21v5.8h-0.84v-9.68h0.84v1.699
		c0.307-0.6,0.73-1.05,1.27-1.35s1.216-0.483,2.03-0.55l0.42-0.04L741.362,194.37z"/>
	<path d="M750.802,198.771h-7.52c0.026,1.307,0.356,2.313,0.99,3.02c0.633,0.707,1.536,1.061,2.71,1.061
		c0.6,0,1.163-0.101,1.69-0.301c0.526-0.199,1.05-0.52,1.57-0.96l0.4,0.721c-0.413,0.413-0.947,0.743-1.6,0.989
		c-0.654,0.247-1.327,0.37-2.02,0.37c-1.44,0-2.577-0.446-3.41-1.34c-0.833-0.893-1.25-2.12-1.25-3.68c0-1,0.187-1.88,0.56-2.64
		c0.373-0.761,0.9-1.351,1.58-1.771c0.68-0.42,1.46-0.63,2.34-0.63c1.253,0,2.227,0.407,2.92,1.22c0.693,0.813,1.04,1.954,1.04,3.42
		V198.771z M744.392,195.34c-0.62,0.634-0.983,1.518-1.09,2.65h6.7c-0.027-1.16-0.313-2.05-0.86-2.67s-1.313-0.93-2.3-0.93
		C745.829,194.391,745.012,194.707,744.392,195.34z"/>
	<path d="M760.562,197.19v6.34h-0.86v-1.78c-0.293,0.613-0.717,1.087-1.27,1.42c-0.553,0.334-1.183,0.5-1.89,0.5
		c-0.614,0-1.177-0.127-1.69-0.38s-0.92-0.603-1.22-1.05c-0.3-0.446-0.45-0.937-0.45-1.47c0-0.721,0.19-1.276,0.57-1.67
		c0.38-0.394,1.006-0.677,1.88-0.851c0.873-0.173,2.097-0.26,3.67-0.26h0.4v-0.84c0-0.946-0.187-1.637-0.56-2.07
		c-0.373-0.433-0.967-0.649-1.78-0.649c-0.627,0-1.204,0.083-1.73,0.25c-0.527,0.166-1.077,0.437-1.65,0.81l-0.4-0.72
		c0.493-0.36,1.063-0.644,1.71-0.851c0.646-0.206,1.296-0.31,1.95-0.31C759.456,193.61,760.562,194.804,760.562,197.19z
		 M758.162,202.4c0.48-0.287,0.857-0.684,1.13-1.19c0.273-0.506,0.41-1.08,0.41-1.72v-0.72h-0.38c-1.4,0-2.467,0.057-3.2,0.17
		s-1.247,0.307-1.54,0.58s-0.44,0.677-0.44,1.21c0,0.613,0.227,1.116,0.68,1.51c0.453,0.394,1.026,0.59,1.72,0.59
		C757.142,202.83,757.682,202.688,758.162,202.4z"/>
	<path d="M763.923,203.53v-14.1h0.84v14.1H763.923z"/>
	<path d="M768.162,203.53v-14.1h0.84v14.1H768.162z"/>
	<path d="M779.462,193.851h0.88l-5.681,13.279h-0.859l1.5-3.5l-4.16-9.779h0.9l3.699,8.939L779.462,193.851z"/>
	<path d="M786.802,202.351l0.399-0.7c0.521,0.439,1.022,0.747,1.51,0.92c0.487,0.174,1.077,0.26,1.771,0.26
		c0.854,0,1.506-0.153,1.96-0.46c0.453-0.307,0.68-0.74,0.68-1.3c0-0.467-0.147-0.84-0.44-1.12s-0.767-0.5-1.42-0.66l-1.64-0.38
		c-0.76-0.173-1.363-0.49-1.81-0.95c-0.447-0.46-0.67-0.989-0.67-1.59c0-0.826,0.313-1.493,0.939-2s1.473-0.76,2.54-0.76
		c0.681,0,1.307,0.113,1.88,0.34s1.04,0.547,1.4,0.96l-0.4,0.72c-0.427-0.399-0.873-0.696-1.34-0.89s-0.98-0.29-1.54-0.29
		c-0.786,0-1.403,0.16-1.851,0.48c-0.446,0.319-0.67,0.76-0.67,1.319c0,0.494,0.137,0.884,0.41,1.17
		c0.273,0.287,0.703,0.504,1.291,0.65l1.659,0.4c1.72,0.399,2.58,1.246,2.58,2.54c0,0.8-0.327,1.443-0.979,1.93
		c-0.654,0.486-1.533,0.729-2.641,0.729C788.928,203.67,787.722,203.23,786.802,202.351z"/>
	<path d="M810.24,197.29v6.24h-0.84v-6.16c0-1.026-0.186-1.776-0.56-2.25c-0.373-0.473-0.967-0.71-1.779-0.71
		c-0.934,0-1.678,0.313-2.23,0.94s-0.83,1.473-0.83,2.54v5.64h-0.84v-6.16c0-1.026-0.188-1.776-0.561-2.25
		c-0.373-0.473-0.967-0.71-1.779-0.71c-0.934,0-1.677,0.313-2.23,0.94c-0.553,0.627-0.83,1.473-0.83,2.54v5.64h-0.84v-9.68h0.82
		v1.699c0.267-0.626,0.663-1.106,1.189-1.439c0.527-0.333,1.15-0.5,1.871-0.5c1.546,0,2.539,0.646,2.979,1.939
		c0.28-0.6,0.71-1.072,1.29-1.42c0.58-0.346,1.236-0.52,1.97-0.52C809.174,193.61,810.24,194.837,810.24,197.29z"/>
	<path d="M815.001,203.05c-0.653-0.413-1.159-1-1.52-1.76s-0.54-1.646-0.54-2.66c0-1,0.18-1.88,0.54-2.64s0.866-1.347,1.52-1.76
		s1.407-0.62,2.261-0.62c0.853,0,1.606,0.207,2.26,0.62s1.16,1,1.52,1.76c0.36,0.76,0.54,1.64,0.54,2.64c0,1.014-0.18,1.9-0.54,2.66
		c-0.359,0.76-0.866,1.347-1.52,1.76c-0.653,0.414-1.407,0.62-2.26,0.62C816.408,203.67,815.654,203.464,815.001,203.05z
		 M819.791,201.761c0.594-0.727,0.891-1.771,0.891-3.131c0-1.319-0.304-2.35-0.91-3.09c-0.607-0.74-1.443-1.109-2.51-1.109
		c-1.067,0-1.903,0.369-2.511,1.109c-0.606,0.74-0.909,1.771-0.909,3.09c0,1.36,0.296,2.404,0.89,3.131
		c0.593,0.727,1.43,1.09,2.51,1.09C818.348,202.851,819.198,202.487,819.791,201.761z"/>
	<path d="M825.721,203.05c-0.653-0.413-1.159-1-1.52-1.76s-0.54-1.646-0.54-2.66c0-1,0.18-1.88,0.54-2.64s0.866-1.347,1.52-1.76
		s1.407-0.62,2.261-0.62c0.853,0,1.606,0.207,2.26,0.62s1.16,1,1.52,1.76c0.36,0.76,0.54,1.64,0.54,2.64c0,1.014-0.18,1.9-0.54,2.66
		c-0.359,0.76-0.866,1.347-1.52,1.76c-0.653,0.414-1.407,0.62-2.26,0.62C827.128,203.67,826.374,203.464,825.721,203.05z
		 M830.511,201.761c0.594-0.727,0.891-1.771,0.891-3.131c0-1.319-0.304-2.35-0.91-3.09c-0.607-0.74-1.443-1.109-2.51-1.109
		c-1.067,0-1.903,0.369-2.511,1.109c-0.606,0.74-0.909,1.771-0.909,3.09c0,1.36,0.296,2.404,0.89,3.131
		c0.593,0.727,1.43,1.09,2.51,1.09C829.067,202.851,829.918,202.487,830.511,201.761z"/>
	<path d="M839.521,202.811l-0.04,0.779c-0.28,0.04-0.58,0.061-0.9,0.061c-1,0-1.77-0.29-2.31-0.87s-0.811-1.356-0.811-2.33v-5.88
		h-1.939v-0.72h1.939v-3.021h0.841v3.021h2.92v0.72h-2.92v5.7c0,0.854,0.199,1.5,0.6,1.939c0.4,0.44,0.993,0.66,1.78,0.66
		C838.988,202.87,839.268,202.851,839.521,202.811z"/>
	<path d="M849.041,197.29v6.24H848.2v-6.16c0-1.026-0.206-1.776-0.619-2.25c-0.414-0.473-1.08-0.71-2-0.71
		c-1.027,0-1.851,0.317-2.471,0.95c-0.62,0.634-0.93,1.477-0.93,2.53v5.64h-0.84v-14.1h0.84v6.119
		c0.293-0.626,0.733-1.106,1.32-1.439c0.586-0.333,1.26-0.5,2.02-0.5C847.867,193.61,849.041,194.837,849.041,197.29z"/>
	<path d="M864.99,191.03c0.887,1.174,1.33,2.847,1.33,5.02c0,2.414-0.454,4.29-1.36,5.631c-0.906,1.34-2.18,2.01-3.82,2.01
		c-0.786,0-1.55-0.16-2.289-0.48c-0.74-0.319-1.41-0.779-2.011-1.38l0.42-0.7c0.681,0.614,1.33,1.061,1.95,1.341
		c0.62,0.279,1.271,0.42,1.95,0.42c1.347,0,2.4-0.604,3.16-1.811c0.76-1.206,1.14-2.89,1.14-5.05v-0.76
		c-0.293,0.88-0.816,1.573-1.57,2.08c-0.753,0.507-1.623,0.76-2.609,0.76c-0.88,0-1.657-0.184-2.33-0.55
		c-0.674-0.367-1.197-0.884-1.57-1.55c-0.373-0.667-0.56-1.44-0.56-2.32c0-0.84,0.187-1.597,0.56-2.271
		c0.373-0.673,0.894-1.199,1.561-1.58c0.666-0.38,1.42-0.569,2.26-0.569C862.84,189.271,864.104,189.857,864.99,191.03z
		 M863.16,196.851c0.56-0.307,0.996-0.733,1.31-1.28s0.471-1.167,0.471-1.86c0-1.093-0.34-1.973-1.021-2.64
		c-0.68-0.667-1.573-1-2.68-1c-1.067,0-1.92,0.333-2.561,1c-0.64,0.667-0.96,1.547-0.96,2.64c0,1.08,0.323,1.95,0.971,2.61
		c0.646,0.66,1.503,0.99,2.569,0.99C861.967,197.311,862.601,197.157,863.16,196.851z"/>
	<path d="M870.08,201.86c-0.813-1.22-1.22-3.01-1.22-5.37c0-2.373,0.403-4.17,1.21-5.39c0.807-1.221,1.99-1.83,3.55-1.83
		s2.743,0.606,3.55,1.819c0.807,1.214,1.21,3.007,1.21,5.381c0,2.359-0.406,4.153-1.22,5.38s-1.993,1.84-3.54,1.84
		S870.894,203.08,870.08,201.86z M876.53,201.29c0.633-1.04,0.95-2.646,0.95-4.819c0-2.187-0.313-3.797-0.94-4.83
		s-1.6-1.551-2.92-1.551c-1.307,0-2.277,0.521-2.91,1.561s-0.95,2.646-0.95,4.82c0,2.159,0.317,3.763,0.95,4.81
		s1.604,1.57,2.91,1.57S875.896,202.33,876.53,201.29z"/>
	<path d="M880.72,202.351l0.4-0.7c0.52,0.439,1.023,0.747,1.51,0.92c0.486,0.174,1.077,0.26,1.771,0.26
		c0.853,0,1.506-0.153,1.96-0.46c0.453-0.307,0.68-0.74,0.68-1.3c0-0.467-0.146-0.84-0.439-1.12c-0.294-0.28-0.768-0.5-1.421-0.66
		l-1.64-0.38c-0.76-0.173-1.363-0.49-1.81-0.95c-0.447-0.46-0.67-0.989-0.67-1.59c0-0.826,0.313-1.493,0.939-2s1.474-0.76,2.54-0.76
		c0.68,0,1.307,0.113,1.88,0.34s1.04,0.547,1.4,0.96l-0.4,0.72c-0.427-0.399-0.873-0.696-1.34-0.89s-0.979-0.29-1.54-0.29
		c-0.787,0-1.403,0.16-1.85,0.48c-0.447,0.319-0.67,0.76-0.67,1.319c0,0.494,0.136,0.884,0.409,1.17
		c0.273,0.287,0.703,0.504,1.29,0.65l1.66,0.4c1.721,0.399,2.58,1.246,2.58,2.54c0,0.8-0.327,1.443-0.979,1.93
		c-0.653,0.486-1.534,0.729-2.641,0.729C882.847,203.67,881.64,203.23,880.72,202.351z"/>
	<path d="M906.46,203.53h-0.92l-2.381-4.52c-0.347-0.667-0.746-1.12-1.199-1.36c-0.454-0.24-1.087-0.36-1.9-0.36h-3.26v6.24h-0.82
		v-14.1h5.44c1.453,0,2.576,0.33,3.37,0.989c0.793,0.66,1.189,1.63,1.189,2.91c0,1.094-0.323,1.967-0.97,2.62
		c-0.647,0.653-1.563,1.047-2.75,1.18c0.333,0.107,0.63,0.287,0.89,0.54c0.26,0.254,0.51,0.594,0.75,1.021L906.46,203.53z
		 M901.439,196.49c2.44,0,3.66-1.06,3.66-3.18c0-1.04-0.3-1.816-0.9-2.33c-0.6-0.514-1.52-0.771-2.76-0.771h-4.62v6.28H901.439z"/>
	<path d="M919.239,203.53l-1.779-2.04c-0.521,0.707-1.15,1.247-1.891,1.62c-0.739,0.373-1.557,0.56-2.45,0.56
		c-0.826,0-1.563-0.146-2.21-0.439c-0.646-0.293-1.146-0.71-1.5-1.25c-0.353-0.54-0.529-1.157-0.529-1.851
		c0-0.813,0.25-1.557,0.75-2.229s1.323-1.39,2.47-2.15l0.26-0.16c-0.68-0.8-1.144-1.437-1.39-1.909
		c-0.247-0.474-0.37-0.977-0.37-1.511c0-0.866,0.283-1.563,0.85-2.09c0.567-0.526,1.323-0.79,2.271-0.79
		c0.866,0,1.557,0.237,2.07,0.71c0.513,0.474,0.77,1.117,0.77,1.931c0,0.453-0.087,0.863-0.26,1.229
		c-0.174,0.367-0.474,0.747-0.9,1.14c-0.427,0.394-1.04,0.87-1.84,1.431l3.82,4.46c0.666-1.28,1.006-2.86,1.02-4.74h0.84
		c-0.053,2.16-0.493,3.947-1.319,5.36l2.34,2.72H919.239z M916.96,200.891l-4.061-4.7l-0.24,0.16c-1.106,0.733-1.873,1.377-2.3,1.93
		c-0.427,0.554-0.64,1.177-0.64,1.87c0,0.84,0.31,1.507,0.93,2s1.457,0.74,2.51,0.74C914.732,202.891,916,202.224,916.96,200.891z
		 M911.81,193.45c0.207,0.4,0.616,0.96,1.23,1.68c1.026-0.692,1.727-1.26,2.1-1.699c0.373-0.44,0.56-0.913,0.56-1.42
		c0-0.573-0.183-1.037-0.55-1.391c-0.366-0.353-0.843-0.53-1.43-0.53c-0.667,0-1.203,0.19-1.61,0.57
		c-0.406,0.38-0.609,0.884-0.609,1.51C911.5,192.624,911.603,193.05,911.81,193.45z"/>
	<path d="M931.79,197.5c0.446,0.594,0.67,1.33,0.67,2.21c0,1.254-0.394,2.204-1.181,2.851c-0.786,0.646-1.913,0.97-3.38,0.97h-5.42
		v-14.1h5.2c1.427,0,2.526,0.316,3.3,0.949c0.773,0.634,1.16,1.551,1.16,2.75c0,0.773-0.197,1.431-0.59,1.971
		c-0.394,0.54-0.943,0.943-1.65,1.21C930.713,196.511,931.343,196.907,931.79,197.5z M923.319,195.971h4.26
		c1.2,0,2.113-0.254,2.74-0.761c0.627-0.506,0.94-1.239,0.94-2.199c0-1.867-1.228-2.801-3.681-2.801h-4.26V195.971z M930.67,202.03
		c0.606-0.48,0.909-1.22,0.909-2.22s-0.31-1.757-0.93-2.271c-0.62-0.513-1.543-0.77-2.77-0.77h-4.561v5.979h4.561
		C929.133,202.75,930.063,202.511,930.67,202.03z"/>
	<path d="M953.799,197.29v6.24h-0.84v-6.16c0-1.026-0.187-1.776-0.56-2.25c-0.374-0.473-0.967-0.71-1.78-0.71
		c-0.934,0-1.677,0.313-2.229,0.94c-0.554,0.627-0.83,1.473-0.83,2.54v5.64h-0.84v-6.16c0-1.026-0.188-1.776-0.561-2.25
		c-0.373-0.473-0.967-0.71-1.78-0.71c-0.933,0-1.677,0.313-2.229,0.94c-0.554,0.627-0.83,1.473-0.83,2.54v5.64h-0.84v-9.68h0.819
		v1.699c0.267-0.626,0.664-1.106,1.19-1.439s1.15-0.5,1.87-0.5c1.547,0,2.54,0.646,2.979,1.939c0.28-0.6,0.71-1.072,1.29-1.42
		c0.58-0.346,1.237-0.52,1.971-0.52C952.732,193.61,953.799,194.837,953.799,197.29z"/>
	<path d="M964.659,193.851v9.68h-0.82v-1.82c-0.307,0.627-0.75,1.11-1.33,1.45s-1.236,0.51-1.97,0.51c-1.12,0-1.97-0.313-2.55-0.939
		s-0.87-1.547-0.87-2.76v-6.12h0.84v6.04c0,1.013,0.207,1.76,0.62,2.239c0.413,0.48,1.053,0.721,1.92,0.721
		c1,0,1.803-0.316,2.41-0.95c0.606-0.633,0.91-1.477,0.91-2.53v-5.52H964.659z"/>
	<path d="M967.459,202.351l0.4-0.7c0.52,0.439,1.023,0.747,1.51,0.92c0.486,0.174,1.077,0.26,1.771,0.26
		c0.853,0,1.506-0.153,1.96-0.46c0.453-0.307,0.68-0.74,0.68-1.3c0-0.467-0.146-0.84-0.439-1.12c-0.294-0.28-0.768-0.5-1.421-0.66
		l-1.64-0.38c-0.76-0.173-1.363-0.49-1.81-0.95c-0.447-0.46-0.67-0.989-0.67-1.59c0-0.826,0.313-1.493,0.939-2s1.474-0.76,2.54-0.76
		c0.68,0,1.307,0.113,1.88,0.34s1.04,0.547,1.4,0.96l-0.4,0.72c-0.427-0.399-0.873-0.696-1.34-0.89s-0.979-0.29-1.54-0.29
		c-0.787,0-1.403,0.16-1.85,0.48c-0.447,0.319-0.67,0.76-0.67,1.319c0,0.494,0.136,0.884,0.409,1.17
		c0.273,0.287,0.703,0.504,1.29,0.65l1.66,0.4c1.721,0.399,2.58,1.246,2.58,2.54c0,0.8-0.327,1.443-0.979,1.93
		c-0.653,0.486-1.534,0.729-2.641,0.729C969.586,203.67,968.379,203.23,967.459,202.351z"/>
	<path d="M977.359,189.891h1.279v1.26h-1.279V189.891z M977.579,203.53v-9.68h0.84v9.68H977.579z"/>
	<path d="M983.259,203.05c-0.667-0.413-1.183-1-1.55-1.76s-0.55-1.633-0.55-2.62c0-1,0.183-1.883,0.55-2.649s0.887-1.36,1.561-1.78
		c0.673-0.42,1.456-0.63,2.35-0.63c0.653,0,1.273,0.117,1.86,0.35c0.586,0.233,1.066,0.551,1.439,0.95l-0.399,0.72
		c-0.507-0.426-0.987-0.736-1.44-0.93s-0.934-0.29-1.44-0.29c-1.106,0-1.979,0.38-2.619,1.14c-0.641,0.761-0.96,1.808-0.96,3.141
		c0,1.307,0.316,2.327,0.949,3.06c0.634,0.733,1.504,1.101,2.61,1.101c0.507,0,0.99-0.094,1.45-0.28s0.943-0.493,1.45-0.92
		l0.399,0.7c-0.387,0.413-0.88,0.736-1.479,0.97c-0.601,0.233-1.214,0.35-1.84,0.35C984.706,203.67,983.926,203.464,983.259,203.05z
		"/>
	<path d="M743.203,218.24c0.653,0.42,1.16,1.01,1.52,1.771c0.36,0.76,0.54,1.646,0.54,2.659c0,1-0.18,1.877-0.54,2.63
		c-0.36,0.754-0.867,1.337-1.52,1.75c-0.654,0.414-1.407,0.62-2.26,0.62c-0.813,0-1.51-0.18-2.09-0.54
		c-0.58-0.359-1.017-0.88-1.31-1.56v5.56h-0.84v-13.279h0.84v1.819c0.293-0.666,0.73-1.176,1.31-1.529s1.276-0.53,2.09-0.53
		C741.795,217.61,742.549,217.82,743.203,218.24z M743.442,225.761c0.6-0.727,0.9-1.757,0.9-3.091c0-1.333-0.3-2.373-0.9-3.12
		c-0.6-0.746-1.434-1.119-2.5-1.119c-1.093,0-1.934,0.363-2.52,1.09c-0.587,0.727-0.88,1.764-0.88,3.109
		c0,1.348,0.293,2.388,0.88,3.12c0.586,0.733,1.42,1.101,2.5,1.101S742.842,226.487,743.442,225.761z"/>
	<path d="M748.002,227.53v-14.1h0.84v14.1H748.002z"/>
	<path d="M759.302,221.19v6.34h-0.86v-1.78c-0.293,0.613-0.717,1.087-1.27,1.42c-0.553,0.334-1.183,0.5-1.89,0.5
		c-0.614,0-1.177-0.127-1.69-0.38s-0.92-0.603-1.22-1.05c-0.3-0.446-0.45-0.937-0.45-1.47c0-0.721,0.19-1.276,0.57-1.67
		c0.38-0.394,1.006-0.677,1.88-0.851c0.873-0.173,2.097-0.26,3.67-0.26h0.4v-0.84c0-0.946-0.187-1.637-0.56-2.07
		c-0.373-0.433-0.967-0.649-1.78-0.649c-0.627,0-1.204,0.083-1.73,0.25c-0.527,0.166-1.077,0.437-1.65,0.81l-0.4-0.72
		c0.493-0.36,1.063-0.644,1.71-0.851c0.646-0.206,1.296-0.31,1.95-0.31C758.195,217.61,759.302,218.804,759.302,221.19z
		 M756.902,226.4c0.48-0.287,0.857-0.684,1.13-1.19c0.273-0.506,0.41-1.08,0.41-1.72v-0.72h-0.38c-1.4,0-2.467,0.057-3.2,0.17
		s-1.247,0.307-1.54,0.58s-0.44,0.677-0.44,1.21c0,0.613,0.227,1.116,0.68,1.51c0.453,0.394,1.026,0.59,1.72,0.59
		C755.882,226.83,756.422,226.688,756.902,226.4z"/>
	<path d="M769.722,217.851h0.881l-5.681,13.279h-0.86l1.5-3.5l-4.16-9.779h0.9l3.7,8.939L769.722,217.851z"/>
	<path d="M772.522,213.891h1.279v1.26h-1.279V213.891z M772.742,227.53v-9.68h0.84v9.68H772.742z"/>
	<path d="M784.682,221.29v6.24h-0.84v-6.16c0-1.026-0.207-1.776-0.62-2.25c-0.414-0.473-1.08-0.71-2-0.71
		c-1.027,0-1.85,0.317-2.47,0.95c-0.62,0.634-0.931,1.477-0.931,2.53v5.64h-0.84v-9.68h0.82v1.739c0.293-0.64,0.736-1.13,1.33-1.47
		s1.27-0.51,2.029-0.51C783.509,217.61,784.682,218.837,784.682,221.29z"/>
	<path d="M796.022,217.851v9.22c0,1.387-0.328,2.433-0.98,3.14c-0.654,0.707-1.627,1.061-2.92,1.061c-1.613,0-2.98-0.46-4.1-1.38
		l0.399-0.7c0.667,0.479,1.267,0.81,1.8,0.99c0.533,0.18,1.174,0.27,1.92,0.27c1,0,1.76-0.276,2.28-0.83s0.78-1.363,0.78-2.43
		v-2.101c-0.28,0.694-0.717,1.224-1.311,1.591c-0.594,0.366-1.31,0.55-2.15,0.55c-0.854,0-1.609-0.2-2.27-0.601
		c-0.66-0.399-1.174-0.966-1.54-1.699s-0.55-1.573-0.55-2.521c0-0.946,0.184-1.783,0.55-2.51s0.88-1.29,1.54-1.69
		c0.66-0.399,1.416-0.6,2.27-0.6c0.827,0,1.533,0.18,2.121,0.54c0.586,0.36,1.025,0.873,1.319,1.54v-1.84H796.022z M794.272,225.34
		c0.605-0.713,0.909-1.689,0.909-2.93s-0.304-2.213-0.909-2.92c-0.607-0.706-1.451-1.06-2.531-1.06c-1.066,0-1.909,0.354-2.529,1.06
		c-0.62,0.707-0.93,1.68-0.93,2.92c0,1.254,0.31,2.233,0.93,2.94s1.463,1.06,2.529,1.06
		C792.821,226.41,793.665,226.054,794.272,225.34z"/>
	<path d="M811.4,221.19v6.34h-0.859v-1.78c-0.293,0.613-0.717,1.087-1.27,1.42c-0.554,0.334-1.184,0.5-1.89,0.5
		c-0.614,0-1.178-0.127-1.691-0.38c-0.513-0.253-0.92-0.603-1.219-1.05c-0.301-0.446-0.451-0.937-0.451-1.47
		c0-0.721,0.19-1.276,0.57-1.67c0.381-0.394,1.007-0.677,1.881-0.851c0.873-0.173,2.096-0.26,3.669-0.26h0.4v-0.84
		c0-0.946-0.188-1.637-0.561-2.07c-0.373-0.433-0.967-0.649-1.779-0.649c-0.627,0-1.204,0.083-1.729,0.25
		c-0.527,0.166-1.078,0.437-1.65,0.81l-0.4-0.72c0.493-0.36,1.063-0.644,1.711-0.851c0.646-0.206,1.296-0.31,1.949-0.31
		C810.295,217.61,811.4,218.804,811.4,221.19z M809.001,226.4c0.479-0.287,0.856-0.684,1.13-1.19c0.273-0.506,0.41-1.08,0.41-1.72
		v-0.72h-0.381c-1.399,0-2.466,0.057-3.199,0.17s-1.247,0.307-1.54,0.58s-0.439,0.677-0.439,1.21c0,0.613,0.227,1.116,0.68,1.51
		s1.026,0.59,1.721,0.59C807.981,226.83,808.521,226.688,809.001,226.4z"/>
	<path d="M819.221,226.811l-0.04,0.779c-0.28,0.04-0.58,0.061-0.9,0.061c-1,0-1.77-0.29-2.31-0.87s-0.811-1.356-0.811-2.33v-5.88
		h-1.939v-0.72h1.939v-3.021h0.841v3.021h2.92v0.72h-2.92v5.7c0,0.854,0.199,1.5,0.6,1.939c0.4,0.44,0.993,0.66,1.78,0.66
		C818.688,226.87,818.967,226.851,819.221,226.811z"/>
	<path d="M830.421,226.811l-0.04,0.779c-0.28,0.04-0.58,0.061-0.9,0.061c-1,0-1.77-0.29-2.31-0.87s-0.811-1.356-0.811-2.33v-5.88
		h-1.939v-0.72h1.939v-3.021h0.841v3.021h2.92v0.72h-2.92v5.7c0,0.854,0.199,1.5,0.6,1.939c0.4,0.44,0.993,0.66,1.78,0.66
		C829.888,226.87,830.167,226.851,830.421,226.811z"/>
	<path d="M839.94,221.29v6.24H839.1v-6.16c0-1.026-0.206-1.776-0.619-2.25c-0.414-0.473-1.08-0.71-2-0.71
		c-1.027,0-1.851,0.317-2.471,0.95c-0.62,0.634-0.93,1.477-0.93,2.53v5.64h-0.84v-14.1h0.84v6.119
		c0.293-0.626,0.733-1.106,1.32-1.439c0.586-0.333,1.26-0.5,2.02-0.5C838.767,217.61,839.94,218.837,839.94,221.29z"/>
	<path d="M851.081,222.771h-7.521c0.026,1.307,0.356,2.313,0.99,3.02c0.633,0.707,1.536,1.061,2.71,1.061
		c0.6,0,1.163-0.101,1.689-0.301c0.527-0.199,1.051-0.52,1.57-0.96l0.4,0.721c-0.414,0.413-0.947,0.743-1.601,0.989
		c-0.653,0.247-1.326,0.37-2.02,0.37c-1.44,0-2.577-0.446-3.41-1.34c-0.833-0.893-1.25-2.12-1.25-3.68c0-1,0.187-1.88,0.56-2.64
		c0.373-0.761,0.9-1.351,1.58-1.771c0.681-0.42,1.46-0.63,2.34-0.63c1.254,0,2.227,0.407,2.921,1.22
		c0.692,0.813,1.04,1.954,1.04,3.42V222.771z M844.671,219.34c-0.62,0.634-0.983,1.518-1.09,2.65h6.699
		c-0.026-1.16-0.313-2.05-0.859-2.67c-0.547-0.62-1.313-0.93-2.301-0.93C846.107,218.391,845.291,218.707,844.671,219.34z"/>
	<path d="M866.68,217.851v9.22c0,1.387-0.326,2.433-0.979,3.14s-1.627,1.061-2.92,1.061c-1.613,0-2.98-0.46-4.101-1.38l0.4-0.7
		c0.666,0.479,1.267,0.81,1.8,0.99c0.533,0.18,1.173,0.27,1.92,0.27c1,0,1.76-0.276,2.28-0.83c0.52-0.554,0.78-1.363,0.78-2.43
		v-2.101c-0.28,0.694-0.717,1.224-1.311,1.591c-0.593,0.366-1.31,0.55-2.149,0.55c-0.854,0-1.61-0.2-2.271-0.601
		c-0.66-0.399-1.173-0.966-1.54-1.699s-0.55-1.573-0.55-2.521c0-0.946,0.183-1.783,0.55-2.51s0.88-1.29,1.54-1.69
		c0.66-0.399,1.417-0.6,2.271-0.6c0.826,0,1.533,0.18,2.119,0.54c0.587,0.36,1.027,0.873,1.32,1.54v-1.84H866.68z M864.93,225.34
		c0.606-0.713,0.91-1.689,0.91-2.93s-0.304-2.213-0.91-2.92c-0.606-0.706-1.449-1.06-2.529-1.06c-1.067,0-1.91,0.354-2.53,1.06
		c-0.62,0.707-0.93,1.68-0.93,2.92c0,1.254,0.31,2.233,0.93,2.94s1.463,1.06,2.53,1.06C863.48,226.41,864.323,226.054,864.93,225.34
		z"/>
	<path d="M877.14,217.851h0.88l-5.68,13.279h-0.86l1.5-3.5l-4.159-9.779h0.899l3.7,8.939L877.14,217.851z"/>
	<path d="M893.479,221.29v6.24h-0.84v-6.16c0-1.026-0.187-1.776-0.56-2.25c-0.374-0.473-0.967-0.71-1.78-0.71
		c-0.934,0-1.677,0.313-2.229,0.94c-0.554,0.627-0.83,1.473-0.83,2.54v5.64h-0.84v-6.16c0-1.026-0.188-1.776-0.561-2.25
		c-0.373-0.473-0.967-0.71-1.78-0.71c-0.933,0-1.677,0.313-2.229,0.94c-0.554,0.627-0.83,1.473-0.83,2.54v5.64h-0.84v-9.68h0.819
		v1.699c0.267-0.626,0.664-1.106,1.19-1.439s1.15-0.5,1.87-0.5c1.547,0,2.54,0.646,2.979,1.939c0.28-0.6,0.71-1.072,1.29-1.42
		c0.58-0.346,1.237-0.52,1.971-0.52C892.412,217.61,893.479,218.837,893.479,221.29z"/>
	<path d="M906.22,226.811l-0.04,0.779c-0.28,0.04-0.58,0.061-0.9,0.061c-1,0-1.77-0.29-2.31-0.87s-0.811-1.356-0.811-2.33v-5.88
		h-1.939v-0.72h1.939v-3.021H903v3.021h2.92v0.72H903v5.7c0,0.854,0.199,1.5,0.6,1.939c0.4,0.44,0.993,0.66,1.78,0.66
		C905.687,226.87,905.966,226.851,906.22,226.811z"/>
	<path d="M909.438,227.05c-0.653-0.413-1.159-1-1.52-1.76s-0.54-1.646-0.54-2.66c0-1,0.18-1.88,0.54-2.64s0.866-1.347,1.52-1.76
		s1.407-0.62,2.261-0.62c0.853,0,1.606,0.207,2.26,0.62s1.16,1,1.52,1.76c0.36,0.76,0.54,1.64,0.54,2.64c0,1.014-0.18,1.9-0.54,2.66
		c-0.359,0.76-0.866,1.347-1.52,1.76c-0.653,0.414-1.407,0.62-2.26,0.62C910.846,227.67,910.092,227.464,909.438,227.05z
		 M914.229,225.761c0.594-0.727,0.891-1.771,0.891-3.131c0-1.319-0.304-2.35-0.91-3.09c-0.607-0.74-1.443-1.109-2.51-1.109
		c-1.067,0-1.903,0.369-2.511,1.109c-0.606,0.74-0.909,1.771-0.909,3.09c0,1.36,0.296,2.404,0.89,3.131
		c0.593,0.727,1.43,1.09,2.51,1.09C912.785,226.851,913.636,226.487,914.229,225.761z"/>
	<path d="M926.658,213.431v14.1h-0.84v-1.96c-0.293,0.68-0.729,1.2-1.31,1.56c-0.58,0.36-1.277,0.54-2.09,0.54
		c-0.854,0-1.607-0.21-2.261-0.63s-1.159-1.013-1.52-1.779s-0.54-1.657-0.54-2.671c0-1,0.18-1.873,0.54-2.619
		c0.36-0.747,0.866-1.327,1.52-1.74s1.407-0.62,2.261-0.62c0.813,0,1.51,0.18,2.09,0.54s1.017,0.873,1.31,1.54v-6.26H926.658z
		 M924.938,225.75c0.587-0.732,0.88-1.772,0.88-3.12c0-1.333-0.293-2.366-0.88-3.1s-1.42-1.1-2.5-1.1s-1.923,0.363-2.53,1.09
		c-0.606,0.727-0.909,1.75-0.909,3.069c0,1.334,0.303,2.377,0.909,3.131c0.607,0.753,1.443,1.13,2.511,1.13
		C923.512,226.851,924.352,226.483,924.938,225.75z"/>
	<path d="M937.118,221.19v6.34h-0.859v-1.78c-0.294,0.613-0.717,1.087-1.271,1.42c-0.554,0.334-1.184,0.5-1.89,0.5
		c-0.613,0-1.177-0.127-1.69-0.38s-0.92-0.603-1.22-1.05c-0.3-0.446-0.45-0.937-0.45-1.47c0-0.721,0.19-1.276,0.57-1.67
		s1.007-0.677,1.88-0.851c0.873-0.173,2.097-0.26,3.67-0.26h0.4v-0.84c0-0.946-0.188-1.637-0.561-2.07
		c-0.373-0.433-0.967-0.649-1.78-0.649c-0.626,0-1.203,0.083-1.729,0.25c-0.527,0.166-1.077,0.437-1.65,0.81l-0.399-0.72
		c0.493-0.36,1.063-0.644,1.71-0.851c0.646-0.206,1.296-0.31,1.95-0.31C936.012,217.61,937.118,218.804,937.118,221.19z
		 M934.719,226.4c0.479-0.287,0.856-0.684,1.13-1.19c0.272-0.506,0.41-1.08,0.41-1.72v-0.72h-0.381c-1.399,0-2.467,0.057-3.199,0.17
		c-0.733,0.113-1.247,0.307-1.54,0.58c-0.294,0.273-0.44,0.677-0.44,1.21c0,0.613,0.227,1.116,0.68,1.51s1.027,0.59,1.721,0.59
		C933.698,226.83,934.238,226.688,934.719,226.4z"/>
	<path d="M947.538,217.851h0.88l-5.68,13.279h-0.86l1.5-3.5l-4.159-9.779h0.899l3.7,8.939L947.538,217.851z"/>
	<path d="M949.599,226.13h1.38v1.4h-1.38V226.13z"/>
</g>
<g>
	<path d="M1114.984,106.161h3.141v0.76h-7.101v-0.76h3.14v-12.12l-2.539,1.68l-0.521-0.7l3.06-2.06v-0.02l0.2-0.12h0.62V106.161z"/>
	<path d="M1129.515,94.421c0.887,1.173,1.33,2.847,1.33,5.02c0,2.414-0.454,4.29-1.36,5.63c-0.906,1.34-2.18,2.01-3.82,2.01
		c-0.786,0-1.55-0.16-2.289-0.48c-0.74-0.32-1.41-0.78-2.011-1.38l0.42-0.7c0.681,0.613,1.33,1.06,1.95,1.34
		c0.62,0.28,1.271,0.42,1.95,0.42c1.347,0,2.4-0.603,3.16-1.81c0.76-1.207,1.14-2.89,1.14-5.05v-0.76
		c-0.293,0.88-0.816,1.573-1.57,2.08c-0.753,0.507-1.623,0.76-2.609,0.76c-0.88,0-1.657-0.183-2.33-0.55
		c-0.674-0.366-1.197-0.883-1.57-1.55c-0.373-0.667-0.56-1.44-0.56-2.32c0-0.84,0.187-1.597,0.56-2.27s0.894-1.2,1.561-1.58
		c0.666-0.38,1.42-0.57,2.26-0.57C1127.364,92.661,1128.628,93.248,1129.515,94.421z M1127.685,100.241
		c0.56-0.306,0.996-0.733,1.31-1.28c0.313-0.546,0.471-1.167,0.471-1.86c0-1.093-0.34-1.973-1.021-2.64c-0.68-0.667-1.573-1-2.68-1
		c-1.067,0-1.92,0.333-2.561,1c-0.64,0.667-0.96,1.547-0.96,2.64c0,1.08,0.323,1.95,0.971,2.61c0.646,0.66,1.503,0.99,2.569,0.99
		C1126.491,100.701,1127.125,100.548,1127.685,100.241z"/>
	<path d="M1132.585,108.081l-0.82-0.3l5.06-15.78l0.82,0.3L1132.585,108.081z"/>
	<path d="M1144.104,106.161h3.141v0.76h-7.101v-0.76h3.14v-12.12l-2.539,1.68l-0.521-0.7l3.06-2.06v-0.02l0.2-0.12h0.62V106.161z"/>
	<path d="M1156.104,106.161h3.141v0.76h-7.101v-0.76h3.14v-12.12l-2.539,1.68l-0.521-0.7l3.06-2.06v-0.02l0.2-0.12h0.62V106.161z"/>
	<path d="M1161.704,108.081l-0.82-0.3l5.06-15.78l0.82,0.3L1161.704,108.081z"/>
	<path d="M1173.224,106.161h3.141v0.76h-7.101v-0.76h3.14v-12.12l-2.539,1.68l-0.521-0.7l3.06-2.06v-0.02l0.2-0.12h0.62V106.161z"/>
	<path d="M1179.943,92.821h8.86v0.62l-6.78,13.48h-0.899l6.72-13.34h-7.9V92.821z"/>
	<path d="M1196.822,102.001v-0.76h5.28v0.76H1196.822z"/>
	<path d="M1215.382,106.161h3.141v0.76h-7.101v-0.76h3.14v-12.12l-2.539,1.68l-0.521-0.7l3.06-2.06v-0.02l0.2-0.12h0.62V106.161z"/>
	<path d="M1227.382,106.161h3.141v0.76h-7.101v-0.76h3.14v-12.12l-2.539,1.68l-0.521-0.7l3.06-2.06v-0.02l0.2-0.12h0.62V106.161z"/>
	<path d="M1233.962,97.241h1.38v1.4h-1.38V97.241z M1233.962,105.521h1.38v1.4h-1.38V105.521z"/>
	<path d="M1239.242,105.251c-0.813-1.22-1.22-3.01-1.22-5.37c0-2.373,0.403-4.17,1.21-5.39c0.807-1.22,1.99-1.83,3.55-1.83
		s2.743,0.606,3.55,1.82s1.21,3.007,1.21,5.38c0,2.36-0.406,4.153-1.22,5.38c-0.813,1.227-1.993,1.84-3.54,1.84
		S1240.056,106.471,1239.242,105.251z M1245.692,104.681c0.633-1.04,0.95-2.646,0.95-4.82c0-2.187-0.313-3.796-0.94-4.83
		c-0.627-1.033-1.6-1.55-2.92-1.55c-1.307,0-2.277,0.52-2.91,1.56s-0.95,2.647-0.95,4.82c0,2.16,0.317,3.764,0.95,4.81
		c0.633,1.047,1.604,1.57,2.91,1.57S1245.059,105.721,1245.692,104.681z"/>
	<path d="M1251.242,105.251c-0.813-1.22-1.22-3.01-1.22-5.37c0-2.373,0.403-4.17,1.21-5.39c0.807-1.22,1.99-1.83,3.55-1.83
		s2.743,0.606,3.55,1.82s1.21,3.007,1.21,5.38c0,2.36-0.406,4.153-1.22,5.38c-0.813,1.227-1.993,1.84-3.54,1.84
		S1252.056,106.471,1251.242,105.251z M1257.692,104.681c0.633-1.04,0.95-2.646,0.95-4.82c0-2.187-0.313-3.796-0.94-4.83
		c-0.627-1.033-1.6-1.55-2.92-1.55c-1.307,0-2.277,0.52-2.91,1.56s-0.95,2.647-0.95,4.82c0,2.16,0.317,3.764,0.95,4.81
		c0.633,1.047,1.604,1.57,2.91,1.57S1257.059,105.721,1257.692,104.681z"/>
	<path d="M1273.501,106.921l-1.68-3.9h-7.82l-1.68,3.9h-0.86l6.061-14.1h0.8l6.06,14.1H1273.501z M1264.341,102.221h7.141
		l-3.561-8.32L1264.341,102.221z"/>
	<path d="M1289.201,92.821h0.74v14.1h-0.82l0.021-12.34l-5.32,10.14h-0.68l-5.36-10.06l0.021,12.26h-0.82v-14.1h0.72l5.78,11.1
		L1289.201,92.821z"/>
</g>
<g>
	<path d="M1111.5,223.16c-0.826-0.307-1.573-0.787-2.24-1.44l0.421-0.7c0.706,0.654,1.413,1.114,2.119,1.381
		c0.707,0.267,1.573,0.399,2.601,0.399c1.267,0,2.246-0.263,2.939-0.79c0.693-0.526,1.04-1.276,1.04-2.25
		c0-0.56-0.173-1.013-0.52-1.359s-0.773-0.61-1.28-0.79c-0.507-0.181-1.187-0.37-2.04-0.57c-1.146-0.28-2.03-0.53-2.649-0.75
		c-0.62-0.22-1.174-0.587-1.66-1.1c-0.487-0.514-0.73-1.211-0.73-2.091c0-0.786,0.197-1.473,0.59-2.06
		c0.394-0.587,0.96-1.04,1.7-1.36c0.74-0.319,1.604-0.479,2.59-0.479c1.934,0,3.514,0.633,4.74,1.899l-0.42,0.7
		c-0.667-0.626-1.344-1.08-2.03-1.359c-0.687-0.28-1.449-0.421-2.29-0.421c-1.267,0-2.253,0.273-2.96,0.82s-1.06,1.313-1.06,2.3
		c0,0.854,0.307,1.483,0.92,1.891c0.613,0.406,1.473,0.75,2.58,1.029l0.86,0.2c0.96,0.214,1.739,0.431,2.34,0.65
		c0.6,0.22,1.109,0.563,1.529,1.03s0.631,1.093,0.631,1.88c0,0.746-0.2,1.406-0.601,1.979c-0.399,0.573-0.963,1.021-1.689,1.34
		c-0.728,0.32-1.57,0.48-2.53,0.48C1113.293,223.62,1112.327,223.467,1111.5,223.16z"/>
	<path d="M1129.601,217.22v6.24h-0.841v-6.16c0-1.026-0.206-1.776-0.619-2.25c-0.414-0.473-1.08-0.71-2-0.71
		c-1.027,0-1.851,0.317-2.471,0.95c-0.62,0.634-0.93,1.477-0.93,2.53v5.64h-0.84v-9.68h0.819v1.739c0.294-0.64,0.737-1.13,1.33-1.47
		c0.594-0.34,1.271-0.51,2.03-0.51C1128.427,213.54,1129.601,214.767,1129.601,217.22z"/>
	<path d="M1134.359,222.979c-0.653-0.413-1.159-1-1.52-1.76s-0.54-1.646-0.54-2.66c0-1,0.18-1.88,0.54-2.64s0.866-1.347,1.52-1.76
		s1.407-0.62,2.261-0.62c0.853,0,1.606,0.207,2.26,0.62s1.16,1,1.52,1.76c0.36,0.76,0.54,1.64,0.54,2.64c0,1.014-0.18,1.9-0.54,2.66
		c-0.359,0.76-0.866,1.347-1.52,1.76c-0.653,0.414-1.407,0.62-2.26,0.62C1135.767,223.6,1135.013,223.394,1134.359,222.979z
		 M1139.149,221.69c0.594-0.727,0.891-1.771,0.891-3.131c0-1.319-0.304-2.35-0.91-3.09c-0.607-0.74-1.443-1.109-2.51-1.109
		c-1.067,0-1.903,0.369-2.511,1.109c-0.606,0.74-0.909,1.771-0.909,3.09c0,1.36,0.296,2.404,0.89,3.131
		c0.593,0.727,1.43,1.09,2.51,1.09C1137.706,222.78,1138.557,222.417,1139.149,221.69z"/>
	<path d="M1156.82,213.78h0.9l-3.44,9.68h-1l-3.06-8.64l-3.12,8.64h-1l-3.4-9.68h0.92l2.98,8.699l3.12-8.699h1.02l3.04,8.68
		L1156.82,213.78z"/>
</g>
<g>
	<path d="M1396.973,100.301c0.779,0.813,1.17,1.888,1.17,3.221c0,0.854-0.181,1.613-0.54,2.279c-0.36,0.667-0.874,1.188-1.54,1.561
		c-0.667,0.373-1.447,0.56-2.34,0.56c-0.827,0-1.644-0.163-2.45-0.489c-0.807-0.327-1.504-0.783-2.09-1.37l0.42-0.7
		c1.293,1.174,2.666,1.76,4.12,1.76c1.08,0,1.937-0.33,2.569-0.99c0.634-0.659,0.95-1.536,0.95-2.63c0-1.066-0.31-1.933-0.93-2.6
		s-1.438-1-2.45-1c-0.8,0-1.487,0.16-2.06,0.479c-0.574,0.32-1.074,0.827-1.5,1.521h-0.761v-8.22h8.101v0.779h-7.28v6.2
		c0.387-0.507,0.877-0.896,1.47-1.17c0.594-0.273,1.243-0.41,1.95-0.41C1395.129,99.081,1396.192,99.488,1396.973,100.301z"/>
	<path d="M1408.692,95.281c0.887,1.174,1.33,2.847,1.33,5.02c0,2.414-0.454,4.29-1.36,5.631c-0.906,1.34-2.18,2.01-3.82,2.01
		c-0.786,0-1.55-0.16-2.289-0.48c-0.74-0.319-1.41-0.779-2.011-1.38l0.42-0.7c0.681,0.614,1.33,1.061,1.95,1.341
		c0.62,0.279,1.271,0.42,1.95,0.42c1.347,0,2.4-0.604,3.16-1.811c0.76-1.206,1.14-2.89,1.14-5.05v-0.76
		c-0.293,0.88-0.816,1.573-1.57,2.08c-0.753,0.507-1.623,0.76-2.609,0.76c-0.88,0-1.657-0.184-2.33-0.55
		c-0.674-0.367-1.197-0.884-1.57-1.55c-0.373-0.667-0.56-1.44-0.56-2.32c0-0.84,0.187-1.597,0.56-2.271
		c0.373-0.673,0.894-1.199,1.561-1.58c0.666-0.38,1.42-0.569,2.26-0.569C1406.542,93.521,1407.806,94.108,1408.692,95.281z
		 M1406.862,101.102c0.56-0.307,0.996-0.733,1.31-1.28s0.471-1.167,0.471-1.86c0-1.093-0.34-1.973-1.021-2.64
		c-0.68-0.667-1.573-1-2.68-1c-1.067,0-1.92,0.333-2.561,1c-0.64,0.667-0.96,1.547-0.96,2.64c0,1.08,0.323,1.95,0.971,2.61
		c0.646,0.66,1.503,0.99,2.569,0.99C1405.669,101.562,1406.303,101.408,1406.862,101.102z"/>
	<path d="M1412.882,93.682h8.86v0.619l-6.78,13.48h-0.899l6.72-13.34h-7.9V93.682z"/>
	<path d="M1432.972,100.301c0.779,0.813,1.17,1.888,1.17,3.221c0,0.854-0.181,1.613-0.54,2.279c-0.36,0.667-0.874,1.188-1.54,1.561
		c-0.667,0.373-1.447,0.56-2.34,0.56c-0.827,0-1.644-0.163-2.45-0.489c-0.807-0.327-1.504-0.783-2.09-1.37l0.42-0.7
		c1.293,1.174,2.666,1.76,4.12,1.76c1.08,0,1.937-0.33,2.569-0.99c0.634-0.659,0.95-1.536,0.95-2.63c0-1.066-0.31-1.933-0.93-2.6
		s-1.438-1-2.45-1c-0.8,0-1.487,0.16-2.06,0.479c-0.574,0.32-1.074,0.827-1.5,1.521h-0.761v-8.22h8.101v0.779h-7.28v6.2
		c0.387-0.507,0.877-0.896,1.47-1.17c0.594-0.273,1.243-0.41,1.95-0.41C1431.128,99.081,1432.191,99.488,1432.972,100.301z"/>
	<path d="M1441.941,107.781v-14.1h0.84v14.1H1441.941z"/>
	<path d="M1452.682,98.481c0.653,0.413,1.16,0.993,1.52,1.74c0.36,0.746,0.54,1.619,0.54,2.619c0,1.014-0.18,1.904-0.54,2.671
		c-0.359,0.767-0.866,1.359-1.52,1.779s-1.407,0.63-2.26,0.63c-0.813,0-1.511-0.18-2.091-0.54c-0.58-0.359-1.017-0.88-1.31-1.56
		v1.96h-0.84v-14.1h0.84v6.26c0.293-0.667,0.729-1.18,1.31-1.54s1.277-0.54,2.091-0.54
		C1451.274,97.861,1452.028,98.068,1452.682,98.481z M1452.922,105.981c0.6-0.747,0.899-1.793,0.899-3.141
		c0-1.319-0.3-2.343-0.899-3.069c-0.601-0.727-1.44-1.09-2.521-1.09s-1.913,0.366-2.5,1.1s-0.88,1.767-0.88,3.1
		c0,1.348,0.293,2.388,0.88,3.12c0.587,0.733,1.427,1.101,2.521,1.101C1451.488,107.102,1452.321,106.729,1452.922,105.981z"/>
	<path d="M1456.881,106.602l0.4-0.7c0.52,0.439,1.023,0.747,1.51,0.92c0.486,0.174,1.077,0.26,1.771,0.26
		c0.853,0,1.506-0.153,1.96-0.46c0.453-0.307,0.68-0.74,0.68-1.3c0-0.467-0.146-0.84-0.439-1.12c-0.294-0.28-0.768-0.5-1.421-0.66
		l-1.64-0.38c-0.76-0.173-1.363-0.49-1.81-0.95c-0.447-0.46-0.67-0.989-0.67-1.59c0-0.826,0.313-1.493,0.939-2s1.474-0.76,2.54-0.76
		c0.68,0,1.307,0.113,1.88,0.34s1.04,0.547,1.4,0.96l-0.4,0.72c-0.427-0.399-0.873-0.696-1.34-0.89s-0.979-0.29-1.54-0.29
		c-0.787,0-1.403,0.16-1.85,0.48c-0.447,0.319-0.67,0.76-0.67,1.319c0,0.494,0.136,0.884,0.409,1.17
		c0.273,0.287,0.703,0.504,1.29,0.65l1.66,0.4c1.721,0.399,2.58,1.246,2.58,2.54c0,0.8-0.327,1.443-0.979,1.93
		c-0.653,0.486-1.534,0.729-2.641,0.729C1459.008,107.921,1457.801,107.481,1456.881,106.602z"/>
	<path d="M1466.621,106.381h1.38v1.4h-1.38V106.381z"/>
</g>
<g>
	<path d="M33.069,117.02c1.65,1.083,2.933,2.6,3.85,4.55c0.916,1.95,1.375,4.192,1.375,6.725c0,2.533-0.459,4.759-1.375,6.675
		c-0.917,1.917-2.192,3.393-3.825,4.425c-1.634,1.034-3.517,1.551-5.65,1.551c-1.667,0-3.175-0.343-4.525-1.025
		c-1.35-0.683-2.393-1.642-3.125-2.875v12.5h-7.55v-33.55h7.45v3.45c0.733-1.266,1.783-2.258,3.15-2.975
		c1.366-0.716,2.9-1.075,4.6-1.075C29.544,115.395,31.419,115.937,33.069,117.02z M29.344,133.42c0.966-1.183,1.45-2.892,1.45-5.125
		c0-2.267-0.484-4.025-1.45-5.275c-0.967-1.25-2.333-1.875-4.1-1.875c-1.767,0-3.133,0.608-4.1,1.825
		c-0.967,1.217-1.45,2.959-1.45,5.225c0,2.234,0.483,3.958,1.45,5.175s2.333,1.825,4.1,1.825
		C27.01,135.195,28.376,134.604,29.344,133.42z"/>
	<path d="M42.893,140.545v-35.25h7.55v35.25H42.893z"/>
	<path d="M75.268,117.995c1.75,1.733,2.625,4.417,2.625,8.05v14.5h-7.15v-3.65c-0.5,1.268-1.333,2.259-2.5,2.976
		c-1.167,0.716-2.534,1.075-4.1,1.075c-1.667,0-3.175-0.334-4.525-1c-1.35-0.667-2.417-1.601-3.2-2.801
		c-0.784-1.199-1.175-2.532-1.175-4c0-1.8,0.458-3.216,1.375-4.25c0.917-1.032,2.392-1.782,4.425-2.25
		c2.033-0.466,4.816-0.7,8.35-0.7h1.3v-0.9c0-1.466-0.317-2.5-0.95-3.1c-0.633-0.6-1.733-0.9-3.3-0.9c-1.2,0-2.534,0.217-4,0.65
		c-1.467,0.434-2.867,1.034-4.2,1.8l-2-5.05c1.4-0.866,3.125-1.591,5.175-2.175c2.05-0.583,3.958-0.875,5.725-0.875
		C70.81,115.395,73.518,116.262,75.268,117.995z M69.343,134.27c0.9-0.982,1.35-2.258,1.35-3.824v-0.851h-0.85
		c-2.7,0-4.592,0.218-5.675,0.65c-1.084,0.434-1.625,1.217-1.625,2.35c0,0.9,0.308,1.65,0.925,2.25c0.616,0.601,1.392,0.9,2.325,0.9
		C67.26,135.745,68.443,135.254,69.343,134.27z"/>
	<path d="M100.542,116.045h7.4l-14.8,33.5h-7.65l4.7-10.35l-10.1-23.15h7.85l6.2,15.6L100.542,116.045z"/>
	<path d="M120.742,115.995h6.15v5.65h-6.15v18.9h-7.55v-18.9h-4.65v-5.65h4.65c0.066-3.467,1.075-6.075,3.025-7.825
		s4.925-2.741,8.925-2.975l2.75-0.15l0.45,5.55l-2.35,0.1c-1.934,0.067-3.292,0.425-4.075,1.075
		c-0.784,0.65-1.175,1.725-1.175,3.225V115.995z"/>
	<path d="M153.691,115.995v24.55h-7.35v-3.5c-0.768,1.268-1.775,2.233-3.025,2.9c-1.25,0.666-2.658,1-4.225,1
		c-3.1,0-5.409-0.858-6.925-2.575c-1.517-1.717-2.275-4.308-2.275-7.775v-14.6h7.55v14.75c0,1.467,0.308,2.55,0.925,3.25
		c0.616,0.7,1.558,1.05,2.825,1.05c1.467,0,2.658-0.5,3.575-1.5c0.917-1,1.375-2.316,1.375-3.95v-13.6H153.691z"/>
	<path d="M159.491,140.545v-35.25h7.55v35.25H159.491z"/>
</g>
</svg>
