<?xml version="1.0" encoding="utf-8"?>
<!-- Generator: Adobe Illustrator 16.0.0, SVG Export Plug-In . SVG Version: 6.00 Build 0)  -->
<!DOCTYPE svg PUBLIC "-//W3C//DTD SVG 1.1//EN" "http://www.w3.org/Graphics/SVG/1.1/DTD/svg11.dtd">
<svg version="1.1" id="Layer_1" xmlns="http://www.w3.org/2000/svg" xmlns:xlink="http://www.w3.org/1999/xlink" x="0px" y="0px"
	 width="1523.924px" height="256.09px" viewBox="0 0 1523.924 256.09" enable-background="new 0 0 1523.924 256.09"
	 xml:space="preserve">
<rect x="1387.322" y="202.333" width="6.549" height="21.287"/>
<rect x="1398.322" y="202.333" width="6.549" height="21.287"/>
<rect x="1409.822" y="202.333" width="6.549" height="21.287"/>
<rect x="1420.822" y="202.333" width="6.549" height="21.287"/>
<rect x="1431.322" y="202.333" width="6.549" height="21.287"/>
<rect x="1442.822" y="202.333" width="6.549" height="21.287"/>
<rect x="1453.822" y="202.333" width="6.549" height="21.287"/>
<g>
	<path d="M22.651,69.136h-3.7l-3.76-4.38v4.38h-3.02v-14.1h3.02v8.48l3.62-4.18h3.6l-4.12,4.68L22.651,69.136z"/>
	<path d="M32.071,64.796h-6.4c0.093,0.787,0.35,1.357,0.77,1.71c0.42,0.354,1.017,0.53,1.79,0.53c0.506,0,1.01-0.083,1.51-0.25
		c0.5-0.167,0.957-0.403,1.37-0.71l0.8,2.02c-0.48,0.374-1.063,0.667-1.75,0.88c-0.687,0.213-1.377,0.32-2.07,0.32
		c-1.653,0-2.957-0.457-3.91-1.37c-0.953-0.913-1.43-2.157-1.43-3.73c0-1,0.207-1.887,0.62-2.66c0.413-0.773,0.987-1.376,1.72-1.81
		c0.733-0.433,1.566-0.65,2.5-0.65c1.373,0,2.463,0.447,3.27,1.34c0.807,0.894,1.21,2.107,1.21,3.64V64.796z M26.301,61.706
		c-0.34,0.367-0.55,0.897-0.63,1.59h3.86c-0.04-0.707-0.217-1.24-0.53-1.6c-0.313-0.36-0.757-0.54-1.33-0.54
		C27.097,61.156,26.641,61.339,26.301,61.706z"/>
	<path d="M40.491,59.336h2.96l-5.92,13.4h-3.06l1.88-4.14l-4.04-9.26h3.14l2.48,6.24L40.491,59.336z"/>
	<path d="M57.571,59.316h2.94l-3.98,9.82h-2.56l-2.16-5.54l-2.1,5.54h-2.54l-4-9.82h3.08l2.32,6.22l2.32-6.22h2.04l2.34,6.28
		L57.571,59.316z"/>
	<path d="M63.411,68.666c-0.787-0.42-1.394-1.013-1.82-1.78c-0.427-0.767-0.64-1.67-0.64-2.71s0.213-1.943,0.64-2.71
		s1.033-1.356,1.82-1.77c0.787-0.413,1.7-0.62,2.74-0.62s1.953,0.207,2.74,0.62c0.787,0.414,1.393,1.003,1.82,1.77
		s0.64,1.67,0.64,2.71s-0.213,1.943-0.64,2.71c-0.427,0.767-1.033,1.36-1.82,1.78c-0.787,0.42-1.7,0.63-2.74,0.63
		S64.197,69.086,63.411,68.666z M68.351,64.176c0-0.947-0.19-1.653-0.57-2.12c-0.38-0.466-0.923-0.7-1.63-0.7
		c-1.467,0-2.2,0.94-2.2,2.82s0.733,2.82,2.2,2.82S68.351,66.056,68.351,64.176z"/>
	<path d="M80.211,61.556l-1.7,0.18c-0.84,0.08-1.434,0.317-1.78,0.71c-0.347,0.394-0.52,0.917-0.52,1.57v5.12h-3.02v-9.82h2.9v1.66
		c0.493-1.133,1.513-1.753,3.06-1.86l0.88-0.06L80.211,61.556z"/>
	<path d="M90.951,55.036v14.1h-3v-1.46c-0.293,0.507-0.71,0.903-1.25,1.19s-1.15,0.43-1.83,0.43c-0.84,0-1.59-0.217-2.25-0.65
		c-0.66-0.433-1.173-1.04-1.54-1.82c-0.367-0.78-0.55-1.676-0.55-2.69c0-1.013,0.183-1.903,0.55-2.67s0.876-1.356,1.53-1.77
		c0.653-0.413,1.407-0.62,2.26-0.62c0.667,0,1.27,0.14,1.81,0.42c0.54,0.28,0.957,0.673,1.25,1.18v-5.64H90.951z M87.38,66.266
		c0.38-0.486,0.57-1.183,0.57-2.09s-0.19-1.6-0.57-2.08c-0.38-0.48-0.923-0.72-1.63-0.72s-1.253,0.237-1.64,0.71
		s-0.58,1.157-0.58,2.05c0,0.907,0.193,1.61,0.58,2.11s0.934,0.75,1.64,0.75S87,66.752,87.38,66.266z"/>
</g>
<g>
	<path d="M744.402,60.106c0.573,0.687,0.86,1.723,0.86,3.11v5.92h-3.02v-5.78c0-0.667-0.123-1.153-0.37-1.46
		c-0.247-0.306-0.63-0.46-1.15-0.46c-0.626,0-1.13,0.2-1.51,0.6s-0.57,0.934-0.57,1.6v5.5h-3.02v-9.82h2.94v1.4
		c0.347-0.533,0.796-0.94,1.35-1.22c0.553-0.28,1.176-0.42,1.87-0.42C742.955,59.076,743.829,59.419,744.402,60.106z"/>
	<path d="M749.502,68.666c-0.787-0.42-1.394-1.013-1.82-1.78c-0.427-0.767-0.64-1.67-0.64-2.71s0.213-1.943,0.64-2.71
		s1.033-1.356,1.82-1.77c0.787-0.413,1.7-0.62,2.74-0.62s1.953,0.207,2.74,0.62c0.787,0.414,1.393,1.003,1.82,1.77
		s0.64,1.67,0.64,2.71s-0.213,1.943-0.64,2.71c-0.427,0.767-1.033,1.36-1.82,1.78c-0.787,0.42-1.7,0.63-2.74,0.63
		S750.289,69.086,749.502,68.666z M754.442,64.176c0-0.947-0.19-1.653-0.57-2.12c-0.38-0.466-0.923-0.7-1.63-0.7
		c-1.467,0-2.2,0.94-2.2,2.82s0.733,2.82,2.2,2.82S754.442,66.056,754.442,64.176z"/>
	<path d="M765.582,67.016l-0.16,2.2c-0.387,0.053-0.773,0.08-1.159,0.08c-1.494,0-2.584-0.327-3.271-0.98
		c-0.687-0.653-1.03-1.647-1.03-2.98v-3.76h-1.86v-2.26h1.86v-2.88h3.02v2.88h2.461v2.26h-2.461v3.74c0,1.173,0.547,1.76,1.641,1.76
		C764.929,67.076,765.249,67.056,765.582,67.016z"/>
	<path d="M775.762,64.796h-6.399c0.093,0.787,0.35,1.357,0.77,1.71c0.42,0.354,1.017,0.53,1.79,0.53c0.507,0,1.01-0.083,1.51-0.25
		c0.5-0.167,0.956-0.403,1.37-0.71l0.8,2.02c-0.479,0.374-1.063,0.667-1.75,0.88c-0.687,0.213-1.377,0.32-2.069,0.32
		c-1.654,0-2.957-0.457-3.91-1.37c-0.953-0.913-1.43-2.157-1.43-3.73c0-1,0.206-1.887,0.619-2.66
		c0.413-0.773,0.986-1.376,1.721-1.81c0.732-0.433,1.566-0.65,2.5-0.65c1.373,0,2.463,0.447,3.27,1.34
		c0.807,0.894,1.21,2.107,1.21,3.64V64.796z M769.991,61.706c-0.34,0.367-0.549,0.897-0.629,1.59h3.859
		c-0.04-0.707-0.217-1.24-0.529-1.6c-0.314-0.36-0.758-0.54-1.33-0.54C770.788,61.156,770.331,61.339,769.991,61.706z"/>
</g>
<g>
	<path d="M1119.244,55.036v14.1h-3v-1.46c-0.293,0.507-0.71,0.903-1.25,1.19s-1.149,0.43-1.83,0.43c-0.84,0-1.59-0.217-2.25-0.65
		c-0.659-0.433-1.173-1.04-1.539-1.82c-0.367-0.78-0.551-1.676-0.551-2.69c0-1.013,0.184-1.903,0.551-2.67
		c0.366-0.767,0.876-1.356,1.529-1.77c0.653-0.413,1.407-0.62,2.26-0.62c0.667,0,1.271,0.14,1.811,0.42
		c0.54,0.28,0.956,0.673,1.25,1.18v-5.64H1119.244z M1115.675,66.266c0.38-0.486,0.569-1.183,0.569-2.09s-0.189-1.6-0.569-2.08
		s-0.924-0.72-1.63-0.72c-0.707,0-1.254,0.237-1.641,0.71s-0.58,1.157-0.58,2.05c0,0.907,0.193,1.61,0.58,2.11
		s0.934,0.75,1.641,0.75C1114.751,66.996,1115.295,66.752,1115.675,66.266z"/>
	<path d="M1129.174,60.116c0.7,0.693,1.051,1.767,1.051,3.22v5.8h-2.86v-1.46c-0.2,0.507-0.533,0.903-1,1.19s-1.014,0.43-1.64,0.43
		c-0.667,0-1.271-0.134-1.811-0.4c-0.54-0.266-0.967-0.64-1.279-1.12c-0.313-0.48-0.471-1.013-0.471-1.6
		c0-0.72,0.184-1.287,0.55-1.7c0.367-0.413,0.957-0.713,1.771-0.9c0.813-0.187,1.927-0.28,3.34-0.28h0.521v-0.36
		c0-0.586-0.127-1-0.381-1.24c-0.253-0.24-0.693-0.36-1.319-0.36c-0.48,0-1.014,0.087-1.601,0.26
		c-0.587,0.173-1.146,0.414-1.68,0.72l-0.8-2.02c0.56-0.347,1.25-0.637,2.07-0.87c0.819-0.233,1.583-0.35,2.289-0.35
		C1127.391,59.076,1128.475,59.423,1129.174,60.116z M1126.805,66.626c0.359-0.394,0.54-0.903,0.54-1.53v-0.34h-0.341
		c-1.08,0-1.837,0.087-2.27,0.26c-0.434,0.173-0.65,0.487-0.65,0.94c0,0.36,0.123,0.66,0.37,0.9c0.247,0.24,0.557,0.36,0.931,0.36
		C1125.971,67.216,1126.444,67.019,1126.805,66.626z"/>
	<path d="M1139.284,59.336h2.96l-5.92,13.4h-3.06l1.88-4.14l-4.04-9.26h3.14l2.48,6.24L1139.284,59.336z"/>
</g>
<g>
	<path d="M1397.516,60.28c0.572,0.687,0.859,1.723,0.859,3.11v5.92h-3.02v-5.78c0-0.667-0.124-1.153-0.37-1.46
		c-0.247-0.306-0.63-0.46-1.15-0.46c-0.627,0-1.13,0.2-1.51,0.6s-0.57,0.934-0.57,1.6v5.5h-3.02v-14.1h3.02v5.58
		c0.347-0.506,0.79-0.89,1.33-1.15c0.54-0.26,1.144-0.39,1.811-0.39C1396.068,59.25,1396.941,59.593,1397.516,60.28z"/>
	<path d="M1400.534,54.77h3.24v2.82h-3.24V54.77z M1400.635,69.31v-9.82h3.02v9.82H1400.635z"/>
	<path d="M1415.994,59.49v8.76c0,1.586-0.453,2.787-1.359,3.6c-0.907,0.813-2.247,1.22-4.021,1.22c-0.88,0-1.724-0.106-2.53-0.32
		s-1.517-0.513-2.13-0.9l0.801-2.08c1.267,0.693,2.526,1.04,3.779,1.04c1.653,0,2.48-0.78,2.48-2.34v-1.08
		c-0.28,0.507-0.7,0.907-1.26,1.2c-0.561,0.293-1.188,0.44-1.881,0.44c-0.853,0-1.609-0.2-2.27-0.6s-1.177-0.97-1.55-1.71
		c-0.374-0.74-0.561-1.597-0.561-2.57c0-0.973,0.187-1.83,0.561-2.57c0.373-0.74,0.89-1.313,1.55-1.72
		c0.66-0.406,1.417-0.61,2.27-0.61c0.681,0,1.297,0.144,1.851,0.43c0.553,0.287,0.977,0.683,1.27,1.19v-1.38H1415.994z
		 M1412.404,66.05c0.394-0.453,0.59-1.087,0.59-1.9c0-0.813-0.196-1.45-0.59-1.91s-0.943-0.69-1.649-0.69
		c-0.707,0-1.261,0.23-1.66,0.69c-0.4,0.46-0.601,1.097-0.601,1.91c0,0.8,0.2,1.43,0.601,1.89c0.399,0.46,0.953,0.69,1.66,0.69
		C1411.461,66.729,1412.011,66.503,1412.404,66.05z"/>
	<path d="M1427.095,60.28c0.572,0.687,0.859,1.723,0.859,3.11v5.92h-3.02v-5.78c0-0.667-0.124-1.153-0.37-1.46
		c-0.247-0.306-0.63-0.46-1.15-0.46c-0.627,0-1.13,0.2-1.51,0.6s-0.57,0.934-0.57,1.6v5.5h-3.02v-14.1h3.02v5.58
		c0.347-0.506,0.79-0.89,1.33-1.15c0.54-0.26,1.144-0.39,1.811-0.39C1425.647,59.25,1426.521,59.593,1427.095,60.28z"/>
	<path d="M1439.055,64.97h-6.4c0.094,0.787,0.351,1.357,0.771,1.71c0.42,0.354,1.017,0.53,1.79,0.53c0.507,0,1.01-0.083,1.51-0.25
		c0.5-0.167,0.957-0.403,1.37-0.71l0.8,2.02c-0.479,0.374-1.063,0.667-1.75,0.88c-0.687,0.213-1.377,0.32-2.07,0.32
		c-1.653,0-2.956-0.457-3.909-1.37c-0.954-0.913-1.431-2.157-1.431-3.73c0-1,0.207-1.887,0.62-2.66
		c0.413-0.773,0.986-1.376,1.72-1.81c0.733-0.433,1.567-0.65,2.5-0.65c1.374,0,2.464,0.447,3.271,1.34
		c0.807,0.894,1.21,2.107,1.21,3.64V64.97z M1433.285,61.879c-0.341,0.367-0.551,0.897-0.631,1.59h3.86
		c-0.04-0.707-0.217-1.24-0.53-1.6s-0.757-0.54-1.33-0.54S1433.625,61.513,1433.285,61.879z"/>
	<path d="M1442.164,69.16c-0.754-0.207-1.403-0.503-1.95-0.89l0.8-2.08c0.533,0.36,1.12,0.64,1.76,0.84
		c0.641,0.2,1.287,0.3,1.94,0.3c0.467,0,0.83-0.077,1.09-0.23s0.391-0.363,0.391-0.63c0-0.24-0.091-0.427-0.271-0.56
		s-0.517-0.253-1.01-0.36l-1.601-0.36c-0.946-0.213-1.643-0.543-2.09-0.99c-0.446-0.447-0.67-1.057-0.67-1.83
		c0-0.613,0.177-1.153,0.53-1.62c0.353-0.466,0.853-0.833,1.5-1.1c0.646-0.267,1.383-0.4,2.21-0.4c0.706,0,1.393,0.107,2.06,0.32
		c0.667,0.214,1.267,0.514,1.801,0.9l-0.801,2c-1.04-0.72-2.066-1.08-3.08-1.08c-0.467,0-0.833,0.08-1.1,0.24
		c-0.267,0.16-0.4,0.387-0.4,0.68c0,0.213,0.08,0.38,0.24,0.5s0.44,0.233,0.84,0.34l1.66,0.38c1,0.227,1.73,0.57,2.19,1.03
		s0.689,1.083,0.689,1.87c0,0.947-0.377,1.69-1.13,2.23s-1.79,0.81-3.109,0.81C1443.747,69.47,1442.917,69.366,1442.164,69.16z"/>
	<path d="M1456.914,67.189l-0.159,2.2c-0.388,0.053-0.773,0.08-1.16,0.08c-1.494,0-2.584-0.327-3.271-0.98s-1.029-1.647-1.029-2.98
		v-3.76h-1.86v-2.26h1.86v-2.88h3.02v2.88h2.46v2.26h-2.46v3.74c0,1.173,0.547,1.76,1.64,1.76
		C1456.261,67.25,1456.581,67.229,1456.914,67.189z"/>
	<path d="M1472.164,59.899c0.66,0.434,1.173,1.04,1.54,1.82c0.366,0.78,0.55,1.677,0.55,2.69s-0.184,1.903-0.55,2.67
		c-0.367,0.767-0.877,1.357-1.53,1.77c-0.653,0.414-1.407,0.62-2.26,0.62c-0.667,0-1.271-0.137-1.811-0.41s-0.957-0.657-1.25-1.15v5
		h-3.02V59.49h2.979v1.38c0.294-0.507,0.714-0.903,1.261-1.19c0.546-0.287,1.159-0.43,1.84-0.43
		C1470.754,59.25,1471.504,59.466,1472.164,59.899z M1470.674,66.459c0.387-0.473,0.58-1.156,0.58-2.05
		c0-0.907-0.193-1.61-0.58-2.11s-0.934-0.75-1.64-0.75c-0.707,0-1.254,0.243-1.641,0.73s-0.58,1.183-0.58,2.09
		c0,0.894,0.193,1.583,0.58,2.07c0.387,0.487,0.934,0.73,1.641,0.73C1469.74,67.169,1470.287,66.933,1470.674,66.459z"/>
	<path d="M1478.073,68.839c-0.786-0.42-1.394-1.013-1.819-1.78c-0.427-0.767-0.641-1.67-0.641-2.71s0.214-1.943,0.641-2.71
		c0.426-0.767,1.033-1.356,1.819-1.77c0.787-0.413,1.7-0.62,2.74-0.62s1.953,0.207,2.74,0.62c0.786,0.414,1.393,1.003,1.82,1.77
		c0.426,0.767,0.64,1.67,0.64,2.71s-0.214,1.943-0.64,2.71c-0.428,0.767-1.034,1.36-1.82,1.78c-0.787,0.42-1.7,0.63-2.74,0.63
		S1478.86,69.26,1478.073,68.839z M1483.014,64.35c0-0.947-0.19-1.653-0.57-2.12c-0.38-0.466-0.923-0.7-1.63-0.7
		c-1.467,0-2.2,0.94-2.2,2.82s0.733,2.82,2.2,2.82S1483.014,66.229,1483.014,64.35z"/>
	<path d="M1487.754,54.77h3.24v2.82h-3.24V54.77z M1487.854,69.31v-9.82h3.02v9.82H1487.854z"/>
	<path d="M1501.975,60.28c0.572,0.687,0.859,1.723,0.859,3.11v5.92h-3.02v-5.78c0-0.667-0.124-1.153-0.37-1.46
		c-0.247-0.306-0.63-0.46-1.15-0.46c-0.627,0-1.13,0.2-1.51,0.6s-0.57,0.934-0.57,1.6v5.5h-3.02v-9.82h2.939v1.4
		c0.347-0.533,0.797-0.94,1.351-1.22c0.553-0.28,1.177-0.42,1.87-0.42C1500.527,59.25,1501.4,59.593,1501.975,60.28z"/>
	<path d="M1511.493,67.189l-0.159,2.2c-0.388,0.053-0.773,0.08-1.16,0.08c-1.494,0-2.584-0.327-3.271-0.98s-1.029-1.647-1.029-2.98
		v-3.76h-1.86v-2.26h1.86v-2.88h3.02v2.88h2.46v2.26h-2.46v3.74c0,1.173,0.547,1.76,1.64,1.76
		C1510.84,67.25,1511.16,67.229,1511.493,67.189z"/>
</g>
<g>
	<path d="M1388.382,168.755h3.24v2.82h-3.24V168.755z M1388.482,183.295v-9.82h3.02v9.82H1388.482z"/>
	<path d="M1402.603,174.265c0.572,0.688,0.859,1.724,0.859,3.11v5.92h-3.02v-5.78c0-0.666-0.124-1.153-0.37-1.46
		c-0.247-0.307-0.63-0.46-1.15-0.46c-0.627,0-1.13,0.2-1.51,0.601c-0.38,0.399-0.57,0.933-0.57,1.6v5.5h-3.02v-9.82h2.939v1.4
		c0.347-0.533,0.797-0.94,1.351-1.22c0.553-0.28,1.177-0.42,1.87-0.42C1401.155,173.235,1402.028,173.578,1402.603,174.265z"/>
	<path d="M1412.121,181.175l-0.159,2.2c-0.388,0.053-0.773,0.08-1.16,0.08c-1.494,0-2.584-0.327-3.271-0.98
		c-0.687-0.652-1.029-1.646-1.029-2.979v-3.76h-1.86v-2.261h1.86v-2.88h3.02v2.88h2.46v2.261h-2.46v3.739
		c0,1.174,0.547,1.761,1.64,1.761C1411.468,181.235,1411.788,181.215,1412.121,181.175z"/>
	<path d="M1422.302,178.955h-6.4c0.094,0.787,0.351,1.356,0.771,1.71s1.017,0.53,1.79,0.53c0.507,0,1.01-0.084,1.51-0.25
		c0.5-0.167,0.957-0.403,1.37-0.71l0.8,2.02c-0.479,0.373-1.063,0.667-1.75,0.88s-1.377,0.32-2.07,0.32
		c-1.653,0-2.956-0.457-3.909-1.37c-0.954-0.913-1.431-2.156-1.431-3.73c0-1,0.207-1.886,0.62-2.659s0.986-1.377,1.72-1.811
		c0.733-0.433,1.567-0.649,2.5-0.649c1.374,0,2.464,0.446,3.271,1.34s1.21,2.106,1.21,3.64V178.955z M1416.532,175.865
		c-0.341,0.366-0.551,0.896-0.631,1.59h3.86c-0.04-0.707-0.217-1.24-0.53-1.601c-0.313-0.359-0.757-0.54-1.33-0.54
		S1416.872,175.498,1416.532,175.865z"/>
	<path d="M1432.902,174.265c0.572,0.688,0.859,1.724,0.859,3.11v5.92h-3.02v-5.78c0-0.666-0.124-1.153-0.37-1.46
		c-0.247-0.307-0.63-0.46-1.15-0.46c-0.627,0-1.13,0.2-1.51,0.601c-0.38,0.399-0.57,0.933-0.57,1.6v5.5h-3.02v-9.82h2.939v1.4
		c0.347-0.533,0.797-0.94,1.351-1.22c0.553-0.28,1.177-0.42,1.87-0.42C1431.455,173.235,1432.328,173.578,1432.902,174.265z"/>
	<path d="M1437.312,183.145c-0.754-0.206-1.403-0.503-1.95-0.89l0.8-2.08c0.533,0.36,1.12,0.64,1.76,0.84
		c0.641,0.2,1.287,0.3,1.94,0.3c0.467,0,0.83-0.076,1.09-0.229s0.391-0.363,0.391-0.63c0-0.24-0.091-0.427-0.271-0.561
		c-0.18-0.133-0.517-0.253-1.01-0.359l-1.601-0.36c-0.946-0.213-1.643-0.543-2.09-0.99c-0.446-0.446-0.67-1.057-0.67-1.83
		c0-0.612,0.177-1.152,0.53-1.619c0.353-0.467,0.853-0.834,1.5-1.101c0.646-0.267,1.383-0.399,2.21-0.399
		c0.706,0,1.393,0.106,2.06,0.319c0.667,0.214,1.267,0.514,1.801,0.9l-0.801,2c-1.04-0.72-2.066-1.08-3.08-1.08
		c-0.467,0-0.833,0.08-1.1,0.24s-0.4,0.387-0.4,0.68c0,0.214,0.08,0.38,0.24,0.5s0.44,0.233,0.84,0.34l1.66,0.38
		c1,0.228,1.73,0.57,2.19,1.03s0.689,1.083,0.689,1.87c0,0.946-0.377,1.689-1.13,2.229s-1.79,0.811-3.109,0.811
		C1438.895,183.455,1438.064,183.352,1437.312,183.145z"/>
	<path d="M1445.661,168.755h3.24v2.82h-3.24V168.755z M1445.762,183.295v-9.82h3.02v9.82H1445.762z"/>
	<path d="M1457.501,181.175l-0.159,2.2c-0.388,0.053-0.773,0.08-1.16,0.08c-1.494,0-2.584-0.327-3.271-0.98
		c-0.687-0.652-1.029-1.646-1.029-2.979v-3.76h-1.86v-2.261h1.86v-2.88h3.02v2.88h2.46v2.261h-2.46v3.739
		c0,1.174,0.547,1.761,1.64,1.761C1456.848,181.235,1457.168,181.215,1457.501,181.175z"/>
	<path d="M1465.841,173.495h2.96l-5.92,13.399h-3.06l1.88-4.14l-4.04-9.26h3.14l2.48,6.24L1465.841,173.495z"/>
</g>
<g>
	<path d="M1122.505,173.475h2.939l-3.979,9.82h-2.561l-2.16-5.54l-2.1,5.54h-2.54l-4-9.82h3.08l2.32,6.221l2.319-6.221h2.04
		l2.34,6.28L1122.505,173.475z"/>
	<path d="M1135.204,178.955h-6.4c0.094,0.787,0.351,1.356,0.771,1.71s1.017,0.53,1.79,0.53c0.507,0,1.01-0.084,1.51-0.25
		c0.5-0.167,0.957-0.403,1.37-0.71l0.8,2.02c-0.479,0.373-1.063,0.667-1.75,0.88s-1.377,0.32-2.07,0.32
		c-1.653,0-2.956-0.457-3.909-1.37c-0.954-0.913-1.431-2.156-1.431-3.73c0-1,0.207-1.886,0.62-2.659s0.986-1.377,1.72-1.811
		c0.733-0.433,1.567-0.649,2.5-0.649c1.374,0,2.464,0.446,3.271,1.34s1.21,2.106,1.21,3.64V178.955z M1129.435,175.865
		c-0.341,0.366-0.551,0.896-0.631,1.59h3.86c-0.04-0.707-0.217-1.24-0.53-1.601c-0.313-0.359-0.757-0.54-1.33-0.54
		S1129.774,175.498,1129.435,175.865z"/>
	<path d="M1144.634,174.275c0.7,0.693,1.051,1.767,1.051,3.22v5.8h-2.86v-1.46c-0.2,0.507-0.533,0.903-1,1.19
		c-0.467,0.286-1.014,0.43-1.64,0.43c-0.667,0-1.271-0.134-1.811-0.4s-0.967-0.64-1.279-1.12c-0.313-0.479-0.471-1.013-0.471-1.6
		c0-0.72,0.184-1.286,0.55-1.7c0.367-0.413,0.957-0.713,1.771-0.899s1.927-0.28,3.34-0.28h0.521v-0.36c0-0.586-0.127-1-0.381-1.24
		c-0.253-0.239-0.693-0.359-1.319-0.359c-0.48,0-1.014,0.087-1.601,0.26c-0.587,0.174-1.146,0.413-1.68,0.72l-0.8-2.02
		c0.56-0.347,1.25-0.637,2.07-0.87c0.819-0.233,1.583-0.35,2.289-0.35C1142.851,173.235,1143.935,173.582,1144.634,174.275z
		 M1142.265,180.785c0.359-0.394,0.54-0.903,0.54-1.53v-0.34h-0.341c-1.08,0-1.837,0.087-2.27,0.26
		c-0.434,0.174-0.65,0.487-0.65,0.94c0,0.359,0.123,0.66,0.37,0.899c0.247,0.24,0.557,0.36,0.931,0.36
		C1141.431,181.375,1141.904,181.179,1142.265,180.785z"/>
	<path d="M1154.344,181.175l-0.159,2.2c-0.388,0.053-0.773,0.08-1.16,0.08c-1.494,0-2.584-0.327-3.271-0.98
		c-0.687-0.652-1.029-1.646-1.029-2.979v-3.76h-1.86v-2.261h1.86v-2.88h3.02v2.88h2.46v2.261h-2.46v3.739
		c0,1.174,0.547,1.761,1.64,1.761C1153.69,181.235,1154.011,181.215,1154.344,181.175z"/>
	<path d="M1164.465,174.265c0.572,0.688,0.859,1.724,0.859,3.11v5.92h-3.02v-5.78c0-0.666-0.124-1.153-0.37-1.46
		c-0.247-0.307-0.63-0.46-1.15-0.46c-0.627,0-1.13,0.2-1.51,0.601c-0.38,0.399-0.57,0.933-0.57,1.6v5.5h-3.02v-14.1h3.02v5.58
		c0.347-0.507,0.79-0.891,1.33-1.15s1.144-0.39,1.811-0.39C1163.018,173.235,1163.891,173.578,1164.465,174.265z"/>
	<path d="M1176.424,178.955h-6.4c0.094,0.787,0.351,1.356,0.771,1.71s1.017,0.53,1.79,0.53c0.507,0,1.01-0.084,1.51-0.25
		c0.5-0.167,0.957-0.403,1.37-0.71l0.8,2.02c-0.479,0.373-1.063,0.667-1.75,0.88s-1.377,0.32-2.07,0.32
		c-1.653,0-2.956-0.457-3.909-1.37c-0.954-0.913-1.431-2.156-1.431-3.73c0-1,0.207-1.886,0.62-2.659s0.986-1.377,1.72-1.811
		c0.733-0.433,1.567-0.649,2.5-0.649c1.374,0,2.464,0.446,3.271,1.34s1.21,2.106,1.21,3.64V178.955z M1170.654,175.865
		c-0.341,0.366-0.551,0.896-0.631,1.59h3.86c-0.04-0.707-0.217-1.24-0.53-1.601c-0.313-0.359-0.757-0.54-1.33-0.54
		S1170.994,175.498,1170.654,175.865z"/>
	<path d="M1185.263,175.715l-1.699,0.18c-0.841,0.08-1.434,0.317-1.78,0.71c-0.347,0.394-0.521,0.917-0.521,1.57v5.12h-3.02v-9.82
		h2.899v1.66c0.493-1.133,1.514-1.753,3.061-1.859l0.88-0.061L1185.263,175.715z"/>
</g>
<g>
	<path d="M11.277,182.115l0.4-0.7c0.52,0.439,1.023,0.747,1.51,0.92c0.487,0.174,1.077,0.26,1.77,0.26
		c0.854,0,1.507-0.153,1.96-0.46c0.453-0.307,0.68-0.74,0.68-1.3c0-0.467-0.147-0.84-0.44-1.12c-0.293-0.28-0.767-0.5-1.42-0.66
		l-1.64-0.38c-0.76-0.173-1.363-0.49-1.81-0.95s-0.67-0.989-0.67-1.59c0-0.826,0.313-1.493,0.94-2c0.626-0.507,1.473-0.76,2.54-0.76
		c0.68,0,1.307,0.113,1.88,0.34s1.04,0.547,1.4,0.96l-0.4,0.72c-0.427-0.399-0.873-0.696-1.34-0.89s-0.98-0.29-1.54-0.29
		c-0.787,0-1.403,0.16-1.85,0.48c-0.447,0.319-0.67,0.76-0.67,1.319c0,0.494,0.137,0.884,0.41,1.17
		c0.273,0.287,0.703,0.504,1.29,0.65l1.66,0.4c1.72,0.399,2.58,1.246,2.58,2.54c0,0.8-0.327,1.443-0.98,1.93
		s-1.533,0.729-2.64,0.729C13.404,183.435,12.197,182.995,11.277,182.115z"/>
	<path d="M29.177,178.535h-7.52c0.026,1.307,0.356,2.313,0.99,3.02c0.633,0.707,1.536,1.061,2.71,1.061
		c0.6,0,1.163-0.101,1.69-0.301c0.526-0.199,1.05-0.52,1.57-0.96l0.4,0.721c-0.413,0.413-0.947,0.743-1.6,0.989
		c-0.654,0.247-1.327,0.37-2.02,0.37c-1.44,0-2.577-0.446-3.41-1.34c-0.833-0.893-1.25-2.12-1.25-3.68c0-1,0.187-1.88,0.56-2.64
		c0.373-0.761,0.9-1.351,1.58-1.771c0.68-0.42,1.46-0.63,2.34-0.63c1.253,0,2.227,0.407,2.92,1.22c0.693,0.813,1.04,1.954,1.04,3.42
		V178.535z M22.767,175.104c-0.62,0.634-0.983,1.518-1.09,2.65h6.7c-0.027-1.16-0.313-2.05-0.86-2.67s-1.313-0.93-2.3-0.93
		C24.204,174.155,23.387,174.472,22.767,175.104z"/>
	<path d="M38.857,173.615h0.88l-4.12,9.68h-0.96l-4.12-9.68h0.9l3.7,8.939L38.857,173.615z"/>
	<path d="M49.577,178.535h-7.52c0.026,1.307,0.356,2.313,0.99,3.02c0.633,0.707,1.536,1.061,2.71,1.061
		c0.6,0,1.163-0.101,1.69-0.301c0.526-0.199,1.05-0.52,1.57-0.96l0.4,0.721c-0.413,0.413-0.947,0.743-1.6,0.989
		c-0.654,0.247-1.327,0.37-2.02,0.37c-1.44,0-2.577-0.446-3.41-1.34c-0.833-0.893-1.25-2.12-1.25-3.68c0-1,0.187-1.88,0.56-2.64
		c0.373-0.761,0.9-1.351,1.58-1.771c0.68-0.42,1.46-0.63,2.34-0.63c1.253,0,2.227,0.407,2.92,1.22c0.693,0.813,1.04,1.954,1.04,3.42
		V178.535z M43.167,175.104c-0.62,0.634-0.983,1.518-1.09,2.65h6.7c-0.027-1.16-0.313-2.05-0.86-2.67s-1.313-0.93-2.3-0.93
		C44.604,174.155,43.787,174.472,43.167,175.104z"/>
	<path d="M59.977,177.055v6.24h-0.84v-6.16c0-1.026-0.207-1.776-0.62-2.25c-0.414-0.473-1.08-0.71-2-0.71
		c-1.027,0-1.85,0.317-2.47,0.95c-0.62,0.634-0.93,1.477-0.93,2.53v5.64h-0.84v-9.68h0.82v1.739c0.293-0.64,0.736-1.13,1.33-1.47
		c0.593-0.34,1.27-0.51,2.03-0.51C58.803,173.375,59.977,174.602,59.977,177.055z"/>
	<path d="M67.797,182.575l-0.04,0.779c-0.28,0.04-0.58,0.061-0.9,0.061c-1,0-1.77-0.29-2.31-0.87s-0.81-1.356-0.81-2.33v-5.88h-1.94
		v-0.72h1.94v-3.021h0.84v3.021h2.92v0.72h-2.92v5.7c0,0.854,0.2,1.5,0.6,1.939c0.4,0.44,0.993,0.66,1.78,0.66
		C67.263,182.635,67.543,182.615,67.797,182.575z"/>
	<path d="M77.316,177.055v6.24h-0.84v-6.16c0-1.026-0.207-1.776-0.62-2.25c-0.414-0.473-1.08-0.71-2-0.71
		c-1.027,0-1.85,0.317-2.47,0.95c-0.62,0.634-0.93,1.477-0.93,2.53v5.64h-0.84v-14.1h0.84v6.119c0.293-0.626,0.733-1.106,1.32-1.439
		s1.26-0.5,2.02-0.5C76.143,173.375,77.316,174.602,77.316,177.055z"/>
	<path d="M98.916,177.055v6.24h-0.84v-6.16c0-1.026-0.187-1.776-0.56-2.25c-0.374-0.473-0.967-0.71-1.78-0.71
		c-0.933,0-1.677,0.313-2.23,0.94s-0.83,1.473-0.83,2.54v5.64h-0.84v-6.16c0-1.026-0.187-1.776-0.56-2.25
		c-0.374-0.473-0.967-0.71-1.78-0.71c-0.934,0-1.677,0.313-2.23,0.94c-0.554,0.627-0.83,1.473-0.83,2.54v5.64h-0.84v-9.68h0.82
		v1.699c0.267-0.626,0.663-1.106,1.19-1.439c0.526-0.333,1.15-0.5,1.87-0.5c1.546,0,2.54,0.646,2.98,1.939
		c0.28-0.6,0.71-1.072,1.29-1.42c0.58-0.346,1.236-0.52,1.97-0.52C97.849,173.375,98.916,174.602,98.916,177.055z"/>
	<path d="M103.676,182.814c-0.653-0.413-1.16-1-1.52-1.76s-0.54-1.646-0.54-2.66c0-1,0.18-1.88,0.54-2.64s0.867-1.347,1.52-1.76
		c0.653-0.413,1.406-0.62,2.26-0.62c0.853,0,1.607,0.207,2.26,0.62c0.653,0.413,1.16,1,1.52,1.76c0.36,0.76,0.54,1.64,0.54,2.64
		c0,1.014-0.18,1.9-0.54,2.66c-0.36,0.76-0.867,1.347-1.52,1.76c-0.653,0.414-1.407,0.62-2.26,0.62
		C105.083,183.435,104.329,183.229,103.676,182.814z M108.466,181.525c0.593-0.727,0.89-1.771,0.89-3.131
		c0-1.319-0.303-2.35-0.91-3.09c-0.607-0.74-1.443-1.109-2.51-1.109s-1.903,0.369-2.51,1.109c-0.607,0.74-0.91,1.771-0.91,3.09
		c0,1.36,0.296,2.404,0.89,3.131c0.593,0.727,1.43,1.09,2.51,1.09C107.023,182.615,107.873,182.252,108.466,181.525z"/>
	<path d="M120.496,173.615v9.68h-0.82v-1.82c-0.307,0.627-0.75,1.11-1.33,1.45c-0.58,0.34-1.237,0.51-1.97,0.51
		c-1.12,0-1.97-0.313-2.55-0.939c-0.58-0.627-0.87-1.547-0.87-2.76v-6.12h0.84v6.04c0,1.013,0.207,1.76,0.62,2.239
		c0.413,0.48,1.053,0.721,1.92,0.721c1,0,1.803-0.316,2.41-0.95c0.606-0.633,0.91-1.477,0.91-2.53v-5.52H120.496z"/>
	<path d="M131.596,177.055v6.24h-0.84v-6.16c0-1.026-0.207-1.776-0.62-2.25c-0.414-0.473-1.08-0.71-2-0.71
		c-1.027,0-1.85,0.317-2.47,0.95c-0.62,0.634-0.93,1.477-0.93,2.53v5.64h-0.84v-9.68h0.82v1.739c0.293-0.64,0.736-1.13,1.33-1.47
		c0.593-0.34,1.27-0.51,2.03-0.51C130.422,173.375,131.596,174.602,131.596,177.055z"/>
	<path d="M139.416,182.575l-0.04,0.779c-0.28,0.04-0.58,0.061-0.9,0.061c-1,0-1.77-0.29-2.31-0.87s-0.81-1.356-0.81-2.33v-5.88
		h-1.94v-0.72h1.94v-3.021h0.84v3.021h2.92v0.72h-2.92v5.7c0,0.854,0.2,1.5,0.6,1.939c0.4,0.44,0.993,0.66,1.78,0.66
		C138.882,182.635,139.163,182.615,139.416,182.575z"/>
	<path d="M148.295,176.955v6.34h-0.86v-1.78c-0.293,0.613-0.717,1.087-1.27,1.42c-0.553,0.334-1.183,0.5-1.89,0.5
		c-0.614,0-1.177-0.127-1.69-0.38s-0.92-0.603-1.22-1.05c-0.3-0.446-0.45-0.937-0.45-1.47c0-0.721,0.19-1.276,0.57-1.67
		c0.38-0.394,1.006-0.677,1.88-0.851c0.873-0.173,2.097-0.26,3.67-0.26h0.4v-0.84c0-0.946-0.187-1.637-0.56-2.07
		c-0.373-0.433-0.967-0.649-1.78-0.649c-0.627,0-1.204,0.083-1.73,0.25c-0.527,0.166-1.077,0.437-1.65,0.81l-0.4-0.72
		c0.493-0.36,1.063-0.644,1.71-0.851c0.646-0.206,1.296-0.31,1.95-0.31C147.189,173.375,148.295,174.568,148.295,176.955z
		 M145.896,182.165c0.48-0.287,0.857-0.684,1.13-1.19c0.273-0.506,0.41-1.08,0.41-1.72v-0.72h-0.38c-1.4,0-2.467,0.057-3.2,0.17
		s-1.247,0.307-1.54,0.58s-0.44,0.677-0.44,1.21c0,0.613,0.227,1.116,0.68,1.51c0.453,0.394,1.026,0.59,1.72,0.59
		C144.875,182.595,145.416,182.452,145.896,182.165z"/>
	<path d="M151.436,169.655h1.28v1.26h-1.28V169.655z M151.656,183.295v-9.68h0.84v9.68H151.656z"/>
	<path d="M163.595,177.055v6.24h-0.84v-6.16c0-1.026-0.207-1.776-0.62-2.25c-0.414-0.473-1.08-0.71-2-0.71
		c-1.027,0-1.85,0.317-2.47,0.95c-0.62,0.634-0.93,1.477-0.93,2.53v5.64h-0.84v-9.68h0.82v1.739c0.293-0.64,0.736-1.13,1.33-1.47
		c0.593-0.34,1.27-0.51,2.03-0.51C162.422,173.375,163.595,174.602,163.595,177.055z"/>
</g>
<g>
	<path d="M740.422,107.53V94.19h-5.18v-0.76h11.2v0.76h-5.18v13.34H740.422z"/>
	<path d="M748.303,107.05c-0.653-0.413-1.16-1-1.52-1.76s-0.54-1.646-0.54-2.66c0-1,0.18-1.88,0.54-2.64
		c0.36-0.76,0.867-1.347,1.52-1.76c0.653-0.413,1.406-0.62,2.26-0.62c0.853,0,1.607,0.207,2.26,0.62c0.653,0.413,1.16,1,1.52,1.76
		c0.36,0.76,0.54,1.64,0.54,2.64c0,1.013-0.18,1.9-0.54,2.66c-0.36,0.76-0.867,1.347-1.52,1.76c-0.653,0.414-1.407,0.62-2.26,0.62
		C749.709,107.67,748.956,107.464,748.303,107.05z M753.093,105.761c0.593-0.727,0.89-1.771,0.89-3.13c0-1.32-0.303-2.35-0.91-3.09
		c-0.607-0.74-1.443-1.11-2.51-1.11s-1.903,0.37-2.51,1.11c-0.607,0.74-0.91,1.77-0.91,3.09c0,1.36,0.296,2.403,0.89,3.13
		c0.593,0.727,1.43,1.09,2.51,1.09C751.649,106.851,752.499,106.487,753.093,105.761z"/>
	<path d="M765.522,93.43v14.1h-0.84v-1.96c-0.293,0.68-0.73,1.2-1.311,1.56c-0.58,0.36-1.276,0.54-2.09,0.54
		c-0.854,0-1.607-0.21-2.26-0.63c-0.653-0.42-1.16-1.013-1.52-1.78c-0.36-0.767-0.54-1.657-0.54-2.67c0-1,0.18-1.873,0.54-2.62
		c0.36-0.747,0.867-1.327,1.52-1.74c0.653-0.413,1.406-0.62,2.26-0.62c0.813,0,1.51,0.18,2.09,0.54
		c0.58,0.36,1.018,0.874,1.311,1.54v-6.26H765.522z M763.802,105.75c0.588-0.733,0.881-1.773,0.881-3.12
		c0-1.333-0.293-2.367-0.881-3.1c-0.586-0.733-1.419-1.1-2.5-1.1s-1.923,0.364-2.53,1.09c-0.607,0.727-0.91,1.75-0.91,3.07
		c0,1.333,0.303,2.377,0.91,3.13c0.606,0.753,1.443,1.13,2.51,1.13C762.375,106.851,763.216,106.483,763.802,105.75z"/>
	<path d="M775.981,101.19v6.34h-0.859v-1.78c-0.293,0.613-0.717,1.087-1.27,1.42c-0.554,0.334-1.184,0.5-1.891,0.5
		c-0.613,0-1.177-0.127-1.689-0.38c-0.514-0.253-0.92-0.603-1.221-1.05c-0.3-0.446-0.449-0.937-0.449-1.47
		c0-0.72,0.189-1.277,0.57-1.67c0.379-0.393,1.006-0.676,1.879-0.85s2.098-0.26,3.67-0.26h0.4v-0.84c0-0.947-0.188-1.637-0.561-2.07
		c-0.373-0.433-0.967-0.65-1.779-0.65c-0.627,0-1.203,0.083-1.73,0.25c-0.526,0.167-1.076,0.437-1.649,0.81l-0.4-0.72
		c0.493-0.36,1.063-0.644,1.71-0.85s1.297-0.31,1.95-0.31C774.876,97.61,775.981,98.804,775.981,101.19z M773.582,106.4
		c0.479-0.287,0.856-0.684,1.13-1.19c0.273-0.507,0.41-1.08,0.41-1.72v-0.72h-0.38c-1.399,0-2.467,0.057-3.2,0.17
		s-1.246,0.307-1.54,0.58s-0.44,0.677-0.44,1.21c0,0.613,0.227,1.116,0.681,1.51c0.453,0.394,1.026,0.59,1.72,0.59
		C772.562,106.83,773.103,106.688,773.582,106.4z"/>
	<path d="M786.401,97.85h0.881l-5.68,13.28h-0.86l1.5-3.5l-4.16-9.78h0.899l3.701,8.94L786.401,97.85z"/>
	<path d="M807.562,97.85h0.9l-3.439,9.68h-1l-3.061-8.64l-3.119,8.64h-1l-3.4-9.68h0.92l2.98,8.7l3.119-8.7h1.02l3.041,8.68
		L807.562,97.85z"/>
	<path d="M817.781,101.19v6.34h-0.859v-1.78c-0.294,0.613-0.717,1.087-1.271,1.42c-0.554,0.334-1.184,0.5-1.89,0.5
		c-0.613,0-1.177-0.127-1.69-0.38s-0.92-0.603-1.22-1.05c-0.3-0.446-0.45-0.937-0.45-1.47c0-0.72,0.19-1.277,0.57-1.67
		c0.38-0.393,1.007-0.676,1.88-0.85s2.097-0.26,3.67-0.26h0.4v-0.84c0-0.947-0.188-1.637-0.561-2.07
		c-0.373-0.433-0.967-0.65-1.78-0.65c-0.626,0-1.203,0.083-1.729,0.25c-0.527,0.167-1.077,0.437-1.65,0.81l-0.399-0.72
		c0.493-0.36,1.063-0.644,1.71-0.85c0.646-0.207,1.296-0.31,1.95-0.31C816.675,97.61,817.781,98.804,817.781,101.19z M815.382,106.4
		c0.479-0.287,0.856-0.684,1.13-1.19c0.272-0.507,0.41-1.08,0.41-1.72v-0.72h-0.381c-1.399,0-2.467,0.057-3.199,0.17
		c-0.733,0.113-1.247,0.307-1.54,0.58c-0.294,0.273-0.44,0.677-0.44,1.21c0,0.613,0.227,1.116,0.68,1.51s1.027,0.59,1.721,0.59
		C814.361,106.83,814.901,106.688,815.382,106.4z"/>
	<path d="M820.541,106.351l0.4-0.7c0.52,0.439,1.023,0.747,1.51,0.92c0.486,0.174,1.077,0.26,1.771,0.26
		c0.853,0,1.506-0.153,1.96-0.46c0.453-0.307,0.68-0.74,0.68-1.3c0-0.467-0.146-0.84-0.439-1.12c-0.294-0.28-0.768-0.5-1.421-0.66
		l-1.64-0.38c-0.76-0.173-1.363-0.49-1.81-0.95c-0.447-0.46-0.67-0.99-0.67-1.59c0-0.826,0.313-1.493,0.939-2
		c0.627-0.506,1.474-0.76,2.54-0.76c0.68,0,1.307,0.113,1.88,0.34c0.573,0.227,1.04,0.547,1.4,0.96l-0.4,0.72
		c-0.427-0.4-0.873-0.697-1.34-0.89c-0.467-0.193-0.979-0.29-1.54-0.29c-0.787,0-1.403,0.16-1.85,0.48
		c-0.447,0.32-0.67,0.76-0.67,1.32c0,0.493,0.136,0.883,0.409,1.17s0.703,0.503,1.29,0.65l1.66,0.4c1.721,0.4,2.58,1.247,2.58,2.54
		c0,0.8-0.327,1.444-0.979,1.93c-0.653,0.486-1.534,0.729-2.641,0.729C822.668,107.67,821.461,107.23,820.541,106.351z"/>
	<path d="M840.042,106.811l-0.04,0.779c-0.28,0.04-0.58,0.061-0.9,0.061c-1,0-1.77-0.29-2.31-0.87s-0.811-1.356-0.811-2.33v-5.88
		h-1.939v-0.72h1.939v-3.02h0.841v3.02h2.92v0.72h-2.92v5.7c0,0.853,0.199,1.5,0.6,1.939c0.4,0.44,0.993,0.66,1.78,0.66
		C839.509,106.87,839.788,106.851,840.042,106.811z"/>
	<path d="M849.562,101.29v6.24h-0.841v-6.16c0-1.026-0.206-1.776-0.619-2.25c-0.414-0.473-1.08-0.71-2-0.71
		c-1.027,0-1.851,0.317-2.471,0.95s-0.93,1.477-0.93,2.53v5.64h-0.84v-14.1h0.84v6.12c0.293-0.626,0.733-1.106,1.32-1.44
		c0.586-0.333,1.26-0.5,2.02-0.5C848.388,97.61,849.562,98.837,849.562,101.29z"/>
	<path d="M860.702,102.771h-7.521c0.026,1.307,0.356,2.313,0.99,3.02c0.633,0.707,1.536,1.061,2.71,1.061
		c0.6,0,1.163-0.101,1.689-0.301c0.527-0.199,1.051-0.52,1.57-0.96l0.4,0.721c-0.414,0.413-0.947,0.743-1.601,0.989
		c-0.653,0.247-1.326,0.37-2.02,0.37c-1.44,0-2.577-0.446-3.41-1.34c-0.833-0.893-1.25-2.12-1.25-3.68c0-1,0.187-1.88,0.56-2.64
		c0.373-0.76,0.9-1.35,1.58-1.77c0.681-0.42,1.46-0.63,2.34-0.63c1.254,0,2.227,0.407,2.921,1.22c0.692,0.813,1.04,1.954,1.04,3.42
		V102.771z M854.292,99.34c-0.62,0.633-0.983,1.517-1.09,2.65h6.699c-0.026-1.16-0.313-2.05-0.859-2.67
		c-0.547-0.62-1.313-0.93-2.301-0.93C855.729,98.39,854.912,98.707,854.292,99.34z"/>
	<path d="M876.021,101.29v6.24h-0.841v-6.16c0-1.026-0.206-1.776-0.619-2.25c-0.414-0.473-1.08-0.71-2-0.71
		c-1.027,0-1.851,0.317-2.471,0.95s-0.93,1.477-0.93,2.53v5.64h-0.84v-14.1h0.84v6.12c0.293-0.626,0.733-1.106,1.32-1.44
		c0.586-0.333,1.26-0.5,2.02-0.5C874.848,97.61,876.021,98.837,876.021,101.29z"/>
	<path d="M886.44,101.19v6.34h-0.859v-1.78c-0.294,0.613-0.717,1.087-1.271,1.42c-0.554,0.334-1.184,0.5-1.89,0.5
		c-0.613,0-1.177-0.127-1.69-0.38s-0.92-0.603-1.22-1.05c-0.3-0.446-0.45-0.937-0.45-1.47c0-0.72,0.19-1.277,0.57-1.67
		c0.38-0.393,1.007-0.676,1.88-0.85s2.097-0.26,3.67-0.26h0.4v-0.84c0-0.947-0.188-1.637-0.561-2.07
		c-0.373-0.433-0.967-0.65-1.78-0.65c-0.626,0-1.203,0.083-1.729,0.25c-0.527,0.167-1.077,0.437-1.65,0.81l-0.399-0.72
		c0.493-0.36,1.063-0.644,1.71-0.85c0.646-0.207,1.296-0.31,1.95-0.31C885.334,97.61,886.44,98.804,886.44,101.19z M884.041,106.4
		c0.479-0.287,0.856-0.684,1.13-1.19c0.272-0.507,0.41-1.08,0.41-1.72v-0.72H885.2c-1.399,0-2.467,0.057-3.199,0.17
		c-0.733,0.113-1.247,0.307-1.54,0.58c-0.294,0.273-0.44,0.677-0.44,1.21c0,0.613,0.227,1.116,0.68,1.51s1.027,0.59,1.721,0.59
		C883.021,106.83,883.561,106.688,884.041,106.4z"/>
	<path d="M894.461,98.37l-0.681,0.08c-1.093,0.107-1.89,0.463-2.39,1.07c-0.5,0.606-0.75,1.343-0.75,2.21v5.8h-0.84v-9.68h0.84v1.7
		c0.307-0.6,0.729-1.05,1.27-1.35c0.54-0.3,1.217-0.483,2.03-0.55l0.42-0.04L894.461,98.37z"/>
	<path d="M904.021,93.43v14.1h-0.84v-1.96c-0.293,0.68-0.729,1.2-1.31,1.56c-0.58,0.36-1.277,0.54-2.09,0.54
		c-0.854,0-1.607-0.21-2.261-0.63s-1.159-1.013-1.52-1.78c-0.36-0.767-0.54-1.657-0.54-2.67c0-1,0.18-1.873,0.54-2.62
		c0.36-0.747,0.866-1.327,1.52-1.74s1.407-0.62,2.261-0.62c0.813,0,1.51,0.18,2.09,0.54c0.58,0.36,1.017,0.874,1.31,1.54v-6.26
		H904.021z M902.301,105.75c0.587-0.733,0.88-1.773,0.88-3.12c0-1.333-0.293-2.367-0.88-3.1c-0.587-0.733-1.42-1.1-2.5-1.1
		s-1.923,0.364-2.53,1.09c-0.606,0.727-0.909,1.75-0.909,3.07c0,1.333,0.303,2.377,0.909,3.13c0.607,0.753,1.443,1.13,2.511,1.13
		C900.874,106.851,901.714,106.483,902.301,105.75z"/>
	<path d="M915.201,102.771h-7.521c0.026,1.307,0.356,2.313,0.99,3.02c0.633,0.707,1.536,1.061,2.71,1.061
		c0.6,0,1.163-0.101,1.689-0.301c0.527-0.199,1.051-0.52,1.57-0.96l0.4,0.721c-0.414,0.413-0.947,0.743-1.601,0.989
		c-0.653,0.247-1.326,0.37-2.02,0.37c-1.44,0-2.577-0.446-3.41-1.34c-0.833-0.893-1.25-2.12-1.25-3.68c0-1,0.187-1.88,0.56-2.64
		c0.373-0.76,0.9-1.35,1.58-1.77c0.681-0.42,1.46-0.63,2.34-0.63c1.254,0,2.227,0.407,2.921,1.22c0.692,0.813,1.04,1.954,1.04,3.42
		V102.771z M908.791,99.34c-0.62,0.633-0.983,1.517-1.09,2.65h6.699c-0.026-1.16-0.313-2.05-0.859-2.67
		c-0.547-0.62-1.313-0.93-2.301-0.93C910.228,98.39,909.411,98.707,908.791,99.34z"/>
	<path d="M917.3,106.351l0.4-0.7c0.52,0.439,1.023,0.747,1.51,0.92c0.486,0.174,1.077,0.26,1.771,0.26
		c0.853,0,1.506-0.153,1.96-0.46c0.453-0.307,0.68-0.74,0.68-1.3c0-0.467-0.146-0.84-0.439-1.12c-0.294-0.28-0.768-0.5-1.421-0.66
		l-1.64-0.38c-0.76-0.173-1.363-0.49-1.81-0.95c-0.447-0.46-0.67-0.99-0.67-1.59c0-0.826,0.313-1.493,0.939-2
		c0.627-0.506,1.474-0.76,2.54-0.76c0.68,0,1.307,0.113,1.88,0.34c0.573,0.227,1.04,0.547,1.4,0.96l-0.4,0.72
		c-0.427-0.4-0.873-0.697-1.34-0.89c-0.467-0.193-0.979-0.29-1.54-0.29c-0.787,0-1.403,0.16-1.85,0.48
		c-0.447,0.32-0.67,0.76-0.67,1.32c0,0.493,0.136,0.883,0.409,1.17s0.703,0.503,1.29,0.65l1.66,0.4c1.721,0.4,2.58,1.247,2.58,2.54
		c0,0.8-0.327,1.444-0.979,1.93c-0.653,0.486-1.534,0.729-2.641,0.729C919.427,107.67,918.22,107.23,917.3,106.351z"/>
	<path d="M931.78,106.811l-0.04,0.779c-0.28,0.04-0.58,0.061-0.9,0.061c-1,0-1.77-0.29-2.31-0.87s-0.811-1.356-0.811-2.33v-5.88
		h-1.939v-0.72h1.939v-3.02h0.841v3.02h2.92v0.72h-2.92v5.7c0,0.853,0.199,1.5,0.6,1.939c0.4,0.44,0.993,0.66,1.78,0.66
		C931.247,106.87,931.526,106.851,931.78,106.811z"/>
	<path d="M736.922,131.53v-14.1h0.82v14.1H736.922z"/>
	<path d="M742.462,117.431v1.1c0,0.453-0.067,0.867-0.2,1.24c-0.133,0.373-0.36,0.713-0.68,1.02l-0.52-0.399
		c0.253-0.28,0.423-0.54,0.51-0.78c0.086-0.24,0.136-0.5,0.15-0.78h-0.64v-1.399H742.462z"/>
	<path d="M752.642,121.851h0.88l-4.12,9.68h-0.96l-4.12-9.68h0.9l3.7,8.939L752.642,121.851z"/>
	<path d="M763.362,126.771h-7.52c0.026,1.307,0.356,2.313,0.99,3.02c0.633,0.707,1.536,1.061,2.71,1.061
		c0.6,0,1.163-0.101,1.69-0.301c0.526-0.199,1.05-0.52,1.569-0.96l0.4,0.721c-0.413,0.413-0.947,0.743-1.6,0.989
		c-0.654,0.247-1.327,0.37-2.02,0.37c-1.44,0-2.577-0.446-3.41-1.34c-0.833-0.893-1.25-2.12-1.25-3.68c0-1,0.187-1.88,0.56-2.64
		c0.373-0.761,0.9-1.351,1.58-1.771c0.68-0.42,1.46-0.63,2.34-0.63c1.253,0,2.227,0.407,2.92,1.22c0.693,0.813,1.04,1.954,1.04,3.42
		V126.771z M756.952,123.34c-0.62,0.634-0.983,1.518-1.09,2.65h6.7c-0.026-1.16-0.313-2.05-0.86-2.67s-1.313-0.93-2.3-0.93
		C758.389,122.391,757.572,122.707,756.952,123.34z"/>
	<path d="M778.762,126.771h-7.521c0.027,1.307,0.357,2.313,0.99,3.02c0.633,0.707,1.537,1.061,2.711,1.061
		c0.6,0,1.162-0.101,1.689-0.301c0.526-0.199,1.05-0.52,1.57-0.96l0.399,0.721c-0.413,0.413-0.946,0.743-1.6,0.989
		c-0.653,0.247-1.327,0.37-2.021,0.37c-1.439,0-2.576-0.446-3.41-1.34c-0.833-0.893-1.25-2.12-1.25-3.68c0-1,0.188-1.88,0.561-2.64
		c0.373-0.761,0.9-1.351,1.58-1.771s1.46-0.63,2.34-0.63c1.253,0,2.227,0.407,2.92,1.22c0.693,0.813,1.04,1.954,1.04,3.42V126.771z
		 M772.352,123.34c-0.62,0.634-0.983,1.518-1.09,2.65h6.7c-0.027-1.16-0.313-2.05-0.86-2.67s-1.313-0.93-2.3-0.93
		C773.788,122.391,772.972,122.707,772.352,123.34z"/>
	<path d="M788.441,121.851h0.88l-4.119,9.68h-0.961l-4.119-9.68h0.899l3.7,8.939L788.441,121.851z"/>
	<path d="M799.161,126.771h-7.52c0.026,1.307,0.356,2.313,0.99,3.02c0.633,0.707,1.536,1.061,2.71,1.061
		c0.6,0,1.163-0.101,1.69-0.301c0.525-0.199,1.049-0.52,1.569-0.96l0.399,0.721c-0.412,0.413-0.946,0.743-1.6,0.989
		c-0.653,0.247-1.326,0.37-2.02,0.37c-1.44,0-2.577-0.446-3.41-1.34c-0.834-0.893-1.25-2.12-1.25-3.68c0-1,0.187-1.88,0.561-2.64
		c0.373-0.761,0.899-1.351,1.58-1.771c0.68-0.42,1.459-0.63,2.34-0.63c1.252,0,2.227,0.407,2.92,1.22
		c0.693,0.813,1.039,1.954,1.039,3.42V126.771z M792.751,123.34c-0.619,0.634-0.982,1.518-1.09,2.65h6.701
		c-0.027-1.16-0.314-2.05-0.861-2.67s-1.313-0.93-2.299-0.93C794.188,122.391,793.372,122.707,792.751,123.34z"/>
	<path d="M806.521,122.37l-0.68,0.08c-1.094,0.107-1.89,0.464-2.39,1.07s-0.75,1.343-0.75,2.21v5.8h-0.84v-9.68h0.84v1.699
		c0.307-0.6,0.729-1.05,1.271-1.35c0.539-0.3,1.216-0.483,2.029-0.55l0.42-0.04L806.521,122.37z"/>
	<path d="M819.801,122.24c0.653,0.42,1.16,1.01,1.52,1.771c0.36,0.76,0.54,1.646,0.54,2.659c0,1-0.18,1.877-0.54,2.63
		c-0.359,0.754-0.866,1.337-1.52,1.75c-0.653,0.414-1.407,0.62-2.26,0.62c-0.813,0-1.511-0.18-2.091-0.54
		c-0.58-0.359-1.017-0.88-1.31-1.56v5.56h-0.84v-13.279h0.84v1.819c0.293-0.666,0.729-1.176,1.31-1.529s1.277-0.53,2.091-0.53
		C818.394,121.61,819.147,121.82,819.801,122.24z M820.041,129.761c0.6-0.727,0.899-1.757,0.899-3.091c0-1.333-0.3-2.373-0.899-3.12
		c-0.601-0.746-1.434-1.119-2.5-1.119c-1.094,0-1.934,0.363-2.521,1.09s-0.88,1.764-0.88,3.109c0,1.348,0.293,2.388,0.88,3.12
		c0.587,0.733,1.42,1.101,2.5,1.101S819.44,130.487,820.041,129.761z"/>
	<path d="M832.101,121.851v9.68h-0.82v-1.82c-0.307,0.627-0.75,1.11-1.33,1.45s-1.236,0.51-1.97,0.51c-1.12,0-1.97-0.313-2.55-0.939
		s-0.87-1.547-0.87-2.76v-6.12h0.84v6.04c0,1.013,0.207,1.76,0.62,2.239c0.413,0.48,1.053,0.721,1.92,0.721
		c1,0,1.803-0.316,2.41-0.95c0.606-0.633,0.91-1.477,0.91-2.53v-5.52H832.101z"/>
	<path d="M834.9,130.351l0.4-0.7c0.52,0.439,1.023,0.747,1.51,0.92c0.486,0.174,1.077,0.26,1.771,0.26
		c0.853,0,1.506-0.153,1.96-0.46c0.453-0.307,0.68-0.74,0.68-1.3c0-0.467-0.146-0.84-0.439-1.12c-0.294-0.28-0.768-0.5-1.421-0.66
		l-1.64-0.38c-0.76-0.173-1.363-0.49-1.81-0.95c-0.447-0.46-0.67-0.989-0.67-1.59c0-0.826,0.313-1.493,0.939-2s1.474-0.76,2.54-0.76
		c0.68,0,1.307,0.113,1.88,0.34s1.04,0.547,1.4,0.96l-0.4,0.72c-0.427-0.399-0.873-0.696-1.34-0.89s-0.979-0.29-1.54-0.29
		c-0.787,0-1.403,0.16-1.85,0.48c-0.447,0.319-0.67,0.76-0.67,1.319c0,0.494,0.136,0.884,0.409,1.17
		c0.273,0.287,0.703,0.504,1.29,0.65l1.66,0.4c1.721,0.399,2.58,1.246,2.58,2.54c0,0.8-0.327,1.443-0.979,1.93
		c-0.653,0.486-1.534,0.729-2.641,0.729C837.027,131.67,835.82,131.23,834.9,130.351z"/>
	<path d="M852.721,125.29v6.24h-0.841v-6.16c0-1.026-0.206-1.776-0.619-2.25c-0.414-0.473-1.08-0.71-2-0.71
		c-1.027,0-1.851,0.317-2.471,0.95c-0.62,0.634-0.93,1.477-0.93,2.53v5.64h-0.84v-14.1h0.84v6.119
		c0.293-0.626,0.733-1.106,1.32-1.439c0.586-0.333,1.26-0.5,2.02-0.5C851.547,121.61,852.721,122.837,852.721,125.29z"/>
	<path d="M863.86,126.771h-7.521c0.026,1.307,0.356,2.313,0.99,3.02c0.633,0.707,1.536,1.061,2.71,1.061
		c0.6,0,1.163-0.101,1.689-0.301c0.527-0.199,1.051-0.52,1.57-0.96l0.4,0.721c-0.414,0.413-0.947,0.743-1.601,0.989
		c-0.653,0.247-1.326,0.37-2.02,0.37c-1.44,0-2.577-0.446-3.41-1.34c-0.833-0.893-1.25-2.12-1.25-3.68c0-1,0.187-1.88,0.56-2.64
		c0.373-0.761,0.9-1.351,1.58-1.771c0.681-0.42,1.46-0.63,2.34-0.63c1.254,0,2.227,0.407,2.921,1.22
		c0.692,0.813,1.04,1.954,1.04,3.42V126.771z M857.45,123.34c-0.62,0.634-0.983,1.518-1.09,2.65h6.699
		c-0.026-1.16-0.313-2.05-0.859-2.67c-0.547-0.62-1.313-0.93-2.301-0.93C858.887,122.391,858.07,122.707,857.45,123.34z"/>
	<path d="M874.46,117.431v14.1h-0.84v-1.96c-0.293,0.68-0.729,1.2-1.31,1.56c-0.58,0.36-1.277,0.54-2.09,0.54
		c-0.854,0-1.607-0.21-2.261-0.63s-1.159-1.013-1.52-1.779s-0.54-1.657-0.54-2.671c0-1,0.18-1.873,0.54-2.619
		c0.36-0.747,0.866-1.327,1.52-1.74s1.407-0.62,2.261-0.62c0.813,0,1.51,0.18,2.09,0.54s1.017,0.873,1.31,1.54v-6.26H874.46z
		 M872.74,129.75c0.587-0.732,0.88-1.772,0.88-3.12c0-1.333-0.293-2.366-0.88-3.1s-1.42-1.1-2.5-1.1s-1.923,0.363-2.53,1.09
		c-0.606,0.727-0.909,1.75-0.909,3.069c0,1.334,0.303,2.377,0.909,3.131c0.607,0.753,1.443,1.13,2.511,1.13
		C871.313,130.851,872.153,130.483,872.74,129.75z"/>
	<path d="M896.099,125.29v6.24h-0.84v-6.16c0-1.026-0.187-1.776-0.56-2.25c-0.374-0.473-0.967-0.71-1.78-0.71
		c-0.934,0-1.677,0.313-2.229,0.94c-0.554,0.627-0.83,1.473-0.83,2.54v5.64h-0.84v-6.16c0-1.026-0.188-1.776-0.561-2.25
		c-0.373-0.473-0.967-0.71-1.78-0.71c-0.933,0-1.677,0.313-2.229,0.94c-0.554,0.627-0.83,1.473-0.83,2.54v5.64h-0.84v-9.68h0.819
		v1.699c0.267-0.626,0.664-1.106,1.19-1.439s1.15-0.5,1.87-0.5c1.547,0,2.54,0.646,2.979,1.939c0.28-0.6,0.71-1.072,1.29-1.42
		c0.58-0.346,1.237-0.52,1.971-0.52C895.032,121.61,896.099,122.837,896.099,125.29z"/>
	<path d="M906.52,121.851h0.88l-5.68,13.279h-0.86l1.5-3.5l-4.159-9.779h0.899l3.7,8.939L906.52,121.851z"/>
	<path d="M908.719,130.351l0.4-0.7c0.52,0.439,1.023,0.747,1.51,0.92c0.486,0.174,1.077,0.26,1.771,0.26
		c0.853,0,1.506-0.153,1.96-0.46c0.453-0.307,0.68-0.74,0.68-1.3c0-0.467-0.146-0.84-0.439-1.12c-0.294-0.28-0.768-0.5-1.421-0.66
		l-1.64-0.38c-0.76-0.173-1.363-0.49-1.81-0.95c-0.447-0.46-0.67-0.989-0.67-1.59c0-0.826,0.313-1.493,0.939-2s1.474-0.76,2.54-0.76
		c0.68,0,1.307,0.113,1.88,0.34s1.04,0.547,1.4,0.96l-0.4,0.72c-0.427-0.399-0.873-0.696-1.34-0.89s-0.979-0.29-1.54-0.29
		c-0.787,0-1.403,0.16-1.85,0.48c-0.447,0.319-0.67,0.76-0.67,1.319c0,0.494,0.136,0.884,0.409,1.17
		c0.273,0.287,0.703,0.504,1.29,0.65l1.66,0.4c1.721,0.399,2.58,1.246,2.58,2.54c0,0.8-0.327,1.443-0.979,1.93
		c-0.653,0.486-1.534,0.729-2.641,0.729C910.846,131.67,909.639,131.23,908.719,130.351z"/>
	<path d="M926.62,126.771H919.1c0.026,1.307,0.356,2.313,0.99,3.02c0.633,0.707,1.536,1.061,2.71,1.061
		c0.6,0,1.163-0.101,1.689-0.301c0.527-0.199,1.051-0.52,1.57-0.96l0.4,0.721c-0.414,0.413-0.947,0.743-1.601,0.989
		c-0.653,0.247-1.326,0.37-2.02,0.37c-1.44,0-2.577-0.446-3.41-1.34c-0.833-0.893-1.25-2.12-1.25-3.68c0-1,0.187-1.88,0.56-2.64
		c0.373-0.761,0.9-1.351,1.58-1.771c0.681-0.42,1.46-0.63,2.34-0.63c1.254,0,2.227,0.407,2.921,1.22
		c0.692,0.813,1.04,1.954,1.04,3.42V126.771z M920.21,123.34c-0.62,0.634-0.983,1.518-1.09,2.65h6.699
		c-0.026-1.16-0.313-2.05-0.859-2.67c-0.547-0.62-1.313-0.93-2.301-0.93C921.646,122.391,920.83,122.707,920.21,123.34z"/>
	<path d="M929.319,131.53v-14.1h0.84v14.1H929.319z"/>
	<path d="M934.8,121.851h2.92v0.72h-2.92v8.96h-0.841v-8.96h-1.939v-0.72h1.939v-0.62c0-1.213,0.29-2.134,0.87-2.76
		c0.58-0.627,1.457-0.974,2.63-1.04l0.62-0.04l0.101,0.739l-0.92,0.061c-0.841,0.054-1.46,0.333-1.86,0.84s-0.6,1.24-0.6,2.2
		V121.851z"/>
	<path d="M938.938,130.13h1.38v1.4h-1.38V130.13z"/>
	<path d="M740.422,155.53v-13.34h-5.18v-0.76h11.2v0.76h-5.18v13.34H740.422z"/>
	<path d="M756.083,149.29v6.24h-0.84v-6.16c0-1.026-0.207-1.776-0.62-2.25c-0.414-0.473-1.08-0.71-2-0.71
		c-1.027,0-1.85,0.317-2.47,0.95c-0.62,0.634-0.93,1.477-0.93,2.53v5.64h-0.84v-14.1h0.84v6.119c0.293-0.626,0.733-1.106,1.32-1.439
		s1.26-0.5,2.02-0.5C754.909,145.61,756.083,146.837,756.083,149.29z"/>
	<path d="M767.222,150.771h-7.52c0.026,1.307,0.356,2.313,0.99,3.02c0.633,0.707,1.536,1.061,2.71,1.061
		c0.6,0,1.163-0.101,1.69-0.301c0.525-0.199,1.049-0.52,1.569-0.96l0.399,0.721c-0.412,0.413-0.946,0.743-1.6,0.989
		c-0.653,0.247-1.326,0.37-2.02,0.37c-1.44,0-2.577-0.446-3.41-1.34c-0.833-0.893-1.25-2.12-1.25-3.68c0-1,0.187-1.88,0.56-2.64
		c0.373-0.761,0.9-1.351,1.58-1.771c0.68-0.42,1.46-0.63,2.34-0.63c1.252,0,2.227,0.407,2.92,1.22
		c0.693,0.813,1.039,1.954,1.039,3.42V150.771z M760.812,147.34c-0.62,0.634-0.983,1.518-1.09,2.65h6.701
		c-0.027-1.16-0.314-2.05-0.861-2.67s-1.313-0.93-2.299-0.93C762.249,146.391,761.432,146.707,760.812,147.34z"/>
	<path d="M788.062,145.851h0.9l-3.44,9.68h-1l-3.06-8.64l-3.12,8.64h-1l-3.4-9.68h0.921l2.979,8.699l3.12-8.699h1.02l3.04,8.68
		L788.062,145.851z"/>
	<path d="M792.762,155.05c-0.653-0.413-1.16-1-1.521-1.76c-0.359-0.76-0.539-1.646-0.539-2.66c0-1,0.18-1.88,0.539-2.64
		c0.36-0.76,0.867-1.347,1.521-1.76s1.406-0.62,2.26-0.62c0.853,0,1.606,0.207,2.261,0.62c0.652,0.413,1.159,1,1.52,1.76
		c0.359,0.76,0.54,1.64,0.54,2.64c0,1.014-0.181,1.9-0.54,2.66c-0.36,0.76-0.867,1.347-1.52,1.76
		c-0.654,0.414-1.408,0.62-2.261,0.62C794.168,155.67,793.415,155.464,792.762,155.05z M797.552,153.761
		c0.593-0.727,0.89-1.771,0.89-3.131c0-1.319-0.304-2.35-0.909-3.09c-0.607-0.74-1.443-1.109-2.511-1.109s-1.903,0.369-2.51,1.109
		s-0.91,1.771-0.91,3.09c0,1.36,0.296,2.404,0.89,3.131s1.43,1.09,2.51,1.09C796.108,154.851,796.958,154.487,797.552,153.761z"/>
	<path d="M806.741,146.37l-0.68,0.08c-1.094,0.107-1.891,0.464-2.391,1.07s-0.75,1.343-0.75,2.21v5.8h-0.84v-9.68h0.84v1.699
		c0.307-0.6,0.73-1.05,1.271-1.35s1.216-0.483,2.03-0.55l0.42-0.04L806.741,146.37z"/>
	<path d="M816.281,155.53h-1.22l-5.62-4.78v4.78h-0.84v-14.1h0.84v8.939l5.06-4.52h1.181l-5.28,4.66L816.281,155.53z"/>
	<path d="M819.141,155.05c-0.653-0.413-1.159-1-1.52-1.76s-0.54-1.646-0.54-2.66c0-1,0.18-1.88,0.54-2.64s0.866-1.347,1.52-1.76
		s1.407-0.62,2.261-0.62c0.853,0,1.606,0.207,2.26,0.62s1.16,1,1.52,1.76c0.36,0.76,0.54,1.64,0.54,2.64c0,1.014-0.18,1.9-0.54,2.66
		c-0.359,0.76-0.866,1.347-1.52,1.76c-0.653,0.414-1.407,0.62-2.26,0.62C820.548,155.67,819.794,155.464,819.141,155.05z
		 M823.931,153.761c0.594-0.727,0.891-1.771,0.891-3.131c0-1.319-0.304-2.35-0.91-3.09c-0.607-0.74-1.443-1.109-2.51-1.109
		c-1.067,0-1.903,0.369-2.511,1.109c-0.606,0.74-0.909,1.771-0.909,3.09c0,1.36,0.296,2.404,0.89,3.131
		c0.593,0.727,1.43,1.09,2.51,1.09C822.487,154.851,823.338,154.487,823.931,153.761z"/>
	<path d="M835.961,145.851v9.68h-0.82v-1.82c-0.307,0.627-0.75,1.11-1.33,1.45s-1.236,0.51-1.97,0.51c-1.12,0-1.97-0.313-2.55-0.939
		s-0.87-1.547-0.87-2.76v-6.12h0.84v6.04c0,1.013,0.207,1.76,0.62,2.239c0.413,0.48,1.053,0.721,1.92,0.721
		c1,0,1.803-0.316,2.41-0.95c0.606-0.633,0.91-1.477,0.91-2.53v-5.52H835.961z"/>
	<path d="M843.821,154.811l-0.04,0.779c-0.28,0.04-0.58,0.061-0.9,0.061c-1,0-1.77-0.29-2.31-0.87s-0.811-1.356-0.811-2.33v-5.88
		h-1.939v-0.72h1.939v-3.021h0.841v3.021h2.92v0.72h-2.92v5.7c0,0.854,0.199,1.5,0.6,1.939c0.4,0.44,0.993,0.66,1.78,0.66
		C843.288,154.87,843.567,154.851,843.821,154.811z"/>
	<path d="M863.78,145.851h0.9l-3.44,9.68h-1l-3.06-8.64l-3.12,8.64h-1l-3.4-9.68h0.92l2.98,8.699l3.12-8.699h1.02l3.04,8.68
		L863.78,145.851z"/>
	<path d="M874.001,149.19v6.34h-0.859v-1.78c-0.294,0.613-0.717,1.087-1.271,1.42c-0.554,0.334-1.184,0.5-1.89,0.5
		c-0.613,0-1.177-0.127-1.69-0.38s-0.92-0.603-1.22-1.05c-0.3-0.446-0.45-0.937-0.45-1.47c0-0.721,0.19-1.276,0.57-1.67
		s1.007-0.677,1.88-0.851c0.873-0.173,2.097-0.26,3.67-0.26h0.4v-0.84c0-0.946-0.188-1.637-0.561-2.07
		c-0.373-0.433-0.967-0.649-1.78-0.649c-0.626,0-1.203,0.083-1.729,0.25c-0.527,0.166-1.077,0.437-1.65,0.81l-0.399-0.72
		c0.493-0.36,1.063-0.644,1.71-0.851c0.646-0.206,1.296-0.31,1.95-0.31C872.895,145.61,874.001,146.804,874.001,149.19z
		 M871.602,154.4c0.479-0.287,0.856-0.684,1.13-1.19c0.272-0.506,0.41-1.08,0.41-1.72v-0.72h-0.381c-1.399,0-2.467,0.057-3.199,0.17
		c-0.733,0.113-1.247,0.307-1.54,0.58c-0.294,0.273-0.44,0.677-0.44,1.21c0,0.613,0.227,1.116,0.68,1.51s1.027,0.59,1.721,0.59
		C870.581,154.83,871.121,154.688,871.602,154.4z"/>
	<path d="M876.761,154.351l0.4-0.7c0.52,0.439,1.023,0.747,1.51,0.92c0.486,0.174,1.077,0.26,1.771,0.26
		c0.853,0,1.506-0.153,1.96-0.46c0.453-0.307,0.68-0.74,0.68-1.3c0-0.467-0.146-0.84-0.439-1.12c-0.294-0.28-0.768-0.5-1.421-0.66
		l-1.64-0.38c-0.76-0.173-1.363-0.49-1.81-0.95c-0.447-0.46-0.67-0.989-0.67-1.59c0-0.826,0.313-1.493,0.939-2s1.474-0.76,2.54-0.76
		c0.68,0,1.307,0.113,1.88,0.34s1.04,0.547,1.4,0.96l-0.4,0.72c-0.427-0.399-0.873-0.696-1.34-0.89s-0.979-0.29-1.54-0.29
		c-0.787,0-1.403,0.16-1.85,0.48c-0.447,0.319-0.67,0.76-0.67,1.319c0,0.494,0.136,0.884,0.409,1.17
		c0.273,0.287,0.703,0.504,1.29,0.65l1.66,0.4c1.721,0.399,2.58,1.246,2.58,2.54c0,0.8-0.327,1.443-0.979,1.93
		c-0.653,0.486-1.534,0.729-2.641,0.729C878.888,155.67,877.681,155.23,876.761,154.351z"/>
	<path d="M898.86,149.19v6.34h-0.859v-1.78c-0.294,0.613-0.717,1.087-1.271,1.42c-0.554,0.334-1.184,0.5-1.89,0.5
		c-0.613,0-1.177-0.127-1.69-0.38s-0.92-0.603-1.22-1.05c-0.3-0.446-0.45-0.937-0.45-1.47c0-0.721,0.19-1.276,0.57-1.67
		s1.007-0.677,1.88-0.851c0.873-0.173,2.097-0.26,3.67-0.26h0.4v-0.84c0-0.946-0.188-1.637-0.561-2.07
		c-0.373-0.433-0.967-0.649-1.78-0.649c-0.626,0-1.203,0.083-1.729,0.25c-0.527,0.166-1.077,0.437-1.65,0.81l-0.399-0.72
		c0.493-0.36,1.063-0.644,1.71-0.851c0.646-0.206,1.296-0.31,1.95-0.31C897.754,145.61,898.86,146.804,898.86,149.19z
		 M896.461,154.4c0.479-0.287,0.856-0.684,1.13-1.19c0.272-0.506,0.41-1.08,0.41-1.72v-0.72h-0.381c-1.399,0-2.467,0.057-3.199,0.17
		c-0.733,0.113-1.247,0.307-1.54,0.58c-0.294,0.273-0.44,0.677-0.44,1.21c0,0.613,0.227,1.116,0.68,1.51s1.027,0.59,1.721,0.59
		C895.44,154.83,895.98,154.688,896.461,154.4z"/>
	<path d="M915.54,149.29v6.24h-0.84v-6.16c0-1.026-0.187-1.776-0.56-2.25c-0.374-0.473-0.967-0.71-1.78-0.71
		c-0.934,0-1.677,0.313-2.229,0.94c-0.554,0.627-0.83,1.473-0.83,2.54v5.64h-0.84v-6.16c0-1.026-0.188-1.776-0.561-2.25
		c-0.373-0.473-0.967-0.71-1.78-0.71c-0.933,0-1.677,0.313-2.229,0.94c-0.554,0.627-0.83,1.473-0.83,2.54v5.64h-0.84v-9.68h0.819
		v1.699c0.267-0.626,0.664-1.106,1.19-1.439s1.15-0.5,1.87-0.5c1.547,0,2.54,0.646,2.979,1.939c0.28-0.6,0.71-1.072,1.29-1.42
		c0.58-0.346,1.237-0.52,1.971-0.52C914.474,145.61,915.54,146.837,915.54,149.29z"/>
	<path d="M925.96,149.19v6.34h-0.859v-1.78c-0.294,0.613-0.717,1.087-1.271,1.42c-0.554,0.334-1.184,0.5-1.89,0.5
		c-0.613,0-1.177-0.127-1.69-0.38s-0.92-0.603-1.22-1.05c-0.3-0.446-0.45-0.937-0.45-1.47c0-0.721,0.19-1.276,0.57-1.67
		s1.007-0.677,1.88-0.851c0.873-0.173,2.097-0.26,3.67-0.26h0.4v-0.84c0-0.946-0.188-1.637-0.561-2.07
		c-0.373-0.433-0.967-0.649-1.78-0.649c-0.626,0-1.203,0.083-1.729,0.25c-0.527,0.166-1.077,0.437-1.65,0.81l-0.399-0.72
		c0.493-0.36,1.063-0.644,1.71-0.851c0.646-0.206,1.296-0.31,1.95-0.31C924.854,145.61,925.96,146.804,925.96,149.19z
		 M923.561,154.4c0.479-0.287,0.856-0.684,1.13-1.19c0.272-0.506,0.41-1.08,0.41-1.72v-0.72h-0.381c-1.399,0-2.467,0.057-3.199,0.17
		c-0.733,0.113-1.247,0.307-1.54,0.58c-0.294,0.273-0.44,0.677-0.44,1.21c0,0.613,0.227,1.116,0.68,1.51s1.027,0.59,1.721,0.59
		C922.54,154.83,923.08,154.688,923.561,154.4z"/>
	<path d="M929.76,154.79h6.86v0.74h-8.02v-0.58l6.72-8.38h-6.42v-0.72h7.479v0.68L929.76,154.79z"/>
	<path d="M939.021,141.891h1.279v1.26h-1.279V141.891z M939.24,155.53v-9.68h0.84v9.68H939.24z"/>
	<path d="M951.18,149.29v6.24h-0.841v-6.16c0-1.026-0.206-1.776-0.619-2.25c-0.414-0.473-1.08-0.71-2-0.71
		c-1.027,0-1.851,0.317-2.471,0.95c-0.62,0.634-0.93,1.477-0.93,2.53v5.64h-0.84v-9.68h0.819v1.739c0.294-0.64,0.737-1.13,1.33-1.47
		c0.594-0.34,1.271-0.51,2.03-0.51C950.006,145.61,951.18,146.837,951.18,149.29z"/>
	<path d="M962.52,145.851v9.22c0,1.387-0.326,2.433-0.979,3.14s-1.627,1.061-2.92,1.061c-1.613,0-2.98-0.46-4.101-1.38l0.4-0.7
		c0.666,0.479,1.267,0.81,1.8,0.99c0.533,0.18,1.173,0.27,1.92,0.27c1,0,1.76-0.276,2.28-0.83c0.52-0.554,0.78-1.363,0.78-2.43
		v-2.101c-0.28,0.694-0.717,1.224-1.311,1.591c-0.593,0.366-1.31,0.55-2.149,0.55c-0.854,0-1.61-0.2-2.271-0.601
		c-0.66-0.399-1.173-0.966-1.54-1.699s-0.55-1.573-0.55-2.521c0-0.946,0.183-1.783,0.55-2.51s0.88-1.29,1.54-1.69
		c0.66-0.399,1.417-0.6,2.271-0.6c0.826,0,1.533,0.18,2.119,0.54c0.587,0.36,1.027,0.873,1.32,1.54v-1.84H962.52z M960.77,153.34
		c0.606-0.713,0.91-1.689,0.91-2.93s-0.304-2.213-0.91-2.92c-0.606-0.706-1.449-1.06-2.529-1.06c-1.067,0-1.91,0.354-2.53,1.06
		c-0.62,0.707-0.93,1.68-0.93,2.92c0,1.254,0.31,2.233,0.93,2.94s1.463,1.06,2.53,1.06C959.32,154.41,960.163,154.054,960.77,153.34
		z"/>
	<path d="M965.64,154.13h1.38v1.4h-1.38V154.13z"/>
	<path d="M736.922,179.53v-14.1h0.82v14.1H736.922z"/>
	<path d="M753.982,173.29v6.24h-0.84v-6.16c0-1.026-0.207-1.776-0.62-2.25c-0.414-0.473-1.08-0.71-2-0.71
		c-1.027,0-1.85,0.317-2.47,0.95c-0.62,0.634-0.93,1.477-0.93,2.53v5.64h-0.84v-14.1h0.84v6.119c0.293-0.626,0.733-1.106,1.32-1.439
		s1.26-0.5,2.02-0.5C752.809,169.61,753.982,170.837,753.982,173.29z"/>
	<path d="M764.401,173.19v6.34h-0.859v-1.78c-0.294,0.613-0.717,1.087-1.271,1.42c-0.553,0.334-1.183,0.5-1.89,0.5
		c-0.614,0-1.177-0.127-1.69-0.38s-0.92-0.603-1.22-1.05c-0.3-0.446-0.45-0.937-0.45-1.47c0-0.721,0.19-1.276,0.57-1.67
		c0.38-0.394,1.006-0.677,1.88-0.851c0.873-0.173,2.097-0.26,3.67-0.26h0.4v-0.84c0-0.946-0.188-1.637-0.561-2.07
		c-0.373-0.433-0.967-0.649-1.78-0.649c-0.627,0-1.204,0.083-1.73,0.25c-0.527,0.166-1.077,0.437-1.65,0.81l-0.4-0.72
		c0.493-0.36,1.063-0.644,1.71-0.851c0.646-0.206,1.296-0.31,1.95-0.31C763.295,169.61,764.401,170.804,764.401,173.19z
		 M762.001,178.4c0.48-0.287,0.857-0.684,1.13-1.19c0.273-0.506,0.41-1.08,0.41-1.72v-0.72h-0.381c-1.399,0-2.466,0.057-3.2,0.17
		s-1.247,0.307-1.54,0.58s-0.44,0.677-0.44,1.21c0,0.613,0.227,1.116,0.68,1.51c0.453,0.394,1.026,0.59,1.72,0.59
		C760.981,178.83,761.521,178.688,762.001,178.4z"/>
	<path d="M775.661,165.431v14.1h-0.84v-1.96c-0.293,0.68-0.73,1.2-1.31,1.56c-0.58,0.36-1.276,0.54-2.091,0.54
		c-0.854,0-1.606-0.21-2.26-0.63c-0.652-0.42-1.16-1.013-1.52-1.779s-0.54-1.657-0.54-2.671c0-1,0.181-1.873,0.54-2.619
		c0.359-0.747,0.867-1.327,1.52-1.74c0.653-0.413,1.406-0.62,2.26-0.62c0.814,0,1.511,0.18,2.091,0.54
		c0.579,0.36,1.017,0.873,1.31,1.54v-6.26H775.661z M773.941,177.75c0.587-0.732,0.88-1.772,0.88-3.12c0-1.333-0.293-2.366-0.88-3.1
		s-1.42-1.1-2.5-1.1s-1.923,0.363-2.53,1.09c-0.606,0.727-0.91,1.75-0.91,3.069c0,1.334,0.304,2.377,0.91,3.131
		c0.607,0.753,1.443,1.13,2.51,1.13C772.515,178.851,773.354,178.483,773.941,177.75z"/>
	<path d="M791.962,169.851v9.22c0,1.387-0.328,2.433-0.98,3.14c-0.654,0.707-1.627,1.061-2.92,1.061c-1.613,0-2.98-0.46-4.1-1.38
		l0.399-0.7c0.667,0.479,1.267,0.81,1.8,0.99c0.533,0.18,1.174,0.27,1.92,0.27c1,0,1.76-0.276,2.28-0.83s0.78-1.363,0.78-2.43
		v-2.101c-0.28,0.694-0.717,1.224-1.311,1.591c-0.594,0.366-1.31,0.55-2.15,0.55c-0.854,0-1.609-0.2-2.27-0.601
		c-0.66-0.399-1.174-0.966-1.54-1.699s-0.55-1.573-0.55-2.521c0-0.946,0.184-1.783,0.55-2.51s0.88-1.29,1.54-1.69
		c0.66-0.399,1.416-0.6,2.27-0.6c0.827,0,1.533,0.18,2.121,0.54c0.586,0.36,1.025,0.873,1.319,1.54v-1.84H791.962z M790.212,177.34
		c0.605-0.713,0.909-1.689,0.909-2.93s-0.304-2.213-0.909-2.92c-0.607-0.706-1.451-1.06-2.531-1.06c-1.066,0-1.909,0.354-2.529,1.06
		c-0.62,0.707-0.93,1.68-0.93,2.92c0,1.254,0.31,2.233,0.93,2.94s1.463,1.06,2.529,1.06
		C788.761,178.41,789.604,178.054,790.212,177.34z"/>
	<path d="M800.021,170.37l-0.68,0.08c-1.094,0.107-1.89,0.464-2.39,1.07s-0.75,1.343-0.75,2.21v5.8h-0.84v-9.68h0.84v1.699
		c0.307-0.6,0.729-1.05,1.271-1.35c0.539-0.3,1.216-0.483,2.029-0.55l0.42-0.04L800.021,170.37z"/>
	<path d="M809.461,174.771h-7.521c0.027,1.307,0.357,2.313,0.99,3.02c0.633,0.707,1.537,1.061,2.711,1.061
		c0.6,0,1.162-0.101,1.689-0.301c0.526-0.199,1.05-0.52,1.57-0.96l0.399,0.721c-0.413,0.413-0.946,0.743-1.6,0.989
		c-0.653,0.247-1.327,0.37-2.021,0.37c-1.439,0-2.576-0.446-3.41-1.34c-0.833-0.893-1.25-2.12-1.25-3.68c0-1,0.188-1.88,0.561-2.64
		c0.373-0.761,0.9-1.351,1.58-1.771s1.46-0.63,2.34-0.63c1.253,0,2.227,0.407,2.92,1.22c0.693,0.813,1.04,1.954,1.04,3.42V174.771z
		 M803.051,171.34c-0.62,0.634-0.983,1.518-1.09,2.65h6.7c-0.027-1.16-0.313-2.05-0.86-2.67s-1.313-0.93-2.3-0.93
		C804.487,170.391,803.671,170.707,803.051,171.34z"/>
	<path d="M819.221,173.19v6.34h-0.859v-1.78c-0.294,0.613-0.717,1.087-1.271,1.42c-0.554,0.334-1.184,0.5-1.89,0.5
		c-0.613,0-1.177-0.127-1.69-0.38s-0.92-0.603-1.22-1.05c-0.3-0.446-0.45-0.937-0.45-1.47c0-0.721,0.19-1.276,0.57-1.67
		s1.007-0.677,1.88-0.851c0.873-0.173,2.097-0.26,3.67-0.26h0.4v-0.84c0-0.946-0.188-1.637-0.561-2.07
		c-0.373-0.433-0.967-0.649-1.78-0.649c-0.626,0-1.203,0.083-1.729,0.25c-0.527,0.166-1.077,0.437-1.65,0.81l-0.399-0.72
		c0.493-0.36,1.063-0.644,1.71-0.851c0.646-0.206,1.296-0.31,1.95-0.31C818.114,169.61,819.221,170.804,819.221,173.19z
		 M816.821,178.4c0.479-0.287,0.856-0.684,1.13-1.19c0.272-0.506,0.41-1.08,0.41-1.72v-0.72h-0.381c-1.399,0-2.467,0.057-3.199,0.17
		c-0.733,0.113-1.247,0.307-1.54,0.58c-0.294,0.273-0.44,0.677-0.44,1.21c0,0.613,0.227,1.116,0.68,1.51s1.027,0.59,1.721,0.59
		C815.801,178.83,816.341,178.688,816.821,178.4z"/>
	<path d="M827.041,178.811l-0.04,0.779c-0.28,0.04-0.58,0.061-0.9,0.061c-1,0-1.77-0.29-2.31-0.87s-0.811-1.356-0.811-2.33v-5.88
		h-1.939v-0.72h1.939v-3.021h0.841v3.021h2.92v0.72h-2.92v5.7c0,0.854,0.199,1.5,0.6,1.939c0.4,0.44,0.993,0.66,1.78,0.66
		C826.508,178.87,826.787,178.851,827.041,178.811z"/>
	<path d="M835.22,179.05c-0.667-0.413-1.183-1-1.55-1.76s-0.55-1.633-0.55-2.62c0-1,0.183-1.883,0.55-2.649s0.887-1.36,1.561-1.78
		c0.673-0.42,1.456-0.63,2.35-0.63c0.653,0,1.273,0.117,1.86,0.35c0.586,0.233,1.066,0.551,1.439,0.95l-0.399,0.72
		c-0.507-0.426-0.987-0.736-1.44-0.93s-0.934-0.29-1.44-0.29c-1.106,0-1.979,0.38-2.619,1.14c-0.641,0.761-0.96,1.808-0.96,3.141
		c0,1.307,0.316,2.327,0.949,3.06c0.634,0.733,1.504,1.101,2.61,1.101c0.507,0,0.99-0.094,1.45-0.28s0.943-0.493,1.45-0.92
		l0.399,0.7c-0.387,0.413-0.88,0.736-1.479,0.97c-0.601,0.233-1.214,0.35-1.84,0.35C836.667,179.67,835.887,179.464,835.22,179.05z"
		/>
	<path d="M844.579,179.05c-0.653-0.413-1.159-1-1.52-1.76s-0.54-1.646-0.54-2.66c0-1,0.18-1.88,0.54-2.64s0.866-1.347,1.52-1.76
		s1.407-0.62,2.261-0.62c0.853,0,1.606,0.207,2.26,0.62s1.16,1,1.52,1.76c0.36,0.76,0.54,1.64,0.54,2.64c0,1.014-0.18,1.9-0.54,2.66
		c-0.359,0.76-0.866,1.347-1.52,1.76c-0.653,0.414-1.407,0.62-2.26,0.62C845.986,179.67,845.232,179.464,844.579,179.05z
		 M849.369,177.761c0.594-0.727,0.891-1.771,0.891-3.131c0-1.319-0.304-2.35-0.91-3.09c-0.607-0.74-1.443-1.109-2.51-1.109
		c-1.067,0-1.903,0.369-2.511,1.109c-0.606,0.74-0.909,1.771-0.909,3.09c0,1.36,0.296,2.404,0.89,3.131
		c0.593,0.727,1.43,1.09,2.51,1.09C847.926,178.851,848.776,178.487,849.369,177.761z"/>
	<path d="M861.6,173.29v6.24h-0.841v-6.16c0-1.026-0.206-1.776-0.619-2.25c-0.414-0.473-1.08-0.71-2-0.71
		c-1.027,0-1.851,0.317-2.471,0.95c-0.62,0.634-0.93,1.477-0.93,2.53v5.64h-0.84v-9.68h0.819v1.739c0.294-0.64,0.737-1.13,1.33-1.47
		c0.594-0.34,1.271-0.51,2.03-0.51C860.426,169.61,861.6,170.837,861.6,173.29z"/>
	<path d="M869.42,178.811l-0.04,0.779c-0.28,0.04-0.58,0.061-0.9,0.061c-1,0-1.77-0.29-2.31-0.87s-0.811-1.356-0.811-2.33v-5.88
		h-1.939v-0.72h1.939v-3.021h0.841v3.021h2.92v0.72h-2.92v5.7c0,0.854,0.199,1.5,0.6,1.939c0.4,0.44,0.993,0.66,1.78,0.66
		C868.887,178.87,869.166,178.851,869.42,178.811z"/>
	<path d="M875.899,170.37l-0.681,0.08c-1.093,0.107-1.89,0.464-2.39,1.07s-0.75,1.343-0.75,2.21v5.8h-0.84v-9.68h0.84v1.699
		c0.307-0.6,0.729-1.05,1.27-1.35s1.217-0.483,2.03-0.55l0.42-0.04L875.899,170.37z"/>
	<path d="M878.959,179.05c-0.653-0.413-1.159-1-1.52-1.76s-0.54-1.646-0.54-2.66c0-1,0.18-1.88,0.54-2.64s0.866-1.347,1.52-1.76
		s1.407-0.62,2.261-0.62c0.853,0,1.606,0.207,2.26,0.62s1.16,1,1.52,1.76c0.36,0.76,0.54,1.64,0.54,2.64c0,1.014-0.18,1.9-0.54,2.66
		c-0.359,0.76-0.866,1.347-1.52,1.76c-0.653,0.414-1.407,0.62-2.26,0.62C880.366,179.67,879.612,179.464,878.959,179.05z
		 M883.749,177.761c0.594-0.727,0.891-1.771,0.891-3.131c0-1.319-0.304-2.35-0.91-3.09c-0.607-0.74-1.443-1.109-2.51-1.109
		c-1.067,0-1.903,0.369-2.511,1.109c-0.606,0.74-0.909,1.771-0.909,3.09c0,1.36,0.296,2.404,0.89,3.131
		c0.593,0.727,1.43,1.09,2.51,1.09C882.306,178.851,883.156,178.487,883.749,177.761z"/>
	<path d="M888.279,179.53v-14.1h0.84v14.1H888.279z"/>
	<path d="M893.619,178.13v1.101c0,0.453-0.066,0.866-0.2,1.24c-0.133,0.373-0.359,0.713-0.68,1.02l-0.52-0.4
		c0.253-0.279,0.423-0.54,0.51-0.779c0.086-0.24,0.137-0.5,0.149-0.78h-0.64v-1.4H893.619z"/>
	<path d="M908.738,173.19v6.34h-0.859v-1.78c-0.294,0.613-0.717,1.087-1.271,1.42c-0.554,0.334-1.184,0.5-1.89,0.5
		c-0.613,0-1.177-0.127-1.69-0.38s-0.92-0.603-1.22-1.05c-0.3-0.446-0.45-0.937-0.45-1.47c0-0.721,0.19-1.276,0.57-1.67
		s1.007-0.677,1.88-0.851c0.873-0.173,2.097-0.26,3.67-0.26h0.4v-0.84c0-0.946-0.188-1.637-0.561-2.07
		c-0.373-0.433-0.967-0.649-1.78-0.649c-0.626,0-1.203,0.083-1.729,0.25c-0.527,0.166-1.077,0.437-1.65,0.81l-0.399-0.72
		c0.493-0.36,1.063-0.644,1.71-0.851c0.646-0.206,1.296-0.31,1.95-0.31C907.632,169.61,908.738,170.804,908.738,173.19z
		 M906.339,178.4c0.479-0.287,0.856-0.684,1.13-1.19c0.272-0.506,0.41-1.08,0.41-1.72v-0.72h-0.381c-1.399,0-2.467,0.057-3.199,0.17
		c-0.733,0.113-1.247,0.307-1.54,0.58c-0.294,0.273-0.44,0.677-0.44,1.21c0,0.613,0.227,1.116,0.68,1.51s1.027,0.59,1.721,0.59
		C905.318,178.83,905.858,178.688,906.339,178.4z"/>
	<path d="M919.998,165.431v14.1h-0.84v-1.96c-0.293,0.68-0.729,1.2-1.31,1.56c-0.58,0.36-1.277,0.54-2.09,0.54
		c-0.854,0-1.607-0.21-2.261-0.63s-1.159-1.013-1.52-1.779s-0.54-1.657-0.54-2.671c0-1,0.18-1.873,0.54-2.619
		c0.36-0.747,0.866-1.327,1.52-1.74s1.407-0.62,2.261-0.62c0.813,0,1.51,0.18,2.09,0.54s1.017,0.873,1.31,1.54v-6.26H919.998z
		 M918.278,177.75c0.587-0.732,0.88-1.772,0.88-3.12c0-1.333-0.293-2.366-0.88-3.1s-1.42-1.1-2.5-1.1s-1.923,0.363-2.53,1.09
		c-0.606,0.727-0.909,1.75-0.909,3.069c0,1.334,0.303,2.377,0.909,3.131c0.607,0.753,1.443,1.13,2.511,1.13
		C916.852,178.851,917.691,178.483,918.278,177.75z"/>
	<path d="M928.059,170.37l-0.681,0.08c-1.093,0.107-1.89,0.464-2.39,1.07s-0.75,1.343-0.75,2.21v5.8h-0.84v-9.68h0.84v1.699
		c0.307-0.6,0.729-1.05,1.27-1.35s1.217-0.483,2.03-0.55l0.42-0.04L928.059,170.37z"/>
	<path d="M937.499,174.771h-7.521c0.026,1.307,0.356,2.313,0.99,3.02c0.633,0.707,1.536,1.061,2.71,1.061
		c0.6,0,1.163-0.101,1.689-0.301c0.527-0.199,1.051-0.52,1.57-0.96l0.4,0.721c-0.414,0.413-0.947,0.743-1.601,0.989
		c-0.653,0.247-1.326,0.37-2.02,0.37c-1.44,0-2.577-0.446-3.41-1.34c-0.833-0.893-1.25-2.12-1.25-3.68c0-1,0.187-1.88,0.56-2.64
		c0.373-0.761,0.9-1.351,1.58-1.771c0.681-0.42,1.46-0.63,2.34-0.63c1.254,0,2.227,0.407,2.921,1.22
		c0.692,0.813,1.04,1.954,1.04,3.42V174.771z M931.089,171.34c-0.62,0.634-0.983,1.518-1.09,2.65h6.699
		c-0.026-1.16-0.313-2.05-0.859-2.67c-0.547-0.62-1.313-0.93-2.301-0.93C932.525,170.391,931.709,170.707,931.089,171.34z"/>
	<path d="M947.898,173.29v6.24h-0.841v-6.16c0-1.026-0.206-1.776-0.619-2.25c-0.414-0.473-1.08-0.71-2-0.71
		c-1.027,0-1.851,0.317-2.471,0.95c-0.62,0.634-0.93,1.477-0.93,2.53v5.64h-0.84v-9.68h0.819v1.739c0.294-0.64,0.737-1.13,1.33-1.47
		c0.594-0.34,1.271-0.51,2.03-0.51C946.725,169.61,947.898,170.837,947.898,173.29z"/>
	<path d="M958.317,173.19v6.34h-0.859v-1.78c-0.294,0.613-0.717,1.087-1.271,1.42c-0.554,0.334-1.184,0.5-1.89,0.5
		c-0.613,0-1.177-0.127-1.69-0.38s-0.92-0.603-1.22-1.05c-0.3-0.446-0.45-0.937-0.45-1.47c0-0.721,0.19-1.276,0.57-1.67
		s1.007-0.677,1.88-0.851c0.873-0.173,2.097-0.26,3.67-0.26h0.4v-0.84c0-0.946-0.188-1.637-0.561-2.07
		c-0.373-0.433-0.967-0.649-1.78-0.649c-0.626,0-1.203,0.083-1.729,0.25c-0.527,0.166-1.077,0.437-1.65,0.81l-0.399-0.72
		c0.493-0.36,1.063-0.644,1.71-0.851c0.646-0.206,1.296-0.31,1.95-0.31C957.211,169.61,958.317,170.804,958.317,173.19z
		 M955.918,178.4c0.479-0.287,0.856-0.684,1.13-1.19c0.272-0.506,0.41-1.08,0.41-1.72v-0.72h-0.381c-1.399,0-2.467,0.057-3.199,0.17
		c-0.733,0.113-1.247,0.307-1.54,0.58c-0.294,0.273-0.44,0.677-0.44,1.21c0,0.613,0.227,1.116,0.68,1.51s1.027,0.59,1.721,0.59
		C954.897,178.83,955.438,178.688,955.918,178.4z"/>
	<path d="M961.678,179.53v-14.1h0.84v14.1H961.678z"/>
	<path d="M965.698,165.891h1.279v1.26h-1.279V165.891z M965.918,179.53v-9.68h0.84v9.68H965.918z"/>
	<path d="M977.857,173.29v6.24h-0.841v-6.16c0-1.026-0.206-1.776-0.619-2.25c-0.414-0.473-1.08-0.71-2-0.71
		c-1.027,0-1.851,0.317-2.471,0.95c-0.62,0.634-0.93,1.477-0.93,2.53v5.64h-0.84v-9.68h0.819v1.739c0.294-0.64,0.737-1.13,1.33-1.47
		c0.594-0.34,1.271-0.51,2.03-0.51C976.684,169.61,977.857,170.837,977.857,173.29z"/>
	<path d="M988.998,174.771h-7.521c0.026,1.307,0.356,2.313,0.99,3.02c0.633,0.707,1.536,1.061,2.71,1.061
		c0.6,0,1.163-0.101,1.689-0.301c0.527-0.199,1.051-0.52,1.57-0.96l0.4,0.721c-0.414,0.413-0.947,0.743-1.601,0.989
		c-0.653,0.247-1.326,0.37-2.02,0.37c-1.44,0-2.577-0.446-3.41-1.34c-0.833-0.893-1.25-2.12-1.25-3.68c0-1,0.187-1.88,0.56-2.64
		c0.373-0.761,0.9-1.351,1.58-1.771c0.681-0.42,1.46-0.63,2.34-0.63c1.254,0,2.227,0.407,2.921,1.22
		c0.692,0.813,1.04,1.954,1.04,3.42V174.771z M982.588,171.34c-0.62,0.634-0.983,1.518-1.09,2.65h6.699
		c-0.026-1.16-0.313-2.05-0.859-2.67c-0.547-0.62-1.313-0.93-2.301-0.93C984.024,170.391,983.208,170.707,982.588,171.34z"/>
	<path d="M743.762,197.19v6.34h-0.86v-1.78c-0.293,0.613-0.717,1.087-1.27,1.42c-0.553,0.334-1.183,0.5-1.89,0.5
		c-0.614,0-1.177-0.127-1.69-0.38s-0.92-0.603-1.22-1.05c-0.3-0.446-0.45-0.937-0.45-1.47c0-0.721,0.19-1.276,0.57-1.67
		c0.38-0.394,1.006-0.677,1.88-0.851c0.873-0.173,2.097-0.26,3.67-0.26h0.4v-0.84c0-0.946-0.187-1.637-0.56-2.07
		c-0.373-0.433-0.967-0.649-1.78-0.649c-0.627,0-1.204,0.083-1.73,0.25c-0.527,0.166-1.077,0.437-1.65,0.81l-0.4-0.72
		c0.493-0.36,1.063-0.644,1.71-0.851c0.646-0.206,1.296-0.31,1.95-0.31C742.656,193.61,743.762,194.804,743.762,197.19z
		 M741.362,202.4c0.48-0.287,0.857-0.684,1.13-1.19c0.273-0.506,0.41-1.08,0.41-1.72v-0.72h-0.38c-1.4,0-2.467,0.057-3.2,0.17
		s-1.247,0.307-1.54,0.58s-0.44,0.677-0.44,1.21c0,0.613,0.227,1.116,0.68,1.51c0.453,0.394,1.026,0.59,1.72,0.59
		C740.342,202.83,740.882,202.688,741.362,202.4z"/>
	<path d="M754.822,197.29v6.24h-0.84v-6.16c0-1.026-0.207-1.776-0.62-2.25c-0.414-0.473-1.08-0.71-2-0.71
		c-1.027,0-1.85,0.317-2.47,0.95c-0.62,0.634-0.93,1.477-0.93,2.53v5.64h-0.84v-9.68h0.82v1.739c0.293-0.64,0.736-1.13,1.33-1.47
		c0.593-0.34,1.27-0.51,2.03-0.51C753.649,193.61,754.822,194.837,754.822,197.29z"/>
	<path d="M766.083,189.431v14.1h-0.841v-1.96c-0.293,0.68-0.729,1.2-1.31,1.56c-0.58,0.36-1.277,0.54-2.09,0.54
		c-0.854,0-1.607-0.21-2.26-0.63c-0.653-0.42-1.16-1.013-1.52-1.779s-0.54-1.657-0.54-2.671c0-1,0.18-1.873,0.54-2.619
		c0.36-0.747,0.867-1.327,1.52-1.74c0.653-0.413,1.406-0.62,2.26-0.62c0.813,0,1.51,0.18,2.09,0.54s1.017,0.873,1.31,1.54v-6.26
		H766.083z M764.362,201.75c0.587-0.732,0.88-1.772,0.88-3.12c0-1.333-0.293-2.366-0.88-3.1s-1.42-1.1-2.5-1.1
		s-1.923,0.363-2.53,1.09c-0.607,0.727-0.91,1.75-0.91,3.069c0,1.334,0.303,2.377,0.91,3.131c0.606,0.753,1.443,1.13,2.51,1.13
		C762.936,202.851,763.775,202.483,764.362,201.75z"/>
	<path d="M773.802,202.351l0.4-0.7c0.52,0.439,1.022,0.747,1.51,0.92c0.486,0.174,1.076,0.26,1.77,0.26
		c0.854,0,1.507-0.153,1.961-0.46c0.453-0.307,0.68-0.74,0.68-1.3c0-0.467-0.147-0.84-0.44-1.12c-0.294-0.28-0.767-0.5-1.42-0.66
		l-1.64-0.38c-0.76-0.173-1.363-0.49-1.811-0.95s-0.67-0.989-0.67-1.59c0-0.826,0.313-1.493,0.939-2s1.474-0.76,2.541-0.76
		c0.68,0,1.307,0.113,1.879,0.34c0.574,0.227,1.041,0.547,1.4,0.96l-0.4,0.72c-0.426-0.399-0.873-0.696-1.34-0.89
		s-0.979-0.29-1.539-0.29c-0.787,0-1.404,0.16-1.851,0.48c-0.446,0.319-0.67,0.76-0.67,1.319c0,0.494,0.137,0.884,0.41,1.17
		c0.272,0.287,0.703,0.504,1.29,0.65l1.66,0.4c1.72,0.399,2.58,1.246,2.58,2.54c0,0.8-0.327,1.443-0.98,1.93
		s-1.533,0.729-2.64,0.729C775.929,203.67,774.722,203.23,773.802,202.351z"/>
	<path d="M788.282,202.811l-0.04,0.779c-0.28,0.04-0.58,0.061-0.899,0.061c-1,0-1.771-0.29-2.311-0.87s-0.811-1.356-0.811-2.33
		v-5.88h-1.939v-0.72h1.939v-3.021h0.84v3.021h2.92v0.72h-2.92v5.7c0,0.854,0.201,1.5,0.601,1.939c0.399,0.44,0.993,0.66,1.78,0.66
		C787.749,202.87,788.028,202.851,788.282,202.811z"/>
	<path d="M797.161,197.19v6.34h-0.859v-1.78c-0.293,0.613-0.717,1.087-1.27,1.42c-0.554,0.334-1.184,0.5-1.891,0.5
		c-0.613,0-1.177-0.127-1.689-0.38c-0.514-0.253-0.92-0.603-1.221-1.05c-0.3-0.446-0.449-0.937-0.449-1.47
		c0-0.721,0.189-1.276,0.57-1.67c0.379-0.394,1.006-0.677,1.879-0.851c0.873-0.173,2.098-0.26,3.67-0.26h0.4v-0.84
		c0-0.946-0.188-1.637-0.561-2.07c-0.373-0.433-0.967-0.649-1.779-0.649c-0.627,0-1.203,0.083-1.73,0.25
		c-0.526,0.166-1.076,0.437-1.649,0.81l-0.4-0.72c0.493-0.36,1.063-0.644,1.71-0.851c0.646-0.206,1.297-0.31,1.95-0.31
		C796.056,193.61,797.161,194.804,797.161,197.19z M794.762,202.4c0.479-0.287,0.856-0.684,1.13-1.19
		c0.273-0.506,0.41-1.08,0.41-1.72v-0.72h-0.38c-1.399,0-2.467,0.057-3.2,0.17s-1.246,0.307-1.54,0.58s-0.44,0.677-0.44,1.21
		c0,0.613,0.227,1.116,0.681,1.51c0.453,0.394,1.026,0.59,1.72,0.59C793.741,202.83,794.282,202.688,794.762,202.4z"/>
	<path d="M807.022,194.23c0.652,0.413,1.159,0.993,1.52,1.74c0.359,0.746,0.54,1.619,0.54,2.619c0,1.014-0.181,1.904-0.54,2.671
		c-0.36,0.767-0.867,1.359-1.52,1.779c-0.654,0.42-1.408,0.63-2.261,0.63c-0.813,0-1.51-0.18-2.09-0.54
		c-0.58-0.359-1.017-0.88-1.31-1.56v1.96h-0.84v-14.1h0.84v6.26c0.293-0.667,0.729-1.18,1.31-1.54s1.276-0.54,2.09-0.54
		C805.614,193.61,806.368,193.817,807.022,194.23z M807.262,201.73c0.601-0.747,0.899-1.793,0.899-3.141
		c0-1.319-0.299-2.343-0.899-3.069s-1.44-1.09-2.521-1.09s-1.913,0.366-2.5,1.1c-0.586,0.733-0.879,1.767-0.879,3.1
		c0,1.348,0.293,2.388,0.879,3.12c0.587,0.733,1.428,1.101,2.521,1.101C805.828,202.851,806.661,202.478,807.262,201.73z"/>
	<path d="M811.602,189.891h1.279v1.26h-1.279V189.891z M811.821,203.53v-9.68h0.84v9.68H811.821z"/>
	<path d="M816.062,203.53v-14.1h0.84v14.1H816.062z"/>
	<path d="M820.082,189.891h1.279v1.26h-1.279V189.891z M820.302,203.53v-9.68h0.84v9.68H820.302z"/>
	<path d="M829.001,202.811l-0.04,0.779c-0.28,0.04-0.58,0.061-0.9,0.061c-1,0-1.77-0.29-2.31-0.87s-0.811-1.356-0.811-2.33v-5.88
		h-1.939v-0.72h1.939v-3.021h0.841v3.021h2.92v0.72h-2.92v5.7c0,0.854,0.199,1.5,0.6,1.939c0.4,0.44,0.993,0.66,1.78,0.66
		C828.468,202.87,828.747,202.851,829.001,202.811z"/>
	<path d="M837.961,193.851h0.88l-5.68,13.279h-0.86l1.5-3.5l-4.159-9.779h0.899l3.7,8.939L837.961,193.851z"/>
	<path d="M840.021,202.13h1.38v1.4h-1.38V202.13z"/>
</g>
<g>
	<path d="M1118.784,106.161v0.76h-8.739v-0.64l5.08-5.72c0.76-0.867,1.306-1.63,1.64-2.29c0.333-0.66,0.5-1.33,0.5-2.01
		c0-0.893-0.26-1.583-0.78-2.07c-0.52-0.487-1.253-0.73-2.2-0.73c-0.746,0-1.456,0.144-2.13,0.43c-0.673,0.287-1.343,0.73-2.01,1.33
		l-0.42-0.7c0.56-0.56,1.25-1.01,2.07-1.35c0.819-0.34,1.636-0.51,2.449-0.51c1.2,0,2.146,0.32,2.841,0.96
		c0.692,0.64,1.04,1.513,1.04,2.62c0,0.813-0.19,1.61-0.57,2.39c-0.38,0.78-1.004,1.65-1.87,2.61l-4.46,4.92H1118.784z"/>
	<path d="M1130.784,106.161v0.76h-8.739v-0.64l5.08-5.72c0.76-0.867,1.306-1.63,1.64-2.29c0.333-0.66,0.5-1.33,0.5-2.01
		c0-0.893-0.26-1.583-0.78-2.07c-0.52-0.487-1.253-0.73-2.2-0.73c-0.746,0-1.456,0.144-2.13,0.43c-0.673,0.287-1.343,0.73-2.01,1.33
		l-0.42-0.7c0.56-0.56,1.25-1.01,2.07-1.35c0.819-0.34,1.636-0.51,2.449-0.51c1.2,0,2.146,0.32,2.841,0.96
		c0.692,0.64,1.04,1.513,1.04,2.62c0,0.813-0.19,1.61-0.57,2.39c-0.38,0.78-1.004,1.65-1.87,2.61l-4.46,4.92H1130.784z"/>
	<path d="M1132.585,108.081l-0.82-0.3l5.06-15.78l0.82,0.3L1132.585,108.081z"/>
	<path d="M1144.104,106.161h3.141v0.76h-7.101v-0.76h3.14v-12.12l-2.539,1.68l-0.521-0.7l3.06-2.06v-0.02l0.2-0.12h0.62V106.161z"/>
	<path d="M1156.104,106.161h3.141v0.76h-7.101v-0.76h3.14v-12.12l-2.539,1.68l-0.521-0.7l3.06-2.06v-0.02l0.2-0.12h0.62V106.161z"/>
	<path d="M1161.704,108.081l-0.82-0.3l5.06-15.78l0.82,0.3L1161.704,108.081z"/>
	<path d="M1173.224,106.161h3.141v0.76h-7.101v-0.76h3.14v-12.12l-2.539,1.68l-0.521-0.7l3.06-2.06v-0.02l0.2-0.12h0.62V106.161z"/>
	<path d="M1179.943,92.821h8.86v0.62l-6.78,13.48h-0.899l6.72-13.34h-7.9V92.821z"/>
	<path d="M1196.822,102.001v-0.76h5.28v0.76H1196.822z"/>
	<path d="M1217.912,94.421c0.887,1.173,1.33,2.847,1.33,5.02c0,2.414-0.454,4.29-1.36,5.63c-0.906,1.34-2.18,2.01-3.82,2.01
		c-0.786,0-1.55-0.16-2.289-0.48c-0.74-0.32-1.41-0.78-2.011-1.38l0.42-0.7c0.681,0.613,1.33,1.06,1.95,1.34
		c0.62,0.28,1.271,0.42,1.95,0.42c1.347,0,2.4-0.603,3.16-1.81c0.76-1.207,1.14-2.89,1.14-5.05v-0.76
		c-0.293,0.88-0.816,1.573-1.57,2.08c-0.753,0.507-1.623,0.76-2.609,0.76c-0.88,0-1.657-0.183-2.33-0.55
		c-0.674-0.366-1.197-0.883-1.57-1.55c-0.373-0.667-0.56-1.44-0.56-2.32c0-0.84,0.187-1.597,0.56-2.27s0.894-1.2,1.561-1.58
		c0.666-0.38,1.42-0.57,2.26-0.57C1215.762,92.661,1217.025,93.248,1217.912,94.421z M1216.082,100.241
		c0.56-0.306,0.996-0.733,1.31-1.28c0.313-0.546,0.471-1.167,0.471-1.86c0-1.093-0.34-1.973-1.021-2.64c-0.68-0.667-1.573-1-2.68-1
		c-1.067,0-1.92,0.333-2.561,1c-0.64,0.667-0.96,1.547-0.96,2.64c0,1.08,0.323,1.95,0.971,2.61c0.646,0.66,1.503,0.99,2.569,0.99
		C1214.889,100.701,1215.522,100.548,1216.082,100.241z"/>
	<path d="M1221.962,97.241h1.38v1.4h-1.38V97.241z M1221.962,105.521h1.38v1.4h-1.38V105.521z"/>
	<path d="M1227.242,105.251c-0.813-1.22-1.22-3.01-1.22-5.37c0-2.373,0.403-4.17,1.21-5.39c0.807-1.22,1.99-1.83,3.55-1.83
		s2.743,0.606,3.55,1.82s1.21,3.007,1.21,5.38c0,2.36-0.406,4.153-1.22,5.38c-0.813,1.227-1.993,1.84-3.54,1.84
		S1228.056,106.471,1227.242,105.251z M1233.692,104.681c0.633-1.04,0.95-2.646,0.95-4.82c0-2.187-0.313-3.796-0.94-4.83
		c-0.627-1.033-1.6-1.55-2.92-1.55c-1.307,0-2.277,0.52-2.91,1.56s-0.95,2.647-0.95,4.82c0,2.16,0.317,3.764,0.95,4.81
		c0.633,1.047,1.604,1.57,2.91,1.57S1233.059,105.721,1233.692,104.681z"/>
	<path d="M1239.242,105.251c-0.813-1.22-1.22-3.01-1.22-5.37c0-2.373,0.403-4.17,1.21-5.39c0.807-1.22,1.99-1.83,3.55-1.83
		s2.743,0.606,3.55,1.82s1.21,3.007,1.21,5.38c0,2.36-0.406,4.153-1.22,5.38c-0.813,1.227-1.993,1.84-3.54,1.84
		S1240.056,106.471,1239.242,105.251z M1245.692,104.681c0.633-1.04,0.95-2.646,0.95-4.82c0-2.187-0.313-3.796-0.94-4.83
		c-0.627-1.033-1.6-1.55-2.92-1.55c-1.307,0-2.277,0.52-2.91,1.56s-0.95,2.647-0.95,4.82c0,2.16,0.317,3.764,0.95,4.81
		c0.633,1.047,1.604,1.57,2.91,1.57S1245.059,105.721,1245.692,104.681z"/>
	<path d="M1261.502,106.921l-1.68-3.9h-7.82l-1.68,3.9h-0.86l6.061-14.1h0.8l6.06,14.1H1261.502z M1252.342,102.221h7.141
		l-3.561-8.32L1252.342,102.221z"/>
	<path d="M1277.201,92.821h0.74v14.1h-0.82l0.021-12.34l-5.32,10.14h-0.68l-5.36-10.06l0.021,12.26h-0.82v-14.1h0.72l5.78,11.1
		L1277.201,92.821z"/>
</g>
<g>
	<path d="M1120.641,223.46h-0.92l-2.381-4.52c-0.347-0.667-0.746-1.12-1.199-1.36c-0.454-0.24-1.087-0.36-1.9-0.36h-3.26v6.24h-0.82
		v-14.1h5.44c1.453,0,2.576,0.33,3.37,0.989c0.793,0.66,1.189,1.63,1.189,2.91c0,1.094-0.323,1.967-0.97,2.62
		c-0.647,0.653-1.563,1.047-2.75,1.18c0.333,0.107,0.63,0.287,0.89,0.54c0.26,0.254,0.51,0.594,0.75,1.021L1120.641,223.46z
		 M1115.62,216.42c2.44,0,3.66-1.06,3.66-3.18c0-1.04-0.3-1.816-0.9-2.33c-0.6-0.514-1.52-0.771-2.76-0.771H1111v6.28H1115.62z"/>
	<path d="M1130.56,217.12v6.34h-0.859v-1.78c-0.294,0.613-0.717,1.087-1.271,1.42c-0.554,0.334-1.184,0.5-1.89,0.5
		c-0.613,0-1.177-0.127-1.69-0.38s-0.92-0.603-1.22-1.05c-0.3-0.446-0.45-0.937-0.45-1.47c0-0.721,0.19-1.276,0.57-1.67
		s1.007-0.677,1.88-0.851c0.873-0.173,2.097-0.26,3.67-0.26h0.4v-0.84c0-0.946-0.188-1.637-0.561-2.07
		c-0.373-0.433-0.967-0.649-1.78-0.649c-0.626,0-1.203,0.083-1.729,0.25c-0.527,0.166-1.077,0.437-1.65,0.81l-0.399-0.72
		c0.493-0.36,1.063-0.644,1.71-0.851c0.646-0.206,1.296-0.31,1.95-0.31C1129.453,213.54,1130.56,214.733,1130.56,217.12z
		 M1128.16,222.33c0.479-0.287,0.856-0.684,1.13-1.19c0.272-0.506,0.41-1.08,0.41-1.72v-0.72h-0.381
		c-1.399,0-2.467,0.057-3.199,0.17c-0.733,0.113-1.247,0.307-1.54,0.58c-0.294,0.273-0.44,0.677-0.44,1.21
		c0,0.613,0.227,1.116,0.68,1.51s1.027,0.59,1.721,0.59C1127.14,222.76,1127.68,222.617,1128.16,222.33z"/>
	<path d="M1133.7,209.82h1.279v1.26h-1.279V209.82z M1133.92,223.46v-9.68h0.84v9.68H1133.92z"/>
	<path d="M1145.86,217.22v6.24h-0.841v-6.16c0-1.026-0.206-1.776-0.619-2.25c-0.414-0.473-1.08-0.71-2-0.71
		c-1.027,0-1.851,0.317-2.471,0.95c-0.62,0.634-0.93,1.477-0.93,2.53v5.64h-0.84v-9.68h0.819v1.739c0.294-0.64,0.737-1.13,1.33-1.47
		c0.594-0.34,1.271-0.51,2.03-0.51C1144.687,213.54,1145.86,214.767,1145.86,217.22z"/>
</g>
<g>
	<path d="M1396.013,99.651c0.673,0.367,1.196,0.884,1.569,1.55c0.373,0.667,0.561,1.44,0.561,2.32c0,0.84-0.188,1.597-0.561,2.27
		c-0.373,0.674-0.894,1.2-1.56,1.58c-0.667,0.38-1.42,0.57-2.26,0.57c-1.641,0-2.904-0.587-3.79-1.76
		c-0.888-1.174-1.33-2.847-1.33-5.021c0-2.413,0.453-4.29,1.359-5.63c0.907-1.34,2.181-2.01,3.82-2.01c0.786,0,1.55,0.16,2.29,0.479
		c0.74,0.32,1.41,0.78,2.01,1.38l-0.42,0.7c-0.68-0.613-1.33-1.06-1.95-1.34s-1.27-0.42-1.949-0.42c-1.348,0-2.4,0.604-3.16,1.81
		c-0.761,1.207-1.141,2.891-1.141,5.051v0.8c0.293-0.894,0.813-1.597,1.561-2.11c0.746-0.513,1.62-0.77,2.62-0.77
		C1394.563,99.102,1395.339,99.285,1396.013,99.651z M1396.292,106.142c0.646-0.667,0.971-1.547,0.971-2.641
		c0-1.08-0.327-1.95-0.98-2.609c-0.653-0.66-1.514-0.99-2.58-0.99c-0.707,0-1.34,0.153-1.899,0.46
		c-0.561,0.307-0.997,0.733-1.311,1.28s-0.47,1.167-0.47,1.859c0,1.094,0.343,1.974,1.03,2.641c0.687,0.667,1.583,1,2.689,1
		C1394.795,107.142,1395.646,106.809,1396.292,106.142z"/>
	<path d="M1406.143,107.021h3.141v0.76h-7.101v-0.76h3.14v-12.12l-2.539,1.68l-0.521-0.7l3.06-2.06v-0.021l0.2-0.119h0.62V107.021z"
		/>
	<path d="M1420.901,101.762c0.44,0.586,0.66,1.326,0.66,2.22c0,1.213-0.383,2.173-1.149,2.88c-0.768,0.707-1.811,1.06-3.13,1.06
		c-0.881,0-1.724-0.159-2.53-0.479s-1.504-0.78-2.09-1.38l0.42-0.7c0.653,0.6,1.323,1.043,2.01,1.33s1.423,0.43,2.21,0.43
		c1.08,0,1.917-0.267,2.51-0.8c0.594-0.533,0.891-1.293,0.891-2.28c0-1-0.313-1.756-0.94-2.27s-1.547-0.771-2.76-0.771h-1.4v-0.779
		h1.101c1.159,0,2.066-0.283,2.72-0.851c0.653-0.566,0.979-1.356,0.979-2.37c0-0.853-0.26-1.513-0.779-1.979
		c-0.521-0.467-1.247-0.7-2.181-0.7c-0.733,0-1.437,0.144-2.109,0.43c-0.674,0.287-1.351,0.73-2.03,1.33l-0.42-0.7
		c0.573-0.586,1.257-1.043,2.05-1.369c0.793-0.327,1.623-0.49,2.49-0.49c1.187,0,2.126,0.313,2.82,0.939
		c0.692,0.627,1.04,1.48,1.04,2.561c0,0.826-0.204,1.553-0.61,2.18c-0.407,0.627-0.964,1.073-1.67,1.34
		C1419.828,100.769,1420.462,101.175,1420.901,101.762z"/>
	<path d="M1425.762,106.111c-0.813-1.22-1.22-3.01-1.22-5.37c0-2.373,0.403-4.17,1.21-5.39c0.807-1.221,1.99-1.83,3.55-1.83
		s2.743,0.606,3.55,1.819c0.807,1.214,1.21,3.007,1.21,5.381c0,2.359-0.406,4.153-1.22,5.38s-1.993,1.84-3.54,1.84
		S1426.575,107.331,1425.762,106.111z M1432.212,105.541c0.633-1.04,0.95-2.646,0.95-4.819c0-2.187-0.313-3.797-0.94-4.83
		s-1.6-1.551-2.92-1.551c-1.307,0-2.277,0.521-2.91,1.561s-0.95,2.646-0.95,4.82c0,2.159,0.317,3.763,0.95,4.81
		s1.604,1.57,2.91,1.57S1431.578,106.581,1432.212,105.541z"/>
	<path d="M1441.922,107.781v-14.1h0.84v14.1H1441.922z"/>
	<path d="M1452.661,98.481c0.653,0.413,1.16,0.993,1.52,1.74c0.36,0.746,0.54,1.619,0.54,2.619c0,1.014-0.18,1.904-0.54,2.671
		c-0.359,0.767-0.866,1.359-1.52,1.779s-1.407,0.63-2.26,0.63c-0.813,0-1.511-0.18-2.091-0.54c-0.58-0.359-1.017-0.88-1.31-1.56
		v1.96h-0.84v-14.1h0.84v6.26c0.293-0.667,0.729-1.18,1.31-1.54s1.277-0.54,2.091-0.54
		C1451.254,97.861,1452.008,98.068,1452.661,98.481z M1452.901,105.981c0.6-0.747,0.899-1.793,0.899-3.141
		c0-1.319-0.3-2.343-0.899-3.069c-0.601-0.727-1.44-1.09-2.521-1.09s-1.913,0.366-2.5,1.1s-0.88,1.767-0.88,3.1
		c0,1.348,0.293,2.388,0.88,3.12c0.587,0.733,1.427,1.101,2.521,1.101C1451.468,107.102,1452.301,106.729,1452.901,105.981z"/>
	<path d="M1456.86,106.602l0.4-0.7c0.52,0.439,1.023,0.747,1.51,0.92c0.486,0.174,1.077,0.26,1.771,0.26
		c0.853,0,1.506-0.153,1.96-0.46c0.453-0.307,0.68-0.74,0.68-1.3c0-0.467-0.146-0.84-0.439-1.12c-0.294-0.28-0.768-0.5-1.421-0.66
		l-1.64-0.38c-0.76-0.173-1.363-0.49-1.81-0.95c-0.447-0.46-0.67-0.989-0.67-1.59c0-0.826,0.313-1.493,0.939-2s1.474-0.76,2.54-0.76
		c0.68,0,1.307,0.113,1.88,0.34s1.04,0.547,1.4,0.96l-0.4,0.72c-0.427-0.399-0.873-0.696-1.34-0.89s-0.979-0.29-1.54-0.29
		c-0.787,0-1.403,0.16-1.85,0.48c-0.447,0.319-0.67,0.76-0.67,1.319c0,0.494,0.136,0.884,0.409,1.17
		c0.273,0.287,0.703,0.504,1.29,0.65l1.66,0.4c1.721,0.399,2.58,1.246,2.58,2.54c0,0.8-0.327,1.443-0.979,1.93
		c-0.653,0.486-1.534,0.729-2.641,0.729C1458.987,107.921,1457.78,107.481,1456.86,106.602z"/>
	<path d="M1466.602,106.381h1.38v1.4h-1.38V106.381z"/>
</g>
<g>
	<path d="M12.244,140.545v-35.25h7.55v35.25H12.244z"/>
	<path d="M47.694,129.695h-16c0.233,1.967,0.875,3.392,1.925,4.274c1.05,0.884,2.542,1.325,4.475,1.325
		c1.267,0,2.525-0.208,3.775-0.625c1.25-0.416,2.392-1.008,3.425-1.775l2,5.051c-1.2,0.934-2.659,1.667-4.375,2.199
		c-1.717,0.533-3.442,0.801-5.175,0.801c-4.133,0-7.392-1.142-9.775-3.426c-2.383-2.282-3.575-5.391-3.575-9.325
		c0-2.5,0.516-4.716,1.55-6.65c1.033-1.933,2.466-3.441,4.3-4.525c1.833-1.083,3.917-1.625,6.25-1.625
		c3.433,0,6.158,1.117,8.175,3.35c2.016,2.233,3.025,5.267,3.025,9.1V129.695z M33.269,121.97c-0.85,0.917-1.375,2.242-1.575,3.975
		h9.65c-0.1-1.766-0.542-3.1-1.325-4c-0.784-0.9-1.893-1.35-3.325-1.35C35.26,120.595,34.119,121.054,33.269,121.97z"/>
	<path d="M77.293,115.995v21.899c0,3.967-1.134,6.967-3.4,9c-2.267,2.033-5.617,3.051-10.05,3.051c-2.2,0-4.309-0.268-6.325-0.801
		c-2.017-0.533-3.792-1.283-5.325-2.25l2-5.199c3.167,1.732,6.316,2.6,9.45,2.6c4.133,0,6.2-1.95,6.2-5.85v-2.7
		c-0.7,1.267-1.75,2.267-3.15,3s-2.967,1.1-4.7,1.1c-2.133,0-4.025-0.5-5.675-1.5s-2.942-2.425-3.875-4.274
		c-0.934-1.851-1.4-3.992-1.4-6.425s0.466-4.575,1.4-6.425c0.933-1.85,2.225-3.283,3.875-4.3c1.65-1.017,3.542-1.525,5.675-1.525
		c1.7,0,3.242,0.358,4.625,1.075c1.383,0.717,2.441,1.709,3.175,2.975v-3.45H77.293z M68.318,132.395
		c0.983-1.133,1.475-2.716,1.475-4.75c0-2.033-0.492-3.625-1.475-4.775c-0.984-1.15-2.359-1.725-4.125-1.725
		c-1.767,0-3.15,0.575-4.15,1.725c-1,1.15-1.5,2.742-1.5,4.775c0,2,0.5,3.575,1.5,4.725c1,1.149,2.383,1.725,4.15,1.725
		C65.959,134.095,67.334,133.528,68.318,132.395z"/>
	<path d="M105.192,129.695h-16c0.233,1.967,0.875,3.392,1.925,4.274c1.05,0.884,2.542,1.325,4.475,1.325
		c1.267,0,2.525-0.208,3.775-0.625c1.25-0.416,2.392-1.008,3.425-1.775l2,5.051c-1.2,0.934-2.659,1.667-4.375,2.199
		c-1.717,0.533-3.442,0.801-5.175,0.801c-4.133,0-7.392-1.142-9.775-3.426c-2.383-2.282-3.575-5.391-3.575-9.325
		c0-2.5,0.516-4.716,1.55-6.65c1.033-1.933,2.466-3.441,4.3-4.525c1.833-1.083,3.917-1.625,6.25-1.625
		c3.433,0,6.158,1.117,8.175,3.35c2.016,2.233,3.025,5.267,3.025,9.1V129.695z M90.768,121.97c-0.85,0.917-1.375,2.242-1.575,3.975
		h9.65c-0.1-1.766-0.542-3.1-1.325-4c-0.784-0.9-1.893-1.35-3.325-1.35C92.759,120.595,91.617,121.054,90.768,121.97z"/>
	<path d="M131.692,117.97c1.433,1.717,2.15,4.309,2.15,7.775v14.8h-7.55v-14.45c0-1.666-0.309-2.883-0.925-3.65
		c-0.617-0.766-1.575-1.15-2.875-1.15c-1.567,0-2.825,0.5-3.775,1.5s-1.425,2.333-1.425,4v13.75h-7.55v-24.55h7.35v3.5
		c0.866-1.333,1.991-2.35,3.375-3.05c1.383-0.7,2.941-1.05,4.675-1.05C128.075,115.395,130.259,116.253,131.692,117.97z"/>
	<path d="M164.341,105.295v35.25h-7.5v-3.65c-0.733,1.268-1.775,2.259-3.125,2.976c-1.35,0.716-2.875,1.075-4.575,1.075
		c-2.1,0-3.975-0.542-5.625-1.625c-1.65-1.083-2.934-2.601-3.85-4.551c-0.917-1.949-1.375-4.191-1.375-6.725
		c0-2.533,0.458-4.758,1.375-6.675c0.916-1.917,2.191-3.392,3.825-4.425c1.633-1.033,3.517-1.55,5.65-1.55
		c1.667,0,3.175,0.35,4.525,1.05c1.35,0.7,2.391,1.684,3.125,2.95v-14.1H164.341z M155.417,133.37
		c0.95-1.217,1.425-2.958,1.425-5.225c0-2.267-0.475-4-1.425-5.2c-0.95-1.2-2.309-1.8-4.075-1.8c-1.767,0-3.134,0.592-4.1,1.775
		c-0.967,1.184-1.45,2.892-1.45,5.125c0,2.268,0.482,4.025,1.45,5.275c0.966,1.25,2.333,1.875,4.1,1.875
		C153.108,135.195,154.466,134.587,155.417,133.37z"/>
</g>
</svg>
